<svg width="88" height="88" viewBox="0 0 88 88" fill="none" xmlns="http://www.w3.org/2000/svg">
<circle cx="44" cy="44" r="43" fill="#0000FF" stroke="#0000FF"/>
<path d="M76.0472 37.0107C75.8485 36.6532 75.5704 36.378 75.2141 36.1873C74.8616 35.9965 74.4972 35.9 74.1221 35.9C73.749 35.9 73.3856 35.9966 73.0331 36.1873C72.6769 36.378 72.3978 36.6532 72.1972 37.0106L72.1971 37.0108C71.9996 37.3641 71.9 37.735 71.9 38.1221C71.9 38.5072 71.9986 38.876 72.194 39.2273C72.3905 39.5807 72.6652 39.8565 73.0167 40.0532L73.0173 40.0535C73.3686 40.2468 73.7373 40.3443 74.1221 40.3443C74.507 40.3443 74.8757 40.2468 75.2269 40.0535L75.2273 40.0533C75.5809 39.8567 75.8567 39.5809 76.0533 39.2273C76.2487 38.876 76.3473 38.5072 76.3473 38.1221C76.3473 37.7349 76.2466 37.364 76.0472 37.0107ZM76.0472 37.0107C76.0472 37.0108 76.0473 37.0109 76.0474 37.011L75.9599 37.0596L76.047 37.0104C76.0471 37.0105 76.0471 37.0106 76.0472 37.0107ZM74.9956 39.645L74.9953 39.6451C74.7162 39.8008 74.4256 39.8779 74.1221 39.8779C73.8208 39.8779 73.5301 39.8009 73.2487 39.645C72.9697 39.4904 72.7537 39.2753 72.5992 38.9984C72.4434 38.7172 72.3664 38.4255 72.3664 38.1221C72.3664 37.819 72.4443 37.5263 72.6021 37.243C72.7607 36.9599 72.9785 36.7443 73.2567 36.5939C73.5407 36.4414 73.8288 36.3664 74.1221 36.3664C74.4176 36.3664 74.7057 36.4415 74.9875 36.5938L74.9877 36.5939C75.0689 36.6375 75.1448 36.6865 75.2154 36.7411H75.1248H75.0111H74.9216L74.9117 36.83C74.907 36.8723 74.8963 36.8835 74.8954 36.8843L74.8953 36.8843L74.8925 36.8871C74.8885 36.8911 74.8846 36.8937 74.8734 36.8937C74.8735 36.8937 74.8728 36.8937 74.8713 36.8936L74.8651 36.8928C74.8597 36.8919 74.8525 36.8904 74.8433 36.888C74.8248 36.8832 74.8008 36.8754 74.7709 36.8642L74.7709 36.8642L74.7696 36.8637C74.541 36.7813 74.3327 36.7381 74.1461 36.7381C73.7429 36.7381 73.4026 36.8707 73.1328 37.1382C72.8628 37.4061 72.7291 37.7468 72.7291 38.1521C72.7291 38.5349 72.8535 38.855 73.1062 39.1034L73.1068 39.104C73.3619 39.3503 73.6925 39.4703 74.0892 39.4703C74.506 39.4703 74.8507 39.3349 75.1134 39.0591L75.141 39.0302V38.9902V38.7806V38.5007L74.9637 38.7173C74.7529 38.9747 74.519 39.0937 74.2598 39.0937C74.0753 39.0937 73.9221 39.022 73.7945 38.8718C73.6741 38.7278 73.6026 38.4704 73.6026 38.0743C73.6026 37.7064 73.6752 37.4599 73.8002 37.3129L73.8006 37.3125C73.9302 37.1583 74.0863 37.0847 74.2748 37.0847C74.433 37.0847 74.5673 37.1344 74.6823 37.234L74.6823 37.234L74.6835 37.235C74.799 37.3318 74.8768 37.4678 74.913 37.6507L74.929 37.7313H75.0111H75.1248H75.2248V37.6313V36.8411V36.7484C75.394 36.8809 75.5328 37.0455 75.642 37.2427L75.6421 37.2429C75.7999 37.5263 75.8779 37.8189 75.8779 38.1221C75.8779 38.4255 75.8009 38.7172 75.6451 38.9984C75.4906 39.2753 75.2746 39.4904 74.9956 39.645ZM74.7477 37.1583C74.614 37.0426 74.4564 36.9847 74.2748 36.9847C74.0553 36.9847 73.8717 37.0725 73.7241 37.2481L74.7477 37.1583Z" fill="white" stroke="white" stroke-width="0.2"/>
<mask id="path-3-outside-1_104_1087" maskUnits="userSpaceOnUse" x="16" y="35" width="55" height="22" fill="black">
<rect fill="white" x="16" y="35" width="55" height="22"/>
<path d="M23.6069 36.447H26.8723V36.9805H26.6928C26.5732 36.9805 26.3983 37.0911 26.1682 37.3122C25.938 37.5333 25.7286 37.8505 25.5399 38.2639C25.3512 38.6772 25.1188 39.3502 24.8426 40.2826L22.5851 47.7087V52.6114C22.5851 53.813 22.6496 54.5628 22.7784 54.8609C22.9533 55.2646 23.2295 55.4665 23.6069 55.4665H23.9106V56H19.9341V55.4665H20.2655C20.6613 55.4665 20.942 55.2165 21.1077 54.7167C21.209 54.409 21.2596 53.7073 21.2596 52.6114V47.9827L18.6914 39.7924C18.3877 38.8311 18.1805 38.2302 18.0701 37.9899C17.9642 37.7496 17.741 37.4612 17.4004 37.1247C17.3084 37.0286 17.1749 36.9805 17 36.9805V36.447H21.0042V36.9805H20.7971C20.5807 36.9805 20.3805 37.0863 20.1964 37.2978C20.0169 37.5093 19.9272 37.8265 19.9272 38.2495C19.9272 38.5955 20.0676 39.2204 20.3483 40.124L22.3021 46.4254L24.1385 40.398C24.4146 39.4944 24.5527 38.8214 24.5527 38.3792C24.5527 38.1101 24.5182 37.8697 24.4491 37.6583C24.3847 37.4468 24.2903 37.2833 24.1661 37.168C24.0418 37.043 23.8554 36.9805 23.6069 36.9805V36.447Z"/>
<path d="M33.5552 49.4535H29.9307L29.2956 52.5393C29.1391 53.2987 29.0608 53.8659 29.0608 54.2408C29.0608 54.5388 29.1276 54.8032 29.261 55.0339C29.3991 55.255 29.6937 55.3992 30.1447 55.4665V56H27.1968V55.4665C27.588 55.3223 27.8412 55.1348 27.9562 54.9041C28.191 54.4427 28.451 53.5054 28.7364 52.0923L32.0294 36H32.2711L35.5296 52.2653C35.792 53.5727 36.029 54.4235 36.2407 54.8176C36.457 55.2021 36.7562 55.4184 37.1382 55.4665V56H33.4447V55.4665C33.8175 55.428 34.0683 55.2982 34.1972 55.0771C34.3307 54.856 34.3974 54.5869 34.3974 54.2696C34.3974 53.8467 34.3054 53.1786 34.1213 52.2653L33.5552 49.4535ZM33.3619 48.3864L31.774 40.4845L30.1447 48.3864H33.3619Z"/>
<path d="M40.2035 46.8435V52.5393C40.2035 53.7698 40.2679 54.534 40.3968 54.832C40.5717 55.255 40.8363 55.4665 41.1907 55.4665H41.5497V56H37.5386V55.4665H37.8907C38.2865 55.4665 38.5696 55.1973 38.7399 54.659C38.8319 54.361 38.8779 53.6544 38.8779 52.5393V39.9077C38.8779 38.6772 38.8158 37.913 38.6915 37.615C38.5121 37.192 38.2451 36.9805 37.8907 36.9805H37.5386V36.447H40.9698C41.8074 36.447 42.4679 36.6297 42.9512 36.995C43.4344 37.3506 43.8417 37.9563 44.1731 38.8118C44.5045 39.6674 44.6702 40.6816 44.6702 41.8544C44.6702 43.4501 44.417 44.7479 43.9108 45.7477C43.4091 46.7474 42.698 47.2473 41.7775 47.2473C41.552 47.2473 41.3081 47.2137 41.0457 47.1464C40.7834 47.0791 40.5026 46.9781 40.2035 46.8435ZM40.2035 46.0216C40.4474 46.1178 40.6637 46.1899 40.8524 46.2379C41.0411 46.286 41.2022 46.31 41.3357 46.31C41.8143 46.31 42.2263 45.9255 42.5714 45.1565C42.9212 44.3778 43.0961 43.3732 43.0961 42.1428C43.0961 41.2968 43.0133 40.5133 42.8476 39.7924C42.6819 39.0618 42.4472 38.5186 42.1434 38.1629C41.8397 37.7976 41.4945 37.615 41.1079 37.615C40.8731 37.615 40.5717 37.7063 40.2035 37.889V46.0216Z"/>
<path d="M48.0737 46.8435V52.5393C48.0737 53.7698 48.1382 54.534 48.267 54.832C48.4419 55.255 48.7066 55.4665 49.061 55.4665H49.42V56H45.4089V55.4665H45.761C46.1568 55.4665 46.4398 55.1973 46.6101 54.659C46.7022 54.361 46.7482 53.6544 46.7482 52.5393V39.9077C46.7482 38.6772 46.6861 37.913 46.5618 37.615C46.3823 37.192 46.1154 36.9805 45.761 36.9805H45.4089V36.447H48.84C49.6777 36.447 50.3382 36.6297 50.8214 36.995C51.3047 37.3506 51.712 37.9563 52.0434 38.8118C52.3748 39.6674 52.5404 40.6816 52.5404 41.8544C52.5404 43.4501 52.2873 44.7479 51.781 45.7477C51.2794 46.7474 50.5683 47.2473 49.6478 47.2473C49.4223 47.2473 49.1783 47.2137 48.916 47.1464C48.6536 47.0791 48.3729 46.9781 48.0737 46.8435ZM48.0737 46.0216C48.3177 46.1178 48.534 46.1899 48.7227 46.2379C48.9114 46.286 49.0725 46.31 49.2059 46.31C49.6846 46.31 50.0965 45.9255 50.4417 45.1565C50.7915 44.3778 50.9664 43.3732 50.9664 42.1428C50.9664 41.2968 50.8836 40.5133 50.7179 39.7924C50.5522 39.0618 50.3174 38.5186 50.0137 38.1629C49.7099 37.7976 49.3647 37.615 48.9781 37.615C48.7434 37.615 48.4419 37.7063 48.0737 37.889V46.0216Z"/>
<path d="M61.1494 50.5926L61.3772 50.6936L60.5764 56H53.3275V55.4665H53.6796C54.0754 55.4665 54.3584 55.1973 54.5287 54.659C54.6254 54.3514 54.6737 53.64 54.6737 52.5249V39.9077C54.6737 38.6869 54.6093 37.9226 54.4804 37.615C54.3009 37.192 54.034 36.9805 53.6796 36.9805H53.3275V36.447H57.5664V36.9805C57.0693 36.9709 56.7195 37.0671 56.517 37.2689C56.3191 37.4708 56.1833 37.7255 56.1097 38.0332C56.036 38.3408 55.9992 39.0762 55.9992 40.2394V52.5249C55.9992 53.3228 56.036 53.8707 56.1097 54.1687C56.1649 54.3706 56.2501 54.5196 56.3651 54.6157C56.4802 54.7118 56.8392 54.7599 57.4421 54.7599H58.1256C58.8436 54.7599 59.3475 54.6494 59.6375 54.4283C59.9274 54.2072 60.1921 53.8178 60.4314 53.2603C60.6707 52.6931 60.9101 51.8039 61.1494 50.5926Z"/>
<path d="M64.6427 37.5141V45.243H66.7C67.2339 45.243 67.5906 45.0747 67.7701 44.7383C68.0094 44.2961 68.1429 43.5174 68.1705 42.4023H68.4259V49.2084H68.1705C68.1061 48.2567 68.0416 47.6462 67.9772 47.3771C67.8944 47.0406 67.7586 46.7763 67.5699 46.584C67.3812 46.3917 67.0912 46.2956 66.7 46.2956H64.6427V52.7412C64.6427 53.6063 64.6611 54.1351 64.6979 54.3273C64.7347 54.51 64.7992 54.659 64.8912 54.7743C64.9833 54.8801 65.1582 54.9329 65.4159 54.9329H67.0038C67.5331 54.9329 67.9174 54.856 68.1567 54.7022C68.396 54.5484 68.6262 54.2456 68.8471 53.7938C69.1324 53.1978 69.4247 52.299 69.7238 51.0973H70L69.1923 56H61.9779V55.4665H62.3092C62.5302 55.4665 62.7396 55.3559 62.9375 55.1348C63.0848 54.981 63.1837 54.7503 63.2343 54.4427C63.2896 54.1351 63.3172 53.5054 63.3172 52.5537V39.85C63.3172 38.6099 63.2573 37.8457 63.1377 37.5573C62.972 37.1728 62.6958 36.9805 62.3092 36.9805H61.9779V36.447H69.1923L69.2958 40.7296H69.0266C68.9299 39.701 68.8218 38.9945 68.7021 38.6099C68.587 38.2254 68.4144 37.9322 68.1843 37.7304C68.0002 37.5862 67.6757 37.5141 67.2109 37.5141H64.6427Z"/>
</mask>
<path d="M23.6069 36.447H26.8723V36.9805H26.6928C26.5732 36.9805 26.3983 37.0911 26.1682 37.3122C25.938 37.5333 25.7286 37.8505 25.5399 38.2639C25.3512 38.6772 25.1188 39.3502 24.8426 40.2826L22.5851 47.7087V52.6114C22.5851 53.813 22.6496 54.5628 22.7784 54.8609C22.9533 55.2646 23.2295 55.4665 23.6069 55.4665H23.9106V56H19.9341V55.4665H20.2655C20.6613 55.4665 20.942 55.2165 21.1077 54.7167C21.209 54.409 21.2596 53.7073 21.2596 52.6114V47.9827L18.6914 39.7924C18.3877 38.8311 18.1805 38.2302 18.0701 37.9899C17.9642 37.7496 17.741 37.4612 17.4004 37.1247C17.3084 37.0286 17.1749 36.9805 17 36.9805V36.447H21.0042V36.9805H20.7971C20.5807 36.9805 20.3805 37.0863 20.1964 37.2978C20.0169 37.5093 19.9272 37.8265 19.9272 38.2495C19.9272 38.5955 20.0676 39.2204 20.3483 40.124L22.3021 46.4254L24.1385 40.398C24.4146 39.4944 24.5527 38.8214 24.5527 38.3792C24.5527 38.1101 24.5182 37.8697 24.4491 37.6583C24.3847 37.4468 24.2903 37.2833 24.1661 37.168C24.0418 37.043 23.8554 36.9805 23.6069 36.9805V36.447Z" fill="white"/>
<path d="M33.5552 49.4535H29.9307L29.2956 52.5393C29.1391 53.2987 29.0608 53.8659 29.0608 54.2408C29.0608 54.5388 29.1276 54.8032 29.261 55.0339C29.3991 55.255 29.6937 55.3992 30.1447 55.4665V56H27.1968V55.4665C27.588 55.3223 27.8412 55.1348 27.9562 54.9041C28.191 54.4427 28.451 53.5054 28.7364 52.0923L32.0294 36H32.2711L35.5296 52.2653C35.792 53.5727 36.029 54.4235 36.2407 54.8176C36.457 55.2021 36.7562 55.4184 37.1382 55.4665V56H33.4447V55.4665C33.8175 55.428 34.0683 55.2982 34.1972 55.0771C34.3307 54.856 34.3974 54.5869 34.3974 54.2696C34.3974 53.8467 34.3054 53.1786 34.1213 52.2653L33.5552 49.4535ZM33.3619 48.3864L31.774 40.4845L30.1447 48.3864H33.3619Z" fill="white"/>
<path d="M40.2035 46.8435V52.5393C40.2035 53.7698 40.2679 54.534 40.3968 54.832C40.5717 55.255 40.8363 55.4665 41.1907 55.4665H41.5497V56H37.5386V55.4665H37.8907C38.2865 55.4665 38.5696 55.1973 38.7399 54.659C38.8319 54.361 38.8779 53.6544 38.8779 52.5393V39.9077C38.8779 38.6772 38.8158 37.913 38.6915 37.615C38.5121 37.192 38.2451 36.9805 37.8907 36.9805H37.5386V36.447H40.9698C41.8074 36.447 42.4679 36.6297 42.9512 36.995C43.4344 37.3506 43.8417 37.9563 44.1731 38.8118C44.5045 39.6674 44.6702 40.6816 44.6702 41.8544C44.6702 43.4501 44.417 44.7479 43.9108 45.7477C43.4091 46.7474 42.698 47.2473 41.7775 47.2473C41.552 47.2473 41.3081 47.2137 41.0457 47.1464C40.7834 47.0791 40.5026 46.9781 40.2035 46.8435ZM40.2035 46.0216C40.4474 46.1178 40.6637 46.1899 40.8524 46.2379C41.0411 46.286 41.2022 46.31 41.3357 46.31C41.8143 46.31 42.2263 45.9255 42.5714 45.1565C42.9212 44.3778 43.0961 43.3732 43.0961 42.1428C43.0961 41.2968 43.0133 40.5133 42.8476 39.7924C42.6819 39.0618 42.4472 38.5186 42.1434 38.1629C41.8397 37.7976 41.4945 37.615 41.1079 37.615C40.8731 37.615 40.5717 37.7063 40.2035 37.889V46.0216Z" fill="white"/>
<path d="M48.0737 46.8435V52.5393C48.0737 53.7698 48.1382 54.534 48.267 54.832C48.4419 55.255 48.7066 55.4665 49.061 55.4665H49.42V56H45.4089V55.4665H45.761C46.1568 55.4665 46.4398 55.1973 46.6101 54.659C46.7022 54.361 46.7482 53.6544 46.7482 52.5393V39.9077C46.7482 38.6772 46.6861 37.913 46.5618 37.615C46.3823 37.192 46.1154 36.9805 45.761 36.9805H45.4089V36.447H48.84C49.6777 36.447 50.3382 36.6297 50.8214 36.995C51.3047 37.3506 51.712 37.9563 52.0434 38.8118C52.3748 39.6674 52.5404 40.6816 52.5404 41.8544C52.5404 43.4501 52.2873 44.7479 51.781 45.7477C51.2794 46.7474 50.5683 47.2473 49.6478 47.2473C49.4223 47.2473 49.1783 47.2137 48.916 47.1464C48.6536 47.0791 48.3729 46.9781 48.0737 46.8435ZM48.0737 46.0216C48.3177 46.1178 48.534 46.1899 48.7227 46.2379C48.9114 46.286 49.0725 46.31 49.2059 46.31C49.6846 46.31 50.0965 45.9255 50.4417 45.1565C50.7915 44.3778 50.9664 43.3732 50.9664 42.1428C50.9664 41.2968 50.8836 40.5133 50.7179 39.7924C50.5522 39.0618 50.3174 38.5186 50.0137 38.1629C49.7099 37.7976 49.3647 37.615 48.9781 37.615C48.7434 37.615 48.4419 37.7063 48.0737 37.889V46.0216Z" fill="white"/>
<path d="M61.1494 50.5926L61.3772 50.6936L60.5764 56H53.3275V55.4665H53.6796C54.0754 55.4665 54.3584 55.1973 54.5287 54.659C54.6254 54.3514 54.6737 53.64 54.6737 52.5249V39.9077C54.6737 38.6869 54.6093 37.9226 54.4804 37.615C54.3009 37.192 54.034 36.9805 53.6796 36.9805H53.3275V36.447H57.5664V36.9805C57.0693 36.9709 56.7195 37.0671 56.517 37.2689C56.3191 37.4708 56.1833 37.7255 56.1097 38.0332C56.036 38.3408 55.9992 39.0762 55.9992 40.2394V52.5249C55.9992 53.3228 56.036 53.8707 56.1097 54.1687C56.1649 54.3706 56.2501 54.5196 56.3651 54.6157C56.4802 54.7118 56.8392 54.7599 57.4421 54.7599H58.1256C58.8436 54.7599 59.3475 54.6494 59.6375 54.4283C59.9274 54.2072 60.1921 53.8178 60.4314 53.2603C60.6707 52.6931 60.9101 51.8039 61.1494 50.5926Z" fill="white"/>
<path d="M64.6427 37.5141V45.243H66.7C67.2339 45.243 67.5906 45.0747 67.7701 44.7383C68.0094 44.2961 68.1429 43.5174 68.1705 42.4023H68.4259V49.2084H68.1705C68.1061 48.2567 68.0416 47.6462 67.9772 47.3771C67.8944 47.0406 67.7586 46.7763 67.5699 46.584C67.3812 46.3917 67.0912 46.2956 66.7 46.2956H64.6427V52.7412C64.6427 53.6063 64.6611 54.1351 64.6979 54.3273C64.7347 54.51 64.7992 54.659 64.8912 54.7743C64.9833 54.8801 65.1582 54.9329 65.4159 54.9329H67.0038C67.5331 54.9329 67.9174 54.856 68.1567 54.7022C68.396 54.5484 68.6262 54.2456 68.8471 53.7938C69.1324 53.1978 69.4247 52.299 69.7238 51.0973H70L69.1923 56H61.9779V55.4665H62.3092C62.5302 55.4665 62.7396 55.3559 62.9375 55.1348C63.0848 54.981 63.1837 54.7503 63.2343 54.4427C63.2896 54.1351 63.3172 53.5054 63.3172 52.5537V39.85C63.3172 38.6099 63.2573 37.8457 63.1377 37.5573C62.972 37.1728 62.6958 36.9805 62.3092 36.9805H61.9779V36.447H69.1923L69.2958 40.7296H69.0266C68.9299 39.701 68.8218 38.9945 68.7021 38.6099C68.587 38.2254 68.4144 37.9322 68.1843 37.7304C68.0002 37.5862 67.6757 37.5141 67.2109 37.5141H64.6427Z" fill="white"/>
<path d="M23.6069 36.447H26.8723V36.9805H26.6928C26.5732 36.9805 26.3983 37.0911 26.1682 37.3122C25.938 37.5333 25.7286 37.8505 25.5399 38.2639C25.3512 38.6772 25.1188 39.3502 24.8426 40.2826L22.5851 47.7087V52.6114C22.5851 53.813 22.6496 54.5628 22.7784 54.8609C22.9533 55.2646 23.2295 55.4665 23.6069 55.4665H23.9106V56H19.9341V55.4665H20.2655C20.6613 55.4665 20.942 55.2165 21.1077 54.7167C21.209 54.409 21.2596 53.7073 21.2596 52.6114V47.9827L18.6914 39.7924C18.3877 38.8311 18.1805 38.2302 18.0701 37.9899C17.9642 37.7496 17.741 37.4612 17.4004 37.1247C17.3084 37.0286 17.1749 36.9805 17 36.9805V36.447H21.0042V36.9805H20.7971C20.5807 36.9805 20.3805 37.0863 20.1964 37.2978C20.0169 37.5093 19.9272 37.8265 19.9272 38.2495C19.9272 38.5955 20.0676 39.2204 20.3483 40.124L22.3021 46.4254L24.1385 40.398C24.4146 39.4944 24.5527 38.8214 24.5527 38.3792C24.5527 38.1101 24.5182 37.8697 24.4491 37.6583C24.3847 37.4468 24.2903 37.2833 24.1661 37.168C24.0418 37.043 23.8554 36.9805 23.6069 36.9805V36.447Z" stroke="white" stroke-width="1.6" mask="url(#path-3-outside-1_104_1087)"/>
<path d="M33.5552 49.4535H29.9307L29.2956 52.5393C29.1391 53.2987 29.0608 53.8659 29.0608 54.2408C29.0608 54.5388 29.1276 54.8032 29.261 55.0339C29.3991 55.255 29.6937 55.3992 30.1447 55.4665V56H27.1968V55.4665C27.588 55.3223 27.8412 55.1348 27.9562 54.9041C28.191 54.4427 28.451 53.5054 28.7364 52.0923L32.0294 36H32.2711L35.5296 52.2653C35.792 53.5727 36.029 54.4235 36.2407 54.8176C36.457 55.2021 36.7562 55.4184 37.1382 55.4665V56H33.4447V55.4665C33.8175 55.428 34.0683 55.2982 34.1972 55.0771C34.3307 54.856 34.3974 54.5869 34.3974 54.2696C34.3974 53.8467 34.3054 53.1786 34.1213 52.2653L33.5552 49.4535ZM33.3619 48.3864L31.774 40.4845L30.1447 48.3864H33.3619Z" stroke="white" stroke-width="1.6" mask="url(#path-3-outside-1_104_1087)"/>
<path d="M40.2035 46.8435V52.5393C40.2035 53.7698 40.2679 54.534 40.3968 54.832C40.5717 55.255 40.8363 55.4665 41.1907 55.4665H41.5497V56H37.5386V55.4665H37.8907C38.2865 55.4665 38.5696 55.1973 38.7399 54.659C38.8319 54.361 38.8779 53.6544 38.8779 52.5393V39.9077C38.8779 38.6772 38.8158 37.913 38.6915 37.615C38.5121 37.192 38.2451 36.9805 37.8907 36.9805H37.5386V36.447H40.9698C41.8074 36.447 42.4679 36.6297 42.9512 36.995C43.4344 37.3506 43.8417 37.9563 44.1731 38.8118C44.5045 39.6674 44.6702 40.6816 44.6702 41.8544C44.6702 43.4501 44.417 44.7479 43.9108 45.7477C43.4091 46.7474 42.698 47.2473 41.7775 47.2473C41.552 47.2473 41.3081 47.2137 41.0457 47.1464C40.7834 47.0791 40.5026 46.9781 40.2035 46.8435ZM40.2035 46.0216C40.4474 46.1178 40.6637 46.1899 40.8524 46.2379C41.0411 46.286 41.2022 46.31 41.3357 46.31C41.8143 46.31 42.2263 45.9255 42.5714 45.1565C42.9212 44.3778 43.0961 43.3732 43.0961 42.1428C43.0961 41.2968 43.0133 40.5133 42.8476 39.7924C42.6819 39.0618 42.4472 38.5186 42.1434 38.1629C41.8397 37.7976 41.4945 37.615 41.1079 37.615C40.8731 37.615 40.5717 37.7063 40.2035 37.889V46.0216Z" stroke="white" stroke-width="1.6" mask="url(#path-3-outside-1_104_1087)"/>
<path d="M48.0737 46.8435V52.5393C48.0737 53.7698 48.1382 54.534 48.267 54.832C48.4419 55.255 48.7066 55.4665 49.061 55.4665H49.42V56H45.4089V55.4665H45.761C46.1568 55.4665 46.4398 55.1973 46.6101 54.659C46.7022 54.361 46.7482 53.6544 46.7482 52.5393V39.9077C46.7482 38.6772 46.6861 37.913 46.5618 37.615C46.3823 37.192 46.1154 36.9805 45.761 36.9805H45.4089V36.447H48.84C49.6777 36.447 50.3382 36.6297 50.8214 36.995C51.3047 37.3506 51.712 37.9563 52.0434 38.8118C52.3748 39.6674 52.5404 40.6816 52.5404 41.8544C52.5404 43.4501 52.2873 44.7479 51.781 45.7477C51.2794 46.7474 50.5683 47.2473 49.6478 47.2473C49.4223 47.2473 49.1783 47.2137 48.916 47.1464C48.6536 47.0791 48.3729 46.9781 48.0737 46.8435ZM48.0737 46.0216C48.3177 46.1178 48.534 46.1899 48.7227 46.2379C48.9114 46.286 49.0725 46.31 49.2059 46.31C49.6846 46.31 50.0965 45.9255 50.4417 45.1565C50.7915 44.3778 50.9664 43.3732 50.9664 42.1428C50.9664 41.2968 50.8836 40.5133 50.7179 39.7924C50.5522 39.0618 50.3174 38.5186 50.0137 38.1629C49.7099 37.7976 49.3647 37.615 48.9781 37.615C48.7434 37.615 48.4419 37.7063 48.0737 37.889V46.0216Z" stroke="white" stroke-width="1.6" mask="url(#path-3-outside-1_104_1087)"/>
<path d="M61.1494 50.5926L61.3772 50.6936L60.5764 56H53.3275V55.4665H53.6796C54.0754 55.4665 54.3584 55.1973 54.5287 54.659C54.6254 54.3514 54.6737 53.64 54.6737 52.5249V39.9077C54.6737 38.6869 54.6093 37.9226 54.4804 37.615C54.3009 37.192 54.034 36.9805 53.6796 36.9805H53.3275V36.447H57.5664V36.9805C57.0693 36.9709 56.7195 37.0671 56.517 37.2689C56.3191 37.4708 56.1833 37.7255 56.1097 38.0332C56.036 38.3408 55.9992 39.0762 55.9992 40.2394V52.5249C55.9992 53.3228 56.036 53.8707 56.1097 54.1687C56.1649 54.3706 56.2501 54.5196 56.3651 54.6157C56.4802 54.7118 56.8392 54.7599 57.4421 54.7599H58.1256C58.8436 54.7599 59.3475 54.6494 59.6375 54.4283C59.9274 54.2072 60.1921 53.8178 60.4314 53.2603C60.6707 52.6931 60.9101 51.8039 61.1494 50.5926Z" stroke="white" stroke-width="1.6" mask="url(#path-3-outside-1_104_1087)"/>
<path d="M64.6427 37.5141V45.243H66.7C67.2339 45.243 67.5906 45.0747 67.7701 44.7383C68.0094 44.2961 68.1429 43.5174 68.1705 42.4023H68.4259V49.2084H68.1705C68.1061 48.2567 68.0416 47.6462 67.9772 47.3771C67.8944 47.0406 67.7586 46.7763 67.5699 46.584C67.3812 46.3917 67.0912 46.2956 66.7 46.2956H64.6427V52.7412C64.6427 53.6063 64.6611 54.1351 64.6979 54.3273C64.7347 54.51 64.7992 54.659 64.8912 54.7743C64.9833 54.8801 65.1582 54.9329 65.4159 54.9329H67.0038C67.5331 54.9329 67.9174 54.856 68.1567 54.7022C68.396 54.5484 68.6262 54.2456 68.8471 53.7938C69.1324 53.1978 69.4247 52.299 69.7238 51.0973H70L69.1923 56H61.9779V55.4665H62.3092C62.5302 55.4665 62.7396 55.3559 62.9375 55.1348C63.0848 54.981 63.1837 54.7503 63.2343 54.4427C63.2896 54.1351 63.3172 53.5054 63.3172 52.5537V39.85C63.3172 38.6099 63.2573 37.8457 63.1377 37.5573C62.972 37.1728 62.6958 36.9805 62.3092 36.9805H61.9779V36.447H69.1923L69.2958 40.7296H69.0266C68.9299 39.701 68.8218 38.9945 68.7021 38.6099C68.587 38.2254 68.4144 37.9322 68.1843 37.7304C68.0002 37.5862 67.6757 37.5141 67.2109 37.5141H64.6427Z" stroke="white" stroke-width="1.6" mask="url(#path-3-outside-1_104_1087)"/>
<mask id="path-4-outside-2_104_1087" maskUnits="userSpaceOnUse" x="31" y="58.4443" width="25" height="9" fill="black">
<rect fill="white" x="31" y="58.4443" width="25" height="9"/>
<path d="M36.3325 60.8544L35.9856 62.5999H35.7753C35.7563 62.092 35.6483 61.7224 35.4512 61.4912C35.2541 61.26 35.0096 61.1443 34.7177 61.1443C34.4827 61.1443 34.2951 61.2088 34.1549 61.3377C34.0184 61.4665 33.9502 61.6219 33.9502 61.8039C33.9502 61.929 33.9767 62.0484 34.0298 62.1621C34.0866 62.2758 34.2079 62.435 34.3937 62.6397C34.8864 63.1779 35.2048 63.5835 35.3488 63.8564C35.4929 64.1293 35.5649 64.3871 35.5649 64.6296C35.5649 65.0239 35.4 65.3745 35.0702 65.6815C34.7443 65.9847 34.3311 66.1363 33.8308 66.1363C33.5579 66.1363 33.2433 66.0719 32.887 65.943C32.7619 65.8975 32.6652 65.8748 32.597 65.8748C32.4264 65.8748 32.2975 65.962 32.2104 66.1363H32L32.3468 64.2942H32.5572C32.5799 64.8703 32.6993 65.2778 32.9154 65.5166C33.1314 65.7554 33.4271 65.8748 33.8024 65.8748C34.0904 65.8748 34.3178 65.7952 34.4846 65.636C34.6552 65.473 34.7405 65.274 34.7405 65.039C34.7405 64.8874 34.7102 64.7471 34.6495 64.6183C34.5434 64.3908 34.3197 64.0762 33.9786 63.6745C33.6413 63.2727 33.4233 62.9713 33.3248 62.7704C33.23 62.5695 33.1826 62.3687 33.1826 62.1678C33.1826 61.8001 33.3153 61.4893 33.5806 61.2353C33.8497 60.9814 34.1947 60.8544 34.6154 60.8544C34.7367 60.8544 34.8466 60.8639 34.9452 60.8828C34.9982 60.8942 35.1214 60.9378 35.3147 61.0136C35.5118 61.0856 35.6426 61.1216 35.707 61.1216C35.87 61.1216 36.0065 61.0325 36.1164 60.8544H36.3325Z"/>
<path d="M39.6699 59.4443L39.2265 60.9908H40.1191L40.0224 61.349H39.1355L38.1576 64.7036C38.0514 65.0637 37.9984 65.2968 37.9984 65.4029C37.9984 65.4673 38.0135 65.5166 38.0438 65.5507C38.0742 65.5848 38.1102 65.6019 38.1519 65.6019C38.2466 65.6019 38.3717 65.5356 38.5271 65.4029C38.6181 65.3271 38.8209 65.094 39.1355 64.7036L39.3231 64.8457C38.9744 65.3536 38.6446 65.7118 38.3338 65.9203C38.1215 66.0643 37.9074 66.1363 37.6913 66.1363C37.5246 66.1363 37.3881 66.0852 37.282 65.9828C37.1758 65.8767 37.1228 65.7421 37.1228 65.5791C37.1228 65.3745 37.1834 65.0618 37.3047 64.641L38.2542 61.349H37.3957L37.4525 61.1273C37.8695 61.0136 38.2163 60.8449 38.493 60.6213C38.7697 60.3938 39.0786 60.0015 39.4198 59.4443H39.6699Z"/>
<path d="M45.2703 62.634C45.2703 63.2025 45.1187 63.7654 44.8154 64.3226C44.516 64.8798 44.0972 65.3214 43.5589 65.6474C43.0207 65.9734 42.4976 66.1363 41.9897 66.1363C41.4704 66.1363 41.0459 65.9715 40.7161 65.6417C40.3901 65.3081 40.2271 64.8779 40.2271 64.351C40.2271 63.7939 40.3863 63.2348 40.7047 62.6738C41.0269 62.1128 41.4552 61.6693 41.9897 61.3433C42.5279 61.0174 43.0472 60.8544 43.5475 60.8544C44.0479 60.8544 44.4591 61.0193 44.7813 61.349C45.1073 61.6788 45.2703 62.1071 45.2703 62.634ZM44.3265 62.2417C44.3265 61.8892 44.2393 61.62 44.0649 61.4343C43.8944 61.2448 43.6726 61.15 43.3997 61.15C42.8425 61.15 42.3289 61.5499 41.8589 62.3497C41.3927 63.1457 41.1596 63.9379 41.1596 64.7263C41.1596 65.0864 41.2505 65.365 41.4325 65.5621C41.6144 65.7554 41.8437 65.8521 42.1205 65.8521C42.6549 65.8521 43.1552 65.456 43.6215 64.6638C44.0915 63.8678 44.3265 63.0604 44.3265 62.2417Z"/>
<path d="M46.3165 61.1728L48.278 60.8544L47.4593 63.6176C48.1226 62.4843 48.7253 61.6921 49.2673 61.241C49.5743 60.9833 49.8245 60.8544 50.0178 60.8544C50.1429 60.8544 50.2415 60.8923 50.3135 60.9681C50.3855 61.0401 50.4215 61.1462 50.4215 61.2865C50.4215 61.5367 50.3571 61.7755 50.2282 62.0029C50.1372 62.1734 50.0064 62.2587 49.8359 62.2587C49.7487 62.2587 49.6729 62.2303 49.6084 62.1734C49.5478 62.1166 49.5099 62.0294 49.4947 61.9119C49.4872 61.8399 49.4701 61.7925 49.4436 61.7698C49.4132 61.7394 49.3772 61.7243 49.3355 61.7243C49.2711 61.7243 49.2105 61.7394 49.1536 61.7698C49.055 61.8228 48.9053 61.9707 48.7044 62.2132C48.3898 62.5847 48.0487 63.0661 47.681 63.6574C47.5218 63.9076 47.3854 64.19 47.2716 64.5046C47.1124 64.9367 47.0215 65.1963 46.9987 65.2835L46.8168 65.9999H45.9469L46.9987 62.4691C47.12 62.0597 47.1807 61.7679 47.1807 61.5935C47.1807 61.5253 47.1522 61.4684 47.0954 61.4229C47.0196 61.3623 46.9191 61.332 46.7941 61.332C46.7145 61.332 46.5685 61.349 46.3563 61.3831L46.3165 61.1728Z"/>
<path d="M51.2004 63.8564C51.1739 64.0459 51.1606 64.2032 51.1606 64.3283C51.1606 64.6657 51.28 64.9537 51.5188 65.1925C51.7576 65.4275 52.0476 65.545 52.3887 65.545C52.6616 65.545 52.9232 65.4901 53.1733 65.3802C53.4273 65.2664 53.8026 65.0182 54.2991 64.6353L54.4185 64.8002C53.5202 65.691 52.6635 66.1363 51.8486 66.1363C51.2952 66.1363 50.8782 65.962 50.5978 65.6133C50.3173 65.2645 50.177 64.8798 50.177 64.4591C50.177 63.8943 50.3514 63.3163 50.7001 62.725C51.0488 62.1336 51.4866 61.675 52.0135 61.349C52.5403 61.0193 53.0824 60.8544 53.6396 60.8544C54.0414 60.8544 54.3389 60.9359 54.5322 61.0989C54.7255 61.2618 54.8222 61.4552 54.8222 61.6788C54.8222 61.9934 54.6971 62.2947 54.4469 62.5828C54.1172 62.9581 53.632 63.2613 52.9914 63.4925C52.5669 63.6479 51.9699 63.7692 51.2004 63.8564ZM51.2402 63.5778C51.8012 63.5134 52.258 63.4034 52.6105 63.248C53.0767 63.0396 53.4254 62.7913 53.6566 62.5032C53.8916 62.2114 54.0091 61.9346 54.0091 61.6731C54.0091 61.5139 53.958 61.385 53.8556 61.2865C53.7571 61.1879 53.6149 61.1387 53.4292 61.1387C53.0426 61.1387 52.6313 61.3452 52.1954 61.7584C51.7633 62.1678 51.4449 62.7742 51.2402 63.5778Z"/>
</mask>
<path d="M36.3325 60.8544L35.9856 62.5999H35.7753C35.7563 62.092 35.6483 61.7224 35.4512 61.4912C35.2541 61.26 35.0096 61.1443 34.7177 61.1443C34.4827 61.1443 34.2951 61.2088 34.1549 61.3377C34.0184 61.4665 33.9502 61.6219 33.9502 61.8039C33.9502 61.929 33.9767 62.0484 34.0298 62.1621C34.0866 62.2758 34.2079 62.435 34.3937 62.6397C34.8864 63.1779 35.2048 63.5835 35.3488 63.8564C35.4929 64.1293 35.5649 64.3871 35.5649 64.6296C35.5649 65.0239 35.4 65.3745 35.0702 65.6815C34.7443 65.9847 34.3311 66.1363 33.8308 66.1363C33.5579 66.1363 33.2433 66.0719 32.887 65.943C32.7619 65.8975 32.6652 65.8748 32.597 65.8748C32.4264 65.8748 32.2975 65.962 32.2104 66.1363H32L32.3468 64.2942H32.5572C32.5799 64.8703 32.6993 65.2778 32.9154 65.5166C33.1314 65.7554 33.4271 65.8748 33.8024 65.8748C34.0904 65.8748 34.3178 65.7952 34.4846 65.636C34.6552 65.473 34.7405 65.274 34.7405 65.039C34.7405 64.8874 34.7102 64.7471 34.6495 64.6183C34.5434 64.3908 34.3197 64.0762 33.9786 63.6745C33.6413 63.2727 33.4233 62.9713 33.3248 62.7704C33.23 62.5695 33.1826 62.3687 33.1826 62.1678C33.1826 61.8001 33.3153 61.4893 33.5806 61.2353C33.8497 60.9814 34.1947 60.8544 34.6154 60.8544C34.7367 60.8544 34.8466 60.8639 34.9452 60.8828C34.9982 60.8942 35.1214 60.9378 35.3147 61.0136C35.5118 61.0856 35.6426 61.1216 35.707 61.1216C35.87 61.1216 36.0065 61.0325 36.1164 60.8544H36.3325Z" fill="white"/>
<path d="M39.6699 59.4443L39.2265 60.9908H40.1191L40.0224 61.349H39.1355L38.1576 64.7036C38.0514 65.0637 37.9984 65.2968 37.9984 65.4029C37.9984 65.4673 38.0135 65.5166 38.0438 65.5507C38.0742 65.5848 38.1102 65.6019 38.1519 65.6019C38.2466 65.6019 38.3717 65.5356 38.5271 65.4029C38.6181 65.3271 38.8209 65.094 39.1355 64.7036L39.3231 64.8457C38.9744 65.3536 38.6446 65.7118 38.3338 65.9203C38.1215 66.0643 37.9074 66.1363 37.6913 66.1363C37.5246 66.1363 37.3881 66.0852 37.282 65.9828C37.1758 65.8767 37.1228 65.7421 37.1228 65.5791C37.1228 65.3745 37.1834 65.0618 37.3047 64.641L38.2542 61.349H37.3957L37.4525 61.1273C37.8695 61.0136 38.2163 60.8449 38.493 60.6213C38.7697 60.3938 39.0786 60.0015 39.4198 59.4443H39.6699Z" fill="white"/>
<path d="M45.2703 62.634C45.2703 63.2025 45.1187 63.7654 44.8154 64.3226C44.516 64.8798 44.0972 65.3214 43.5589 65.6474C43.0207 65.9734 42.4976 66.1363 41.9897 66.1363C41.4704 66.1363 41.0459 65.9715 40.7161 65.6417C40.3901 65.3081 40.2271 64.8779 40.2271 64.351C40.2271 63.7939 40.3863 63.2348 40.7047 62.6738C41.0269 62.1128 41.4552 61.6693 41.9897 61.3433C42.5279 61.0174 43.0472 60.8544 43.5475 60.8544C44.0479 60.8544 44.4591 61.0193 44.7813 61.349C45.1073 61.6788 45.2703 62.1071 45.2703 62.634ZM44.3265 62.2417C44.3265 61.8892 44.2393 61.62 44.0649 61.4343C43.8944 61.2448 43.6726 61.15 43.3997 61.15C42.8425 61.15 42.3289 61.5499 41.8589 62.3497C41.3927 63.1457 41.1596 63.9379 41.1596 64.7263C41.1596 65.0864 41.2505 65.365 41.4325 65.5621C41.6144 65.7554 41.8437 65.8521 42.1205 65.8521C42.6549 65.8521 43.1552 65.456 43.6215 64.6638C44.0915 63.8678 44.3265 63.0604 44.3265 62.2417Z" fill="white"/>
<path d="M46.3165 61.1728L48.278 60.8544L47.4593 63.6176C48.1226 62.4843 48.7253 61.6921 49.2673 61.241C49.5743 60.9833 49.8245 60.8544 50.0178 60.8544C50.1429 60.8544 50.2415 60.8923 50.3135 60.9681C50.3855 61.0401 50.4215 61.1462 50.4215 61.2865C50.4215 61.5367 50.3571 61.7755 50.2282 62.0029C50.1372 62.1734 50.0064 62.2587 49.8359 62.2587C49.7487 62.2587 49.6729 62.2303 49.6084 62.1734C49.5478 62.1166 49.5099 62.0294 49.4947 61.9119C49.4872 61.8399 49.4701 61.7925 49.4436 61.7698C49.4132 61.7394 49.3772 61.7243 49.3355 61.7243C49.2711 61.7243 49.2105 61.7394 49.1536 61.7698C49.055 61.8228 48.9053 61.9707 48.7044 62.2132C48.3898 62.5847 48.0487 63.0661 47.681 63.6574C47.5218 63.9076 47.3854 64.19 47.2716 64.5046C47.1124 64.9367 47.0215 65.1963 46.9987 65.2835L46.8168 65.9999H45.9469L46.9987 62.4691C47.12 62.0597 47.1807 61.7679 47.1807 61.5935C47.1807 61.5253 47.1522 61.4684 47.0954 61.4229C47.0196 61.3623 46.9191 61.332 46.7941 61.332C46.7145 61.332 46.5685 61.349 46.3563 61.3831L46.3165 61.1728Z" fill="white"/>
<path d="M51.2004 63.8564C51.1739 64.0459 51.1606 64.2032 51.1606 64.3283C51.1606 64.6657 51.28 64.9537 51.5188 65.1925C51.7576 65.4275 52.0476 65.545 52.3887 65.545C52.6616 65.545 52.9232 65.4901 53.1733 65.3802C53.4273 65.2664 53.8026 65.0182 54.2991 64.6353L54.4185 64.8002C53.5202 65.691 52.6635 66.1363 51.8486 66.1363C51.2952 66.1363 50.8782 65.962 50.5978 65.6133C50.3173 65.2645 50.177 64.8798 50.177 64.4591C50.177 63.8943 50.3514 63.3163 50.7001 62.725C51.0488 62.1336 51.4866 61.675 52.0135 61.349C52.5403 61.0193 53.0824 60.8544 53.6396 60.8544C54.0414 60.8544 54.3389 60.9359 54.5322 61.0989C54.7255 61.2618 54.8222 61.4552 54.8222 61.6788C54.8222 61.9934 54.6971 62.2947 54.4469 62.5828C54.1172 62.9581 53.632 63.2613 52.9914 63.4925C52.5669 63.6479 51.9699 63.7692 51.2004 63.8564ZM51.2402 63.5778C51.8012 63.5134 52.258 63.4034 52.6105 63.248C53.0767 63.0396 53.4254 62.7913 53.6566 62.5032C53.8916 62.2114 54.0091 61.9346 54.0091 61.6731C54.0091 61.5139 53.958 61.385 53.8556 61.2865C53.7571 61.1879 53.6149 61.1387 53.4292 61.1387C53.0426 61.1387 52.6313 61.3452 52.1954 61.7584C51.7633 62.1678 51.4449 62.7742 51.2402 63.5778Z" fill="white"/>
<path d="M36.3325 60.8544L35.9856 62.5999H35.7753C35.7563 62.092 35.6483 61.7224 35.4512 61.4912C35.2541 61.26 35.0096 61.1443 34.7177 61.1443C34.4827 61.1443 34.2951 61.2088 34.1549 61.3377C34.0184 61.4665 33.9502 61.6219 33.9502 61.8039C33.9502 61.929 33.9767 62.0484 34.0298 62.1621C34.0866 62.2758 34.2079 62.435 34.3937 62.6397C34.8864 63.1779 35.2048 63.5835 35.3488 63.8564C35.4929 64.1293 35.5649 64.3871 35.5649 64.6296C35.5649 65.0239 35.4 65.3745 35.0702 65.6815C34.7443 65.9847 34.3311 66.1363 33.8308 66.1363C33.5579 66.1363 33.2433 66.0719 32.887 65.943C32.7619 65.8975 32.6652 65.8748 32.597 65.8748C32.4264 65.8748 32.2975 65.962 32.2104 66.1363H32L32.3468 64.2942H32.5572C32.5799 64.8703 32.6993 65.2778 32.9154 65.5166C33.1314 65.7554 33.4271 65.8748 33.8024 65.8748C34.0904 65.8748 34.3178 65.7952 34.4846 65.636C34.6552 65.473 34.7405 65.274 34.7405 65.039C34.7405 64.8874 34.7102 64.7471 34.6495 64.6183C34.5434 64.3908 34.3197 64.0762 33.9786 63.6745C33.6413 63.2727 33.4233 62.9713 33.3248 62.7704C33.23 62.5695 33.1826 62.3687 33.1826 62.1678C33.1826 61.8001 33.3153 61.4893 33.5806 61.2353C33.8497 60.9814 34.1947 60.8544 34.6154 60.8544C34.7367 60.8544 34.8466 60.8639 34.9452 60.8828C34.9982 60.8942 35.1214 60.9378 35.3147 61.0136C35.5118 61.0856 35.6426 61.1216 35.707 61.1216C35.87 61.1216 36.0065 61.0325 36.1164 60.8544H36.3325Z" stroke="white" mask="url(#path-4-outside-2_104_1087)"/>
<path d="M39.6699 59.4443L39.2265 60.9908H40.1191L40.0224 61.349H39.1355L38.1576 64.7036C38.0514 65.0637 37.9984 65.2968 37.9984 65.4029C37.9984 65.4673 38.0135 65.5166 38.0438 65.5507C38.0742 65.5848 38.1102 65.6019 38.1519 65.6019C38.2466 65.6019 38.3717 65.5356 38.5271 65.4029C38.6181 65.3271 38.8209 65.094 39.1355 64.7036L39.3231 64.8457C38.9744 65.3536 38.6446 65.7118 38.3338 65.9203C38.1215 66.0643 37.9074 66.1363 37.6913 66.1363C37.5246 66.1363 37.3881 66.0852 37.282 65.9828C37.1758 65.8767 37.1228 65.7421 37.1228 65.5791C37.1228 65.3745 37.1834 65.0618 37.3047 64.641L38.2542 61.349H37.3957L37.4525 61.1273C37.8695 61.0136 38.2163 60.8449 38.493 60.6213C38.7697 60.3938 39.0786 60.0015 39.4198 59.4443H39.6699Z" stroke="white" mask="url(#path-4-outside-2_104_1087)"/>
<path d="M45.2703 62.634C45.2703 63.2025 45.1187 63.7654 44.8154 64.3226C44.516 64.8798 44.0972 65.3214 43.5589 65.6474C43.0207 65.9734 42.4976 66.1363 41.9897 66.1363C41.4704 66.1363 41.0459 65.9715 40.7161 65.6417C40.3901 65.3081 40.2271 64.8779 40.2271 64.351C40.2271 63.7939 40.3863 63.2348 40.7047 62.6738C41.0269 62.1128 41.4552 61.6693 41.9897 61.3433C42.5279 61.0174 43.0472 60.8544 43.5475 60.8544C44.0479 60.8544 44.4591 61.0193 44.7813 61.349C45.1073 61.6788 45.2703 62.1071 45.2703 62.634ZM44.3265 62.2417C44.3265 61.8892 44.2393 61.62 44.0649 61.4343C43.8944 61.2448 43.6726 61.15 43.3997 61.15C42.8425 61.15 42.3289 61.5499 41.8589 62.3497C41.3927 63.1457 41.1596 63.9379 41.1596 64.7263C41.1596 65.0864 41.2505 65.365 41.4325 65.5621C41.6144 65.7554 41.8437 65.8521 42.1205 65.8521C42.6549 65.8521 43.1552 65.456 43.6215 64.6638C44.0915 63.8678 44.3265 63.0604 44.3265 62.2417Z" stroke="white" mask="url(#path-4-outside-2_104_1087)"/>
<path d="M46.3165 61.1728L48.278 60.8544L47.4593 63.6176C48.1226 62.4843 48.7253 61.6921 49.2673 61.241C49.5743 60.9833 49.8245 60.8544 50.0178 60.8544C50.1429 60.8544 50.2415 60.8923 50.3135 60.9681C50.3855 61.0401 50.4215 61.1462 50.4215 61.2865C50.4215 61.5367 50.3571 61.7755 50.2282 62.0029C50.1372 62.1734 50.0064 62.2587 49.8359 62.2587C49.7487 62.2587 49.6729 62.2303 49.6084 62.1734C49.5478 62.1166 49.5099 62.0294 49.4947 61.9119C49.4872 61.8399 49.4701 61.7925 49.4436 61.7698C49.4132 61.7394 49.3772 61.7243 49.3355 61.7243C49.2711 61.7243 49.2105 61.7394 49.1536 61.7698C49.055 61.8228 48.9053 61.9707 48.7044 62.2132C48.3898 62.5847 48.0487 63.0661 47.681 63.6574C47.5218 63.9076 47.3854 64.19 47.2716 64.5046C47.1124 64.9367 47.0215 65.1963 46.9987 65.2835L46.8168 65.9999H45.9469L46.9987 62.4691C47.12 62.0597 47.1807 61.7679 47.1807 61.5935C47.1807 61.5253 47.1522 61.4684 47.0954 61.4229C47.0196 61.3623 46.9191 61.332 46.7941 61.332C46.7145 61.332 46.5685 61.349 46.3563 61.3831L46.3165 61.1728Z" stroke="white" mask="url(#path-4-outside-2_104_1087)"/>
<path d="M51.2004 63.8564C51.1739 64.0459 51.1606 64.2032 51.1606 64.3283C51.1606 64.6657 51.28 64.9537 51.5188 65.1925C51.7576 65.4275 52.0476 65.545 52.3887 65.545C52.6616 65.545 52.9232 65.4901 53.1733 65.3802C53.4273 65.2664 53.8026 65.0182 54.2991 64.6353L54.4185 64.8002C53.5202 65.691 52.6635 66.1363 51.8486 66.1363C51.2952 66.1363 50.8782 65.962 50.5978 65.6133C50.3173 65.2645 50.177 64.8798 50.177 64.4591C50.177 63.8943 50.3514 63.3163 50.7001 62.725C51.0488 62.1336 51.4866 61.675 52.0135 61.349C52.5403 61.0193 53.0824 60.8544 53.6396 60.8544C54.0414 60.8544 54.3389 60.9359 54.5322 61.0989C54.7255 61.2618 54.8222 61.4552 54.8222 61.6788C54.8222 61.9934 54.6971 62.2947 54.4469 62.5828C54.1172 62.9581 53.632 63.2613 52.9914 63.4925C52.5669 63.6479 51.9699 63.7692 51.2004 63.8564ZM51.2402 63.5778C51.8012 63.5134 52.258 63.4034 52.6105 63.248C53.0767 63.0396 53.4254 62.7913 53.6566 62.5032C53.8916 62.2114 54.0091 61.9346 54.0091 61.6731C54.0091 61.5139 53.958 61.385 53.8556 61.2865C53.7571 61.1879 53.6149 61.1387 53.4292 61.1387C53.0426 61.1387 52.6313 61.3452 52.1954 61.7584C51.7633 62.1678 51.4449 62.7742 51.2402 63.5778Z" stroke="white" mask="url(#path-4-outside-2_104_1087)"/>
<mask id="path-5-inside-3_104_1087" fill="white">
<path d="M40.7748 21C41.4533 21 42.1318 21 42.8104 21C42.8241 21.009 42.8375 21.0251 42.8514 21.0255C42.8975 21.027 42.9349 21.0446 42.9773 21.062C43.0504 21.092 43.134 21.0951 43.1911 21.1618C43.1972 21.1689 43.2178 21.1624 43.2313 21.1645C43.3358 21.1809 43.448 21.1717 43.5302 21.2613C43.5423 21.2745 43.5731 21.2753 43.5947 21.2739C43.6683 21.2692 43.7268 21.2969 43.778 21.3474C43.7935 21.3626 43.8137 21.3794 43.8339 21.3824C43.9052 21.3932 43.9314 21.4472 43.9723 21.496C44.0063 21.5367 44.0832 21.5361 44.1208 21.5883C44.1258 21.5952 44.1255 21.606 44.1306 21.6127C44.1741 21.6691 44.2392 21.707 44.2677 21.7776C44.2727 21.7901 44.3079 21.7965 44.3288 21.7958C44.394 21.7937 44.4359 21.8121 44.4346 21.887C44.4343 21.9019 44.4459 21.9195 44.4569 21.9314C44.516 21.9954 44.57 22.0669 44.6386 22.1187C44.7151 22.1764 44.7338 22.2524 44.741 22.3331C44.7588 22.3425 44.7701 22.3505 44.7827 22.3548C44.8528 22.3785 44.8855 22.4227 44.8755 22.4999C44.8727 22.5209 44.8933 22.5451 44.904 22.5675C44.934 22.6303 44.9493 22.7008 45.0058 22.7498C45.0141 22.757 45.005 22.7838 45.0045 22.8015C45.004 22.8171 44.9976 22.8405 45.0052 22.8468C45.0482 22.8823 45.0361 22.9294 45.0387 22.974C45.0402 23.0008 45.0351 23.0388 45.0503 23.052C45.1048 23.0997 45.0908 23.1596 45.0938 23.2176C45.0947 23.2351 45.0954 23.2637 45.1048 23.2678C45.1618 23.2928 45.1458 23.3412 45.1493 23.3847C45.1582 23.4993 45.1165 23.6217 45.2019 23.7252C45.2088 23.7336 45.2015 23.7524 45.2043 23.7656C45.213 23.8049 45.2106 23.8601 45.2356 23.8795C45.2944 23.925 45.2787 23.9909 45.3051 24.041C45.3319 24.0549 45.361 24.0725 45.366 24.0954C45.3732 24.1278 45.3944 24.1469 45.4073 24.1712C45.4375 24.2282 45.4887 24.2349 45.535 24.26C45.5801 24.2845 45.6137 24.3299 45.6584 24.3555C45.7073 24.3834 45.7402 24.4312 45.8008 24.4467C45.8812 24.4673 45.9747 24.4481 46.0407 24.5172C46.1311 24.4985 46.1926 24.5991 46.2842 24.5759C46.3314 24.6604 46.4122 24.6201 46.4794 24.6265C46.5336 24.6316 46.5888 24.6275 46.6458 24.6275C46.6565 24.6554 46.6658 24.6796 46.6753 24.7044C46.6903 24.7063 46.7035 24.7084 46.7168 24.7097C46.8687 24.7242 46.9363 24.7958 46.9368 24.9431C46.937 24.9975 46.9368 25.052 46.9368 25.1071C46.8901 25.1234 46.8567 25.1378 46.8441 25.1918C46.832 25.2435 46.8242 25.3119 46.7491 25.3269C46.7384 25.329 46.7287 25.3449 46.7218 25.3564C46.68 25.4254 46.6247 25.4697 46.5347 25.4522C46.5021 25.5388 46.4651 25.617 46.3591 25.6293C46.3591 25.6921 46.3608 25.7512 46.3588 25.8102C46.3551 25.9163 46.3948 26.0157 46.4752 26.0687C46.5728 26.133 46.589 26.2089 46.5796 26.309C46.5753 26.3544 46.5788 26.4004 46.5788 26.458C46.4963 26.4661 46.4945 26.5339 46.4931 26.5857C46.3968 26.6284 46.3121 26.666 46.2275 26.7036C46.1531 26.8358 46.0177 26.8994 45.9075 26.9918C45.8613 27.0305 45.8001 27.0661 45.8073 27.145C45.8125 27.2011 45.7445 27.1693 45.7373 27.1857C45.6943 27.3225 45.7847 27.395 45.8258 27.4854C45.9474 27.4854 46.062 27.4866 46.1765 27.4851C46.29 27.4835 46.4017 27.4964 46.5145 27.508C46.5966 27.5164 46.6273 27.5783 46.6516 27.6203C46.6782 27.6664 46.6674 27.7481 46.6459 27.8039C46.6231 27.8632 46.5678 27.9098 46.5283 27.9629C46.5153 27.9804 46.4966 28.0025 46.4985 28.0207C46.5092 28.1289 46.4507 28.2519 46.5642 28.34C46.5753 28.3487 46.5758 28.373 46.5784 28.3905C46.5883 28.4569 46.5961 28.5237 46.6067 28.5901C46.6107 28.6153 46.6128 28.6536 46.6284 28.6617C46.6679 28.6823 46.6596 28.7132 46.6611 28.7436C46.6656 28.8392 46.577 28.9129 46.5969 29.0135C46.5988 29.0229 46.5726 29.0378 46.5595 29.0502C46.5472 29.0618 46.5316 29.0715 46.5232 29.0855C46.4434 29.2204 46.3262 29.3065 46.1789 29.3551C46.1622 29.3606 46.1433 29.366 46.1312 29.3775C46.0761 29.4302 46.0157 29.4092 45.9537 29.3931C45.9368 29.4513 45.8963 29.4663 45.839 29.466C45.7814 29.4658 45.7174 29.4645 45.668 29.4883C45.6293 29.5068 45.5949 29.5159 45.5541 29.5206C45.4876 29.5281 45.4017 29.5212 45.3607 29.5596C45.3062 29.6107 45.2552 29.5962 45.2004 29.6015C45.1785 29.6036 45.1562 29.6018 45.134 29.6018C45.1088 29.642 45.0802 29.6701 45.0459 29.6835C44.9674 29.7143 44.8871 29.733 44.833 29.8117C44.8101 29.8452 44.769 29.8799 44.7159 29.8892C44.6906 29.8936 44.6693 29.9255 44.648 29.9468C44.5962 29.9986 44.5421 30.0487 44.4954 30.1048C44.4483 30.1616 44.4104 30.226 44.3654 30.2847C44.3503 30.3045 44.3064 30.3283 44.3081 30.3313C44.3511 30.4054 44.2776 30.4125 44.2411 30.448C44.2649 30.5842 44.1761 30.6986 44.1488 30.8283C44.1459 30.8424 44.1252 30.8574 44.1095 30.8632C44.0873 30.8717 44.0849 30.8784 44.093 30.9008C44.1 30.9202 44.101 30.9454 44.095 30.9652C44.0347 31.166 44.0317 31.3738 44.0227 31.5799C44.0171 31.7084 44.035 31.8386 43.886 31.9032C43.8679 31.9666 43.8181 31.9651 43.7654 31.9662C43.0846 31.9803 42.4036 31.9439 41.7224 31.9888C41.3618 32.0127 40.9984 31.9952 40.6363 31.9917C40.5283 31.9907 40.42 31.9776 40.3128 31.9624C40.2813 31.958 40.2508 31.9307 40.2242 31.9086C40.1398 31.8382 40.0575 31.7652 39.9963 31.7123C39.9325 31.593 40.044 31.5398 40.0429 31.454C40.0427 31.4344 40.0875 31.4144 40.1089 31.3967C40.1281 31.2799 40.1082 31.1539 40.2134 31.0632C40.1888 30.9589 40.1829 30.9244 40.2377 30.879C40.2781 30.8455 40.2772 30.8141 40.2793 30.7746C40.2819 30.725 40.2676 30.6603 40.2933 30.629C40.3413 30.5705 40.3298 30.5106 40.3348 30.4486C40.3376 30.4142 40.3363 30.364 40.3568 30.35C40.3923 30.3256 40.3893 30.2988 40.3894 30.2682C40.39 30.1171 40.3901 29.966 40.3891 29.8148C40.389 29.793 40.3885 29.7571 40.377 29.7519C40.3196 29.7256 40.338 29.6772 40.3338 29.6346C40.3312 29.6081 40.3341 29.5653 40.3204 29.5586C40.2698 29.5338 40.2802 29.493 40.2792 29.4536C40.2785 29.422 40.2845 29.3873 40.2407 29.3777C40.2336 29.2943 40.1268 29.2577 40.1405 29.1646C40.0736 29.1074 40.0285 29.0355 39.9989 28.9533C39.9206 28.9619 39.9308 28.8842 39.8968 28.8494C39.8405 28.7918 39.7863 28.7314 39.7251 28.6794C39.6624 28.6262 39.5662 28.6186 39.5229 28.5363C39.5214 28.5334 39.5147 28.5315 39.5107 28.5318C39.423 28.5387 39.3918 28.4677 39.3387 28.4196C39.2987 28.3831 39.2781 28.315 39.213 28.3118C39.1652 28.3094 39.1439 28.2863 39.1181 28.2489C39.0898 28.2077 39.0452 28.1573 39.0021 28.1514C38.9322 28.1418 38.8993 28.098 38.8598 28.056C38.8416 28.0368 38.8345 28.0035 38.8137 27.9912C38.6937 27.9202 38.5778 27.8445 38.4922 27.7322C38.416 27.6324 38.2951 27.5913 38.2073 27.5014C38.0826 27.3737 37.9525 27.2501 37.8271 27.1221C37.7897 27.084 37.7334 27.0638 37.746 26.9945C37.7474 26.9864 37.7327 26.9686 37.7231 26.9664C37.6405 26.948 37.6609 26.8256 37.5697 26.8156C37.5639 26.815 37.5556 26.7919 37.557 26.7803C37.5626 26.731 37.5354 26.7031 37.5076 26.6653C37.4626 26.6041 37.4061 26.5471 37.3819 26.472C37.3602 26.405 37.3517 26.3323 37.2705 26.3024C37.2589 26.2981 37.2568 26.262 37.2542 26.2403C37.2451 26.1636 37.1714 26.1044 37.1939 26.0187C37.1953 26.0132 37.1857 26.0005 37.1785 25.9974C37.0932 25.961 37.1154 25.8904 37.1213 25.8241C37.1231 25.8044 37.1267 25.7797 37.1173 25.7651C37.0826 25.7108 37.0924 25.6513 37.0876 25.5928C37.0806 25.5077 37.0683 25.423 37.0583 25.3382C36.9691 25.2809 37.0093 25.1914 37.0075 25.1158C37.0028 24.9006 37.0037 24.6853 37.0069 24.47C37.0082 24.3866 36.9782 24.2946 37.0562 24.2252C37.0614 24.2206 37.0586 24.2078 37.0608 24.199C37.0732 24.1497 37.0445 24.0989 37.0877 24.0462C37.1121 24.0164 37.0899 23.9484 37.0884 23.8976C37.0868 23.8428 37.0808 23.7849 37.119 23.7406C37.1542 23.6998 37.0969 23.6626 37.1214 23.6272C37.1444 23.5937 37.1773 23.5659 37.1954 23.5303C37.2066 23.5082 37.1913 23.4737 37.2004 23.4494C37.2217 23.3927 37.2367 23.314 37.2798 23.2901C37.3313 23.2614 37.3487 23.229 37.3646 23.1824C37.3804 23.1357 37.3997 23.09 37.4198 23.0451C37.4262 23.0308 37.4382 23.017 37.4511 23.0081C37.5228 22.9589 37.5225 22.9592 37.5583 22.8761C37.5646 22.8616 37.5802 22.8511 37.5913 22.8386C37.6417 22.7822 37.6935 22.7269 37.7417 22.6687C37.7579 22.6491 37.7736 22.6224 37.7747 22.5982C37.7771 22.55 37.7959 22.5221 37.842 22.5079C37.8631 22.5014 37.886 22.4906 37.9009 22.475C37.959 22.4138 38.0133 22.3489 38.071 22.2875C38.1211 22.2341 38.1723 22.1814 38.2264 22.1319C38.2812 22.0818 38.3359 22.0341 38.406 21.9999C38.4659 21.9707 38.5093 21.9077 38.5607 21.8604C38.5665 21.8551 38.5774 21.8532 38.5859 21.8531C38.6735 21.8514 38.6971 21.7815 38.7308 21.7167C38.7779 21.7078 38.8282 21.7232 38.8722 21.6668C38.9087 21.62 38.9924 21.6132 39.0427 21.5731C39.1096 21.5198 39.1929 21.5179 39.2648 21.4817C39.3542 21.4368 39.4357 21.3732 39.5376 21.3546C39.5456 21.3532 39.5557 21.3474 39.5595 21.3406C39.5969 21.2732 39.6607 21.2731 39.7249 21.2751C39.7902 21.2771 39.8474 21.2526 39.9039 21.2244C39.9273 21.2127 39.9511 21.1971 39.9761 21.1936C40.0652 21.1815 40.1551 21.1751 40.2444 21.1637C40.2699 21.1604 40.302 21.1549 40.3178 21.138C40.4098 21.0396 40.5228 21.0126 40.6513 21.0267C40.6785 21.0296 40.7067 21.03 40.7336 21.0257C40.7483 21.0234 40.7612 21.009 40.7748 21.0001V21Z"/>
</mask>
<path d="M40.7748 21C41.4533 21 42.1318 21 42.8104 21C42.8241 21.009 42.8375 21.0251 42.8514 21.0255C42.8975 21.027 42.9349 21.0446 42.9773 21.062C43.0504 21.092 43.134 21.0951 43.1911 21.1618C43.1972 21.1689 43.2178 21.1624 43.2313 21.1645C43.3358 21.1809 43.448 21.1717 43.5302 21.2613C43.5423 21.2745 43.5731 21.2753 43.5947 21.2739C43.6683 21.2692 43.7268 21.2969 43.778 21.3474C43.7935 21.3626 43.8137 21.3794 43.8339 21.3824C43.9052 21.3932 43.9314 21.4472 43.9723 21.496C44.0063 21.5367 44.0832 21.5361 44.1208 21.5883C44.1258 21.5952 44.1255 21.606 44.1306 21.6127C44.1741 21.6691 44.2392 21.707 44.2677 21.7776C44.2727 21.7901 44.3079 21.7965 44.3288 21.7958C44.394 21.7937 44.4359 21.8121 44.4346 21.887C44.4343 21.9019 44.4459 21.9195 44.4569 21.9314C44.516 21.9954 44.57 22.0669 44.6386 22.1187C44.7151 22.1764 44.7338 22.2524 44.741 22.3331C44.7588 22.3425 44.7701 22.3505 44.7827 22.3548C44.8528 22.3785 44.8855 22.4227 44.8755 22.4999C44.8727 22.5209 44.8933 22.5451 44.904 22.5675C44.934 22.6303 44.9493 22.7008 45.0058 22.7498C45.0141 22.757 45.005 22.7838 45.0045 22.8015C45.004 22.8171 44.9976 22.8405 45.0052 22.8468C45.0482 22.8823 45.0361 22.9294 45.0387 22.974C45.0402 23.0008 45.0351 23.0388 45.0503 23.052C45.1048 23.0997 45.0908 23.1596 45.0938 23.2176C45.0947 23.2351 45.0954 23.2637 45.1048 23.2678C45.1618 23.2928 45.1458 23.3412 45.1493 23.3847C45.1582 23.4993 45.1165 23.6217 45.2019 23.7252C45.2088 23.7336 45.2015 23.7524 45.2043 23.7656C45.213 23.8049 45.2106 23.8601 45.2356 23.8795C45.2944 23.925 45.2787 23.9909 45.3051 24.041C45.3319 24.0549 45.361 24.0725 45.366 24.0954C45.3732 24.1278 45.3944 24.1469 45.4073 24.1712C45.4375 24.2282 45.4887 24.2349 45.535 24.26C45.5801 24.2845 45.6137 24.3299 45.6584 24.3555C45.7073 24.3834 45.7402 24.4312 45.8008 24.4467C45.8812 24.4673 45.9747 24.4481 46.0407 24.5172C46.1311 24.4985 46.1926 24.5991 46.2842 24.5759C46.3314 24.6604 46.4122 24.6201 46.4794 24.6265C46.5336 24.6316 46.5888 24.6275 46.6458 24.6275C46.6565 24.6554 46.6658 24.6796 46.6753 24.7044C46.6903 24.7063 46.7035 24.7084 46.7168 24.7097C46.8687 24.7242 46.9363 24.7958 46.9368 24.9431C46.937 24.9975 46.9368 25.052 46.9368 25.1071C46.8901 25.1234 46.8567 25.1378 46.8441 25.1918C46.832 25.2435 46.8242 25.3119 46.7491 25.3269C46.7384 25.329 46.7287 25.3449 46.7218 25.3564C46.68 25.4254 46.6247 25.4697 46.5347 25.4522C46.5021 25.5388 46.4651 25.617 46.3591 25.6293C46.3591 25.6921 46.3608 25.7512 46.3588 25.8102C46.3551 25.9163 46.3948 26.0157 46.4752 26.0687C46.5728 26.133 46.589 26.2089 46.5796 26.309C46.5753 26.3544 46.5788 26.4004 46.5788 26.458C46.4963 26.4661 46.4945 26.5339 46.4931 26.5857C46.3968 26.6284 46.3121 26.666 46.2275 26.7036C46.1531 26.8358 46.0177 26.8994 45.9075 26.9918C45.8613 27.0305 45.8001 27.0661 45.8073 27.145C45.8125 27.2011 45.7445 27.1693 45.7373 27.1857C45.6943 27.3225 45.7847 27.395 45.8258 27.4854C45.9474 27.4854 46.062 27.4866 46.1765 27.4851C46.29 27.4835 46.4017 27.4964 46.5145 27.508C46.5966 27.5164 46.6273 27.5783 46.6516 27.6203C46.6782 27.6664 46.6674 27.7481 46.6459 27.8039C46.6231 27.8632 46.5678 27.9098 46.5283 27.9629C46.5153 27.9804 46.4966 28.0025 46.4985 28.0207C46.5092 28.1289 46.4507 28.2519 46.5642 28.34C46.5753 28.3487 46.5758 28.373 46.5784 28.3905C46.5883 28.4569 46.5961 28.5237 46.6067 28.5901C46.6107 28.6153 46.6128 28.6536 46.6284 28.6617C46.6679 28.6823 46.6596 28.7132 46.6611 28.7436C46.6656 28.8392 46.577 28.9129 46.5969 29.0135C46.5988 29.0229 46.5726 29.0378 46.5595 29.0502C46.5472 29.0618 46.5316 29.0715 46.5232 29.0855C46.4434 29.2204 46.3262 29.3065 46.1789 29.3551C46.1622 29.3606 46.1433 29.366 46.1312 29.3775C46.0761 29.4302 46.0157 29.4092 45.9537 29.3931C45.9368 29.4513 45.8963 29.4663 45.839 29.466C45.7814 29.4658 45.7174 29.4645 45.668 29.4883C45.6293 29.5068 45.5949 29.5159 45.5541 29.5206C45.4876 29.5281 45.4017 29.5212 45.3607 29.5596C45.3062 29.6107 45.2552 29.5962 45.2004 29.6015C45.1785 29.6036 45.1562 29.6018 45.134 29.6018C45.1088 29.642 45.0802 29.6701 45.0459 29.6835C44.9674 29.7143 44.8871 29.733 44.833 29.8117C44.8101 29.8452 44.769 29.8799 44.7159 29.8892C44.6906 29.8936 44.6693 29.9255 44.648 29.9468C44.5962 29.9986 44.5421 30.0487 44.4954 30.1048C44.4483 30.1616 44.4104 30.226 44.3654 30.2847C44.3503 30.3045 44.3064 30.3283 44.3081 30.3313C44.3511 30.4054 44.2776 30.4125 44.2411 30.448C44.2649 30.5842 44.1761 30.6986 44.1488 30.8283C44.1459 30.8424 44.1252 30.8574 44.1095 30.8632C44.0873 30.8717 44.0849 30.8784 44.093 30.9008C44.1 30.9202 44.101 30.9454 44.095 30.9652C44.0347 31.166 44.0317 31.3738 44.0227 31.5799C44.0171 31.7084 44.035 31.8386 43.886 31.9032C43.8679 31.9666 43.8181 31.9651 43.7654 31.9662C43.0846 31.9803 42.4036 31.9439 41.7224 31.9888C41.3618 32.0127 40.9984 31.9952 40.6363 31.9917C40.5283 31.9907 40.42 31.9776 40.3128 31.9624C40.2813 31.958 40.2508 31.9307 40.2242 31.9086C40.1398 31.8382 40.0575 31.7652 39.9963 31.7123C39.9325 31.593 40.044 31.5398 40.0429 31.454C40.0427 31.4344 40.0875 31.4144 40.1089 31.3967C40.1281 31.2799 40.1082 31.1539 40.2134 31.0632C40.1888 30.9589 40.1829 30.9244 40.2377 30.879C40.2781 30.8455 40.2772 30.8141 40.2793 30.7746C40.2819 30.725 40.2676 30.6603 40.2933 30.629C40.3413 30.5705 40.3298 30.5106 40.3348 30.4486C40.3376 30.4142 40.3363 30.364 40.3568 30.35C40.3923 30.3256 40.3893 30.2988 40.3894 30.2682C40.39 30.1171 40.3901 29.966 40.3891 29.8148C40.389 29.793 40.3885 29.7571 40.377 29.7519C40.3196 29.7256 40.338 29.6772 40.3338 29.6346C40.3312 29.6081 40.3341 29.5653 40.3204 29.5586C40.2698 29.5338 40.2802 29.493 40.2792 29.4536C40.2785 29.422 40.2845 29.3873 40.2407 29.3777C40.2336 29.2943 40.1268 29.2577 40.1405 29.1646C40.0736 29.1074 40.0285 29.0355 39.9989 28.9533C39.9206 28.9619 39.9308 28.8842 39.8968 28.8494C39.8405 28.7918 39.7863 28.7314 39.7251 28.6794C39.6624 28.6262 39.5662 28.6186 39.5229 28.5363C39.5214 28.5334 39.5147 28.5315 39.5107 28.5318C39.423 28.5387 39.3918 28.4677 39.3387 28.4196C39.2987 28.3831 39.2781 28.315 39.213 28.3118C39.1652 28.3094 39.1439 28.2863 39.1181 28.2489C39.0898 28.2077 39.0452 28.1573 39.0021 28.1514C38.9322 28.1418 38.8993 28.098 38.8598 28.056C38.8416 28.0368 38.8345 28.0035 38.8137 27.9912C38.6937 27.9202 38.5778 27.8445 38.4922 27.7322C38.416 27.6324 38.2951 27.5913 38.2073 27.5014C38.0826 27.3737 37.9525 27.2501 37.8271 27.1221C37.7897 27.084 37.7334 27.0638 37.746 26.9945C37.7474 26.9864 37.7327 26.9686 37.7231 26.9664C37.6405 26.948 37.6609 26.8256 37.5697 26.8156C37.5639 26.815 37.5556 26.7919 37.557 26.7803C37.5626 26.731 37.5354 26.7031 37.5076 26.6653C37.4626 26.6041 37.4061 26.5471 37.3819 26.472C37.3602 26.405 37.3517 26.3323 37.2705 26.3024C37.2589 26.2981 37.2568 26.262 37.2542 26.2403C37.2451 26.1636 37.1714 26.1044 37.1939 26.0187C37.1953 26.0132 37.1857 26.0005 37.1785 25.9974C37.0932 25.961 37.1154 25.8904 37.1213 25.8241C37.1231 25.8044 37.1267 25.7797 37.1173 25.7651C37.0826 25.7108 37.0924 25.6513 37.0876 25.5928C37.0806 25.5077 37.0683 25.423 37.0583 25.3382C36.9691 25.2809 37.0093 25.1914 37.0075 25.1158C37.0028 24.9006 37.0037 24.6853 37.0069 24.47C37.0082 24.3866 36.9782 24.2946 37.0562 24.2252C37.0614 24.2206 37.0586 24.2078 37.0608 24.199C37.0732 24.1497 37.0445 24.0989 37.0877 24.0462C37.1121 24.0164 37.0899 23.9484 37.0884 23.8976C37.0868 23.8428 37.0808 23.7849 37.119 23.7406C37.1542 23.6998 37.0969 23.6626 37.1214 23.6272C37.1444 23.5937 37.1773 23.5659 37.1954 23.5303C37.2066 23.5082 37.1913 23.4737 37.2004 23.4494C37.2217 23.3927 37.2367 23.314 37.2798 23.2901C37.3313 23.2614 37.3487 23.229 37.3646 23.1824C37.3804 23.1357 37.3997 23.09 37.4198 23.0451C37.4262 23.0308 37.4382 23.017 37.4511 23.0081C37.5228 22.9589 37.5225 22.9592 37.5583 22.8761C37.5646 22.8616 37.5802 22.8511 37.5913 22.8386C37.6417 22.7822 37.6935 22.7269 37.7417 22.6687C37.7579 22.6491 37.7736 22.6224 37.7747 22.5982C37.7771 22.55 37.7959 22.5221 37.842 22.5079C37.8631 22.5014 37.886 22.4906 37.9009 22.475C37.959 22.4138 38.0133 22.3489 38.071 22.2875C38.1211 22.2341 38.1723 22.1814 38.2264 22.1319C38.2812 22.0818 38.3359 22.0341 38.406 21.9999C38.4659 21.9707 38.5093 21.9077 38.5607 21.8604C38.5665 21.8551 38.5774 21.8532 38.5859 21.8531C38.6735 21.8514 38.6971 21.7815 38.7308 21.7167C38.7779 21.7078 38.8282 21.7232 38.8722 21.6668C38.9087 21.62 38.9924 21.6132 39.0427 21.5731C39.1096 21.5198 39.1929 21.5179 39.2648 21.4817C39.3542 21.4368 39.4357 21.3732 39.5376 21.3546C39.5456 21.3532 39.5557 21.3474 39.5595 21.3406C39.5969 21.2732 39.6607 21.2731 39.7249 21.2751C39.7902 21.2771 39.8474 21.2526 39.9039 21.2244C39.9273 21.2127 39.9511 21.1971 39.9761 21.1936C40.0652 21.1815 40.1551 21.1751 40.2444 21.1637C40.2699 21.1604 40.302 21.1549 40.3178 21.138C40.4098 21.0396 40.5228 21.0126 40.6513 21.0267C40.6785 21.0296 40.7067 21.03 40.7336 21.0257C40.7483 21.0234 40.7612 21.009 40.7748 21.0001V21Z" fill="white" stroke="white" stroke-width="2" mask="url(#path-5-inside-3_104_1087)"/>
<path d="M47.6652 26.9558L47.6658 26.9553L47.6652 26.9558Z" fill="white" stroke="white"/>
<path d="M49.0408 24.0574C49.042 24.0562 49.0426 24.0556 49.0427 24.0556C49.0427 24.0556 49.0421 24.0562 49.0408 24.0574Z" fill="white" stroke="white"/>
<path d="M47.3683 28.1425C47.3916 28.1607 47.4143 28.1792 47.4358 28.1988C47.468 28.1937 47.5027 28.1846 47.5384 28.1695C47.5498 28.1647 47.5608 28.1596 47.5714 28.1541C47.5267 28.1522 47.471 28.1464 47.4113 28.1305C47.4466 28.1398 47.4861 28.1451 47.5285 28.1439C47.5452 28.1434 47.5613 28.1419 47.5766 28.1396L47.3683 28.1425ZM47.3683 28.1425C47.3642 28.1393 47.36 28.1357 47.356 28.132M47.3683 28.1425L47.356 28.132M47.5757 28.1677C47.561 28.1732 47.5452 28.1785 47.5283 28.1832C47.5001 28.1911 47.4699 28.1972 47.4379 28.2007C47.4769 28.2366 47.5117 28.2763 47.5376 28.3246M47.5757 28.1677L47.7336 28.5264C47.7049 28.5099 47.6838 28.4758 47.666 28.4458C47.663 28.4406 47.66 28.4353 47.6571 28.43C47.638 28.3956 47.6199 28.3632 47.57 28.3617C47.5587 28.3613 47.5454 28.3391 47.5376 28.3246M47.5757 28.1677L47.5716 28.3063L47.5376 28.3246M47.5757 28.1677L47.5716 28.3063L47.5376 28.3246M47.6056 28.1343C47.5963 28.1364 47.5867 28.1382 47.5767 28.1396L47.6056 28.1343ZM47.6056 28.1343C47.6153 28.1282 47.6246 28.1217 47.6335 28.1151L47.6056 28.1343ZM47.356 28.132C47.356 28.1319 47.3559 28.1319 47.3558 28.1318M47.356 28.132L47.3558 28.1318M47.3558 28.1318C47.3371 28.1143 47.3207 28.0918 47.3131 28.069M47.3558 28.1318L47.3131 28.069M47.3131 28.069C47.2793 27.968 47.2853 27.8639 47.3085 27.7617M47.3131 28.069L47.3085 27.7617M47.3085 27.7617C47.3146 27.7345 47.3281 27.7025 47.3724 27.7042L47.3085 27.7617ZM47.5758 28.1677C47.5871 28.1635 47.5977 28.1591 47.6076 28.1547L47.5758 28.1677Z" fill="white" stroke="white"/>
</svg>
