<svg width="88" height="88" viewBox="0 0 88 88" fill="none" xmlns="http://www.w3.org/2000/svg">
<circle cx="44" cy="44" r="43" stroke="#0000FF"/>
<mask id="path-2-outside-1_98_955" maskUnits="userSpaceOnUse" x="20" y="47" width="39" height="9" fill="black">
<rect fill="white" x="20" y="47" width="39" height="9"/>
<path d="M24.4842 48.0168L23.4811 51.4968C23.9286 50.6789 24.3093 50.0642 24.6231 49.6526C25.1118 49.0148 25.5876 48.5518 26.0506 48.2637C26.3232 48.0991 26.6087 48.0168 26.9071 48.0168C27.1643 48.0168 27.3778 48.0991 27.5476 48.2637C27.7173 48.4283 27.8022 48.6393 27.8022 48.8965C27.8022 49.1485 27.743 49.4777 27.6247 49.8841L27.0769 51.8441C27.9154 50.2751 28.7101 49.1742 29.4612 48.5415C29.8779 48.1917 30.2894 48.0168 30.6958 48.0168C30.9324 48.0168 31.1253 48.0991 31.2745 48.2637C31.4288 48.4232 31.506 48.6727 31.506 49.0122C31.506 49.3106 31.4597 49.6269 31.3671 49.9613L30.5183 52.9629C30.3331 53.6162 30.2405 53.9789 30.2405 54.0509C30.2405 54.1229 30.2637 54.1847 30.31 54.2361C30.3408 54.2721 30.382 54.2901 30.4334 54.2901C30.4849 54.2901 30.5749 54.2412 30.7035 54.1435C30.9967 53.9172 31.2719 53.6188 31.5291 53.2484L31.7838 53.4105C31.6552 53.6162 31.4262 53.8992 31.097 54.2592C30.7729 54.6193 30.4952 54.8637 30.2637 54.9923C30.0322 55.1209 29.8187 55.1852 29.6232 55.1852C29.4432 55.1852 29.2914 55.1235 29.168 55C29.0496 54.8765 28.9905 54.7248 28.9905 54.5447C28.9905 54.2978 29.0959 53.8014 29.3069 53.0555L30.009 50.5786C30.1685 50.0076 30.2534 49.6912 30.2637 49.6295C30.2791 49.5318 30.2868 49.4366 30.2868 49.344C30.2868 49.2154 30.2585 49.1151 30.2019 49.0431C30.1402 48.971 30.0708 48.935 29.9936 48.935C29.7775 48.935 29.5486 49.0456 29.3069 49.2668C28.597 49.9201 27.9334 50.8358 27.3161 52.0138C26.9097 52.7906 26.529 53.786 26.1741 55H25.0089L26.3284 50.3317C26.4724 49.8276 26.5444 49.4906 26.5444 49.3209C26.5444 49.182 26.5161 49.0791 26.4596 49.0122C26.403 48.9453 26.3335 48.9119 26.2512 48.9119C26.0815 48.9119 25.9014 48.9736 25.7111 49.0971C25.4024 49.2977 25.0038 49.7272 24.5151 50.3857C24.0315 51.0441 23.656 51.6743 23.3885 52.2762C23.2599 52.5591 22.9538 53.467 22.4703 55H21.3283L22.7558 49.9999L22.941 49.3517C22.977 49.254 22.995 49.182 22.995 49.1357C22.995 49.0225 22.9435 48.9222 22.8406 48.8347C22.7378 48.7421 22.6066 48.6958 22.4471 48.6958C22.3802 48.6958 22.1951 48.7267 21.8916 48.7884L21.8221 48.5029L24.4842 48.0168ZM34.361 52.091C34.325 52.3482 34.307 52.5617 34.307 52.7314C34.307 53.1893 34.469 53.5802 34.7931 53.9043C35.1172 54.2232 35.5107 54.3827 35.9737 54.3827C36.3441 54.3827 36.699 54.3081 37.0385 54.1589C37.3832 54.0046 37.8925 53.6677 38.5663 53.1481L38.7284 53.3719C37.5092 54.5808 36.3466 55.1852 35.2406 55.1852C34.4896 55.1852 33.9237 54.9486 33.5431 54.4753C33.1624 54.002 32.9721 53.4799 32.9721 52.9089C32.9721 52.1424 33.2087 51.3579 33.682 50.5554C34.1552 49.753 34.7494 49.1305 35.4644 48.6881C36.1794 48.2406 36.9151 48.0168 37.6713 48.0168C38.2165 48.0168 38.6203 48.1274 38.8827 48.3486C39.1451 48.5698 39.2762 48.8322 39.2762 49.1357C39.2762 49.5626 39.1065 49.9716 38.767 50.3625C38.3194 50.8718 37.661 51.2833 36.7916 51.5971C36.2155 51.8081 35.4053 51.9727 34.361 52.091ZM34.415 51.7129C35.1763 51.6254 35.7962 51.4763 36.2746 51.2653C36.9073 50.9824 37.3806 50.6455 37.6944 50.2545C38.0133 49.8584 38.1728 49.4829 38.1728 49.1279C38.1728 48.9119 38.1034 48.737 37.9645 48.6032C37.8307 48.4695 37.6378 48.4026 37.3858 48.4026C36.861 48.4026 36.3029 48.683 35.7113 49.2437C35.1249 49.7993 34.6928 50.6223 34.415 51.7129ZM42.926 48.0168L41.9229 51.4968C42.3704 50.6789 42.7511 50.0642 43.0649 49.6526C43.5536 49.0148 44.0294 48.5518 44.4924 48.2637C44.765 48.0991 45.0505 48.0168 45.3489 48.0168C45.6061 48.0168 45.8196 48.0991 45.9894 48.2637C46.1591 48.4283 46.244 48.6393 46.244 48.8965C46.244 49.1485 46.1848 49.4777 46.0665 49.8841L45.5187 51.8441C46.3572 50.2751 47.1519 49.1742 47.903 48.5415C48.3197 48.1917 48.7312 48.0168 49.1376 48.0168C49.3742 48.0168 49.5671 48.0991 49.7163 48.2637C49.8706 48.4232 49.9478 48.6727 49.9478 49.0122C49.9478 49.3106 49.9015 49.6269 49.8089 49.9613L48.9601 52.9629C48.7749 53.6162 48.6823 53.9789 48.6823 54.0509C48.6823 54.1229 48.7055 54.1847 48.7518 54.2361C48.7826 54.2721 48.8238 54.2901 48.8752 54.2901C48.9267 54.2901 49.0167 54.2412 49.1453 54.1435C49.4385 53.9172 49.7137 53.6188 49.9709 53.2484L50.2256 53.4105C50.097 53.6162 49.868 53.8992 49.5388 54.2592C49.2147 54.6193 48.937 54.8637 48.7055 54.9923C48.474 55.1209 48.2605 55.1852 48.065 55.1852C47.885 55.1852 47.7332 55.1235 47.6098 55C47.4914 54.8765 47.4323 54.7248 47.4323 54.5447C47.4323 54.2978 47.5377 53.8014 47.7487 53.0555L48.4508 50.5786C48.6103 50.0076 48.6952 49.6912 48.7055 49.6295C48.7209 49.5318 48.7286 49.4366 48.7286 49.344C48.7286 49.2154 48.7003 49.1151 48.6437 49.0431C48.582 48.971 48.5126 48.935 48.4354 48.935C48.2193 48.935 47.9904 49.0456 47.7487 49.2668C47.0388 49.9201 46.3752 50.8358 45.7579 52.0138C45.3515 52.7906 44.9708 53.786 44.6159 55H43.4507L44.7702 50.3317C44.9142 49.8276 44.9862 49.4906 44.9862 49.3209C44.9862 49.182 44.958 49.0791 44.9014 49.0122C44.8448 48.9453 44.7753 48.9119 44.693 48.9119C44.5233 48.9119 44.3432 48.9736 44.1529 49.0971C43.8442 49.2977 43.4456 49.7272 42.9569 50.3857C42.4733 51.0441 42.0978 51.6743 41.8303 52.2762C41.7017 52.5591 41.3956 53.467 40.9121 55H39.7701L41.1976 49.9999L41.3828 49.3517C41.4188 49.254 41.4368 49.182 41.4368 49.1357C41.4368 49.0225 41.3853 48.9222 41.2825 48.8347C41.1796 48.7421 41.0484 48.6958 40.8889 48.6958C40.822 48.6958 40.6369 48.7267 40.3334 48.7884L40.2639 48.5029L42.926 48.0168ZM52.8028 52.091C52.7668 52.3482 52.7488 52.5617 52.7488 52.7314C52.7488 53.1893 52.9108 53.5802 53.2349 53.9043C53.559 54.2232 53.9525 54.3827 54.4155 54.3827C54.7859 54.3827 55.1408 54.3081 55.4803 54.1589C55.825 54.0046 56.3343 53.6677 57.0081 53.1481L57.1702 53.3719C55.951 54.5808 54.7884 55.1852 53.6824 55.1852C52.9314 55.1852 52.3655 54.9486 51.9849 54.4753C51.6042 54.002 51.4139 53.4799 51.4139 52.9089C51.4139 52.1424 51.6505 51.3579 52.1238 50.5554C52.597 49.753 53.1912 49.1305 53.9062 48.6881C54.6212 48.2406 55.3569 48.0168 56.1131 48.0168C56.6583 48.0168 57.0622 48.1274 57.3245 48.3486C57.5869 48.5698 57.718 48.8322 57.718 49.1357C57.718 49.5626 57.5483 49.9716 57.2088 50.3625C56.7612 50.8718 56.1028 51.2833 55.2334 51.5971C54.6573 51.8081 53.8471 51.9727 52.8028 52.091ZM52.8568 51.7129C53.6181 51.6254 54.238 51.4763 54.7164 51.2653C55.3491 50.9824 55.8224 50.6455 56.1362 50.2545C56.4551 49.8584 56.6146 49.4829 56.6146 49.1279C56.6146 48.9119 56.5452 48.737 56.4063 48.6032C56.2725 48.4695 56.0796 48.4026 55.8276 48.4026C55.3029 48.4026 54.7447 48.683 54.1531 49.2437C53.5667 49.7993 53.1346 50.6223 52.8568 51.7129Z"/>
</mask>
<path d="M24.4842 48.0168L23.4811 51.4968C23.9286 50.6789 24.3093 50.0642 24.6231 49.6526C25.1118 49.0148 25.5876 48.5518 26.0506 48.2637C26.3232 48.0991 26.6087 48.0168 26.9071 48.0168C27.1643 48.0168 27.3778 48.0991 27.5476 48.2637C27.7173 48.4283 27.8022 48.6393 27.8022 48.8965C27.8022 49.1485 27.743 49.4777 27.6247 49.8841L27.0769 51.8441C27.9154 50.2751 28.7101 49.1742 29.4612 48.5415C29.8779 48.1917 30.2894 48.0168 30.6958 48.0168C30.9324 48.0168 31.1253 48.0991 31.2745 48.2637C31.4288 48.4232 31.506 48.6727 31.506 49.0122C31.506 49.3106 31.4597 49.6269 31.3671 49.9613L30.5183 52.9629C30.3331 53.6162 30.2405 53.9789 30.2405 54.0509C30.2405 54.1229 30.2637 54.1847 30.31 54.2361C30.3408 54.2721 30.382 54.2901 30.4334 54.2901C30.4849 54.2901 30.5749 54.2412 30.7035 54.1435C30.9967 53.9172 31.2719 53.6188 31.5291 53.2484L31.7838 53.4105C31.6552 53.6162 31.4262 53.8992 31.097 54.2592C30.7729 54.6193 30.4952 54.8637 30.2637 54.9923C30.0322 55.1209 29.8187 55.1852 29.6232 55.1852C29.4432 55.1852 29.2914 55.1235 29.168 55C29.0496 54.8765 28.9905 54.7248 28.9905 54.5447C28.9905 54.2978 29.0959 53.8014 29.3069 53.0555L30.009 50.5786C30.1685 50.0076 30.2534 49.6912 30.2637 49.6295C30.2791 49.5318 30.2868 49.4366 30.2868 49.344C30.2868 49.2154 30.2585 49.1151 30.2019 49.0431C30.1402 48.971 30.0708 48.935 29.9936 48.935C29.7775 48.935 29.5486 49.0456 29.3069 49.2668C28.597 49.9201 27.9334 50.8358 27.3161 52.0138C26.9097 52.7906 26.529 53.786 26.1741 55H25.0089L26.3284 50.3317C26.4724 49.8276 26.5444 49.4906 26.5444 49.3209C26.5444 49.182 26.5161 49.0791 26.4596 49.0122C26.403 48.9453 26.3335 48.9119 26.2512 48.9119C26.0815 48.9119 25.9014 48.9736 25.7111 49.0971C25.4024 49.2977 25.0038 49.7272 24.5151 50.3857C24.0315 51.0441 23.656 51.6743 23.3885 52.2762C23.2599 52.5591 22.9538 53.467 22.4703 55H21.3283L22.7558 49.9999L22.941 49.3517C22.977 49.254 22.995 49.182 22.995 49.1357C22.995 49.0225 22.9435 48.9222 22.8406 48.8347C22.7378 48.7421 22.6066 48.6958 22.4471 48.6958C22.3802 48.6958 22.1951 48.7267 21.8916 48.7884L21.8221 48.5029L24.4842 48.0168ZM34.361 52.091C34.325 52.3482 34.307 52.5617 34.307 52.7314C34.307 53.1893 34.469 53.5802 34.7931 53.9043C35.1172 54.2232 35.5107 54.3827 35.9737 54.3827C36.3441 54.3827 36.699 54.3081 37.0385 54.1589C37.3832 54.0046 37.8925 53.6677 38.5663 53.1481L38.7284 53.3719C37.5092 54.5808 36.3466 55.1852 35.2406 55.1852C34.4896 55.1852 33.9237 54.9486 33.5431 54.4753C33.1624 54.002 32.9721 53.4799 32.9721 52.9089C32.9721 52.1424 33.2087 51.3579 33.682 50.5554C34.1552 49.753 34.7494 49.1305 35.4644 48.6881C36.1794 48.2406 36.9151 48.0168 37.6713 48.0168C38.2165 48.0168 38.6203 48.1274 38.8827 48.3486C39.1451 48.5698 39.2762 48.8322 39.2762 49.1357C39.2762 49.5626 39.1065 49.9716 38.767 50.3625C38.3194 50.8718 37.661 51.2833 36.7916 51.5971C36.2155 51.8081 35.4053 51.9727 34.361 52.091ZM34.415 51.7129C35.1763 51.6254 35.7962 51.4763 36.2746 51.2653C36.9073 50.9824 37.3806 50.6455 37.6944 50.2545C38.0133 49.8584 38.1728 49.4829 38.1728 49.1279C38.1728 48.9119 38.1034 48.737 37.9645 48.6032C37.8307 48.4695 37.6378 48.4026 37.3858 48.4026C36.861 48.4026 36.3029 48.683 35.7113 49.2437C35.1249 49.7993 34.6928 50.6223 34.415 51.7129ZM42.926 48.0168L41.9229 51.4968C42.3704 50.6789 42.7511 50.0642 43.0649 49.6526C43.5536 49.0148 44.0294 48.5518 44.4924 48.2637C44.765 48.0991 45.0505 48.0168 45.3489 48.0168C45.6061 48.0168 45.8196 48.0991 45.9894 48.2637C46.1591 48.4283 46.244 48.6393 46.244 48.8965C46.244 49.1485 46.1848 49.4777 46.0665 49.8841L45.5187 51.8441C46.3572 50.2751 47.1519 49.1742 47.903 48.5415C48.3197 48.1917 48.7312 48.0168 49.1376 48.0168C49.3742 48.0168 49.5671 48.0991 49.7163 48.2637C49.8706 48.4232 49.9478 48.6727 49.9478 49.0122C49.9478 49.3106 49.9015 49.6269 49.8089 49.9613L48.9601 52.9629C48.7749 53.6162 48.6823 53.9789 48.6823 54.0509C48.6823 54.1229 48.7055 54.1847 48.7518 54.2361C48.7826 54.2721 48.8238 54.2901 48.8752 54.2901C48.9267 54.2901 49.0167 54.2412 49.1453 54.1435C49.4385 53.9172 49.7137 53.6188 49.9709 53.2484L50.2256 53.4105C50.097 53.6162 49.868 53.8992 49.5388 54.2592C49.2147 54.6193 48.937 54.8637 48.7055 54.9923C48.474 55.1209 48.2605 55.1852 48.065 55.1852C47.885 55.1852 47.7332 55.1235 47.6098 55C47.4914 54.8765 47.4323 54.7248 47.4323 54.5447C47.4323 54.2978 47.5377 53.8014 47.7487 53.0555L48.4508 50.5786C48.6103 50.0076 48.6952 49.6912 48.7055 49.6295C48.7209 49.5318 48.7286 49.4366 48.7286 49.344C48.7286 49.2154 48.7003 49.1151 48.6437 49.0431C48.582 48.971 48.5126 48.935 48.4354 48.935C48.2193 48.935 47.9904 49.0456 47.7487 49.2668C47.0388 49.9201 46.3752 50.8358 45.7579 52.0138C45.3515 52.7906 44.9708 53.786 44.6159 55H43.4507L44.7702 50.3317C44.9142 49.8276 44.9862 49.4906 44.9862 49.3209C44.9862 49.182 44.958 49.0791 44.9014 49.0122C44.8448 48.9453 44.7753 48.9119 44.693 48.9119C44.5233 48.9119 44.3432 48.9736 44.1529 49.0971C43.8442 49.2977 43.4456 49.7272 42.9569 50.3857C42.4733 51.0441 42.0978 51.6743 41.8303 52.2762C41.7017 52.5591 41.3956 53.467 40.9121 55H39.7701L41.1976 49.9999L41.3828 49.3517C41.4188 49.254 41.4368 49.182 41.4368 49.1357C41.4368 49.0225 41.3853 48.9222 41.2825 48.8347C41.1796 48.7421 41.0484 48.6958 40.8889 48.6958C40.822 48.6958 40.6369 48.7267 40.3334 48.7884L40.2639 48.5029L42.926 48.0168ZM52.8028 52.091C52.7668 52.3482 52.7488 52.5617 52.7488 52.7314C52.7488 53.1893 52.9108 53.5802 53.2349 53.9043C53.559 54.2232 53.9525 54.3827 54.4155 54.3827C54.7859 54.3827 55.1408 54.3081 55.4803 54.1589C55.825 54.0046 56.3343 53.6677 57.0081 53.1481L57.1702 53.3719C55.951 54.5808 54.7884 55.1852 53.6824 55.1852C52.9314 55.1852 52.3655 54.9486 51.9849 54.4753C51.6042 54.002 51.4139 53.4799 51.4139 52.9089C51.4139 52.1424 51.6505 51.3579 52.1238 50.5554C52.597 49.753 53.1912 49.1305 53.9062 48.6881C54.6212 48.2406 55.3569 48.0168 56.1131 48.0168C56.6583 48.0168 57.0622 48.1274 57.3245 48.3486C57.5869 48.5698 57.718 48.8322 57.718 49.1357C57.718 49.5626 57.5483 49.9716 57.2088 50.3625C56.7612 50.8718 56.1028 51.2833 55.2334 51.5971C54.6573 51.8081 53.8471 51.9727 52.8028 52.091ZM52.8568 51.7129C53.6181 51.6254 54.238 51.4763 54.7164 51.2653C55.3491 50.9824 55.8224 50.6455 56.1362 50.2545C56.4551 49.8584 56.6146 49.4829 56.6146 49.1279C56.6146 48.9119 56.5452 48.737 56.4063 48.6032C56.2725 48.4695 56.0796 48.4026 55.8276 48.4026C55.3029 48.4026 54.7447 48.683 54.1531 49.2437C53.5667 49.7993 53.1346 50.6223 52.8568 51.7129Z" fill="#0000FF"/>
<path d="M24.4842 48.0168L25.1362 48.2048L25.4395 47.1526L24.3623 47.3493L24.4842 48.0168ZM23.4811 51.4968L22.8291 51.3089L24.0764 51.8226L23.4811 51.4968ZM24.6231 49.6526L24.0844 49.24L24.0835 49.2412L24.6231 49.6526ZM26.0506 48.2637L25.6998 47.6828L25.6921 47.6876L26.0506 48.2637ZM27.6247 49.8841L26.9732 49.6944L26.9712 49.7015L27.6247 49.8841ZM27.0769 51.8441L26.4233 51.6614L27.6753 52.1639L27.0769 51.8441ZM29.4612 48.5415L29.0249 48.0218L29.024 48.0226L29.4612 48.5415ZM31.2745 48.2637L30.7717 48.7194L30.7791 48.7276L30.7869 48.7356L31.2745 48.2637ZM31.3671 49.9613L32.0201 50.1459L32.021 50.1424L31.3671 49.9613ZM30.5183 52.9629L31.1712 53.148L31.1713 53.1476L30.5183 52.9629ZM30.31 54.2361L30.8252 53.7945L30.8198 53.7883L30.8143 53.7822L30.31 54.2361ZM30.7035 54.1435L31.1141 54.6838L31.1181 54.6806L30.7035 54.1435ZM31.5291 53.2484L31.8934 52.6759L31.3435 52.326L30.9718 52.8614L31.5291 53.2484ZM31.7838 53.4105L32.3592 53.7701L32.7159 53.1993L32.1481 52.838L31.7838 53.4105ZM31.097 54.2592L30.5962 53.8013L30.5926 53.8053L31.097 54.2592ZM29.168 55L28.678 55.4695L28.683 55.4747L28.6881 55.4798L29.168 55ZM29.3069 53.0555L28.654 52.8704L28.6539 52.8709L29.3069 53.0555ZM30.009 50.5786L30.6619 50.7637L30.6626 50.7611L30.009 50.5786ZM30.2637 49.6295L30.933 49.7411L30.9339 49.7353L30.2637 49.6295ZM30.2019 49.0431L30.7355 48.6238L30.7266 48.6124L30.7171 48.6015L30.2019 49.0431ZM29.3069 49.2668L28.8488 48.7662L28.8473 48.7675L29.3069 49.2668ZM27.3161 52.0138L26.715 51.6989L26.7148 51.6993L27.3161 52.0138ZM26.1741 55V55.6786H26.6826L26.8254 55.1904L26.1741 55ZM25.0089 55L24.3559 54.8154L24.112 55.6786H25.0089V55ZM26.3284 50.3317L25.6759 50.1453L25.6754 50.1471L26.3284 50.3317ZM25.7111 49.0971L25.3418 48.5278L25.3413 48.5281L25.7111 49.0971ZM24.5151 50.3857L23.9702 49.9813L23.9681 49.984L24.5151 50.3857ZM23.3885 52.2762L24.0063 52.557L24.0086 52.5518L23.3885 52.2762ZM22.4703 55V55.6786H22.9678L23.1174 55.2041L22.4703 55ZM21.3283 55L20.6758 54.8137L20.4289 55.6786H21.3283V55ZM22.7558 49.9999L22.1033 49.8135L22.1033 49.8136L22.7558 49.9999ZM22.941 49.3517L22.3042 49.1171L22.2955 49.1409L22.2885 49.1653L22.941 49.3517ZM22.8406 48.8347L22.3867 49.3391L22.3939 49.3455L22.4012 49.3518L22.8406 48.8347ZM21.8916 48.7884L21.2322 48.9488L21.3866 49.5836L22.0268 49.4534L21.8916 48.7884ZM21.8221 48.5029L21.7002 47.8354L20.9928 47.9646L21.1628 48.6633L21.8221 48.5029ZM23.8322 47.8289L22.8291 51.3089L24.1331 51.6848L25.1362 48.2048L23.8322 47.8289ZM24.0764 51.8226C24.5183 51.0149 24.8798 50.4351 25.1627 50.0641L24.0835 49.2412C23.7388 49.6932 23.339 50.3429 22.8858 51.1711L24.0764 51.8226ZM25.1618 50.0653C25.6221 49.4645 26.0402 49.0694 26.4091 48.8399L25.6921 47.6876C25.1351 48.0342 24.6015 48.5651 24.0844 49.24L25.1618 50.0653ZM26.4013 48.8446C26.5756 48.7394 26.7408 48.6954 26.9071 48.6954V47.3382C26.4767 47.3382 26.0709 47.4588 25.6999 47.6828L26.4013 48.8446ZM26.9071 48.6954C27.0049 48.6954 27.0437 48.7204 27.0752 48.7509L28.0199 47.7766C27.7119 47.4779 27.3237 47.3382 26.9071 47.3382V48.6954ZM27.0752 48.7509C27.1008 48.7758 27.1236 48.805 27.1236 48.8965H28.4808C28.4808 48.4735 28.3338 48.0809 28.0199 47.7766L27.0752 48.7509ZM27.1236 48.8965C27.1236 49.0555 27.084 49.314 26.9732 49.6945L28.2762 50.0738C28.4021 49.6415 28.4808 49.2415 28.4808 48.8965H27.1236ZM26.9712 49.7015L26.4233 51.6614L27.7304 52.0267L28.2782 50.0668L26.9712 49.7015ZM27.6753 52.1639C28.5007 50.6194 29.2467 49.6095 29.8984 49.0605L29.024 48.0226C28.1736 48.739 27.33 49.9308 26.4784 51.5242L27.6753 52.1639ZM29.8975 49.0612C30.2336 48.7791 30.496 48.6954 30.6958 48.6954V47.3382C30.0828 47.3382 29.5221 47.6043 29.0249 48.0218L29.8975 49.0612ZM30.6958 48.6954C30.7343 48.6954 30.7495 48.7018 30.7516 48.7027C30.7534 48.7034 30.755 48.7043 30.7573 48.7059C30.7596 48.7076 30.7645 48.7115 30.7717 48.7194L31.7773 47.8081C31.4903 47.4914 31.1099 47.3382 30.6958 47.3382V48.6954ZM30.7869 48.7356C30.7674 48.7155 30.8274 48.7578 30.8274 49.0122H32.1846C32.1846 48.5876 32.0902 48.1309 31.7621 47.7918L30.7869 48.7356ZM30.8274 49.0122C30.8274 49.2404 30.792 49.4955 30.7131 49.7802L32.021 50.1424C32.1274 49.7584 32.1846 49.3808 32.1846 49.0122H30.8274ZM30.7141 49.7767L29.8653 52.7783L31.1713 53.1476L32.0201 50.1459L30.7141 49.7767ZM29.8655 52.7779C29.7723 53.1064 29.701 53.3671 29.6525 53.557C29.6284 53.6514 29.6085 53.7339 29.5942 53.801C29.5855 53.8419 29.5619 53.949 29.5619 54.0509H30.9191C30.9191 54.0982 30.9131 54.1285 30.9149 54.1175C30.9153 54.1151 30.9171 54.1047 30.9216 54.0838C30.9304 54.0423 30.9452 53.9797 30.9674 53.8928C31.0115 53.72 31.0791 53.4727 31.1712 53.148L29.8655 52.7779ZM29.5619 54.0509C29.5619 54.2831 29.6422 54.5085 29.8056 54.69L30.8143 53.7822C30.8451 53.8163 30.8736 53.8605 30.8932 53.913C30.9128 53.965 30.9191 54.0131 30.9191 54.0509H29.5619ZM29.7948 54.6777C29.9664 54.8779 30.2029 54.9687 30.4334 54.9687V53.6115C30.4878 53.6115 30.5592 53.6213 30.636 53.6549C30.7142 53.6892 30.7779 53.7394 30.8252 53.7945L29.7948 54.6777ZM30.4334 54.9687C30.6375 54.9687 30.799 54.8847 30.8633 54.8498C30.9507 54.8023 31.036 54.7431 31.1141 54.6838L30.2929 53.6032C30.2691 53.6213 30.2504 53.6346 30.2363 53.6441C30.2219 53.6537 30.2154 53.6573 30.2158 53.6571C30.2162 53.6568 30.2197 53.655 30.226 53.6521C30.2322 53.6493 30.2429 53.6447 30.2577 53.6396C30.2722 53.6345 30.2938 53.6279 30.3214 53.6224C30.3488 53.617 30.387 53.6115 30.4334 53.6115V54.9687ZM31.1181 54.6806C31.4768 54.4038 31.798 54.0509 32.0865 53.6355L30.9718 52.8614C30.7459 53.1866 30.5167 53.4305 30.2888 53.6063L31.1181 54.6806ZM31.1648 53.8209L31.4195 53.9829L32.1481 52.838L31.8934 52.6759L31.1648 53.8209ZM31.2083 53.0508C31.1138 53.202 30.9196 53.4477 30.5962 53.8014L31.5978 54.7171C31.9329 54.3506 32.1965 54.0304 32.3592 53.7701L31.2083 53.0508ZM30.5926 53.8053C30.2843 54.1478 30.0666 54.3255 29.9341 54.3991L30.5932 55.5855C30.9237 55.4018 31.2615 55.0908 31.6014 54.7132L30.5926 53.8053ZM29.9341 54.3991C29.7692 54.4907 29.6697 54.5066 29.6232 54.5066V55.8638C29.9677 55.8638 30.2952 55.751 30.5932 55.5855L29.9341 54.3991ZM29.6232 54.5066C29.6171 54.5066 29.6155 54.5061 29.6176 54.5065C29.6198 54.5069 29.6243 54.508 29.6301 54.5103C29.6358 54.5127 29.6409 54.5155 29.6447 54.518C29.6484 54.5205 29.6494 54.5218 29.6478 54.5202L28.6881 55.4798C28.9432 55.7349 29.2695 55.8638 29.6232 55.8638V54.5066ZM29.6579 54.5305C29.657 54.5295 29.6583 54.5308 29.6606 54.5343C29.6629 54.538 29.6653 54.5424 29.6671 54.5471C29.6689 54.5518 29.6695 54.5548 29.6696 54.5554C29.6697 54.5558 29.6691 54.5525 29.6691 54.5447H28.3119C28.3119 54.8895 28.4318 55.2125 28.678 55.4695L29.6579 54.5305ZM29.6691 54.5447C29.6691 54.4087 29.7435 54.005 29.9598 53.2401L28.6539 52.8709C28.4483 53.5978 28.3119 54.187 28.3119 54.5447H29.6691ZM29.9597 53.2406L30.6619 50.7637L29.3562 50.3935L28.654 52.8704L29.9597 53.2406ZM30.6626 50.7611C30.7425 50.4749 30.8044 50.2504 30.8477 50.0889C30.8855 49.9481 30.921 49.813 30.933 49.7411L29.5943 49.5179C29.596 49.5077 29.584 49.5616 29.5369 49.7372C29.4954 49.8921 29.435 50.1113 29.3555 50.3961L30.6626 50.7611ZM30.9339 49.7353C30.9545 49.605 30.9654 49.4744 30.9654 49.344H29.6082C29.6082 49.3988 29.6037 49.4586 29.5934 49.5237L30.9339 49.7353ZM30.9654 49.344C30.9654 49.1236 30.9175 48.8554 30.7355 48.6238L29.6684 49.4623C29.5996 49.3747 29.6082 49.3072 29.6082 49.344H30.9654ZM30.7171 48.6015C30.5587 48.4166 30.3135 48.2565 29.9936 48.2565V49.6136C29.9219 49.6136 29.8516 49.5958 29.7912 49.5645C29.7341 49.5348 29.7008 49.5011 29.6867 49.4847L30.7171 48.6015ZM29.9936 48.2565C29.5387 48.2565 29.1529 48.488 28.8488 48.7662L29.7649 49.7675C29.9443 49.6033 30.0163 49.6136 29.9936 49.6136V48.2565ZM28.8473 48.7675C28.0628 49.4895 27.3558 50.476 26.715 51.6989L27.9171 52.3288C28.5109 51.1956 29.1311 50.3508 29.7664 49.7661L28.8473 48.7675ZM26.7148 51.6993C26.2808 52.5288 25.8853 53.5697 25.5228 54.8096L26.8254 55.1904C27.1728 54.0022 27.5386 53.0524 27.9173 52.3284L26.7148 51.6993ZM26.1741 54.3214H25.0089V55.6786H26.1741V54.3214ZM25.6619 55.1846L26.9814 50.5162L25.6754 50.1471L24.3559 54.8154L25.6619 55.1846ZM26.9808 50.5181C27.1197 50.032 27.223 49.6022 27.223 49.3209H25.8659C25.8659 49.3197 25.8656 49.3382 25.8591 49.384C25.8529 49.4276 25.8426 49.4853 25.8268 49.559C25.7952 49.707 25.7457 49.9012 25.6759 50.1453L26.9808 50.5181ZM27.223 49.3209C27.223 49.1101 27.1835 48.8172 26.9776 48.5739L25.9416 49.4505C25.8939 49.3942 25.8753 49.3427 25.8689 49.3194C25.863 49.2977 25.8659 49.295 25.8659 49.3209H27.223ZM26.9776 48.5739C26.8015 48.3658 26.5473 48.2333 26.2512 48.2333V49.5905C26.1975 49.5905 26.1339 49.5788 26.0707 49.5484C26.0085 49.5184 25.9664 49.4799 25.9416 49.4505L26.9776 48.5739ZM26.2512 48.2333C25.9131 48.2333 25.606 48.3564 25.3418 48.5278L26.0804 49.6664C26.1969 49.5908 26.2498 49.5905 26.2512 49.5905V48.2333ZM25.3413 48.5281C24.9223 48.8005 24.4625 49.318 23.9702 49.9813L25.06 50.7901C25.545 50.1365 25.8825 49.795 26.0809 49.666L25.3413 48.5281ZM23.9681 49.984C23.4623 50.6728 23.0598 51.3451 22.7684 52.0006L24.0086 52.5518C24.2522 52.0035 24.6007 51.4155 25.062 50.7873L23.9681 49.984ZM22.7708 51.9954C22.6206 52.3256 22.3 53.2841 21.8231 54.7959L23.1174 55.2041C23.6077 53.65 23.8991 52.7926 24.0063 52.557L22.7708 51.9954ZM22.4703 54.3214H21.3283V55.6786H22.4703V54.3214ZM21.9808 55.1863L23.4083 50.1862L22.1033 49.8136L20.6758 54.8137L21.9808 55.1863ZM23.4082 50.1863L23.5934 49.5381L22.2885 49.1653L22.1033 49.8135L23.4082 50.1863ZM23.5777 49.5863C23.6155 49.4838 23.6735 49.3128 23.6735 49.1357H22.3164C22.3164 49.1197 22.3172 49.1065 22.318 49.0965C22.3189 49.0865 22.3199 49.0786 22.3207 49.0731C22.3223 49.0626 22.3237 49.0578 22.3232 49.0598C22.3227 49.0616 22.3212 49.0673 22.318 49.0775C22.3148 49.0876 22.3103 49.1007 22.3042 49.1171L23.5777 49.5863ZM23.6735 49.1357C23.6735 48.7846 23.5024 48.5067 23.2801 48.3177L22.4012 49.3518C22.3979 49.349 22.3747 49.3283 22.3526 49.2852C22.329 49.2391 22.3164 49.1863 22.3164 49.1357H23.6735ZM23.2946 48.3304C23.0483 48.1087 22.747 48.0173 22.4471 48.0173V49.3744C22.461 49.3744 22.456 49.3763 22.4393 49.3704C22.4211 49.364 22.402 49.3529 22.3867 49.3391L23.2946 48.3304ZM22.4471 48.0173C22.3491 48.0173 22.2325 48.0353 22.1465 48.0496C22.0426 48.067 21.9116 48.0919 21.7563 48.1235L22.0268 49.4534C22.175 49.4232 22.2884 49.4019 22.3696 49.3883C22.4104 49.3815 22.4389 49.3774 22.4573 49.3752C22.481 49.3723 22.4725 49.3744 22.4471 49.3744V48.0173ZM22.5509 48.628L22.4815 48.3425L21.1628 48.6633L21.2322 48.9488L22.5509 48.628ZM21.944 49.1705L24.6061 48.6843L24.3623 47.3493L21.7002 47.8354L21.944 49.1705ZM34.361 52.091L34.2846 51.4167L33.7619 51.4759L33.689 51.9969L34.361 52.091ZM34.7931 53.9043L34.3133 54.3841L34.3171 54.3879L34.7931 53.9043ZM37.0385 54.1589L37.3115 54.7802L37.3158 54.7783L37.0385 54.1589ZM38.5663 53.1481L39.1159 52.7501L38.7058 52.1837L38.152 52.6107L38.5663 53.1481ZM38.7284 53.3719L39.2062 53.8537L39.6188 53.4446L39.278 52.9739L38.7284 53.3719ZM33.5431 54.4753L33.0143 54.9006L33.5431 54.4753ZM35.4644 48.6881L35.8214 49.2652L35.8244 49.2633L35.4644 48.6881ZM38.767 50.3625L39.2767 50.8105L39.2793 50.8075L38.767 50.3625ZM36.7916 51.5971L36.5612 50.9589L36.5583 50.9599L36.7916 51.5971ZM34.415 51.7129L33.7574 51.5454L33.5144 52.4994L34.4924 52.387L34.415 51.7129ZM36.2746 51.2653L36.5484 51.8863L36.5516 51.8848L36.2746 51.2653ZM37.6944 50.2545L37.1659 49.8289L37.1652 49.8298L37.6944 50.2545ZM37.9645 48.6032L37.4846 49.0831L37.4938 49.092L37.9645 48.6032ZM35.7113 49.2437L36.178 49.7363L36.1781 49.7362L35.7113 49.2437ZM33.689 51.9969C33.6506 52.2708 33.6284 52.5183 33.6284 52.7314H34.9855C34.9855 52.605 34.9993 52.4256 35.033 52.1851L33.689 51.9969ZM33.6284 52.7314C33.6284 53.3694 33.8621 53.9329 34.3133 54.3841L35.2729 53.4245C35.0759 53.2275 34.9855 53.0091 34.9855 52.7314H33.6284ZM34.3171 54.3879C34.7707 54.8343 35.3362 55.0613 35.9737 55.0613V53.7041C35.6852 53.7041 35.4637 53.6121 35.2691 53.4206L34.3171 54.3879ZM35.9737 55.0613C36.4382 55.0613 36.8861 54.9671 37.3115 54.7802L36.7655 53.5377C36.512 53.6491 36.25 53.7041 35.9737 53.7041V55.0613ZM37.3158 54.7783C37.7398 54.5884 38.3037 54.2074 38.9807 53.6855L38.152 52.6107C37.4812 53.1279 37.0265 53.4208 36.7612 53.5396L37.3158 54.7783ZM38.0167 53.5461L38.1788 53.7699L39.278 52.9739L39.1159 52.7501L38.0167 53.5461ZM38.2506 52.89C37.0902 54.0406 36.0902 54.5066 35.2406 54.5066V55.8638C36.6031 55.8638 37.9282 55.1209 39.2062 53.8537L38.2506 52.89ZM35.2406 54.5066C34.6417 54.5066 34.2935 54.3257 34.0718 54.05L33.0143 54.9006C33.5539 55.5715 34.3375 55.8638 35.2406 55.8638V54.5066ZM34.0718 54.05C33.7815 53.689 33.6506 53.3149 33.6506 52.9089H32.2935C32.2935 53.6449 32.5433 54.315 33.0143 54.9006L34.0718 54.05ZM33.6506 52.9089C33.6506 52.2873 33.8415 51.6207 34.2665 50.9002L33.0975 50.2107C32.5759 51.0952 32.2935 51.9975 32.2935 52.9089H33.6506ZM34.2665 50.9002C34.69 50.182 35.2097 49.6437 35.8214 49.2652L35.1074 48.1111C34.289 48.6174 33.6205 49.3239 33.0975 50.2107L34.2665 50.9002ZM35.8244 49.2633C36.4444 48.8753 37.0567 48.6954 37.6713 48.6954V47.3382C36.7734 47.3382 35.9145 47.6059 35.1044 48.1129L35.8244 49.2633ZM37.6713 48.6954C38.1453 48.6954 38.3594 48.795 38.4453 48.8674L39.3201 47.8298C38.8813 47.4598 38.2878 47.3382 37.6713 47.3382V48.6954ZM38.4453 48.8674C38.5771 48.9785 38.5977 49.0597 38.5977 49.1357H39.9548C39.9548 48.6046 39.713 48.1611 39.3201 47.8298L38.4453 48.8674ZM38.5977 49.1357C38.5977 49.3661 38.5108 49.6227 38.2546 49.9176L39.2793 50.8075C39.7022 50.3205 39.9548 49.7591 39.9548 49.1357H38.5977ZM38.2572 49.9146C37.9078 50.3123 37.3603 50.6705 36.5612 50.9589L37.022 52.2354C37.9616 51.8962 38.7311 51.4313 39.2767 50.8105L38.2572 49.9146ZM36.5583 50.9599C36.0562 51.1437 35.3075 51.3008 34.2846 51.4167L34.4374 52.7652C35.503 52.6445 36.3747 52.4724 37.0249 52.2344L36.5583 50.9599ZM34.4924 52.387C35.293 52.2951 35.9859 52.1342 36.5483 51.8863L36.0009 50.6444C35.6066 50.8183 35.0596 50.9558 34.3376 51.0387L34.4924 52.387ZM36.5516 51.8848C37.2471 51.5738 37.8216 51.1801 38.2236 50.6793L37.1652 49.8298C36.9396 50.1108 36.5676 50.391 35.9976 50.6459L36.5516 51.8848ZM38.2229 50.6801C38.598 50.2143 38.8514 49.6924 38.8514 49.1279H37.4942C37.4942 49.2734 37.4287 49.5025 37.1659 49.8289L38.2229 50.6801ZM38.8514 49.1279C38.8514 48.7519 38.7235 48.3921 38.4352 48.1145L37.4938 49.092C37.4954 49.0936 37.4947 49.0932 37.4932 49.0909C37.4916 49.0886 37.4905 49.0863 37.49 49.0851C37.4888 49.082 37.4942 49.0931 37.4942 49.1279H38.8514ZM38.4443 48.1234C38.1454 47.8245 37.7559 47.724 37.3858 47.724V49.0812C37.4532 49.0812 37.4868 49.0903 37.4972 49.0939C37.5046 49.0965 37.496 49.0944 37.4846 49.0831L38.4443 48.1234ZM37.3858 47.724C36.6126 47.724 35.8947 48.1349 35.2445 48.7512L36.1781 49.7362C36.7111 49.231 37.1095 49.0812 37.3858 49.0812V47.724ZM35.2446 48.7511C34.5354 49.423 34.0549 50.3775 33.7574 51.5454L35.0726 51.8804C35.3307 50.8672 35.7144 50.1755 36.178 49.7363L35.2446 48.7511ZM42.926 48.0168L43.578 48.2048L43.8813 47.1526L42.8041 47.3493L42.926 48.0168ZM41.9229 51.4968L41.2709 51.3089L42.5182 51.8226L41.9229 51.4968ZM43.0649 49.6526L42.5262 49.24L42.5253 49.2412L43.0649 49.6526ZM44.4924 48.2637L44.1416 47.6828L44.1339 47.6876L44.4924 48.2637ZM46.0665 49.8841L45.415 49.6944L45.413 49.7015L46.0665 49.8841ZM45.5187 51.8441L44.8651 51.6614L46.1171 52.1639L45.5187 51.8441ZM47.903 48.5415L47.4667 48.0218L47.4658 48.0226L47.903 48.5415ZM49.7163 48.2637L49.2135 48.7194L49.2209 48.7276L49.2287 48.7356L49.7163 48.2637ZM49.8089 49.9613L50.4619 50.1459L50.4628 50.1424L49.8089 49.9613ZM48.9601 52.9629L49.613 53.148L49.6131 53.1476L48.9601 52.9629ZM48.7518 54.2361L49.267 53.7945L49.2616 53.7883L49.2561 53.7822L48.7518 54.2361ZM49.1453 54.1435L49.5559 54.6838L49.5599 54.6806L49.1453 54.1435ZM49.9709 53.2484L50.3352 52.6759L49.7853 52.326L49.4136 52.8614L49.9709 53.2484ZM50.2256 53.4105L50.801 53.7701L51.1577 53.1993L50.5899 52.838L50.2256 53.4105ZM49.5388 54.2592L49.038 53.8013L49.0344 53.8053L49.5388 54.2592ZM47.6098 55L47.1198 55.4695L47.1248 55.4747L47.1299 55.4798L47.6098 55ZM47.7487 53.0555L47.0958 52.8704L47.0957 52.8709L47.7487 53.0555ZM48.4508 50.5786L49.1037 50.7637L49.1044 50.7611L48.4508 50.5786ZM48.7055 49.6295L49.3748 49.7411L49.3757 49.7353L48.7055 49.6295ZM48.6437 49.0431L49.1773 48.6238L49.1684 48.6124L49.1589 48.6015L48.6437 49.0431ZM47.7487 49.2668L47.2906 48.7662L47.2891 48.7675L47.7487 49.2668ZM45.7579 52.0138L45.1568 51.6989L45.1566 51.6993L45.7579 52.0138ZM44.6159 55V55.6786H45.1244L45.2672 55.1904L44.6159 55ZM43.4507 55L42.7977 54.8154L42.5538 55.6786H43.4507V55ZM44.7702 50.3317L44.1177 50.1453L44.1172 50.1471L44.7702 50.3317ZM44.1529 49.0971L43.7836 48.5278L43.7831 48.5281L44.1529 49.0971ZM42.9569 50.3857L42.412 49.9813L42.4099 49.984L42.9569 50.3857ZM41.8303 52.2762L42.4481 52.557L42.4504 52.5518L41.8303 52.2762ZM40.9121 55V55.6786H41.4096L41.5592 55.2041L40.9121 55ZM39.7701 55L39.1176 54.8137L38.8707 55.6786H39.7701V55ZM41.1976 49.9999L40.5451 49.8135L40.5451 49.8136L41.1976 49.9999ZM41.3828 49.3517L40.746 49.1171L40.7373 49.1409L40.7303 49.1653L41.3828 49.3517ZM41.2825 48.8347L40.8285 49.3391L40.8357 49.3455L40.843 49.3518L41.2825 48.8347ZM40.3334 48.7884L39.674 48.9488L39.8284 49.5836L40.4686 49.4534L40.3334 48.7884ZM40.2639 48.5029L40.142 47.8354L39.4346 47.9646L39.6046 48.6633L40.2639 48.5029ZM42.274 47.8289L41.2709 51.3089L42.5749 51.6848L43.578 48.2048L42.274 47.8289ZM42.5182 51.8226C42.9601 51.0149 43.3216 50.4351 43.6045 50.0641L42.5253 49.2412C42.1806 49.6932 41.7808 50.3429 41.3276 51.1711L42.5182 51.8226ZM43.6036 50.0653C44.0639 49.4645 44.482 49.0694 44.8509 48.8399L44.1339 47.6876C43.5769 48.0342 43.0433 48.5651 42.5262 49.24L43.6036 50.0653ZM44.8431 48.8446C45.0174 48.7394 45.1826 48.6954 45.3489 48.6954V47.3382C44.9185 47.3382 44.5127 47.4588 44.1417 47.6828L44.8431 48.8446ZM45.3489 48.6954C45.4467 48.6954 45.4855 48.7204 45.517 48.7509L46.4617 47.7766C46.1537 47.4779 45.7655 47.3382 45.3489 47.3382V48.6954ZM45.517 48.7509C45.5426 48.7758 45.5654 48.805 45.5654 48.8965H46.9226C46.9226 48.4735 46.7756 48.0809 46.4617 47.7766L45.517 48.7509ZM45.5654 48.8965C45.5654 49.0555 45.5258 49.314 45.415 49.6945L46.718 50.0738C46.8439 49.6415 46.9226 49.2415 46.9226 48.8965H45.5654ZM45.413 49.7015L44.8651 51.6614L46.1722 52.0267L46.72 50.0668L45.413 49.7015ZM46.1171 52.1639C46.9425 50.6194 47.6885 49.6095 48.3402 49.0605L47.4658 48.0226C46.6154 48.739 45.7718 49.9308 44.9202 51.5242L46.1171 52.1639ZM48.3393 49.0612C48.6754 48.7791 48.9378 48.6954 49.1376 48.6954V47.3382C48.5246 47.3382 47.9639 47.6043 47.4667 48.0218L48.3393 49.0612ZM49.1376 48.6954C49.1761 48.6954 49.1913 48.7018 49.1934 48.7027C49.1952 48.7034 49.1968 48.7043 49.1991 48.7059C49.2014 48.7076 49.2063 48.7115 49.2135 48.7194L50.2191 47.8081C49.9321 47.4914 49.5517 47.3382 49.1376 47.3382V48.6954ZM49.2287 48.7356C49.2092 48.7155 49.2692 48.7578 49.2692 49.0122H50.6264C50.6264 48.5876 50.532 48.1309 50.2039 47.7918L49.2287 48.7356ZM49.2692 49.0122C49.2692 49.2404 49.2338 49.4955 49.1549 49.7802L50.4628 50.1424C50.5692 49.7584 50.6264 49.3808 50.6264 49.0122H49.2692ZM49.1559 49.7767L48.3071 52.7783L49.6131 53.1476L50.4619 50.1459L49.1559 49.7767ZM48.3073 52.7779C48.2141 53.1064 48.1428 53.3671 48.0943 53.557C48.0702 53.6514 48.0503 53.7339 48.036 53.801C48.0273 53.8419 48.0037 53.949 48.0037 54.0509H49.3609C49.3609 54.0982 49.3549 54.1285 49.3567 54.1175C49.3571 54.1151 49.3589 54.1047 49.3634 54.0838C49.3722 54.0423 49.3871 53.9797 49.4092 53.8928C49.4533 53.72 49.5209 53.4727 49.613 53.148L48.3073 52.7779ZM48.0037 54.0509C48.0037 54.2831 48.084 54.5085 48.2474 54.69L49.2561 53.7822C49.2869 53.8163 49.3154 53.8605 49.335 53.913C49.3546 53.965 49.3609 54.0131 49.3609 54.0509H48.0037ZM48.2366 54.6777C48.4082 54.8779 48.6447 54.9687 48.8752 54.9687V53.6115C48.9296 53.6115 49.001 53.6213 49.0778 53.6549C49.156 53.6892 49.2197 53.7394 49.267 53.7945L48.2366 54.6777ZM48.8752 54.9687C49.0793 54.9687 49.2408 54.8847 49.3051 54.8498C49.3925 54.8023 49.4778 54.7431 49.5559 54.6838L48.7347 53.6032C48.7109 53.6213 48.6922 53.6346 48.6781 53.6441C48.6637 53.6537 48.6572 53.6573 48.6576 53.6571C48.658 53.6568 48.6615 53.655 48.6678 53.6521C48.674 53.6493 48.6847 53.6447 48.6995 53.6396C48.714 53.6345 48.7356 53.6279 48.7632 53.6224C48.7906 53.617 48.8288 53.6115 48.8752 53.6115V54.9687ZM49.5599 54.6806C49.9186 54.4038 50.2398 54.0509 50.5283 53.6355L49.4136 52.8614C49.1877 53.1866 48.9585 53.4305 48.7307 53.6063L49.5599 54.6806ZM49.6066 53.8209L49.8613 53.9829L50.5899 52.838L50.3352 52.6759L49.6066 53.8209ZM49.6501 53.0508C49.5556 53.202 49.3614 53.4477 49.038 53.8014L50.0396 54.7171C50.3747 54.3506 50.6383 54.0304 50.801 53.7701L49.6501 53.0508ZM49.0344 53.8053C48.7262 54.1478 48.5084 54.3255 48.3759 54.3991L49.035 55.5855C49.3655 55.4018 49.7033 55.0908 50.0432 54.7132L49.0344 53.8053ZM48.3759 54.3991C48.211 54.4907 48.1115 54.5066 48.065 54.5066V55.8638C48.4095 55.8638 48.737 55.751 49.035 55.5855L48.3759 54.3991ZM48.065 54.5066C48.0589 54.5066 48.0573 54.5061 48.0594 54.5065C48.0616 54.5069 48.0661 54.508 48.0719 54.5103C48.0776 54.5127 48.0827 54.5155 48.0865 54.518C48.0902 54.5205 48.0912 54.5218 48.0896 54.5202L47.1299 55.4798C47.385 55.7349 47.7113 55.8638 48.065 55.8638V54.5066ZM48.0997 54.5305C48.0988 54.5295 48.1001 54.5308 48.1024 54.5343C48.1047 54.538 48.1071 54.5424 48.1089 54.5471C48.1107 54.5518 48.1113 54.5548 48.1114 54.5554C48.1115 54.5558 48.1109 54.5525 48.1109 54.5447H46.7537C46.7537 54.8895 46.8736 55.2125 47.1198 55.4695L48.0997 54.5305ZM48.1109 54.5447C48.1109 54.4087 48.1854 54.005 48.4016 53.2401L47.0957 52.8709C46.8901 53.5978 46.7537 54.187 46.7537 54.5447H48.1109ZM48.4015 53.2406L49.1037 50.7637L47.798 50.3935L47.0958 52.8704L48.4015 53.2406ZM49.1044 50.7611C49.1843 50.4749 49.2462 50.2504 49.2895 50.0889C49.3273 49.9481 49.3628 49.813 49.3748 49.7411L48.0361 49.5179C48.0378 49.5077 48.0258 49.5616 47.9787 49.7372C47.9372 49.8921 47.8768 50.1113 47.7973 50.3961L49.1044 50.7611ZM49.3757 49.7353C49.3963 49.605 49.4072 49.4744 49.4072 49.344H48.05C48.05 49.3988 48.0455 49.4586 48.0352 49.5237L49.3757 49.7353ZM49.4072 49.344C49.4072 49.1236 49.3593 48.8554 49.1773 48.6238L48.1102 49.4623C48.0414 49.3747 48.05 49.3072 48.05 49.344H49.4072ZM49.1589 48.6015C49.0005 48.4166 48.7553 48.2565 48.4354 48.2565V49.6136C48.3637 49.6136 48.2934 49.5958 48.233 49.5645C48.1759 49.5348 48.1426 49.5011 48.1285 49.4847L49.1589 48.6015ZM48.4354 48.2565C47.9805 48.2565 47.5947 48.488 47.2906 48.7662L48.2067 49.7675C48.3861 49.6033 48.4581 49.6136 48.4354 49.6136V48.2565ZM47.2891 48.7675C46.5046 49.4895 45.7976 50.476 45.1568 51.6989L46.3589 52.3288C46.9527 51.1956 47.5729 50.3508 48.2082 49.7661L47.2891 48.7675ZM45.1566 51.6993C44.7226 52.5288 44.3271 53.5697 43.9646 54.8096L45.2672 55.1904C45.6146 54.0022 45.9804 53.0524 46.3591 52.3284L45.1566 51.6993ZM44.6159 54.3214H43.4507V55.6786H44.6159V54.3214ZM44.1037 55.1846L45.4232 50.5162L44.1172 50.1471L42.7977 54.8154L44.1037 55.1846ZM45.4227 50.5181C45.5615 50.032 45.6648 49.6022 45.6648 49.3209H44.3077C44.3077 49.3197 44.3074 49.3382 44.3009 49.384C44.2947 49.4276 44.2844 49.4853 44.2686 49.559C44.237 49.707 44.1875 49.9012 44.1177 50.1453L45.4227 50.5181ZM45.6648 49.3209C45.6648 49.1101 45.6253 48.8172 45.4194 48.5739L44.3834 49.4505C44.3357 49.3942 44.3171 49.3427 44.3107 49.3194C44.3048 49.2977 44.3077 49.295 44.3077 49.3209H45.6648ZM45.4194 48.5739C45.2433 48.3658 44.9891 48.2333 44.693 48.2333V49.5905C44.6393 49.5905 44.5757 49.5788 44.5125 49.5484C44.4503 49.5184 44.4082 49.4799 44.3834 49.4505L45.4194 48.5739ZM44.693 48.2333C44.3549 48.2333 44.0478 48.3564 43.7836 48.5278L44.5222 49.6664C44.6387 49.5908 44.6916 49.5905 44.693 49.5905V48.2333ZM43.7831 48.5281C43.3641 48.8005 42.9043 49.318 42.412 49.9813L43.5018 50.7901C43.9868 50.1365 44.3243 49.795 44.5227 49.666L43.7831 48.5281ZM42.4099 49.984C41.9041 50.6728 41.5016 51.3451 41.2102 52.0006L42.4504 52.5518C42.694 52.0035 43.0425 51.4155 43.5038 50.7873L42.4099 49.984ZM41.2126 51.9954C41.0624 52.3256 40.7418 53.2841 40.2649 54.7959L41.5592 55.2041C42.0495 53.65 42.3409 52.7926 42.4481 52.557L41.2126 51.9954ZM40.9121 54.3214H39.7701V55.6786H40.9121V54.3214ZM40.4226 55.1863L41.8501 50.1862L40.5451 49.8136L39.1176 54.8137L40.4226 55.1863ZM41.85 50.1863L42.0352 49.5381L40.7303 49.1653L40.5451 49.8135L41.85 50.1863ZM42.0195 49.5863C42.0573 49.4838 42.1153 49.3128 42.1153 49.1357H40.7582C40.7582 49.1197 40.759 49.1065 40.7598 49.0965C40.7607 49.0865 40.7617 49.0786 40.7626 49.0731C40.7641 49.0626 40.7655 49.0578 40.765 49.0598C40.7645 49.0616 40.763 49.0673 40.7598 49.0775C40.7566 49.0876 40.7521 49.1007 40.746 49.1171L42.0195 49.5863ZM42.1153 49.1357C42.1153 48.7846 41.9442 48.5067 41.7219 48.3177L40.843 49.3518C40.8397 49.349 40.8165 49.3283 40.7944 49.2852C40.7708 49.2391 40.7582 49.1863 40.7582 49.1357H42.1153ZM41.7364 48.3304C41.4901 48.1087 41.1888 48.0173 40.8889 48.0173V49.3744C40.9028 49.3744 40.8978 49.3763 40.8811 49.3704C40.8629 49.364 40.8438 49.3529 40.8285 49.3391L41.7364 48.3304ZM40.8889 48.0173C40.7909 48.0173 40.6743 48.0353 40.5883 48.0496C40.4844 48.067 40.3534 48.0919 40.1981 48.1235L40.4686 49.4534C40.6168 49.4232 40.7302 49.4019 40.8114 49.3883C40.8522 49.3815 40.8807 49.3774 40.8991 49.3752C40.9228 49.3723 40.9143 49.3744 40.8889 49.3744V48.0173ZM40.9927 48.628L40.9233 48.3425L39.6046 48.6633L39.674 48.9488L40.9927 48.628ZM40.3858 49.1705L43.0479 48.6843L42.8041 47.3493L40.142 47.8354L40.3858 49.1705ZM52.8028 52.091L52.7264 51.4167L52.2037 51.4759L52.1308 51.9969L52.8028 52.091ZM53.2349 53.9043L52.7551 54.3841L52.7589 54.3879L53.2349 53.9043ZM55.4803 54.1589L55.7533 54.7802L55.7576 54.7783L55.4803 54.1589ZM57.0081 53.1481L57.5577 52.7501L57.1476 52.1837L56.5938 52.6107L57.0081 53.1481ZM57.1702 53.3719L57.648 53.8537L58.0606 53.4446L57.7198 52.9739L57.1702 53.3719ZM51.9849 54.4753L51.4561 54.9006L51.9849 54.4753ZM53.9062 48.6881L54.2632 49.2652L54.2662 49.2633L53.9062 48.6881ZM57.2088 50.3625L57.7185 50.8105L57.7211 50.8075L57.2088 50.3625ZM55.2334 51.5971L55.003 50.9589L55.0001 50.9599L55.2334 51.5971ZM52.8568 51.7129L52.1992 51.5454L51.9562 52.4994L52.9342 52.387L52.8568 51.7129ZM54.7164 51.2653L54.9902 51.8863L54.9934 51.8848L54.7164 51.2653ZM56.1362 50.2545L55.6077 49.8289L55.607 49.8298L56.1362 50.2545ZM56.4063 48.6032L55.9264 49.0831L55.9356 49.092L56.4063 48.6032ZM54.1531 49.2437L54.6198 49.7363L54.6199 49.7362L54.1531 49.2437ZM52.1308 51.9969C52.0924 52.2708 52.0702 52.5183 52.0702 52.7314H53.4273C53.4273 52.605 53.4411 52.4256 53.4748 52.1851L52.1308 51.9969ZM52.0702 52.7314C52.0702 53.3694 52.3039 53.9329 52.7551 54.3841L53.7147 53.4245C53.5177 53.2275 53.4273 53.0091 53.4273 52.7314H52.0702ZM52.7589 54.3879C53.2125 54.8343 53.778 55.0613 54.4155 55.0613V53.7041C54.127 53.7041 53.9055 53.6121 53.7109 53.4206L52.7589 54.3879ZM54.4155 55.0613C54.88 55.0613 55.3279 54.9671 55.7533 54.7802L55.2074 53.5377C54.9538 53.6491 54.6918 53.7041 54.4155 53.7041V55.0613ZM55.7576 54.7783C56.1816 54.5884 56.7455 54.2074 57.4225 53.6855L56.5938 52.6107C55.923 53.1279 55.4683 53.4208 55.203 53.5396L55.7576 54.7783ZM56.4585 53.5461L56.6206 53.7699L57.7198 52.9739L57.5577 52.7501L56.4585 53.5461ZM56.6924 52.89C55.532 54.0406 54.532 54.5066 53.6824 54.5066V55.8638C55.0449 55.8638 56.37 55.1209 57.648 53.8537L56.6924 52.89ZM53.6824 54.5066C53.0835 54.5066 52.7353 54.3257 52.5136 54.05L51.4561 54.9006C51.9957 55.5715 52.7793 55.8638 53.6824 55.8638V54.5066ZM52.5136 54.05C52.2233 53.689 52.0924 53.3149 52.0924 52.9089H50.7353C50.7353 53.6449 50.9851 54.315 51.4561 54.9006L52.5136 54.05ZM52.0924 52.9089C52.0924 52.2873 52.2833 51.6207 52.7083 50.9002L51.5393 50.2107C51.0177 51.0952 50.7353 51.9975 50.7353 52.9089H52.0924ZM52.7083 50.9002C53.1318 50.182 53.6515 49.6437 54.2632 49.2652L53.5492 48.1111C52.7309 48.6174 52.0623 49.3239 51.5393 50.2107L52.7083 50.9002ZM54.2662 49.2633C54.8862 48.8753 55.4985 48.6954 56.1131 48.6954V47.3382C55.2152 47.3382 54.3563 47.6059 53.5462 48.1129L54.2662 49.2633ZM56.1131 48.6954C56.5871 48.6954 56.8012 48.795 56.8871 48.8674L57.7619 47.8298C57.3231 47.4598 56.7296 47.3382 56.1131 47.3382V48.6954ZM56.8871 48.8674C57.0189 48.9785 57.0395 49.0597 57.0395 49.1357H58.3966C58.3966 48.6046 58.1548 48.1611 57.7619 47.8298L56.8871 48.8674ZM57.0395 49.1357C57.0395 49.3661 56.9526 49.6227 56.6964 49.9176L57.7211 50.8075C58.144 50.3205 58.3966 49.7591 58.3966 49.1357H57.0395ZM56.699 49.9146C56.3496 50.3123 55.8021 50.6705 55.003 50.9589L55.4638 52.2354C56.4034 51.8962 57.1729 51.4313 57.7185 50.8105L56.699 49.9146ZM55.0001 50.9599C54.498 51.1437 53.7493 51.3008 52.7264 51.4167L52.8792 52.7652C53.9448 52.6445 54.8165 52.4724 55.4667 52.2344L55.0001 50.9599ZM52.9342 52.387C53.7348 52.2951 54.4277 52.1342 54.9902 51.8863L54.4427 50.6444C54.0484 50.8183 53.5014 50.9558 52.7794 51.0387L52.9342 52.387ZM54.9934 51.8848C55.6889 51.5738 56.2634 51.1801 56.6654 50.6793L55.607 49.8298C55.3814 50.1108 55.0094 50.391 54.4394 50.6459L54.9934 51.8848ZM56.6647 50.6801C57.0398 50.2143 57.2932 49.6924 57.2932 49.1279H55.936C55.936 49.2734 55.8705 49.5025 55.6077 49.8289L56.6647 50.6801ZM57.2932 49.1279C57.2932 48.7519 57.1653 48.3921 56.877 48.1145L55.9356 49.092C55.9372 49.0936 55.9365 49.0932 55.935 49.0909C55.9334 49.0886 55.9323 49.0863 55.9319 49.0851C55.9306 49.082 55.936 49.0931 55.936 49.1279H57.2932ZM56.8861 48.1234C56.5872 47.8245 56.1977 47.724 55.8276 47.724V49.0812C55.895 49.0812 55.9286 49.0903 55.939 49.0939C55.9464 49.0965 55.9378 49.0944 55.9264 49.0831L56.8861 48.1234ZM55.8276 47.724C55.0544 47.724 54.3365 48.1349 53.6863 48.7512L54.6199 49.7362C55.1529 49.231 55.5513 49.0812 55.8276 49.0812V47.724ZM53.6864 48.7511C52.9772 49.423 52.4967 50.3775 52.1992 51.5454L53.5144 51.8804C53.7725 50.8672 54.1562 50.1755 54.6198 49.7363L53.6864 48.7511Z" fill="#0000FF" mask="url(#path-2-outside-1_98_955)"/>
<path d="M27.4616 39.8583L26.7328 42.401L26.7321 42.4033L26.7321 42.4033C26.6531 42.6677 26.5944 42.8748 26.5557 43.0255C26.5364 43.101 26.5225 43.1605 26.5136 43.2049C26.5038 43.2539 26.5028 43.2719 26.5028 43.2713C26.5028 43.4449 26.5658 43.5811 26.7 43.695C26.8227 43.7991 27.0635 43.8754 27.4764 43.8754H27.7884H28.0681L27.9884 44.1436L27.8981 44.4473L27.8537 44.5966H27.698H22H21.7274L21.7985 44.3334L21.8806 44.0296L21.9229 43.8733L22.0849 43.8754C22.4831 43.8806 22.7823 43.8276 22.9954 43.7308C23.2205 43.6228 23.3766 43.4919 23.477 43.3438C23.5057 43.3005 23.5526 43.2011 23.6165 43.0269C23.6787 42.8576 23.7518 42.6325 23.836 42.3502C23.836 42.35 23.8361 42.3498 23.8362 42.3495L24.6745 39.4638L23.7507 35.4608L23.7505 35.46C23.5928 34.7636 23.4099 34.3295 23.2221 34.1142L23.2212 34.1132L23.2212 34.1132C23.0986 33.9709 22.8477 33.843 22.414 33.7636L22.1852 33.7218L22.2515 33.4988L22.3418 33.195L22.3862 33.0458H22.5419H27.8869H28.174L28.0854 33.3189L27.9869 33.6227L27.9401 33.767H27.7884C27.2898 33.767 26.9707 33.8706 26.7855 34.0347L26.7853 34.0349C26.5906 34.207 26.5028 34.4007 26.5028 34.6257C26.5028 34.7809 26.547 35.0753 26.6457 35.5251L26.6457 35.5251L27.2685 38.3631L28.7934 36.2603L27.4616 39.8583ZM27.4616 39.8583L30.601 35.5365L30.6011 35.5364C30.9174 35.1001 31.1801 34.7549 31.3898 34.4995C31.6036 34.2391 31.751 34.0862 31.8382 34.0209C32.0241 33.8814 32.2477 33.795 32.5156 33.7658L32.7016 33.7455V33.5583V33.2545V33.0458H32.4929H29.1513H28.9956L28.9512 33.195L28.8609 33.4988L28.7902 33.7368L29.0368 33.7656C29.344 33.8015 29.5276 33.8849 29.6277 33.985C29.739 34.0963 29.7883 34.2166 29.7883 34.3547C29.7883 34.5128 29.7417 34.7129 29.6337 34.96C29.5286 35.1947 29.2542 35.6239 28.7935 36.2602L27.4616 39.8583ZM36.0663 41.0086H32.9375L32.3105 41.7849L32.3083 41.7876L32.3083 41.7875L31.5234 42.7279C31.3779 42.9205 31.2768 43.088 31.2148 43.2311L31.2147 43.2313C31.1703 43.3333 31.1499 43.431 31.1499 43.5258C31.1499 43.5748 31.1726 43.6435 31.277 43.7324C31.3691 43.8013 31.5485 43.8601 31.8549 43.8756L32.053 43.8857V44.0841V44.3879V44.5966H31.8443H28.5191H28.2465L28.3176 44.3334L28.3997 44.0296L28.4347 43.9002L28.5669 43.8782C28.8338 43.8337 29.0669 43.7408 29.2695 43.6013C29.5523 43.3988 29.9777 42.9662 30.5513 42.2833L36.0663 41.0086ZM36.0663 41.0086L36.0038 42.2095L36.0038 42.2108C35.9766 42.8094 35.9006 43.1937 35.7969 43.3971C35.6831 43.6146 35.5723 43.7288 35.4768 43.7791C35.4734 43.7801 35.4598 43.7843 35.4301 43.7904C35.3931 43.798 35.3422 43.8065 35.2761 43.8158C35.144 43.8343 34.9603 43.8545 34.7235 43.8763L34.5828 43.8892L34.5425 44.0246L34.4522 44.3284L34.3725 44.5966H34.6523H39.4718H39.6316L39.6733 44.4423L39.7554 44.1385L39.821 43.8956L39.5702 43.876C39.2467 43.8507 39.0574 43.7627 38.9547 43.65C38.8564 43.5361 38.7856 43.3267 38.7856 42.9757C38.7856 42.8817 38.7936 42.5991 38.8101 42.1217C38.8101 42.1214 38.8101 42.1211 38.8101 42.1208L39.1795 33.0085L39.1883 32.7913H38.971H38.6015H38.5041L38.4415 32.866L30.5515 42.2831L36.0663 41.0086ZM45.9251 44.1533L46.0208 43.8809L45.7321 43.8754C45.448 43.8701 45.2223 43.8507 45.0516 43.8193C44.8774 43.7873 44.7831 43.7466 44.7401 43.7144C44.6364 43.6305 44.5739 43.5052 44.5739 43.3041C44.5739 43.1564 44.6284 42.8733 44.7545 42.4345C44.7546 42.4343 44.7546 42.4342 44.7547 42.434L45.6071 39.5048C46.1332 39.5764 46.59 39.6129 46.9761 39.6129C48.3966 39.6129 49.5501 39.2502 50.4133 38.5028L50.4134 38.5027C51.2717 37.7588 51.717 36.8833 51.717 35.8819C51.717 34.8456 51.2682 34.054 50.3824 33.5343L50.3811 33.5336C49.8002 33.1982 48.8828 33.0458 47.6658 33.0458H43.2568H43.1011L43.0568 33.195L42.9664 33.4988L42.8886 33.7607L43.1617 33.767C43.6325 33.7778 43.8995 33.8552 44.0226 33.9521L44.0226 33.9522L44.0257 33.9546C44.1614 34.0573 44.214 34.1685 44.214 34.2972C44.214 34.4656 44.1519 34.7756 44.0094 35.2467L44.0089 35.2487L41.948 42.3179L41.9479 42.3185C41.8554 42.6394 41.7754 42.8924 41.7079 43.0792C41.6373 43.2742 41.5879 43.3746 41.5618 43.4099L41.5616 43.4097L41.5553 43.4194C41.4495 43.5803 41.3207 43.6919 41.169 43.7618C41.0178 43.8258 40.7292 43.87 40.2739 43.8754L40.1202 43.8772L40.0764 44.0246L39.9861 44.3284L39.9063 44.5966H40.1861H45.6214H45.7693L45.8183 44.4571L45.9251 44.1533ZM48.3707 34.4762L48.3721 34.4777C48.6017 34.7073 48.7297 35.042 48.7297 35.5124C48.7297 36.2197 48.5264 36.9015 48.113 37.5609C47.7152 38.1953 47.1852 38.4975 46.5081 38.4975C46.3385 38.4975 46.1328 38.4855 45.8901 38.4609L47.1361 34.1187C47.2229 34.1141 47.2981 34.1119 47.362 34.1119C47.8127 34.1119 48.1396 34.2407 48.3707 34.4762ZM36.0894 39.9179H33.8566L36.2547 37.1064L36.0894 39.9179Z" fill="#0000FF" stroke="#0000FF" stroke-width="0.417424"/>
<path d="M57.3834 34.0107C57.1847 33.6532 56.9065 33.378 56.5503 33.1873C56.1977 32.9965 55.8334 32.9 55.4583 32.9C55.0852 32.9 54.7218 32.9966 54.3693 33.1873C54.0131 33.378 53.734 33.6532 53.5333 34.0106L53.5332 34.0108C53.3358 34.3641 53.2362 34.735 53.2362 35.1221C53.2362 35.5072 53.3347 35.876 53.5301 36.2273C53.7267 36.5807 54.0014 36.8565 54.3529 37.0532L54.3535 37.0535C54.7048 37.2468 55.0735 37.3443 55.4583 37.3443C55.8432 37.3443 56.2119 37.2468 56.5631 37.0535L56.5635 37.0533C56.917 36.8567 57.1929 36.5809 57.3895 36.2273C57.5849 35.876 57.6835 35.5072 57.6835 35.1221C57.6835 34.7349 57.5828 34.364 57.3834 34.0107ZM57.3834 34.0107C57.3834 34.0108 57.3835 34.0109 57.3835 34.011L57.2961 34.0596L57.3832 34.0104C57.3833 34.0105 57.3833 34.0106 57.3834 34.0107ZM56.3318 36.645L56.3315 36.6451C56.0524 36.8008 55.7617 36.8779 55.4583 36.8779C55.157 36.8779 54.8663 36.8009 54.5849 36.645C54.3058 36.4904 54.0899 36.2753 53.9354 35.9984C53.7796 35.7172 53.7026 35.4255 53.7026 35.1221C53.7026 34.819 53.7805 34.5263 53.9383 34.243C54.0969 33.9599 54.3147 33.7443 54.5929 33.5939C54.8768 33.4414 55.165 33.3664 55.4583 33.3664C55.7538 33.3664 56.0419 33.4415 56.3237 33.5938L56.3239 33.5939C56.4051 33.6375 56.481 33.6865 56.5516 33.7411H56.461H56.3473H56.2578L56.2479 33.83C56.2432 33.8723 56.2325 33.8835 56.2316 33.8843L56.2315 33.8843L56.2287 33.8871C56.2247 33.8911 56.2208 33.8937 56.2096 33.8937C56.2096 33.8937 56.209 33.8937 56.2075 33.8936L56.2013 33.8928C56.1959 33.8919 56.1887 33.8904 56.1795 33.888C56.161 33.8832 56.137 33.8754 56.107 33.8642L56.107 33.8642L56.1058 33.8637C55.8772 33.7813 55.6689 33.7381 55.4823 33.7381C55.0791 33.7381 54.7387 33.8707 54.469 34.1382C54.1989 34.4061 54.0653 34.7468 54.0653 35.1521C54.0653 35.5349 54.1897 35.855 54.4424 36.1034L54.443 36.104C54.698 36.3503 55.0287 36.4703 55.4254 36.4703C55.8422 36.4703 56.1869 36.3349 56.4496 36.0591L56.4772 36.0302V35.9902V35.7806V35.5007L56.2999 35.7173C56.0891 35.9747 55.8552 36.0937 55.596 36.0937C55.4114 36.0937 55.2583 36.022 55.1307 35.8718C55.0103 35.7278 54.9387 35.4704 54.9387 35.0743C54.9387 34.7064 55.0114 34.4599 55.1364 34.3129L55.1368 34.3125C55.2664 34.1583 55.4225 34.0847 55.611 34.0847C55.7692 34.0847 55.9035 34.1344 56.0184 34.234L56.0184 34.234L56.0197 34.235C56.1351 34.3318 56.213 34.4678 56.2492 34.6507L56.2652 34.7313H56.3473H56.461H56.561V34.6313V33.8411V33.7484C56.7301 33.8809 56.869 34.0455 56.9781 34.2427L56.9783 34.2429C57.1361 34.5263 57.2141 34.8189 57.2141 35.1221C57.2141 35.4255 57.137 35.7172 56.9812 35.9984C56.8268 36.2753 56.6108 36.4904 56.3318 36.645ZM56.0839 34.1583C55.9502 34.0426 55.7926 33.9847 55.611 33.9847C55.3915 33.9847 55.2079 34.0725 55.0602 34.2481L56.0839 34.1583Z" fill="#0000FF" stroke="#0000FF" stroke-width="0.2"/>
<path d="M62.7791 33C63.4576 33 64.1361 33 64.8146 33C64.8283 33.009 64.8418 33.0251 64.8557 33.0255C64.9018 33.027 64.9392 33.0446 64.9816 33.062C65.0547 33.092 65.1383 33.0951 65.1954 33.1618C65.2015 33.1689 65.2221 33.1624 65.2355 33.1645C65.3401 33.1809 65.4523 33.1717 65.5345 33.2613C65.5465 33.2745 65.5774 33.2753 65.5989 33.2739C65.6725 33.2692 65.731 33.2969 65.7823 33.3474C65.7977 33.3626 65.818 33.3794 65.8381 33.3824C65.9094 33.3932 65.9357 33.4472 65.9766 33.496C66.0106 33.5367 66.0875 33.5361 66.125 33.5883C66.13 33.5952 66.1298 33.606 66.1349 33.6127C66.1784 33.6691 66.2434 33.707 66.2719 33.7776C66.277 33.7901 66.3121 33.7965 66.3331 33.7958C66.3983 33.7937 66.4401 33.8121 66.4388 33.887C66.4386 33.9019 66.4502 33.9195 66.4612 33.9314C66.5203 33.9954 66.5742 34.0669 66.6428 34.1187C66.7193 34.1764 66.7381 34.2524 66.7453 34.3331C66.7631 34.3425 66.7744 34.3505 66.787 34.3548C66.8571 34.3785 66.8897 34.4227 66.8797 34.4999C66.877 34.5209 66.8975 34.5451 66.9082 34.5675C66.9383 34.6303 66.9536 34.7008 67.0101 34.7498C67.0184 34.757 67.0093 34.7838 67.0088 34.8015C67.0083 34.8171 67.0019 34.8405 67.0095 34.8468C67.0525 34.8823 67.0403 34.9294 67.0429 34.974C67.0445 35.0008 67.0394 35.0388 67.0546 35.052C67.109 35.0997 67.0951 35.1596 67.0981 35.2176C67.099 35.2351 67.0996 35.2637 67.109 35.2678C67.1661 35.2928 67.1501 35.3412 67.1535 35.3847C67.1625 35.4993 67.1208 35.6217 67.2062 35.7252C67.2131 35.7336 67.2057 35.7524 67.2086 35.7656C67.2172 35.8049 67.2149 35.8601 67.2398 35.8795C67.2987 35.925 67.283 35.9909 67.3094 36.041C67.3362 36.0549 67.3652 36.0725 67.3703 36.0954C67.3775 36.1278 67.3987 36.1469 67.4116 36.1712C67.4417 36.2282 67.493 36.2349 67.5393 36.26C67.5844 36.2845 67.6179 36.3299 67.6627 36.3555C67.7116 36.3834 67.7444 36.4312 67.8051 36.4467C67.8854 36.4673 67.9789 36.4481 68.0449 36.5172C68.1353 36.4985 68.1969 36.5991 68.2885 36.5759C68.3357 36.6604 68.4165 36.6201 68.4837 36.6265C68.5379 36.6316 68.593 36.6275 68.6501 36.6275C68.6608 36.6554 68.6701 36.6796 68.6795 36.7044C68.6945 36.7063 68.7078 36.7084 68.7211 36.7097C68.873 36.7242 68.9406 36.7958 68.9411 36.9431C68.9413 36.9975 68.9411 37.052 68.9411 37.1071C68.8944 37.1234 68.861 37.1378 68.8483 37.1918C68.8363 37.2435 68.8285 37.3119 68.7534 37.3269C68.7427 37.329 68.733 37.3449 68.726 37.3564C68.6843 37.4254 68.629 37.4697 68.539 37.4522C68.5064 37.5388 68.4694 37.617 68.3634 37.6293C68.3634 37.6921 68.3651 37.7512 68.3631 37.8102C68.3594 37.9163 68.3991 38.0157 68.4795 38.0687C68.5771 38.133 68.5932 38.2089 68.5839 38.309C68.5796 38.3544 68.5831 38.4004 68.5831 38.458C68.5006 38.4661 68.4988 38.5339 68.4974 38.5857C68.4011 38.6284 68.3164 38.666 68.2318 38.7036C68.1574 38.8358 68.0219 38.8994 67.9117 38.9918C67.8656 39.0305 67.8044 39.0661 67.8116 39.145C67.8168 39.2011 67.7488 39.1693 67.7416 39.1857C67.6986 39.3225 67.7889 39.395 67.83 39.4854C67.9517 39.4854 68.0662 39.4866 68.1807 39.4851C68.2942 39.4835 68.406 39.4964 68.5187 39.508C68.6008 39.5164 68.6316 39.5783 68.6558 39.6203C68.6825 39.6664 68.6716 39.7481 68.6501 39.8039C68.6273 39.8632 68.5721 39.9098 68.5326 39.9629C68.5195 39.9804 68.5009 40.0025 68.5028 40.0207C68.5135 40.1289 68.455 40.2519 68.5684 40.34C68.5796 40.3487 68.5801 40.373 68.5827 40.3905C68.5926 40.4569 68.6004 40.5237 68.611 40.5901C68.615 40.6153 68.6171 40.6536 68.6327 40.6617C68.6722 40.6823 68.6639 40.7132 68.6653 40.7436C68.6699 40.8392 68.5813 40.9129 68.6012 41.0135C68.603 41.0229 68.5769 41.0378 68.5638 41.0502C68.5515 41.0618 68.5358 41.0715 68.5275 41.0855C68.4477 41.2204 68.3305 41.3065 68.1832 41.3551C68.1665 41.3606 68.1475 41.366 68.1355 41.3775C68.0804 41.4302 68.0199 41.4092 67.958 41.3931C67.9411 41.4513 67.9006 41.4663 67.8433 41.466C67.7857 41.4658 67.7217 41.4645 67.6722 41.4883C67.6336 41.5068 67.5992 41.5159 67.5584 41.5206C67.4919 41.5281 67.406 41.5212 67.365 41.5596C67.3105 41.6107 67.2595 41.5962 67.2047 41.6015C67.1828 41.6036 67.1605 41.6018 67.1383 41.6018C67.1131 41.642 67.0845 41.6701 67.0502 41.6835C66.9716 41.7143 66.8914 41.733 66.8373 41.8117C66.8143 41.8452 66.7732 41.8799 66.7202 41.8892C66.6949 41.8936 66.6735 41.9255 66.6522 41.9468C66.6005 41.9986 66.5464 42.0487 66.4997 42.1048C66.4525 42.1616 66.4147 42.226 66.3697 42.2847C66.3545 42.3045 66.3106 42.3283 66.3124 42.3313C66.3554 42.4054 66.2819 42.4125 66.2454 42.448C66.2692 42.5842 66.1804 42.6986 66.1531 42.8283C66.1502 42.8424 66.1295 42.8574 66.1138 42.8632C66.0915 42.8717 66.0891 42.8784 66.0973 42.9008C66.1043 42.9202 66.1052 42.9454 66.0993 42.9652C66.0389 43.166 66.036 43.3738 66.027 43.5799C66.0213 43.7084 66.0393 43.8386 65.8903 43.9032C65.8722 43.9666 65.8223 43.9651 65.7697 43.9662C65.0888 43.9803 64.4079 43.9439 63.7267 43.9888C63.3661 44.0127 63.0027 43.9952 62.6406 43.9917C62.5326 43.9907 62.4242 43.9776 62.3171 43.9624C62.2855 43.958 62.2551 43.9307 62.2285 43.9086C62.1441 43.8382 62.0617 43.7652 62.0006 43.7123C61.9368 43.593 62.0482 43.5398 62.0472 43.454C62.047 43.4344 62.0917 43.4144 62.1132 43.3967C62.1323 43.2799 62.1125 43.1539 62.2177 43.0632C62.1931 42.9589 62.1872 42.9244 62.242 42.879C62.2824 42.8455 62.2814 42.8141 62.2836 42.7746C62.2862 42.725 62.2719 42.6603 62.2975 42.629C62.3456 42.5705 62.3341 42.5106 62.3391 42.4486C62.3418 42.4142 62.3406 42.364 62.3611 42.35C62.3966 42.3256 62.3935 42.2988 62.3937 42.2682C62.3942 42.1171 62.3944 41.966 62.3934 41.8148C62.3933 41.793 62.3927 41.7571 62.3813 41.7519C62.3238 41.7256 62.3423 41.6772 62.3381 41.6346C62.3355 41.6081 62.3383 41.5653 62.3247 41.5586C62.2741 41.5338 62.2845 41.493 62.2835 41.4536C62.2827 41.422 62.2888 41.3873 62.2449 41.3777C62.2379 41.2943 62.1311 41.2577 62.1448 41.1646C62.0778 41.1074 62.0328 41.0355 62.0032 40.9533C61.9249 40.9619 61.935 40.8842 61.9011 40.8494C61.8448 40.7918 61.7906 40.7314 61.7294 40.6794C61.6666 40.6262 61.5705 40.6186 61.5272 40.5363C61.5257 40.5334 61.519 40.5315 61.515 40.5318C61.4272 40.5387 61.3961 40.4677 61.343 40.4196C61.3029 40.3831 61.2824 40.315 61.2172 40.3118C61.1695 40.3094 61.1482 40.2863 61.1224 40.2489C61.094 40.2077 61.0495 40.1573 61.0064 40.1514C60.9365 40.1418 60.9036 40.098 60.8641 40.056C60.8459 40.0368 60.8387 40.0035 60.818 39.9912C60.698 39.9202 60.582 39.8445 60.4964 39.7322C60.4203 39.6324 60.2994 39.5913 60.2116 39.5014C60.0868 39.3737 59.9568 39.2501 59.8314 39.1221C59.794 39.084 59.7376 39.0638 59.7502 38.9945C59.7517 38.9864 59.737 38.9686 59.7274 38.9664C59.6448 38.948 59.6652 38.8256 59.5739 38.8156C59.5682 38.815 59.5599 38.7919 59.5613 38.7803C59.5669 38.731 59.5397 38.7031 59.5119 38.6653C59.4668 38.6041 59.4104 38.5471 59.3862 38.472C59.3645 38.405 59.356 38.3323 59.2747 38.3024C59.2632 38.2981 59.2611 38.262 59.2585 38.2403C59.2493 38.1636 59.1756 38.1044 59.1982 38.0187C59.1996 38.0132 59.19 38.0005 59.1828 37.9974C59.0975 37.961 59.1197 37.8904 59.1256 37.8241C59.1274 37.8044 59.131 37.7797 59.1216 37.7651C59.0869 37.7108 59.0967 37.6513 59.0919 37.5928C59.0848 37.5077 59.0726 37.423 59.0626 37.3382C58.9734 37.2809 59.0135 37.1914 59.0118 37.1158C59.007 36.9006 59.008 36.6853 59.0112 36.47C59.0124 36.3866 58.9825 36.2946 59.0605 36.2252C59.0657 36.2206 59.0629 36.2078 59.0651 36.199C59.0774 36.1497 59.0488 36.0989 59.092 36.0462C59.1164 36.0164 59.0941 35.9484 59.0926 35.8976C59.0911 35.8428 59.085 35.7849 59.1232 35.7406C59.1584 35.6998 59.1012 35.6626 59.1256 35.6272C59.1487 35.5937 59.1815 35.5659 59.1997 35.5303C59.2109 35.5082 59.1956 35.4737 59.2047 35.4494C59.226 35.3927 59.241 35.314 59.284 35.2901C59.3355 35.2614 59.3529 35.229 59.3688 35.1824C59.3847 35.1357 59.404 35.09 59.4241 35.0451C59.4305 35.0308 59.4425 35.017 59.4554 35.0081C59.5271 34.9589 59.5268 34.9592 59.5626 34.8761C59.5689 34.8616 59.5844 34.8511 59.5956 34.8386C59.646 34.7822 59.6978 34.7269 59.746 34.6687C59.7622 34.6491 59.7778 34.6224 59.779 34.5982C59.7814 34.55 59.8002 34.5221 59.8462 34.5079C59.8674 34.5014 59.8903 34.4906 59.9051 34.475C59.9633 34.4138 60.0175 34.3489 60.0753 34.2875C60.1254 34.2341 60.1766 34.1814 60.2307 34.1319C60.2854 34.0818 60.3402 34.0341 60.4103 33.9999C60.4702 33.9707 60.5136 33.9077 60.565 33.8604C60.5708 33.8551 60.5816 33.8532 60.5902 33.8531C60.6778 33.8514 60.7014 33.7815 60.735 33.7167C60.7822 33.7078 60.8324 33.7232 60.8765 33.6668C60.913 33.62 60.9967 33.6132 61.047 33.5731C61.1139 33.5198 61.1972 33.5179 61.2691 33.4817C61.3585 33.4368 61.44 33.3732 61.5419 33.3546C61.5499 33.3532 61.56 33.3474 61.5638 33.3406C61.6012 33.2732 61.665 33.2731 61.7292 33.2751C61.7945 33.2771 61.8516 33.2526 61.9082 33.2244C61.9316 33.2127 61.9554 33.1971 61.9804 33.1936C62.0695 33.1815 62.1594 33.1751 62.2486 33.1637C62.2742 33.1604 62.3063 33.1549 62.3221 33.138C62.414 33.0396 62.527 33.0126 62.6556 33.0267C62.6828 33.0296 62.711 33.03 62.7378 33.0257C62.7526 33.0234 62.7654 33.009 62.7791 33.0001V33Z" fill="#0000FF"/>
<path d="M71.9391 38.9635C71.8451 39.0753 71.7233 39.1042 71.5809 39.1032C70.9861 39.0989 70.3913 39.1025 69.7965 39.1001C69.7071 39.0998 69.6163 39.0891 69.5287 39.0709C69.4643 39.0575 69.4168 39.0098 69.4093 38.9399C69.4052 38.9022 69.3965 38.8833 69.3559 38.8772C69.3402 38.8748 69.3198 38.8483 69.3163 38.8299C69.3062 38.7773 69.3037 38.7232 69.298 38.6697C69.2915 38.6092 69.3367 38.5844 69.3742 38.5507C69.4061 38.522 69.4289 38.4832 69.4587 38.4452C69.9295 38.3844 70.4087 38.4239 70.8866 38.4142C71.0879 38.4101 71.2893 38.4103 71.4905 38.4147C71.6075 38.4173 71.7247 38.4286 71.8408 38.4436C71.8753 38.448 71.9065 38.478 71.9391 38.4963V38.9635L71.9391 38.9635Z" fill="#0000FF"/>
<path d="M69.413 37.8508C69.4033 37.8075 69.4174 37.7663 69.363 37.7435C69.3091 37.7209 69.2897 37.6678 69.297 37.6061C69.3018 37.5654 69.2994 37.5237 69.2976 37.4826C69.2952 37.4289 69.3119 37.3976 69.3616 37.362C69.4353 37.3092 69.4884 37.2283 69.5527 37.1615C69.6466 37.064 69.7424 36.9683 69.8376 36.872C69.8684 36.8408 69.8979 36.8079 69.9311 36.7793C69.9613 36.7535 69.9955 36.7322 70.0285 36.7099C70.0355 36.7052 70.0522 36.7057 70.0528 36.702C70.0661 36.6155 70.1508 36.5907 70.1955 36.5334C70.2882 36.4144 70.4042 36.3208 70.5095 36.2158C70.5318 36.1936 70.5643 36.1786 70.5798 36.1528C70.6621 36.0163 70.7973 35.9409 70.9356 35.8983C71.0619 35.8593 71.2119 35.8565 71.3354 35.9198C71.4056 35.9558 71.4918 36.0148 71.4718 36.1269C71.4679 36.1491 71.4669 36.1736 71.472 36.1953C71.4986 36.3085 71.434 36.3841 71.359 36.4469C71.2746 36.5178 71.1973 36.5938 71.1248 36.6763C71.0876 36.7186 71.0412 36.7541 70.995 36.787C70.9433 36.8238 70.9005 36.8634 70.8652 36.9194C70.8243 36.9844 70.7618 37.0362 70.7069 37.0921C70.5897 37.2114 70.4765 37.3355 70.3513 37.4459C70.2883 37.5012 70.2278 37.559 70.168 37.6171C70.1056 37.6779 70.0572 37.7536 69.9923 37.8112C69.9502 37.8487 69.8904 37.8858 69.8373 37.8875C69.6983 37.8921 69.555 37.9178 69.4128 37.8507L69.413 37.8508Z" fill="#0000FF"/>
<path d="M69.9094 39.65C69.9412 39.6809 69.9394 39.7203 69.9791 39.7485C70.0585 39.8049 70.1541 39.8549 70.1838 39.9625C70.1857 39.9694 70.1964 39.9759 70.2044 39.9785C70.2959 40.0084 70.3365 40.0924 70.3974 40.1555C70.4684 40.2293 70.5505 40.2926 70.6216 40.3663C70.7373 40.4865 70.8697 40.5915 70.9577 40.7377C70.977 40.7699 71.0196 40.7878 71.051 40.813C71.0819 40.8377 71.1122 40.8633 71.1427 40.8885C71.1525 40.8965 71.1627 40.9125 71.1716 40.9117C71.2609 40.9037 71.2964 40.9781 71.347 41.0265C71.3677 41.0463 71.3761 41.0794 71.3886 41.1073C71.3957 41.1231 71.3957 41.1521 71.4053 41.1552C71.4928 41.1834 71.47 41.2551 71.4709 41.3157C71.4728 41.4662 71.4394 41.5214 71.3054 41.6048C71.2918 41.6133 71.2827 41.6302 71.2734 41.6445C71.2541 41.6742 71.2279 41.686 71.1924 41.6847C71.1421 41.6828 71.0917 41.6843 71.0413 41.6842C70.8867 41.6842 70.8878 41.669 70.7772 41.5483C70.7065 41.471 70.6399 41.3883 70.5633 41.3162C70.4567 41.216 70.342 41.1244 70.2368 41.0229C70.1991 40.9865 70.1642 40.9471 70.1249 40.9114C70.0829 40.8731 70.0536 40.8215 70.014 40.7802C69.9275 40.69 69.8497 40.5904 69.7379 40.5263C69.7092 40.5098 69.6881 40.4757 69.6703 40.4457C69.647 40.4062 69.6318 40.3633 69.5742 40.3616C69.5629 40.3612 69.5497 40.339 69.5419 40.3245C69.5012 40.2488 69.439 40.1944 69.3726 40.1424C69.349 40.124 69.3266 40.0967 69.3173 40.0689C69.2836 39.9678 69.2896 39.8637 69.3128 39.7616C69.3189 39.7344 69.3324 39.7023 69.3766 39.7041C69.4375 39.7064 69.4689 39.6271 69.5442 39.6472C69.5998 39.662 69.6625 39.6501 69.722 39.6501C69.7858 39.6501 69.8496 39.6501 69.9095 39.6501L69.9094 39.65Z" fill="#0000FF"/>
</svg>
