<svg width="88" height="88" viewBox="0 0 88 88" fill="none" xmlns="http://www.w3.org/2000/svg">
<circle cx="44" cy="44" r="43" stroke="#0000FF"/>
<path d="M76.0472 37.0107C75.8485 36.6532 75.5704 36.378 75.2141 36.1873C74.8616 35.9965 74.4972 35.9 74.1221 35.9C73.749 35.9 73.3856 35.9966 73.0331 36.1873C72.6769 36.378 72.3978 36.6532 72.1972 37.0106L72.1971 37.0108C71.9996 37.3641 71.9 37.735 71.9 38.1221C71.9 38.5072 71.9986 38.876 72.194 39.2273C72.3905 39.5807 72.6652 39.8565 73.0167 40.0532L73.0173 40.0535C73.3686 40.2468 73.7373 40.3443 74.1221 40.3443C74.507 40.3443 74.8757 40.2468 75.2269 40.0535L75.2273 40.0533C75.5809 39.8567 75.8567 39.5809 76.0533 39.2273C76.2487 38.876 76.3473 38.5072 76.3473 38.1221C76.3473 37.7349 76.2466 37.364 76.0472 37.0107ZM76.0472 37.0107C76.0472 37.0108 76.0473 37.0109 76.0474 37.011L75.9599 37.0596L76.047 37.0104C76.0471 37.0105 76.0471 37.0106 76.0472 37.0107ZM74.9956 39.645L74.9953 39.6451C74.7162 39.8008 74.4256 39.8779 74.1221 39.8779C73.8208 39.8779 73.5301 39.8009 73.2487 39.645C72.9697 39.4904 72.7537 39.2753 72.5992 38.9984C72.4434 38.7172 72.3664 38.4255 72.3664 38.1221C72.3664 37.819 72.4443 37.5263 72.6021 37.243C72.7607 36.9599 72.9785 36.7443 73.2567 36.5939C73.5407 36.4414 73.8288 36.3664 74.1221 36.3664C74.4176 36.3664 74.7057 36.4415 74.9875 36.5938L74.9877 36.5939C75.0689 36.6375 75.1448 36.6865 75.2154 36.7411H75.1248H75.0111H74.9216L74.9117 36.83C74.907 36.8723 74.8963 36.8835 74.8954 36.8843L74.8953 36.8843L74.8925 36.8871C74.8885 36.8911 74.8846 36.8937 74.8734 36.8937C74.8735 36.8937 74.8728 36.8937 74.8713 36.8936L74.8651 36.8928C74.8597 36.8919 74.8525 36.8904 74.8433 36.888C74.8248 36.8832 74.8008 36.8754 74.7709 36.8642L74.7709 36.8642L74.7696 36.8637C74.541 36.7813 74.3327 36.7381 74.1461 36.7381C73.7429 36.7381 73.4026 36.8707 73.1328 37.1382C72.8628 37.4061 72.7291 37.7468 72.7291 38.1521C72.7291 38.5349 72.8535 38.855 73.1062 39.1034L73.1068 39.104C73.3619 39.3503 73.6925 39.4703 74.0892 39.4703C74.506 39.4703 74.8507 39.3349 75.1134 39.0591L75.141 39.0302V38.9902V38.7806V38.5007L74.9637 38.7173C74.7529 38.9747 74.519 39.0937 74.2598 39.0937C74.0753 39.0937 73.9221 39.022 73.7945 38.8718C73.6741 38.7278 73.6026 38.4704 73.6026 38.0743C73.6026 37.7064 73.6752 37.4599 73.8002 37.3129L73.8006 37.3125C73.9302 37.1583 74.0863 37.0847 74.2748 37.0847C74.433 37.0847 74.5673 37.1344 74.6823 37.234L74.6823 37.234L74.6835 37.235C74.799 37.3318 74.8768 37.4678 74.913 37.6507L74.929 37.7313H75.0111H75.1248H75.2248V37.6313V36.8411V36.7484C75.394 36.8809 75.5328 37.0455 75.642 37.2427L75.6421 37.2429C75.7999 37.5263 75.8779 37.8189 75.8779 38.1221C75.8779 38.4255 75.8009 38.7172 75.6451 38.9984C75.4906 39.2753 75.2746 39.4904 74.9956 39.645ZM74.7477 37.1583C74.614 37.0426 74.4564 36.9847 74.2748 36.9847C74.0553 36.9847 73.8717 37.0725 73.7241 37.2481L74.7477 37.1583Z" fill="#0000FF" stroke="#0000FF" stroke-width="0.2"/>
<mask id="path-3-outside-1_98_837" maskUnits="userSpaceOnUse" x="16" y="35" width="55" height="22" fill="black">
<rect fill="white" x="16" y="35" width="55" height="22"/>
<path d="M23.6069 36.447H26.8723V36.9805H26.6928C26.5732 36.9805 26.3983 37.0911 26.1682 37.3122C25.938 37.5333 25.7286 37.8505 25.5399 38.2639C25.3512 38.6772 25.1188 39.3502 24.8426 40.2826L22.5851 47.7087V52.6114C22.5851 53.813 22.6496 54.5628 22.7784 54.8609C22.9533 55.2646 23.2295 55.4665 23.6069 55.4665H23.9106V56H19.9341V55.4665H20.2655C20.6613 55.4665 20.942 55.2165 21.1077 54.7167C21.209 54.409 21.2596 53.7073 21.2596 52.6114V47.9827L18.6914 39.7924C18.3877 38.8311 18.1805 38.2302 18.0701 37.9899C17.9642 37.7496 17.741 37.4612 17.4004 37.1247C17.3084 37.0286 17.1749 36.9805 17 36.9805V36.447H21.0042V36.9805H20.7971C20.5807 36.9805 20.3805 37.0863 20.1964 37.2978C20.0169 37.5093 19.9272 37.8265 19.9272 38.2495C19.9272 38.5955 20.0676 39.2204 20.3483 40.124L22.3021 46.4254L24.1385 40.398C24.4146 39.4944 24.5527 38.8214 24.5527 38.3792C24.5527 38.1101 24.5182 37.8697 24.4491 37.6583C24.3847 37.4468 24.2903 37.2833 24.1661 37.168C24.0418 37.043 23.8554 36.9805 23.6069 36.9805V36.447Z"/>
<path d="M33.5552 49.4535H29.9307L29.2956 52.5393C29.1391 53.2987 29.0608 53.8659 29.0608 54.2408C29.0608 54.5388 29.1276 54.8032 29.261 55.0339C29.3991 55.255 29.6937 55.3992 30.1447 55.4665V56H27.1968V55.4665C27.588 55.3223 27.8412 55.1348 27.9562 54.9041C28.191 54.4427 28.451 53.5054 28.7364 52.0923L32.0294 36H32.2711L35.5296 52.2653C35.792 53.5727 36.029 54.4235 36.2407 54.8176C36.457 55.2021 36.7562 55.4184 37.1382 55.4665V56H33.4447V55.4665C33.8175 55.428 34.0683 55.2982 34.1972 55.0771C34.3307 54.856 34.3974 54.5869 34.3974 54.2696C34.3974 53.8467 34.3054 53.1786 34.1213 52.2653L33.5552 49.4535ZM33.3619 48.3864L31.774 40.4845L30.1447 48.3864H33.3619Z"/>
<path d="M40.2035 46.8435V52.5393C40.2035 53.7698 40.2679 54.534 40.3968 54.832C40.5717 55.255 40.8363 55.4665 41.1907 55.4665H41.5497V56H37.5386V55.4665H37.8907C38.2865 55.4665 38.5696 55.1973 38.7399 54.659C38.8319 54.361 38.8779 53.6544 38.8779 52.5393V39.9077C38.8779 38.6772 38.8158 37.913 38.6915 37.615C38.5121 37.192 38.2451 36.9805 37.8907 36.9805H37.5386V36.447H40.9698C41.8074 36.447 42.4679 36.6297 42.9512 36.995C43.4344 37.3506 43.8417 37.9563 44.1731 38.8118C44.5045 39.6674 44.6702 40.6816 44.6702 41.8544C44.6702 43.4501 44.417 44.7479 43.9108 45.7477C43.4091 46.7474 42.698 47.2473 41.7775 47.2473C41.552 47.2473 41.3081 47.2137 41.0457 47.1464C40.7834 47.0791 40.5026 46.9781 40.2035 46.8435ZM40.2035 46.0216C40.4474 46.1178 40.6637 46.1899 40.8524 46.2379C41.0411 46.286 41.2022 46.31 41.3357 46.31C41.8143 46.31 42.2263 45.9255 42.5714 45.1565C42.9212 44.3778 43.0961 43.3732 43.0961 42.1428C43.0961 41.2968 43.0133 40.5133 42.8476 39.7924C42.6819 39.0618 42.4472 38.5186 42.1434 38.1629C41.8397 37.7976 41.4945 37.615 41.1079 37.615C40.8731 37.615 40.5717 37.7063 40.2035 37.889V46.0216Z"/>
<path d="M48.0737 46.8435V52.5393C48.0737 53.7698 48.1382 54.534 48.267 54.832C48.4419 55.255 48.7066 55.4665 49.061 55.4665H49.42V56H45.4089V55.4665H45.761C46.1568 55.4665 46.4398 55.1973 46.6101 54.659C46.7022 54.361 46.7482 53.6544 46.7482 52.5393V39.9077C46.7482 38.6772 46.6861 37.913 46.5618 37.615C46.3823 37.192 46.1154 36.9805 45.761 36.9805H45.4089V36.447H48.84C49.6777 36.447 50.3382 36.6297 50.8214 36.995C51.3047 37.3506 51.712 37.9563 52.0434 38.8118C52.3748 39.6674 52.5404 40.6816 52.5404 41.8544C52.5404 43.4501 52.2873 44.7479 51.781 45.7477C51.2794 46.7474 50.5683 47.2473 49.6478 47.2473C49.4223 47.2473 49.1783 47.2137 48.916 47.1464C48.6536 47.0791 48.3729 46.9781 48.0737 46.8435ZM48.0737 46.0216C48.3177 46.1178 48.534 46.1899 48.7227 46.2379C48.9114 46.286 49.0725 46.31 49.2059 46.31C49.6846 46.31 50.0965 45.9255 50.4417 45.1565C50.7915 44.3778 50.9664 43.3732 50.9664 42.1428C50.9664 41.2968 50.8836 40.5133 50.7179 39.7924C50.5522 39.0618 50.3174 38.5186 50.0137 38.1629C49.7099 37.7976 49.3647 37.615 48.9781 37.615C48.7434 37.615 48.4419 37.7063 48.0737 37.889V46.0216Z"/>
<path d="M61.1494 50.5926L61.3772 50.6936L60.5764 56H53.3275V55.4665H53.6796C54.0754 55.4665 54.3584 55.1973 54.5287 54.659C54.6254 54.3514 54.6737 53.64 54.6737 52.5249V39.9077C54.6737 38.6869 54.6093 37.9226 54.4804 37.615C54.3009 37.192 54.034 36.9805 53.6796 36.9805H53.3275V36.447H57.5664V36.9805C57.0693 36.9709 56.7195 37.0671 56.517 37.2689C56.3191 37.4708 56.1833 37.7255 56.1097 38.0332C56.036 38.3408 55.9992 39.0762 55.9992 40.2394V52.5249C55.9992 53.3228 56.036 53.8707 56.1097 54.1687C56.1649 54.3706 56.2501 54.5196 56.3651 54.6157C56.4802 54.7118 56.8392 54.7599 57.4421 54.7599H58.1256C58.8436 54.7599 59.3475 54.6494 59.6375 54.4283C59.9274 54.2072 60.1921 53.8178 60.4314 53.2603C60.6707 52.6931 60.9101 51.8039 61.1494 50.5926Z"/>
<path d="M64.6427 37.5141V45.243H66.7C67.2339 45.243 67.5906 45.0747 67.7701 44.7383C68.0094 44.2961 68.1429 43.5174 68.1705 42.4023H68.4259V49.2084H68.1705C68.1061 48.2567 68.0416 47.6462 67.9772 47.3771C67.8944 47.0406 67.7586 46.7763 67.5699 46.584C67.3812 46.3917 67.0912 46.2956 66.7 46.2956H64.6427V52.7412C64.6427 53.6063 64.6611 54.1351 64.6979 54.3273C64.7347 54.51 64.7992 54.659 64.8912 54.7743C64.9833 54.8801 65.1582 54.9329 65.4159 54.9329H67.0038C67.5331 54.9329 67.9174 54.856 68.1567 54.7022C68.396 54.5484 68.6262 54.2456 68.8471 53.7938C69.1324 53.1978 69.4247 52.299 69.7238 51.0973H70L69.1923 56H61.9779V55.4665H62.3092C62.5302 55.4665 62.7396 55.3559 62.9375 55.1348C63.0848 54.981 63.1837 54.7503 63.2343 54.4427C63.2896 54.1351 63.3172 53.5054 63.3172 52.5537V39.85C63.3172 38.6099 63.2573 37.8457 63.1377 37.5573C62.972 37.1728 62.6958 36.9805 62.3092 36.9805H61.9779V36.447H69.1923L69.2958 40.7296H69.0266C68.9299 39.701 68.8218 38.9945 68.7021 38.6099C68.587 38.2254 68.4144 37.9322 68.1843 37.7304C68.0002 37.5862 67.6757 37.5141 67.2109 37.5141H64.6427Z"/>
</mask>
<path d="M23.6069 36.447H26.8723V36.9805H26.6928C26.5732 36.9805 26.3983 37.0911 26.1682 37.3122C25.938 37.5333 25.7286 37.8505 25.5399 38.2639C25.3512 38.6772 25.1188 39.3502 24.8426 40.2826L22.5851 47.7087V52.6114C22.5851 53.813 22.6496 54.5628 22.7784 54.8609C22.9533 55.2646 23.2295 55.4665 23.6069 55.4665H23.9106V56H19.9341V55.4665H20.2655C20.6613 55.4665 20.942 55.2165 21.1077 54.7167C21.209 54.409 21.2596 53.7073 21.2596 52.6114V47.9827L18.6914 39.7924C18.3877 38.8311 18.1805 38.2302 18.0701 37.9899C17.9642 37.7496 17.741 37.4612 17.4004 37.1247C17.3084 37.0286 17.1749 36.9805 17 36.9805V36.447H21.0042V36.9805H20.7971C20.5807 36.9805 20.3805 37.0863 20.1964 37.2978C20.0169 37.5093 19.9272 37.8265 19.9272 38.2495C19.9272 38.5955 20.0676 39.2204 20.3483 40.124L22.3021 46.4254L24.1385 40.398C24.4146 39.4944 24.5527 38.8214 24.5527 38.3792C24.5527 38.1101 24.5182 37.8697 24.4491 37.6583C24.3847 37.4468 24.2903 37.2833 24.1661 37.168C24.0418 37.043 23.8554 36.9805 23.6069 36.9805V36.447Z" fill="#0000FF"/>
<path d="M33.5552 49.4535H29.9307L29.2956 52.5393C29.1391 53.2987 29.0608 53.8659 29.0608 54.2408C29.0608 54.5388 29.1276 54.8032 29.261 55.0339C29.3991 55.255 29.6937 55.3992 30.1447 55.4665V56H27.1968V55.4665C27.588 55.3223 27.8412 55.1348 27.9562 54.9041C28.191 54.4427 28.451 53.5054 28.7364 52.0923L32.0294 36H32.2711L35.5296 52.2653C35.792 53.5727 36.029 54.4235 36.2407 54.8176C36.457 55.2021 36.7562 55.4184 37.1382 55.4665V56H33.4447V55.4665C33.8175 55.428 34.0683 55.2982 34.1972 55.0771C34.3307 54.856 34.3974 54.5869 34.3974 54.2696C34.3974 53.8467 34.3054 53.1786 34.1213 52.2653L33.5552 49.4535ZM33.3619 48.3864L31.774 40.4845L30.1447 48.3864H33.3619Z" fill="#0000FF"/>
<path d="M40.2035 46.8435V52.5393C40.2035 53.7698 40.2679 54.534 40.3968 54.832C40.5717 55.255 40.8363 55.4665 41.1907 55.4665H41.5497V56H37.5386V55.4665H37.8907C38.2865 55.4665 38.5696 55.1973 38.7399 54.659C38.8319 54.361 38.8779 53.6544 38.8779 52.5393V39.9077C38.8779 38.6772 38.8158 37.913 38.6915 37.615C38.5121 37.192 38.2451 36.9805 37.8907 36.9805H37.5386V36.447H40.9698C41.8074 36.447 42.4679 36.6297 42.9512 36.995C43.4344 37.3506 43.8417 37.9563 44.1731 38.8118C44.5045 39.6674 44.6702 40.6816 44.6702 41.8544C44.6702 43.4501 44.417 44.7479 43.9108 45.7477C43.4091 46.7474 42.698 47.2473 41.7775 47.2473C41.552 47.2473 41.3081 47.2137 41.0457 47.1464C40.7834 47.0791 40.5026 46.9781 40.2035 46.8435ZM40.2035 46.0216C40.4474 46.1178 40.6637 46.1899 40.8524 46.2379C41.0411 46.286 41.2022 46.31 41.3357 46.31C41.8143 46.31 42.2263 45.9255 42.5714 45.1565C42.9212 44.3778 43.0961 43.3732 43.0961 42.1428C43.0961 41.2968 43.0133 40.5133 42.8476 39.7924C42.6819 39.0618 42.4472 38.5186 42.1434 38.1629C41.8397 37.7976 41.4945 37.615 41.1079 37.615C40.8731 37.615 40.5717 37.7063 40.2035 37.889V46.0216Z" fill="#0000FF"/>
<path d="M48.0737 46.8435V52.5393C48.0737 53.7698 48.1382 54.534 48.267 54.832C48.4419 55.255 48.7066 55.4665 49.061 55.4665H49.42V56H45.4089V55.4665H45.761C46.1568 55.4665 46.4398 55.1973 46.6101 54.659C46.7022 54.361 46.7482 53.6544 46.7482 52.5393V39.9077C46.7482 38.6772 46.6861 37.913 46.5618 37.615C46.3823 37.192 46.1154 36.9805 45.761 36.9805H45.4089V36.447H48.84C49.6777 36.447 50.3382 36.6297 50.8214 36.995C51.3047 37.3506 51.712 37.9563 52.0434 38.8118C52.3748 39.6674 52.5404 40.6816 52.5404 41.8544C52.5404 43.4501 52.2873 44.7479 51.781 45.7477C51.2794 46.7474 50.5683 47.2473 49.6478 47.2473C49.4223 47.2473 49.1783 47.2137 48.916 47.1464C48.6536 47.0791 48.3729 46.9781 48.0737 46.8435ZM48.0737 46.0216C48.3177 46.1178 48.534 46.1899 48.7227 46.2379C48.9114 46.286 49.0725 46.31 49.2059 46.31C49.6846 46.31 50.0965 45.9255 50.4417 45.1565C50.7915 44.3778 50.9664 43.3732 50.9664 42.1428C50.9664 41.2968 50.8836 40.5133 50.7179 39.7924C50.5522 39.0618 50.3174 38.5186 50.0137 38.1629C49.7099 37.7976 49.3647 37.615 48.9781 37.615C48.7434 37.615 48.4419 37.7063 48.0737 37.889V46.0216Z" fill="#0000FF"/>
<path d="M61.1494 50.5926L61.3772 50.6936L60.5764 56H53.3275V55.4665H53.6796C54.0754 55.4665 54.3584 55.1973 54.5287 54.659C54.6254 54.3514 54.6737 53.64 54.6737 52.5249V39.9077C54.6737 38.6869 54.6093 37.9226 54.4804 37.615C54.3009 37.192 54.034 36.9805 53.6796 36.9805H53.3275V36.447H57.5664V36.9805C57.0693 36.9709 56.7195 37.0671 56.517 37.2689C56.3191 37.4708 56.1833 37.7255 56.1097 38.0332C56.036 38.3408 55.9992 39.0762 55.9992 40.2394V52.5249C55.9992 53.3228 56.036 53.8707 56.1097 54.1687C56.1649 54.3706 56.2501 54.5196 56.3651 54.6157C56.4802 54.7118 56.8392 54.7599 57.4421 54.7599H58.1256C58.8436 54.7599 59.3475 54.6494 59.6375 54.4283C59.9274 54.2072 60.1921 53.8178 60.4314 53.2603C60.6707 52.6931 60.9101 51.8039 61.1494 50.5926Z" fill="#0000FF"/>
<path d="M64.6427 37.5141V45.243H66.7C67.2339 45.243 67.5906 45.0747 67.7701 44.7383C68.0094 44.2961 68.1429 43.5174 68.1705 42.4023H68.4259V49.2084H68.1705C68.1061 48.2567 68.0416 47.6462 67.9772 47.3771C67.8944 47.0406 67.7586 46.7763 67.5699 46.584C67.3812 46.3917 67.0912 46.2956 66.7 46.2956H64.6427V52.7412C64.6427 53.6063 64.6611 54.1351 64.6979 54.3273C64.7347 54.51 64.7992 54.659 64.8912 54.7743C64.9833 54.8801 65.1582 54.9329 65.4159 54.9329H67.0038C67.5331 54.9329 67.9174 54.856 68.1567 54.7022C68.396 54.5484 68.6262 54.2456 68.8471 53.7938C69.1324 53.1978 69.4247 52.299 69.7238 51.0973H70L69.1923 56H61.9779V55.4665H62.3092C62.5302 55.4665 62.7396 55.3559 62.9375 55.1348C63.0848 54.981 63.1837 54.7503 63.2343 54.4427C63.2896 54.1351 63.3172 53.5054 63.3172 52.5537V39.85C63.3172 38.6099 63.2573 37.8457 63.1377 37.5573C62.972 37.1728 62.6958 36.9805 62.3092 36.9805H61.9779V36.447H69.1923L69.2958 40.7296H69.0266C68.9299 39.701 68.8218 38.9945 68.7021 38.6099C68.587 38.2254 68.4144 37.9322 68.1843 37.7304C68.0002 37.5862 67.6757 37.5141 67.2109 37.5141H64.6427Z" fill="#0000FF"/>
<path d="M23.6069 36.447H26.8723V36.9805H26.6928C26.5732 36.9805 26.3983 37.0911 26.1682 37.3122C25.938 37.5333 25.7286 37.8505 25.5399 38.2639C25.3512 38.6772 25.1188 39.3502 24.8426 40.2826L22.5851 47.7087V52.6114C22.5851 53.813 22.6496 54.5628 22.7784 54.8609C22.9533 55.2646 23.2295 55.4665 23.6069 55.4665H23.9106V56H19.9341V55.4665H20.2655C20.6613 55.4665 20.942 55.2165 21.1077 54.7167C21.209 54.409 21.2596 53.7073 21.2596 52.6114V47.9827L18.6914 39.7924C18.3877 38.8311 18.1805 38.2302 18.0701 37.9899C17.9642 37.7496 17.741 37.4612 17.4004 37.1247C17.3084 37.0286 17.1749 36.9805 17 36.9805V36.447H21.0042V36.9805H20.7971C20.5807 36.9805 20.3805 37.0863 20.1964 37.2978C20.0169 37.5093 19.9272 37.8265 19.9272 38.2495C19.9272 38.5955 20.0676 39.2204 20.3483 40.124L22.3021 46.4254L24.1385 40.398C24.4146 39.4944 24.5527 38.8214 24.5527 38.3792C24.5527 38.1101 24.5182 37.8697 24.4491 37.6583C24.3847 37.4468 24.2903 37.2833 24.1661 37.168C24.0418 37.043 23.8554 36.9805 23.6069 36.9805V36.447Z" stroke="#0000FF" stroke-width="1.6" mask="url(#path-3-outside-1_98_837)"/>
<path d="M33.5552 49.4535H29.9307L29.2956 52.5393C29.1391 53.2987 29.0608 53.8659 29.0608 54.2408C29.0608 54.5388 29.1276 54.8032 29.261 55.0339C29.3991 55.255 29.6937 55.3992 30.1447 55.4665V56H27.1968V55.4665C27.588 55.3223 27.8412 55.1348 27.9562 54.9041C28.191 54.4427 28.451 53.5054 28.7364 52.0923L32.0294 36H32.2711L35.5296 52.2653C35.792 53.5727 36.029 54.4235 36.2407 54.8176C36.457 55.2021 36.7562 55.4184 37.1382 55.4665V56H33.4447V55.4665C33.8175 55.428 34.0683 55.2982 34.1972 55.0771C34.3307 54.856 34.3974 54.5869 34.3974 54.2696C34.3974 53.8467 34.3054 53.1786 34.1213 52.2653L33.5552 49.4535ZM33.3619 48.3864L31.774 40.4845L30.1447 48.3864H33.3619Z" stroke="#0000FF" stroke-width="1.6" mask="url(#path-3-outside-1_98_837)"/>
<path d="M40.2035 46.8435V52.5393C40.2035 53.7698 40.2679 54.534 40.3968 54.832C40.5717 55.255 40.8363 55.4665 41.1907 55.4665H41.5497V56H37.5386V55.4665H37.8907C38.2865 55.4665 38.5696 55.1973 38.7399 54.659C38.8319 54.361 38.8779 53.6544 38.8779 52.5393V39.9077C38.8779 38.6772 38.8158 37.913 38.6915 37.615C38.5121 37.192 38.2451 36.9805 37.8907 36.9805H37.5386V36.447H40.9698C41.8074 36.447 42.4679 36.6297 42.9512 36.995C43.4344 37.3506 43.8417 37.9563 44.1731 38.8118C44.5045 39.6674 44.6702 40.6816 44.6702 41.8544C44.6702 43.4501 44.417 44.7479 43.9108 45.7477C43.4091 46.7474 42.698 47.2473 41.7775 47.2473C41.552 47.2473 41.3081 47.2137 41.0457 47.1464C40.7834 47.0791 40.5026 46.9781 40.2035 46.8435ZM40.2035 46.0216C40.4474 46.1178 40.6637 46.1899 40.8524 46.2379C41.0411 46.286 41.2022 46.31 41.3357 46.31C41.8143 46.31 42.2263 45.9255 42.5714 45.1565C42.9212 44.3778 43.0961 43.3732 43.0961 42.1428C43.0961 41.2968 43.0133 40.5133 42.8476 39.7924C42.6819 39.0618 42.4472 38.5186 42.1434 38.1629C41.8397 37.7976 41.4945 37.615 41.1079 37.615C40.8731 37.615 40.5717 37.7063 40.2035 37.889V46.0216Z" stroke="#0000FF" stroke-width="1.6" mask="url(#path-3-outside-1_98_837)"/>
<path d="M48.0737 46.8435V52.5393C48.0737 53.7698 48.1382 54.534 48.267 54.832C48.4419 55.255 48.7066 55.4665 49.061 55.4665H49.42V56H45.4089V55.4665H45.761C46.1568 55.4665 46.4398 55.1973 46.6101 54.659C46.7022 54.361 46.7482 53.6544 46.7482 52.5393V39.9077C46.7482 38.6772 46.6861 37.913 46.5618 37.615C46.3823 37.192 46.1154 36.9805 45.761 36.9805H45.4089V36.447H48.84C49.6777 36.447 50.3382 36.6297 50.8214 36.995C51.3047 37.3506 51.712 37.9563 52.0434 38.8118C52.3748 39.6674 52.5404 40.6816 52.5404 41.8544C52.5404 43.4501 52.2873 44.7479 51.781 45.7477C51.2794 46.7474 50.5683 47.2473 49.6478 47.2473C49.4223 47.2473 49.1783 47.2137 48.916 47.1464C48.6536 47.0791 48.3729 46.9781 48.0737 46.8435ZM48.0737 46.0216C48.3177 46.1178 48.534 46.1899 48.7227 46.2379C48.9114 46.286 49.0725 46.31 49.2059 46.31C49.6846 46.31 50.0965 45.9255 50.4417 45.1565C50.7915 44.3778 50.9664 43.3732 50.9664 42.1428C50.9664 41.2968 50.8836 40.5133 50.7179 39.7924C50.5522 39.0618 50.3174 38.5186 50.0137 38.1629C49.7099 37.7976 49.3647 37.615 48.9781 37.615C48.7434 37.615 48.4419 37.7063 48.0737 37.889V46.0216Z" stroke="#0000FF" stroke-width="1.6" mask="url(#path-3-outside-1_98_837)"/>
<path d="M61.1494 50.5926L61.3772 50.6936L60.5764 56H53.3275V55.4665H53.6796C54.0754 55.4665 54.3584 55.1973 54.5287 54.659C54.6254 54.3514 54.6737 53.64 54.6737 52.5249V39.9077C54.6737 38.6869 54.6093 37.9226 54.4804 37.615C54.3009 37.192 54.034 36.9805 53.6796 36.9805H53.3275V36.447H57.5664V36.9805C57.0693 36.9709 56.7195 37.0671 56.517 37.2689C56.3191 37.4708 56.1833 37.7255 56.1097 38.0332C56.036 38.3408 55.9992 39.0762 55.9992 40.2394V52.5249C55.9992 53.3228 56.036 53.8707 56.1097 54.1687C56.1649 54.3706 56.2501 54.5196 56.3651 54.6157C56.4802 54.7118 56.8392 54.7599 57.4421 54.7599H58.1256C58.8436 54.7599 59.3475 54.6494 59.6375 54.4283C59.9274 54.2072 60.1921 53.8178 60.4314 53.2603C60.6707 52.6931 60.9101 51.8039 61.1494 50.5926Z" stroke="#0000FF" stroke-width="1.6" mask="url(#path-3-outside-1_98_837)"/>
<path d="M64.6427 37.5141V45.243H66.7C67.2339 45.243 67.5906 45.0747 67.7701 44.7383C68.0094 44.2961 68.1429 43.5174 68.1705 42.4023H68.4259V49.2084H68.1705C68.1061 48.2567 68.0416 47.6462 67.9772 47.3771C67.8944 47.0406 67.7586 46.7763 67.5699 46.584C67.3812 46.3917 67.0912 46.2956 66.7 46.2956H64.6427V52.7412C64.6427 53.6063 64.6611 54.1351 64.6979 54.3273C64.7347 54.51 64.7992 54.659 64.8912 54.7743C64.9833 54.8801 65.1582 54.9329 65.4159 54.9329H67.0038C67.5331 54.9329 67.9174 54.856 68.1567 54.7022C68.396 54.5484 68.6262 54.2456 68.8471 53.7938C69.1324 53.1978 69.4247 52.299 69.7238 51.0973H70L69.1923 56H61.9779V55.4665H62.3092C62.5302 55.4665 62.7396 55.3559 62.9375 55.1348C63.0848 54.981 63.1837 54.7503 63.2343 54.4427C63.2896 54.1351 63.3172 53.5054 63.3172 52.5537V39.85C63.3172 38.6099 63.2573 37.8457 63.1377 37.5573C62.972 37.1728 62.6958 36.9805 62.3092 36.9805H61.9779V36.447H69.1923L69.2958 40.7296H69.0266C68.9299 39.701 68.8218 38.9945 68.7021 38.6099C68.587 38.2254 68.4144 37.9322 68.1843 37.7304C68.0002 37.5862 67.6757 37.5141 67.2109 37.5141H64.6427Z" stroke="#0000FF" stroke-width="1.6" mask="url(#path-3-outside-1_98_837)"/>
<mask id="path-4-outside-2_98_837" maskUnits="userSpaceOnUse" x="31" y="58.4445" width="25" height="9" fill="black">
<rect fill="white" x="31" y="58.4445" width="25" height="9"/>
<path d="M36.3325 60.8545L35.9856 62.6H35.7753C35.7563 62.0921 35.6483 61.7225 35.4512 61.4913C35.2541 61.2601 35.0096 61.1445 34.7177 61.1445C34.4827 61.1445 34.2951 61.2089 34.1549 61.3378C34.0184 61.4667 33.9502 61.6221 33.9502 61.804C33.9502 61.9291 33.9767 62.0485 34.0298 62.1622C34.0866 62.2759 34.2079 62.4351 34.3937 62.6398C34.8864 63.178 35.2048 63.5836 35.3488 63.8565C35.4929 64.1294 35.5649 64.3872 35.5649 64.6298C35.5649 65.024 35.4 65.3746 35.0702 65.6816C34.7443 65.9848 34.3311 66.1365 33.8308 66.1365C33.5579 66.1365 33.2433 66.072 32.887 65.9432C32.7619 65.8977 32.6652 65.8749 32.597 65.8749C32.4264 65.8749 32.2975 65.9621 32.2104 66.1365H32L32.3468 64.2943H32.5572C32.5799 64.8705 32.6993 65.2779 32.9154 65.5167C33.1314 65.7555 33.4271 65.8749 33.8024 65.8749C34.0904 65.8749 34.3178 65.7953 34.4846 65.6361C34.6552 65.4731 34.7405 65.2741 34.7405 65.0391C34.7405 64.8875 34.7102 64.7473 34.6495 64.6184C34.5434 64.391 34.3197 64.0764 33.9786 63.6746C33.6413 63.2728 33.4233 62.9715 33.3248 62.7706C33.23 62.5697 33.1826 62.3688 33.1826 62.1679C33.1826 61.8002 33.3153 61.4894 33.5806 61.2354C33.8497 60.9815 34.1947 60.8545 34.6154 60.8545C34.7367 60.8545 34.8466 60.864 34.9452 60.8829C34.9982 60.8943 35.1214 60.9379 35.3147 61.0137C35.5118 61.0857 35.6426 61.1217 35.707 61.1217C35.87 61.1217 36.0065 61.0326 36.1164 60.8545H36.3325Z"/>
<path d="M39.6699 59.4445L39.2265 60.991H40.1191L40.0224 61.3491H39.1355L38.1576 64.7037C38.0514 65.0638 37.9984 65.2969 37.9984 65.403C37.9984 65.4675 38.0135 65.5167 38.0438 65.5508C38.0742 65.585 38.1102 65.602 38.1519 65.602C38.2466 65.602 38.3717 65.5357 38.5271 65.403C38.6181 65.3272 38.8209 65.0941 39.1355 64.7037L39.3231 64.8458C38.9744 65.3537 38.6446 65.7119 38.3338 65.9204C38.1215 66.0644 37.9074 66.1365 37.6913 66.1365C37.5246 66.1365 37.3881 66.0853 37.282 65.983C37.1758 65.8768 37.1228 65.7423 37.1228 65.5793C37.1228 65.3746 37.1834 65.0619 37.3047 64.6411L38.2542 61.3491H37.3957L37.4525 61.1274C37.8695 61.0137 38.2163 60.845 38.493 60.6214C38.7697 60.394 39.0786 60.0017 39.4198 59.4445H39.6699Z"/>
<path d="M45.2703 62.6341C45.2703 63.2027 45.1187 63.7655 44.8154 64.3227C44.516 64.8799 44.0972 65.3215 43.5589 65.6475C43.0207 65.9735 42.4976 66.1365 41.9897 66.1365C41.4704 66.1365 41.0459 65.9716 40.7161 65.6418C40.3901 65.3083 40.2271 64.878 40.2271 64.3512C40.2271 63.794 40.3863 63.2349 40.7047 62.6739C41.0269 62.1129 41.4552 61.6694 41.9897 61.3435C42.5279 61.0175 43.0472 60.8545 43.5475 60.8545C44.0479 60.8545 44.4591 61.0194 44.7813 61.3491C45.1073 61.6789 45.2703 62.1072 45.2703 62.6341ZM44.3265 62.2418C44.3265 61.8893 44.2393 61.6202 44.0649 61.4344C43.8944 61.2449 43.6726 61.1502 43.3997 61.1502C42.8425 61.1502 42.3289 61.55 41.8589 62.3498C41.3927 63.1458 41.1596 63.938 41.1596 64.7264C41.1596 65.0865 41.2505 65.3651 41.4325 65.5622C41.6144 65.7555 41.8437 65.8522 42.1205 65.8522C42.6549 65.8522 43.1552 65.4561 43.6215 64.6639C44.0915 63.8679 44.3265 63.0605 44.3265 62.2418Z"/>
<path d="M46.3165 61.1729L48.278 60.8545L47.4593 63.6177C48.1226 62.4844 48.7253 61.6922 49.2673 61.2411C49.5743 60.9834 49.8245 60.8545 50.0178 60.8545C50.1429 60.8545 50.2415 60.8924 50.3135 60.9682C50.3855 61.0402 50.4215 61.1464 50.4215 61.2866C50.4215 61.5368 50.3571 61.7756 50.2282 62.003C50.1372 62.1736 50.0064 62.2589 49.8359 62.2589C49.7487 62.2589 49.6729 62.2304 49.6084 62.1736C49.5478 62.1167 49.5099 62.0295 49.4947 61.912C49.4872 61.84 49.4701 61.7926 49.4436 61.7699C49.4132 61.7396 49.3772 61.7244 49.3355 61.7244C49.2711 61.7244 49.2105 61.7396 49.1536 61.7699C49.055 61.823 48.9053 61.9708 48.7044 62.2134C48.3898 62.5848 48.0487 63.0662 47.681 63.6575C47.5218 63.9077 47.3854 64.1901 47.2716 64.5047C47.1124 64.9368 47.0215 65.1964 46.9987 65.2836L46.8168 66H45.9469L46.9987 62.4692C47.12 62.0599 47.1807 61.768 47.1807 61.5936C47.1807 61.5254 47.1522 61.4685 47.0954 61.4231C47.0196 61.3624 46.9191 61.3321 46.7941 61.3321C46.7145 61.3321 46.5685 61.3491 46.3563 61.3833L46.3165 61.1729Z"/>
<path d="M51.2004 63.8565C51.1739 64.046 51.1606 64.2033 51.1606 64.3284C51.1606 64.6658 51.28 64.9538 51.5188 65.1926C51.7576 65.4277 52.0476 65.5452 52.3887 65.5452C52.6616 65.5452 52.9232 65.4902 53.1733 65.3803C53.4273 65.2666 53.8026 65.0183 54.2991 64.6355L54.4185 64.8003C53.5202 65.6911 52.6635 66.1365 51.8486 66.1365C51.2952 66.1365 50.8782 65.9621 50.5978 65.6134C50.3173 65.2647 50.177 64.8799 50.177 64.4592C50.177 63.8944 50.3514 63.3164 50.7001 62.7251C51.0488 62.1338 51.4866 61.6751 52.0135 61.3491C52.5403 61.0194 53.0824 60.8545 53.6396 60.8545C54.0414 60.8545 54.3389 60.936 54.5322 61.099C54.7255 61.262 54.8222 61.4553 54.8222 61.6789C54.8222 61.9935 54.6971 62.2949 54.4469 62.5829C54.1172 62.9582 53.632 63.2614 52.9914 63.4926C52.5669 63.648 51.9699 63.7693 51.2004 63.8565ZM51.2402 63.5779C51.8012 63.5135 52.258 63.4036 52.6105 63.2482C53.0767 63.0397 53.4254 62.7914 53.6566 62.5033C53.8916 62.2115 54.0091 61.9348 54.0091 61.6732C54.0091 61.514 53.958 61.3852 53.8556 61.2866C53.7571 61.1881 53.6149 61.1388 53.4292 61.1388C53.0426 61.1388 52.6313 61.3454 52.1954 61.7585C51.7633 62.1679 51.4449 62.7744 51.2402 63.5779Z"/>
</mask>
<path d="M36.3325 60.8545L35.9856 62.6H35.7753C35.7563 62.0921 35.6483 61.7225 35.4512 61.4913C35.2541 61.2601 35.0096 61.1445 34.7177 61.1445C34.4827 61.1445 34.2951 61.2089 34.1549 61.3378C34.0184 61.4667 33.9502 61.6221 33.9502 61.804C33.9502 61.9291 33.9767 62.0485 34.0298 62.1622C34.0866 62.2759 34.2079 62.4351 34.3937 62.6398C34.8864 63.178 35.2048 63.5836 35.3488 63.8565C35.4929 64.1294 35.5649 64.3872 35.5649 64.6298C35.5649 65.024 35.4 65.3746 35.0702 65.6816C34.7443 65.9848 34.3311 66.1365 33.8308 66.1365C33.5579 66.1365 33.2433 66.072 32.887 65.9432C32.7619 65.8977 32.6652 65.8749 32.597 65.8749C32.4264 65.8749 32.2975 65.9621 32.2104 66.1365H32L32.3468 64.2943H32.5572C32.5799 64.8705 32.6993 65.2779 32.9154 65.5167C33.1314 65.7555 33.4271 65.8749 33.8024 65.8749C34.0904 65.8749 34.3178 65.7953 34.4846 65.6361C34.6552 65.4731 34.7405 65.2741 34.7405 65.0391C34.7405 64.8875 34.7102 64.7473 34.6495 64.6184C34.5434 64.391 34.3197 64.0764 33.9786 63.6746C33.6413 63.2728 33.4233 62.9715 33.3248 62.7706C33.23 62.5697 33.1826 62.3688 33.1826 62.1679C33.1826 61.8002 33.3153 61.4894 33.5806 61.2354C33.8497 60.9815 34.1947 60.8545 34.6154 60.8545C34.7367 60.8545 34.8466 60.864 34.9452 60.8829C34.9982 60.8943 35.1214 60.9379 35.3147 61.0137C35.5118 61.0857 35.6426 61.1217 35.707 61.1217C35.87 61.1217 36.0065 61.0326 36.1164 60.8545H36.3325Z" fill="#0000FF"/>
<path d="M39.6699 59.4445L39.2265 60.991H40.1191L40.0224 61.3491H39.1355L38.1576 64.7037C38.0514 65.0638 37.9984 65.2969 37.9984 65.403C37.9984 65.4675 38.0135 65.5167 38.0438 65.5508C38.0742 65.585 38.1102 65.602 38.1519 65.602C38.2466 65.602 38.3717 65.5357 38.5271 65.403C38.6181 65.3272 38.8209 65.0941 39.1355 64.7037L39.3231 64.8458C38.9744 65.3537 38.6446 65.7119 38.3338 65.9204C38.1215 66.0644 37.9074 66.1365 37.6913 66.1365C37.5246 66.1365 37.3881 66.0853 37.282 65.983C37.1758 65.8768 37.1228 65.7423 37.1228 65.5793C37.1228 65.3746 37.1834 65.0619 37.3047 64.6411L38.2542 61.3491H37.3957L37.4525 61.1274C37.8695 61.0137 38.2163 60.845 38.493 60.6214C38.7697 60.394 39.0786 60.0017 39.4198 59.4445H39.6699Z" fill="#0000FF"/>
<path d="M45.2703 62.6341C45.2703 63.2027 45.1187 63.7655 44.8154 64.3227C44.516 64.8799 44.0972 65.3215 43.5589 65.6475C43.0207 65.9735 42.4976 66.1365 41.9897 66.1365C41.4704 66.1365 41.0459 65.9716 40.7161 65.6418C40.3901 65.3083 40.2271 64.878 40.2271 64.3512C40.2271 63.794 40.3863 63.2349 40.7047 62.6739C41.0269 62.1129 41.4552 61.6694 41.9897 61.3435C42.5279 61.0175 43.0472 60.8545 43.5475 60.8545C44.0479 60.8545 44.4591 61.0194 44.7813 61.3491C45.1073 61.6789 45.2703 62.1072 45.2703 62.6341ZM44.3265 62.2418C44.3265 61.8893 44.2393 61.6202 44.0649 61.4344C43.8944 61.2449 43.6726 61.1502 43.3997 61.1502C42.8425 61.1502 42.3289 61.55 41.8589 62.3498C41.3927 63.1458 41.1596 63.938 41.1596 64.7264C41.1596 65.0865 41.2505 65.3651 41.4325 65.5622C41.6144 65.7555 41.8437 65.8522 42.1205 65.8522C42.6549 65.8522 43.1552 65.4561 43.6215 64.6639C44.0915 63.8679 44.3265 63.0605 44.3265 62.2418Z" fill="#0000FF"/>
<path d="M46.3165 61.1729L48.278 60.8545L47.4593 63.6177C48.1226 62.4844 48.7253 61.6922 49.2673 61.2411C49.5743 60.9834 49.8245 60.8545 50.0178 60.8545C50.1429 60.8545 50.2415 60.8924 50.3135 60.9682C50.3855 61.0402 50.4215 61.1464 50.4215 61.2866C50.4215 61.5368 50.3571 61.7756 50.2282 62.003C50.1372 62.1736 50.0064 62.2589 49.8359 62.2589C49.7487 62.2589 49.6729 62.2304 49.6084 62.1736C49.5478 62.1167 49.5099 62.0295 49.4947 61.912C49.4872 61.84 49.4701 61.7926 49.4436 61.7699C49.4132 61.7396 49.3772 61.7244 49.3355 61.7244C49.2711 61.7244 49.2105 61.7396 49.1536 61.7699C49.055 61.823 48.9053 61.9708 48.7044 62.2134C48.3898 62.5848 48.0487 63.0662 47.681 63.6575C47.5218 63.9077 47.3854 64.1901 47.2716 64.5047C47.1124 64.9368 47.0215 65.1964 46.9987 65.2836L46.8168 66H45.9469L46.9987 62.4692C47.12 62.0599 47.1807 61.768 47.1807 61.5936C47.1807 61.5254 47.1522 61.4685 47.0954 61.4231C47.0196 61.3624 46.9191 61.3321 46.7941 61.3321C46.7145 61.3321 46.5685 61.3491 46.3563 61.3833L46.3165 61.1729Z" fill="#0000FF"/>
<path d="M51.2004 63.8565C51.1739 64.046 51.1606 64.2033 51.1606 64.3284C51.1606 64.6658 51.28 64.9538 51.5188 65.1926C51.7576 65.4277 52.0476 65.5452 52.3887 65.5452C52.6616 65.5452 52.9232 65.4902 53.1733 65.3803C53.4273 65.2666 53.8026 65.0183 54.2991 64.6355L54.4185 64.8003C53.5202 65.6911 52.6635 66.1365 51.8486 66.1365C51.2952 66.1365 50.8782 65.9621 50.5978 65.6134C50.3173 65.2647 50.177 64.8799 50.177 64.4592C50.177 63.8944 50.3514 63.3164 50.7001 62.7251C51.0488 62.1338 51.4866 61.6751 52.0135 61.3491C52.5403 61.0194 53.0824 60.8545 53.6396 60.8545C54.0414 60.8545 54.3389 60.936 54.5322 61.099C54.7255 61.262 54.8222 61.4553 54.8222 61.6789C54.8222 61.9935 54.6971 62.2949 54.4469 62.5829C54.1172 62.9582 53.632 63.2614 52.9914 63.4926C52.5669 63.648 51.9699 63.7693 51.2004 63.8565ZM51.2402 63.5779C51.8012 63.5135 52.258 63.4036 52.6105 63.2482C53.0767 63.0397 53.4254 62.7914 53.6566 62.5033C53.8916 62.2115 54.0091 61.9348 54.0091 61.6732C54.0091 61.514 53.958 61.3852 53.8556 61.2866C53.7571 61.1881 53.6149 61.1388 53.4292 61.1388C53.0426 61.1388 52.6313 61.3454 52.1954 61.7585C51.7633 62.1679 51.4449 62.7744 51.2402 63.5779Z" fill="#0000FF"/>
<path d="M36.3325 60.8545L35.9856 62.6H35.7753C35.7563 62.0921 35.6483 61.7225 35.4512 61.4913C35.2541 61.2601 35.0096 61.1445 34.7177 61.1445C34.4827 61.1445 34.2951 61.2089 34.1549 61.3378C34.0184 61.4667 33.9502 61.6221 33.9502 61.804C33.9502 61.9291 33.9767 62.0485 34.0298 62.1622C34.0866 62.2759 34.2079 62.4351 34.3937 62.6398C34.8864 63.178 35.2048 63.5836 35.3488 63.8565C35.4929 64.1294 35.5649 64.3872 35.5649 64.6298C35.5649 65.024 35.4 65.3746 35.0702 65.6816C34.7443 65.9848 34.3311 66.1365 33.8308 66.1365C33.5579 66.1365 33.2433 66.072 32.887 65.9432C32.7619 65.8977 32.6652 65.8749 32.597 65.8749C32.4264 65.8749 32.2975 65.9621 32.2104 66.1365H32L32.3468 64.2943H32.5572C32.5799 64.8705 32.6993 65.2779 32.9154 65.5167C33.1314 65.7555 33.4271 65.8749 33.8024 65.8749C34.0904 65.8749 34.3178 65.7953 34.4846 65.6361C34.6552 65.4731 34.7405 65.2741 34.7405 65.0391C34.7405 64.8875 34.7102 64.7473 34.6495 64.6184C34.5434 64.391 34.3197 64.0764 33.9786 63.6746C33.6413 63.2728 33.4233 62.9715 33.3248 62.7706C33.23 62.5697 33.1826 62.3688 33.1826 62.1679C33.1826 61.8002 33.3153 61.4894 33.5806 61.2354C33.8497 60.9815 34.1947 60.8545 34.6154 60.8545C34.7367 60.8545 34.8466 60.864 34.9452 60.8829C34.9982 60.8943 35.1214 60.9379 35.3147 61.0137C35.5118 61.0857 35.6426 61.1217 35.707 61.1217C35.87 61.1217 36.0065 61.0326 36.1164 60.8545H36.3325Z" stroke="#0000FF" mask="url(#path-4-outside-2_98_837)"/>
<path d="M39.6699 59.4445L39.2265 60.991H40.1191L40.0224 61.3491H39.1355L38.1576 64.7037C38.0514 65.0638 37.9984 65.2969 37.9984 65.403C37.9984 65.4675 38.0135 65.5167 38.0438 65.5508C38.0742 65.585 38.1102 65.602 38.1519 65.602C38.2466 65.602 38.3717 65.5357 38.5271 65.403C38.6181 65.3272 38.8209 65.0941 39.1355 64.7037L39.3231 64.8458C38.9744 65.3537 38.6446 65.7119 38.3338 65.9204C38.1215 66.0644 37.9074 66.1365 37.6913 66.1365C37.5246 66.1365 37.3881 66.0853 37.282 65.983C37.1758 65.8768 37.1228 65.7423 37.1228 65.5793C37.1228 65.3746 37.1834 65.0619 37.3047 64.6411L38.2542 61.3491H37.3957L37.4525 61.1274C37.8695 61.0137 38.2163 60.845 38.493 60.6214C38.7697 60.394 39.0786 60.0017 39.4198 59.4445H39.6699Z" stroke="#0000FF" mask="url(#path-4-outside-2_98_837)"/>
<path d="M45.2703 62.6341C45.2703 63.2027 45.1187 63.7655 44.8154 64.3227C44.516 64.8799 44.0972 65.3215 43.5589 65.6475C43.0207 65.9735 42.4976 66.1365 41.9897 66.1365C41.4704 66.1365 41.0459 65.9716 40.7161 65.6418C40.3901 65.3083 40.2271 64.878 40.2271 64.3512C40.2271 63.794 40.3863 63.2349 40.7047 62.6739C41.0269 62.1129 41.4552 61.6694 41.9897 61.3435C42.5279 61.0175 43.0472 60.8545 43.5475 60.8545C44.0479 60.8545 44.4591 61.0194 44.7813 61.3491C45.1073 61.6789 45.2703 62.1072 45.2703 62.6341ZM44.3265 62.2418C44.3265 61.8893 44.2393 61.6202 44.0649 61.4344C43.8944 61.2449 43.6726 61.1502 43.3997 61.1502C42.8425 61.1502 42.3289 61.55 41.8589 62.3498C41.3927 63.1458 41.1596 63.938 41.1596 64.7264C41.1596 65.0865 41.2505 65.3651 41.4325 65.5622C41.6144 65.7555 41.8437 65.8522 42.1205 65.8522C42.6549 65.8522 43.1552 65.4561 43.6215 64.6639C44.0915 63.8679 44.3265 63.0605 44.3265 62.2418Z" stroke="#0000FF" mask="url(#path-4-outside-2_98_837)"/>
<path d="M46.3165 61.1729L48.278 60.8545L47.4593 63.6177C48.1226 62.4844 48.7253 61.6922 49.2673 61.2411C49.5743 60.9834 49.8245 60.8545 50.0178 60.8545C50.1429 60.8545 50.2415 60.8924 50.3135 60.9682C50.3855 61.0402 50.4215 61.1464 50.4215 61.2866C50.4215 61.5368 50.3571 61.7756 50.2282 62.003C50.1372 62.1736 50.0064 62.2589 49.8359 62.2589C49.7487 62.2589 49.6729 62.2304 49.6084 62.1736C49.5478 62.1167 49.5099 62.0295 49.4947 61.912C49.4872 61.84 49.4701 61.7926 49.4436 61.7699C49.4132 61.7396 49.3772 61.7244 49.3355 61.7244C49.2711 61.7244 49.2105 61.7396 49.1536 61.7699C49.055 61.823 48.9053 61.9708 48.7044 62.2134C48.3898 62.5848 48.0487 63.0662 47.681 63.6575C47.5218 63.9077 47.3854 64.1901 47.2716 64.5047C47.1124 64.9368 47.0215 65.1964 46.9987 65.2836L46.8168 66H45.9469L46.9987 62.4692C47.12 62.0599 47.1807 61.768 47.1807 61.5936C47.1807 61.5254 47.1522 61.4685 47.0954 61.4231C47.0196 61.3624 46.9191 61.3321 46.7941 61.3321C46.7145 61.3321 46.5685 61.3491 46.3563 61.3833L46.3165 61.1729Z" stroke="#0000FF" mask="url(#path-4-outside-2_98_837)"/>
<path d="M51.2004 63.8565C51.1739 64.046 51.1606 64.2033 51.1606 64.3284C51.1606 64.6658 51.28 64.9538 51.5188 65.1926C51.7576 65.4277 52.0476 65.5452 52.3887 65.5452C52.6616 65.5452 52.9232 65.4902 53.1733 65.3803C53.4273 65.2666 53.8026 65.0183 54.2991 64.6355L54.4185 64.8003C53.5202 65.6911 52.6635 66.1365 51.8486 66.1365C51.2952 66.1365 50.8782 65.9621 50.5978 65.6134C50.3173 65.2647 50.177 64.8799 50.177 64.4592C50.177 63.8944 50.3514 63.3164 50.7001 62.7251C51.0488 62.1338 51.4866 61.6751 52.0135 61.3491C52.5403 61.0194 53.0824 60.8545 53.6396 60.8545C54.0414 60.8545 54.3389 60.936 54.5322 61.099C54.7255 61.262 54.8222 61.4553 54.8222 61.6789C54.8222 61.9935 54.6971 62.2949 54.4469 62.5829C54.1172 62.9582 53.632 63.2614 52.9914 63.4926C52.5669 63.648 51.9699 63.7693 51.2004 63.8565ZM51.2402 63.5779C51.8012 63.5135 52.258 63.4036 52.6105 63.2482C53.0767 63.0397 53.4254 62.7914 53.6566 62.5033C53.8916 62.2115 54.0091 61.9348 54.0091 61.6732C54.0091 61.514 53.958 61.3852 53.8556 61.2866C53.7571 61.1881 53.6149 61.1388 53.4292 61.1388C53.0426 61.1388 52.6313 61.3454 52.1954 61.7585C51.7633 62.1679 51.4449 62.7744 51.2402 63.5779Z" stroke="#0000FF" mask="url(#path-4-outside-2_98_837)"/>
<path d="M40.7748 21C41.4533 21 42.1318 21 42.8104 21C42.8241 21.009 42.8375 21.0251 42.8514 21.0255C42.8975 21.027 42.9349 21.0446 42.9773 21.062C43.0504 21.092 43.134 21.0951 43.1911 21.1618C43.1972 21.1689 43.2178 21.1624 43.2313 21.1645C43.3358 21.1809 43.448 21.1717 43.5302 21.2613C43.5423 21.2745 43.5731 21.2753 43.5947 21.2739C43.6683 21.2692 43.7268 21.2969 43.778 21.3474C43.7935 21.3626 43.8137 21.3794 43.8339 21.3824C43.9052 21.3932 43.9314 21.4472 43.9723 21.496C44.0063 21.5367 44.0832 21.5361 44.1208 21.5883C44.1258 21.5952 44.1255 21.606 44.1306 21.6127C44.1741 21.6691 44.2392 21.707 44.2677 21.7776C44.2727 21.7901 44.3079 21.7965 44.3288 21.7958C44.394 21.7937 44.4359 21.8121 44.4346 21.887C44.4343 21.9019 44.4459 21.9195 44.4569 21.9314C44.516 21.9954 44.57 22.0669 44.6386 22.1187C44.7151 22.1764 44.7338 22.2524 44.741 22.3331C44.7588 22.3425 44.7701 22.3505 44.7827 22.3548C44.8528 22.3785 44.8855 22.4227 44.8755 22.4999C44.8727 22.5209 44.8933 22.5451 44.904 22.5675C44.934 22.6303 44.9493 22.7008 45.0058 22.7498C45.0141 22.757 45.005 22.7838 45.0045 22.8015C45.004 22.8171 44.9976 22.8405 45.0052 22.8468C45.0482 22.8823 45.0361 22.9294 45.0387 22.974C45.0402 23.0008 45.0351 23.0388 45.0503 23.052C45.1048 23.0997 45.0908 23.1596 45.0938 23.2176C45.0947 23.2351 45.0954 23.2637 45.1048 23.2678C45.1618 23.2928 45.1458 23.3412 45.1493 23.3847C45.1582 23.4993 45.1165 23.6217 45.2019 23.7252C45.2088 23.7336 45.2015 23.7524 45.2043 23.7656C45.213 23.8049 45.2106 23.8601 45.2356 23.8795C45.2944 23.925 45.2787 23.9909 45.3051 24.041C45.3319 24.0549 45.361 24.0725 45.366 24.0954C45.3732 24.1278 45.3944 24.1469 45.4073 24.1712C45.4375 24.2282 45.4887 24.2349 45.535 24.26C45.5801 24.2845 45.6137 24.3299 45.6584 24.3555C45.7073 24.3834 45.7402 24.4312 45.8008 24.4467C45.8812 24.4673 45.9747 24.4481 46.0407 24.5172C46.1311 24.4985 46.1926 24.5991 46.2842 24.5759C46.3314 24.6604 46.4122 24.6201 46.4794 24.6265C46.5336 24.6316 46.5888 24.6275 46.6458 24.6275C46.6565 24.6554 46.6658 24.6796 46.6753 24.7044C46.6903 24.7063 46.7035 24.7084 46.7168 24.7097C46.8687 24.7242 46.9363 24.7958 46.9368 24.9431C46.937 24.9975 46.9368 25.052 46.9368 25.1071C46.8901 25.1234 46.8567 25.1378 46.8441 25.1918C46.832 25.2435 46.8242 25.3119 46.7491 25.3269C46.7384 25.329 46.7287 25.3449 46.7218 25.3564C46.68 25.4254 46.6247 25.4697 46.5347 25.4522C46.5021 25.5388 46.4651 25.617 46.3591 25.6293C46.3591 25.6921 46.3608 25.7512 46.3588 25.8102C46.3551 25.9163 46.3948 26.0157 46.4752 26.0687C46.5728 26.133 46.589 26.2089 46.5796 26.309C46.5753 26.3544 46.5788 26.4004 46.5788 26.458C46.4963 26.4661 46.4945 26.5339 46.4931 26.5857C46.3968 26.6284 46.3121 26.666 46.2275 26.7036C46.1531 26.8358 46.0177 26.8994 45.9075 26.9918C45.8613 27.0305 45.8001 27.0661 45.8073 27.145C45.8125 27.2011 45.7445 27.1693 45.7373 27.1857C45.6943 27.3225 45.7847 27.395 45.8258 27.4854C45.9474 27.4854 46.062 27.4866 46.1765 27.4851C46.29 27.4835 46.4017 27.4964 46.5145 27.508C46.5966 27.5164 46.6273 27.5783 46.6516 27.6203C46.6782 27.6664 46.6674 27.7481 46.6459 27.8039C46.6231 27.8632 46.5678 27.9098 46.5283 27.9629C46.5153 27.9804 46.4966 28.0025 46.4985 28.0207C46.5092 28.1289 46.4507 28.2519 46.5642 28.34C46.5753 28.3487 46.5758 28.373 46.5784 28.3905C46.5883 28.4569 46.5961 28.5237 46.6067 28.5901C46.6107 28.6153 46.6128 28.6536 46.6284 28.6617C46.6679 28.6823 46.6596 28.7132 46.6611 28.7436C46.6656 28.8392 46.577 28.9129 46.5969 29.0135C46.5988 29.0229 46.5726 29.0378 46.5595 29.0502C46.5472 29.0618 46.5316 29.0715 46.5232 29.0855C46.4434 29.2204 46.3262 29.3065 46.1789 29.3551C46.1622 29.3606 46.1433 29.366 46.1312 29.3775C46.0761 29.4302 46.0157 29.4092 45.9537 29.3931C45.9368 29.4513 45.8963 29.4663 45.839 29.466C45.7814 29.4658 45.7174 29.4645 45.668 29.4883C45.6293 29.5068 45.5949 29.5159 45.5541 29.5206C45.4876 29.5281 45.4017 29.5212 45.3607 29.5596C45.3062 29.6107 45.2552 29.5962 45.2004 29.6015C45.1785 29.6036 45.1562 29.6018 45.134 29.6018C45.1088 29.642 45.0802 29.6701 45.0459 29.6835C44.9674 29.7143 44.8871 29.733 44.833 29.8117C44.8101 29.8452 44.769 29.8799 44.7159 29.8892C44.6906 29.8936 44.6693 29.9255 44.648 29.9468C44.5962 29.9986 44.5421 30.0487 44.4954 30.1048C44.4483 30.1616 44.4104 30.226 44.3654 30.2847C44.3503 30.3045 44.3064 30.3283 44.3081 30.3313C44.3511 30.4054 44.2776 30.4125 44.2411 30.448C44.2649 30.5842 44.1761 30.6986 44.1488 30.8283C44.1459 30.8424 44.1252 30.8574 44.1095 30.8632C44.0873 30.8717 44.0849 30.8784 44.093 30.9008C44.1 30.9202 44.101 30.9454 44.095 30.9652C44.0347 31.166 44.0317 31.3738 44.0227 31.5799C44.0171 31.7084 44.035 31.8386 43.886 31.9032C43.8679 31.9666 43.8181 31.9651 43.7654 31.9662C43.0846 31.9803 42.4036 31.9439 41.7224 31.9888C41.3618 32.0127 40.9984 31.9952 40.6363 31.9917C40.5283 31.9907 40.42 31.9776 40.3128 31.9624C40.2813 31.958 40.2508 31.9307 40.2242 31.9086C40.1398 31.8382 40.0575 31.7652 39.9963 31.7123C39.9325 31.593 40.044 31.5398 40.0429 31.454C40.0427 31.4344 40.0875 31.4144 40.1089 31.3967C40.1281 31.2799 40.1082 31.1539 40.2134 31.0632C40.1888 30.9589 40.1829 30.9244 40.2377 30.879C40.2781 30.8455 40.2772 30.8141 40.2793 30.7746C40.2819 30.725 40.2676 30.6603 40.2933 30.629C40.3413 30.5705 40.3298 30.5106 40.3348 30.4486C40.3376 30.4142 40.3363 30.364 40.3568 30.35C40.3923 30.3256 40.3893 30.2988 40.3894 30.2682C40.39 30.1171 40.3901 29.966 40.3891 29.8148C40.389 29.793 40.3885 29.7571 40.377 29.7519C40.3196 29.7256 40.338 29.6772 40.3338 29.6346C40.3312 29.6081 40.3341 29.5653 40.3204 29.5586C40.2698 29.5338 40.2802 29.493 40.2792 29.4536C40.2785 29.422 40.2845 29.3873 40.2407 29.3777C40.2336 29.2943 40.1268 29.2577 40.1405 29.1646C40.0736 29.1074 40.0285 29.0355 39.9989 28.9533C39.9206 28.9619 39.9308 28.8842 39.8968 28.8494C39.8405 28.7918 39.7863 28.7314 39.7251 28.6794C39.6624 28.6262 39.5662 28.6186 39.5229 28.5363C39.5214 28.5334 39.5147 28.5315 39.5107 28.5318C39.423 28.5387 39.3918 28.4677 39.3387 28.4196C39.2987 28.3831 39.2781 28.315 39.213 28.3118C39.1652 28.3094 39.1439 28.2863 39.1181 28.2489C39.0898 28.2077 39.0452 28.1573 39.0021 28.1514C38.9322 28.1418 38.8993 28.098 38.8598 28.056C38.8416 28.0368 38.8345 28.0035 38.8137 27.9912C38.6937 27.9202 38.5778 27.8445 38.4922 27.7322C38.416 27.6324 38.2951 27.5913 38.2073 27.5014C38.0826 27.3737 37.9525 27.2501 37.8271 27.1221C37.7897 27.084 37.7334 27.0638 37.746 26.9945C37.7474 26.9864 37.7327 26.9686 37.7231 26.9664C37.6405 26.948 37.6609 26.8256 37.5697 26.8156C37.5639 26.815 37.5556 26.7919 37.557 26.7803C37.5626 26.731 37.5354 26.7031 37.5076 26.6653C37.4626 26.6041 37.4061 26.5471 37.3819 26.472C37.3602 26.405 37.3517 26.3323 37.2705 26.3024C37.2589 26.2981 37.2568 26.262 37.2542 26.2403C37.2451 26.1636 37.1714 26.1044 37.1939 26.0187C37.1953 26.0132 37.1857 26.0005 37.1785 25.9974C37.0932 25.961 37.1154 25.8904 37.1213 25.8241C37.1231 25.8044 37.1267 25.7797 37.1173 25.7651C37.0826 25.7108 37.0924 25.6513 37.0876 25.5928C37.0806 25.5077 37.0683 25.423 37.0583 25.3382C36.9691 25.2809 37.0093 25.1914 37.0075 25.1158C37.0028 24.9006 37.0037 24.6853 37.0069 24.47C37.0082 24.3866 36.9782 24.2946 37.0562 24.2252C37.0614 24.2206 37.0586 24.2078 37.0608 24.199C37.0732 24.1497 37.0445 24.0989 37.0877 24.0462C37.1121 24.0164 37.0899 23.9484 37.0884 23.8976C37.0868 23.8428 37.0808 23.7849 37.119 23.7406C37.1542 23.6998 37.0969 23.6626 37.1214 23.6272C37.1444 23.5937 37.1773 23.5659 37.1954 23.5303C37.2066 23.5082 37.1913 23.4737 37.2004 23.4494C37.2217 23.3927 37.2367 23.314 37.2798 23.2901C37.3313 23.2614 37.3487 23.229 37.3646 23.1824C37.3804 23.1357 37.3997 23.09 37.4198 23.0451C37.4262 23.0308 37.4382 23.017 37.4511 23.0081C37.5228 22.9589 37.5225 22.9592 37.5583 22.8761C37.5646 22.8616 37.5802 22.8511 37.5913 22.8386C37.6417 22.7822 37.6935 22.7269 37.7417 22.6687C37.7579 22.6491 37.7736 22.6224 37.7747 22.5982C37.7771 22.55 37.7959 22.5221 37.842 22.5079C37.8631 22.5014 37.886 22.4906 37.9009 22.475C37.959 22.4138 38.0133 22.3489 38.071 22.2875C38.1211 22.2341 38.1723 22.1814 38.2264 22.1319C38.2812 22.0818 38.3359 22.0341 38.406 21.9999C38.4659 21.9707 38.5093 21.9077 38.5607 21.8604C38.5665 21.8551 38.5774 21.8532 38.5859 21.8531C38.6735 21.8514 38.6971 21.7815 38.7308 21.7167C38.7779 21.7078 38.8282 21.7232 38.8722 21.6668C38.9087 21.62 38.9924 21.6132 39.0427 21.5731C39.1096 21.5198 39.1929 21.5179 39.2648 21.4817C39.3542 21.4368 39.4357 21.3732 39.5376 21.3546C39.5456 21.3532 39.5557 21.3474 39.5595 21.3406C39.5969 21.2732 39.6607 21.2731 39.7249 21.2751C39.7902 21.2771 39.8474 21.2526 39.9039 21.2244C39.9273 21.2127 39.9511 21.1971 39.9761 21.1936C40.0652 21.1815 40.1551 21.1751 40.2444 21.1637C40.2699 21.1604 40.302 21.1549 40.3178 21.138C40.4098 21.0396 40.5228 21.0126 40.6513 21.0267C40.6785 21.0296 40.7067 21.03 40.7336 21.0257C40.7483 21.0234 40.7612 21.009 40.7748 21.0001V21Z" fill="#0000FF"/>
<path d="M49.9347 26.9635C49.8407 27.0753 49.7189 27.1042 49.5765 27.1032C48.9817 27.0989 48.3869 27.1025 47.7921 27.1001C47.7027 27.0998 47.6119 27.0891 47.5243 27.0709C47.4599 27.0575 47.4124 27.0098 47.4049 26.9399C47.4008 26.9022 47.3921 26.8833 47.3515 26.8772C47.3358 26.8748 47.3154 26.8483 47.312 26.8299C47.3018 26.7773 47.2994 26.7232 47.2936 26.6697C47.2871 26.6092 47.3323 26.5844 47.3698 26.5507C47.4017 26.522 47.4245 26.4832 47.4543 26.4452C47.9251 26.3844 48.4043 26.4239 48.8822 26.4142C49.0835 26.4101 49.2849 26.4103 49.4861 26.4147C49.6031 26.4173 49.7203 26.4286 49.8365 26.4436C49.8709 26.448 49.9021 26.478 49.9347 26.4963V26.9635L49.9347 26.9635Z" fill="#0000FF"/>
<path d="M47.4087 25.8508C47.399 25.8075 47.4131 25.7663 47.3588 25.7435C47.3048 25.7209 47.2854 25.6678 47.2927 25.6061C47.2975 25.5654 47.2951 25.5237 47.2933 25.4826C47.2909 25.4289 47.3076 25.3976 47.3573 25.362C47.431 25.3092 47.4842 25.2283 47.5484 25.1615C47.6423 25.064 47.7382 24.9683 47.8333 24.872C47.8641 24.8408 47.8936 24.8079 47.9269 24.7793C47.9571 24.7535 47.9912 24.7322 48.0242 24.7099C48.0312 24.7052 48.0479 24.7057 48.0485 24.702C48.0618 24.6155 48.1466 24.5907 48.1912 24.5334C48.2839 24.4144 48.3999 24.3208 48.5052 24.2158C48.5275 24.1936 48.5601 24.1786 48.5755 24.1528C48.6579 24.0163 48.793 23.9409 48.9313 23.8983C49.0576 23.8593 49.2076 23.8565 49.3311 23.9198C49.4013 23.9558 49.4876 24.0148 49.4676 24.1269C49.4636 24.1491 49.4626 24.1736 49.4677 24.1953C49.4943 24.3085 49.4297 24.3841 49.3548 24.4469C49.2703 24.5178 49.1931 24.5938 49.1205 24.6763C49.0834 24.7186 49.0369 24.7541 48.9907 24.787C48.9391 24.8238 48.8962 24.8634 48.8609 24.9194C48.82 24.9844 48.7575 25.0362 48.7027 25.0921C48.5854 25.2114 48.4723 25.3355 48.347 25.4459C48.2841 25.5012 48.2235 25.559 48.1637 25.6171C48.1013 25.6779 48.0529 25.7536 47.9881 25.8112C47.946 25.8487 47.8861 25.8858 47.833 25.8875C47.694 25.8921 47.5507 25.9178 47.4086 25.8507L47.4087 25.8508Z" fill="#0000FF"/>
<path d="M47.9051 27.65C47.9369 27.6809 47.9351 27.7203 47.9748 27.7485C48.0542 27.8049 48.1498 27.8549 48.1795 27.9625C48.1815 27.9694 48.1921 27.9759 48.2001 27.9785C48.2917 28.0084 48.3322 28.0924 48.3931 28.1555C48.4642 28.2293 48.5462 28.2926 48.6173 28.3663C48.733 28.4865 48.8654 28.5915 48.9534 28.7377C48.9727 28.7699 49.0153 28.7878 49.0468 28.813C49.0777 28.8377 49.1079 28.8633 49.1385 28.8885C49.1482 28.8965 49.1585 28.9125 49.1674 28.9117C49.2566 28.9037 49.2921 28.9781 49.3427 29.0265C49.3634 29.0463 49.3719 29.0794 49.3843 29.1073C49.3914 29.1231 49.3914 29.1521 49.401 29.1552C49.4886 29.1834 49.4658 29.2551 49.4666 29.3157C49.4686 29.4662 49.4351 29.5214 49.3011 29.6048C49.2875 29.6133 49.2784 29.6302 49.2691 29.6445C49.2498 29.6742 49.2236 29.686 49.1881 29.6847C49.1379 29.6828 49.0874 29.6843 49.037 29.6842C48.8824 29.6842 48.8836 29.669 48.773 29.5483C48.7022 29.471 48.6356 29.3883 48.559 29.3162C48.4525 29.216 48.3377 29.1244 48.2325 29.0229C48.1948 28.9865 48.1599 28.9471 48.1206 28.9114C48.0787 28.8731 48.0493 28.8215 48.0097 28.7802C47.9232 28.69 47.8455 28.5904 47.7336 28.5263C47.7049 28.5098 47.6838 28.4757 47.666 28.4457C47.6428 28.4062 47.6276 28.3633 47.57 28.3616C47.5587 28.3612 47.5454 28.339 47.5376 28.3245C47.497 28.2488 47.4348 28.1944 47.3683 28.1424C47.3448 28.124 47.3223 28.0967 47.3131 28.0689C47.2793 27.9678 47.2853 27.8637 47.3085 27.7616C47.3146 27.7344 47.3281 27.7023 47.3724 27.7041C47.4333 27.7064 47.4646 27.6271 47.54 27.6472C47.5955 27.662 47.6582 27.6501 47.7177 27.6501C47.7816 27.6501 47.8453 27.6501 47.9053 27.6501L47.9051 27.65Z" fill="#0000FF"/>
</svg>
