<svg width="88" height="88" viewBox="0 0 88 88" fill="none" xmlns="http://www.w3.org/2000/svg">
<circle cx="44" cy="44" r="43" stroke="#0000FF"/>
<path d="M62.0472 36.0107C61.8485 35.6532 61.5704 35.378 61.2141 35.1873C60.8616 34.9965 60.4972 34.9 60.1221 34.9C59.749 34.9 59.3856 34.9966 59.0331 35.1873C58.6769 35.378 58.3978 35.6532 58.1972 36.0106L58.1971 36.0108C57.9996 36.3641 57.9 36.735 57.9 37.1221C57.9 37.5072 57.9986 37.876 58.194 38.2273C58.3905 38.5807 58.6652 38.8565 59.0167 39.0532L59.0173 39.0535C59.3686 39.2468 59.7373 39.3443 60.1221 39.3443C60.507 39.3443 60.8757 39.2468 61.2269 39.0535L61.2273 39.0533C61.5809 38.8567 61.8567 38.5809 62.0533 38.2273C62.2487 37.876 62.3473 37.5072 62.3473 37.1221C62.3473 36.7349 62.2466 36.364 62.0472 36.0107ZM62.0472 36.0107C62.0472 36.0108 62.0473 36.0109 62.0474 36.011L61.9599 36.0596L62.047 36.0104C62.0471 36.0105 62.0471 36.0106 62.0472 36.0107ZM60.9956 38.645L60.9953 38.6451C60.7162 38.8008 60.4256 38.8779 60.1221 38.8779C59.8208 38.8779 59.5301 38.8009 59.2487 38.645C58.9697 38.4904 58.7537 38.2753 58.5992 37.9984C58.4434 37.7172 58.3664 37.4255 58.3664 37.1221C58.3664 36.819 58.4443 36.5263 58.6021 36.243C58.7607 35.9599 58.9785 35.7443 59.2567 35.5939C59.5407 35.4414 59.8288 35.3664 60.1221 35.3664C60.4176 35.3664 60.7057 35.4415 60.9875 35.5938L60.9877 35.5939C61.0689 35.6375 61.1448 35.6865 61.2154 35.7411H61.1248H61.0111H60.9216L60.9117 35.83C60.907 35.8723 60.8963 35.8835 60.8954 35.8843L60.8953 35.8843L60.8925 35.8871C60.8885 35.8911 60.8846 35.8937 60.8734 35.8937C60.8735 35.8937 60.8728 35.8937 60.8713 35.8936L60.8651 35.8928C60.8597 35.8919 60.8525 35.8904 60.8433 35.888C60.8248 35.8832 60.8008 35.8754 60.7709 35.8642L60.7709 35.8642L60.7696 35.8637C60.541 35.7813 60.3327 35.7381 60.1461 35.7381C59.7429 35.7381 59.4026 35.8707 59.1328 36.1382C58.8628 36.4061 58.7291 36.7468 58.7291 37.1521C58.7291 37.5349 58.8535 37.855 59.1062 38.1034L59.1068 38.104C59.3619 38.3503 59.6925 38.4703 60.0892 38.4703C60.506 38.4703 60.8507 38.3349 61.1134 38.0591L61.141 38.0302V37.9902V37.7806V37.5007L60.9637 37.7173C60.7529 37.9747 60.519 38.0937 60.2598 38.0937C60.0753 38.0937 59.9221 38.022 59.7945 37.8718C59.6741 37.7278 59.6026 37.4704 59.6026 37.0743C59.6026 36.7064 59.6752 36.4599 59.8002 36.3129L59.8006 36.3125C59.9302 36.1583 60.0863 36.0847 60.2748 36.0847C60.433 36.0847 60.5673 36.1344 60.6823 36.234L60.6823 36.234L60.6835 36.235C60.799 36.3318 60.8768 36.4678 60.913 36.6507L60.929 36.7313H61.0111H61.1248H61.2248V36.6313V35.8411V35.7484C61.394 35.8809 61.5328 36.0455 61.642 36.2427L61.6421 36.2429C61.7999 36.5263 61.8779 36.8189 61.8779 37.1221C61.8779 37.4255 61.8009 37.7172 61.6451 37.9984C61.4906 38.2753 61.2746 38.4904 60.9956 38.645ZM60.7477 36.1583C60.614 36.0426 60.4564 35.9847 60.2748 35.9847C60.0553 35.9847 59.8717 36.0725 59.7241 36.2481L60.7477 36.1583Z" fill="#0000FF" stroke="#0000FF" stroke-width="0.2"/>
<mask id="path-3-outside-1_98_943" maskUnits="userSpaceOnUse" x="27" y="49" width="39" height="13" fill="black">
<rect fill="white" x="27" y="49" width="39" height="13"/>
<path d="M32.232 49.6607L31.4649 52.3357H33.009L32.8418 52.9553H31.3076L29.616 58.7577C29.4324 59.3806 29.3406 59.7838 29.3406 59.9674C29.3406 60.0788 29.3669 60.1641 29.4193 60.2231C29.4718 60.2821 29.5341 60.3116 29.6062 60.3116C29.7701 60.3116 29.9865 60.1968 30.2553 59.9674C30.4126 59.8362 30.7634 59.433 31.3076 58.7577L31.6321 59.0036C31.0289 59.8821 30.4585 60.5017 29.9209 60.8623C29.5537 61.1115 29.1833 61.236 28.8096 61.236C28.5211 61.236 28.2851 61.1475 28.1015 60.9705C27.9179 60.7869 27.8261 60.5542 27.8261 60.2722C27.8261 59.9182 27.931 59.3773 28.1408 58.6495L29.7832 52.9553H28.2982L28.3965 52.5717C29.1177 52.375 29.7176 52.0833 30.1963 51.6964C30.6749 51.3031 31.2092 50.6245 31.7993 49.6607H32.232ZM35.0054 57.2923C34.9595 57.6202 34.9365 57.8923 34.9365 58.1086C34.9365 58.6921 35.1431 59.1904 35.5561 59.6035C35.9692 60.01 36.4708 60.2132 37.0608 60.2132C37.5329 60.2132 37.9853 60.1182 38.418 59.928C38.8573 59.7313 39.5064 59.3019 40.3653 58.6397L40.5718 58.9249C39.0179 60.4657 37.5362 61.236 36.1265 61.236C35.1693 61.236 34.4481 60.9344 33.9629 60.3312C33.4777 59.7281 33.2352 59.0626 33.2352 58.3348C33.2352 57.3579 33.5368 56.3581 34.1399 55.3353C34.7431 54.3124 35.5004 53.5191 36.4117 52.9553C37.3231 52.3849 38.2607 52.0997 39.2244 52.0997C39.9194 52.0997 40.4341 52.2406 40.7685 52.5225C41.1029 52.8045 41.2701 53.1388 41.2701 53.5257C41.2701 54.0699 41.0537 54.5911 40.621 55.0894C40.0506 55.7385 39.2113 56.263 38.1033 56.6629C37.369 56.9317 36.3363 57.1415 35.0054 57.2923ZM35.0742 56.8104C36.0446 56.699 36.8346 56.5089 37.4444 56.24C38.2508 55.8794 38.854 55.45 39.254 54.9517C39.6605 54.4469 39.8637 53.9682 39.8637 53.5158C39.8637 53.2405 39.7752 53.0176 39.5982 52.8471C39.4277 52.6766 39.1818 52.5914 38.8606 52.5914C38.1918 52.5914 37.4804 52.9487 36.7265 53.6634C35.979 54.3715 35.4283 55.4205 35.0742 56.8104ZM51.0063 52.0997L49.0886 58.7675L48.8722 59.6625C48.8526 59.7477 48.8427 59.8198 48.8427 59.8789C48.8427 59.9838 48.8755 60.0755 48.9411 60.1542C48.9935 60.2132 49.0591 60.2427 49.1378 60.2427C49.223 60.2427 49.3345 60.1903 49.4721 60.0854C49.7278 59.8952 50.0688 59.5019 50.4949 58.9052L50.8293 59.1413C50.3769 59.8231 49.9114 60.3444 49.4328 60.705C48.9542 61.059 48.5116 61.236 48.1051 61.236C47.8232 61.236 47.6101 61.1639 47.4659 61.0197C47.3282 60.882 47.2593 60.6787 47.2593 60.4099C47.2593 60.0887 47.3315 59.6658 47.4757 59.1413L47.6822 58.4037C46.8233 59.5248 46.0333 60.3083 45.3121 60.7541C44.7941 61.0754 44.286 61.236 43.7877 61.236C43.3091 61.236 42.896 61.0393 42.5486 60.646C42.2011 60.246 42.0273 59.6986 42.0273 59.0036C42.0273 57.9611 42.3388 56.8629 42.9616 55.709C43.591 54.5485 44.3876 53.6207 45.3514 52.9258C46.1054 52.375 46.8168 52.0997 47.4855 52.0997C47.8855 52.0997 48.2166 52.2046 48.4788 52.4144C48.7477 52.6242 48.9509 52.9717 49.0886 53.4568L49.4426 52.3357L51.0063 52.0997ZM47.5052 52.6111C47.0856 52.6111 46.6398 52.8078 46.1677 53.2011C45.4989 53.7584 44.9023 54.5845 44.3778 55.6795C43.8598 56.7744 43.6009 57.7644 43.6009 58.6495C43.6009 59.0954 43.7123 59.4494 43.9352 59.7117C44.1582 59.9674 44.4139 60.0952 44.7023 60.0952C45.417 60.0952 46.1939 59.5674 47.0331 58.5118C48.1543 57.1088 48.7149 55.6696 48.7149 54.1944C48.7149 53.6371 48.6067 53.2339 48.3903 52.9848C48.174 52.7356 47.8789 52.6111 47.5052 52.6111ZM55.9925 52.0997L54.714 56.5351C55.2844 55.4926 55.7696 54.7091 56.1695 54.1846C56.7924 53.3716 57.3989 52.7815 57.9889 52.4144C58.3364 52.2046 58.7003 52.0997 59.0806 52.0997C59.4084 52.0997 59.6805 52.2046 59.8968 52.4144C60.1132 52.6242 60.2214 52.893 60.2214 53.2208C60.2214 53.5421 60.146 53.9617 59.9952 54.4796L59.2969 56.9776C60.3656 54.9779 61.3786 53.5749 62.3358 52.7684C62.8669 52.3226 63.3914 52.0997 63.9094 52.0997C64.211 52.0997 64.4568 52.2046 64.647 52.4144C64.8437 52.6176 64.942 52.9356 64.942 53.3683C64.942 53.7486 64.883 54.1518 64.765 54.578L63.6832 58.4037C63.4472 59.2363 63.3291 59.6986 63.3291 59.7903C63.3291 59.8821 63.3586 59.9608 63.4176 60.0264C63.457 60.0723 63.5094 60.0952 63.575 60.0952C63.6406 60.0952 63.7553 60.0329 63.9192 59.9084C64.2929 59.6199 64.6437 59.2396 64.9715 58.7675L65.2961 58.9741C65.1322 59.2363 64.8404 59.5969 64.4208 60.0559C64.0077 60.5148 63.6537 60.8263 63.3586 60.9902C63.0636 61.1541 62.7915 61.236 62.5424 61.236C62.3129 61.236 62.1195 61.1574 61.9621 61C61.8113 60.8426 61.7359 60.6492 61.7359 60.4198C61.7359 60.105 61.8703 59.4724 62.1391 58.5217L63.0341 55.3648C63.2373 54.637 63.3455 54.2338 63.3586 54.1551C63.3783 54.0305 63.3881 53.9092 63.3881 53.7912C63.3881 53.6273 63.3521 53.4995 63.28 53.4077C63.2013 53.3159 63.1128 53.27 63.0144 53.27C62.7391 53.27 62.4473 53.4109 62.1391 53.6929C61.2344 54.5255 60.3886 55.6926 59.6018 57.194C59.0839 58.184 58.5987 59.4527 58.1463 61H56.6613L58.343 55.05C58.5266 54.4075 58.6183 53.9781 58.6183 53.7617C58.6183 53.5847 58.5823 53.4536 58.5102 53.3683C58.438 53.2831 58.3495 53.2405 58.2446 53.2405C58.0283 53.2405 57.7988 53.3192 57.5562 53.4765C57.1628 53.7322 56.6547 54.2797 56.0318 55.1189C55.4155 55.9581 54.9369 56.7613 54.596 57.5284C54.4321 57.889 54.042 59.0462 53.4257 61H51.9701L53.7895 54.6272L54.0256 53.801C54.0715 53.6765 54.0944 53.5847 54.0944 53.5257C54.0944 53.3814 54.0288 53.2536 53.8977 53.1421C53.7666 53.0241 53.5994 52.9651 53.3962 52.9651C53.3109 52.9651 53.0749 53.0044 52.6881 53.0831L52.5995 52.7192L55.9925 52.0997Z"/>
</mask>
<path d="M32.232 49.6607L31.4649 52.3357H33.009L32.8418 52.9553H31.3076L29.616 58.7577C29.4324 59.3806 29.3406 59.7838 29.3406 59.9674C29.3406 60.0788 29.3669 60.1641 29.4193 60.2231C29.4718 60.2821 29.5341 60.3116 29.6062 60.3116C29.7701 60.3116 29.9865 60.1968 30.2553 59.9674C30.4126 59.8362 30.7634 59.433 31.3076 58.7577L31.6321 59.0036C31.0289 59.8821 30.4585 60.5017 29.9209 60.8623C29.5537 61.1115 29.1833 61.236 28.8096 61.236C28.5211 61.236 28.2851 61.1475 28.1015 60.9705C27.9179 60.7869 27.8261 60.5542 27.8261 60.2722C27.8261 59.9182 27.931 59.3773 28.1408 58.6495L29.7832 52.9553H28.2982L28.3965 52.5717C29.1177 52.375 29.7176 52.0833 30.1963 51.6964C30.6749 51.3031 31.2092 50.6245 31.7993 49.6607H32.232ZM35.0054 57.2923C34.9595 57.6202 34.9365 57.8923 34.9365 58.1086C34.9365 58.6921 35.1431 59.1904 35.5561 59.6035C35.9692 60.01 36.4708 60.2132 37.0608 60.2132C37.5329 60.2132 37.9853 60.1182 38.418 59.928C38.8573 59.7313 39.5064 59.3019 40.3653 58.6397L40.5718 58.9249C39.0179 60.4657 37.5362 61.236 36.1265 61.236C35.1693 61.236 34.4481 60.9344 33.9629 60.3312C33.4777 59.7281 33.2352 59.0626 33.2352 58.3348C33.2352 57.3579 33.5368 56.3581 34.1399 55.3353C34.7431 54.3124 35.5004 53.5191 36.4117 52.9553C37.3231 52.3849 38.2607 52.0997 39.2244 52.0997C39.9194 52.0997 40.4341 52.2406 40.7685 52.5225C41.1029 52.8045 41.2701 53.1388 41.2701 53.5257C41.2701 54.0699 41.0537 54.5911 40.621 55.0894C40.0506 55.7385 39.2113 56.263 38.1033 56.6629C37.369 56.9317 36.3363 57.1415 35.0054 57.2923ZM35.0742 56.8104C36.0446 56.699 36.8346 56.5089 37.4444 56.24C38.2508 55.8794 38.854 55.45 39.254 54.9517C39.6605 54.4469 39.8637 53.9682 39.8637 53.5158C39.8637 53.2405 39.7752 53.0176 39.5982 52.8471C39.4277 52.6766 39.1818 52.5914 38.8606 52.5914C38.1918 52.5914 37.4804 52.9487 36.7265 53.6634C35.979 54.3715 35.4283 55.4205 35.0742 56.8104ZM51.0063 52.0997L49.0886 58.7675L48.8722 59.6625C48.8526 59.7477 48.8427 59.8198 48.8427 59.8789C48.8427 59.9838 48.8755 60.0755 48.9411 60.1542C48.9935 60.2132 49.0591 60.2427 49.1378 60.2427C49.223 60.2427 49.3345 60.1903 49.4721 60.0854C49.7278 59.8952 50.0688 59.5019 50.4949 58.9052L50.8293 59.1413C50.3769 59.8231 49.9114 60.3444 49.4328 60.705C48.9542 61.059 48.5116 61.236 48.1051 61.236C47.8232 61.236 47.6101 61.1639 47.4659 61.0197C47.3282 60.882 47.2593 60.6787 47.2593 60.4099C47.2593 60.0887 47.3315 59.6658 47.4757 59.1413L47.6822 58.4037C46.8233 59.5248 46.0333 60.3083 45.3121 60.7541C44.7941 61.0754 44.286 61.236 43.7877 61.236C43.3091 61.236 42.896 61.0393 42.5486 60.646C42.2011 60.246 42.0273 59.6986 42.0273 59.0036C42.0273 57.9611 42.3388 56.8629 42.9616 55.709C43.591 54.5485 44.3876 53.6207 45.3514 52.9258C46.1054 52.375 46.8168 52.0997 47.4855 52.0997C47.8855 52.0997 48.2166 52.2046 48.4788 52.4144C48.7477 52.6242 48.9509 52.9717 49.0886 53.4568L49.4426 52.3357L51.0063 52.0997ZM47.5052 52.6111C47.0856 52.6111 46.6398 52.8078 46.1677 53.2011C45.4989 53.7584 44.9023 54.5845 44.3778 55.6795C43.8598 56.7744 43.6009 57.7644 43.6009 58.6495C43.6009 59.0954 43.7123 59.4494 43.9352 59.7117C44.1582 59.9674 44.4139 60.0952 44.7023 60.0952C45.417 60.0952 46.1939 59.5674 47.0331 58.5118C48.1543 57.1088 48.7149 55.6696 48.7149 54.1944C48.7149 53.6371 48.6067 53.2339 48.3903 52.9848C48.174 52.7356 47.8789 52.6111 47.5052 52.6111ZM55.9925 52.0997L54.714 56.5351C55.2844 55.4926 55.7696 54.7091 56.1695 54.1846C56.7924 53.3716 57.3989 52.7815 57.9889 52.4144C58.3364 52.2046 58.7003 52.0997 59.0806 52.0997C59.4084 52.0997 59.6805 52.2046 59.8968 52.4144C60.1132 52.6242 60.2214 52.893 60.2214 53.2208C60.2214 53.5421 60.146 53.9617 59.9952 54.4796L59.2969 56.9776C60.3656 54.9779 61.3786 53.5749 62.3358 52.7684C62.8669 52.3226 63.3914 52.0997 63.9094 52.0997C64.211 52.0997 64.4568 52.2046 64.647 52.4144C64.8437 52.6176 64.942 52.9356 64.942 53.3683C64.942 53.7486 64.883 54.1518 64.765 54.578L63.6832 58.4037C63.4472 59.2363 63.3291 59.6986 63.3291 59.7903C63.3291 59.8821 63.3586 59.9608 63.4176 60.0264C63.457 60.0723 63.5094 60.0952 63.575 60.0952C63.6406 60.0952 63.7553 60.0329 63.9192 59.9084C64.2929 59.6199 64.6437 59.2396 64.9715 58.7675L65.2961 58.9741C65.1322 59.2363 64.8404 59.5969 64.4208 60.0559C64.0077 60.5148 63.6537 60.8263 63.3586 60.9902C63.0636 61.1541 62.7915 61.236 62.5424 61.236C62.3129 61.236 62.1195 61.1574 61.9621 61C61.8113 60.8426 61.7359 60.6492 61.7359 60.4198C61.7359 60.105 61.8703 59.4724 62.1391 58.5217L63.0341 55.3648C63.2373 54.637 63.3455 54.2338 63.3586 54.1551C63.3783 54.0305 63.3881 53.9092 63.3881 53.7912C63.3881 53.6273 63.3521 53.4995 63.28 53.4077C63.2013 53.3159 63.1128 53.27 63.0144 53.27C62.7391 53.27 62.4473 53.4109 62.1391 53.6929C61.2344 54.5255 60.3886 55.6926 59.6018 57.194C59.0839 58.184 58.5987 59.4527 58.1463 61H56.6613L58.343 55.05C58.5266 54.4075 58.6183 53.9781 58.6183 53.7617C58.6183 53.5847 58.5823 53.4536 58.5102 53.3683C58.438 53.2831 58.3495 53.2405 58.2446 53.2405C58.0283 53.2405 57.7988 53.3192 57.5562 53.4765C57.1628 53.7322 56.6547 54.2797 56.0318 55.1189C55.4155 55.9581 54.9369 56.7613 54.596 57.5284C54.4321 57.889 54.042 59.0462 53.4257 61H51.9701L53.7895 54.6272L54.0256 53.801C54.0715 53.6765 54.0944 53.5847 54.0944 53.5257C54.0944 53.3814 54.0288 53.2536 53.8977 53.1421C53.7666 53.0241 53.5994 52.9651 53.3962 52.9651C53.3109 52.9651 53.0749 53.0044 52.6881 53.0831L52.5995 52.7192L55.9925 52.0997Z" fill="#0000FF"/>
<path d="M32.232 49.6607L32.7127 49.7985L32.8956 49.1607H32.232V49.6607ZM31.4649 52.3357L30.9843 52.1979L30.8014 52.8357H31.4649V52.3357ZM33.009 52.3357L33.4917 52.4659L33.6618 51.8357H33.009V52.3357ZM32.8418 52.9553V53.4553H33.2247L33.3245 53.0855L32.8418 52.9553ZM31.3076 52.9553V52.4553H30.9325L30.8276 52.8153L31.3076 52.9553ZM29.616 58.7577L30.0956 58.8991L30.096 58.8976L29.616 58.7577ZM30.2553 59.9674L29.9351 59.5832L29.9306 59.5871L30.2553 59.9674ZM31.3076 58.7577L31.6095 58.3592L31.2227 58.0661L30.9182 58.444L31.3076 58.7577ZM31.6321 59.0036L32.0443 59.2866L32.3144 58.8932L31.934 58.605L31.6321 59.0036ZM29.9209 60.8623L29.6424 60.4471L29.6401 60.4486L29.9209 60.8623ZM28.1015 60.9705L27.7479 61.3241L27.7544 61.3304L28.1015 60.9705ZM28.1408 58.6495L27.6604 58.511L27.6604 58.511L28.1408 58.6495ZM29.7832 52.9553L30.2636 53.0938L30.4478 52.4553H29.7832V52.9553ZM28.2982 52.9553L27.8138 52.8311L27.6538 53.4553H28.2982V52.9553ZM28.3965 52.5717L28.265 52.0893L27.9844 52.1659L27.9122 52.4475L28.3965 52.5717ZM30.1963 51.6964L30.5106 52.0853L30.5137 52.0827L30.1963 51.6964ZM31.7993 49.6607V49.1607H31.5192L31.3729 49.3996L31.7993 49.6607ZM31.7514 49.5228L30.9843 52.1979L31.9456 52.4735L32.7127 49.7985L31.7514 49.5228ZM31.4649 52.8357H33.009V51.8357H31.4649V52.8357ZM32.5262 52.2054L32.359 52.825L33.3245 53.0855L33.4917 52.4659L32.5262 52.2054ZM32.8418 52.4553H31.3076V53.4553H32.8418V52.4553ZM30.8276 52.8153L29.136 58.6178L30.096 58.8976L31.7876 53.0952L30.8276 52.8153ZM29.1364 58.6163C29.0431 58.9329 28.9711 59.2004 28.922 59.4163C28.8755 59.6206 28.8406 59.8148 28.8406 59.9674H29.8406C29.8406 59.9363 29.8517 59.8372 29.897 59.6382C29.9397 59.4509 30.0053 59.2054 30.0956 58.8991L29.1364 58.6163ZM28.8406 59.9674C28.8406 60.1511 28.8837 60.3731 29.0456 60.5552L29.793 59.8909C29.8202 59.9215 29.833 59.9509 29.8382 59.9678C29.8429 59.983 29.8406 59.9851 29.8406 59.9674H28.8406ZM29.0456 60.5552C29.1829 60.7097 29.3767 60.8116 29.6062 60.8116V59.8116C29.6406 59.8116 29.6805 59.8192 29.7194 59.8376C29.7572 59.8555 29.7811 59.8774 29.793 59.8909L29.0456 60.5552ZM29.6062 60.8116C29.8003 60.8116 29.9781 60.7455 30.1256 60.6673C30.2768 60.5871 30.4288 60.4766 30.5799 60.3476L29.9306 59.5871C29.8129 59.6876 29.7223 59.7492 29.6571 59.7838C29.5883 59.8203 29.576 59.8116 29.6062 59.8116V60.8116ZM30.5754 60.3515C30.6888 60.2569 30.8399 60.0945 31.0136 59.8948C31.1948 59.6864 31.423 59.4114 31.6969 59.0714L30.9182 58.444C30.648 58.7793 30.4287 59.0435 30.2591 59.2384C30.0821 59.442 29.9791 59.5467 29.9352 59.5833L30.5754 60.3515ZM31.0056 59.1562L31.3302 59.4021L31.934 58.605L31.6095 58.3592L31.0056 59.1562ZM31.2199 58.7206C30.6324 59.5763 30.1044 60.1372 29.6424 60.4471L30.1994 61.2776C30.8127 60.8662 31.4255 60.1879 32.0443 59.2866L31.2199 58.7206ZM29.6401 60.4486C29.34 60.6523 29.0656 60.736 28.8096 60.736V61.736C29.301 61.736 29.7675 61.5707 30.2016 61.2761L29.6401 60.4486ZM28.8096 60.736C28.6321 60.736 28.5265 60.6857 28.4485 60.6106L27.7544 61.3304C28.0436 61.6093 28.41 61.736 28.8096 61.736V60.736ZM28.455 60.6169C28.3737 60.5357 28.3261 60.4341 28.3261 60.2722H27.3261C27.3261 60.6742 27.4621 61.0382 27.7479 61.324L28.455 60.6169ZM28.3261 60.2722C28.3261 59.9933 28.4131 59.5099 28.6213 58.788L27.6604 58.511C27.4489 59.2447 27.3261 59.8431 27.3261 60.2722H28.3261ZM28.6212 58.7881L30.2636 53.0938L29.3028 52.8167L27.6604 58.511L28.6212 58.7881ZM29.7832 52.4553H28.2982V53.4553H29.7832V52.4553ZM28.7825 53.0795L28.8808 52.6959L27.9122 52.4475L27.8138 52.8311L28.7825 53.0795ZM28.5281 53.0541C29.302 52.843 29.9679 52.5239 30.5105 52.0853L29.882 51.3076C29.4674 51.6426 28.9335 51.907 28.265 52.0893L28.5281 53.0541ZM30.5137 52.0827C31.0573 51.636 31.6264 50.9006 32.2257 49.9217L31.3729 49.3996C30.792 50.3483 30.2925 50.9701 29.8788 51.3102L30.5137 52.0827ZM31.7993 50.1607H32.232V49.1607H31.7993V50.1607ZM35.0054 57.2923L34.9491 56.7955L34.564 56.8392L34.5102 57.223L35.0054 57.2923ZM35.5561 59.6035L35.2026 59.957L35.2054 59.9599L35.5561 59.6035ZM38.418 59.928L38.6192 60.3858L38.6223 60.3844L38.418 59.928ZM40.3653 58.6397L40.7702 58.3464L40.468 57.9291L40.06 58.2437L40.3653 58.6397ZM40.5718 58.9249L40.9238 59.2799L41.2279 58.9784L40.9768 58.6316L40.5718 58.9249ZM33.9629 60.3312L33.5733 60.6446L33.9629 60.3312ZM34.1399 55.3353L33.7093 55.0813L34.1399 55.3353ZM36.4117 52.9553L36.6748 53.3805L36.677 53.3791L36.4117 52.9553ZM40.621 55.0894L40.9966 55.4194L40.9985 55.4172L40.621 55.0894ZM38.1033 56.6629L37.9335 56.1926L37.9314 56.1934L38.1033 56.6629ZM35.0742 56.8104L34.5897 56.687L34.4107 57.39L35.1313 57.3072L35.0742 56.8104ZM37.4444 56.24L37.6461 56.6976L37.6485 56.6965L37.4444 56.24ZM39.254 54.9517L38.8645 54.6381L38.864 54.6387L39.254 54.9517ZM39.5982 52.8471L39.2445 53.2007L39.2513 53.2072L39.5982 52.8471ZM36.7265 53.6634L37.0703 54.0263L37.0704 54.0263L36.7265 53.6634ZM34.5102 57.223C34.4626 57.5631 34.4365 57.8603 34.4365 58.1086H35.4365C35.4365 57.9242 35.4564 57.6772 35.5006 57.3617L34.5102 57.223ZM34.4365 58.1086C34.4365 58.8249 34.6959 59.4503 35.2026 59.957L35.9097 59.2499C35.5903 58.9305 35.4365 58.5594 35.4365 58.1086H34.4365ZM35.2054 59.9599C35.7139 60.4603 36.3422 60.7132 37.0608 60.7132V59.7132C36.5993 59.7132 36.2245 59.5597 35.9068 59.2471L35.2054 59.9599ZM37.0608 60.7132C37.6022 60.7132 38.1231 60.6037 38.6191 60.3858L38.2169 59.4703C37.8475 59.6326 37.4636 59.7132 37.0608 59.7132V60.7132ZM38.6223 60.3844C39.1201 60.1615 39.8094 59.6996 40.6706 59.0357L40.06 58.2437C39.2033 58.9042 38.5945 59.3012 38.2137 59.4717L38.6223 60.3844ZM39.9603 58.9329L40.1668 59.2181L40.9768 58.6316L40.7702 58.3464L39.9603 58.9329ZM40.2197 58.5698C38.7092 60.0677 37.3472 60.736 36.1265 60.736V61.736C37.7251 61.736 39.3267 60.8636 40.9238 59.2799L40.2197 58.5698ZM36.1265 60.736C35.2813 60.736 34.7206 60.4755 34.3525 60.0179L33.5733 60.6446C34.1756 61.3934 35.0573 61.736 36.1265 61.736V60.736ZM34.3525 60.0179C33.9339 59.4974 33.7352 58.941 33.7352 58.3348H32.7352C32.7352 59.1841 33.0216 59.9587 33.5733 60.6446L34.3525 60.0179ZM33.7352 58.3348C33.7352 57.4647 34.003 56.5517 34.5706 55.5892L33.7093 55.0813C33.0705 56.1644 32.7352 57.2511 32.7352 58.3348H33.7352ZM34.5706 55.5892C35.1372 54.6286 35.8396 53.8972 36.6748 53.3805L36.1487 52.5301C35.1612 53.141 34.3491 53.9963 33.7093 55.0813L34.5706 55.5892ZM36.677 53.3791C37.5183 52.8525 38.3651 52.5997 39.2244 52.5997V51.5997C38.1563 51.5997 37.1279 51.9172 36.1465 52.5314L36.677 53.3791ZM39.2244 52.5997C39.8669 52.5997 40.2418 52.7325 40.4462 52.9048L41.0908 52.1403C40.6264 51.7487 39.9719 51.5997 39.2244 51.5997V52.5997ZM40.4462 52.9048C40.6844 53.1056 40.7701 53.3065 40.7701 53.5257H41.7701C41.7701 52.9712 41.5213 52.5033 41.0908 52.1403L40.4462 52.9048ZM40.7701 53.5257C40.7701 53.9251 40.6147 54.334 40.2435 54.7615L40.9985 55.4172C41.4926 54.8482 41.7701 54.2146 41.7701 53.5257H40.7701ZM40.2454 54.7593C39.7472 55.3262 38.9898 55.8114 37.9335 56.1926L38.2731 57.1332C39.4329 56.7146 40.3539 56.1507 40.9965 55.4194L40.2454 54.7593ZM37.9314 56.1934C37.2516 56.4423 36.2643 56.6465 34.9491 56.7955L35.0617 57.7892C36.4084 57.6366 37.4863 57.4212 38.2752 57.1325L37.9314 56.1934ZM35.1313 57.3072C36.1306 57.1924 36.9744 56.9937 37.6461 56.6975L37.2427 55.7825C36.6949 56.024 35.9586 56.2056 35.0172 56.3137L35.1313 57.3072ZM37.6485 56.6965C38.5012 56.3152 39.179 55.8439 39.6439 55.2647L38.864 54.6387C38.5291 55.0561 38.0005 55.4437 37.2403 55.7836L37.6485 56.6965ZM39.6434 55.2653C40.0912 54.7091 40.3637 54.1226 40.3637 53.5158H39.3637C39.3637 53.8138 39.2297 54.1846 38.8645 54.6381L39.6434 55.2653ZM40.3637 53.5158C40.3637 53.1226 40.2321 52.7634 39.945 52.4869L39.2513 53.2072C39.3182 53.2717 39.3637 53.3584 39.3637 53.5158H40.3637ZM39.9517 52.4935C39.6595 52.2014 39.2689 52.0914 38.8606 52.0914V53.0914C39.0948 53.0914 39.1959 53.1519 39.2446 53.2006L39.9517 52.4935ZM38.8606 52.0914C38.0087 52.0914 37.1797 52.5449 36.3825 53.3005L37.0704 54.0263C37.7812 53.3526 38.3749 53.0914 38.8606 53.0914V52.0914ZM36.3826 53.3004C35.5446 54.0942 34.9583 55.2401 34.5897 56.687L35.5588 56.9339C35.8983 55.6009 36.4134 54.6487 37.0703 54.0263L36.3826 53.3004ZM51.0063 52.0997L51.4869 52.2379L51.7023 51.4889L50.9317 51.6053L51.0063 52.0997ZM49.0886 58.7675L48.6081 58.6293L48.6051 58.6396L48.6026 58.65L49.0886 58.7675ZM48.8722 59.6625L48.3862 59.545L48.385 59.5501L48.8722 59.6625ZM48.9411 60.1542L48.557 60.4743L48.5621 60.4804L48.5674 60.4864L48.9411 60.1542ZM49.4721 60.0854L49.1738 59.6841L49.1691 59.6877L49.4721 60.0854ZM50.4949 58.9052L50.7833 58.4967L50.3771 58.21L50.0881 58.6146L50.4949 58.9052ZM50.8293 59.1413L51.246 59.4177L51.5145 59.0129L51.1177 58.7328L50.8293 59.1413ZM49.4328 60.705L49.7302 61.107L49.7337 61.1043L49.4328 60.705ZM47.4659 61.0197L47.8194 60.6661L47.4659 61.0197ZM47.4757 59.1413L46.9942 59.0064L46.9936 59.0087L47.4757 59.1413ZM47.6822 58.4037L48.1637 58.5385L47.2853 58.0996L47.6822 58.4037ZM45.3121 60.7541L45.0492 60.3288L45.0485 60.3292L45.3121 60.7541ZM42.5486 60.646L42.1711 60.9739L42.1738 60.977L42.5486 60.646ZM42.9616 55.709L42.5221 55.4706L42.5216 55.4715L42.9616 55.709ZM45.3514 52.9258L45.6439 53.3313L45.6463 53.3295L45.3514 52.9258ZM48.4788 52.4144L48.1665 52.8048L48.1712 52.8085L48.4788 52.4144ZM49.0886 53.4568L48.6076 53.5933L49.063 55.1982L49.5654 53.6074L49.0886 53.4568ZM49.4426 52.3357L49.368 51.8413L49.0597 51.8878L48.9658 52.1851L49.4426 52.3357ZM44.3778 55.6795L43.9269 55.4634L43.9258 55.4657L44.3778 55.6795ZM43.9352 59.7117L43.5542 60.0355L43.5584 60.0402L43.9352 59.7117ZM47.0331 58.5118L46.6425 58.1997L46.6418 58.2007L47.0331 58.5118ZM50.5258 51.9615L48.6081 58.6293L49.5691 58.9057L51.4869 52.2379L50.5258 51.9615ZM48.6026 58.65L48.3862 59.545L49.3582 59.78L49.5746 58.885L48.6026 58.65ZM48.385 59.5501C48.3605 59.6563 48.3427 59.7686 48.3427 59.8789H49.3427C49.3427 59.8711 49.3446 59.8392 49.3594 59.7749L48.385 59.5501ZM48.3427 59.8789C48.3427 60.0976 48.4146 60.3034 48.557 60.4743L49.3252 59.8341C49.3281 59.8376 49.3338 59.846 49.3382 59.8582C49.3402 59.8638 49.3414 59.8689 49.3421 59.8729C49.3427 59.8768 49.3427 59.879 49.3427 59.8789H48.3427ZM48.5674 60.4864C48.7143 60.6517 48.9157 60.7427 49.1378 60.7427V59.7427C49.1624 59.7427 49.1972 59.7477 49.2348 59.7646C49.2723 59.7815 49.2988 59.8041 49.3148 59.822L48.5674 60.4864ZM49.1378 60.7427C49.3991 60.7427 49.625 60.5975 49.7752 60.4831L49.1691 59.6877C49.1444 59.7065 49.1237 59.7208 49.1068 59.7315C49.0898 59.7422 49.0784 59.7481 49.0724 59.751C49.0661 59.7539 49.0682 59.7523 49.0778 59.7498C49.0873 59.7472 49.1081 59.7427 49.1378 59.7427V60.7427ZM49.7705 60.4866C50.0947 60.2455 50.4744 59.7942 50.9018 59.1958L50.0881 58.6146C49.6631 59.2095 49.361 59.545 49.1738 59.6841L49.7705 60.4866ZM50.2066 59.3137L50.541 59.5497L51.1177 58.7328L50.7833 58.4967L50.2066 59.3137ZM50.4127 58.8648C49.981 59.5155 49.5521 59.9891 49.1319 60.3056L49.7337 61.1043C50.2708 60.6996 50.7729 60.1307 51.246 59.4177L50.4127 58.8648ZM49.1354 60.303C48.7046 60.6217 48.3651 60.736 48.1051 60.736V61.736C48.6581 61.736 49.2038 61.4963 49.7301 61.1069L49.1354 60.303ZM48.1051 60.736C47.9041 60.736 47.8388 60.6855 47.8194 60.6661L47.1123 61.3732C47.3814 61.6423 47.7423 61.736 48.1051 61.736V60.736ZM47.8194 60.6661C47.8065 60.6532 47.7593 60.5976 47.7593 60.4099H46.7593C46.7593 60.7599 46.8498 61.1107 47.1123 61.3732L47.8194 60.6661ZM47.7593 60.4099C47.7593 60.1538 47.8185 59.7806 47.9578 59.2738L46.9936 59.0087C46.8445 59.551 46.7593 60.0235 46.7593 60.4099H47.7593ZM47.9572 59.2761L48.1637 58.5385L47.2008 58.2688L46.9942 59.0064L47.9572 59.2761ZM47.2853 58.0996C46.4421 59.2003 45.6956 59.9292 45.0492 60.3288L45.575 61.1794C46.371 60.6874 47.2046 59.8493 48.0791 58.7077L47.2853 58.0996ZM45.0485 60.3292C44.592 60.6124 44.1741 60.736 43.7877 60.736V61.736C44.398 61.736 44.9962 61.5384 45.5756 61.179L45.0485 60.3292ZM43.7877 60.736C43.4673 60.736 43.1862 60.6125 42.9233 60.3149L42.1738 60.977C42.6059 61.4661 43.1509 61.736 43.7877 61.736V60.736ZM42.926 60.318C42.6795 60.0343 42.5273 59.6163 42.5273 59.0036H41.5273C41.5273 59.7808 41.7227 60.4578 42.1711 60.9739L42.926 60.318ZM42.5273 59.0036C42.5273 58.0627 42.8082 57.0459 43.4016 55.9465L42.5216 55.4715C41.8693 56.6799 41.5273 57.8595 41.5273 59.0036H42.5273ZM43.4011 55.9473C43.9987 54.8455 44.7475 53.9777 45.6439 53.3313L45.059 52.5202C44.0277 53.2638 43.1833 54.2514 42.5221 55.4706L43.4011 55.9473ZM45.6463 53.3295C46.3477 52.8172 46.9575 52.5997 47.4855 52.5997V51.5997C46.6761 51.5997 45.8631 51.9329 45.0565 52.522L45.6463 53.3295ZM47.4855 52.5997C47.7945 52.5997 48.009 52.6788 48.1665 52.8048L48.7912 52.0239C48.4242 51.7303 47.9765 51.5997 47.4855 51.5997V52.5997ZM48.1712 52.8085C48.3249 52.9285 48.4856 53.1637 48.6076 53.5933L49.5696 53.3203C49.4162 52.7797 49.1704 52.3199 48.7865 52.0202L48.1712 52.8085ZM49.5654 53.6074L49.9194 52.4863L48.9658 52.1851L48.6118 53.3063L49.5654 53.6074ZM49.5173 52.8301L51.081 52.5941L50.9317 51.6053L49.368 51.8413L49.5173 52.8301ZM47.5052 52.1111C46.9249 52.1111 46.369 52.3826 45.8476 52.817L46.4878 53.5852C46.9106 53.2329 47.2463 53.1111 47.5052 53.1111V52.1111ZM45.8476 52.817C45.1064 53.4347 44.471 54.3277 43.9269 55.4634L44.8287 55.8955C45.3337 54.8414 45.8915 54.0822 46.4878 53.5852L45.8476 52.817ZM43.9258 55.4657C43.3872 56.6042 43.1009 57.6685 43.1009 58.6495H44.1009C44.1009 57.8604 44.3324 56.9446 44.8298 55.8933L43.9258 55.4657ZM43.1009 58.6495C43.1009 59.1783 43.2342 59.6589 43.5543 60.0355L44.3162 59.3878C44.1905 59.2399 44.1009 59.0124 44.1009 58.6495H43.1009ZM43.5584 60.0402C43.8578 60.3837 44.2435 60.5952 44.7023 60.5952V59.5952C44.5842 59.5952 44.4585 59.551 44.3121 59.3831L43.5584 60.0402ZM44.7023 60.5952C45.6614 60.5952 46.5683 59.8999 47.4245 58.823L46.6418 58.2007C45.8195 59.2349 45.1726 59.5952 44.7023 59.5952V60.5952ZM47.4238 58.824C48.5998 57.3522 49.2149 55.8061 49.2149 54.1944H48.2149C48.2149 55.5331 47.7088 56.8654 46.6425 58.1997L47.4238 58.824ZM49.2149 54.1944C49.2149 53.5931 49.102 53.0417 48.7678 52.6569L48.0128 53.3126C48.1114 53.4261 48.2149 53.6811 48.2149 54.1944H49.2149ZM48.7678 52.6569C48.4433 52.2832 48.0024 52.1111 47.5052 52.1111V53.1111C47.7555 53.1111 47.9046 53.188 48.0128 53.3126L48.7678 52.6569ZM55.9925 52.0997L56.4729 52.2381L56.6964 51.4628L55.9027 51.6078L55.9925 52.0997ZM54.714 56.5351L54.2336 56.3966L55.1526 56.7751L54.714 56.5351ZM56.1695 54.1846L55.7726 53.8805L55.7719 53.8814L56.1695 54.1846ZM57.9889 52.4144L57.7305 51.9863L57.7248 51.9898L57.9889 52.4144ZM59.9952 54.4796L59.5151 54.3399L59.5137 54.345L59.9952 54.4796ZM59.2969 56.9776L58.8154 56.843L59.7379 57.2133L59.2969 56.9776ZM62.3358 52.7684L62.0144 52.3855L62.0137 52.386L62.3358 52.7684ZM64.647 52.4144L64.2765 52.7501L64.282 52.7562L64.2877 52.7621L64.647 52.4144ZM64.765 54.578L65.2461 54.714L65.2469 54.7114L64.765 54.578ZM63.6832 58.4037L64.1642 58.54L64.1643 58.5397L63.6832 58.4037ZM63.4176 60.0264L63.7974 59.7009L63.7893 59.6919L63.4176 60.0264ZM63.9192 59.9084L64.2218 60.3064L64.2247 60.3042L63.9192 59.9084ZM64.9715 58.7675L65.24 58.3457L64.8348 58.0879L64.5608 58.4823L64.9715 58.7675ZM65.2961 58.9741L65.7201 59.2391L65.9829 58.8185L65.5645 58.5522L65.2961 58.9741ZM64.4208 60.0559L64.0518 59.7185L64.0491 59.7214L64.4208 60.0559ZM61.9621 61L61.601 61.346L61.6086 61.3536L61.9621 61ZM62.1391 58.5217L61.6581 58.3853L61.658 58.3856L62.1391 58.5217ZM63.0341 55.3648L63.5151 55.5011L63.5157 55.4992L63.0341 55.3648ZM63.3586 54.1551L63.8519 54.2373L63.8525 54.2331L63.3586 54.1551ZM63.28 53.4077L63.6731 53.0988L63.6665 53.0904L63.6596 53.0823L63.28 53.4077ZM62.1391 53.6929L61.8016 53.324L61.8006 53.325L62.1391 53.6929ZM59.6018 57.194L59.1589 56.9619L59.1588 56.9622L59.6018 57.194ZM58.1463 61V61.5H58.521L58.6262 61.1403L58.1463 61ZM56.6613 61L56.1801 60.864L56.0003 61.5H56.6613V61ZM58.343 55.05L57.8622 54.9127L57.8618 54.9141L58.343 55.05ZM57.5562 53.4765L57.2841 53.057L57.2837 53.0573L57.5562 53.4765ZM56.0318 55.1189L55.6303 54.8209L55.6288 54.8229L56.0318 55.1189ZM54.596 57.5284L55.0512 57.7353L55.0529 57.7314L54.596 57.5284ZM53.4257 61V61.5H53.7922L53.9025 61.1504L53.4257 61ZM51.9701 61L51.4893 60.8627L51.3074 61.5H51.9701V61ZM53.7895 54.6272L53.3088 54.4898L53.3088 54.4899L53.7895 54.6272ZM54.0256 53.801L53.5564 53.6282L53.5499 53.6457L53.5448 53.6637L54.0256 53.801ZM53.8977 53.1421L53.5632 53.5138L53.5685 53.5185L53.5739 53.5231L53.8977 53.1421ZM52.6881 53.0831L52.2022 53.2013L52.316 53.669L52.7877 53.5731L52.6881 53.0831ZM52.5995 52.7192L52.5097 52.2274L51.9885 52.3226L52.1137 52.8374L52.5995 52.7192ZM55.5121 51.9612L54.2336 56.3966L55.1944 56.6736L56.4729 52.2381L55.5121 51.9612ZM55.1526 56.7751C55.7189 55.7402 56.1899 54.9824 56.5671 54.4878L55.7719 53.8814C55.3492 54.4358 54.8499 55.245 54.2754 56.2951L55.1526 56.7751ZM56.5664 54.4887C57.1684 53.703 57.7323 53.1629 58.2531 52.8389L57.7248 51.9898C57.0654 52.4001 56.4164 53.0403 55.7726 53.8805L56.5664 54.4887ZM58.2474 52.8424C58.5223 52.6764 58.7976 52.5997 59.0806 52.5997V51.5997C58.603 51.5997 58.1505 51.7327 57.7305 51.9863L58.2474 52.8424ZM59.0806 52.5997C59.291 52.5997 59.4343 52.6623 59.5488 52.7733L60.2449 52.0554C59.9267 51.7468 59.5258 51.5997 59.0806 51.5997V52.5997ZM59.5488 52.7733C59.659 52.8802 59.7214 53.0151 59.7214 53.2208H60.7214C60.7214 52.7709 60.5674 52.3682 60.2449 52.0554L59.5488 52.7733ZM59.7214 53.2208C59.7214 53.4735 59.6604 53.841 59.5151 54.3399L60.4753 54.6194C60.6316 54.0824 60.7214 53.6106 60.7214 53.2208H59.7214ZM59.5137 54.345L58.8154 56.843L59.7785 57.1122L60.4767 54.6142L59.5137 54.345ZM59.7379 57.2133C60.797 55.2316 61.7739 53.8956 62.658 53.1508L62.0137 52.386C60.9833 53.2541 59.9343 54.7242 58.856 56.742L59.7379 57.2133ZM62.6573 53.1514C63.129 52.7554 63.5437 52.5997 63.9094 52.5997V51.5997C63.2392 51.5997 62.6048 51.8898 62.0144 52.3855L62.6573 53.1514ZM63.9094 52.5997C64.0802 52.5997 64.1879 52.6523 64.2765 52.7501L65.0175 52.0786C64.7258 51.7568 64.3418 51.5997 63.9094 51.5997V52.5997ZM64.2877 52.7621C64.3563 52.833 64.442 52.9983 64.442 53.3683H65.442C65.442 52.8729 65.331 52.4022 65.0063 52.0667L64.2877 52.7621ZM64.442 53.3683C64.442 53.6969 64.391 54.055 64.2831 54.4445L65.2469 54.7114C65.375 54.2487 65.442 53.8003 65.442 53.3683H64.442ZM64.2839 54.4419L63.202 58.2676L64.1643 58.5397L65.2461 54.714L64.2839 54.4419ZM63.2021 58.2673C63.0837 58.6851 62.9938 59.0137 62.9332 59.2511C62.903 59.3694 62.879 59.4692 62.8622 59.5479C62.8496 59.6072 62.8291 59.7056 62.8291 59.7903H63.8291C63.8291 59.8292 63.8234 59.8354 63.8403 59.7562C63.853 59.6964 63.8733 59.6113 63.9021 59.4985C63.9595 59.2737 64.0466 58.9549 64.1642 58.54L63.2021 58.2673ZM62.8291 59.7903C62.8291 60.0001 62.9007 60.1995 63.046 60.3609L63.7893 59.6919C63.7995 59.7032 63.8111 59.7205 63.8194 59.7426C63.8276 59.7644 63.8291 59.7818 63.8291 59.7903H62.8291ZM63.038 60.3518C63.1811 60.5187 63.3775 60.5952 63.575 60.5952V59.5952C63.6012 59.5952 63.6414 59.6 63.6869 59.6199C63.7335 59.6403 63.7708 59.67 63.7973 59.701L63.038 60.3518ZM63.575 60.5952C63.7392 60.5952 63.8772 60.5268 63.9488 60.4879C64.0374 60.4398 64.1297 60.3764 64.2218 60.3064L63.6167 59.5103C63.5819 59.5367 63.5521 59.558 63.527 59.5748C63.5017 59.5918 63.4835 59.6027 63.4717 59.6091C63.459 59.616 63.4592 59.6147 63.4701 59.6109C63.4761 59.6089 63.4876 59.6053 63.5038 59.602C63.5199 59.5988 63.5442 59.5952 63.575 59.5952V60.5952ZM64.2247 60.3042C64.6466 59.9785 65.0313 59.558 65.3822 59.0527L64.5608 58.4823C64.2561 58.9212 63.9392 59.2613 63.6137 59.5126L64.2247 60.3042ZM64.7031 59.1894L65.0276 59.3959L65.5645 58.5522L65.24 58.3457L64.7031 59.1894ZM64.8721 58.7091C64.7333 58.9311 64.467 59.2643 64.0518 59.7185L64.7898 60.3933C65.2137 59.9296 65.531 59.5415 65.7201 59.2391L64.8721 58.7091ZM64.0491 59.7214C63.6477 60.1674 63.3379 60.4297 63.1158 60.5531L63.6015 61.4272C63.9695 61.2228 64.3677 60.8622 64.7924 60.3904L64.0491 59.7214ZM63.1158 60.5531C62.8698 60.6898 62.6817 60.736 62.5424 60.736V61.736C62.9013 61.736 63.2574 61.6184 63.6015 61.4272L63.1158 60.5531ZM62.5424 60.736C62.4409 60.736 62.376 60.7068 62.3157 60.6464L61.6086 61.3536C61.8629 61.6079 62.1849 61.736 62.5424 61.736V60.736ZM62.3231 60.654C62.2666 60.5951 62.2359 60.5278 62.2359 60.4198H61.2359C61.2359 60.7706 61.356 61.0902 61.6011 61.346L62.3231 60.654ZM62.2359 60.4198C62.2359 60.1867 62.3475 59.6224 62.6203 58.6577L61.658 58.3856C61.3931 59.3223 61.2359 60.0234 61.2359 60.4198H62.2359ZM62.6202 58.658L63.5151 55.5011L62.5531 55.2284L61.6581 58.3853L62.6202 58.658ZM63.5157 55.4992C63.6174 55.1348 63.6958 54.8501 63.7506 54.6461C63.8012 54.4573 63.8402 54.3069 63.8518 54.2373L62.8654 54.0729C62.8661 54.0689 62.8622 54.0888 62.8461 54.1529C62.8319 54.2095 62.8115 54.2872 62.7847 54.387C62.7313 54.5861 62.654 54.8669 62.5525 55.2303L63.5157 55.4992ZM63.8525 54.2331C63.876 54.0845 63.8881 53.9371 63.8881 53.7912H62.8881C62.8881 53.8814 62.8806 53.9766 62.8648 54.0771L63.8525 54.2331ZM63.8881 53.7912C63.8881 53.5597 63.8376 53.3081 63.6731 53.0988L62.8868 53.7166C62.8665 53.6908 62.8881 53.695 62.8881 53.7912H63.8881ZM63.6596 53.0823C63.5096 52.9073 63.2916 52.77 63.0144 52.77V53.77C62.9823 53.77 62.9503 53.7617 62.9244 53.7483C62.901 53.7361 62.8941 53.7258 62.9003 53.7331L63.6596 53.0823ZM63.0144 52.77C62.5631 52.77 62.1557 53 61.8016 53.324L62.4767 54.0618C62.7389 53.8219 62.915 53.77 63.0144 53.77V52.77ZM61.8006 53.325C60.8408 54.2082 59.963 55.4275 59.1589 56.9619L60.0447 57.4261C60.8141 55.9577 61.6279 54.8428 62.4777 54.0608L61.8006 53.325ZM59.1588 56.9622C58.6205 57.9911 58.1243 59.2933 57.6664 60.8597L58.6262 61.1403C59.073 59.612 59.5472 58.3769 60.0448 57.4258L59.1588 56.9622ZM58.1463 60.5H56.6613V61.5H58.1463V60.5ZM57.1424 61.136L58.8241 55.186L57.8618 54.9141L56.1801 60.864L57.1424 61.136ZM58.8237 55.1874C59.0035 54.5582 59.1183 54.0603 59.1183 53.7617H58.1183C58.1183 53.8958 58.0496 54.2569 57.8622 54.9127L58.8237 55.1874ZM59.1183 53.7617C59.1183 53.5318 59.074 53.2606 58.8919 53.0454L58.1285 53.6913C58.1086 53.6678 58.1063 53.6527 58.1092 53.6632C58.1124 53.6748 58.1183 53.7053 58.1183 53.7617H59.1183ZM58.8919 53.0454C58.7317 52.8561 58.5071 52.7405 58.2446 52.7405V53.7405C58.2272 53.7405 58.2007 53.7364 58.1728 53.7229C58.1457 53.7099 58.1316 53.695 58.1285 53.6913L58.8919 53.0454ZM58.2446 52.7405C57.9042 52.7405 57.5811 52.8644 57.2841 53.057L57.8283 53.896C58.0165 53.7739 58.1523 53.7405 58.2446 53.7405V52.7405ZM57.2837 53.0573C56.8091 53.3658 56.2559 53.9781 55.6303 54.8209L56.4333 55.4169C57.0535 54.5812 57.5166 54.0986 57.8287 53.8957L57.2837 53.0573ZM55.6288 54.8229C54.9961 55.6845 54.4976 56.5187 54.1391 57.3253L55.0529 57.7314C55.3763 57.0039 55.8349 56.2317 56.4348 55.4148L55.6288 54.8229ZM54.1408 57.3215C53.961 57.7169 53.5602 58.9114 52.9488 60.8496L53.9025 61.1504C54.5237 59.181 54.9031 58.061 55.0512 57.7353L54.1408 57.3215ZM53.4257 60.5H51.9701V61.5H53.4257V60.5ZM52.4509 61.1373L54.2703 54.7644L53.3088 54.4899L51.4893 60.8627L52.4509 61.1373ZM54.2703 54.7645L54.5063 53.9384L53.5448 53.6637L53.3088 54.4898L54.2703 54.7645ZM54.4947 53.9739C54.5419 53.8458 54.5944 53.6811 54.5944 53.5257H53.5944C53.5944 53.517 53.5948 53.5106 53.5952 53.5068C53.5955 53.503 53.5958 53.5009 53.5958 53.5009C53.5958 53.5008 53.5956 53.5021 53.595 53.5051C53.5944 53.508 53.5935 53.5121 53.5921 53.5175C53.5864 53.5406 53.5754 53.5766 53.5564 53.6282L54.4947 53.9739ZM54.5944 53.5257C54.5944 53.2062 54.4407 52.9474 54.2215 52.7612L53.5739 53.5231C53.5991 53.5446 53.6028 53.5546 53.6003 53.5498C53.5991 53.5474 53.5974 53.5432 53.596 53.5377C53.5947 53.5322 53.5944 53.5279 53.5944 53.5257H54.5944ZM54.2322 52.7705C53.9954 52.5573 53.7029 52.4651 53.3962 52.4651V53.4651C53.4959 53.4651 53.5378 53.4909 53.5632 53.5138L54.2322 52.7705ZM53.3962 52.4651C53.306 52.4651 53.1861 52.4826 53.073 52.5014C52.9466 52.5225 52.7844 52.5533 52.5884 52.5932L52.7877 53.5731C52.9785 53.5343 53.1277 53.5061 53.2374 53.4878C53.3603 53.4673 53.4011 53.4651 53.3962 53.4651V52.4651ZM53.1739 52.9649L53.0854 52.6011L52.1137 52.8374L52.2022 53.2013L53.1739 52.9649ZM52.6894 53.2111L56.0823 52.5915L55.9027 51.6078L52.5097 52.2274L52.6894 53.2111Z" fill="#0000FF" mask="url(#path-3-outside-1_98_943)"/>
<mask id="path-5-outside-2_98_943" maskUnits="userSpaceOnUse" x="24" y="34" width="32" height="15" fill="black">
<rect fill="white" x="24" y="34" width="32" height="15"/>
<path d="M27.5114 35.7684L30.5405 34.8833C30.7831 35.1849 30.9535 35.4701 31.0519 35.7389C31.2289 36.2044 31.3535 36.8469 31.4256 37.6665C31.5633 39.2794 31.6583 41.0004 31.7108 42.8297C32.4123 41.9052 33.2155 40.6825 34.1203 39.1614C34.3956 38.7024 34.5333 38.2697 34.5333 37.8632C34.5333 37.6075 34.3727 37.3649 34.0514 37.1354C33.7367 36.906 33.54 36.7289 33.4614 36.6044C33.3827 36.4732 33.3433 36.306 33.3433 36.1028C33.3433 35.775 33.4614 35.4898 33.6974 35.2472C33.94 35.0046 34.2317 34.8833 34.5727 34.8833C34.9333 34.8833 35.2447 35.021 35.507 35.2963C35.7758 35.5717 35.9102 35.8963 35.9102 36.27C35.9102 36.7093 35.7856 37.2207 35.5365 37.8042C35.2939 38.3811 34.7202 39.3744 33.8154 40.7841C32.6549 42.5871 31.5174 44.1475 30.4028 45.4654C29.6881 46.3046 29.1112 46.9078 28.6719 47.2749C28.2326 47.6486 27.7769 47.9437 27.3049 48.16C27.0229 48.2846 26.7443 48.3469 26.4689 48.3469C26.0952 48.3469 25.7772 48.2158 25.515 47.9535C25.2462 47.6913 25.1118 47.3798 25.1118 47.0192C25.1118 46.6586 25.233 46.3538 25.4756 46.1046C25.7117 45.8555 25.9903 45.7309 26.3116 45.7309C26.7115 45.7309 27.0787 45.9407 27.4131 46.3603C27.636 46.6422 27.8196 46.7832 27.9638 46.7832C28.1146 46.7832 28.2621 46.7406 28.4064 46.6554C28.603 46.5504 28.8784 46.3079 29.2325 45.9276C29.2718 45.108 29.2915 44.4885 29.2915 44.0688C29.2915 43.505 29.2652 42.7117 29.2128 41.6889L29.0456 37.9419C28.9866 37.2534 28.8391 36.7584 28.603 36.4568C28.4195 36.2339 28.1802 36.1225 27.8851 36.1225C27.7737 36.1225 27.6491 36.1323 27.5114 36.152V35.7684ZM45.5973 35.021L43.6894 41.561L43.4927 42.3576C43.473 42.456 43.4632 42.5281 43.4632 42.574C43.4632 42.6527 43.4894 42.7215 43.5419 42.7805C43.6009 42.8395 43.6599 42.869 43.7189 42.869C43.8566 42.869 44.0467 42.7641 44.2893 42.5543C44.3876 42.4691 44.6237 42.1675 44.9974 41.6495L45.3416 41.8265C44.8761 42.6789 44.3778 43.3017 43.8467 43.6951C43.3222 44.082 42.7551 44.2754 42.1453 44.2754C41.7716 44.2754 41.4864 44.1803 41.2897 43.9902C41.093 43.7935 40.9947 43.5476 40.9947 43.2526C40.9947 42.9969 41.0996 42.5215 41.3094 41.8265L41.5454 41.0299C40.7849 42.3347 40.0538 43.2591 39.3523 43.8033C38.9458 44.118 38.5131 44.2754 38.0541 44.2754C37.4509 44.2754 37.0149 44.0295 36.7461 43.5378C36.4773 43.0395 36.3429 42.4789 36.3429 41.856C36.3429 40.9316 36.6248 39.8727 37.1887 38.6795C37.7525 37.4796 38.4934 36.5158 39.4113 35.7881C40.1653 35.1849 40.8734 34.8833 41.5356 34.8833C41.9027 34.8833 42.1978 34.9915 42.4207 35.2078C42.6436 35.4176 42.8075 35.8045 42.9124 36.3683L43.2665 35.1587L45.5973 35.021ZM42.4502 36.8896C42.4502 36.3585 42.3683 35.9749 42.2043 35.7389C42.0863 35.575 41.9257 35.493 41.7224 35.493C41.5192 35.493 41.3094 35.5914 41.093 35.7881C40.6537 36.1946 40.1784 37.0207 39.667 38.2664C39.1622 39.5056 38.9097 40.5775 38.9097 41.4823C38.9097 41.8298 38.9655 42.0822 39.0769 42.2396C39.1949 42.3904 39.3228 42.4658 39.4605 42.4658C39.7555 42.4658 40.0538 42.2953 40.3554 41.9544C40.7882 41.4692 41.1783 40.8759 41.5258 40.1743C42.1421 38.9417 42.4502 37.8468 42.4502 36.8896ZM47.2397 35.434L50.4949 34.8833H51.085L50.6425 36.4863C51.3309 35.8569 51.8947 35.434 52.334 35.2177C52.7733 34.9948 53.2093 34.8833 53.642 34.8833C54.2583 34.8833 54.7337 35.1226 55.068 35.6012C55.4024 36.0733 55.5696 36.6535 55.5696 37.342C55.5696 39.2236 54.9172 40.8923 53.6125 42.3478C52.4586 43.6328 51.1998 44.2754 49.836 44.2754C49.5934 44.2754 49.3869 44.2524 49.2164 44.2065C49.046 44.1606 48.8067 44.059 48.4985 43.9017L47.9871 45.6719C47.8035 46.3144 47.7117 46.8029 47.7117 47.1372C47.7117 47.3471 47.7839 47.511 47.9281 47.629C48.0723 47.7536 48.41 47.8585 48.9411 47.9437L48.8526 48.3076H43.5615L43.6599 47.9437C44.0795 47.9306 44.4302 47.7962 44.7122 47.5405C44.9875 47.2848 45.2465 46.734 45.4891 45.8882L47.8888 37.6173C48.0658 37.001 48.1543 36.565 48.1543 36.3093C48.1543 36.1979 48.1281 36.1061 48.0756 36.0339C48.0232 35.9553 47.9445 35.8995 47.8396 35.8668C47.7347 35.834 47.4987 35.8176 47.1315 35.8176L47.2397 35.434ZM48.7739 42.987C48.9706 43.3083 49.1476 43.5247 49.3049 43.6361C49.4623 43.741 49.6459 43.7935 49.8557 43.7935C50.0655 43.7935 50.2687 43.7377 50.4654 43.6263C50.6687 43.5083 50.9178 43.2755 51.2129 42.928C51.5079 42.5805 51.7898 42.1347 52.0586 41.5905C52.334 41.0463 52.5537 40.43 52.7176 39.7416C52.8815 39.0466 52.9634 38.3844 52.9634 37.755C52.9634 37.2502 52.8716 36.883 52.6881 36.6535C52.511 36.4241 52.2947 36.3093 52.039 36.3093C51.8095 36.3093 51.5931 36.3683 51.3899 36.4863C51.0949 36.6568 50.7474 36.9748 50.3474 37.4403L48.7739 42.987Z"/>
</mask>
<path d="M27.5114 35.7684L30.5405 34.8833C30.7831 35.1849 30.9535 35.4701 31.0519 35.7389C31.2289 36.2044 31.3535 36.8469 31.4256 37.6665C31.5633 39.2794 31.6583 41.0004 31.7108 42.8297C32.4123 41.9052 33.2155 40.6825 34.1203 39.1614C34.3956 38.7024 34.5333 38.2697 34.5333 37.8632C34.5333 37.6075 34.3727 37.3649 34.0514 37.1354C33.7367 36.906 33.54 36.7289 33.4614 36.6044C33.3827 36.4732 33.3433 36.306 33.3433 36.1028C33.3433 35.775 33.4614 35.4898 33.6974 35.2472C33.94 35.0046 34.2317 34.8833 34.5727 34.8833C34.9333 34.8833 35.2447 35.021 35.507 35.2963C35.7758 35.5717 35.9102 35.8963 35.9102 36.27C35.9102 36.7093 35.7856 37.2207 35.5365 37.8042C35.2939 38.3811 34.7202 39.3744 33.8154 40.7841C32.6549 42.5871 31.5174 44.1475 30.4028 45.4654C29.6881 46.3046 29.1112 46.9078 28.6719 47.2749C28.2326 47.6486 27.7769 47.9437 27.3049 48.16C27.0229 48.2846 26.7443 48.3469 26.4689 48.3469C26.0952 48.3469 25.7772 48.2158 25.515 47.9535C25.2462 47.6913 25.1118 47.3798 25.1118 47.0192C25.1118 46.6586 25.233 46.3538 25.4756 46.1046C25.7117 45.8555 25.9903 45.7309 26.3116 45.7309C26.7115 45.7309 27.0787 45.9407 27.4131 46.3603C27.636 46.6422 27.8196 46.7832 27.9638 46.7832C28.1146 46.7832 28.2621 46.7406 28.4064 46.6554C28.603 46.5504 28.8784 46.3079 29.2325 45.9276C29.2718 45.108 29.2915 44.4885 29.2915 44.0688C29.2915 43.505 29.2652 42.7117 29.2128 41.6889L29.0456 37.9419C28.9866 37.2534 28.8391 36.7584 28.603 36.4568C28.4195 36.2339 28.1802 36.1225 27.8851 36.1225C27.7737 36.1225 27.6491 36.1323 27.5114 36.152V35.7684ZM45.5973 35.021L43.6894 41.561L43.4927 42.3576C43.473 42.456 43.4632 42.5281 43.4632 42.574C43.4632 42.6527 43.4894 42.7215 43.5419 42.7805C43.6009 42.8395 43.6599 42.869 43.7189 42.869C43.8566 42.869 44.0467 42.7641 44.2893 42.5543C44.3876 42.4691 44.6237 42.1675 44.9974 41.6495L45.3416 41.8265C44.8761 42.6789 44.3778 43.3017 43.8467 43.6951C43.3222 44.082 42.7551 44.2754 42.1453 44.2754C41.7716 44.2754 41.4864 44.1803 41.2897 43.9902C41.093 43.7935 40.9947 43.5476 40.9947 43.2526C40.9947 42.9969 41.0996 42.5215 41.3094 41.8265L41.5454 41.0299C40.7849 42.3347 40.0538 43.2591 39.3523 43.8033C38.9458 44.118 38.5131 44.2754 38.0541 44.2754C37.4509 44.2754 37.0149 44.0295 36.7461 43.5378C36.4773 43.0395 36.3429 42.4789 36.3429 41.856C36.3429 40.9316 36.6248 39.8727 37.1887 38.6795C37.7525 37.4796 38.4934 36.5158 39.4113 35.7881C40.1653 35.1849 40.8734 34.8833 41.5356 34.8833C41.9027 34.8833 42.1978 34.9915 42.4207 35.2078C42.6436 35.4176 42.8075 35.8045 42.9124 36.3683L43.2665 35.1587L45.5973 35.021ZM42.4502 36.8896C42.4502 36.3585 42.3683 35.9749 42.2043 35.7389C42.0863 35.575 41.9257 35.493 41.7224 35.493C41.5192 35.493 41.3094 35.5914 41.093 35.7881C40.6537 36.1946 40.1784 37.0207 39.667 38.2664C39.1622 39.5056 38.9097 40.5775 38.9097 41.4823C38.9097 41.8298 38.9655 42.0822 39.0769 42.2396C39.1949 42.3904 39.3228 42.4658 39.4605 42.4658C39.7555 42.4658 40.0538 42.2953 40.3554 41.9544C40.7882 41.4692 41.1783 40.8759 41.5258 40.1743C42.1421 38.9417 42.4502 37.8468 42.4502 36.8896ZM47.2397 35.434L50.4949 34.8833H51.085L50.6425 36.4863C51.3309 35.8569 51.8947 35.434 52.334 35.2177C52.7733 34.9948 53.2093 34.8833 53.642 34.8833C54.2583 34.8833 54.7337 35.1226 55.068 35.6012C55.4024 36.0733 55.5696 36.6535 55.5696 37.342C55.5696 39.2236 54.9172 40.8923 53.6125 42.3478C52.4586 43.6328 51.1998 44.2754 49.836 44.2754C49.5934 44.2754 49.3869 44.2524 49.2164 44.2065C49.046 44.1606 48.8067 44.059 48.4985 43.9017L47.9871 45.6719C47.8035 46.3144 47.7117 46.8029 47.7117 47.1372C47.7117 47.3471 47.7839 47.511 47.9281 47.629C48.0723 47.7536 48.41 47.8585 48.9411 47.9437L48.8526 48.3076H43.5615L43.6599 47.9437C44.0795 47.9306 44.4302 47.7962 44.7122 47.5405C44.9875 47.2848 45.2465 46.734 45.4891 45.8882L47.8888 37.6173C48.0658 37.001 48.1543 36.565 48.1543 36.3093C48.1543 36.1979 48.1281 36.1061 48.0756 36.0339C48.0232 35.9553 47.9445 35.8995 47.8396 35.8668C47.7347 35.834 47.4987 35.8176 47.1315 35.8176L47.2397 35.434ZM48.7739 42.987C48.9706 43.3083 49.1476 43.5247 49.3049 43.6361C49.4623 43.741 49.6459 43.7935 49.8557 43.7935C50.0655 43.7935 50.2687 43.7377 50.4654 43.6263C50.6687 43.5083 50.9178 43.2755 51.2129 42.928C51.5079 42.5805 51.7898 42.1347 52.0586 41.5905C52.334 41.0463 52.5537 40.43 52.7176 39.7416C52.8815 39.0466 52.9634 38.3844 52.9634 37.755C52.9634 37.2502 52.8716 36.883 52.6881 36.6535C52.511 36.4241 52.2947 36.3093 52.039 36.3093C51.8095 36.3093 51.5931 36.3683 51.3899 36.4863C51.0949 36.6568 50.7474 36.9748 50.3474 37.4403L48.7739 42.987Z" fill="#0000FF"/>
<path d="M27.5114 35.7684L27.4553 35.5764L27.3114 35.6185V35.7684H27.5114ZM30.5405 34.8833L30.6963 34.7579L30.6126 34.6539L30.4844 34.6913L30.5405 34.8833ZM31.0519 35.7389L30.864 35.8076L30.8649 35.81L31.0519 35.7389ZM31.4256 37.6665L31.6249 37.6495L31.6248 37.649L31.4256 37.6665ZM31.7108 42.8297L31.5109 42.8354L31.5271 43.4025L31.8701 42.9506L31.7108 42.8297ZM34.1203 39.1614L33.9488 39.0585L33.9484 39.0591L34.1203 39.1614ZM34.0514 37.1354L33.9336 37.297L33.9352 37.2982L34.0514 37.1354ZM33.4614 36.6044L33.2898 36.7073L33.2923 36.7112L33.4614 36.6044ZM33.6974 35.2472L33.556 35.1057L33.554 35.1077L33.6974 35.2472ZM35.507 35.2963L35.3621 35.4343L35.3638 35.4361L35.507 35.2963ZM35.5365 37.8042L35.3525 37.7256L35.3521 37.7267L35.5365 37.8042ZM33.8154 40.7841L33.9836 40.8923L33.9837 40.8921L33.8154 40.7841ZM30.4028 45.4654L30.5551 45.595L30.5555 45.5945L30.4028 45.4654ZM28.6719 47.2749L28.5436 47.1215L28.5423 47.1226L28.6719 47.2749ZM27.3049 48.16L27.3857 48.343L27.3882 48.3419L27.3049 48.16ZM25.515 47.9535L25.6564 47.8121L25.6546 47.8104L25.515 47.9535ZM25.4756 46.1046L25.6189 46.2441L25.6208 46.2422L25.4756 46.1046ZM27.4131 46.3603L27.5699 46.2363L27.5695 46.2357L27.4131 46.3603ZM28.4064 46.6554L28.3121 46.4787L28.3046 46.4832L28.4064 46.6554ZM29.2325 45.9276L29.3788 46.0639L29.4287 46.0103L29.4322 45.9372L29.2325 45.9276ZM29.2128 41.6889L29.013 41.6978L29.0131 41.6991L29.2128 41.6889ZM29.0456 37.9419L29.2456 37.9329L29.2449 37.9248L29.0456 37.9419ZM28.603 36.4568L28.7606 36.3335L28.7574 36.3297L28.603 36.4568ZM27.5114 36.152H27.3114V36.3826L27.5397 36.35L27.5114 36.152ZM27.5675 35.9604L30.5966 35.0753L30.4844 34.6913L27.4553 35.5764L27.5675 35.9604ZM30.3846 35.0086C30.618 35.2988 30.7753 35.5651 30.864 35.8076L31.2397 35.6702C31.1317 35.3751 30.9481 35.071 30.6963 34.7579L30.3846 35.0086ZM30.8649 35.81C31.0326 36.2508 31.1549 36.8725 31.2264 37.684L31.6248 37.649C31.552 36.8213 31.4252 36.158 31.2388 35.6678L30.8649 35.81ZM31.2263 37.6835C31.3636 39.2922 31.4585 41.0095 31.5109 42.8354L31.9107 42.8239C31.8582 40.9914 31.7629 39.2666 31.6249 37.6495L31.2263 37.6835ZM31.8701 42.9506C32.5779 42.0179 33.3853 40.7882 34.2922 39.2636L33.9484 39.0591C33.0457 40.5767 32.2468 41.7925 31.5515 42.7088L31.8701 42.9506ZM34.2918 39.2643C34.58 38.7838 34.7333 38.3157 34.7333 37.8632H34.3333C34.3333 38.2237 34.2112 38.621 33.9488 39.0585L34.2918 39.2643ZM34.7333 37.8632C34.7333 37.5136 34.512 37.2186 34.1677 36.9727L33.9352 37.2982C34.2334 37.5112 34.3333 37.7014 34.3333 37.8632H34.7333ZM34.1693 36.9738C34.0151 36.8614 33.8932 36.7642 33.8017 36.6819C33.708 36.5976 33.6551 36.5367 33.6305 36.4976L33.2923 36.7112C33.3462 36.7966 33.4311 36.8865 33.5341 36.9792C33.6393 37.0739 33.773 37.1799 33.9336 37.297L34.1693 36.9738ZM33.6329 36.5015C33.578 36.41 33.5433 36.2814 33.5433 36.1028H33.1433C33.1433 36.3307 33.1874 36.5364 33.2899 36.7073L33.6329 36.5015ZM33.5433 36.1028C33.5433 35.8289 33.6397 35.5932 33.8407 35.3866L33.554 35.1077C33.283 35.3863 33.1433 35.721 33.1433 36.1028H33.5433ZM33.8388 35.3886C34.0442 35.1833 34.2851 35.0833 34.5727 35.0833V34.6833C34.1783 34.6833 33.8358 34.8259 33.556 35.1058L33.8388 35.3886ZM34.5727 35.0833C34.8753 35.0833 35.1353 35.1961 35.3621 35.4343L35.6518 35.1584C35.3541 34.8458 34.9913 34.6833 34.5727 34.6833V35.0833ZM35.3638 35.4361C35.5974 35.6753 35.7102 35.9502 35.7102 36.27H36.1102C36.1102 35.8423 35.9541 35.4681 35.6501 35.1566L35.3638 35.4361ZM35.7102 36.27C35.7102 36.6731 35.5954 37.1568 35.3525 37.7256L35.7204 37.8827C35.9758 37.2845 36.1102 36.7454 36.1102 36.27H35.7102ZM35.3521 37.7267C35.1171 38.2855 34.5527 39.2652 33.6471 40.676L33.9837 40.8921C34.8877 39.4837 35.4706 38.4768 35.7208 37.8817L35.3521 37.7267ZM33.6472 40.6758C32.4904 42.4732 31.3579 44.0264 30.2501 45.3362L30.5555 45.5945C31.6768 44.2687 32.8195 42.701 33.9836 40.8923L33.6472 40.6758ZM30.2505 45.3357C29.5378 46.1726 28.9696 46.7654 28.5436 47.1215L28.8001 47.4284C29.2527 47.0501 29.8385 46.4365 30.5551 45.595L30.2505 45.3357ZM28.5423 47.1226C28.1155 47.4857 27.6752 47.7703 27.2215 47.9782L27.3882 48.3419C27.8787 48.1171 28.3497 47.8116 28.8015 47.4273L28.5423 47.1226ZM27.224 47.9771C26.9645 48.0918 26.7133 48.1469 26.4689 48.1469V48.5469C26.7753 48.5469 27.0814 48.4775 27.3857 48.343L27.224 47.9771ZM26.4689 48.1469C26.1478 48.1469 25.8808 48.0365 25.6564 47.8121L25.3735 48.0949C25.6736 48.395 26.0426 48.5469 26.4689 48.5469V48.1469ZM25.6546 47.8104C25.4226 47.584 25.3118 47.3235 25.3118 47.0192H24.9118C24.9118 47.4362 25.0697 47.7985 25.3753 48.0967L25.6546 47.8104ZM25.3118 47.0192C25.3118 46.7086 25.4142 46.4544 25.6189 46.2441L25.3323 45.9651C25.0519 46.2531 24.9118 46.6087 24.9118 47.0192H25.3118ZM25.6208 46.2422C25.822 46.0298 26.0493 45.9309 26.3116 45.9309V45.5309C25.9313 45.5309 25.6014 45.6811 25.3304 45.9671L25.6208 46.2422ZM26.3116 45.9309C26.6314 45.9309 26.9463 46.0956 27.2566 46.485L27.5695 46.2357C27.211 45.7859 26.7916 45.5309 26.3116 45.5309V45.9309ZM27.2562 46.4844C27.3729 46.632 27.4862 46.7517 27.5961 46.8361C27.7033 46.9184 27.8281 46.9832 27.9638 46.9832V46.5832C27.9553 46.5832 27.9162 46.5775 27.8397 46.5188C27.7661 46.4623 27.6761 46.3706 27.5699 46.2363L27.2562 46.4844ZM27.9638 46.9832C28.1543 46.9832 28.3366 46.9289 28.5081 46.8275L28.3046 46.4832C28.1877 46.5523 28.0749 46.5832 27.9638 46.5832V46.9832ZM28.5005 46.8318C28.7294 46.7097 29.0244 46.4445 29.3788 46.0639L29.0861 45.7913C28.7324 46.1712 28.4767 46.3912 28.3122 46.4789L28.5005 46.8318ZM29.4322 45.9372C29.4716 45.1168 29.4915 44.4934 29.4915 44.0688H29.0915C29.0915 44.4835 29.072 45.0992 29.0327 45.918L29.4322 45.9372ZM29.4915 44.0688C29.4915 43.4999 29.465 42.7026 29.4125 41.6786L29.0131 41.6991C29.0654 42.7208 29.0915 43.5101 29.0915 44.0688H29.4915ZM29.4126 41.6799L29.2454 37.933L28.8458 37.9508L29.013 41.6978L29.4126 41.6799ZM29.2449 37.9248C29.1849 37.2246 29.033 36.6817 28.7605 36.3336L28.4455 36.5801C28.6451 36.8351 28.7883 37.2823 28.8463 37.9589L29.2449 37.9248ZM28.7574 36.3297C28.5349 36.0595 28.2384 35.9225 27.8851 35.9225V36.3225C28.1219 36.3225 28.304 36.4083 28.4487 36.584L28.7574 36.3297ZM27.8851 35.9225C27.7622 35.9225 27.628 35.9333 27.4831 35.954L27.5397 36.35C27.6702 36.3313 27.7851 36.3225 27.8851 36.3225V35.9225ZM27.7114 36.152V35.7684H27.3114V36.152H27.7114ZM45.5973 35.021L45.7893 35.077L45.8688 34.8046L45.5855 34.8213L45.5973 35.021ZM43.6894 41.561L43.4972 41.505L43.4952 41.5131L43.6894 41.561ZM43.4927 42.3576L43.2983 42.3096L43.2966 42.3184L43.4927 42.3576ZM43.5419 42.7805L43.3921 42.9136L43.4004 42.9219L43.5419 42.7805ZM44.2893 42.5543L44.4201 42.7056L44.4203 42.7054L44.2893 42.5543ZM44.9974 41.6495L45.0888 41.4717L44.9359 41.393L44.8352 41.5325L44.9974 41.6495ZM45.3416 41.8265L45.5171 41.9224L45.6154 41.7425L45.4331 41.6487L45.3416 41.8265ZM43.8467 43.6951L43.9654 43.8561L43.9658 43.8558L43.8467 43.6951ZM41.2897 43.9902L41.1483 44.1316L41.1507 44.134L41.2897 43.9902ZM41.3094 41.8265L41.5009 41.8843L41.5012 41.8834L41.3094 41.8265ZM41.5454 41.0299L41.7372 41.0868L41.3726 40.9292L41.5454 41.0299ZM39.3523 43.8033L39.4747 43.9615L39.4749 43.9613L39.3523 43.8033ZM36.7461 43.5378L36.5701 43.6327L36.5706 43.6337L36.7461 43.5378ZM37.1887 38.6795L37.3695 38.7649L37.3697 38.7645L37.1887 38.6795ZM39.4113 35.7881L39.5356 35.9448L39.5362 35.9443L39.4113 35.7881ZM42.4207 35.2078L42.2814 35.3514L42.2836 35.3535L42.4207 35.2078ZM42.9124 36.3683L42.7158 36.4049L43.1044 36.4245L42.9124 36.3683ZM43.2665 35.1587L43.2547 34.959L43.1141 34.9673L43.0745 35.1025L43.2665 35.1587ZM42.2043 35.7389L42.3686 35.6248L42.3666 35.622L42.2043 35.7389ZM41.093 35.7881L40.9585 35.6401L40.9572 35.6413L41.093 35.7881ZM39.667 38.2664L39.482 38.1905L39.4818 38.1909L39.667 38.2664ZM39.0769 42.2396L38.9135 42.3553L38.9194 42.3629L39.0769 42.2396ZM40.3554 41.9544L40.2062 41.8213L40.2056 41.8219L40.3554 41.9544ZM41.5258 40.1743L41.3469 40.0849L41.3465 40.0856L41.5258 40.1743ZM45.4053 34.965L43.4974 41.505L43.8814 41.617L45.7893 35.077L45.4053 34.965ZM43.4952 41.5131L43.2985 42.3097L43.6868 42.4056L43.8835 41.609L43.4952 41.5131ZM43.2966 42.3184C43.2766 42.4182 43.2632 42.5069 43.2632 42.574H43.6632C43.6632 42.5493 43.6694 42.4937 43.6888 42.3968L43.2966 42.3184ZM43.2632 42.574C43.2632 42.7018 43.3075 42.8179 43.3924 42.9134L43.6913 42.6476C43.6713 42.6251 43.6632 42.6035 43.6632 42.574H43.2632ZM43.4004 42.9219C43.4812 43.0027 43.5881 43.069 43.7189 43.069V42.669C43.7239 42.669 43.7249 42.6705 43.7198 42.668C43.7138 42.665 43.7014 42.6572 43.6833 42.6391L43.4004 42.9219ZM43.7189 43.069C43.8356 43.069 43.9521 43.0257 44.0614 42.9655C44.1729 42.9039 44.2928 42.8157 44.4201 42.7056L44.1585 42.403C44.0432 42.5027 43.9467 42.5719 43.8681 42.6152C43.7872 42.6599 43.7398 42.669 43.7189 42.669V43.069ZM44.4203 42.7054C44.4864 42.6481 44.5814 42.5359 44.6976 42.3874C44.8179 42.2337 44.972 42.0264 45.1596 41.7665L44.8352 41.5325C44.649 41.7906 44.4983 41.9931 44.3826 42.1409C44.2627 42.2941 44.1905 42.3753 44.1583 42.4032L44.4203 42.7054ZM44.9059 41.8274L45.2501 42.0044L45.4331 41.6487L45.0888 41.4717L44.9059 41.8274ZM45.1661 41.7307C44.7085 42.5685 44.2271 43.1644 43.7277 43.5344L43.9658 43.8558C44.5285 43.439 45.0437 42.7892 45.5171 41.9224L45.1661 41.7307ZM43.728 43.5342C43.2354 43.8975 42.7093 44.0754 42.1453 44.0754V44.4754C42.8008 44.4754 43.4091 44.2664 43.9654 43.8561L43.728 43.5342ZM42.1453 44.0754C41.8041 44.0754 41.5762 43.9889 41.4287 43.8464L41.1507 44.134C41.3966 44.3717 41.7391 44.4754 42.1453 44.4754V44.0754ZM41.4311 43.8487C41.2744 43.692 41.1947 43.4981 41.1947 43.2526H40.7947C40.7947 43.5971 40.9116 43.8949 41.1483 44.1316L41.4311 43.8487ZM41.1947 43.2526C41.1947 43.0309 41.2899 42.5831 41.5009 41.8843L41.1179 41.7687C40.9093 42.4599 40.7947 42.9628 40.7947 43.2526H41.1947ZM41.5012 41.8834L41.7372 41.0868L41.3537 40.9731L41.1176 41.7697L41.5012 41.8834ZM41.3726 40.9292C40.6172 42.2251 39.9016 43.1241 39.2297 43.6453L39.4749 43.9613C40.2061 43.3942 40.9525 42.4442 41.7182 41.1307L41.3726 40.9292ZM39.2299 43.6452C38.854 43.9362 38.4635 44.0754 38.0541 44.0754V44.4754C38.5627 44.4754 39.0376 44.2999 39.4747 43.9615L39.2299 43.6452ZM38.0541 44.0754C37.7799 44.0754 37.5554 44.0196 37.373 43.9168C37.1913 43.8143 37.0403 43.6589 36.9216 43.4418L36.5706 43.6337C36.7208 43.9083 36.9221 44.1218 37.1765 44.2652C37.4301 44.4082 37.7252 44.4754 38.0541 44.4754V44.0754ZM36.9221 43.4428C36.6706 42.9765 36.5429 42.4491 36.5429 41.856H36.1429C36.1429 42.5087 36.284 43.1024 36.5701 43.6327L36.9221 43.4428ZM36.5429 41.856C36.5429 40.971 36.8133 39.9421 37.3695 38.7649L37.0079 38.594C36.4364 39.8034 36.1429 40.8922 36.1429 41.856H36.5429ZM37.3697 38.7645C37.9221 37.5889 38.6449 36.651 39.5356 35.9448L39.2871 35.6314C38.3419 36.3807 37.5829 37.3703 37.0077 38.5944L37.3697 38.7645ZM39.5362 35.9443C40.2705 35.3568 40.9355 35.0833 41.5356 35.0833V34.6833C40.8113 34.6833 40.0601 35.0129 39.2864 35.6319L39.5362 35.9443ZM41.5356 35.0833C41.8609 35.0833 42.1025 35.1777 42.2814 35.3514L42.56 35.0643C42.2931 34.8052 41.9446 34.6833 41.5356 34.6833V35.0833ZM42.2836 35.3535C42.4585 35.518 42.6128 35.8514 42.7158 36.4049L43.1091 36.3317C43.0022 35.7575 42.8288 35.3172 42.5578 35.0622L42.2836 35.3535ZM43.1044 36.4245L43.4584 35.2148L43.0745 35.1025L42.7205 36.3121L43.1044 36.4245ZM43.2783 35.3583L45.6091 35.2206L45.5855 34.8213L43.2547 34.959L43.2783 35.3583ZM42.6502 36.8896C42.6502 36.3475 42.5684 35.9125 42.3686 35.6248L42.0401 35.853C42.1681 36.0374 42.2502 36.3695 42.2502 36.8896H42.6502ZM42.3666 35.622C42.2108 35.4055 41.9895 35.293 41.7224 35.293V35.693C41.8619 35.693 41.9619 35.7445 42.042 35.8558L42.3666 35.622ZM41.7224 35.293C41.4514 35.293 41.1957 35.4245 40.9585 35.6401L41.2276 35.9361C41.4231 35.7583 41.587 35.693 41.7224 35.693V35.293ZM40.9572 35.6413C40.4829 36.0802 39.994 36.9433 39.482 38.1905L39.852 38.3424C40.3628 37.0981 40.8246 36.3089 41.2289 35.9349L40.9572 35.6413ZM39.4818 38.1909C38.9714 39.4436 38.7097 40.5424 38.7097 41.4823H39.1097C39.1097 40.6127 39.3529 39.5675 39.8522 38.3419L39.4818 38.1909ZM38.7097 41.4823C38.7097 41.8422 38.7657 42.1463 38.9137 42.3552L39.2401 42.124C39.1652 42.0182 39.1097 41.8174 39.1097 41.4823H38.7097ZM38.9194 42.3629C39.0597 42.542 39.2397 42.6658 39.4605 42.6658V42.2658C39.4059 42.2658 39.3302 42.2388 39.2344 42.1163L38.9194 42.3629ZM39.4605 42.6658C39.8378 42.6658 40.1862 42.4476 40.5052 42.0869L40.2056 41.8219C39.9215 42.1431 39.6732 42.2658 39.4605 42.2658V42.6658ZM40.5047 42.0875C40.9515 41.5866 41.3511 40.9775 41.705 40.2631L41.3465 40.0856C41.0054 40.7742 40.6248 41.3519 40.2062 41.8213L40.5047 42.0875ZM41.7046 40.2638C42.3292 39.0147 42.6502 37.8884 42.6502 36.8896H42.2502C42.2502 37.8052 41.955 38.8687 41.3469 40.0849L41.7046 40.2638ZM47.2397 35.434L47.2063 35.2368L47.0815 35.2579L47.0472 35.3797L47.2397 35.434ZM50.4949 34.8833V34.6833H50.4781L50.4616 34.6861L50.4949 34.8833ZM51.085 34.8833L51.2778 34.9365L51.3477 34.6833H51.085V34.8833ZM50.6425 36.4863L50.4497 36.4331L50.2648 37.1026L50.7774 36.6339L50.6425 36.4863ZM52.334 35.2177L52.4224 35.3971L52.4245 35.396L52.334 35.2177ZM55.068 35.6012L54.9041 35.7158L54.9048 35.7168L55.068 35.6012ZM53.6125 42.3478L53.7613 42.4814L53.7614 42.4813L53.6125 42.3478ZM48.4985 43.9017L48.5895 43.7235L48.3736 43.6133L48.3064 43.8461L48.4985 43.9017ZM47.9871 45.6719L47.795 45.6164L47.7948 45.6169L47.9871 45.6719ZM47.9281 47.629L48.0589 47.4776L48.0547 47.4742L47.9281 47.629ZM48.9411 47.9437L49.1354 47.991L49.1866 47.7805L48.9728 47.7462L48.9411 47.9437ZM48.8526 48.3076V48.5076H49.0097L49.0469 48.3548L48.8526 48.3076ZM43.5615 48.3076L43.3684 48.2554L43.3003 48.5076H43.5615V48.3076ZM43.6599 47.9437L43.6536 47.7438L43.5055 47.7484L43.4668 47.8915L43.6599 47.9437ZM44.7122 47.5405L44.8465 47.6886L44.8483 47.687L44.7122 47.5405ZM45.4891 45.8882L45.297 45.8325L45.2969 45.8331L45.4891 45.8882ZM47.8888 37.6173L48.0808 37.6731L48.081 37.6725L47.8888 37.6173ZM48.0756 36.0339L47.9091 36.145L47.9139 36.1516L48.0756 36.0339ZM47.1315 35.8176L46.939 35.7633L46.8673 36.0176H47.1315V35.8176ZM48.7739 42.987L48.5815 42.9324L48.5576 43.0167L48.6033 43.0915L48.7739 42.987ZM49.3049 43.6361L49.1893 43.7994L49.194 43.8025L49.3049 43.6361ZM50.4654 43.6263L50.564 43.8003L50.5659 43.7992L50.4654 43.6263ZM52.0586 41.5905L51.8802 41.5002L51.8793 41.5019L52.0586 41.5905ZM52.7176 39.7416L52.9121 39.7879L52.9122 39.7875L52.7176 39.7416ZM52.6881 36.6535L52.5297 36.7757L52.5319 36.7785L52.6881 36.6535ZM51.3899 36.4863L51.4899 36.6595L51.4903 36.6593L51.3899 36.4863ZM50.3474 37.4403L50.1957 37.31L50.167 37.3434L50.155 37.3857L50.3474 37.4403ZM47.273 35.6312L50.5283 35.0805L50.4616 34.6861L47.2063 35.2368L47.273 35.6312ZM50.4949 35.0833H51.085V34.6833H50.4949V35.0833ZM50.8922 34.8301L50.4497 36.4331L50.8352 36.5396L51.2778 34.9365L50.8922 34.8301ZM50.7774 36.6339C51.4621 36.008 52.0091 35.6006 52.4224 35.3971L52.2456 35.0383C51.7804 35.2674 51.1997 35.7059 50.5075 36.3387L50.7774 36.6339ZM52.4245 35.396C52.8397 35.1854 53.2449 35.0833 53.642 35.0833V34.6833C53.1737 34.6833 52.7069 34.8042 52.2435 35.0393L52.4245 35.396ZM53.642 35.0833C54.1973 35.0833 54.6095 35.2941 54.9041 35.7158L55.232 35.4867C54.8578 34.9511 54.3194 34.6833 53.642 34.6833V35.0833ZM54.9048 35.7168C55.211 36.1491 55.3696 36.6869 55.3696 37.342H55.7696C55.7696 36.6202 55.5938 35.9975 55.2312 35.4856L54.9048 35.7168ZM55.3696 37.342C55.3696 39.1723 54.7368 40.7939 53.4636 42.2143L53.7614 42.4813C55.0977 40.9906 55.7696 39.275 55.7696 37.342H55.3696ZM53.4637 42.2142C52.3369 43.469 51.1286 44.0754 49.836 44.0754V44.4754C51.2709 44.4754 52.5803 43.7967 53.7613 42.4814L53.4637 42.2142ZM49.836 44.0754C49.6049 44.0754 49.417 44.0534 49.2684 44.0134L49.1644 44.3997C49.3568 44.4515 49.5819 44.4754 49.836 44.4754V44.0754ZM49.2684 44.0134C49.1188 43.9731 48.8946 43.8794 48.5895 43.7235L48.4076 44.0798C48.7187 44.2387 48.9731 44.3481 49.1644 44.3997L49.2684 44.0134ZM48.3064 43.8461L47.795 45.6164L48.1792 45.7274L48.6907 43.9572L48.3064 43.8461ZM47.7948 45.6169C47.6101 46.2633 47.5117 46.7738 47.5117 47.1372H47.9117C47.9117 46.8319 47.9969 46.3656 48.1794 45.7268L47.7948 45.6169ZM47.5117 47.1372C47.5117 47.3985 47.6046 47.6227 47.8015 47.7838L48.0547 47.4742C47.9631 47.3992 47.9117 47.2956 47.9117 47.1372H47.5117ZM47.7974 47.7803C47.9012 47.87 48.0537 47.9373 48.2302 47.9921C48.4114 48.0484 48.6388 48.0977 48.9094 48.1412L48.9728 47.7462C48.7123 47.7044 48.5053 47.6587 48.3489 47.6101C48.1877 47.56 48.0992 47.5125 48.0588 47.4776L47.7974 47.7803ZM48.7467 47.8964L48.6582 48.2603L49.0469 48.3548L49.1354 47.991L48.7467 47.8964ZM48.8526 48.1076H43.5615V48.5076H48.8526V48.1076ZM43.7546 48.3598L43.8529 47.9959L43.4668 47.8915L43.3684 48.2554L43.7546 48.3598ZM43.6661 48.1436C44.128 48.1292 44.5257 47.9796 44.8465 47.6886L44.5778 47.3923C44.3348 47.6127 44.031 47.732 43.6536 47.7438L43.6661 48.1436ZM44.8483 47.687C45.0127 47.5343 45.1595 47.3067 45.2939 47.0207C45.4295 46.7325 45.5583 46.3724 45.6814 45.9434L45.2969 45.8331C45.1773 46.2498 45.0554 46.5881 44.9319 46.8505C44.8074 47.1153 44.687 47.2909 44.5761 47.3939L44.8483 47.687ZM45.6812 45.944L48.0808 37.6731L47.6967 37.5616L45.297 45.8325L45.6812 45.944ZM48.081 37.6725C48.2577 37.0573 48.3543 36.5965 48.3543 36.3093H47.9543C47.9543 36.5336 47.8739 36.9448 47.6965 37.5621L48.081 37.6725ZM48.3543 36.3093C48.3543 36.1663 48.3203 36.0303 48.2374 35.9163L47.9139 36.1516C47.9358 36.1818 47.9543 36.2294 47.9543 36.3093H48.3543ZM48.242 35.923C48.1602 35.8002 48.0404 35.72 47.8992 35.6759L47.7799 36.0577C47.8486 36.0791 47.8862 36.1103 47.9092 36.1449L48.242 35.923ZM47.8992 35.6759C47.8229 35.652 47.7177 35.6387 47.5977 35.6304C47.4733 35.6217 47.3175 35.6176 47.1315 35.6176V36.0176C47.3127 36.0176 47.4584 36.0216 47.57 36.0294C47.6861 36.0375 47.7513 36.0487 47.7799 36.0577L47.8992 35.6759ZM47.324 35.8719L47.4322 35.4883L47.0472 35.3797L46.939 35.7633L47.324 35.8719ZM48.6033 43.0915C48.8032 43.418 48.9975 43.6635 49.1893 43.7993L49.4206 43.4729C49.2976 43.3859 49.1379 43.1986 48.9444 42.8826L48.6033 43.0915ZM49.194 43.8025C49.3878 43.9317 49.6109 43.9935 49.8557 43.9935V43.5935C49.6809 43.5935 49.5368 43.5503 49.4159 43.4697L49.194 43.8025ZM49.8557 43.9935C50.1027 43.9935 50.3397 43.9274 50.564 43.8003L50.3668 43.4523C50.1978 43.5481 50.0283 43.5935 49.8557 43.5935V43.9935ZM50.5659 43.7992C50.7996 43.6635 51.0667 43.4092 51.3653 43.0575L51.0604 42.7986C50.769 43.1418 50.5378 43.353 50.365 43.4533L50.5659 43.7992ZM51.3653 43.0575C51.6738 42.6942 51.9641 42.2334 52.238 41.6791L51.8793 41.5019C51.6155 42.036 51.342 42.4669 51.0604 42.7986L51.3653 43.0575ZM52.2371 41.6808C52.5206 41.1206 52.7452 40.4892 52.9121 39.7879L52.523 39.6953C52.3622 40.3708 52.1475 40.972 51.8802 41.5002L52.2371 41.6808ZM52.9122 39.7875C53.0792 39.0795 53.1634 38.4018 53.1634 37.755H52.7634C52.7634 38.3671 52.6837 39.0138 52.5229 39.6957L52.9122 39.7875ZM53.1634 37.755C53.1634 37.2343 53.0703 36.8112 52.8442 36.5286L52.5319 36.7785C52.673 36.9548 52.7634 37.2661 52.7634 37.755H53.1634ZM52.8464 36.5314C52.6373 36.2603 52.3655 36.1093 52.039 36.1093V36.5093C52.2238 36.5093 52.3848 36.5878 52.5297 36.7757L52.8464 36.5314ZM52.039 36.1093C51.7733 36.1093 51.5224 36.1781 51.2895 36.3134L51.4903 36.6593C51.6638 36.5585 51.8457 36.5093 52.039 36.5093V36.1093ZM51.2898 36.3132C50.9655 36.5005 50.6005 36.8388 50.1957 37.31L50.4991 37.5706C50.8942 37.1108 51.2242 36.8131 51.4899 36.6595L51.2898 36.3132ZM50.155 37.3857L48.5815 42.9324L48.9663 43.0416L50.5398 37.4949L50.155 37.3857Z" fill="#0000FF" mask="url(#path-5-outside-2_98_943)"/>
<path d="M30.7748 21C31.4533 21 32.1318 21 32.8104 21C32.8241 21.009 32.8375 21.0251 32.8514 21.0255C32.8975 21.027 32.9349 21.0446 32.9773 21.062C33.0504 21.092 33.134 21.0951 33.1911 21.1618C33.1972 21.1689 33.2178 21.1624 33.2313 21.1645C33.3358 21.1809 33.448 21.1717 33.5302 21.2613C33.5423 21.2745 33.5731 21.2753 33.5947 21.2739C33.6683 21.2692 33.7268 21.2969 33.778 21.3474C33.7935 21.3626 33.8137 21.3794 33.8339 21.3824C33.9052 21.3932 33.9314 21.4472 33.9723 21.496C34.0063 21.5367 34.0832 21.5361 34.1208 21.5883C34.1258 21.5952 34.1255 21.606 34.1306 21.6127C34.1741 21.6691 34.2392 21.707 34.2677 21.7776C34.2727 21.7901 34.3079 21.7965 34.3288 21.7958C34.394 21.7937 34.4359 21.8121 34.4346 21.887C34.4343 21.9019 34.4459 21.9195 34.4569 21.9314C34.516 21.9954 34.57 22.0669 34.6386 22.1187C34.7151 22.1764 34.7338 22.2524 34.741 22.3331C34.7588 22.3425 34.7701 22.3505 34.7827 22.3548C34.8528 22.3785 34.8855 22.4227 34.8755 22.4999C34.8727 22.5209 34.8933 22.5451 34.904 22.5675C34.934 22.6303 34.9493 22.7008 35.0058 22.7498C35.0141 22.757 35.005 22.7838 35.0045 22.8015C35.004 22.8171 34.9976 22.8405 35.0052 22.8468C35.0482 22.8823 35.0361 22.9294 35.0387 22.974C35.0402 23.0008 35.0351 23.0388 35.0503 23.052C35.1048 23.0997 35.0908 23.1596 35.0938 23.2176C35.0947 23.2351 35.0954 23.2637 35.1048 23.2678C35.1618 23.2928 35.1458 23.3412 35.1493 23.3847C35.1582 23.4993 35.1165 23.6217 35.2019 23.7252C35.2088 23.7336 35.2015 23.7524 35.2043 23.7656C35.213 23.8049 35.2106 23.8601 35.2356 23.8795C35.2944 23.925 35.2787 23.9909 35.3051 24.041C35.3319 24.0549 35.361 24.0725 35.366 24.0954C35.3732 24.1278 35.3944 24.1469 35.4073 24.1712C35.4375 24.2282 35.4887 24.2349 35.535 24.26C35.5801 24.2845 35.6137 24.3299 35.6584 24.3555C35.7073 24.3834 35.7402 24.4312 35.8008 24.4467C35.8812 24.4673 35.9747 24.4481 36.0407 24.5172C36.1311 24.4985 36.1926 24.5991 36.2842 24.5759C36.3314 24.6604 36.4122 24.6201 36.4794 24.6265C36.5336 24.6316 36.5888 24.6275 36.6458 24.6275C36.6565 24.6554 36.6658 24.6796 36.6753 24.7044C36.6903 24.7063 36.7035 24.7084 36.7168 24.7097C36.8687 24.7242 36.9363 24.7958 36.9368 24.9431C36.937 24.9975 36.9368 25.052 36.9368 25.1071C36.8901 25.1234 36.8567 25.1378 36.8441 25.1918C36.832 25.2435 36.8242 25.3119 36.7491 25.3269C36.7384 25.329 36.7287 25.3449 36.7218 25.3564C36.68 25.4254 36.6247 25.4697 36.5347 25.4522C36.5021 25.5388 36.4651 25.617 36.3591 25.6293C36.3591 25.6921 36.3608 25.7512 36.3588 25.8102C36.3551 25.9163 36.3948 26.0157 36.4752 26.0687C36.5728 26.133 36.589 26.2089 36.5796 26.309C36.5753 26.3544 36.5788 26.4004 36.5788 26.458C36.4963 26.4661 36.4945 26.5339 36.4931 26.5857C36.3968 26.6284 36.3121 26.666 36.2275 26.7036C36.1531 26.8358 36.0177 26.8994 35.9075 26.9918C35.8613 27.0305 35.8001 27.0661 35.8073 27.145C35.8125 27.2011 35.7445 27.1693 35.7373 27.1857C35.6943 27.3225 35.7847 27.395 35.8258 27.4854C35.9474 27.4854 36.062 27.4866 36.1765 27.4851C36.29 27.4835 36.4017 27.4964 36.5145 27.508C36.5966 27.5164 36.6273 27.5783 36.6516 27.6203C36.6782 27.6664 36.6674 27.7481 36.6459 27.8039C36.6231 27.8632 36.5678 27.9098 36.5283 27.9629C36.5153 27.9804 36.4966 28.0025 36.4985 28.0207C36.5092 28.1289 36.4507 28.2519 36.5642 28.34C36.5753 28.3487 36.5758 28.373 36.5784 28.3905C36.5883 28.4569 36.5961 28.5237 36.6067 28.5901C36.6107 28.6153 36.6128 28.6536 36.6284 28.6617C36.6679 28.6823 36.6596 28.7132 36.6611 28.7436C36.6656 28.8392 36.577 28.9129 36.5969 29.0135C36.5988 29.0229 36.5726 29.0378 36.5595 29.0502C36.5472 29.0618 36.5316 29.0715 36.5232 29.0855C36.4434 29.2204 36.3262 29.3065 36.1789 29.3551C36.1622 29.3606 36.1433 29.366 36.1312 29.3775C36.0761 29.4302 36.0157 29.4092 35.9537 29.3931C35.9368 29.4513 35.8963 29.4663 35.839 29.466C35.7814 29.4658 35.7174 29.4645 35.668 29.4883C35.6293 29.5068 35.5949 29.5159 35.5541 29.5206C35.4876 29.5281 35.4017 29.5212 35.3607 29.5596C35.3062 29.6107 35.2552 29.5962 35.2004 29.6015C35.1785 29.6036 35.1562 29.6018 35.134 29.6018C35.1088 29.642 35.0802 29.6701 35.0459 29.6835C34.9674 29.7143 34.8871 29.733 34.833 29.8117C34.8101 29.8452 34.769 29.8799 34.7159 29.8892C34.6906 29.8936 34.6693 29.9255 34.648 29.9468C34.5962 29.9986 34.5421 30.0487 34.4954 30.1048C34.4483 30.1616 34.4104 30.226 34.3654 30.2847C34.3503 30.3045 34.3064 30.3283 34.3081 30.3313C34.3511 30.4054 34.2776 30.4125 34.2411 30.448C34.2649 30.5842 34.1761 30.6986 34.1488 30.8283C34.1459 30.8424 34.1252 30.8574 34.1095 30.8632C34.0873 30.8717 34.0849 30.8784 34.093 30.9008C34.1 30.9202 34.101 30.9454 34.095 30.9652C34.0347 31.166 34.0317 31.3738 34.0227 31.5799C34.0171 31.7084 34.035 31.8386 33.886 31.9032C33.8679 31.9666 33.8181 31.9651 33.7654 31.9662C33.0846 31.9803 32.4036 31.9439 31.7224 31.9888C31.3618 32.0127 30.9984 31.9952 30.6363 31.9917C30.5283 31.9907 30.42 31.9776 30.3128 31.9624C30.2813 31.958 30.2508 31.9307 30.2242 31.9086C30.1398 31.8382 30.0575 31.7652 29.9963 31.7123C29.9325 31.593 30.044 31.5398 30.0429 31.454C30.0427 31.4344 30.0875 31.4144 30.1089 31.3967C30.1281 31.2799 30.1082 31.1539 30.2134 31.0632C30.1888 30.9589 30.1829 30.9244 30.2377 30.879C30.2781 30.8455 30.2772 30.8141 30.2793 30.7746C30.2819 30.725 30.2676 30.6603 30.2933 30.629C30.3413 30.5705 30.3298 30.5106 30.3348 30.4486C30.3376 30.4142 30.3363 30.364 30.3568 30.35C30.3923 30.3256 30.3893 30.2988 30.3894 30.2682C30.39 30.1171 30.3901 29.966 30.3891 29.8148C30.389 29.793 30.3885 29.7571 30.377 29.7519C30.3196 29.7256 30.338 29.6772 30.3338 29.6346C30.3312 29.6081 30.3341 29.5653 30.3204 29.5586C30.2698 29.5338 30.2802 29.493 30.2792 29.4536C30.2785 29.422 30.2845 29.3873 30.2407 29.3777C30.2336 29.2943 30.1268 29.2577 30.1405 29.1646C30.0736 29.1074 30.0285 29.0355 29.9989 28.9533C29.9206 28.9619 29.9308 28.8842 29.8968 28.8494C29.8405 28.7918 29.7863 28.7314 29.7251 28.6794C29.6624 28.6262 29.5662 28.6186 29.5229 28.5363C29.5214 28.5334 29.5147 28.5315 29.5107 28.5318C29.423 28.5387 29.3918 28.4677 29.3387 28.4196C29.2987 28.3831 29.2781 28.315 29.213 28.3118C29.1652 28.3094 29.1439 28.2863 29.1181 28.2489C29.0898 28.2077 29.0452 28.1573 29.0021 28.1514C28.9322 28.1418 28.8993 28.098 28.8598 28.056C28.8416 28.0368 28.8345 28.0035 28.8137 27.9912C28.6937 27.9202 28.5778 27.8445 28.4922 27.7322C28.416 27.6324 28.2951 27.5913 28.2073 27.5014C28.0826 27.3737 27.9525 27.2501 27.8271 27.1221C27.7897 27.084 27.7334 27.0638 27.746 26.9945C27.7474 26.9864 27.7327 26.9686 27.7231 26.9664C27.6405 26.948 27.6609 26.8256 27.5697 26.8156C27.5639 26.815 27.5556 26.7919 27.557 26.7803C27.5626 26.731 27.5354 26.7031 27.5076 26.6653C27.4626 26.6041 27.4061 26.5471 27.3819 26.472C27.3602 26.405 27.3517 26.3323 27.2705 26.3024C27.2589 26.2981 27.2568 26.262 27.2542 26.2403C27.2451 26.1636 27.1714 26.1044 27.1939 26.0187C27.1953 26.0132 27.1857 26.0005 27.1785 25.9974C27.0932 25.961 27.1154 25.8904 27.1213 25.8241C27.1231 25.8044 27.1267 25.7797 27.1173 25.7651C27.0826 25.7108 27.0924 25.6513 27.0876 25.5928C27.0806 25.5077 27.0683 25.423 27.0583 25.3382C26.9691 25.2809 27.0093 25.1914 27.0075 25.1158C27.0028 24.9006 27.0037 24.6853 27.0069 24.47C27.0082 24.3866 26.9782 24.2946 27.0562 24.2252C27.0614 24.2206 27.0586 24.2078 27.0608 24.199C27.0732 24.1497 27.0445 24.0989 27.0877 24.0462C27.1121 24.0164 27.0899 23.9484 27.0884 23.8976C27.0868 23.8428 27.0808 23.7849 27.119 23.7406C27.1542 23.6998 27.0969 23.6626 27.1214 23.6272C27.1444 23.5937 27.1773 23.5659 27.1954 23.5303C27.2066 23.5082 27.1913 23.4737 27.2004 23.4494C27.2217 23.3927 27.2367 23.314 27.2798 23.2901C27.3313 23.2614 27.3487 23.229 27.3646 23.1824C27.3804 23.1357 27.3997 23.09 27.4198 23.0451C27.4262 23.0308 27.4382 23.017 27.4511 23.0081C27.5228 22.9589 27.5225 22.9592 27.5583 22.8761C27.5646 22.8616 27.5802 22.8511 27.5913 22.8386C27.6417 22.7822 27.6935 22.7269 27.7417 22.6687C27.7579 22.6491 27.7736 22.6224 27.7747 22.5982C27.7771 22.55 27.7959 22.5221 27.842 22.5079C27.8631 22.5014 27.886 22.4906 27.9009 22.475C27.959 22.4138 28.0133 22.3489 28.071 22.2875C28.1211 22.2341 28.1723 22.1814 28.2264 22.1319C28.2812 22.0818 28.3359 22.0341 28.406 21.9999C28.4659 21.9707 28.5093 21.9077 28.5607 21.8604C28.5665 21.8551 28.5774 21.8532 28.5859 21.8531C28.6735 21.8514 28.6971 21.7815 28.7308 21.7167C28.7779 21.7078 28.8282 21.7232 28.8722 21.6668C28.9087 21.62 28.9924 21.6132 29.0427 21.5731C29.1096 21.5198 29.1929 21.5179 29.2648 21.4817C29.3542 21.4368 29.4357 21.3732 29.5376 21.3546C29.5456 21.3532 29.5557 21.3474 29.5595 21.3406C29.5969 21.2732 29.6607 21.2731 29.7249 21.2751C29.7902 21.2771 29.8474 21.2526 29.9039 21.2244C29.9273 21.2127 29.9511 21.1971 29.9761 21.1936C30.0652 21.1815 30.1551 21.1751 30.2444 21.1637C30.2699 21.1604 30.302 21.1549 30.3178 21.138C30.4098 21.0396 30.5228 21.0126 30.6513 21.0267C30.6785 21.0296 30.7067 21.03 30.7336 21.0257C30.7483 21.0234 30.7612 21.009 30.7748 21.0001V21Z" fill="#0000FF"/>
<path d="M39.9347 26.9635C39.8407 27.0753 39.7189 27.1042 39.5765 27.1032C38.9817 27.0989 38.3869 27.1025 37.7921 27.1001C37.7027 27.0998 37.6119 27.0891 37.5243 27.0709C37.4599 27.0575 37.4124 27.0098 37.4049 26.9399C37.4008 26.9022 37.3921 26.8833 37.3515 26.8772C37.3358 26.8748 37.3154 26.8483 37.312 26.8299C37.3018 26.7773 37.2994 26.7232 37.2936 26.6697C37.2871 26.6092 37.3323 26.5844 37.3698 26.5507C37.4017 26.522 37.4245 26.4832 37.4543 26.4452C37.9251 26.3844 38.4043 26.4239 38.8822 26.4142C39.0835 26.4101 39.2849 26.4103 39.4861 26.4147C39.6031 26.4173 39.7203 26.4286 39.8365 26.4436C39.8709 26.448 39.9021 26.478 39.9347 26.4963V26.9635L39.9347 26.9635Z" fill="#0000FF"/>
<path d="M37.4087 25.8508C37.399 25.8075 37.4131 25.7663 37.3588 25.7435C37.3048 25.7209 37.2854 25.6678 37.2927 25.6061C37.2975 25.5654 37.2951 25.5237 37.2933 25.4826C37.2909 25.4289 37.3076 25.3976 37.3573 25.362C37.431 25.3092 37.4842 25.2283 37.5484 25.1615C37.6423 25.064 37.7382 24.9683 37.8333 24.872C37.8641 24.8408 37.8936 24.8079 37.9269 24.7793C37.9571 24.7535 37.9912 24.7322 38.0242 24.7099C38.0312 24.7052 38.0479 24.7057 38.0485 24.702C38.0618 24.6155 38.1466 24.5907 38.1912 24.5334C38.2839 24.4144 38.3999 24.3208 38.5052 24.2158C38.5275 24.1936 38.5601 24.1786 38.5755 24.1528C38.6579 24.0163 38.793 23.9409 38.9313 23.8983C39.0576 23.8593 39.2076 23.8565 39.3311 23.9198C39.4013 23.9558 39.4876 24.0148 39.4676 24.1269C39.4636 24.1491 39.4626 24.1736 39.4677 24.1953C39.4943 24.3085 39.4297 24.3841 39.3548 24.4469C39.2703 24.5178 39.1931 24.5938 39.1205 24.6763C39.0834 24.7186 39.0369 24.7541 38.9907 24.787C38.9391 24.8238 38.8962 24.8634 38.8609 24.9194C38.82 24.9844 38.7575 25.0362 38.7027 25.0921C38.5854 25.2114 38.4723 25.3355 38.347 25.4459C38.2841 25.5012 38.2235 25.559 38.1637 25.6171C38.1013 25.6779 38.0529 25.7536 37.9881 25.8112C37.946 25.8487 37.8861 25.8858 37.833 25.8875C37.694 25.8921 37.5507 25.9178 37.4086 25.8507L37.4087 25.8508Z" fill="#0000FF"/>
<path d="M37.9051 27.65C37.9369 27.6809 37.9351 27.7203 37.9748 27.7485C38.0542 27.8049 38.1498 27.8549 38.1795 27.9625C38.1815 27.9694 38.1921 27.9759 38.2001 27.9785C38.2917 28.0084 38.3322 28.0924 38.3931 28.1555C38.4642 28.2293 38.5462 28.2926 38.6173 28.3663C38.733 28.4865 38.8654 28.5915 38.9534 28.7377C38.9727 28.7699 39.0153 28.7878 39.0468 28.813C39.0777 28.8377 39.1079 28.8633 39.1385 28.8885C39.1482 28.8965 39.1585 28.9125 39.1674 28.9117C39.2566 28.9037 39.2921 28.9781 39.3427 29.0265C39.3634 29.0463 39.3719 29.0794 39.3843 29.1073C39.3914 29.1231 39.3914 29.1521 39.401 29.1552C39.4886 29.1834 39.4658 29.2551 39.4666 29.3157C39.4686 29.4662 39.4351 29.5214 39.3011 29.6048C39.2875 29.6133 39.2784 29.6302 39.2691 29.6445C39.2498 29.6742 39.2236 29.686 39.1881 29.6847C39.1379 29.6828 39.0874 29.6843 39.037 29.6842C38.8824 29.6842 38.8836 29.669 38.773 29.5483C38.7022 29.471 38.6356 29.3883 38.559 29.3162C38.4525 29.216 38.3377 29.1244 38.2325 29.0229C38.1948 28.9865 38.1599 28.9471 38.1206 28.9114C38.0787 28.8731 38.0493 28.8215 38.0097 28.7802C37.9232 28.69 37.8455 28.5904 37.7336 28.5263C37.7049 28.5098 37.6838 28.4757 37.666 28.4457C37.6428 28.4062 37.6276 28.3633 37.57 28.3616C37.5587 28.3612 37.5454 28.339 37.5376 28.3245C37.497 28.2488 37.4348 28.1944 37.3683 28.1424C37.3448 28.124 37.3223 28.0967 37.3131 28.0689C37.2793 27.9678 37.2853 27.8637 37.3085 27.7616C37.3146 27.7344 37.3281 27.7023 37.3724 27.7041C37.4333 27.7064 37.4646 27.6271 37.54 27.6472C37.5955 27.662 37.6582 27.6501 37.7177 27.6501C37.7816 27.6501 37.8453 27.6501 37.9053 27.6501L37.9051 27.65Z" fill="#0000FF"/>
</svg>
