<svg width="88" height="88" viewBox="0 0 88 88" fill="none" xmlns="http://www.w3.org/2000/svg">
<circle cx="44" cy="44" r="43" stroke="#0000FF"/>
<path d="M53.9251 41.924C53.9251 35.3802 53.9251 28.8363 53.9251 22.2925C53.9251 21.9206 53.742 21.7341 53.3757 21.733C53.1228 21.733 52.87 21.7254 52.6172 21.7355C52.3871 21.7448 52.2481 21.6959 52.2414 21.4186C52.2346 21.1439 52.3568 21.0925 52.5961 21.0942C54.3937 21.1026 56.1954 21.0225 57.9871 21.1254C59.9186 21.2366 61.5847 21.9782 62.6373 23.7243C62.998 24.3218 63.1952 24.9766 63.196 25.6837C63.1985 28.5768 63.2028 31.469 63.2044 34.3621C63.2061 36.5246 63.2087 38.687 63.2028 40.8495C63.1985 42.4953 62.3112 43.6945 60.7572 44.2491C59.7568 44.6064 58.722 44.6418 57.6854 44.6418C57.2716 44.6418 57.168 44.7783 57.1688 45.1744C57.1798 50.6513 57.1814 56.1274 57.1671 61.6043C57.1663 62.045 57.3062 62.1681 57.7225 62.1352C58.1548 62.1015 58.593 62.1377 59.0279 62.1234C59.268 62.1158 59.3506 62.2077 59.3523 62.4411C59.354 62.6863 59.2411 62.7512 59.0161 62.7512C56.8814 62.747 54.7468 62.747 52.613 62.7512C52.3812 62.7512 52.2439 62.7032 52.2439 62.4276C52.2439 62.1352 52.4124 62.1217 52.629 62.1259C52.9518 62.1327 53.2754 62.1217 53.5982 62.1293C53.8274 62.1352 53.9403 62.0459 53.9251 61.8082C53.9175 61.6826 53.9251 61.5554 53.9251 61.429C53.9251 54.9273 53.9251 48.4256 53.9251 41.924ZM60.1335 33.1191C60.1335 30.6617 60.1546 28.2043 60.1209 25.7469C60.1099 24.9665 60.0316 24.1701 59.8487 23.4142C59.5883 22.3389 59.0346 21.6487 57.7478 21.7271C57.1789 21.7616 57.1772 21.733 57.1772 22.3153C57.1772 29.3361 57.1772 36.3577 57.1772 43.3785C57.1772 43.4906 57.1595 43.6077 57.1865 43.7139C57.2076 43.7965 57.2691 43.9027 57.3399 43.9322C57.982 44.2027 59.1206 43.8386 59.5335 43.2412C60.0198 42.5383 60.1243 41.7318 60.1285 40.9118C60.1403 38.3137 60.1327 35.7164 60.1327 33.1183L60.1335 33.1191Z" fill="#0000FF" stroke="#0000FF"/>
<path d="M48.2904 62.7472C47.3912 62.7472 46.4928 62.7438 45.5936 62.7497C45.3686 62.7514 45.2195 62.7202 45.2186 62.4353C45.2186 62.1505 45.3644 62.1159 45.5911 62.1244C45.8861 62.1345 46.181 62.1193 46.476 62.1294C46.7229 62.1379 46.8299 62.0696 46.7988 61.7898C46.5299 59.3484 46.2712 56.907 46.0142 54.4648C45.8439 52.8459 45.6855 51.2253 45.5127 49.6064C45.388 48.4342 45.2422 47.2645 45.1209 46.0931C45.0964 45.8529 44.9936 45.7889 44.772 45.7897C43.6908 45.7965 42.6087 45.8024 41.5283 45.7872C41.2098 45.783 41.1187 45.9271 41.0892 46.2086C40.9106 47.9117 40.726 49.614 40.5356 51.3155C40.2684 53.7004 39.9878 56.0837 39.7249 58.4686C39.6465 59.1799 39.5791 59.8953 39.5605 60.61C39.5336 61.6508 40.0257 62.1269 41.0547 62.1277C41.1954 62.1277 41.3497 62.094 41.4718 62.1412C41.5713 62.18 41.6985 62.3207 41.6926 62.4092C41.6859 62.5247 41.5713 62.6427 41.4794 62.737C41.444 62.7733 41.3446 62.748 41.2746 62.748C39.8142 62.748 38.3537 62.748 36.8933 62.7497C36.6708 62.7497 36.4719 62.7598 36.4719 62.4362C36.4719 62.1126 36.67 62.0999 36.8916 62.1294C37.8759 62.2617 38.3301 61.5656 38.5889 60.6117C38.8004 59.8321 38.8796 59.0122 38.9748 58.2057C39.3027 55.4322 39.617 52.658 39.9263 49.882C40.094 48.3752 40.2347 46.8659 40.3982 45.3591C40.6628 42.9177 40.9443 40.478 41.2055 38.0366C41.4086 36.1388 41.5873 34.2384 41.7862 32.3397C42.0424 29.8975 42.3112 27.4561 42.5682 25.0139C42.6913 23.8416 42.8126 22.6685 42.9087 21.4938C42.939 21.1238 43.0621 20.9789 43.4497 21.0025C44.0093 21.0353 44.5731 21.0218 45.1344 21.0067C45.4057 20.9991 45.5372 21.0682 45.5675 21.3682C45.8128 23.8121 46.0656 26.2544 46.3319 28.6958C46.5889 31.0529 46.8729 33.4075 47.1316 35.7646C47.3347 37.6203 47.5125 39.4785 47.7097 41.335C48.0131 44.1818 48.3249 47.0277 48.63 49.8736C48.8786 52.1894 49.1196 54.5069 49.3691 56.8228C49.5477 58.4829 49.7416 60.1423 49.9152 61.8025C49.9421 62.0603 50.0517 62.1404 50.2902 62.1294C50.5287 62.1176 50.768 62.1311 51.0065 62.1261C51.2189 62.1218 51.395 62.132 51.4009 62.4235C51.4077 62.7387 51.2172 62.7497 50.9888 62.7488C50.0896 62.7455 49.1913 62.748 48.2921 62.748L48.2904 62.7472ZM43.2096 27.7527C43.1624 27.7553 43.1143 27.7586 43.0671 27.7612C43.036 28.0755 43.0073 28.3907 42.9736 28.705C42.7536 30.7689 42.5337 32.8327 42.3121 34.8966C42.1401 36.5003 41.964 38.1032 41.7912 39.7069C41.6126 41.3662 41.4424 43.0264 41.2544 44.684C41.2173 45.0093 41.294 45.1358 41.6463 45.1282C42.6281 45.1079 43.6115 45.1113 44.5933 45.1273C44.9077 45.1324 45.0189 45.0414 44.9801 44.7178C44.8714 43.8127 44.7838 42.905 44.6919 41.9983C44.4922 40.0305 44.2992 38.0627 44.0961 36.0958C43.8264 33.4732 43.55 30.8515 43.2761 28.2289C43.2593 28.0696 43.2323 27.9112 43.2096 27.7519V27.7527Z" fill="#0000FF" stroke="#0000FF"/>
<path d="M32.4357 41.7722C32.504 41.4384 32.5832 41.1073 32.6372 40.771C33.024 38.376 33.4024 35.9792 33.7892 33.5842C34.1043 31.6324 34.428 29.6823 34.7465 27.7314C34.9606 26.4168 35.1738 25.1013 35.3836 23.7858C35.4123 23.6063 35.4317 23.4234 35.4333 23.2414C35.4418 22.284 34.8931 21.7396 33.9375 21.7295C33.6864 21.727 33.3071 21.8567 33.3788 21.3696C33.3939 21.2685 33.5481 21.1109 33.64 21.1101C35.2125 21.0941 36.7851 21.0941 38.3576 21.1101C38.4444 21.1109 38.5776 21.2753 38.6045 21.3848C38.6517 21.5803 38.5877 21.7236 38.3264 21.7396C37.9978 21.7598 37.6396 21.7649 37.3531 21.9006C36.7067 22.2056 36.491 22.8453 36.3764 23.4866C36.0999 25.033 35.8657 26.587 35.6137 28.1376C35.1948 30.7122 34.7693 33.2859 34.3563 35.8604C34.0588 37.7161 33.8288 39.5836 33.4731 41.4275C33.0366 43.6894 32.9776 45.9631 32.9919 48.2545C33.0198 52.6914 32.9995 57.1293 33.0004 61.5662C33.0004 61.9393 33.1838 62.1264 33.5507 62.1275C34.0841 62.1275 34.6176 62.1326 35.1519 62.125C35.3794 62.1216 35.5277 62.1604 35.5244 62.4418C35.521 62.693 35.3996 62.7503 35.183 62.7503C32.7113 62.7478 30.2404 62.7478 27.7687 62.7503C27.5479 62.7503 27.4324 62.6871 27.4333 62.4393C27.4333 62.1975 27.5327 62.1208 27.762 62.125C28.2954 62.1342 28.8297 62.109 29.3623 62.1351C29.7154 62.1519 29.8207 62.0272 29.8191 61.68C29.8064 59.6718 29.8123 57.6636 29.8123 55.6562C29.8123 52.8339 29.7761 50.0107 29.8275 47.1892C29.8536 45.7515 29.5519 44.3728 29.3159 42.979C29.0025 41.1266 28.6527 39.2811 28.3148 37.4329C27.8993 35.1576 27.4737 32.8839 27.0625 30.6077C26.572 27.8899 26.0917 25.1695 25.6054 22.45C25.581 22.3127 25.5144 22.1804 25.5043 22.043C25.4849 21.7784 25.3324 21.727 25.1048 21.732C24.7433 21.7413 24.3818 21.7345 24 21.7345V21.1219C24.1475 21.1126 24.2714 21.0974 24.3944 21.0974C26.2063 21.0958 28.0173 21.0949 29.8283 21.0974C30.0373 21.0974 30.2885 21.0174 30.2885 21.3991C30.2885 21.791 30.0365 21.7295 29.803 21.7312C29.5924 21.7329 29.3817 21.7312 29.171 21.7312C28.5946 21.7312 28.5819 21.7345 28.6864 22.3186C28.9494 23.795 29.2224 25.2707 29.4963 26.7454C29.8064 28.4132 30.1208 30.0801 30.4334 31.747C30.9273 34.3789 31.4219 37.0099 31.9149 39.6417C32.0312 40.2612 32.1408 40.8822 32.2571 41.5025C32.2739 41.5918 32.3119 41.6769 32.3397 41.7646C32.3725 41.7671 32.4054 41.7688 32.4383 41.7713L32.4357 41.7722Z" fill="#0000FF" stroke="#0000FF"/>
<path d="M55.2 68.8577H54.1862C54.0775 68.5965 54.032 68.1919 53.8516 68.1186C53.5364 67.9905 53.1378 68.0529 52.7746 68.0664C52.6785 68.0697 52.5505 68.1633 52.4999 68.2509C52.392 68.4406 52.3684 68.7844 52.2319 68.8307C51.9572 68.9234 51.6293 68.8585 51.2847 68.8585C51.3167 68.7296 51.3335 68.6226 51.3689 68.5231C51.7827 67.361 52.2058 66.2031 52.6094 65.0376C52.687 64.8134 52.7923 64.7393 53.0283 64.7401C53.7631 64.7426 53.7631 64.7317 54.0092 65.4236C54.3615 66.4138 54.7146 67.404 55.0643 68.395C55.114 68.5358 55.1477 68.6816 55.1983 68.8585L55.2 68.8577ZM52.837 67.2102H53.6174C53.4935 66.8225 53.3848 66.4837 53.2769 66.1441L53.1901 66.1483C53.0788 66.4837 52.9676 66.8183 52.837 67.2093V67.2102Z" fill="#0000FF" stroke="#0000FF" stroke-width="0.5"/>
<path d="M33.1185 68.8746C33.2264 68.5577 33.3039 68.3209 33.3865 68.0866C33.7421 67.0838 34.1054 66.0834 34.4517 65.0764C34.536 64.8311 34.6481 64.7266 34.9262 64.7325C35.6332 64.7485 35.6332 64.7325 35.8726 65.4109C36.2686 66.5318 36.6656 67.6518 37.0937 68.8628C36.7271 68.8628 36.4094 68.9032 36.1136 68.8417C36.0066 68.8189 35.9172 68.5594 35.8801 68.3942C35.8186 68.1254 35.6855 68.0133 35.4124 68.0495C35.2886 68.0655 35.1579 68.0681 35.034 68.0495C34.5975 67.9846 34.3034 68.1018 34.2427 68.5914C34.2174 68.792 34.0986 68.9024 33.8669 68.8796C33.6461 68.8577 33.4219 68.8746 33.1177 68.8746H33.1185ZM35.1503 66.1517C35.1166 66.1475 35.0829 66.1424 35.0501 66.1382C34.9405 66.4863 34.8318 66.8343 34.713 67.2119H35.4756C35.3593 66.8326 35.2548 66.4922 35.1503 66.1517Z" fill="#0000FF" stroke="#0000FF" stroke-width="0.5"/>
<path d="M30.5049 67.415H31.4201C31.3544 68.2148 30.8437 68.814 30.1324 68.9564C29.2223 69.1393 28.3998 68.8165 28.0416 68.0884C27.6413 67.2743 27.6379 66.4274 28.0357 65.6141C28.372 64.9273 28.9872 64.6399 29.7321 64.6669C30.4493 64.693 31.0552 64.9543 31.3375 65.674C31.3999 65.8324 31.335 66.0397 31.3291 66.2251C31.0367 66.1644 30.6482 66.4324 30.4577 66.0667C30.2529 65.6731 29.9791 65.4936 29.5535 65.5526C29.1127 65.6141 28.8877 65.9293 28.8372 66.3262C28.79 66.6945 28.7942 67.083 28.8599 67.4471C28.929 67.8305 29.1911 68.085 29.6167 68.1162C30.0473 68.1474 30.3027 67.9358 30.4434 67.549C30.4619 67.4976 30.4889 67.4487 30.5049 67.4142V67.415Z" fill="#0000FF" stroke="#0000FF" stroke-width="0.5"/>
<path d="M39.9093 67.4418V68.8374H38.9536V64.7687C39.6741 64.7687 40.377 64.7131 41.0663 64.7839C41.8442 64.8639 42.1686 65.3915 42.1096 66.278C42.0599 67.0247 41.663 67.4081 40.8885 67.4402C40.5826 67.4528 40.275 67.4427 39.9093 67.4427V67.4418ZM39.927 66.691C40.3399 66.5823 40.72 66.5165 41.0638 66.3648C41.1354 66.3328 41.1506 65.9224 41.0512 65.8002C40.7503 65.4277 40.3188 65.635 39.927 65.5946V66.691Z" fill="#0000FF" stroke="#0000FF" stroke-width="0.5"/>
<path d="M47.969 68.848V65.5942H46.7942V64.7607H50.0926V65.5731H48.9659V68.8488H47.969V68.848Z" fill="#0000FF" stroke="#0000FF" stroke-width="0.5"/>
<path d="M59.9721 68.006V68.8496H57.074V64.7446C57.288 64.7446 57.4819 64.759 57.6723 64.7413C57.9513 64.7151 58.0364 64.8264 58.0313 65.1011C58.0161 65.9009 58.0263 66.7014 58.0263 67.5012C58.0263 67.6537 58.0263 67.8063 58.0263 68.0068H59.9721V68.006Z" fill="#0000FF" stroke="#0000FF" stroke-width="0.5"/>
<path d="M44.9691 64.7737V68.8517H44.0488V64.7737H44.9691Z" fill="#0000FF" stroke="#0000FF" stroke-width="0.5"/>
</svg>
