<svg width="88" height="88" viewBox="0 0 88 88" fill="none" xmlns="http://www.w3.org/2000/svg">
<circle cx="44" cy="44" r="43" stroke="#0000FF"/>
<mask id="path-2-outside-1_98_910" maskUnits="userSpaceOnUse" x="27" y="15" width="34" height="57" fill="black">
<rect fill="white" x="27" y="15" width="34" height="57"/>
<path d="M36.4173 38.5966V43.3057H36.162C35.97 42.0766 35.6122 41.1348 35.0886 40.4802C34.5649 39.8256 33.9715 39.4983 33.3082 39.4983C32.7541 39.4983 32.2457 39.7421 31.7832 40.2297C31.3207 40.7173 30.9825 41.3552 30.7687 42.1434C30.4938 43.152 30.3563 44.2742 30.3563 45.5099C30.3563 46.7256 30.4567 47.8344 30.6574 48.8363C30.8581 49.8316 31.1723 50.5864 31.5999 51.1007C32.0275 51.6083 32.5817 51.8622 33.2624 51.8622C33.821 51.8622 34.3315 51.6751 34.794 51.3011C35.2609 50.927 35.7518 50.2824 36.2667 49.3674V50.5396C35.7693 51.3345 35.25 51.9123 34.7089 52.273C34.1722 52.627 33.5439 52.804 32.8239 52.804C31.877 52.804 31.0348 52.5134 30.2974 51.9323C29.5643 51.3512 28.9971 50.5162 28.5956 49.4275C28.1985 48.3387 28 47.1798 28 45.9508C28 44.6549 28.2204 43.4259 28.6611 42.2637C29.1062 41.1014 29.704 40.1997 30.4545 39.5584C31.2094 38.9172 32.0101 38.5966 32.8566 38.5966C33.4806 38.5966 34.1395 38.8036 34.8333 39.2178C35.2347 39.4582 35.49 39.5785 35.5991 39.5785C35.7387 39.5785 35.8587 39.5017 35.9591 39.348C36.0638 39.1877 36.1315 38.9372 36.162 38.5966H36.4173Z"/>
<path d="M42.3342 38.7168C43.748 38.6367 44.8956 39.2679 45.7771 40.6105C46.6628 41.953 47.1057 43.633 47.1057 45.6502C47.1057 47.3735 46.7763 48.8898 46.1174 50.199C45.2447 51.9356 44.012 52.804 42.4193 52.804C40.8223 52.804 39.5874 51.9757 38.7147 50.3192C38.0252 49.01 37.6805 47.457 37.6805 45.6602C37.6805 43.643 38.1278 41.9631 39.0223 40.6205C39.9212 39.2712 41.0252 38.6367 42.3342 38.7168ZM42.4128 39.358C41.6011 39.358 40.9837 39.9926 40.5604 41.2617C40.2157 42.3037 40.0434 43.7999 40.0434 45.7504C40.0434 48.0682 40.3095 49.7815 40.8419 50.8903C41.2128 51.6651 41.7321 52.0525 42.3997 52.0525C42.8491 52.0525 43.2244 51.8855 43.5255 51.5516C43.9095 51.1241 44.2084 50.4428 44.4222 49.5076C44.636 48.5658 44.7429 47.3401 44.7429 45.8305C44.7429 44.0337 44.6338 42.6911 44.4156 41.8028C44.1974 40.9077 43.9182 40.2765 43.5778 39.9091C43.2418 39.5417 42.8535 39.358 42.4128 39.358Z"/>
<path d="M53.9783 47.8645L56.387 38.9072H60V39.2779H59.712C59.4502 39.2779 59.2407 39.348 59.0837 39.4883C58.9746 39.5818 58.8873 39.7388 58.8218 39.9592C58.7738 40.1195 58.7498 40.537 58.7498 41.2116V50.1689C58.7498 50.8636 58.7738 51.2977 58.8218 51.4714C58.8698 51.6451 58.968 51.7987 59.1164 51.9323C59.2647 52.0592 59.4633 52.1227 59.712 52.1227H60V52.4934H55.3659V52.1227H55.6539C55.9157 52.1227 56.1252 52.0525 56.2823 51.9123C56.3914 51.8187 56.4786 51.6584 56.5441 51.4313C56.5921 51.271 56.6161 50.8502 56.6161 50.1689V40.0995L53.2125 52.4934H53.0554L49.5995 40.1896V49.7581C49.5995 50.4261 49.6104 50.8368 49.6322 50.9905C49.689 51.3245 49.8111 51.5983 49.9988 51.8121C50.1908 52.0191 50.4897 52.1227 50.8955 52.1227V52.4934H47.8585V52.1227H47.9501C48.1465 52.1293 48.3297 52.0826 48.4999 51.9824C48.6701 51.8755 48.7988 51.7352 48.8861 51.5616C48.9733 51.3879 49.041 51.1441 49.089 50.8302C49.0977 50.7567 49.1021 50.416 49.1021 49.8082V41.2116C49.1021 40.5236 49.0781 40.0961 49.0301 39.9291C48.9821 39.7555 48.8839 39.6052 48.7355 39.4783C48.5872 39.3447 48.3886 39.2779 48.1399 39.2779H47.8585V38.9072H51.4846L53.9783 47.8645Z"/>
<path d="M34.2311 66.0505L36.6398 57.0932H40.2528V57.4639H39.9648C39.703 57.4639 39.4936 57.534 39.3365 57.6743C39.2274 57.7678 39.1401 57.9248 39.0747 58.1452C39.0267 58.3055 39.0027 58.723 39.0027 59.3976V68.3549C39.0027 69.0496 39.0267 69.4837 39.0747 69.6574C39.1227 69.8311 39.2208 69.9847 39.3692 70.1183C39.5176 70.2452 39.7161 70.3087 39.9648 70.3087H40.2528V70.6794H35.6187V70.3087H35.9067C36.1685 70.3087 36.378 70.2385 36.5351 70.0983C36.6442 70.0047 36.7314 69.8444 36.7969 69.6173C36.8449 69.457 36.8689 69.0362 36.8689 68.3549V58.2855L33.4653 70.6794H33.3082L29.8523 58.3756V67.9441C29.8523 68.6121 29.8632 69.0229 29.885 69.1765C29.9418 69.5105 30.064 69.7843 30.2516 69.9981C30.4436 70.2051 30.7425 70.3087 31.1483 70.3087V70.6794H28.1113V70.3087H28.2029C28.3993 70.3153 28.5825 70.2686 28.7527 70.1684C28.9229 70.0615 29.0516 69.9213 29.1389 69.7476C29.2262 69.5739 29.2938 69.3301 29.3418 69.0162C29.3505 68.9427 29.3549 68.602 29.3549 67.9942V59.3976C29.3549 58.7096 29.3309 58.2821 29.2829 58.1152C29.2349 57.9415 29.1367 57.7912 28.9883 57.6643C28.84 57.5307 28.6414 57.4639 28.3927 57.4639H28.1113V57.0932H31.7374L34.2311 66.0505Z"/>
<path d="M40.8157 57.0932H45.3974V57.4639H45.1683C44.8236 57.4639 44.5858 57.5207 44.4549 57.6342C44.3284 57.7411 44.2367 57.8914 44.18 58.0851C44.1276 58.2788 44.1015 58.7631 44.1015 59.5379V66.1907C44.1015 67.4064 44.1604 68.2113 44.2782 68.6054C44.4004 68.9995 44.5989 69.3268 44.8738 69.5873C45.1487 69.8478 45.4956 69.978 45.9145 69.978C46.3945 69.978 46.8025 69.8144 47.1385 69.4871C47.4788 69.1531 47.7319 68.6956 47.8977 68.1144C48.0679 67.5333 48.153 66.5214 48.153 65.0786V59.5379C48.153 58.9301 48.1115 58.4959 48.0286 58.2354C47.9457 57.9749 47.841 57.7945 47.7145 57.6943C47.5181 57.5407 47.241 57.4639 46.8832 57.4639V57.0932H49.953V57.4639H49.7697C49.521 57.4639 49.3137 57.5407 49.1479 57.6943C48.9821 57.848 48.8621 58.0784 48.7879 58.3857C48.7312 58.5994 48.7028 58.9835 48.7028 59.5379V64.6978C48.7028 66.2943 48.633 67.4465 48.4934 68.1545C48.3581 68.8625 48.0243 69.5138 47.4919 70.1083C46.9596 70.7028 46.233 71 45.3123 71C44.5444 71 43.9509 70.843 43.532 70.5291C42.9604 70.1016 42.5568 69.5539 42.3211 68.8859C42.0855 68.218 41.9677 67.3196 41.9677 66.1907V59.5379C41.9677 58.7564 41.9393 58.2721 41.8826 58.0851C41.8259 57.8914 41.7277 57.7378 41.5881 57.6242C41.4484 57.5107 41.191 57.4572 40.8157 57.4639V57.0932Z"/>
<path d="M53.5267 57.0932L57.9055 65.5194V59.6782C57.9055 58.8633 57.8291 58.3122 57.6764 58.025C57.467 57.6376 57.1157 57.4505 56.6226 57.4639V57.0932H59.5549V57.4639C59.1797 57.5374 58.9266 57.6342 58.7957 57.7545C58.6691 57.868 58.5688 58.0584 58.4946 58.3256C58.4248 58.5861 58.3899 59.0369 58.3899 59.6782V70.99H58.1673L52.1653 59.6782V68.3148C52.1653 69.0963 52.2809 69.624 52.5122 69.8979C52.7478 70.1717 53.0162 70.3087 53.3172 70.3087H53.5267V70.6794H50.3784V70.3087C50.8671 70.302 51.2075 70.1484 51.3995 69.8478C51.5915 69.5472 51.6875 69.0362 51.6875 68.3148V58.7263L51.4976 58.3656C51.31 58.0049 51.1442 57.7678 51.0002 57.6543C50.8562 57.5407 50.6489 57.4773 50.3784 57.4639V57.0932H53.5267Z"/>
<path d="M40.0034 16.2805V16.6513C39.7111 16.7114 39.4863 16.8416 39.3293 17.042C39.1111 17.3226 38.7664 18.0874 38.2951 19.3364L36.3708 24.2559V27.5423C36.3708 28.2436 36.3948 28.6811 36.4428 28.8548C36.4908 29.0218 36.5846 29.1721 36.7242 29.3057C36.8682 29.4326 37.058 29.496 37.2937 29.496H37.7911V29.8667H32.8101V29.496H33.2749C33.5367 29.496 33.7439 29.4259 33.8967 29.2856C34.0101 29.1921 34.0996 29.0318 34.165 28.8047C34.213 28.6444 34.237 28.2236 34.237 27.5423V24.817L32.1491 18.9958C31.7345 17.8469 31.4422 17.1723 31.272 16.9719C31.1018 16.7648 30.8749 16.6579 30.5913 16.6513V16.2805H34.8457V16.6513H34.6559C34.3985 16.6513 34.2174 16.708 34.1126 16.8216C34.0123 16.9351 33.9621 17.0554 33.9621 17.1823C33.9621 17.4227 34.1366 18.0272 34.4857 18.9958L36.0893 23.4945L37.6864 19.3966C38.0835 18.3946 38.282 17.73 38.282 17.4027C38.282 17.2224 38.2253 17.0721 38.1118 16.9518C37.9635 16.7848 37.6907 16.6847 37.2937 16.6513V16.2805H40.0034Z"/>
<path d="M45.7371 25.9993H42.6019L42.2288 27.3218C42.1067 27.7627 42.0456 28.1267 42.0456 28.4139C42.0456 28.7947 42.1459 29.0752 42.3466 29.2556C42.4645 29.3624 42.7546 29.4426 43.2172 29.496V29.8667H40.2652V29.496C40.5838 29.4226 40.8456 29.2222 41.0507 28.8949C41.2558 28.5609 41.5088 27.8762 41.8099 26.8409L44.9844 16H45.1088L48.3094 27.1415C48.6149 28.1969 48.8658 28.8615 49.0621 29.1353C49.2105 29.3424 49.4199 29.4626 49.6905 29.496V29.8667H45.3968V29.496H45.5735C45.9182 29.496 46.1604 29.4226 46.3 29.2756C46.396 29.1687 46.444 29.0151 46.444 28.8147C46.444 28.6945 46.4309 28.5709 46.4047 28.444C46.396 28.3839 46.3306 28.1334 46.2084 27.6926L45.7371 25.9993ZM45.5146 25.2579L44.1924 20.5788L42.831 25.2579H45.5146Z"/>
<path d="M53.4671 23.7149V27.4821C53.4671 28.2169 53.4955 28.6811 53.5522 28.8748C53.6133 29.0619 53.718 29.2121 53.8664 29.3257C54.0191 29.4393 54.2962 29.496 54.6976 29.496V29.8667H50.1879V29.496C50.5981 29.496 50.8752 29.4393 51.0192 29.3257C51.1675 29.2055 51.2701 29.0518 51.3268 28.8648C51.3879 28.6778 51.4184 28.2169 51.4184 27.4821V18.6651C51.4184 17.9304 51.3879 17.4695 51.3268 17.2825C51.2701 17.0888 51.1675 16.9351 51.0192 16.8216C50.8708 16.708 50.5937 16.6513 50.1879 16.6513V16.2805H54.0562C55.3304 16.2805 56.2445 16.6279 56.7987 17.3226C57.3528 18.0172 57.6299 18.8856 57.6299 19.9276C57.6299 20.8093 57.451 21.5641 57.0932 22.1919C56.7354 22.8198 56.2423 23.2473 55.614 23.4744C55.1907 23.6347 54.4751 23.7149 53.4671 23.7149ZM53.4671 17.062V22.9334C53.6111 22.9467 53.7202 22.9534 53.7944 22.9534C54.3267 22.9534 54.7369 22.7129 55.0249 22.232C55.3129 21.7444 55.4569 20.993 55.4569 19.9777C55.4569 18.9691 55.3129 18.231 55.0249 17.7634C54.7369 17.2958 54.3071 17.062 53.7355 17.062H53.4671Z"/>
<path d="M30.4735 33.0729H58.0357V35.0267H30.4735V33.0729Z"/>
</mask>
<path d="M36.4173 38.5966V43.3057H36.162C35.97 42.0766 35.6122 41.1348 35.0886 40.4802C34.5649 39.8256 33.9715 39.4983 33.3082 39.4983C32.7541 39.4983 32.2457 39.7421 31.7832 40.2297C31.3207 40.7173 30.9825 41.3552 30.7687 42.1434C30.4938 43.152 30.3563 44.2742 30.3563 45.5099C30.3563 46.7256 30.4567 47.8344 30.6574 48.8363C30.8581 49.8316 31.1723 50.5864 31.5999 51.1007C32.0275 51.6083 32.5817 51.8622 33.2624 51.8622C33.821 51.8622 34.3315 51.6751 34.794 51.3011C35.2609 50.927 35.7518 50.2824 36.2667 49.3674V50.5396C35.7693 51.3345 35.25 51.9123 34.7089 52.273C34.1722 52.627 33.5439 52.804 32.8239 52.804C31.877 52.804 31.0348 52.5134 30.2974 51.9323C29.5643 51.3512 28.9971 50.5162 28.5956 49.4275C28.1985 48.3387 28 47.1798 28 45.9508C28 44.6549 28.2204 43.4259 28.6611 42.2637C29.1062 41.1014 29.704 40.1997 30.4545 39.5584C31.2094 38.9172 32.0101 38.5966 32.8566 38.5966C33.4806 38.5966 34.1395 38.8036 34.8333 39.2178C35.2347 39.4582 35.49 39.5785 35.5991 39.5785C35.7387 39.5785 35.8587 39.5017 35.9591 39.348C36.0638 39.1877 36.1315 38.9372 36.162 38.5966H36.4173Z" fill="#0000FF"/>
<path d="M42.3342 38.7168C43.748 38.6367 44.8956 39.2679 45.7771 40.6105C46.6628 41.953 47.1057 43.633 47.1057 45.6502C47.1057 47.3735 46.7763 48.8898 46.1174 50.199C45.2447 51.9356 44.012 52.804 42.4193 52.804C40.8223 52.804 39.5874 51.9757 38.7147 50.3192C38.0252 49.01 37.6805 47.457 37.6805 45.6602C37.6805 43.643 38.1278 41.9631 39.0223 40.6205C39.9212 39.2712 41.0252 38.6367 42.3342 38.7168ZM42.4128 39.358C41.6011 39.358 40.9837 39.9926 40.5604 41.2617C40.2157 42.3037 40.0434 43.7999 40.0434 45.7504C40.0434 48.0682 40.3095 49.7815 40.8419 50.8903C41.2128 51.6651 41.7321 52.0525 42.3997 52.0525C42.8491 52.0525 43.2244 51.8855 43.5255 51.5516C43.9095 51.1241 44.2084 50.4428 44.4222 49.5076C44.636 48.5658 44.7429 47.3401 44.7429 45.8305C44.7429 44.0337 44.6338 42.6911 44.4156 41.8028C44.1974 40.9077 43.9182 40.2765 43.5778 39.9091C43.2418 39.5417 42.8535 39.358 42.4128 39.358Z" fill="#0000FF"/>
<path d="M53.9783 47.8645L56.387 38.9072H60V39.2779H59.712C59.4502 39.2779 59.2407 39.348 59.0837 39.4883C58.9746 39.5818 58.8873 39.7388 58.8218 39.9592C58.7738 40.1195 58.7498 40.537 58.7498 41.2116V50.1689C58.7498 50.8636 58.7738 51.2977 58.8218 51.4714C58.8698 51.6451 58.968 51.7987 59.1164 51.9323C59.2647 52.0592 59.4633 52.1227 59.712 52.1227H60V52.4934H55.3659V52.1227H55.6539C55.9157 52.1227 56.1252 52.0525 56.2823 51.9123C56.3914 51.8187 56.4786 51.6584 56.5441 51.4313C56.5921 51.271 56.6161 50.8502 56.6161 50.1689V40.0995L53.2125 52.4934H53.0554L49.5995 40.1896V49.7581C49.5995 50.4261 49.6104 50.8368 49.6322 50.9905C49.689 51.3245 49.8111 51.5983 49.9988 51.8121C50.1908 52.0191 50.4897 52.1227 50.8955 52.1227V52.4934H47.8585V52.1227H47.9501C48.1465 52.1293 48.3297 52.0826 48.4999 51.9824C48.6701 51.8755 48.7988 51.7352 48.8861 51.5616C48.9733 51.3879 49.041 51.1441 49.089 50.8302C49.0977 50.7567 49.1021 50.416 49.1021 49.8082V41.2116C49.1021 40.5236 49.0781 40.0961 49.0301 39.9291C48.9821 39.7555 48.8839 39.6052 48.7355 39.4783C48.5872 39.3447 48.3886 39.2779 48.1399 39.2779H47.8585V38.9072H51.4846L53.9783 47.8645Z" fill="#0000FF"/>
<path d="M34.2311 66.0505L36.6398 57.0932H40.2528V57.4639H39.9648C39.703 57.4639 39.4936 57.534 39.3365 57.6743C39.2274 57.7678 39.1401 57.9248 39.0747 58.1452C39.0267 58.3055 39.0027 58.723 39.0027 59.3976V68.3549C39.0027 69.0496 39.0267 69.4837 39.0747 69.6574C39.1227 69.8311 39.2208 69.9847 39.3692 70.1183C39.5176 70.2452 39.7161 70.3087 39.9648 70.3087H40.2528V70.6794H35.6187V70.3087H35.9067C36.1685 70.3087 36.378 70.2385 36.5351 70.0983C36.6442 70.0047 36.7314 69.8444 36.7969 69.6173C36.8449 69.457 36.8689 69.0362 36.8689 68.3549V58.2855L33.4653 70.6794H33.3082L29.8523 58.3756V67.9441C29.8523 68.6121 29.8632 69.0229 29.885 69.1765C29.9418 69.5105 30.064 69.7843 30.2516 69.9981C30.4436 70.2051 30.7425 70.3087 31.1483 70.3087V70.6794H28.1113V70.3087H28.2029C28.3993 70.3153 28.5825 70.2686 28.7527 70.1684C28.9229 70.0615 29.0516 69.9213 29.1389 69.7476C29.2262 69.5739 29.2938 69.3301 29.3418 69.0162C29.3505 68.9427 29.3549 68.602 29.3549 67.9942V59.3976C29.3549 58.7096 29.3309 58.2821 29.2829 58.1152C29.2349 57.9415 29.1367 57.7912 28.9883 57.6643C28.84 57.5307 28.6414 57.4639 28.3927 57.4639H28.1113V57.0932H31.7374L34.2311 66.0505Z" fill="#0000FF"/>
<path d="M40.8157 57.0932H45.3974V57.4639H45.1683C44.8236 57.4639 44.5858 57.5207 44.4549 57.6342C44.3284 57.7411 44.2367 57.8914 44.18 58.0851C44.1276 58.2788 44.1015 58.7631 44.1015 59.5379V66.1907C44.1015 67.4064 44.1604 68.2113 44.2782 68.6054C44.4004 68.9995 44.5989 69.3268 44.8738 69.5873C45.1487 69.8478 45.4956 69.978 45.9145 69.978C46.3945 69.978 46.8025 69.8144 47.1385 69.4871C47.4788 69.1531 47.7319 68.6956 47.8977 68.1144C48.0679 67.5333 48.153 66.5214 48.153 65.0786V59.5379C48.153 58.9301 48.1115 58.4959 48.0286 58.2354C47.9457 57.9749 47.841 57.7945 47.7145 57.6943C47.5181 57.5407 47.241 57.4639 46.8832 57.4639V57.0932H49.953V57.4639H49.7697C49.521 57.4639 49.3137 57.5407 49.1479 57.6943C48.9821 57.848 48.8621 58.0784 48.7879 58.3857C48.7312 58.5994 48.7028 58.9835 48.7028 59.5379V64.6978C48.7028 66.2943 48.633 67.4465 48.4934 68.1545C48.3581 68.8625 48.0243 69.5138 47.4919 70.1083C46.9596 70.7028 46.233 71 45.3123 71C44.5444 71 43.9509 70.843 43.532 70.5291C42.9604 70.1016 42.5568 69.5539 42.3211 68.8859C42.0855 68.218 41.9677 67.3196 41.9677 66.1907V59.5379C41.9677 58.7564 41.9393 58.2721 41.8826 58.0851C41.8259 57.8914 41.7277 57.7378 41.5881 57.6242C41.4484 57.5107 41.191 57.4572 40.8157 57.4639V57.0932Z" fill="#0000FF"/>
<path d="M53.5267 57.0932L57.9055 65.5194V59.6782C57.9055 58.8633 57.8291 58.3122 57.6764 58.025C57.467 57.6376 57.1157 57.4505 56.6226 57.4639V57.0932H59.5549V57.4639C59.1797 57.5374 58.9266 57.6342 58.7957 57.7545C58.6691 57.868 58.5688 58.0584 58.4946 58.3256C58.4248 58.5861 58.3899 59.0369 58.3899 59.6782V70.99H58.1673L52.1653 59.6782V68.3148C52.1653 69.0963 52.2809 69.624 52.5122 69.8979C52.7478 70.1717 53.0162 70.3087 53.3172 70.3087H53.5267V70.6794H50.3784V70.3087C50.8671 70.302 51.2075 70.1484 51.3995 69.8478C51.5915 69.5472 51.6875 69.0362 51.6875 68.3148V58.7263L51.4976 58.3656C51.31 58.0049 51.1442 57.7678 51.0002 57.6543C50.8562 57.5407 50.6489 57.4773 50.3784 57.4639V57.0932H53.5267Z" fill="#0000FF"/>
<path d="M40.0034 16.2805V16.6513C39.7111 16.7114 39.4863 16.8416 39.3293 17.042C39.1111 17.3226 38.7664 18.0874 38.2951 19.3364L36.3708 24.2559V27.5423C36.3708 28.2436 36.3948 28.6811 36.4428 28.8548C36.4908 29.0218 36.5846 29.1721 36.7242 29.3057C36.8682 29.4326 37.058 29.496 37.2937 29.496H37.7911V29.8667H32.8101V29.496H33.2749C33.5367 29.496 33.7439 29.4259 33.8967 29.2856C34.0101 29.1921 34.0996 29.0318 34.165 28.8047C34.213 28.6444 34.237 28.2236 34.237 27.5423V24.817L32.1491 18.9958C31.7345 17.8469 31.4422 17.1723 31.272 16.9719C31.1018 16.7648 30.8749 16.6579 30.5913 16.6513V16.2805H34.8457V16.6513H34.6559C34.3985 16.6513 34.2174 16.708 34.1126 16.8216C34.0123 16.9351 33.9621 17.0554 33.9621 17.1823C33.9621 17.4227 34.1366 18.0272 34.4857 18.9958L36.0893 23.4945L37.6864 19.3966C38.0835 18.3946 38.282 17.73 38.282 17.4027C38.282 17.2224 38.2253 17.0721 38.1118 16.9518C37.9635 16.7848 37.6907 16.6847 37.2937 16.6513V16.2805H40.0034Z" fill="#0000FF"/>
<path d="M45.7371 25.9993H42.6019L42.2288 27.3218C42.1067 27.7627 42.0456 28.1267 42.0456 28.4139C42.0456 28.7947 42.1459 29.0752 42.3466 29.2556C42.4645 29.3624 42.7546 29.4426 43.2172 29.496V29.8667H40.2652V29.496C40.5838 29.4226 40.8456 29.2222 41.0507 28.8949C41.2558 28.5609 41.5088 27.8762 41.8099 26.8409L44.9844 16H45.1088L48.3094 27.1415C48.6149 28.1969 48.8658 28.8615 49.0621 29.1353C49.2105 29.3424 49.4199 29.4626 49.6905 29.496V29.8667H45.3968V29.496H45.5735C45.9182 29.496 46.1604 29.4226 46.3 29.2756C46.396 29.1687 46.444 29.0151 46.444 28.8147C46.444 28.6945 46.4309 28.5709 46.4047 28.444C46.396 28.3839 46.3306 28.1334 46.2084 27.6926L45.7371 25.9993ZM45.5146 25.2579L44.1924 20.5788L42.831 25.2579H45.5146Z" fill="#0000FF"/>
<path d="M53.4671 23.7149V27.4821C53.4671 28.2169 53.4955 28.6811 53.5522 28.8748C53.6133 29.0619 53.718 29.2121 53.8664 29.3257C54.0191 29.4393 54.2962 29.496 54.6976 29.496V29.8667H50.1879V29.496C50.5981 29.496 50.8752 29.4393 51.0192 29.3257C51.1675 29.2055 51.2701 29.0518 51.3268 28.8648C51.3879 28.6778 51.4184 28.2169 51.4184 27.4821V18.6651C51.4184 17.9304 51.3879 17.4695 51.3268 17.2825C51.2701 17.0888 51.1675 16.9351 51.0192 16.8216C50.8708 16.708 50.5937 16.6513 50.1879 16.6513V16.2805H54.0562C55.3304 16.2805 56.2445 16.6279 56.7987 17.3226C57.3528 18.0172 57.6299 18.8856 57.6299 19.9276C57.6299 20.8093 57.451 21.5641 57.0932 22.1919C56.7354 22.8198 56.2423 23.2473 55.614 23.4744C55.1907 23.6347 54.4751 23.7149 53.4671 23.7149ZM53.4671 17.062V22.9334C53.6111 22.9467 53.7202 22.9534 53.7944 22.9534C54.3267 22.9534 54.7369 22.7129 55.0249 22.232C55.3129 21.7444 55.4569 20.993 55.4569 19.9777C55.4569 18.9691 55.3129 18.231 55.0249 17.7634C54.7369 17.2958 54.3071 17.062 53.7355 17.062H53.4671Z" fill="#0000FF"/>
<path d="M30.4735 33.0729H58.0357V35.0267H30.4735V33.0729Z" fill="#0000FF"/>
<path d="M36.4173 38.5966V43.3057H36.162C35.97 42.0766 35.6122 41.1348 35.0886 40.4802C34.5649 39.8256 33.9715 39.4983 33.3082 39.4983C32.7541 39.4983 32.2457 39.7421 31.7832 40.2297C31.3207 40.7173 30.9825 41.3552 30.7687 42.1434C30.4938 43.152 30.3563 44.2742 30.3563 45.5099C30.3563 46.7256 30.4567 47.8344 30.6574 48.8363C30.8581 49.8316 31.1723 50.5864 31.5999 51.1007C32.0275 51.6083 32.5817 51.8622 33.2624 51.8622C33.821 51.8622 34.3315 51.6751 34.794 51.3011C35.2609 50.927 35.7518 50.2824 36.2667 49.3674V50.5396C35.7693 51.3345 35.25 51.9123 34.7089 52.273C34.1722 52.627 33.5439 52.804 32.8239 52.804C31.877 52.804 31.0348 52.5134 30.2974 51.9323C29.5643 51.3512 28.9971 50.5162 28.5956 49.4275C28.1985 48.3387 28 47.1798 28 45.9508C28 44.6549 28.2204 43.4259 28.6611 42.2637C29.1062 41.1014 29.704 40.1997 30.4545 39.5584C31.2094 38.9172 32.0101 38.5966 32.8566 38.5966C33.4806 38.5966 34.1395 38.8036 34.8333 39.2178C35.2347 39.4582 35.49 39.5785 35.5991 39.5785C35.7387 39.5785 35.8587 39.5017 35.9591 39.348C36.0638 39.1877 36.1315 38.9372 36.162 38.5966H36.4173Z" stroke="#0000FF" stroke-width="0.834849" mask="url(#path-2-outside-1_98_910)"/>
<path d="M42.3342 38.7168C43.748 38.6367 44.8956 39.2679 45.7771 40.6105C46.6628 41.953 47.1057 43.633 47.1057 45.6502C47.1057 47.3735 46.7763 48.8898 46.1174 50.199C45.2447 51.9356 44.012 52.804 42.4193 52.804C40.8223 52.804 39.5874 51.9757 38.7147 50.3192C38.0252 49.01 37.6805 47.457 37.6805 45.6602C37.6805 43.643 38.1278 41.9631 39.0223 40.6205C39.9212 39.2712 41.0252 38.6367 42.3342 38.7168ZM42.4128 39.358C41.6011 39.358 40.9837 39.9926 40.5604 41.2617C40.2157 42.3037 40.0434 43.7999 40.0434 45.7504C40.0434 48.0682 40.3095 49.7815 40.8419 50.8903C41.2128 51.6651 41.7321 52.0525 42.3997 52.0525C42.8491 52.0525 43.2244 51.8855 43.5255 51.5516C43.9095 51.1241 44.2084 50.4428 44.4222 49.5076C44.636 48.5658 44.7429 47.3401 44.7429 45.8305C44.7429 44.0337 44.6338 42.6911 44.4156 41.8028C44.1974 40.9077 43.9182 40.2765 43.5778 39.9091C43.2418 39.5417 42.8535 39.358 42.4128 39.358Z" stroke="#0000FF" stroke-width="0.834849" mask="url(#path-2-outside-1_98_910)"/>
<path d="M53.9783 47.8645L56.387 38.9072H60V39.2779H59.712C59.4502 39.2779 59.2407 39.348 59.0837 39.4883C58.9746 39.5818 58.8873 39.7388 58.8218 39.9592C58.7738 40.1195 58.7498 40.537 58.7498 41.2116V50.1689C58.7498 50.8636 58.7738 51.2977 58.8218 51.4714C58.8698 51.6451 58.968 51.7987 59.1164 51.9323C59.2647 52.0592 59.4633 52.1227 59.712 52.1227H60V52.4934H55.3659V52.1227H55.6539C55.9157 52.1227 56.1252 52.0525 56.2823 51.9123C56.3914 51.8187 56.4786 51.6584 56.5441 51.4313C56.5921 51.271 56.6161 50.8502 56.6161 50.1689V40.0995L53.2125 52.4934H53.0554L49.5995 40.1896V49.7581C49.5995 50.4261 49.6104 50.8368 49.6322 50.9905C49.689 51.3245 49.8111 51.5983 49.9988 51.8121C50.1908 52.0191 50.4897 52.1227 50.8955 52.1227V52.4934H47.8585V52.1227H47.9501C48.1465 52.1293 48.3297 52.0826 48.4999 51.9824C48.6701 51.8755 48.7988 51.7352 48.8861 51.5616C48.9733 51.3879 49.041 51.1441 49.089 50.8302C49.0977 50.7567 49.1021 50.416 49.1021 49.8082V41.2116C49.1021 40.5236 49.0781 40.0961 49.0301 39.9291C48.9821 39.7555 48.8839 39.6052 48.7355 39.4783C48.5872 39.3447 48.3886 39.2779 48.1399 39.2779H47.8585V38.9072H51.4846L53.9783 47.8645Z" stroke="#0000FF" stroke-width="0.834849" mask="url(#path-2-outside-1_98_910)"/>
<path d="M34.2311 66.0505L36.6398 57.0932H40.2528V57.4639H39.9648C39.703 57.4639 39.4936 57.534 39.3365 57.6743C39.2274 57.7678 39.1401 57.9248 39.0747 58.1452C39.0267 58.3055 39.0027 58.723 39.0027 59.3976V68.3549C39.0027 69.0496 39.0267 69.4837 39.0747 69.6574C39.1227 69.8311 39.2208 69.9847 39.3692 70.1183C39.5176 70.2452 39.7161 70.3087 39.9648 70.3087H40.2528V70.6794H35.6187V70.3087H35.9067C36.1685 70.3087 36.378 70.2385 36.5351 70.0983C36.6442 70.0047 36.7314 69.8444 36.7969 69.6173C36.8449 69.457 36.8689 69.0362 36.8689 68.3549V58.2855L33.4653 70.6794H33.3082L29.8523 58.3756V67.9441C29.8523 68.6121 29.8632 69.0229 29.885 69.1765C29.9418 69.5105 30.064 69.7843 30.2516 69.9981C30.4436 70.2051 30.7425 70.3087 31.1483 70.3087V70.6794H28.1113V70.3087H28.2029C28.3993 70.3153 28.5825 70.2686 28.7527 70.1684C28.9229 70.0615 29.0516 69.9213 29.1389 69.7476C29.2262 69.5739 29.2938 69.3301 29.3418 69.0162C29.3505 68.9427 29.3549 68.602 29.3549 67.9942V59.3976C29.3549 58.7096 29.3309 58.2821 29.2829 58.1152C29.2349 57.9415 29.1367 57.7912 28.9883 57.6643C28.84 57.5307 28.6414 57.4639 28.3927 57.4639H28.1113V57.0932H31.7374L34.2311 66.0505Z" stroke="#0000FF" stroke-width="0.834849" mask="url(#path-2-outside-1_98_910)"/>
<path d="M40.8157 57.0932H45.3974V57.4639H45.1683C44.8236 57.4639 44.5858 57.5207 44.4549 57.6342C44.3284 57.7411 44.2367 57.8914 44.18 58.0851C44.1276 58.2788 44.1015 58.7631 44.1015 59.5379V66.1907C44.1015 67.4064 44.1604 68.2113 44.2782 68.6054C44.4004 68.9995 44.5989 69.3268 44.8738 69.5873C45.1487 69.8478 45.4956 69.978 45.9145 69.978C46.3945 69.978 46.8025 69.8144 47.1385 69.4871C47.4788 69.1531 47.7319 68.6956 47.8977 68.1144C48.0679 67.5333 48.153 66.5214 48.153 65.0786V59.5379C48.153 58.9301 48.1115 58.4959 48.0286 58.2354C47.9457 57.9749 47.841 57.7945 47.7145 57.6943C47.5181 57.5407 47.241 57.4639 46.8832 57.4639V57.0932H49.953V57.4639H49.7697C49.521 57.4639 49.3137 57.5407 49.1479 57.6943C48.9821 57.848 48.8621 58.0784 48.7879 58.3857C48.7312 58.5994 48.7028 58.9835 48.7028 59.5379V64.6978C48.7028 66.2943 48.633 67.4465 48.4934 68.1545C48.3581 68.8625 48.0243 69.5138 47.4919 70.1083C46.9596 70.7028 46.233 71 45.3123 71C44.5444 71 43.9509 70.843 43.532 70.5291C42.9604 70.1016 42.5568 69.5539 42.3211 68.8859C42.0855 68.218 41.9677 67.3196 41.9677 66.1907V59.5379C41.9677 58.7564 41.9393 58.2721 41.8826 58.0851C41.8259 57.8914 41.7277 57.7378 41.5881 57.6242C41.4484 57.5107 41.191 57.4572 40.8157 57.4639V57.0932Z" stroke="#0000FF" stroke-width="0.834849" mask="url(#path-2-outside-1_98_910)"/>
<path d="M53.5267 57.0932L57.9055 65.5194V59.6782C57.9055 58.8633 57.8291 58.3122 57.6764 58.025C57.467 57.6376 57.1157 57.4505 56.6226 57.4639V57.0932H59.5549V57.4639C59.1797 57.5374 58.9266 57.6342 58.7957 57.7545C58.6691 57.868 58.5688 58.0584 58.4946 58.3256C58.4248 58.5861 58.3899 59.0369 58.3899 59.6782V70.99H58.1673L52.1653 59.6782V68.3148C52.1653 69.0963 52.2809 69.624 52.5122 69.8979C52.7478 70.1717 53.0162 70.3087 53.3172 70.3087H53.5267V70.6794H50.3784V70.3087C50.8671 70.302 51.2075 70.1484 51.3995 69.8478C51.5915 69.5472 51.6875 69.0362 51.6875 68.3148V58.7263L51.4976 58.3656C51.31 58.0049 51.1442 57.7678 51.0002 57.6543C50.8562 57.5407 50.6489 57.4773 50.3784 57.4639V57.0932H53.5267Z" stroke="#0000FF" stroke-width="0.834849" mask="url(#path-2-outside-1_98_910)"/>
<path d="M40.0034 16.2805V16.6513C39.7111 16.7114 39.4863 16.8416 39.3293 17.042C39.1111 17.3226 38.7664 18.0874 38.2951 19.3364L36.3708 24.2559V27.5423C36.3708 28.2436 36.3948 28.6811 36.4428 28.8548C36.4908 29.0218 36.5846 29.1721 36.7242 29.3057C36.8682 29.4326 37.058 29.496 37.2937 29.496H37.7911V29.8667H32.8101V29.496H33.2749C33.5367 29.496 33.7439 29.4259 33.8967 29.2856C34.0101 29.1921 34.0996 29.0318 34.165 28.8047C34.213 28.6444 34.237 28.2236 34.237 27.5423V24.817L32.1491 18.9958C31.7345 17.8469 31.4422 17.1723 31.272 16.9719C31.1018 16.7648 30.8749 16.6579 30.5913 16.6513V16.2805H34.8457V16.6513H34.6559C34.3985 16.6513 34.2174 16.708 34.1126 16.8216C34.0123 16.9351 33.9621 17.0554 33.9621 17.1823C33.9621 17.4227 34.1366 18.0272 34.4857 18.9958L36.0893 23.4945L37.6864 19.3966C38.0835 18.3946 38.282 17.73 38.282 17.4027C38.282 17.2224 38.2253 17.0721 38.1118 16.9518C37.9635 16.7848 37.6907 16.6847 37.2937 16.6513V16.2805H40.0034Z" stroke="#0000FF" stroke-width="0.834849" mask="url(#path-2-outside-1_98_910)"/>
<path d="M45.7371 25.9993H42.6019L42.2288 27.3218C42.1067 27.7627 42.0456 28.1267 42.0456 28.4139C42.0456 28.7947 42.1459 29.0752 42.3466 29.2556C42.4645 29.3624 42.7546 29.4426 43.2172 29.496V29.8667H40.2652V29.496C40.5838 29.4226 40.8456 29.2222 41.0507 28.8949C41.2558 28.5609 41.5088 27.8762 41.8099 26.8409L44.9844 16H45.1088L48.3094 27.1415C48.6149 28.1969 48.8658 28.8615 49.0621 29.1353C49.2105 29.3424 49.4199 29.4626 49.6905 29.496V29.8667H45.3968V29.496H45.5735C45.9182 29.496 46.1604 29.4226 46.3 29.2756C46.396 29.1687 46.444 29.0151 46.444 28.8147C46.444 28.6945 46.4309 28.5709 46.4047 28.444C46.396 28.3839 46.3306 28.1334 46.2084 27.6926L45.7371 25.9993ZM45.5146 25.2579L44.1924 20.5788L42.831 25.2579H45.5146Z" stroke="#0000FF" stroke-width="0.834849" mask="url(#path-2-outside-1_98_910)"/>
<path d="M53.4671 23.7149V27.4821C53.4671 28.2169 53.4955 28.6811 53.5522 28.8748C53.6133 29.0619 53.718 29.2121 53.8664 29.3257C54.0191 29.4393 54.2962 29.496 54.6976 29.496V29.8667H50.1879V29.496C50.5981 29.496 50.8752 29.4393 51.0192 29.3257C51.1675 29.2055 51.2701 29.0518 51.3268 28.8648C51.3879 28.6778 51.4184 28.2169 51.4184 27.4821V18.6651C51.4184 17.9304 51.3879 17.4695 51.3268 17.2825C51.2701 17.0888 51.1675 16.9351 51.0192 16.8216C50.8708 16.708 50.5937 16.6513 50.1879 16.6513V16.2805H54.0562C55.3304 16.2805 56.2445 16.6279 56.7987 17.3226C57.3528 18.0172 57.6299 18.8856 57.6299 19.9276C57.6299 20.8093 57.451 21.5641 57.0932 22.1919C56.7354 22.8198 56.2423 23.2473 55.614 23.4744C55.1907 23.6347 54.4751 23.7149 53.4671 23.7149ZM53.4671 17.062V22.9334C53.6111 22.9467 53.7202 22.9534 53.7944 22.9534C54.3267 22.9534 54.7369 22.7129 55.0249 22.232C55.3129 21.7444 55.4569 20.993 55.4569 19.9777C55.4569 18.9691 55.3129 18.231 55.0249 17.7634C54.7369 17.2958 54.3071 17.062 53.7355 17.062H53.4671Z" stroke="#0000FF" stroke-width="0.834849" mask="url(#path-2-outside-1_98_910)"/>
<path d="M30.4735 33.0729H58.0357V35.0267H30.4735V33.0729Z" stroke="#0000FF" stroke-width="0.834849" mask="url(#path-2-outside-1_98_910)"/>
<path d="M63.5866 17.0107C63.3879 16.6532 63.1098 16.378 62.7536 16.1873C62.401 15.9965 62.0366 15.9 61.6616 15.9C61.2884 15.9 60.925 15.9966 60.5726 16.1873C60.2163 16.378 59.9373 16.6532 59.7366 17.0106L59.7365 17.0108C59.539 17.3641 59.4394 17.735 59.4394 18.1221C59.4394 18.5072 59.538 18.876 59.7334 19.2273C59.9299 19.5807 60.2047 19.8565 60.5562 20.0532L60.5568 20.0535C60.908 20.2468 61.2767 20.3443 61.6616 20.3443C62.0464 20.3443 62.4151 20.2468 62.7664 20.0535L62.7668 20.0533C63.1203 19.8567 63.3961 19.5809 63.5927 19.2273C63.7881 18.876 63.8867 18.5072 63.8867 18.1221C63.8867 17.7349 63.786 17.364 63.5866 17.0107ZM63.5866 17.0107C63.5867 17.0108 63.5867 17.0109 63.5868 17.011L63.4994 17.0596L63.5864 17.0104C63.5865 17.0105 63.5866 17.0106 63.5866 17.0107ZM62.535 19.645L62.5347 19.6451C62.2556 19.8008 61.965 19.8779 61.6616 19.8779C61.3602 19.8779 61.0695 19.8009 60.7881 19.645C60.5091 19.4904 60.2931 19.2753 60.1386 18.9984C59.9829 18.7172 59.9058 18.4255 59.9058 18.1221C59.9058 17.819 59.9838 17.5263 60.1416 17.243C60.3001 16.9599 60.5179 16.7443 60.7961 16.5939C61.0801 16.4414 61.3682 16.3664 61.6616 16.3664C61.9571 16.3664 62.2451 16.4415 62.5269 16.5938L62.5272 16.5939C62.6083 16.6375 62.6842 16.6865 62.7549 16.7411H62.6643H62.5505H62.461L62.4511 16.83C62.4465 16.8723 62.4357 16.8835 62.4348 16.8843L62.4348 16.8843L62.4319 16.8871C62.428 16.8911 62.424 16.8937 62.4129 16.8937C62.4129 16.8937 62.4122 16.8937 62.4107 16.8936L62.4045 16.8928C62.3991 16.8919 62.3919 16.8904 62.3827 16.888C62.3642 16.8832 62.3402 16.8754 62.3103 16.8642L62.3103 16.8642L62.3091 16.8637C62.0805 16.7813 61.8721 16.7381 61.6855 16.7381C61.2823 16.7381 60.942 16.8707 60.6722 17.1382C60.4022 17.4061 60.2685 17.7468 60.2685 18.1521C60.2685 18.5349 60.3929 18.855 60.6456 19.1034L60.6463 19.104C60.9013 19.3503 61.2319 19.4703 61.6286 19.4703C62.0454 19.4703 62.3901 19.3349 62.6529 19.0591L62.6805 19.0302V18.9902V18.7806V18.5007L62.5031 18.7173C62.2923 18.9747 62.0584 19.0937 61.7993 19.0937C61.6147 19.0937 61.4615 19.022 61.334 18.8718C61.2136 18.7278 61.142 18.4704 61.142 18.0743C61.142 17.7064 61.2147 17.4599 61.3397 17.3129L61.34 17.3125C61.4697 17.1583 61.6257 17.0847 61.8142 17.0847C61.9725 17.0847 62.1067 17.1344 62.2217 17.234L62.2217 17.234L62.2229 17.235C62.3384 17.3318 62.4162 17.4678 62.4524 17.6507L62.4684 17.7313H62.5505H62.6643H62.7643V17.6313V16.8411V16.7484C62.9334 16.8809 63.0723 17.0455 63.1814 17.2427L63.1815 17.2429C63.3394 17.5263 63.4173 17.8189 63.4173 18.1221C63.4173 18.4255 63.3403 18.7172 63.1845 18.9984C63.03 19.2753 62.8141 19.4904 62.535 19.645ZM62.2871 17.1583C62.1534 17.0426 61.9958 16.9847 61.8142 16.9847C61.5947 16.9847 61.4111 17.0725 61.2635 17.2481L62.2871 17.1583Z" fill="#0000FF" stroke="#0000FF" stroke-width="0.2"/>
</svg>
