<svg width="88" height="88" viewBox="0 0 88 88" fill="none" xmlns="http://www.w3.org/2000/svg">
<circle cx="44" cy="44" r="43" stroke="#0000FF"/>
<mask id="path-2-outside-1_98_1069" maskUnits="userSpaceOnUse" x="28" y="57" width="33" height="11" fill="black">
<rect fill="white" x="28" y="57" width="33" height="11"/>
<path d="M31.8137 61.818V65.8084C31.8137 66.374 31.8903 66.732 32.0434 66.8822C32.2457 67.0767 32.5165 67.1739 32.8555 67.1739H33.5364V67.4125H29.0492V67.1739H29.3856C29.6043 67.1739 29.8039 67.1297 29.9844 67.0413C30.1649 66.9529 30.2879 66.8336 30.3535 66.6834C30.4246 66.5331 30.4602 66.2415 30.4602 65.8084V61.818H29V61.3408H30.4602V60.9431C30.4602 60.3377 30.5805 59.8251 30.8211 59.4052C31.0617 58.9854 31.4282 58.6474 31.9203 58.3911C32.418 58.1304 32.9758 58 33.5938 58C34.168 58 34.6958 58.1502 35.177 58.4507C35.4942 58.6496 35.6528 58.8728 35.6528 59.1202C35.6528 59.2528 35.5817 59.3787 35.4395 59.498C35.2973 59.6129 35.1442 59.6704 34.9802 59.6704C34.8544 59.6704 34.7204 59.635 34.5782 59.5643C34.4415 59.4892 34.2719 59.3323 34.0696 59.0937C33.8672 58.8507 33.6813 58.6872 33.5118 58.6032C33.3422 58.5192 33.1536 58.4773 32.9458 58.4773C32.6942 58.4773 32.4809 58.5325 32.3059 58.643C32.1309 58.749 32.0051 58.9169 31.9286 59.1467C31.852 59.3721 31.8137 59.9576 31.8137 60.9033V61.3408H33.7497V61.818H31.8137Z"/>
<path d="M38.729 66.5376C37.9579 67.0192 37.4739 67.2976 37.2771 67.3727C36.9817 67.4832 36.6673 67.5385 36.3337 67.5385C35.8141 67.5385 35.3848 67.3948 35.0458 67.1076C34.7122 66.8204 34.5454 66.4425 34.5454 65.9741C34.5454 65.6781 34.6274 65.4218 34.7915 65.2052C35.0157 64.9047 35.404 64.6219 35.9563 64.3568C36.5142 64.0916 37.4384 63.769 38.729 63.389V63.1504C38.729 62.545 38.6087 62.1296 38.3681 61.9042C38.1329 61.6788 37.7884 61.5662 37.3345 61.5662C36.9899 61.5662 36.7165 61.6413 36.5142 61.7915C36.3063 61.9418 36.2024 62.1141 36.2024 62.3085L36.2188 62.693C36.2188 62.8963 36.1532 63.0532 36.022 63.1636C35.8962 63.2741 35.7294 63.3293 35.5216 63.3293C35.3192 63.3293 35.1524 63.2719 35.0212 63.157C34.8954 63.0421 34.8325 62.8852 34.8325 62.6864C34.8325 62.3063 35.0731 61.9572 35.5544 61.6391C36.0356 61.3209 36.711 61.1618 37.5806 61.1618C38.2478 61.1618 38.7947 61.2524 39.2212 61.4336C39.5439 61.5706 39.7818 61.7849 39.9349 62.0765C40.0333 62.2666 40.0826 62.6554 40.0826 63.2432V65.3046C40.0826 65.8835 40.0962 66.2393 40.1236 66.3718C40.1509 66.5 40.1947 66.5862 40.2548 66.6304C40.3205 66.6745 40.3943 66.6966 40.4763 66.6966C40.5638 66.6966 40.6404 66.6812 40.706 66.6502C40.8209 66.5928 41.0423 66.4315 41.3705 66.1664V66.5376C40.758 67.2004 40.1728 67.5318 39.615 67.5318C39.347 67.5318 39.1337 67.4567 38.9751 67.3065C38.8165 67.1562 38.7345 66.8999 38.729 66.5376ZM38.729 66.1067V63.7933C37.9032 64.0585 37.37 64.2463 37.1294 64.3568C36.6974 64.5512 36.3884 64.7545 36.2024 64.9666C36.0165 65.1787 35.9235 65.4107 35.9235 65.6626C35.9235 65.9808 36.0411 66.2459 36.2763 66.458C36.5114 66.6657 36.7821 66.7696 37.0884 66.7696C37.504 66.7696 38.0509 66.5486 38.729 66.1067Z"/>
<path d="M44.135 61.1618V62.5273C44.7639 61.617 45.4092 61.1618 46.0709 61.1618C46.3717 61.1618 46.6205 61.2369 46.8174 61.3872C47.0143 61.533 47.1127 61.7031 47.1127 61.8976C47.1127 62.0699 47.0416 62.2157 46.8994 62.3351C46.7573 62.4544 46.5877 62.514 46.3908 62.514C46.1994 62.514 45.9834 62.4389 45.7428 62.2887C45.5076 62.134 45.3326 62.0567 45.2178 62.0567C45.1193 62.0567 45.0127 62.1009 44.8979 62.1892C44.6518 62.3704 44.3975 62.6687 44.135 63.0841V65.994C44.135 66.3299 44.1869 66.584 44.2908 66.7563C44.3619 66.8756 44.4877 66.975 44.6682 67.0546C44.8486 67.1341 45.1084 67.1739 45.4475 67.1739V67.4125H41.6002V67.1739C41.983 67.1739 42.2674 67.1253 42.4533 67.0281C42.59 66.9574 42.6857 66.8447 42.7404 66.69C42.7678 66.6149 42.7814 66.4006 42.7814 66.047V63.6939C42.7814 62.9869 42.7623 62.5671 42.724 62.4345C42.6912 62.2975 42.6256 62.1981 42.5271 62.1362C42.4342 62.0743 42.3166 62.0434 42.1744 62.0434C42.0049 62.0434 41.8134 62.0765 41.6002 62.1428L41.5181 61.9042L43.7904 61.1618H44.135Z"/>
<path d="M49.7624 62.4544C50.3093 62.0125 50.6319 61.7584 50.7304 61.6921C50.9765 61.5242 51.2417 61.3938 51.5261 61.301C51.8104 61.2082 52.0921 61.1618 52.371 61.1618C52.8413 61.1618 53.246 61.2723 53.5851 61.4932C53.9241 61.7142 54.1511 62.0346 54.2659 62.4544C54.8292 61.9241 55.305 61.5772 55.6933 61.4137C56.0816 61.2458 56.4808 61.1618 56.891 61.1618C57.2902 61.1618 57.6429 61.2458 57.9492 61.4137C58.2609 61.5772 58.507 61.8468 58.6875 62.2224C58.8078 62.4787 58.868 62.8808 58.868 63.4288V66.0404C58.868 66.4205 58.9035 66.6812 58.9746 66.8226C59.0293 66.9198 59.1305 67.0038 59.2781 67.0745C59.4258 67.1408 59.6664 67.1739 60 67.1739V67.4125H56.2921V67.1739H56.448C56.7707 67.1739 57.0222 67.1231 57.2027 67.0214C57.3285 66.9507 57.4187 66.838 57.4734 66.6834C57.4953 66.6083 57.5062 66.3939 57.5062 66.0404V63.4288C57.5062 62.9338 57.4324 62.5847 57.2847 62.3815C57.0715 62.0986 56.7296 61.9572 56.2593 61.9572C55.9695 61.9572 55.6769 62.0169 55.3816 62.1362C55.0917 62.2511 54.739 62.4676 54.3234 62.7858L54.307 62.8587L54.3234 63.1437V66.0404C54.3234 66.4558 54.3507 66.7143 54.4054 66.816C54.4656 66.9176 54.5749 67.0038 54.7335 67.0745C54.8921 67.1408 55.1628 67.1739 55.5457 67.1739V67.4125H51.7476V67.1739C52.1632 67.1739 52.4476 67.1341 52.6007 67.0546C52.7593 66.975 52.8687 66.8557 52.9288 66.6966C52.9562 66.6215 52.9698 66.4028 52.9698 66.0404V63.4288C52.9698 62.9338 52.8796 62.5781 52.6991 62.3616C52.4585 62.0788 52.1222 61.9373 51.6901 61.9373C51.3948 61.9373 51.1022 62.0014 50.8124 62.1296C50.3585 62.324 50.0085 62.5428 49.7624 62.7858V66.0404C49.7624 66.4381 49.7952 66.6966 49.8608 66.816C49.9319 66.9353 50.0331 67.0259 50.1643 67.0877C50.3011 67.1452 50.5745 67.1739 50.9847 67.1739V67.4125H47.2686V67.1739C47.6131 67.1739 47.8538 67.1452 47.9905 67.0877C48.1272 67.0259 48.2311 66.9308 48.3022 66.8027C48.3733 66.6701 48.4088 66.416 48.4088 66.0404V63.7204C48.4088 63.0532 48.3842 62.6223 48.335 62.4279C48.2967 62.282 48.2366 62.1826 48.1545 62.1296C48.0725 62.0721 47.9604 62.0434 47.8182 62.0434C47.6651 62.0434 47.4819 62.0765 47.2686 62.1428L47.1455 61.9042L49.4096 61.1618H49.7624V62.4544Z"/>
</mask>
<path d="M31.8137 61.818V65.8084C31.8137 66.374 31.8903 66.732 32.0434 66.8822C32.2457 67.0767 32.5165 67.1739 32.8555 67.1739H33.5364V67.4125H29.0492V67.1739H29.3856C29.6043 67.1739 29.8039 67.1297 29.9844 67.0413C30.1649 66.9529 30.2879 66.8336 30.3535 66.6834C30.4246 66.5331 30.4602 66.2415 30.4602 65.8084V61.818H29V61.3408H30.4602V60.9431C30.4602 60.3377 30.5805 59.8251 30.8211 59.4052C31.0617 58.9854 31.4282 58.6474 31.9203 58.3911C32.418 58.1304 32.9758 58 33.5938 58C34.168 58 34.6958 58.1502 35.177 58.4507C35.4942 58.6496 35.6528 58.8728 35.6528 59.1202C35.6528 59.2528 35.5817 59.3787 35.4395 59.498C35.2973 59.6129 35.1442 59.6704 34.9802 59.6704C34.8544 59.6704 34.7204 59.635 34.5782 59.5643C34.4415 59.4892 34.2719 59.3323 34.0696 59.0937C33.8672 58.8507 33.6813 58.6872 33.5118 58.6032C33.3422 58.5192 33.1536 58.4773 32.9458 58.4773C32.6942 58.4773 32.4809 58.5325 32.3059 58.643C32.1309 58.749 32.0051 58.9169 31.9286 59.1467C31.852 59.3721 31.8137 59.9576 31.8137 60.9033V61.3408H33.7497V61.818H31.8137Z" fill="#0000FF"/>
<path d="M38.729 66.5376C37.9579 67.0192 37.4739 67.2976 37.2771 67.3727C36.9817 67.4832 36.6673 67.5385 36.3337 67.5385C35.8141 67.5385 35.3848 67.3948 35.0458 67.1076C34.7122 66.8204 34.5454 66.4425 34.5454 65.9741C34.5454 65.6781 34.6274 65.4218 34.7915 65.2052C35.0157 64.9047 35.404 64.6219 35.9563 64.3568C36.5142 64.0916 37.4384 63.769 38.729 63.389V63.1504C38.729 62.545 38.6087 62.1296 38.3681 61.9042C38.1329 61.6788 37.7884 61.5662 37.3345 61.5662C36.9899 61.5662 36.7165 61.6413 36.5142 61.7915C36.3063 61.9418 36.2024 62.1141 36.2024 62.3085L36.2188 62.693C36.2188 62.8963 36.1532 63.0532 36.022 63.1636C35.8962 63.2741 35.7294 63.3293 35.5216 63.3293C35.3192 63.3293 35.1524 63.2719 35.0212 63.157C34.8954 63.0421 34.8325 62.8852 34.8325 62.6864C34.8325 62.3063 35.0731 61.9572 35.5544 61.6391C36.0356 61.3209 36.711 61.1618 37.5806 61.1618C38.2478 61.1618 38.7947 61.2524 39.2212 61.4336C39.5439 61.5706 39.7818 61.7849 39.9349 62.0765C40.0333 62.2666 40.0826 62.6554 40.0826 63.2432V65.3046C40.0826 65.8835 40.0962 66.2393 40.1236 66.3718C40.1509 66.5 40.1947 66.5862 40.2548 66.6304C40.3205 66.6745 40.3943 66.6966 40.4763 66.6966C40.5638 66.6966 40.6404 66.6812 40.706 66.6502C40.8209 66.5928 41.0423 66.4315 41.3705 66.1664V66.5376C40.758 67.2004 40.1728 67.5318 39.615 67.5318C39.347 67.5318 39.1337 67.4567 38.9751 67.3065C38.8165 67.1562 38.7345 66.8999 38.729 66.5376ZM38.729 66.1067V63.7933C37.9032 64.0585 37.37 64.2463 37.1294 64.3568C36.6974 64.5512 36.3884 64.7545 36.2024 64.9666C36.0165 65.1787 35.9235 65.4107 35.9235 65.6626C35.9235 65.9808 36.0411 66.2459 36.2763 66.458C36.5114 66.6657 36.7821 66.7696 37.0884 66.7696C37.504 66.7696 38.0509 66.5486 38.729 66.1067Z" fill="#0000FF"/>
<path d="M44.135 61.1618V62.5273C44.7639 61.617 45.4092 61.1618 46.0709 61.1618C46.3717 61.1618 46.6205 61.2369 46.8174 61.3872C47.0143 61.533 47.1127 61.7031 47.1127 61.8976C47.1127 62.0699 47.0416 62.2157 46.8994 62.3351C46.7573 62.4544 46.5877 62.514 46.3908 62.514C46.1994 62.514 45.9834 62.4389 45.7428 62.2887C45.5076 62.134 45.3326 62.0567 45.2178 62.0567C45.1193 62.0567 45.0127 62.1009 44.8979 62.1892C44.6518 62.3704 44.3975 62.6687 44.135 63.0841V65.994C44.135 66.3299 44.1869 66.584 44.2908 66.7563C44.3619 66.8756 44.4877 66.975 44.6682 67.0546C44.8486 67.1341 45.1084 67.1739 45.4475 67.1739V67.4125H41.6002V67.1739C41.983 67.1739 42.2674 67.1253 42.4533 67.0281C42.59 66.9574 42.6857 66.8447 42.7404 66.69C42.7678 66.6149 42.7814 66.4006 42.7814 66.047V63.6939C42.7814 62.9869 42.7623 62.5671 42.724 62.4345C42.6912 62.2975 42.6256 62.1981 42.5271 62.1362C42.4342 62.0743 42.3166 62.0434 42.1744 62.0434C42.0049 62.0434 41.8134 62.0765 41.6002 62.1428L41.5181 61.9042L43.7904 61.1618H44.135Z" fill="#0000FF"/>
<path d="M49.7624 62.4544C50.3093 62.0125 50.6319 61.7584 50.7304 61.6921C50.9765 61.5242 51.2417 61.3938 51.5261 61.301C51.8104 61.2082 52.0921 61.1618 52.371 61.1618C52.8413 61.1618 53.246 61.2723 53.5851 61.4932C53.9241 61.7142 54.1511 62.0346 54.2659 62.4544C54.8292 61.9241 55.305 61.5772 55.6933 61.4137C56.0816 61.2458 56.4808 61.1618 56.891 61.1618C57.2902 61.1618 57.6429 61.2458 57.9492 61.4137C58.2609 61.5772 58.507 61.8468 58.6875 62.2224C58.8078 62.4787 58.868 62.8808 58.868 63.4288V66.0404C58.868 66.4205 58.9035 66.6812 58.9746 66.8226C59.0293 66.9198 59.1305 67.0038 59.2781 67.0745C59.4258 67.1408 59.6664 67.1739 60 67.1739V67.4125H56.2921V67.1739H56.448C56.7707 67.1739 57.0222 67.1231 57.2027 67.0214C57.3285 66.9507 57.4187 66.838 57.4734 66.6834C57.4953 66.6083 57.5062 66.3939 57.5062 66.0404V63.4288C57.5062 62.9338 57.4324 62.5847 57.2847 62.3815C57.0715 62.0986 56.7296 61.9572 56.2593 61.9572C55.9695 61.9572 55.6769 62.0169 55.3816 62.1362C55.0917 62.2511 54.739 62.4676 54.3234 62.7858L54.307 62.8587L54.3234 63.1437V66.0404C54.3234 66.4558 54.3507 66.7143 54.4054 66.816C54.4656 66.9176 54.5749 67.0038 54.7335 67.0745C54.8921 67.1408 55.1628 67.1739 55.5457 67.1739V67.4125H51.7476V67.1739C52.1632 67.1739 52.4476 67.1341 52.6007 67.0546C52.7593 66.975 52.8687 66.8557 52.9288 66.6966C52.9562 66.6215 52.9698 66.4028 52.9698 66.0404V63.4288C52.9698 62.9338 52.8796 62.5781 52.6991 62.3616C52.4585 62.0788 52.1222 61.9373 51.6901 61.9373C51.3948 61.9373 51.1022 62.0014 50.8124 62.1296C50.3585 62.324 50.0085 62.5428 49.7624 62.7858V66.0404C49.7624 66.4381 49.7952 66.6966 49.8608 66.816C49.9319 66.9353 50.0331 67.0259 50.1643 67.0877C50.3011 67.1452 50.5745 67.1739 50.9847 67.1739V67.4125H47.2686V67.1739C47.6131 67.1739 47.8538 67.1452 47.9905 67.0877C48.1272 67.0259 48.2311 66.9308 48.3022 66.8027C48.3733 66.6701 48.4088 66.416 48.4088 66.0404V63.7204C48.4088 63.0532 48.3842 62.6223 48.335 62.4279C48.2967 62.282 48.2366 62.1826 48.1545 62.1296C48.0725 62.0721 47.9604 62.0434 47.8182 62.0434C47.6651 62.0434 47.4819 62.0765 47.2686 62.1428L47.1455 61.9042L49.4096 61.1618H49.7624V62.4544Z" fill="#0000FF"/>
<path d="M31.8137 61.818V65.8084C31.8137 66.374 31.8903 66.732 32.0434 66.8822C32.2457 67.0767 32.5165 67.1739 32.8555 67.1739H33.5364V67.4125H29.0492V67.1739H29.3856C29.6043 67.1739 29.8039 67.1297 29.9844 67.0413C30.1649 66.9529 30.2879 66.8336 30.3535 66.6834C30.4246 66.5331 30.4602 66.2415 30.4602 65.8084V61.818H29V61.3408H30.4602V60.9431C30.4602 60.3377 30.5805 59.8251 30.8211 59.4052C31.0617 58.9854 31.4282 58.6474 31.9203 58.3911C32.418 58.1304 32.9758 58 33.5938 58C34.168 58 34.6958 58.1502 35.177 58.4507C35.4942 58.6496 35.6528 58.8728 35.6528 59.1202C35.6528 59.2528 35.5817 59.3787 35.4395 59.498C35.2973 59.6129 35.1442 59.6704 34.9802 59.6704C34.8544 59.6704 34.7204 59.635 34.5782 59.5643C34.4415 59.4892 34.2719 59.3323 34.0696 59.0937C33.8672 58.8507 33.6813 58.6872 33.5118 58.6032C33.3422 58.5192 33.1536 58.4773 32.9458 58.4773C32.6942 58.4773 32.4809 58.5325 32.3059 58.643C32.1309 58.749 32.0051 58.9169 31.9286 59.1467C31.852 59.3721 31.8137 59.9576 31.8137 60.9033V61.3408H33.7497V61.818H31.8137Z" stroke="#0000FF" stroke-width="0.476923" mask="url(#path-2-outside-1_98_1069)"/>
<path d="M38.729 66.5376C37.9579 67.0192 37.4739 67.2976 37.2771 67.3727C36.9817 67.4832 36.6673 67.5385 36.3337 67.5385C35.8141 67.5385 35.3848 67.3948 35.0458 67.1076C34.7122 66.8204 34.5454 66.4425 34.5454 65.9741C34.5454 65.6781 34.6274 65.4218 34.7915 65.2052C35.0157 64.9047 35.404 64.6219 35.9563 64.3568C36.5142 64.0916 37.4384 63.769 38.729 63.389V63.1504C38.729 62.545 38.6087 62.1296 38.3681 61.9042C38.1329 61.6788 37.7884 61.5662 37.3345 61.5662C36.9899 61.5662 36.7165 61.6413 36.5142 61.7915C36.3063 61.9418 36.2024 62.1141 36.2024 62.3085L36.2188 62.693C36.2188 62.8963 36.1532 63.0532 36.022 63.1636C35.8962 63.2741 35.7294 63.3293 35.5216 63.3293C35.3192 63.3293 35.1524 63.2719 35.0212 63.157C34.8954 63.0421 34.8325 62.8852 34.8325 62.6864C34.8325 62.3063 35.0731 61.9572 35.5544 61.6391C36.0356 61.3209 36.711 61.1618 37.5806 61.1618C38.2478 61.1618 38.7947 61.2524 39.2212 61.4336C39.5439 61.5706 39.7818 61.7849 39.9349 62.0765C40.0333 62.2666 40.0826 62.6554 40.0826 63.2432V65.3046C40.0826 65.8835 40.0962 66.2393 40.1236 66.3718C40.1509 66.5 40.1947 66.5862 40.2548 66.6304C40.3205 66.6745 40.3943 66.6966 40.4763 66.6966C40.5638 66.6966 40.6404 66.6812 40.706 66.6502C40.8209 66.5928 41.0423 66.4315 41.3705 66.1664V66.5376C40.758 67.2004 40.1728 67.5318 39.615 67.5318C39.347 67.5318 39.1337 67.4567 38.9751 67.3065C38.8165 67.1562 38.7345 66.8999 38.729 66.5376ZM38.729 66.1067V63.7933C37.9032 64.0585 37.37 64.2463 37.1294 64.3568C36.6974 64.5512 36.3884 64.7545 36.2024 64.9666C36.0165 65.1787 35.9235 65.4107 35.9235 65.6626C35.9235 65.9808 36.0411 66.2459 36.2763 66.458C36.5114 66.6657 36.7821 66.7696 37.0884 66.7696C37.504 66.7696 38.0509 66.5486 38.729 66.1067Z" stroke="#0000FF" stroke-width="0.476923" mask="url(#path-2-outside-1_98_1069)"/>
<path d="M44.135 61.1618V62.5273C44.7639 61.617 45.4092 61.1618 46.0709 61.1618C46.3717 61.1618 46.6205 61.2369 46.8174 61.3872C47.0143 61.533 47.1127 61.7031 47.1127 61.8976C47.1127 62.0699 47.0416 62.2157 46.8994 62.3351C46.7573 62.4544 46.5877 62.514 46.3908 62.514C46.1994 62.514 45.9834 62.4389 45.7428 62.2887C45.5076 62.134 45.3326 62.0567 45.2178 62.0567C45.1193 62.0567 45.0127 62.1009 44.8979 62.1892C44.6518 62.3704 44.3975 62.6687 44.135 63.0841V65.994C44.135 66.3299 44.1869 66.584 44.2908 66.7563C44.3619 66.8756 44.4877 66.975 44.6682 67.0546C44.8486 67.1341 45.1084 67.1739 45.4475 67.1739V67.4125H41.6002V67.1739C41.983 67.1739 42.2674 67.1253 42.4533 67.0281C42.59 66.9574 42.6857 66.8447 42.7404 66.69C42.7678 66.6149 42.7814 66.4006 42.7814 66.047V63.6939C42.7814 62.9869 42.7623 62.5671 42.724 62.4345C42.6912 62.2975 42.6256 62.1981 42.5271 62.1362C42.4342 62.0743 42.3166 62.0434 42.1744 62.0434C42.0049 62.0434 41.8134 62.0765 41.6002 62.1428L41.5181 61.9042L43.7904 61.1618H44.135Z" stroke="#0000FF" stroke-width="0.476923" mask="url(#path-2-outside-1_98_1069)"/>
<path d="M49.7624 62.4544C50.3093 62.0125 50.6319 61.7584 50.7304 61.6921C50.9765 61.5242 51.2417 61.3938 51.5261 61.301C51.8104 61.2082 52.0921 61.1618 52.371 61.1618C52.8413 61.1618 53.246 61.2723 53.5851 61.4932C53.9241 61.7142 54.1511 62.0346 54.2659 62.4544C54.8292 61.9241 55.305 61.5772 55.6933 61.4137C56.0816 61.2458 56.4808 61.1618 56.891 61.1618C57.2902 61.1618 57.6429 61.2458 57.9492 61.4137C58.2609 61.5772 58.507 61.8468 58.6875 62.2224C58.8078 62.4787 58.868 62.8808 58.868 63.4288V66.0404C58.868 66.4205 58.9035 66.6812 58.9746 66.8226C59.0293 66.9198 59.1305 67.0038 59.2781 67.0745C59.4258 67.1408 59.6664 67.1739 60 67.1739V67.4125H56.2921V67.1739H56.448C56.7707 67.1739 57.0222 67.1231 57.2027 67.0214C57.3285 66.9507 57.4187 66.838 57.4734 66.6834C57.4953 66.6083 57.5062 66.3939 57.5062 66.0404V63.4288C57.5062 62.9338 57.4324 62.5847 57.2847 62.3815C57.0715 62.0986 56.7296 61.9572 56.2593 61.9572C55.9695 61.9572 55.6769 62.0169 55.3816 62.1362C55.0917 62.2511 54.739 62.4676 54.3234 62.7858L54.307 62.8587L54.3234 63.1437V66.0404C54.3234 66.4558 54.3507 66.7143 54.4054 66.816C54.4656 66.9176 54.5749 67.0038 54.7335 67.0745C54.8921 67.1408 55.1628 67.1739 55.5457 67.1739V67.4125H51.7476V67.1739C52.1632 67.1739 52.4476 67.1341 52.6007 67.0546C52.7593 66.975 52.8687 66.8557 52.9288 66.6966C52.9562 66.6215 52.9698 66.4028 52.9698 66.0404V63.4288C52.9698 62.9338 52.8796 62.5781 52.6991 62.3616C52.4585 62.0788 52.1222 61.9373 51.6901 61.9373C51.3948 61.9373 51.1022 62.0014 50.8124 62.1296C50.3585 62.324 50.0085 62.5428 49.7624 62.7858V66.0404C49.7624 66.4381 49.7952 66.6966 49.8608 66.816C49.9319 66.9353 50.0331 67.0259 50.1643 67.0877C50.3011 67.1452 50.5745 67.1739 50.9847 67.1739V67.4125H47.2686V67.1739C47.6131 67.1739 47.8538 67.1452 47.9905 67.0877C48.1272 67.0259 48.2311 66.9308 48.3022 66.8027C48.3733 66.6701 48.4088 66.416 48.4088 66.0404V63.7204C48.4088 63.0532 48.3842 62.6223 48.335 62.4279C48.2967 62.282 48.2366 62.1826 48.1545 62.1296C48.0725 62.0721 47.9604 62.0434 47.8182 62.0434C47.6651 62.0434 47.4819 62.0765 47.2686 62.1428L47.1455 61.9042L49.4096 61.1618H49.7624V62.4544Z" stroke="#0000FF" stroke-width="0.476923" mask="url(#path-2-outside-1_98_1069)"/>
<path d="M36.6069 31.1641H36.2569V31.5141V32.1276V32.4776H36.6069C36.7871 32.4776 36.8626 32.5274 36.9013 32.5721L36.9011 32.5723L36.9106 32.5825C36.9831 32.6598 37.0558 32.789 37.1108 32.9966L37.1108 32.9966L37.1124 33.0026C37.1709 33.2086 37.2027 33.452 37.2027 33.7361C37.2027 34.1963 37.0752 34.9329 36.8002 35.9678L36.8001 35.968L35.2991 41.6337L33.6862 35.6515L33.6862 35.6513C33.4043 34.6078 33.2772 33.9319 33.2772 33.5869C33.2772 33.1348 33.3621 32.8584 33.4769 32.7019C33.6229 32.5097 33.7308 32.4776 33.7971 32.4776H34.0042H34.3542V32.1276V31.5141V31.1641H34.0042H30H29.65V31.5141V32.1276V32.4776H30C30.0956 32.4776 30.1202 32.5039 30.1314 32.5174L30.1313 32.5175L30.1377 32.5247C30.4681 32.9 30.6594 33.1947 30.7432 33.4136L30.7432 33.4136L30.7451 33.4183C30.8466 33.6724 31.0483 34.3417 31.3538 35.4536C31.3539 35.4537 31.3539 35.4538 31.3539 35.4539L33.9096 44.827V50.1031C33.9096 50.7295 33.897 51.2383 33.8723 51.6317C33.8472 52.0323 33.8107 52.2897 33.7713 52.4275C33.6973 52.6843 33.6075 52.8393 33.5225 52.9263C33.4469 53.0037 33.3675 53.0364 33.2655 53.0364H32.9341H32.5841V53.3864V54V54.35H32.9341H36.9106H37.2606V54V53.3864V53.0364H36.9106H36.6069C36.4964 53.0364 36.4139 53.0049 36.3419 52.9444C36.2638 52.8788 36.1798 52.7627 36.106 52.5666C36.061 52.4468 36.0146 52.1907 35.9825 51.7601C35.9512 51.3412 35.9351 50.7898 35.9351 50.1031V44.5105L38.181 36.0145L38.181 36.0145L38.1816 36.0123C38.4573 34.9418 38.6852 34.1861 38.8652 33.7326C39.0453 33.2789 39.2358 32.9558 39.4277 32.7439C39.5348 32.6255 39.6177 32.5497 39.6777 32.5061C39.6986 32.4909 39.713 32.4823 39.7217 32.4776H39.8723H40.2223V32.1276V31.5141V31.1641H39.8723H36.6069ZM43.2039 53.0415C42.8016 52.9725 42.6357 52.8412 42.5709 52.7261C42.4673 52.5178 42.4108 52.2708 42.4108 51.9769C42.4108 51.5784 42.4843 50.9515 42.6401 50.0819L42.6401 50.0819L43.2236 46.8215H46.2611L46.7765 49.7655L46.7765 49.7656C46.9602 50.8136 47.0474 51.5563 47.0474 52.0101C47.0474 52.3332 46.9883 52.5837 46.8873 52.776L46.8873 52.776L46.885 52.7805C46.8254 52.8981 46.701 53.0036 46.4035 53.0389L46.0947 53.0755V53.3864V54V54.35H46.4447H50.1382H50.4882V54V53.3864V53.0834L50.1883 53.0401C49.9528 53.006 49.7374 52.8576 49.5565 52.4893C49.3681 52.084 49.1377 51.1536 48.8744 49.645L45.6159 30.9399L45.5654 30.65H45.2711H45.0294H44.7362L44.6849 30.9387L41.3918 49.4448L41.3916 49.4456C41.1053 51.0763 40.851 52.1125 40.6361 52.5981L40.6351 52.6005C40.5695 52.7518 40.4071 52.9172 40.0602 53.0642L39.8468 53.1547V53.3864V54V54.35H40.1968H43.1447H43.4947V54V53.3864V53.0914L43.2039 53.0415ZM43.5631 44.8944L44.7696 38.1652L45.9454 44.8944H43.5631ZM54.7261 52.5384L54.7262 52.5384L54.7244 52.5336C54.6796 52.4144 54.6331 52.1548 54.6009 51.715C54.5695 51.2876 54.5535 50.7236 54.5535 50.0202V44.0165C54.6872 44.0702 54.8183 44.1161 54.9467 44.154C55.2346 44.2389 55.5122 44.2844 55.7775 44.2844C56.8885 44.2844 57.6979 43.5723 58.2312 42.3505C58.7638 41.1408 59.0202 39.5955 59.0202 37.7325C59.0202 36.3566 58.8513 35.1507 58.5048 34.1219C58.1651 33.1132 57.732 32.3474 57.179 31.8785C56.6147 31.3889 55.8644 31.1641 54.9698 31.1641H51.5386H51.1886V31.5141V32.1276V32.4776H51.5386H51.8907C51.9789 32.4776 52.0506 32.5046 52.121 32.5687C52.1988 32.6396 52.2847 32.766 52.3628 32.9773C52.4064 33.0982 52.4512 33.3591 52.4822 33.7981C52.5125 34.226 52.5279 34.7903 52.5279 35.4939V50.0202C52.5279 50.6581 52.5165 51.1745 52.494 51.5716C52.4711 51.9756 52.4378 52.2324 52.4021 52.3661C52.3246 52.6474 52.231 52.8203 52.1416 52.9181C52.0619 53.0052 51.9839 53.0364 51.8907 53.0364H51.5386H51.1886V53.3864V54V54.35H51.5386H55.5497H55.8997V54V53.3864V53.0364H55.5497H55.1907C55.1026 53.0364 55.032 53.0095 54.9633 52.9463C54.8868 52.8761 54.8023 52.7501 54.7261 52.5384ZM56.2454 41.4026L56.2454 41.4027C56.0807 41.8245 55.9111 42.1107 55.7475 42.2863C55.5893 42.4562 55.4537 42.5065 55.3357 42.5065C55.2472 42.5065 55.1211 42.4876 54.9508 42.4377C54.8339 42.4035 54.7016 42.3563 54.5535 42.2952V33.3816C54.8097 33.2535 54.9907 33.2072 55.1079 33.2072C55.3461 33.2072 55.5974 33.3296 55.8598 33.6925L55.8598 33.6925L55.8624 33.6961C56.1209 34.0441 56.3426 34.6095 56.5042 35.4289L56.5044 35.4298C56.6649 36.2333 56.7461 37.111 56.7461 38.0642C56.7461 39.4543 56.5738 40.5621 56.2454 41.4026Z" fill="#0000FF" stroke="#0000FF" stroke-width="0.7"/>
<path d="M41.7748 17C42.4533 17 43.1318 17 43.8104 17C43.8241 17.009 43.8375 17.0251 43.8514 17.0255C43.8975 17.027 43.9349 17.0446 43.9773 17.062C44.0504 17.092 44.134 17.0951 44.1911 17.1618C44.1972 17.1689 44.2178 17.1624 44.2313 17.1645C44.3358 17.1809 44.448 17.1717 44.5302 17.2613C44.5423 17.2745 44.5731 17.2753 44.5947 17.2739C44.6683 17.2692 44.7268 17.2969 44.778 17.3474C44.7935 17.3626 44.8137 17.3794 44.8339 17.3824C44.9052 17.3932 44.9314 17.4472 44.9723 17.496C45.0063 17.5367 45.0832 17.5361 45.1208 17.5883C45.1258 17.5952 45.1255 17.606 45.1306 17.6127C45.1741 17.6691 45.2392 17.707 45.2677 17.7776C45.2727 17.7901 45.3079 17.7965 45.3288 17.7958C45.394 17.7937 45.4359 17.8121 45.4346 17.887C45.4343 17.9019 45.4459 17.9195 45.4569 17.9314C45.516 17.9954 45.57 18.0669 45.6386 18.1187C45.7151 18.1764 45.7338 18.2524 45.741 18.3331C45.7588 18.3425 45.7701 18.3505 45.7827 18.3548C45.8528 18.3785 45.8855 18.4227 45.8755 18.4999C45.8727 18.5209 45.8933 18.5451 45.904 18.5675C45.934 18.6303 45.9493 18.7008 46.0058 18.7498C46.0141 18.757 46.005 18.7838 46.0045 18.8015C46.004 18.8171 45.9976 18.8405 46.0052 18.8468C46.0482 18.8823 46.0361 18.9294 46.0387 18.974C46.0402 19.0008 46.0351 19.0388 46.0503 19.052C46.1048 19.0997 46.0908 19.1596 46.0938 19.2176C46.0947 19.2351 46.0954 19.2637 46.1048 19.2678C46.1618 19.2928 46.1458 19.3412 46.1493 19.3847C46.1582 19.4993 46.1165 19.6217 46.2019 19.7252C46.2088 19.7336 46.2015 19.7524 46.2043 19.7656C46.213 19.8049 46.2106 19.8601 46.2356 19.8795C46.2944 19.925 46.2787 19.9909 46.3051 20.041C46.3319 20.0549 46.361 20.0725 46.366 20.0954C46.3732 20.1278 46.3944 20.1469 46.4073 20.1712C46.4375 20.2282 46.4887 20.2349 46.535 20.26C46.5801 20.2845 46.6137 20.3299 46.6584 20.3555C46.7073 20.3834 46.7402 20.4312 46.8008 20.4467C46.8812 20.4673 46.9747 20.4481 47.0407 20.5172C47.1311 20.4985 47.1926 20.5991 47.2842 20.5759C47.3314 20.6604 47.4122 20.6201 47.4794 20.6265C47.5336 20.6316 47.5888 20.6275 47.6458 20.6275C47.6565 20.6554 47.6658 20.6796 47.6753 20.7044C47.6903 20.7063 47.7035 20.7084 47.7168 20.7097C47.8687 20.7242 47.9363 20.7958 47.9368 20.9431C47.937 20.9975 47.9368 21.052 47.9368 21.1071C47.8901 21.1234 47.8567 21.1378 47.8441 21.1918C47.832 21.2435 47.8242 21.3119 47.7491 21.3269C47.7384 21.329 47.7287 21.3449 47.7218 21.3564C47.68 21.4254 47.6247 21.4697 47.5347 21.4522C47.5021 21.5388 47.4651 21.617 47.3591 21.6293C47.3591 21.6921 47.3608 21.7512 47.3588 21.8102C47.3551 21.9163 47.3948 22.0157 47.4752 22.0687C47.5728 22.133 47.589 22.2089 47.5796 22.309C47.5753 22.3544 47.5788 22.4004 47.5788 22.458C47.4963 22.4661 47.4945 22.5339 47.4931 22.5857C47.3968 22.6284 47.3121 22.666 47.2275 22.7036C47.1531 22.8358 47.0177 22.8994 46.9075 22.9918C46.8613 23.0305 46.8001 23.0661 46.8073 23.145C46.8125 23.2011 46.7445 23.1693 46.7373 23.1857C46.6943 23.3225 46.7847 23.395 46.8258 23.4854C46.9474 23.4854 47.062 23.4866 47.1765 23.4851C47.29 23.4835 47.4017 23.4964 47.5145 23.508C47.5966 23.5164 47.6273 23.5783 47.6516 23.6203C47.6782 23.6664 47.6674 23.7481 47.6459 23.8039C47.6231 23.8632 47.5678 23.9098 47.5283 23.9629C47.5153 23.9804 47.4966 24.0025 47.4985 24.0207C47.5092 24.1289 47.4507 24.2519 47.5642 24.34C47.5753 24.3487 47.5758 24.373 47.5784 24.3905C47.5883 24.4569 47.5961 24.5237 47.6067 24.5901C47.6107 24.6153 47.6128 24.6536 47.6284 24.6617C47.6679 24.6823 47.6596 24.7132 47.6611 24.7436C47.6656 24.8392 47.577 24.9129 47.5969 25.0135C47.5988 25.0229 47.5726 25.0378 47.5595 25.0502C47.5472 25.0618 47.5316 25.0715 47.5232 25.0855C47.4434 25.2204 47.3262 25.3065 47.1789 25.3551C47.1622 25.3606 47.1433 25.366 47.1312 25.3775C47.0761 25.4302 47.0157 25.4092 46.9537 25.3931C46.9368 25.4513 46.8963 25.4663 46.839 25.466C46.7814 25.4658 46.7174 25.4645 46.668 25.4883C46.6293 25.5068 46.5949 25.5159 46.5541 25.5206C46.4876 25.5281 46.4017 25.5212 46.3607 25.5596C46.3062 25.6107 46.2552 25.5962 46.2004 25.6015C46.1785 25.6036 46.1562 25.6018 46.134 25.6018C46.1088 25.642 46.0802 25.6701 46.0459 25.6835C45.9674 25.7143 45.8871 25.733 45.833 25.8117C45.8101 25.8452 45.769 25.8799 45.7159 25.8892C45.6906 25.8936 45.6693 25.9255 45.648 25.9468C45.5962 25.9986 45.5421 26.0487 45.4954 26.1048C45.4483 26.1616 45.4104 26.226 45.3654 26.2847C45.3503 26.3045 45.3064 26.3283 45.3081 26.3313C45.3511 26.4054 45.2776 26.4125 45.2411 26.448C45.2649 26.5842 45.1761 26.6986 45.1488 26.8283C45.1459 26.8424 45.1252 26.8574 45.1095 26.8632C45.0873 26.8717 45.0849 26.8784 45.093 26.9008C45.1 26.9202 45.101 26.9454 45.095 26.9652C45.0347 27.166 45.0317 27.3738 45.0227 27.5799C45.0171 27.7084 45.035 27.8386 44.886 27.9032C44.8679 27.9666 44.8181 27.9651 44.7654 27.9662C44.0846 27.9803 43.4036 27.9439 42.7224 27.9888C42.3618 28.0127 41.9984 27.9952 41.6363 27.9917C41.5283 27.9907 41.42 27.9776 41.3128 27.9624C41.2813 27.958 41.2508 27.9307 41.2242 27.9086C41.1398 27.8382 41.0575 27.7652 40.9963 27.7123C40.9325 27.593 41.044 27.5398 41.0429 27.454C41.0427 27.4344 41.0875 27.4144 41.1089 27.3967C41.1281 27.2799 41.1082 27.1539 41.2134 27.0632C41.1888 26.9589 41.1829 26.9244 41.2377 26.879C41.2781 26.8455 41.2772 26.8141 41.2793 26.7746C41.2819 26.725 41.2676 26.6603 41.2933 26.629C41.3413 26.5705 41.3298 26.5106 41.3348 26.4486C41.3376 26.4142 41.3363 26.364 41.3568 26.35C41.3923 26.3256 41.3893 26.2988 41.3894 26.2682C41.39 26.1171 41.3901 25.966 41.3891 25.8148C41.389 25.793 41.3885 25.7571 41.377 25.7519C41.3196 25.7256 41.338 25.6772 41.3338 25.6346C41.3312 25.6081 41.3341 25.5653 41.3204 25.5586C41.2698 25.5338 41.2802 25.493 41.2792 25.4536C41.2785 25.422 41.2845 25.3873 41.2407 25.3777C41.2336 25.2943 41.1268 25.2577 41.1405 25.1646C41.0736 25.1074 41.0285 25.0355 40.9989 24.9533C40.9206 24.9619 40.9308 24.8842 40.8968 24.8494C40.8405 24.7918 40.7863 24.7314 40.7251 24.6794C40.6624 24.6262 40.5662 24.6186 40.5229 24.5363C40.5214 24.5334 40.5147 24.5315 40.5107 24.5318C40.423 24.5387 40.3918 24.4677 40.3387 24.4196C40.2987 24.3831 40.2781 24.315 40.213 24.3118C40.1652 24.3094 40.1439 24.2863 40.1181 24.2489C40.0898 24.2077 40.0452 24.1573 40.0021 24.1514C39.9322 24.1418 39.8993 24.098 39.8598 24.056C39.8416 24.0368 39.8345 24.0035 39.8137 23.9912C39.6937 23.9202 39.5778 23.8445 39.4922 23.7322C39.416 23.6324 39.2951 23.5913 39.2073 23.5014C39.0826 23.3737 38.9525 23.2501 38.8271 23.1221C38.7897 23.084 38.7334 23.0638 38.746 22.9945C38.7474 22.9864 38.7327 22.9686 38.7231 22.9664C38.6405 22.948 38.6609 22.8256 38.5697 22.8156C38.5639 22.815 38.5556 22.7919 38.557 22.7803C38.5626 22.731 38.5354 22.7031 38.5076 22.6653C38.4626 22.6041 38.4061 22.5471 38.3819 22.472C38.3602 22.405 38.3517 22.3323 38.2705 22.3024C38.2589 22.2981 38.2568 22.262 38.2542 22.2403C38.2451 22.1636 38.1714 22.1044 38.1939 22.0187C38.1953 22.0132 38.1857 22.0005 38.1785 21.9974C38.0932 21.961 38.1154 21.8904 38.1213 21.8241C38.1231 21.8044 38.1267 21.7797 38.1173 21.7651C38.0826 21.7108 38.0924 21.6513 38.0876 21.5928C38.0806 21.5077 38.0683 21.423 38.0583 21.3382C37.9691 21.2809 38.0093 21.1914 38.0075 21.1158C38.0028 20.9006 38.0037 20.6853 38.0069 20.47C38.0082 20.3866 37.9782 20.2946 38.0562 20.2252C38.0614 20.2206 38.0586 20.2078 38.0608 20.199C38.0732 20.1497 38.0445 20.0989 38.0877 20.0462C38.1121 20.0164 38.0899 19.9484 38.0884 19.8976C38.0868 19.8428 38.0808 19.7849 38.119 19.7406C38.1542 19.6998 38.0969 19.6626 38.1214 19.6272C38.1444 19.5937 38.1773 19.5659 38.1954 19.5303C38.2066 19.5082 38.1913 19.4737 38.2004 19.4494C38.2217 19.3927 38.2367 19.314 38.2798 19.2901C38.3313 19.2614 38.3487 19.229 38.3646 19.1824C38.3804 19.1357 38.3997 19.09 38.4198 19.0451C38.4262 19.0308 38.4382 19.017 38.4511 19.0081C38.5228 18.9589 38.5225 18.9592 38.5583 18.8761C38.5646 18.8616 38.5802 18.8511 38.5913 18.8386C38.6417 18.7822 38.6935 18.7269 38.7417 18.6687C38.7579 18.6491 38.7736 18.6224 38.7747 18.5982C38.7771 18.55 38.7959 18.5221 38.842 18.5079C38.8631 18.5014 38.886 18.4906 38.9009 18.475C38.959 18.4138 39.0133 18.3489 39.071 18.2875C39.1211 18.2341 39.1723 18.1814 39.2264 18.1319C39.2812 18.0818 39.3359 18.0341 39.406 17.9999C39.4659 17.9707 39.5093 17.9077 39.5607 17.8604C39.5665 17.8551 39.5774 17.8532 39.5859 17.8531C39.6735 17.8514 39.6971 17.7815 39.7308 17.7167C39.7779 17.7078 39.8282 17.7232 39.8722 17.6668C39.9087 17.62 39.9924 17.6132 40.0427 17.5731C40.1096 17.5198 40.1929 17.5179 40.2648 17.4817C40.3542 17.4368 40.4357 17.3732 40.5376 17.3546C40.5456 17.3532 40.5557 17.3474 40.5595 17.3406C40.5969 17.2732 40.6607 17.2731 40.7249 17.2751C40.7902 17.2771 40.8474 17.2526 40.9039 17.2244C40.9273 17.2127 40.9511 17.1971 40.9761 17.1936C41.0652 17.1815 41.1551 17.1751 41.2444 17.1637C41.2699 17.1604 41.302 17.1549 41.3178 17.138C41.4098 17.0396 41.5228 17.0126 41.6513 17.0267C41.6785 17.0296 41.7067 17.03 41.7336 17.0257C41.7483 17.0234 41.7612 17.009 41.7748 17.0001V17Z" fill="#0000FF"/>
<path d="M50.9347 22.9635C50.8407 23.0753 50.7189 23.1042 50.5765 23.1032C49.9817 23.0989 49.3869 23.1025 48.7921 23.1001C48.7027 23.0998 48.6119 23.0891 48.5243 23.0709C48.4599 23.0575 48.4124 23.0098 48.4049 22.9399C48.4008 22.9022 48.3921 22.8833 48.3515 22.8772C48.3358 22.8748 48.3154 22.8483 48.312 22.8299C48.3018 22.7773 48.2994 22.7232 48.2936 22.6697C48.2871 22.6092 48.3323 22.5844 48.3698 22.5507C48.4017 22.522 48.4245 22.4832 48.4543 22.4452C48.9251 22.3844 49.4043 22.4239 49.8822 22.4142C50.0835 22.4101 50.2849 22.4103 50.4861 22.4147C50.6031 22.4173 50.7203 22.4286 50.8365 22.4436C50.8709 22.448 50.9021 22.478 50.9347 22.4963V22.9635L50.9347 22.9635Z" fill="#0000FF"/>
<path d="M48.4087 21.8508C48.399 21.8075 48.4131 21.7663 48.3588 21.7435C48.3048 21.7209 48.2854 21.6678 48.2927 21.6061C48.2975 21.5654 48.2951 21.5237 48.2933 21.4826C48.2909 21.4289 48.3076 21.3976 48.3573 21.362C48.431 21.3092 48.4842 21.2283 48.5484 21.1615C48.6423 21.064 48.7382 20.9683 48.8333 20.872C48.8641 20.8408 48.8936 20.8079 48.9269 20.7793C48.9571 20.7535 48.9912 20.7322 49.0242 20.7099C49.0312 20.7052 49.0479 20.7057 49.0485 20.702C49.0618 20.6155 49.1466 20.5907 49.1912 20.5334C49.2839 20.4144 49.3999 20.3208 49.5052 20.2158C49.5275 20.1936 49.5601 20.1786 49.5755 20.1528C49.6579 20.0163 49.793 19.9409 49.9313 19.8983C50.0576 19.8593 50.2076 19.8565 50.3311 19.9198C50.4013 19.9558 50.4876 20.0148 50.4676 20.1269C50.4636 20.1491 50.4626 20.1736 50.4677 20.1953C50.4943 20.3085 50.4297 20.3841 50.3548 20.4469C50.2703 20.5178 50.1931 20.5938 50.1205 20.6763C50.0834 20.7186 50.0369 20.7541 49.9907 20.787C49.9391 20.8238 49.8962 20.8634 49.8609 20.9194C49.82 20.9844 49.7575 21.0362 49.7027 21.0921C49.5854 21.2114 49.4723 21.3355 49.347 21.4459C49.2841 21.5012 49.2235 21.559 49.1637 21.6171C49.1013 21.6779 49.0529 21.7536 48.9881 21.8112C48.946 21.8487 48.8861 21.8858 48.833 21.8875C48.694 21.8921 48.5507 21.9178 48.4086 21.8507L48.4087 21.8508Z" fill="#0000FF"/>
<path d="M48.9051 23.65C48.9369 23.6809 48.9351 23.7203 48.9748 23.7485C49.0542 23.8049 49.1498 23.8549 49.1795 23.9625C49.1815 23.9694 49.1921 23.9759 49.2001 23.9785C49.2917 24.0084 49.3322 24.0924 49.3931 24.1555C49.4642 24.2293 49.5462 24.2926 49.6173 24.3663C49.733 24.4865 49.8654 24.5915 49.9534 24.7377C49.9727 24.7699 50.0153 24.7878 50.0468 24.813C50.0777 24.8377 50.1079 24.8633 50.1385 24.8885C50.1482 24.8965 50.1585 24.9125 50.1674 24.9117C50.2566 24.9037 50.2921 24.9781 50.3427 25.0265C50.3634 25.0463 50.3719 25.0794 50.3843 25.1073C50.3914 25.1231 50.3914 25.1521 50.401 25.1552C50.4886 25.1834 50.4658 25.2551 50.4666 25.3157C50.4686 25.4662 50.4351 25.5214 50.3011 25.6048C50.2875 25.6133 50.2784 25.6302 50.2691 25.6445C50.2498 25.6742 50.2236 25.686 50.1881 25.6847C50.1379 25.6828 50.0874 25.6843 50.037 25.6842C49.8824 25.6842 49.8836 25.669 49.773 25.5483C49.7022 25.471 49.6356 25.3883 49.559 25.3162C49.4525 25.216 49.3377 25.1244 49.2325 25.0229C49.1948 24.9865 49.1599 24.9471 49.1206 24.9114C49.0787 24.8731 49.0493 24.8215 49.0097 24.7802C48.9232 24.69 48.8455 24.5904 48.7336 24.5263C48.7049 24.5098 48.6838 24.4757 48.666 24.4457C48.6428 24.4062 48.6276 24.3633 48.57 24.3616C48.5587 24.3612 48.5454 24.339 48.5376 24.3245C48.497 24.2488 48.4348 24.1944 48.3683 24.1424C48.3448 24.124 48.3223 24.0967 48.3131 24.0689C48.2793 23.9678 48.2853 23.8637 48.3085 23.7616C48.3146 23.7344 48.3281 23.7023 48.3724 23.7041C48.4333 23.7064 48.4646 23.6271 48.54 23.6472C48.5955 23.662 48.6582 23.6501 48.7177 23.6501C48.7816 23.6501 48.8453 23.6501 48.9053 23.6501L48.9051 23.65Z" fill="#0000FF"/>
<path d="M65.0472 32.0107C64.8485 31.6532 64.5704 31.378 64.2141 31.1873C63.8616 30.9965 63.4972 30.9 63.1221 30.9C62.749 30.9 62.3856 30.9966 62.0331 31.1873C61.6769 31.378 61.3978 31.6532 61.1972 32.0106L61.1971 32.0108C60.9996 32.3641 60.9 32.735 60.9 33.1221C60.9 33.5072 60.9986 33.876 61.194 34.2273C61.3905 34.5807 61.6652 34.8565 62.0167 35.0532L62.0173 35.0535C62.3686 35.2468 62.7373 35.3443 63.1221 35.3443C63.507 35.3443 63.8757 35.2468 64.2269 35.0535L64.2273 35.0533C64.5809 34.8567 64.8567 34.5809 65.0533 34.2273C65.2487 33.876 65.3473 33.5072 65.3473 33.1221C65.3473 32.7349 65.2466 32.364 65.0472 32.0107ZM65.0472 32.0107C65.0472 32.0108 65.0473 32.0109 65.0474 32.011L64.9599 32.0596L65.047 32.0104C65.0471 32.0105 65.0471 32.0106 65.0472 32.0107ZM63.9956 34.645L63.9953 34.6451C63.7162 34.8008 63.4256 34.8779 63.1221 34.8779C62.8208 34.8779 62.5301 34.8009 62.2487 34.645C61.9697 34.4904 61.7537 34.2753 61.5992 33.9984C61.4434 33.7172 61.3664 33.4255 61.3664 33.1221C61.3664 32.819 61.4443 32.5263 61.6021 32.243C61.7607 31.9599 61.9785 31.7443 62.2567 31.5939C62.5407 31.4414 62.8288 31.3664 63.1221 31.3664C63.4176 31.3664 63.7057 31.4415 63.9875 31.5938L63.9877 31.5939C64.0689 31.6375 64.1448 31.6865 64.2154 31.7411H64.1248H64.0111H63.9216L63.9117 31.83C63.907 31.8723 63.8963 31.8835 63.8954 31.8843L63.8953 31.8843L63.8925 31.8871C63.8885 31.8911 63.8846 31.8937 63.8734 31.8937C63.8735 31.8937 63.8728 31.8937 63.8713 31.8936L63.8651 31.8928C63.8597 31.8919 63.8525 31.8904 63.8433 31.888C63.8248 31.8832 63.8008 31.8754 63.7709 31.8642L63.7709 31.8642L63.7696 31.8637C63.541 31.7813 63.3327 31.7381 63.1461 31.7381C62.7429 31.7381 62.4026 31.8707 62.1328 32.1382C61.8628 32.4061 61.7291 32.7468 61.7291 33.1521C61.7291 33.5349 61.8535 33.855 62.1062 34.1034L62.1068 34.104C62.3619 34.3503 62.6925 34.4703 63.0892 34.4703C63.506 34.4703 63.8507 34.3349 64.1134 34.0591L64.141 34.0302V33.9902V33.7806V33.5007L63.9637 33.7173C63.7529 33.9747 63.519 34.0937 63.2598 34.0937C63.0753 34.0937 62.9221 34.022 62.7945 33.8718C62.6741 33.7278 62.6026 33.4704 62.6026 33.0743C62.6026 32.7064 62.6752 32.4599 62.8002 32.3129L62.8006 32.3125C62.9302 32.1583 63.0863 32.0847 63.2748 32.0847C63.433 32.0847 63.5673 32.1344 63.6823 32.234L63.6823 32.234L63.6835 32.235C63.799 32.3318 63.8768 32.4678 63.913 32.6507L63.929 32.7313H64.0111H64.1248H64.2248V32.6313V31.8411V31.7484C64.394 31.8809 64.5328 32.0455 64.642 32.2427L64.6421 32.2429C64.7999 32.5263 64.8779 32.8189 64.8779 33.1221C64.8779 33.4255 64.8009 33.7172 64.6451 33.9984C64.4906 34.2753 64.2746 34.4904 63.9956 34.645ZM63.7477 32.1583C63.614 32.0426 63.4564 31.9847 63.2748 31.9847C63.0553 31.9847 62.8717 32.0725 62.7241 32.2481L63.7477 32.1583Z" fill="#0000FF" stroke="#0000FF" stroke-width="0.2"/>
</svg>
