<svg width="88" height="88" viewBox="0 0 88 88" fill="none" xmlns="http://www.w3.org/2000/svg">
<circle cx="44" cy="44" r="43" stroke="#0000FF"/>
<mask id="path-2-outside-1_98_1055" maskUnits="userSpaceOnUse" x="16" y="31" width="51" height="27" fill="black">
<rect fill="white" x="16" y="31" width="51" height="27"/>
<path d="M23.8858 38.4698L22.9498 34.4139C22.7911 33.7132 22.5995 33.2343 22.3751 32.977C22.2054 32.78 21.8961 32.6404 21.4473 32.5583L21.5376 32.2545H26.8826L26.7841 32.5583C26.2641 32.5583 25.8837 32.665 25.6428 32.8785C25.4075 33.0865 25.2898 33.3356 25.2898 33.6257C25.2898 33.8063 25.339 34.121 25.4376 34.5699L26.1601 37.8623L27.9582 35.3827C28.418 34.7478 28.7053 34.3017 28.8203 34.0444C28.9352 33.7817 28.9927 33.5518 28.9927 33.3547C28.9927 33.1577 28.9188 32.9853 28.771 32.8375C28.6232 32.6897 28.3851 32.5966 28.0567 32.5583L28.147 32.2545H31.4887V32.5583C31.1876 32.5912 30.9276 32.6897 30.7087 32.8539C30.4897 33.0181 30.0628 33.5381 29.4278 34.4139L26.2668 38.7654L25.5279 41.3435C25.3692 41.8744 25.2898 42.1837 25.2898 42.2713C25.2898 42.5066 25.3801 42.7009 25.5607 42.8542C25.7414 43.0075 26.0451 43.0841 26.4721 43.0841H26.7841L26.6938 43.3879H20.9957L21.0778 43.0841C21.4938 43.0896 21.8277 43.0348 22.0795 42.9199C22.3313 42.7995 22.5201 42.6462 22.646 42.4601C22.7336 42.3287 22.8622 41.9784 23.0319 41.4092L23.8858 38.4698Z"/>
<path d="M35.2819 39.7999H31.8335L31.1438 40.6538L30.3556 41.598C30.2024 41.8005 30.0902 41.9839 30.019 42.1481C29.9643 42.274 29.9369 42.3999 29.9369 42.5258C29.9369 42.6571 30.0053 42.7803 30.1422 42.8952C30.2845 43.0047 30.5171 43.0677 30.84 43.0841V43.3879H27.5148L27.5969 43.0841C27.8925 43.0348 28.1552 42.9308 28.3851 42.7721C28.6916 42.5531 29.1323 42.1016 29.707 41.4174L37.5972 32H37.9667L37.5972 41.1136C37.5808 41.5898 37.5726 41.8772 37.5726 41.9757C37.5726 42.3479 37.6465 42.6188 37.7943 42.7885C37.9475 42.9582 38.1993 43.0567 38.5496 43.0841L38.4675 43.3879H33.648L33.7383 43.0841C34.2145 43.0403 34.4882 43.002 34.5594 42.9691C34.7126 42.8925 34.8522 42.7338 34.9781 42.4929C35.104 42.2466 35.1806 41.8224 35.208 41.2203L35.2819 39.7999ZM35.2819 39.1267L35.4954 35.4976L32.4 39.1267H35.2819Z"/>
<path d="M44.4529 38.2728L43.5498 41.3763C43.4239 41.8142 43.361 42.1235 43.361 42.3041C43.361 42.5559 43.4431 42.7475 43.6073 42.8788C43.7715 43.0047 44.1437 43.0731 44.7239 43.0841L44.6171 43.3879H39.1818L39.2722 43.0841C39.7319 43.0786 40.0576 43.0348 40.2492 42.9527C40.4408 42.8651 40.5995 42.7256 40.7254 42.534C40.8185 42.4081 40.958 42.0222 41.1441 41.3763L43.205 34.3071C43.3473 33.8364 43.4184 33.4998 43.4184 33.2972C43.4184 33.0947 43.3281 32.925 43.1475 32.7882C42.9669 32.6459 42.6384 32.5693 42.1622 32.5583L42.2525 32.2545H46.6615C47.8712 32.2545 48.7415 32.4078 49.2725 32.7143C50.0935 33.196 50.504 33.9185 50.504 34.8819C50.504 35.8124 50.0935 36.6334 49.2725 37.345C48.4569 38.0511 47.3567 38.4041 45.9719 38.4041C45.5559 38.4041 45.0496 38.3603 44.4529 38.2728ZM44.6171 37.6406C44.9729 37.6844 45.2685 37.7063 45.5039 37.7063C46.2592 37.7063 46.8531 37.3614 47.2855 36.6717C47.718 35.9821 47.9342 35.2623 47.9342 34.5124C47.9342 34.0033 47.7946 33.6092 47.5154 33.3301C47.2363 33.0455 46.8504 32.9031 46.3578 32.9031C46.2538 32.9031 46.1251 32.9086 45.9719 32.9196L44.6171 37.6406Z"/>
<path d="M23.5355 45.2545L27.0167 52.6768L28.5849 47.2907C28.667 46.9951 28.7081 46.7324 28.7081 46.5025C28.7081 46.2288 28.6205 46.0099 28.4453 45.8457C28.2757 45.6815 27.9801 45.5857 27.5586 45.5583L27.6489 45.2545H31.1794L31.0973 45.5583C30.6485 45.5857 30.2763 45.7116 29.9807 45.936C29.6906 46.1604 29.4443 46.612 29.2418 47.2907L26.5241 56.511H26.2121L21.7456 47.0198L19.5863 54.4174C19.5151 54.6746 19.4796 54.9045 19.4796 55.107C19.4796 55.4026 19.5753 55.6407 19.7669 55.8214C19.964 55.9965 20.276 56.0841 20.7029 56.0841L20.629 56.3879H17L17.0739 56.0841C17.3859 56.0841 17.6076 56.0567 17.7389 56.002C17.9688 55.9144 18.1932 55.7475 18.4122 55.5011C18.6311 55.2494 18.809 54.8881 18.9459 54.4174L21.3023 46.3301C21.0122 46.0071 20.7686 45.7991 20.5715 45.7061C20.3745 45.613 20.0789 45.5638 19.6848 45.5583L19.7751 45.2545H23.5355Z"/>
<path d="M36.0482 45.8703L34.8084 50.189H35.1861C36.1823 50.189 36.9076 50.0576 37.3619 49.7949C37.8217 49.5322 38.2103 49.0669 38.5278 48.3991H38.8315L37.5836 52.7342H37.2962C37.3455 52.4441 37.3701 52.2088 37.3701 52.0281C37.3701 51.7271 37.2798 51.4808 37.0991 51.2892C36.924 51.0976 36.6941 50.9608 36.4095 50.8787C36.2234 50.8239 35.8375 50.7966 35.2518 50.7966H34.6114L33.544 54.5323C33.451 54.8607 33.4044 55.1043 33.4044 55.263C33.4044 55.3889 33.4647 55.4902 33.5851 55.5668C33.7602 55.6763 34.0914 55.731 34.5785 55.731C35.5145 55.731 36.3958 55.534 37.2223 55.1399C38.0488 54.7403 38.7905 54.1382 39.4473 53.3336H39.784L38.6263 56.3879H29.1022L29.2007 56.0841C29.759 56.0841 30.1668 55.9801 30.4241 55.7721C30.6813 55.5586 30.914 55.0934 31.1219 54.3763L33.2156 47.2086C33.3306 46.809 33.388 46.4943 33.388 46.2644C33.388 46.0564 33.3141 45.8977 33.1663 45.7882C33.0186 45.6733 32.6819 45.5966 32.1565 45.5583L32.2468 45.2545H41.1223L40.408 48.0379H40.1124C40.0905 47.4905 40.0056 47.1046 39.8578 46.8802C39.628 46.5299 39.3214 46.2754 38.9383 46.1166C38.5606 45.9524 37.9448 45.8703 37.0909 45.8703H36.0482Z"/>
<path d="M43.101 56.6424L43.8563 47.1183C43.8782 46.8391 43.8892 46.6092 43.8892 46.4286C43.8892 46.1385 43.8208 45.925 43.6839 45.7882C43.5525 45.6514 43.3172 45.5747 42.9778 45.5583L43.101 45.2545H47.6003L47.51 45.5583H47.2883C46.9927 45.5583 46.7519 45.6568 46.5658 45.8539C46.3851 46.0455 46.2757 46.4067 46.2374 46.9377L45.8022 52.5864L49.1603 47.9968L49.2424 46.9377C49.2643 46.7187 49.2752 46.5436 49.2752 46.4122C49.2752 46.144 49.2013 45.9387 49.0535 45.7964C48.9112 45.6541 48.6731 45.5747 48.3392 45.5583L48.4213 45.2545H52.9535L52.8632 45.5583C52.4636 45.5583 52.168 45.6568 51.9765 45.8539C51.7849 46.0455 51.6672 46.4067 51.6234 46.9377L51.1965 52.5864L54.4314 48.1364C54.9842 47.3756 55.3263 46.8583 55.4577 46.5846C55.5507 46.3985 55.5973 46.2398 55.5973 46.1084C55.5973 45.9825 55.5343 45.8703 55.4084 45.7718C55.288 45.6678 55.0526 45.5966 54.7023 45.5583L54.7844 45.2545H57.7566L57.6827 45.5583C57.4145 45.6076 57.1928 45.7006 57.0177 45.8375C56.7713 46.029 56.4511 46.3958 56.057 46.9377L48.9879 56.6424H48.5034L49.07 49.1298L43.5936 56.6424H43.101Z"/>
<path d="M65.6797 45L64.7519 48.7768H64.4809C64.4207 48.1856 64.314 47.7122 64.1607 47.3564C63.9309 46.8419 63.6243 46.445 63.2412 46.1659C62.8635 45.8867 62.453 45.7472 62.0096 45.7472C61.5827 45.7472 61.2077 45.9114 60.8848 46.2398C60.5673 46.5627 60.4086 46.9295 60.4086 47.34C60.4086 47.745 60.518 48.1446 60.737 48.5387C60.9614 48.9273 61.4869 49.5157 62.3134 50.3039C62.9757 50.9334 63.4191 51.4753 63.6435 51.9296C63.8734 52.3839 63.9883 52.8765 63.9883 53.4075C63.9883 54.0041 63.8296 54.5542 63.5121 55.0578C63.1947 55.5614 62.7321 55.9527 62.1246 56.2319C61.5225 56.5056 60.8383 56.6424 60.0719 56.6424C59.6012 56.6424 59.0073 56.5712 58.2903 56.4289C57.5787 56.2921 57.1052 56.2237 56.8699 56.2237C56.6838 56.2237 56.5168 56.2538 56.369 56.314C56.2213 56.3687 56.0379 56.4782 55.8189 56.6424H55.4987L56.4922 52.3976H56.8042C56.8753 53.142 57.0259 53.777 57.2558 54.3024C57.4857 54.8224 57.8141 55.2302 58.241 55.5258C58.668 55.8159 59.1551 55.9609 59.7025 55.9609C60.2444 55.9609 60.6959 55.783 61.0572 55.4273C61.4239 55.066 61.6073 54.6445 61.6073 54.1628C61.6073 53.7523 61.5033 53.3582 61.2953 52.9805C61.0928 52.6029 60.6248 52.0528 59.8913 51.3302C59.1633 50.6077 58.6598 49.9618 58.3806 49.3926C58.1781 48.9711 58.0768 48.5223 58.0768 48.0461C58.0768 47.2196 58.4025 46.5052 59.0539 45.9031C59.7052 45.3011 60.5564 45 61.6073 45C62.0835 45 62.7102 45.1067 63.4875 45.3202C63.9418 45.4461 64.262 45.509 64.4481 45.509C64.6068 45.509 64.7492 45.4762 64.8751 45.4105C65.0009 45.3394 65.1487 45.2025 65.3184 45H65.6797Z"/>
</mask>
<path d="M23.8858 38.4698L22.9498 34.4139C22.7911 33.7132 22.5995 33.2343 22.3751 32.977C22.2054 32.78 21.8961 32.6404 21.4473 32.5583L21.5376 32.2545H26.8826L26.7841 32.5583C26.2641 32.5583 25.8837 32.665 25.6428 32.8785C25.4075 33.0865 25.2898 33.3356 25.2898 33.6257C25.2898 33.8063 25.339 34.121 25.4376 34.5699L26.1601 37.8623L27.9582 35.3827C28.418 34.7478 28.7053 34.3017 28.8203 34.0444C28.9352 33.7817 28.9927 33.5518 28.9927 33.3547C28.9927 33.1577 28.9188 32.9853 28.771 32.8375C28.6232 32.6897 28.3851 32.5966 28.0567 32.5583L28.147 32.2545H31.4887V32.5583C31.1876 32.5912 30.9276 32.6897 30.7087 32.8539C30.4897 33.0181 30.0628 33.5381 29.4278 34.4139L26.2668 38.7654L25.5279 41.3435C25.3692 41.8744 25.2898 42.1837 25.2898 42.2713C25.2898 42.5066 25.3801 42.7009 25.5607 42.8542C25.7414 43.0075 26.0451 43.0841 26.4721 43.0841H26.7841L26.6938 43.3879H20.9957L21.0778 43.0841C21.4938 43.0896 21.8277 43.0348 22.0795 42.9199C22.3313 42.7995 22.5201 42.6462 22.646 42.4601C22.7336 42.3287 22.8622 41.9784 23.0319 41.4092L23.8858 38.4698Z" fill="#0000FF"/>
<path d="M35.2819 39.7999H31.8335L31.1438 40.6538L30.3556 41.598C30.2024 41.8005 30.0902 41.9839 30.019 42.1481C29.9643 42.274 29.9369 42.3999 29.9369 42.5258C29.9369 42.6571 30.0053 42.7803 30.1422 42.8952C30.2845 43.0047 30.5171 43.0677 30.84 43.0841V43.3879H27.5148L27.5969 43.0841C27.8925 43.0348 28.1552 42.9308 28.3851 42.7721C28.6916 42.5531 29.1323 42.1016 29.707 41.4174L37.5972 32H37.9667L37.5972 41.1136C37.5808 41.5898 37.5726 41.8772 37.5726 41.9757C37.5726 42.3479 37.6465 42.6188 37.7943 42.7885C37.9475 42.9582 38.1993 43.0567 38.5496 43.0841L38.4675 43.3879H33.648L33.7383 43.0841C34.2145 43.0403 34.4882 43.002 34.5594 42.9691C34.7126 42.8925 34.8522 42.7338 34.9781 42.4929C35.104 42.2466 35.1806 41.8224 35.208 41.2203L35.2819 39.7999ZM35.2819 39.1267L35.4954 35.4976L32.4 39.1267H35.2819Z" fill="#0000FF"/>
<path d="M44.4529 38.2728L43.5498 41.3763C43.4239 41.8142 43.361 42.1235 43.361 42.3041C43.361 42.5559 43.4431 42.7475 43.6073 42.8788C43.7715 43.0047 44.1437 43.0731 44.7239 43.0841L44.6171 43.3879H39.1818L39.2722 43.0841C39.7319 43.0786 40.0576 43.0348 40.2492 42.9527C40.4408 42.8651 40.5995 42.7256 40.7254 42.534C40.8185 42.4081 40.958 42.0222 41.1441 41.3763L43.205 34.3071C43.3473 33.8364 43.4184 33.4998 43.4184 33.2972C43.4184 33.0947 43.3281 32.925 43.1475 32.7882C42.9669 32.6459 42.6384 32.5693 42.1622 32.5583L42.2525 32.2545H46.6615C47.8712 32.2545 48.7415 32.4078 49.2725 32.7143C50.0935 33.196 50.504 33.9185 50.504 34.8819C50.504 35.8124 50.0935 36.6334 49.2725 37.345C48.4569 38.0511 47.3567 38.4041 45.9719 38.4041C45.5559 38.4041 45.0496 38.3603 44.4529 38.2728ZM44.6171 37.6406C44.9729 37.6844 45.2685 37.7063 45.5039 37.7063C46.2592 37.7063 46.8531 37.3614 47.2855 36.6717C47.718 35.9821 47.9342 35.2623 47.9342 34.5124C47.9342 34.0033 47.7946 33.6092 47.5154 33.3301C47.2363 33.0455 46.8504 32.9031 46.3578 32.9031C46.2538 32.9031 46.1251 32.9086 45.9719 32.9196L44.6171 37.6406Z" fill="#0000FF"/>
<path d="M23.5355 45.2545L27.0167 52.6768L28.5849 47.2907C28.667 46.9951 28.7081 46.7324 28.7081 46.5025C28.7081 46.2288 28.6205 46.0099 28.4453 45.8457C28.2757 45.6815 27.9801 45.5857 27.5586 45.5583L27.6489 45.2545H31.1794L31.0973 45.5583C30.6485 45.5857 30.2763 45.7116 29.9807 45.936C29.6906 46.1604 29.4443 46.612 29.2418 47.2907L26.5241 56.511H26.2121L21.7456 47.0198L19.5863 54.4174C19.5151 54.6746 19.4796 54.9045 19.4796 55.107C19.4796 55.4026 19.5753 55.6407 19.7669 55.8214C19.964 55.9965 20.276 56.0841 20.7029 56.0841L20.629 56.3879H17L17.0739 56.0841C17.3859 56.0841 17.6076 56.0567 17.7389 56.002C17.9688 55.9144 18.1932 55.7475 18.4122 55.5011C18.6311 55.2494 18.809 54.8881 18.9459 54.4174L21.3023 46.3301C21.0122 46.0071 20.7686 45.7991 20.5715 45.7061C20.3745 45.613 20.0789 45.5638 19.6848 45.5583L19.7751 45.2545H23.5355Z" fill="#0000FF"/>
<path d="M36.0482 45.8703L34.8084 50.189H35.1861C36.1823 50.189 36.9076 50.0576 37.3619 49.7949C37.8217 49.5322 38.2103 49.0669 38.5278 48.3991H38.8315L37.5836 52.7342H37.2962C37.3455 52.4441 37.3701 52.2088 37.3701 52.0281C37.3701 51.7271 37.2798 51.4808 37.0991 51.2892C36.924 51.0976 36.6941 50.9608 36.4095 50.8787C36.2234 50.8239 35.8375 50.7966 35.2518 50.7966H34.6114L33.544 54.5323C33.451 54.8607 33.4044 55.1043 33.4044 55.263C33.4044 55.3889 33.4647 55.4902 33.5851 55.5668C33.7602 55.6763 34.0914 55.731 34.5785 55.731C35.5145 55.731 36.3958 55.534 37.2223 55.1399C38.0488 54.7403 38.7905 54.1382 39.4473 53.3336H39.784L38.6263 56.3879H29.1022L29.2007 56.0841C29.759 56.0841 30.1668 55.9801 30.4241 55.7721C30.6813 55.5586 30.914 55.0934 31.1219 54.3763L33.2156 47.2086C33.3306 46.809 33.388 46.4943 33.388 46.2644C33.388 46.0564 33.3141 45.8977 33.1663 45.7882C33.0186 45.6733 32.6819 45.5966 32.1565 45.5583L32.2468 45.2545H41.1223L40.408 48.0379H40.1124C40.0905 47.4905 40.0056 47.1046 39.8578 46.8802C39.628 46.5299 39.3214 46.2754 38.9383 46.1166C38.5606 45.9524 37.9448 45.8703 37.0909 45.8703H36.0482Z" fill="#0000FF"/>
<path d="M43.101 56.6424L43.8563 47.1183C43.8782 46.8391 43.8892 46.6092 43.8892 46.4286C43.8892 46.1385 43.8208 45.925 43.6839 45.7882C43.5525 45.6514 43.3172 45.5747 42.9778 45.5583L43.101 45.2545H47.6003L47.51 45.5583H47.2883C46.9927 45.5583 46.7519 45.6568 46.5658 45.8539C46.3851 46.0455 46.2757 46.4067 46.2374 46.9377L45.8022 52.5864L49.1603 47.9968L49.2424 46.9377C49.2643 46.7187 49.2752 46.5436 49.2752 46.4122C49.2752 46.144 49.2013 45.9387 49.0535 45.7964C48.9112 45.6541 48.6731 45.5747 48.3392 45.5583L48.4213 45.2545H52.9535L52.8632 45.5583C52.4636 45.5583 52.168 45.6568 51.9765 45.8539C51.7849 46.0455 51.6672 46.4067 51.6234 46.9377L51.1965 52.5864L54.4314 48.1364C54.9842 47.3756 55.3263 46.8583 55.4577 46.5846C55.5507 46.3985 55.5973 46.2398 55.5973 46.1084C55.5973 45.9825 55.5343 45.8703 55.4084 45.7718C55.288 45.6678 55.0526 45.5966 54.7023 45.5583L54.7844 45.2545H57.7566L57.6827 45.5583C57.4145 45.6076 57.1928 45.7006 57.0177 45.8375C56.7713 46.029 56.4511 46.3958 56.057 46.9377L48.9879 56.6424H48.5034L49.07 49.1298L43.5936 56.6424H43.101Z" fill="#0000FF"/>
<path d="M65.6797 45L64.7519 48.7768H64.4809C64.4207 48.1856 64.314 47.7122 64.1607 47.3564C63.9309 46.8419 63.6243 46.445 63.2412 46.1659C62.8635 45.8867 62.453 45.7472 62.0096 45.7472C61.5827 45.7472 61.2077 45.9114 60.8848 46.2398C60.5673 46.5627 60.4086 46.9295 60.4086 47.34C60.4086 47.745 60.518 48.1446 60.737 48.5387C60.9614 48.9273 61.4869 49.5157 62.3134 50.3039C62.9757 50.9334 63.4191 51.4753 63.6435 51.9296C63.8734 52.3839 63.9883 52.8765 63.9883 53.4075C63.9883 54.0041 63.8296 54.5542 63.5121 55.0578C63.1947 55.5614 62.7321 55.9527 62.1246 56.2319C61.5225 56.5056 60.8383 56.6424 60.0719 56.6424C59.6012 56.6424 59.0073 56.5712 58.2903 56.4289C57.5787 56.2921 57.1052 56.2237 56.8699 56.2237C56.6838 56.2237 56.5168 56.2538 56.369 56.314C56.2213 56.3687 56.0379 56.4782 55.8189 56.6424H55.4987L56.4922 52.3976H56.8042C56.8753 53.142 57.0259 53.777 57.2558 54.3024C57.4857 54.8224 57.8141 55.2302 58.241 55.5258C58.668 55.8159 59.1551 55.9609 59.7025 55.9609C60.2444 55.9609 60.6959 55.783 61.0572 55.4273C61.4239 55.066 61.6073 54.6445 61.6073 54.1628C61.6073 53.7523 61.5033 53.3582 61.2953 52.9805C61.0928 52.6029 60.6248 52.0528 59.8913 51.3302C59.1633 50.6077 58.6598 49.9618 58.3806 49.3926C58.1781 48.9711 58.0768 48.5223 58.0768 48.0461C58.0768 47.2196 58.4025 46.5052 59.0539 45.9031C59.7052 45.3011 60.5564 45 61.6073 45C62.0835 45 62.7102 45.1067 63.4875 45.3202C63.9418 45.4461 64.262 45.509 64.4481 45.509C64.6068 45.509 64.7492 45.4762 64.8751 45.4105C65.0009 45.3394 65.1487 45.2025 65.3184 45H65.6797Z" fill="#0000FF"/>
<path d="M23.8858 38.4698L22.9498 34.4139C22.7911 33.7132 22.5995 33.2343 22.3751 32.977C22.2054 32.78 21.8961 32.6404 21.4473 32.5583L21.5376 32.2545H26.8826L26.7841 32.5583C26.2641 32.5583 25.8837 32.665 25.6428 32.8785C25.4075 33.0865 25.2898 33.3356 25.2898 33.6257C25.2898 33.8063 25.339 34.121 25.4376 34.5699L26.1601 37.8623L27.9582 35.3827C28.418 34.7478 28.7053 34.3017 28.8203 34.0444C28.9352 33.7817 28.9927 33.5518 28.9927 33.3547C28.9927 33.1577 28.9188 32.9853 28.771 32.8375C28.6232 32.6897 28.3851 32.5966 28.0567 32.5583L28.147 32.2545H31.4887V32.5583C31.1876 32.5912 30.9276 32.6897 30.7087 32.8539C30.4897 33.0181 30.0628 33.5381 29.4278 34.4139L26.2668 38.7654L25.5279 41.3435C25.3692 41.8744 25.2898 42.1837 25.2898 42.2713C25.2898 42.5066 25.3801 42.7009 25.5607 42.8542C25.7414 43.0075 26.0451 43.0841 26.4721 43.0841H26.7841L26.6938 43.3879H20.9957L21.0778 43.0841C21.4938 43.0896 21.8277 43.0348 22.0795 42.9199C22.3313 42.7995 22.5201 42.6462 22.646 42.4601C22.7336 42.3287 22.8622 41.9784 23.0319 41.4092L23.8858 38.4698Z" stroke="#0000FF" stroke-width="0.834849" mask="url(#path-2-outside-1_98_1055)"/>
<path d="M35.2819 39.7999H31.8335L31.1438 40.6538L30.3556 41.598C30.2024 41.8005 30.0902 41.9839 30.019 42.1481C29.9643 42.274 29.9369 42.3999 29.9369 42.5258C29.9369 42.6571 30.0053 42.7803 30.1422 42.8952C30.2845 43.0047 30.5171 43.0677 30.84 43.0841V43.3879H27.5148L27.5969 43.0841C27.8925 43.0348 28.1552 42.9308 28.3851 42.7721C28.6916 42.5531 29.1323 42.1016 29.707 41.4174L37.5972 32H37.9667L37.5972 41.1136C37.5808 41.5898 37.5726 41.8772 37.5726 41.9757C37.5726 42.3479 37.6465 42.6188 37.7943 42.7885C37.9475 42.9582 38.1993 43.0567 38.5496 43.0841L38.4675 43.3879H33.648L33.7383 43.0841C34.2145 43.0403 34.4882 43.002 34.5594 42.9691C34.7126 42.8925 34.8522 42.7338 34.9781 42.4929C35.104 42.2466 35.1806 41.8224 35.208 41.2203L35.2819 39.7999ZM35.2819 39.1267L35.4954 35.4976L32.4 39.1267H35.2819Z" stroke="#0000FF" stroke-width="0.834849" mask="url(#path-2-outside-1_98_1055)"/>
<path d="M44.4529 38.2728L43.5498 41.3763C43.4239 41.8142 43.361 42.1235 43.361 42.3041C43.361 42.5559 43.4431 42.7475 43.6073 42.8788C43.7715 43.0047 44.1437 43.0731 44.7239 43.0841L44.6171 43.3879H39.1818L39.2722 43.0841C39.7319 43.0786 40.0576 43.0348 40.2492 42.9527C40.4408 42.8651 40.5995 42.7256 40.7254 42.534C40.8185 42.4081 40.958 42.0222 41.1441 41.3763L43.205 34.3071C43.3473 33.8364 43.4184 33.4998 43.4184 33.2972C43.4184 33.0947 43.3281 32.925 43.1475 32.7882C42.9669 32.6459 42.6384 32.5693 42.1622 32.5583L42.2525 32.2545H46.6615C47.8712 32.2545 48.7415 32.4078 49.2725 32.7143C50.0935 33.196 50.504 33.9185 50.504 34.8819C50.504 35.8124 50.0935 36.6334 49.2725 37.345C48.4569 38.0511 47.3567 38.4041 45.9719 38.4041C45.5559 38.4041 45.0496 38.3603 44.4529 38.2728ZM44.6171 37.6406C44.9729 37.6844 45.2685 37.7063 45.5039 37.7063C46.2592 37.7063 46.8531 37.3614 47.2855 36.6717C47.718 35.9821 47.9342 35.2623 47.9342 34.5124C47.9342 34.0033 47.7946 33.6092 47.5154 33.3301C47.2363 33.0455 46.8504 32.9031 46.3578 32.9031C46.2538 32.9031 46.1251 32.9086 45.9719 32.9196L44.6171 37.6406Z" stroke="#0000FF" stroke-width="0.834849" mask="url(#path-2-outside-1_98_1055)"/>
<path d="M23.5355 45.2545L27.0167 52.6768L28.5849 47.2907C28.667 46.9951 28.7081 46.7324 28.7081 46.5025C28.7081 46.2288 28.6205 46.0099 28.4453 45.8457C28.2757 45.6815 27.9801 45.5857 27.5586 45.5583L27.6489 45.2545H31.1794L31.0973 45.5583C30.6485 45.5857 30.2763 45.7116 29.9807 45.936C29.6906 46.1604 29.4443 46.612 29.2418 47.2907L26.5241 56.511H26.2121L21.7456 47.0198L19.5863 54.4174C19.5151 54.6746 19.4796 54.9045 19.4796 55.107C19.4796 55.4026 19.5753 55.6407 19.7669 55.8214C19.964 55.9965 20.276 56.0841 20.7029 56.0841L20.629 56.3879H17L17.0739 56.0841C17.3859 56.0841 17.6076 56.0567 17.7389 56.002C17.9688 55.9144 18.1932 55.7475 18.4122 55.5011C18.6311 55.2494 18.809 54.8881 18.9459 54.4174L21.3023 46.3301C21.0122 46.0071 20.7686 45.7991 20.5715 45.7061C20.3745 45.613 20.0789 45.5638 19.6848 45.5583L19.7751 45.2545H23.5355Z" stroke="#0000FF" stroke-width="0.834849" mask="url(#path-2-outside-1_98_1055)"/>
<path d="M36.0482 45.8703L34.8084 50.189H35.1861C36.1823 50.189 36.9076 50.0576 37.3619 49.7949C37.8217 49.5322 38.2103 49.0669 38.5278 48.3991H38.8315L37.5836 52.7342H37.2962C37.3455 52.4441 37.3701 52.2088 37.3701 52.0281C37.3701 51.7271 37.2798 51.4808 37.0991 51.2892C36.924 51.0976 36.6941 50.9608 36.4095 50.8787C36.2234 50.8239 35.8375 50.7966 35.2518 50.7966H34.6114L33.544 54.5323C33.451 54.8607 33.4044 55.1043 33.4044 55.263C33.4044 55.3889 33.4647 55.4902 33.5851 55.5668C33.7602 55.6763 34.0914 55.731 34.5785 55.731C35.5145 55.731 36.3958 55.534 37.2223 55.1399C38.0488 54.7403 38.7905 54.1382 39.4473 53.3336H39.784L38.6263 56.3879H29.1022L29.2007 56.0841C29.759 56.0841 30.1668 55.9801 30.4241 55.7721C30.6813 55.5586 30.914 55.0934 31.1219 54.3763L33.2156 47.2086C33.3306 46.809 33.388 46.4943 33.388 46.2644C33.388 46.0564 33.3141 45.8977 33.1663 45.7882C33.0186 45.6733 32.6819 45.5966 32.1565 45.5583L32.2468 45.2545H41.1223L40.408 48.0379H40.1124C40.0905 47.4905 40.0056 47.1046 39.8578 46.8802C39.628 46.5299 39.3214 46.2754 38.9383 46.1166C38.5606 45.9524 37.9448 45.8703 37.0909 45.8703H36.0482Z" stroke="#0000FF" stroke-width="0.834849" mask="url(#path-2-outside-1_98_1055)"/>
<path d="M43.101 56.6424L43.8563 47.1183C43.8782 46.8391 43.8892 46.6092 43.8892 46.4286C43.8892 46.1385 43.8208 45.925 43.6839 45.7882C43.5525 45.6514 43.3172 45.5747 42.9778 45.5583L43.101 45.2545H47.6003L47.51 45.5583H47.2883C46.9927 45.5583 46.7519 45.6568 46.5658 45.8539C46.3851 46.0455 46.2757 46.4067 46.2374 46.9377L45.8022 52.5864L49.1603 47.9968L49.2424 46.9377C49.2643 46.7187 49.2752 46.5436 49.2752 46.4122C49.2752 46.144 49.2013 45.9387 49.0535 45.7964C48.9112 45.6541 48.6731 45.5747 48.3392 45.5583L48.4213 45.2545H52.9535L52.8632 45.5583C52.4636 45.5583 52.168 45.6568 51.9765 45.8539C51.7849 46.0455 51.6672 46.4067 51.6234 46.9377L51.1965 52.5864L54.4314 48.1364C54.9842 47.3756 55.3263 46.8583 55.4577 46.5846C55.5507 46.3985 55.5973 46.2398 55.5973 46.1084C55.5973 45.9825 55.5343 45.8703 55.4084 45.7718C55.288 45.6678 55.0526 45.5966 54.7023 45.5583L54.7844 45.2545H57.7566L57.6827 45.5583C57.4145 45.6076 57.1928 45.7006 57.0177 45.8375C56.7713 46.029 56.4511 46.3958 56.057 46.9377L48.9879 56.6424H48.5034L49.07 49.1298L43.5936 56.6424H43.101Z" stroke="#0000FF" stroke-width="0.834849" mask="url(#path-2-outside-1_98_1055)"/>
<path d="M65.6797 45L64.7519 48.7768H64.4809C64.4207 48.1856 64.314 47.7122 64.1607 47.3564C63.9309 46.8419 63.6243 46.445 63.2412 46.1659C62.8635 45.8867 62.453 45.7472 62.0096 45.7472C61.5827 45.7472 61.2077 45.9114 60.8848 46.2398C60.5673 46.5627 60.4086 46.9295 60.4086 47.34C60.4086 47.745 60.518 48.1446 60.737 48.5387C60.9614 48.9273 61.4869 49.5157 62.3134 50.3039C62.9757 50.9334 63.4191 51.4753 63.6435 51.9296C63.8734 52.3839 63.9883 52.8765 63.9883 53.4075C63.9883 54.0041 63.8296 54.5542 63.5121 55.0578C63.1947 55.5614 62.7321 55.9527 62.1246 56.2319C61.5225 56.5056 60.8383 56.6424 60.0719 56.6424C59.6012 56.6424 59.0073 56.5712 58.2903 56.4289C57.5787 56.2921 57.1052 56.2237 56.8699 56.2237C56.6838 56.2237 56.5168 56.2538 56.369 56.314C56.2213 56.3687 56.0379 56.4782 55.8189 56.6424H55.4987L56.4922 52.3976H56.8042C56.8753 53.142 57.0259 53.777 57.2558 54.3024C57.4857 54.8224 57.8141 55.2302 58.241 55.5258C58.668 55.8159 59.1551 55.9609 59.7025 55.9609C60.2444 55.9609 60.6959 55.783 61.0572 55.4273C61.4239 55.066 61.6073 54.6445 61.6073 54.1628C61.6073 53.7523 61.5033 53.3582 61.2953 52.9805C61.0928 52.6029 60.6248 52.0528 59.8913 51.3302C59.1633 50.6077 58.6598 49.9618 58.3806 49.3926C58.1781 48.9711 58.0768 48.5223 58.0768 48.0461C58.0768 47.2196 58.4025 46.5052 59.0539 45.9031C59.7052 45.3011 60.5564 45 61.6073 45C62.0835 45 62.7102 45.1067 63.4875 45.3202C63.9418 45.4461 64.262 45.509 64.4481 45.509C64.6068 45.509 64.7492 45.4762 64.8751 45.4105C65.0009 45.3394 65.1487 45.2025 65.3184 45H65.6797Z" stroke="#0000FF" stroke-width="0.834849" mask="url(#path-2-outside-1_98_1055)"/>
<path d="M56.3791 33.0107C56.1804 32.6532 55.9023 32.378 55.5461 32.1873C55.1935 31.9965 54.8291 31.9 54.4541 31.9C54.0809 31.9 53.7175 31.9966 53.365 32.1873C53.0088 32.378 52.7297 32.6532 52.5291 33.0106L52.529 33.0108C52.3315 33.3641 52.2319 33.735 52.2319 34.1221C52.2319 34.5072 52.3305 34.876 52.5259 35.2273C52.7224 35.5807 52.9971 35.8565 53.3486 36.0532L53.3493 36.0535C53.7005 36.2468 54.0692 36.3443 54.4541 36.3443C54.8389 36.3443 55.2076 36.2468 55.5588 36.0535L55.5592 36.0533C55.9128 35.8567 56.1886 35.5809 56.3852 35.2273C56.5806 34.876 56.6792 34.5072 56.6792 34.1221C56.6792 33.7349 56.5785 33.364 56.3791 33.0107ZM56.3791 33.0107C56.3792 33.0108 56.3792 33.0109 56.3793 33.011L56.2918 33.0596L56.3789 33.0104C56.379 33.0105 56.379 33.0106 56.3791 33.0107ZM55.3275 35.645L55.3272 35.6451C55.0481 35.8008 54.7575 35.8779 54.4541 35.8779C54.1527 35.8779 53.862 35.8009 53.5806 35.645C53.3016 35.4904 53.0856 35.2753 52.9311 34.9984C52.7753 34.7172 52.6983 34.4255 52.6983 34.1221C52.6983 33.819 52.7762 33.5263 52.934 33.243C53.0926 32.9599 53.3104 32.7443 53.5886 32.5939C53.8726 32.4414 54.1607 32.3664 54.4541 32.3664C54.7496 32.3664 55.0376 32.4415 55.3194 32.5938L55.3197 32.5939C55.4008 32.6375 55.4767 32.6865 55.5474 32.7411H55.4568H55.343H55.2535L55.2436 32.83C55.2389 32.8723 55.2282 32.8835 55.2273 32.8843L55.2272 32.8843L55.2244 32.8871C55.2205 32.8911 55.2165 32.8937 55.2053 32.8937C55.2054 32.8937 55.2047 32.8937 55.2032 32.8936L55.197 32.8928C55.1916 32.8919 55.1844 32.8904 55.1752 32.888C55.1567 32.8832 55.1327 32.8754 55.1028 32.8642L55.1028 32.8642L55.1015 32.8637C54.8729 32.7813 54.6646 32.7381 54.478 32.7381C54.0748 32.7381 53.7345 32.8707 53.4647 33.1382C53.1947 33.4061 53.061 33.7468 53.061 34.1521C53.061 34.5349 53.1854 34.855 53.4381 35.1034L53.4387 35.104C53.6938 35.3503 54.0244 35.4703 54.4211 35.4703C54.8379 35.4703 55.1826 35.3349 55.4453 35.0591L55.4729 35.0302V34.9902V34.7806V34.5007L55.2956 34.7173C55.0848 34.9747 54.8509 35.0937 54.5917 35.0937C54.4072 35.0937 54.254 35.022 54.1264 34.8718C54.006 34.7278 53.9345 34.4704 53.9345 34.0743C53.9345 33.7064 54.0071 33.4599 54.1321 33.3129L54.1325 33.3125C54.2621 33.1583 54.4182 33.0847 54.6067 33.0847C54.765 33.0847 54.8992 33.1344 55.0142 33.234L55.0142 33.234L55.0154 33.235C55.1309 33.3318 55.2087 33.4678 55.2449 33.6507L55.2609 33.7313H55.343H55.4568H55.5568V33.6313V32.8411V32.7484C55.7259 32.8809 55.8647 33.0455 55.9739 33.2427L55.974 33.2429C56.1319 33.5263 56.2098 33.8189 56.2098 34.1221C56.2098 34.4255 56.1328 34.7172 55.977 34.9984C55.8225 35.2753 55.6065 35.4904 55.3275 35.645ZM55.0796 33.1583C54.9459 33.0426 54.7883 32.9847 54.6067 32.9847C54.3872 32.9847 54.2036 33.0725 54.056 33.2481L55.0796 33.1583Z" fill="#0000FF" stroke="#0000FF" stroke-width="0.2"/>
<path d="M61.7748 32C62.4533 32 63.1318 32 63.8104 32C63.8241 32.009 63.8375 32.0251 63.8514 32.0255C63.8975 32.027 63.9349 32.0446 63.9773 32.062C64.0504 32.092 64.134 32.0951 64.1911 32.1618C64.1972 32.1689 64.2178 32.1624 64.2313 32.1645C64.3358 32.1809 64.448 32.1717 64.5302 32.2613C64.5423 32.2745 64.5731 32.2753 64.5947 32.2739C64.6683 32.2692 64.7268 32.2969 64.778 32.3474C64.7935 32.3626 64.8137 32.3794 64.8339 32.3824C64.9052 32.3932 64.9314 32.4472 64.9723 32.496C65.0063 32.5367 65.0832 32.5361 65.1208 32.5883C65.1258 32.5952 65.1255 32.606 65.1306 32.6127C65.1741 32.6691 65.2392 32.707 65.2677 32.7776C65.2727 32.7901 65.3079 32.7965 65.3288 32.7958C65.394 32.7937 65.4359 32.8121 65.4346 32.887C65.4343 32.9019 65.4459 32.9195 65.4569 32.9314C65.516 32.9954 65.57 33.0669 65.6386 33.1187C65.7151 33.1764 65.7338 33.2524 65.741 33.3331C65.7588 33.3425 65.7701 33.3505 65.7827 33.3548C65.8528 33.3785 65.8855 33.4227 65.8755 33.4999C65.8727 33.5209 65.8933 33.5451 65.904 33.5675C65.934 33.6303 65.9493 33.7008 66.0058 33.7498C66.0141 33.757 66.005 33.7838 66.0045 33.8015C66.004 33.8171 65.9976 33.8405 66.0052 33.8468C66.0482 33.8823 66.0361 33.9294 66.0387 33.974C66.0402 34.0008 66.0351 34.0388 66.0503 34.052C66.1048 34.0997 66.0908 34.1596 66.0938 34.2176C66.0947 34.2351 66.0954 34.2637 66.1048 34.2678C66.1618 34.2928 66.1458 34.3412 66.1493 34.3847C66.1582 34.4993 66.1165 34.6217 66.2019 34.7252C66.2088 34.7336 66.2015 34.7524 66.2043 34.7656C66.213 34.8049 66.2106 34.8601 66.2356 34.8795C66.2944 34.925 66.2787 34.9909 66.3051 35.041C66.3319 35.0549 66.361 35.0725 66.366 35.0954C66.3732 35.1278 66.3944 35.1469 66.4073 35.1712C66.4375 35.2282 66.4887 35.2349 66.535 35.26C66.5801 35.2845 66.6137 35.3299 66.6584 35.3555C66.7073 35.3834 66.7402 35.4312 66.8008 35.4467C66.8812 35.4673 66.9747 35.4481 67.0407 35.5172C67.1311 35.4985 67.1926 35.5991 67.2842 35.5759C67.3314 35.6604 67.4122 35.6201 67.4794 35.6265C67.5336 35.6316 67.5888 35.6275 67.6458 35.6275C67.6565 35.6554 67.6658 35.6796 67.6753 35.7044C67.6903 35.7063 67.7035 35.7084 67.7168 35.7097C67.8687 35.7242 67.9363 35.7958 67.9368 35.9431C67.937 35.9975 67.9368 36.052 67.9368 36.1071C67.8901 36.1234 67.8567 36.1378 67.8441 36.1918C67.832 36.2435 67.8242 36.3119 67.7491 36.3269C67.7384 36.329 67.7287 36.3449 67.7218 36.3564C67.68 36.4254 67.6247 36.4697 67.5347 36.4522C67.5021 36.5388 67.4651 36.617 67.3591 36.6293C67.3591 36.6921 67.3608 36.7512 67.3588 36.8102C67.3551 36.9163 67.3948 37.0157 67.4752 37.0687C67.5728 37.133 67.589 37.2089 67.5796 37.309C67.5753 37.3544 67.5788 37.4004 67.5788 37.458C67.4963 37.4661 67.4945 37.5339 67.4931 37.5857C67.3968 37.6284 67.3121 37.666 67.2275 37.7036C67.1531 37.8358 67.0177 37.8994 66.9075 37.9918C66.8613 38.0305 66.8001 38.0661 66.8073 38.145C66.8125 38.2011 66.7445 38.1693 66.7373 38.1857C66.6943 38.3225 66.7847 38.395 66.8258 38.4854C66.9474 38.4854 67.062 38.4866 67.1765 38.4851C67.29 38.4835 67.4017 38.4964 67.5145 38.508C67.5966 38.5164 67.6273 38.5783 67.6516 38.6203C67.6782 38.6664 67.6674 38.7481 67.6459 38.8039C67.6231 38.8632 67.5678 38.9098 67.5283 38.9629C67.5153 38.9804 67.4966 39.0025 67.4985 39.0207C67.5092 39.1289 67.4507 39.2519 67.5642 39.34C67.5753 39.3487 67.5758 39.373 67.5784 39.3905C67.5883 39.4569 67.5961 39.5237 67.6067 39.5901C67.6107 39.6153 67.6128 39.6536 67.6284 39.6617C67.6679 39.6823 67.6596 39.7132 67.6611 39.7436C67.6656 39.8392 67.577 39.9129 67.5969 40.0135C67.5988 40.0229 67.5726 40.0378 67.5595 40.0502C67.5472 40.0618 67.5316 40.0715 67.5232 40.0855C67.4434 40.2204 67.3262 40.3065 67.1789 40.3551C67.1622 40.3606 67.1433 40.366 67.1312 40.3775C67.0761 40.4302 67.0157 40.4092 66.9537 40.3931C66.9368 40.4513 66.8963 40.4663 66.839 40.466C66.7814 40.4658 66.7174 40.4645 66.668 40.4883C66.6293 40.5068 66.5949 40.5159 66.5541 40.5206C66.4876 40.5281 66.4017 40.5212 66.3607 40.5596C66.3062 40.6107 66.2552 40.5962 66.2004 40.6015C66.1785 40.6036 66.1562 40.6018 66.134 40.6018C66.1088 40.642 66.0802 40.6701 66.0459 40.6835C65.9674 40.7143 65.8871 40.733 65.833 40.8117C65.8101 40.8452 65.769 40.8799 65.7159 40.8892C65.6906 40.8936 65.6693 40.9255 65.648 40.9468C65.5962 40.9986 65.5421 41.0487 65.4954 41.1048C65.4483 41.1616 65.4104 41.226 65.3654 41.2847C65.3503 41.3045 65.3064 41.3283 65.3081 41.3313C65.3511 41.4054 65.2776 41.4125 65.2411 41.448C65.2649 41.5842 65.1761 41.6986 65.1488 41.8283C65.1459 41.8424 65.1252 41.8574 65.1095 41.8632C65.0873 41.8717 65.0849 41.8784 65.093 41.9008C65.1 41.9202 65.101 41.9454 65.095 41.9652C65.0347 42.166 65.0317 42.3738 65.0227 42.5799C65.0171 42.7084 65.035 42.8386 64.886 42.9032C64.8679 42.9666 64.8181 42.9651 64.7654 42.9662C64.0846 42.9803 63.4036 42.9439 62.7224 42.9888C62.3618 43.0127 61.9984 42.9952 61.6363 42.9917C61.5283 42.9907 61.42 42.9776 61.3128 42.9624C61.2813 42.958 61.2508 42.9307 61.2242 42.9086C61.1398 42.8382 61.0575 42.7652 60.9963 42.7123C60.9325 42.593 61.044 42.5398 61.0429 42.454C61.0427 42.4344 61.0875 42.4144 61.1089 42.3967C61.1281 42.2799 61.1082 42.1539 61.2134 42.0632C61.1888 41.9589 61.1829 41.9244 61.2377 41.879C61.2781 41.8455 61.2772 41.8141 61.2793 41.7746C61.2819 41.725 61.2676 41.6603 61.2933 41.629C61.3413 41.5705 61.3298 41.5106 61.3348 41.4486C61.3376 41.4142 61.3363 41.364 61.3568 41.35C61.3923 41.3256 61.3893 41.2988 61.3894 41.2682C61.39 41.1171 61.3901 40.966 61.3891 40.8148C61.389 40.793 61.3885 40.7571 61.377 40.7519C61.3196 40.7256 61.338 40.6772 61.3338 40.6346C61.3312 40.6081 61.3341 40.5653 61.3204 40.5586C61.2698 40.5338 61.2802 40.493 61.2792 40.4536C61.2785 40.422 61.2845 40.3873 61.2407 40.3777C61.2336 40.2943 61.1268 40.2577 61.1405 40.1646C61.0736 40.1074 61.0285 40.0355 60.9989 39.9533C60.9206 39.9619 60.9308 39.8842 60.8968 39.8494C60.8405 39.7918 60.7863 39.7314 60.7251 39.6794C60.6624 39.6262 60.5662 39.6186 60.5229 39.5363C60.5214 39.5334 60.5147 39.5315 60.5107 39.5318C60.423 39.5387 60.3918 39.4677 60.3387 39.4196C60.2987 39.3831 60.2781 39.315 60.213 39.3118C60.1652 39.3094 60.1439 39.2863 60.1181 39.2489C60.0898 39.2077 60.0452 39.1573 60.0021 39.1514C59.9322 39.1418 59.8993 39.098 59.8598 39.056C59.8416 39.0368 59.8345 39.0035 59.8137 38.9912C59.6937 38.9202 59.5778 38.8445 59.4922 38.7322C59.416 38.6324 59.2951 38.5913 59.2073 38.5014C59.0826 38.3737 58.9525 38.2501 58.8271 38.1221C58.7897 38.084 58.7334 38.0638 58.746 37.9945C58.7474 37.9864 58.7327 37.9686 58.7231 37.9664C58.6405 37.948 58.6609 37.8256 58.5697 37.8156C58.5639 37.815 58.5556 37.7919 58.557 37.7803C58.5626 37.731 58.5354 37.7031 58.5076 37.6653C58.4626 37.6041 58.4061 37.5471 58.3819 37.472C58.3602 37.405 58.3517 37.3323 58.2705 37.3024C58.2589 37.2981 58.2568 37.262 58.2542 37.2403C58.2451 37.1636 58.1714 37.1044 58.1939 37.0187C58.1953 37.0132 58.1857 37.0005 58.1785 36.9974C58.0932 36.961 58.1154 36.8904 58.1213 36.8241C58.1231 36.8044 58.1267 36.7797 58.1173 36.7651C58.0826 36.7108 58.0924 36.6513 58.0876 36.5928C58.0806 36.5077 58.0683 36.423 58.0583 36.3382C57.9691 36.2809 58.0093 36.1914 58.0075 36.1158C58.0028 35.9006 58.0037 35.6853 58.0069 35.47C58.0082 35.3866 57.9782 35.2946 58.0562 35.2252C58.0614 35.2206 58.0586 35.2078 58.0608 35.199C58.0732 35.1497 58.0445 35.0989 58.0877 35.0462C58.1121 35.0164 58.0899 34.9484 58.0884 34.8976C58.0868 34.8428 58.0808 34.7849 58.119 34.7406C58.1542 34.6998 58.0969 34.6626 58.1214 34.6272C58.1444 34.5937 58.1773 34.5659 58.1954 34.5303C58.2066 34.5082 58.1913 34.4737 58.2004 34.4494C58.2217 34.3927 58.2367 34.314 58.2798 34.2901C58.3313 34.2614 58.3487 34.229 58.3646 34.1824C58.3804 34.1357 58.3997 34.09 58.4198 34.0451C58.4262 34.0308 58.4382 34.017 58.4511 34.0081C58.5228 33.9589 58.5225 33.9592 58.5583 33.8761C58.5646 33.8616 58.5802 33.8511 58.5913 33.8386C58.6417 33.7822 58.6935 33.7269 58.7417 33.6687C58.7579 33.6491 58.7736 33.6224 58.7747 33.5982C58.7771 33.55 58.7959 33.5221 58.842 33.5079C58.8631 33.5014 58.886 33.4906 58.9009 33.475C58.959 33.4138 59.0133 33.3489 59.071 33.2875C59.1211 33.2341 59.1723 33.1814 59.2264 33.1319C59.2812 33.0818 59.3359 33.0341 59.406 32.9999C59.4659 32.9707 59.5093 32.9077 59.5607 32.8604C59.5665 32.8551 59.5774 32.8532 59.5859 32.8531C59.6735 32.8514 59.6971 32.7815 59.7308 32.7167C59.7779 32.7078 59.8282 32.7232 59.8722 32.6668C59.9087 32.62 59.9924 32.6132 60.0427 32.5731C60.1096 32.5198 60.1929 32.5179 60.2648 32.4817C60.3542 32.4368 60.4357 32.3732 60.5376 32.3546C60.5456 32.3532 60.5557 32.3474 60.5595 32.3406C60.5969 32.2732 60.6607 32.2731 60.7249 32.2751C60.7902 32.2771 60.8474 32.2526 60.9039 32.2244C60.9273 32.2127 60.9511 32.1971 60.9761 32.1936C61.0652 32.1815 61.1551 32.1751 61.2444 32.1637C61.2699 32.1604 61.302 32.1549 61.3178 32.138C61.4098 32.0396 61.5228 32.0126 61.6513 32.0267C61.6785 32.0296 61.7067 32.03 61.7336 32.0257C61.7483 32.0234 61.7612 32.009 61.7748 32.0001V32Z" fill="#0000FF"/>
<path d="M70.9347 37.9635C70.8407 38.0753 70.7189 38.1042 70.5765 38.1032C69.9817 38.0989 69.3869 38.1025 68.7921 38.1001C68.7027 38.0998 68.6119 38.0891 68.5243 38.0709C68.4599 38.0575 68.4124 38.0098 68.4049 37.9399C68.4008 37.9022 68.3921 37.8833 68.3515 37.8772C68.3358 37.8748 68.3154 37.8483 68.312 37.8299C68.3018 37.7773 68.2994 37.7232 68.2936 37.6697C68.2871 37.6092 68.3323 37.5844 68.3698 37.5507C68.4017 37.522 68.4245 37.4832 68.4543 37.4452C68.9251 37.3844 69.4043 37.4239 69.8822 37.4142C70.0835 37.4101 70.2849 37.4103 70.4861 37.4147C70.6031 37.4173 70.7203 37.4286 70.8365 37.4436C70.8709 37.448 70.9021 37.478 70.9347 37.4963V37.9635L70.9347 37.9635Z" fill="#0000FF"/>
<path d="M68.4087 36.8508C68.399 36.8075 68.4131 36.7663 68.3588 36.7435C68.3048 36.7209 68.2854 36.6678 68.2927 36.6061C68.2975 36.5654 68.2951 36.5237 68.2933 36.4826C68.2909 36.4289 68.3076 36.3976 68.3573 36.362C68.431 36.3092 68.4842 36.2283 68.5484 36.1615C68.6423 36.064 68.7382 35.9683 68.8333 35.872C68.8641 35.8408 68.8936 35.8079 68.9269 35.7793C68.9571 35.7535 68.9912 35.7322 69.0242 35.7099C69.0312 35.7052 69.0479 35.7057 69.0485 35.702C69.0618 35.6155 69.1466 35.5907 69.1912 35.5334C69.2839 35.4144 69.3999 35.3208 69.5052 35.2158C69.5275 35.1936 69.5601 35.1786 69.5755 35.1528C69.6579 35.0163 69.793 34.9409 69.9313 34.8983C70.0576 34.8593 70.2076 34.8565 70.3311 34.9198C70.4013 34.9558 70.4876 35.0148 70.4676 35.1269C70.4636 35.1491 70.4626 35.1736 70.4677 35.1953C70.4943 35.3085 70.4297 35.3841 70.3548 35.4469C70.2703 35.5178 70.1931 35.5938 70.1205 35.6763C70.0834 35.7186 70.0369 35.7541 69.9907 35.787C69.9391 35.8238 69.8962 35.8634 69.8609 35.9194C69.82 35.9844 69.7575 36.0362 69.7027 36.0921C69.5854 36.2114 69.4723 36.3355 69.347 36.4459C69.2841 36.5012 69.2235 36.559 69.1637 36.6171C69.1013 36.6779 69.0529 36.7536 68.9881 36.8112C68.946 36.8487 68.8861 36.8858 68.833 36.8875C68.694 36.8921 68.5507 36.9178 68.4086 36.8507L68.4087 36.8508Z" fill="#0000FF"/>
<path d="M68.9051 38.65C68.9369 38.6809 68.9351 38.7203 68.9748 38.7485C69.0542 38.8049 69.1498 38.8549 69.1795 38.9625C69.1815 38.9694 69.1921 38.9759 69.2001 38.9785C69.2917 39.0084 69.3322 39.0924 69.3931 39.1555C69.4642 39.2293 69.5462 39.2926 69.6173 39.3663C69.733 39.4865 69.8654 39.5915 69.9534 39.7377C69.9727 39.7699 70.0153 39.7878 70.0468 39.813C70.0777 39.8377 70.1079 39.8633 70.1385 39.8885C70.1482 39.8965 70.1585 39.9125 70.1674 39.9117C70.2566 39.9037 70.2921 39.9781 70.3427 40.0265C70.3634 40.0463 70.3719 40.0794 70.3843 40.1073C70.3914 40.1231 70.3914 40.1521 70.401 40.1552C70.4886 40.1834 70.4658 40.2551 70.4666 40.3157C70.4686 40.4662 70.4351 40.5214 70.3011 40.6048C70.2875 40.6133 70.2784 40.6302 70.2691 40.6445C70.2498 40.6742 70.2236 40.686 70.1881 40.6847C70.1379 40.6828 70.0874 40.6843 70.037 40.6842C69.8824 40.6842 69.8836 40.669 69.773 40.5483C69.7022 40.471 69.6356 40.3883 69.559 40.3162C69.4525 40.216 69.3377 40.1244 69.2325 40.0229C69.1948 39.9865 69.1599 39.9471 69.1206 39.9114C69.0787 39.8731 69.0493 39.8215 69.0097 39.7802C68.9232 39.69 68.8455 39.5904 68.7336 39.5263C68.7049 39.5098 68.6838 39.4757 68.666 39.4457C68.6428 39.4062 68.6276 39.3633 68.57 39.3616C68.5587 39.3612 68.5454 39.339 68.5376 39.3245C68.497 39.2488 68.4348 39.1944 68.3683 39.1424C68.3448 39.124 68.3223 39.0967 68.3131 39.0689C68.2793 38.9678 68.2853 38.8637 68.3085 38.7616C68.3146 38.7344 68.3281 38.7023 68.3724 38.7041C68.4333 38.7064 68.4646 38.6271 68.54 38.6472C68.5955 38.662 68.6582 38.6501 68.7177 38.6501C68.7816 38.6501 68.8453 38.6501 68.9053 38.6501L68.9051 38.65Z" fill="#0000FF"/>
</svg>
