<svg width="88" height="88" viewBox="0 0 88 88" fill="none" xmlns="http://www.w3.org/2000/svg">
<circle cx="44" cy="44" r="43" stroke="#0000FF"/>
<mask id="path-2-outside-1_98_1067" maskUnits="userSpaceOnUse" x="30" y="32" width="31" height="35" fill="black">
<rect fill="white" x="30" y="32" width="31" height="35"/>
<path d="M33.9637 55.3724L33.4477 57.1718H34.4863L34.3739 57.5886H33.3419L32.204 61.4917C32.0805 61.9107 32.0188 62.1819 32.0188 62.3054C32.0188 62.3804 32.0364 62.4377 32.0717 62.4774C32.107 62.5171 32.1489 62.5369 32.1974 62.5369C32.3076 62.5369 32.4532 62.4597 32.634 62.3054C32.7399 62.2172 32.9758 61.9459 33.3419 61.4917L33.5602 61.6571C33.1544 62.2481 32.7707 62.6648 32.4091 62.9074C32.1621 63.075 31.9129 63.1588 31.6615 63.1588C31.4675 63.1588 31.3087 63.0992 31.1852 62.9802C31.0617 62.8567 31 62.7001 31 62.5105C31 62.2723 31.0706 61.9085 31.2117 61.4189L32.3165 57.5886H31.3175L31.3837 57.3306C31.8688 57.1983 32.2724 57.002 32.5943 56.7418C32.9163 56.4772 33.2757 56.0207 33.6726 55.3724H33.9637Z"/>
<path d="M40.4799 59.0837C40.4799 59.7452 40.3035 60.4001 39.9507 61.0485C39.6022 61.6968 39.1149 62.2106 38.4886 62.5898C37.8624 62.9691 37.2538 63.1588 36.6628 63.1588C36.0586 63.1588 35.5646 62.9669 35.1809 62.5832C34.8017 62.1951 34.612 61.6946 34.612 61.0815C34.612 60.4332 34.7972 59.7827 35.1677 59.13C35.5426 58.4773 36.0409 57.9613 36.6628 57.582C37.2891 57.2027 37.8933 57.0131 38.4754 57.0131C39.0576 57.0131 39.5361 57.2049 39.911 57.5886C40.2902 57.9723 40.4799 58.4707 40.4799 59.0837ZM39.3817 58.6272C39.3817 58.2171 39.2803 57.9039 39.0774 57.6878C38.879 57.4673 38.621 57.3571 38.3034 57.3571C37.6551 57.3571 37.0575 57.8223 36.5106 58.7529C35.9682 59.6791 35.6969 60.6008 35.6969 61.5182C35.6969 61.9371 35.8028 62.2613 36.0145 62.4906C36.2262 62.7155 36.493 62.828 36.8149 62.828C37.4368 62.828 38.019 62.3671 38.5614 61.4454C39.1083 60.5192 39.3817 59.5798 39.3817 58.6272Z"/>
<path d="M48.3191 53.5929L46.0434 61.3991C45.92 61.8225 45.8582 62.1003 45.8582 62.2326C45.8582 62.2767 45.8759 62.3186 45.9111 62.3583C45.9508 62.398 45.9905 62.4178 46.0302 62.4178C46.0875 62.4178 46.1559 62.3892 46.2353 62.3318C46.3852 62.226 46.6366 61.9614 46.9894 61.538L47.2144 61.6769C46.8968 62.1179 46.5749 62.4752 46.2485 62.7486C45.9266 63.0221 45.6245 63.1588 45.3422 63.1588C45.1923 63.1588 45.0688 63.1058 44.9717 63C44.8747 62.8942 44.8262 62.7442 44.8262 62.5502C44.8262 62.2988 44.8924 61.9614 45.0247 61.538L45.2827 60.7177C44.6432 61.7056 44.061 62.3892 43.5362 62.7685C43.1746 63.0287 42.8284 63.1588 42.4976 63.1588C42.1624 63.1588 41.8691 63.011 41.6177 62.7155C41.3708 62.4156 41.2473 62.0099 41.2473 61.4983C41.2473 60.8412 41.4568 60.1399 41.8757 59.3946C42.2947 58.6493 42.8482 58.0429 43.5362 57.5754C44.0787 57.2005 44.577 57.0131 45.0313 57.0131C45.2694 57.0131 45.4745 57.0616 45.6465 57.1586C45.8185 57.2556 45.9883 57.4166 46.1559 57.6415L46.8042 55.3394C46.8527 55.1762 46.8924 55.0461 46.9233 54.949C46.9762 54.7726 47.0027 54.6271 47.0027 54.5124C47.0027 54.4198 46.9696 54.3426 46.9034 54.2809C46.8108 54.2059 46.6918 54.1684 46.5462 54.1684C46.4448 54.1684 46.2772 54.1839 46.0434 54.2147V53.97L48.3191 53.5929ZM45.8648 58.2898C45.8648 58.0076 45.7832 57.7804 45.6201 57.6084C45.4569 57.4364 45.2496 57.3504 44.9982 57.3504C44.4425 57.3504 43.8626 57.8091 43.2584 58.7264C42.6586 59.6438 42.3587 60.5214 42.3587 61.3594C42.3587 61.6901 42.4314 61.9437 42.577 62.1201C42.7225 62.2921 42.8967 62.3782 43.0996 62.3782C43.5583 62.3782 44.1338 61.882 44.8262 60.8897C45.5186 59.8974 45.8648 59.0308 45.8648 58.2898Z"/>
<path d="M54.1209 57.0131L52.8309 61.4983L52.6853 62.1003C52.6721 62.1576 52.6655 62.2061 52.6655 62.2458C52.6655 62.3164 52.6875 62.3782 52.7316 62.4311C52.7669 62.4708 52.811 62.4906 52.8639 62.4906C52.9213 62.4906 52.9962 62.4553 53.0889 62.3848C53.2609 62.2569 53.4902 61.9923 53.7769 61.5909L54.0018 61.7497C53.6975 62.2084 53.3843 62.559 53.0624 62.8015C52.7404 63.0397 52.4428 63.1588 52.1693 63.1588C51.9797 63.1588 51.8363 63.1103 51.7393 63.0132C51.6467 62.9206 51.6004 62.7839 51.6004 62.6031C51.6004 62.387 51.6489 62.1025 51.7459 61.7497L51.8849 61.2535C51.3071 62.0077 50.7757 62.5347 50.2905 62.8346C49.9421 63.0507 49.6003 63.1588 49.2651 63.1588C48.9432 63.1588 48.6654 63.0265 48.4316 62.7618C48.1979 62.4928 48.081 62.1246 48.081 61.6571C48.081 60.9558 48.2905 60.2171 48.7095 59.4409C49.1328 58.6603 49.6687 58.0362 50.317 57.5687C50.8242 57.1983 51.3027 57.0131 51.7525 57.0131C52.0216 57.0131 52.2443 57.0836 52.4207 57.2247C52.6015 57.3659 52.7382 57.5996 52.8309 57.926L53.069 57.1718L54.1209 57.0131ZM51.7658 57.3571C51.4835 57.3571 51.1836 57.4894 50.8661 57.754C50.4162 58.1289 50.0149 58.6845 49.6621 59.4211C49.3137 60.1576 49.1395 60.8235 49.1395 61.4189C49.1395 61.7188 49.2144 61.957 49.3644 62.1334C49.5143 62.3054 49.6863 62.3914 49.8804 62.3914C50.3611 62.3914 50.8837 62.0364 51.4482 61.3263C52.2024 60.3825 52.5795 59.4144 52.5795 58.4221C52.5795 58.0473 52.5067 57.776 52.3612 57.6084C52.2156 57.4409 52.0172 57.3571 51.7658 57.3571Z"/>
<path d="M56.7009 57.0131C56.8508 57.2688 56.9545 57.5092 57.0118 57.7341C57.0691 57.9546 57.1265 58.3913 57.1838 59.044L57.4749 62.2988C57.7395 61.9812 58.1232 61.4785 58.626 60.7905C58.8685 60.4553 59.1684 59.9988 59.5257 59.4211C59.7418 59.0682 59.8741 58.8213 59.9226 58.6801C59.949 58.6096 59.9623 58.5368 59.9623 58.4618C59.9623 58.4133 59.9468 58.3736 59.916 58.3428C59.8851 58.3119 59.8035 58.2766 59.6712 58.2369C59.5433 58.1928 59.4352 58.1156 59.347 58.0054C59.2632 57.8907 59.2213 57.7606 59.2213 57.6151C59.2213 57.4342 59.2743 57.2887 59.3801 57.1784C59.486 57.0682 59.6183 57.0131 59.777 57.0131C59.9711 57.0131 60.1365 57.0946 60.2732 57.2578C60.4099 57.4166 60.4783 57.6371 60.4783 57.9194C60.4783 58.2678 60.3592 58.6669 60.121 59.1168C59.8829 59.5622 59.4242 60.248 58.745 61.1741C58.0658 62.1003 57.2433 63.1103 56.2775 64.204C55.6115 64.9582 55.1176 65.4323 54.7956 65.6263C54.4737 65.8248 54.198 65.924 53.9687 65.924C53.832 65.924 53.7129 65.8711 53.6115 65.7652C53.5056 65.6638 53.4527 65.5447 53.4527 65.408C53.4527 65.236 53.5255 65.0794 53.671 64.9383C53.8121 64.7972 53.9665 64.7266 54.1341 64.7266C54.2223 64.7266 54.2951 64.7465 54.3524 64.7862C54.3877 64.8082 54.4274 64.87 54.4715 64.9714C54.5112 65.0772 54.5487 65.1478 54.5839 65.1831C54.606 65.2051 54.6325 65.2162 54.6633 65.2162C54.6898 65.2162 54.7361 65.1941 54.8022 65.15C55.0448 65.0001 55.3271 64.7619 55.649 64.4355C56.0724 64.0033 56.3855 63.6505 56.5884 63.3771L56.2179 59.1829C56.1562 58.4905 56.0636 58.0693 55.9401 57.9194C55.8166 57.7694 55.6093 57.6944 55.3182 57.6944C55.2256 57.6944 55.0602 57.7077 54.8221 57.7341L54.7626 57.4894L56.7009 57.0131Z"/>
<path d="M40.5139 33.3674V33.8529C40.2185 33.9316 39.9913 34.1022 39.8326 34.3646C39.612 34.732 39.2636 35.7336 38.7873 37.3694L36.8424 43.812V48.1158C36.8424 49.0343 36.8666 49.6073 36.9152 49.8347C36.9637 50.0534 37.0585 50.2502 37.1996 50.4252C37.3452 50.5914 37.537 50.6745 37.7752 50.6745H38.2779V51.16H33.2436V50.6745H33.7133C33.9779 50.6745 34.1874 50.5827 34.3418 50.399C34.4564 50.2765 34.5468 50.0666 34.613 49.7691C34.6615 49.5592 34.6858 49.0081 34.6858 48.1158V44.5468L32.5754 36.9233C32.1565 35.4187 31.861 34.5352 31.689 34.2728C31.517 34.0016 31.2876 33.8616 31.001 33.8529V33.3674H35.301V33.8529H35.1092C34.8489 33.8529 34.6659 33.9272 34.5601 34.076C34.4586 34.2247 34.4079 34.3821 34.4079 34.5483C34.4079 34.8632 34.5843 35.6549 34.9371 36.9233L36.5579 42.8148L38.1721 37.4482C38.5734 36.136 38.7741 35.2656 38.7741 34.837C38.7741 34.6008 38.7168 34.404 38.6021 34.2465C38.4521 34.0278 38.1765 33.8966 37.7752 33.8529V33.3674H40.5139Z"/>
<path d="M46.309 46.0951H43.1403L42.7632 47.8272C42.6397 48.4045 42.5779 48.8813 42.5779 49.2574C42.5779 49.756 42.6794 50.1234 42.8823 50.3596C43.0013 50.4996 43.2946 50.6045 43.7621 50.6745V51.16H40.7786V50.6745C41.1005 50.5783 41.3651 50.3159 41.5724 49.8872C41.7797 49.4498 42.0355 48.5532 42.3398 47.1973L45.5483 33H45.674L48.9089 47.591C49.2176 48.9731 49.4712 49.8435 49.6697 50.2021C49.8196 50.4733 50.0313 50.6308 50.3047 50.6745V51.16H45.965V50.6745H46.1437C46.4921 50.6745 46.7368 50.5783 46.878 50.3858C46.975 50.2459 47.0235 50.0447 47.0235 49.7823C47.0235 49.6248 47.0103 49.463 46.9838 49.2968C46.975 49.218 46.9088 48.89 46.7853 48.3127L46.309 46.0951ZM46.0841 45.1242L44.7478 38.9965L43.3718 45.1242H46.0841Z"/>
<path d="M55.1218 43.1035V48.0371C55.1218 48.9993 55.1505 49.6073 55.2078 49.861C55.2696 50.1059 55.3754 50.3027 55.5254 50.4514C55.6797 50.6002 55.9598 50.6745 56.3655 50.6745V51.16H51.8075V50.6745C52.2221 50.6745 52.5021 50.6002 52.6477 50.4514C52.7976 50.294 52.9013 50.0928 52.9586 49.8479C53.0203 49.6029 53.0512 48.9993 53.0512 48.0371V36.4903C53.0512 35.5281 53.0203 34.9245 52.9586 34.6795C52.9013 34.4259 52.7976 34.2247 52.6477 34.076C52.4977 33.9272 52.2177 33.8529 51.8075 33.8529V33.3674H55.7172C57.005 33.3674 57.929 33.8223 58.4891 34.732C59.0492 35.6418 59.3292 36.779 59.3292 38.1436C59.3292 39.2983 59.1484 40.2867 58.7868 41.109C58.4251 41.9313 57.9268 42.4911 57.2917 42.7886C56.8639 42.9985 56.1406 43.1035 55.1218 43.1035ZM55.1218 34.3909V42.08C55.2674 42.0975 55.3776 42.1062 55.4526 42.1062C55.9907 42.1062 56.4052 41.7913 56.6963 41.1615C56.9874 40.5229 57.1329 39.5388 57.1329 38.2092C57.1329 36.8883 56.9874 35.9217 56.6963 35.3094C56.4052 34.697 55.9708 34.3909 55.3931 34.3909H55.1218Z"/>
</mask>
<path d="M33.9637 55.3724L33.4477 57.1718H34.4863L34.3739 57.5886H33.3419L32.204 61.4917C32.0805 61.9107 32.0188 62.1819 32.0188 62.3054C32.0188 62.3804 32.0364 62.4377 32.0717 62.4774C32.107 62.5171 32.1489 62.5369 32.1974 62.5369C32.3076 62.5369 32.4532 62.4597 32.634 62.3054C32.7399 62.2172 32.9758 61.9459 33.3419 61.4917L33.5602 61.6571C33.1544 62.2481 32.7707 62.6648 32.4091 62.9074C32.1621 63.075 31.9129 63.1588 31.6615 63.1588C31.4675 63.1588 31.3087 63.0992 31.1852 62.9802C31.0617 62.8567 31 62.7001 31 62.5105C31 62.2723 31.0706 61.9085 31.2117 61.4189L32.3165 57.5886H31.3175L31.3837 57.3306C31.8688 57.1983 32.2724 57.002 32.5943 56.7418C32.9163 56.4772 33.2757 56.0207 33.6726 55.3724H33.9637Z" fill="#0000FF"/>
<path d="M40.4799 59.0837C40.4799 59.7452 40.3035 60.4001 39.9507 61.0485C39.6022 61.6968 39.1149 62.2106 38.4886 62.5898C37.8624 62.9691 37.2538 63.1588 36.6628 63.1588C36.0586 63.1588 35.5646 62.9669 35.1809 62.5832C34.8017 62.1951 34.612 61.6946 34.612 61.0815C34.612 60.4332 34.7972 59.7827 35.1677 59.13C35.5426 58.4773 36.0409 57.9613 36.6628 57.582C37.2891 57.2027 37.8933 57.0131 38.4754 57.0131C39.0576 57.0131 39.5361 57.2049 39.911 57.5886C40.2902 57.9723 40.4799 58.4707 40.4799 59.0837ZM39.3817 58.6272C39.3817 58.2171 39.2803 57.9039 39.0774 57.6878C38.879 57.4673 38.621 57.3571 38.3034 57.3571C37.6551 57.3571 37.0575 57.8223 36.5106 58.7529C35.9682 59.6791 35.6969 60.6008 35.6969 61.5182C35.6969 61.9371 35.8028 62.2613 36.0145 62.4906C36.2262 62.7155 36.493 62.828 36.8149 62.828C37.4368 62.828 38.019 62.3671 38.5614 61.4454C39.1083 60.5192 39.3817 59.5798 39.3817 58.6272Z" fill="#0000FF"/>
<path d="M48.3191 53.5929L46.0434 61.3991C45.92 61.8225 45.8582 62.1003 45.8582 62.2326C45.8582 62.2767 45.8759 62.3186 45.9111 62.3583C45.9508 62.398 45.9905 62.4178 46.0302 62.4178C46.0875 62.4178 46.1559 62.3892 46.2353 62.3318C46.3852 62.226 46.6366 61.9614 46.9894 61.538L47.2144 61.6769C46.8968 62.1179 46.5749 62.4752 46.2485 62.7486C45.9266 63.0221 45.6245 63.1588 45.3422 63.1588C45.1923 63.1588 45.0688 63.1058 44.9717 63C44.8747 62.8942 44.8262 62.7442 44.8262 62.5502C44.8262 62.2988 44.8924 61.9614 45.0247 61.538L45.2827 60.7177C44.6432 61.7056 44.061 62.3892 43.5362 62.7685C43.1746 63.0287 42.8284 63.1588 42.4976 63.1588C42.1624 63.1588 41.8691 63.011 41.6177 62.7155C41.3708 62.4156 41.2473 62.0099 41.2473 61.4983C41.2473 60.8412 41.4568 60.1399 41.8757 59.3946C42.2947 58.6493 42.8482 58.0429 43.5362 57.5754C44.0787 57.2005 44.577 57.0131 45.0313 57.0131C45.2694 57.0131 45.4745 57.0616 45.6465 57.1586C45.8185 57.2556 45.9883 57.4166 46.1559 57.6415L46.8042 55.3394C46.8527 55.1762 46.8924 55.0461 46.9233 54.949C46.9762 54.7726 47.0027 54.6271 47.0027 54.5124C47.0027 54.4198 46.9696 54.3426 46.9034 54.2809C46.8108 54.2059 46.6918 54.1684 46.5462 54.1684C46.4448 54.1684 46.2772 54.1839 46.0434 54.2147V53.97L48.3191 53.5929ZM45.8648 58.2898C45.8648 58.0076 45.7832 57.7804 45.6201 57.6084C45.4569 57.4364 45.2496 57.3504 44.9982 57.3504C44.4425 57.3504 43.8626 57.8091 43.2584 58.7264C42.6586 59.6438 42.3587 60.5214 42.3587 61.3594C42.3587 61.6901 42.4314 61.9437 42.577 62.1201C42.7225 62.2921 42.8967 62.3782 43.0996 62.3782C43.5583 62.3782 44.1338 61.882 44.8262 60.8897C45.5186 59.8974 45.8648 59.0308 45.8648 58.2898Z" fill="#0000FF"/>
<path d="M54.1209 57.0131L52.8309 61.4983L52.6853 62.1003C52.6721 62.1576 52.6655 62.2061 52.6655 62.2458C52.6655 62.3164 52.6875 62.3782 52.7316 62.4311C52.7669 62.4708 52.811 62.4906 52.8639 62.4906C52.9213 62.4906 52.9962 62.4553 53.0889 62.3848C53.2609 62.2569 53.4902 61.9923 53.7769 61.5909L54.0018 61.7497C53.6975 62.2084 53.3843 62.559 53.0624 62.8015C52.7404 63.0397 52.4428 63.1588 52.1693 63.1588C51.9797 63.1588 51.8363 63.1103 51.7393 63.0132C51.6467 62.9206 51.6004 62.7839 51.6004 62.6031C51.6004 62.387 51.6489 62.1025 51.7459 61.7497L51.8849 61.2535C51.3071 62.0077 50.7757 62.5347 50.2905 62.8346C49.9421 63.0507 49.6003 63.1588 49.2651 63.1588C48.9432 63.1588 48.6654 63.0265 48.4316 62.7618C48.1979 62.4928 48.081 62.1246 48.081 61.6571C48.081 60.9558 48.2905 60.2171 48.7095 59.4409C49.1328 58.6603 49.6687 58.0362 50.317 57.5687C50.8242 57.1983 51.3027 57.0131 51.7525 57.0131C52.0216 57.0131 52.2443 57.0836 52.4207 57.2247C52.6015 57.3659 52.7382 57.5996 52.8309 57.926L53.069 57.1718L54.1209 57.0131ZM51.7658 57.3571C51.4835 57.3571 51.1836 57.4894 50.8661 57.754C50.4162 58.1289 50.0149 58.6845 49.6621 59.4211C49.3137 60.1576 49.1395 60.8235 49.1395 61.4189C49.1395 61.7188 49.2144 61.957 49.3644 62.1334C49.5143 62.3054 49.6863 62.3914 49.8804 62.3914C50.3611 62.3914 50.8837 62.0364 51.4482 61.3263C52.2024 60.3825 52.5795 59.4144 52.5795 58.4221C52.5795 58.0473 52.5067 57.776 52.3612 57.6084C52.2156 57.4409 52.0172 57.3571 51.7658 57.3571Z" fill="#0000FF"/>
<path d="M56.7009 57.0131C56.8508 57.2688 56.9545 57.5092 57.0118 57.7341C57.0691 57.9546 57.1265 58.3913 57.1838 59.044L57.4749 62.2988C57.7395 61.9812 58.1232 61.4785 58.626 60.7905C58.8685 60.4553 59.1684 59.9988 59.5257 59.4211C59.7418 59.0682 59.8741 58.8213 59.9226 58.6801C59.949 58.6096 59.9623 58.5368 59.9623 58.4618C59.9623 58.4133 59.9468 58.3736 59.916 58.3428C59.8851 58.3119 59.8035 58.2766 59.6712 58.2369C59.5433 58.1928 59.4352 58.1156 59.347 58.0054C59.2632 57.8907 59.2213 57.7606 59.2213 57.6151C59.2213 57.4342 59.2743 57.2887 59.3801 57.1784C59.486 57.0682 59.6183 57.0131 59.777 57.0131C59.9711 57.0131 60.1365 57.0946 60.2732 57.2578C60.4099 57.4166 60.4783 57.6371 60.4783 57.9194C60.4783 58.2678 60.3592 58.6669 60.121 59.1168C59.8829 59.5622 59.4242 60.248 58.745 61.1741C58.0658 62.1003 57.2433 63.1103 56.2775 64.204C55.6115 64.9582 55.1176 65.4323 54.7956 65.6263C54.4737 65.8248 54.198 65.924 53.9687 65.924C53.832 65.924 53.7129 65.8711 53.6115 65.7652C53.5056 65.6638 53.4527 65.5447 53.4527 65.408C53.4527 65.236 53.5255 65.0794 53.671 64.9383C53.8121 64.7972 53.9665 64.7266 54.1341 64.7266C54.2223 64.7266 54.2951 64.7465 54.3524 64.7862C54.3877 64.8082 54.4274 64.87 54.4715 64.9714C54.5112 65.0772 54.5487 65.1478 54.5839 65.1831C54.606 65.2051 54.6325 65.2162 54.6633 65.2162C54.6898 65.2162 54.7361 65.1941 54.8022 65.15C55.0448 65.0001 55.3271 64.7619 55.649 64.4355C56.0724 64.0033 56.3855 63.6505 56.5884 63.3771L56.2179 59.1829C56.1562 58.4905 56.0636 58.0693 55.9401 57.9194C55.8166 57.7694 55.6093 57.6944 55.3182 57.6944C55.2256 57.6944 55.0602 57.7077 54.8221 57.7341L54.7626 57.4894L56.7009 57.0131Z" fill="#0000FF"/>
<path d="M40.5139 33.3674V33.8529C40.2185 33.9316 39.9913 34.1022 39.8326 34.3646C39.612 34.732 39.2636 35.7336 38.7873 37.3694L36.8424 43.812V48.1158C36.8424 49.0343 36.8666 49.6073 36.9152 49.8347C36.9637 50.0534 37.0585 50.2502 37.1996 50.4252C37.3452 50.5914 37.537 50.6745 37.7752 50.6745H38.2779V51.16H33.2436V50.6745H33.7133C33.9779 50.6745 34.1874 50.5827 34.3418 50.399C34.4564 50.2765 34.5468 50.0666 34.613 49.7691C34.6615 49.5592 34.6858 49.0081 34.6858 48.1158V44.5468L32.5754 36.9233C32.1565 35.4187 31.861 34.5352 31.689 34.2728C31.517 34.0016 31.2876 33.8616 31.001 33.8529V33.3674H35.301V33.8529H35.1092C34.8489 33.8529 34.6659 33.9272 34.5601 34.076C34.4586 34.2247 34.4079 34.3821 34.4079 34.5483C34.4079 34.8632 34.5843 35.6549 34.9371 36.9233L36.5579 42.8148L38.1721 37.4482C38.5734 36.136 38.7741 35.2656 38.7741 34.837C38.7741 34.6008 38.7168 34.404 38.6021 34.2465C38.4521 34.0278 38.1765 33.8966 37.7752 33.8529V33.3674H40.5139Z" fill="#0000FF"/>
<path d="M46.309 46.0951H43.1403L42.7632 47.8272C42.6397 48.4045 42.5779 48.8813 42.5779 49.2574C42.5779 49.756 42.6794 50.1234 42.8823 50.3596C43.0013 50.4996 43.2946 50.6045 43.7621 50.6745V51.16H40.7786V50.6745C41.1005 50.5783 41.3651 50.3159 41.5724 49.8872C41.7797 49.4498 42.0355 48.5532 42.3398 47.1973L45.5483 33H45.674L48.9089 47.591C49.2176 48.9731 49.4712 49.8435 49.6697 50.2021C49.8196 50.4733 50.0313 50.6308 50.3047 50.6745V51.16H45.965V50.6745H46.1437C46.4921 50.6745 46.7368 50.5783 46.878 50.3858C46.975 50.2459 47.0235 50.0447 47.0235 49.7823C47.0235 49.6248 47.0103 49.463 46.9838 49.2968C46.975 49.218 46.9088 48.89 46.7853 48.3127L46.309 46.0951ZM46.0841 45.1242L44.7478 38.9965L43.3718 45.1242H46.0841Z" fill="#0000FF"/>
<path d="M55.1218 43.1035V48.0371C55.1218 48.9993 55.1505 49.6073 55.2078 49.861C55.2696 50.1059 55.3754 50.3027 55.5254 50.4514C55.6797 50.6002 55.9598 50.6745 56.3655 50.6745V51.16H51.8075V50.6745C52.2221 50.6745 52.5021 50.6002 52.6477 50.4514C52.7976 50.294 52.9013 50.0928 52.9586 49.8479C53.0203 49.6029 53.0512 48.9993 53.0512 48.0371V36.4903C53.0512 35.5281 53.0203 34.9245 52.9586 34.6795C52.9013 34.4259 52.7976 34.2247 52.6477 34.076C52.4977 33.9272 52.2177 33.8529 51.8075 33.8529V33.3674H55.7172C57.005 33.3674 57.929 33.8223 58.4891 34.732C59.0492 35.6418 59.3292 36.779 59.3292 38.1436C59.3292 39.2983 59.1484 40.2867 58.7868 41.109C58.4251 41.9313 57.9268 42.4911 57.2917 42.7886C56.8639 42.9985 56.1406 43.1035 55.1218 43.1035ZM55.1218 34.3909V42.08C55.2674 42.0975 55.3776 42.1062 55.4526 42.1062C55.9907 42.1062 56.4052 41.7913 56.6963 41.1615C56.9874 40.5229 57.1329 39.5388 57.1329 38.2092C57.1329 36.8883 56.9874 35.9217 56.6963 35.3094C56.4052 34.697 55.9708 34.3909 55.3931 34.3909H55.1218Z" fill="#0000FF"/>
<path d="M33.9637 55.3724L33.4477 57.1718H34.4863L34.3739 57.5886H33.3419L32.204 61.4917C32.0805 61.9107 32.0188 62.1819 32.0188 62.3054C32.0188 62.3804 32.0364 62.4377 32.0717 62.4774C32.107 62.5171 32.1489 62.5369 32.1974 62.5369C32.3076 62.5369 32.4532 62.4597 32.634 62.3054C32.7399 62.2172 32.9758 61.9459 33.3419 61.4917L33.5602 61.6571C33.1544 62.2481 32.7707 62.6648 32.4091 62.9074C32.1621 63.075 31.9129 63.1588 31.6615 63.1588C31.4675 63.1588 31.3087 63.0992 31.1852 62.9802C31.0617 62.8567 31 62.7001 31 62.5105C31 62.2723 31.0706 61.9085 31.2117 61.4189L32.3165 57.5886H31.3175L31.3837 57.3306C31.8688 57.1983 32.2724 57.002 32.5943 56.7418C32.9163 56.4772 33.2757 56.0207 33.6726 55.3724H33.9637Z" stroke="#0000FF" mask="url(#path-2-outside-1_98_1067)"/>
<path d="M40.4799 59.0837C40.4799 59.7452 40.3035 60.4001 39.9507 61.0485C39.6022 61.6968 39.1149 62.2106 38.4886 62.5898C37.8624 62.9691 37.2538 63.1588 36.6628 63.1588C36.0586 63.1588 35.5646 62.9669 35.1809 62.5832C34.8017 62.1951 34.612 61.6946 34.612 61.0815C34.612 60.4332 34.7972 59.7827 35.1677 59.13C35.5426 58.4773 36.0409 57.9613 36.6628 57.582C37.2891 57.2027 37.8933 57.0131 38.4754 57.0131C39.0576 57.0131 39.5361 57.2049 39.911 57.5886C40.2902 57.9723 40.4799 58.4707 40.4799 59.0837ZM39.3817 58.6272C39.3817 58.2171 39.2803 57.9039 39.0774 57.6878C38.879 57.4673 38.621 57.3571 38.3034 57.3571C37.6551 57.3571 37.0575 57.8223 36.5106 58.7529C35.9682 59.6791 35.6969 60.6008 35.6969 61.5182C35.6969 61.9371 35.8028 62.2613 36.0145 62.4906C36.2262 62.7155 36.493 62.828 36.8149 62.828C37.4368 62.828 38.019 62.3671 38.5614 61.4454C39.1083 60.5192 39.3817 59.5798 39.3817 58.6272Z" stroke="#0000FF" mask="url(#path-2-outside-1_98_1067)"/>
<path d="M48.3191 53.5929L46.0434 61.3991C45.92 61.8225 45.8582 62.1003 45.8582 62.2326C45.8582 62.2767 45.8759 62.3186 45.9111 62.3583C45.9508 62.398 45.9905 62.4178 46.0302 62.4178C46.0875 62.4178 46.1559 62.3892 46.2353 62.3318C46.3852 62.226 46.6366 61.9614 46.9894 61.538L47.2144 61.6769C46.8968 62.1179 46.5749 62.4752 46.2485 62.7486C45.9266 63.0221 45.6245 63.1588 45.3422 63.1588C45.1923 63.1588 45.0688 63.1058 44.9717 63C44.8747 62.8942 44.8262 62.7442 44.8262 62.5502C44.8262 62.2988 44.8924 61.9614 45.0247 61.538L45.2827 60.7177C44.6432 61.7056 44.061 62.3892 43.5362 62.7685C43.1746 63.0287 42.8284 63.1588 42.4976 63.1588C42.1624 63.1588 41.8691 63.011 41.6177 62.7155C41.3708 62.4156 41.2473 62.0099 41.2473 61.4983C41.2473 60.8412 41.4568 60.1399 41.8757 59.3946C42.2947 58.6493 42.8482 58.0429 43.5362 57.5754C44.0787 57.2005 44.577 57.0131 45.0313 57.0131C45.2694 57.0131 45.4745 57.0616 45.6465 57.1586C45.8185 57.2556 45.9883 57.4166 46.1559 57.6415L46.8042 55.3394C46.8527 55.1762 46.8924 55.0461 46.9233 54.949C46.9762 54.7726 47.0027 54.6271 47.0027 54.5124C47.0027 54.4198 46.9696 54.3426 46.9034 54.2809C46.8108 54.2059 46.6918 54.1684 46.5462 54.1684C46.4448 54.1684 46.2772 54.1839 46.0434 54.2147V53.97L48.3191 53.5929ZM45.8648 58.2898C45.8648 58.0076 45.7832 57.7804 45.6201 57.6084C45.4569 57.4364 45.2496 57.3504 44.9982 57.3504C44.4425 57.3504 43.8626 57.8091 43.2584 58.7264C42.6586 59.6438 42.3587 60.5214 42.3587 61.3594C42.3587 61.6901 42.4314 61.9437 42.577 62.1201C42.7225 62.2921 42.8967 62.3782 43.0996 62.3782C43.5583 62.3782 44.1338 61.882 44.8262 60.8897C45.5186 59.8974 45.8648 59.0308 45.8648 58.2898Z" stroke="#0000FF" mask="url(#path-2-outside-1_98_1067)"/>
<path d="M54.1209 57.0131L52.8309 61.4983L52.6853 62.1003C52.6721 62.1576 52.6655 62.2061 52.6655 62.2458C52.6655 62.3164 52.6875 62.3782 52.7316 62.4311C52.7669 62.4708 52.811 62.4906 52.8639 62.4906C52.9213 62.4906 52.9962 62.4553 53.0889 62.3848C53.2609 62.2569 53.4902 61.9923 53.7769 61.5909L54.0018 61.7497C53.6975 62.2084 53.3843 62.559 53.0624 62.8015C52.7404 63.0397 52.4428 63.1588 52.1693 63.1588C51.9797 63.1588 51.8363 63.1103 51.7393 63.0132C51.6467 62.9206 51.6004 62.7839 51.6004 62.6031C51.6004 62.387 51.6489 62.1025 51.7459 61.7497L51.8849 61.2535C51.3071 62.0077 50.7757 62.5347 50.2905 62.8346C49.9421 63.0507 49.6003 63.1588 49.2651 63.1588C48.9432 63.1588 48.6654 63.0265 48.4316 62.7618C48.1979 62.4928 48.081 62.1246 48.081 61.6571C48.081 60.9558 48.2905 60.2171 48.7095 59.4409C49.1328 58.6603 49.6687 58.0362 50.317 57.5687C50.8242 57.1983 51.3027 57.0131 51.7525 57.0131C52.0216 57.0131 52.2443 57.0836 52.4207 57.2247C52.6015 57.3659 52.7382 57.5996 52.8309 57.926L53.069 57.1718L54.1209 57.0131ZM51.7658 57.3571C51.4835 57.3571 51.1836 57.4894 50.8661 57.754C50.4162 58.1289 50.0149 58.6845 49.6621 59.4211C49.3137 60.1576 49.1395 60.8235 49.1395 61.4189C49.1395 61.7188 49.2144 61.957 49.3644 62.1334C49.5143 62.3054 49.6863 62.3914 49.8804 62.3914C50.3611 62.3914 50.8837 62.0364 51.4482 61.3263C52.2024 60.3825 52.5795 59.4144 52.5795 58.4221C52.5795 58.0473 52.5067 57.776 52.3612 57.6084C52.2156 57.4409 52.0172 57.3571 51.7658 57.3571Z" stroke="#0000FF" mask="url(#path-2-outside-1_98_1067)"/>
<path d="M56.7009 57.0131C56.8508 57.2688 56.9545 57.5092 57.0118 57.7341C57.0691 57.9546 57.1265 58.3913 57.1838 59.044L57.4749 62.2988C57.7395 61.9812 58.1232 61.4785 58.626 60.7905C58.8685 60.4553 59.1684 59.9988 59.5257 59.4211C59.7418 59.0682 59.8741 58.8213 59.9226 58.6801C59.949 58.6096 59.9623 58.5368 59.9623 58.4618C59.9623 58.4133 59.9468 58.3736 59.916 58.3428C59.8851 58.3119 59.8035 58.2766 59.6712 58.2369C59.5433 58.1928 59.4352 58.1156 59.347 58.0054C59.2632 57.8907 59.2213 57.7606 59.2213 57.6151C59.2213 57.4342 59.2743 57.2887 59.3801 57.1784C59.486 57.0682 59.6183 57.0131 59.777 57.0131C59.9711 57.0131 60.1365 57.0946 60.2732 57.2578C60.4099 57.4166 60.4783 57.6371 60.4783 57.9194C60.4783 58.2678 60.3592 58.6669 60.121 59.1168C59.8829 59.5622 59.4242 60.248 58.745 61.1741C58.0658 62.1003 57.2433 63.1103 56.2775 64.204C55.6115 64.9582 55.1176 65.4323 54.7956 65.6263C54.4737 65.8248 54.198 65.924 53.9687 65.924C53.832 65.924 53.7129 65.8711 53.6115 65.7652C53.5056 65.6638 53.4527 65.5447 53.4527 65.408C53.4527 65.236 53.5255 65.0794 53.671 64.9383C53.8121 64.7972 53.9665 64.7266 54.1341 64.7266C54.2223 64.7266 54.2951 64.7465 54.3524 64.7862C54.3877 64.8082 54.4274 64.87 54.4715 64.9714C54.5112 65.0772 54.5487 65.1478 54.5839 65.1831C54.606 65.2051 54.6325 65.2162 54.6633 65.2162C54.6898 65.2162 54.7361 65.1941 54.8022 65.15C55.0448 65.0001 55.3271 64.7619 55.649 64.4355C56.0724 64.0033 56.3855 63.6505 56.5884 63.3771L56.2179 59.1829C56.1562 58.4905 56.0636 58.0693 55.9401 57.9194C55.8166 57.7694 55.6093 57.6944 55.3182 57.6944C55.2256 57.6944 55.0602 57.7077 54.8221 57.7341L54.7626 57.4894L56.7009 57.0131Z" stroke="#0000FF" mask="url(#path-2-outside-1_98_1067)"/>
<path d="M40.5139 33.3674V33.8529C40.2185 33.9316 39.9913 34.1022 39.8326 34.3646C39.612 34.732 39.2636 35.7336 38.7873 37.3694L36.8424 43.812V48.1158C36.8424 49.0343 36.8666 49.6073 36.9152 49.8347C36.9637 50.0534 37.0585 50.2502 37.1996 50.4252C37.3452 50.5914 37.537 50.6745 37.7752 50.6745H38.2779V51.16H33.2436V50.6745H33.7133C33.9779 50.6745 34.1874 50.5827 34.3418 50.399C34.4564 50.2765 34.5468 50.0666 34.613 49.7691C34.6615 49.5592 34.6858 49.0081 34.6858 48.1158V44.5468L32.5754 36.9233C32.1565 35.4187 31.861 34.5352 31.689 34.2728C31.517 34.0016 31.2876 33.8616 31.001 33.8529V33.3674H35.301V33.8529H35.1092C34.8489 33.8529 34.6659 33.9272 34.5601 34.076C34.4586 34.2247 34.4079 34.3821 34.4079 34.5483C34.4079 34.8632 34.5843 35.6549 34.9371 36.9233L36.5579 42.8148L38.1721 37.4482C38.5734 36.136 38.7741 35.2656 38.7741 34.837C38.7741 34.6008 38.7168 34.404 38.6021 34.2465C38.4521 34.0278 38.1765 33.8966 37.7752 33.8529V33.3674H40.5139Z" stroke="#0000FF" mask="url(#path-2-outside-1_98_1067)"/>
<path d="M46.309 46.0951H43.1403L42.7632 47.8272C42.6397 48.4045 42.5779 48.8813 42.5779 49.2574C42.5779 49.756 42.6794 50.1234 42.8823 50.3596C43.0013 50.4996 43.2946 50.6045 43.7621 50.6745V51.16H40.7786V50.6745C41.1005 50.5783 41.3651 50.3159 41.5724 49.8872C41.7797 49.4498 42.0355 48.5532 42.3398 47.1973L45.5483 33H45.674L48.9089 47.591C49.2176 48.9731 49.4712 49.8435 49.6697 50.2021C49.8196 50.4733 50.0313 50.6308 50.3047 50.6745V51.16H45.965V50.6745H46.1437C46.4921 50.6745 46.7368 50.5783 46.878 50.3858C46.975 50.2459 47.0235 50.0447 47.0235 49.7823C47.0235 49.6248 47.0103 49.463 46.9838 49.2968C46.975 49.218 46.9088 48.89 46.7853 48.3127L46.309 46.0951ZM46.0841 45.1242L44.7478 38.9965L43.3718 45.1242H46.0841Z" stroke="#0000FF" mask="url(#path-2-outside-1_98_1067)"/>
<path d="M55.1218 43.1035V48.0371C55.1218 48.9993 55.1505 49.6073 55.2078 49.861C55.2696 50.1059 55.3754 50.3027 55.5254 50.4514C55.6797 50.6002 55.9598 50.6745 56.3655 50.6745V51.16H51.8075V50.6745C52.2221 50.6745 52.5021 50.6002 52.6477 50.4514C52.7976 50.294 52.9013 50.0928 52.9586 49.8479C53.0203 49.6029 53.0512 48.9993 53.0512 48.0371V36.4903C53.0512 35.5281 53.0203 34.9245 52.9586 34.6795C52.9013 34.4259 52.7976 34.2247 52.6477 34.076C52.4977 33.9272 52.2177 33.8529 51.8075 33.8529V33.3674H55.7172C57.005 33.3674 57.929 33.8223 58.4891 34.732C59.0492 35.6418 59.3292 36.779 59.3292 38.1436C59.3292 39.2983 59.1484 40.2867 58.7868 41.109C58.4251 41.9313 57.9268 42.4911 57.2917 42.7886C56.8639 42.9985 56.1406 43.1035 55.1218 43.1035ZM55.1218 34.3909V42.08C55.2674 42.0975 55.3776 42.1062 55.4526 42.1062C55.9907 42.1062 56.4052 41.7913 56.6963 41.1615C56.9874 40.5229 57.1329 39.5388 57.1329 38.2092C57.1329 36.8883 56.9874 35.9217 56.6963 35.3094C56.4052 34.697 55.9708 34.3909 55.3931 34.3909H55.1218Z" stroke="#0000FF" mask="url(#path-2-outside-1_98_1067)"/>
<path d="M42.6265 23.103C43.0986 23.103 43.5707 23.103 44.0428 23.103C44.0523 23.1093 44.0617 23.1205 44.0713 23.1208C44.1035 23.1218 44.1295 23.1341 44.159 23.1462C44.2098 23.167 44.268 23.1692 44.3077 23.2156C44.312 23.2206 44.3263 23.216 44.3357 23.2175C44.4084 23.2289 44.4865 23.2225 44.5437 23.2849C44.552 23.294 44.5735 23.2946 44.5885 23.2936C44.6397 23.2903 44.6804 23.3096 44.7161 23.3447C44.7268 23.3553 44.7409 23.367 44.7549 23.3691C44.8045 23.3766 44.8228 23.4142 44.8512 23.4482C44.8749 23.4765 44.9284 23.4761 44.9546 23.5124C44.958 23.5172 44.9578 23.5246 44.9614 23.5293C44.9917 23.5686 45.0369 23.5949 45.0568 23.644C45.0603 23.6528 45.0847 23.6572 45.0993 23.6568C45.1447 23.6553 45.1738 23.6681 45.1729 23.7202C45.1727 23.7305 45.1808 23.7428 45.1884 23.7511C45.2296 23.7956 45.2671 23.8454 45.3148 23.8814C45.3681 23.9216 45.3811 23.9745 45.3861 24.0306C45.3985 24.0371 45.4064 24.0427 45.4152 24.0457C45.4639 24.0622 45.4866 24.093 45.4797 24.1467C45.4778 24.1612 45.4921 24.1781 45.4995 24.1937C45.5204 24.2373 45.531 24.2864 45.5704 24.3205C45.5761 24.3256 45.5698 24.3442 45.5694 24.3565C45.5691 24.3673 45.5647 24.3836 45.57 24.388C45.5998 24.4127 45.5914 24.4455 45.5932 24.4765C45.5943 24.4952 45.5907 24.5216 45.6013 24.5308C45.6392 24.564 45.6295 24.6056 45.6316 24.646C45.6322 24.6582 45.6327 24.6781 45.6392 24.6809C45.6789 24.6983 45.6678 24.732 45.6702 24.7623C45.6764 24.842 45.6474 24.9272 45.7068 24.9992C45.7116 25.005 45.7065 25.0181 45.7085 25.0273C45.7145 25.0546 45.7129 25.0931 45.7302 25.1065C45.7712 25.1382 45.7602 25.1841 45.7786 25.2189C45.7973 25.2286 45.8175 25.2408 45.821 25.2568C45.826 25.2793 45.8408 25.2926 45.8497 25.3095C45.8707 25.3491 45.9064 25.3539 45.9386 25.3713C45.97 25.3883 45.9933 25.42 46.0244 25.4377C46.0584 25.4572 46.0813 25.4904 46.1235 25.5012C46.1794 25.5155 46.2445 25.5022 46.2904 25.5503C46.3533 25.5373 46.3962 25.6073 46.4599 25.5911C46.4927 25.6499 46.5489 25.6219 46.5957 25.6263C46.6334 25.6299 46.6718 25.627 46.7115 25.627C46.7189 25.6464 46.7254 25.6633 46.7319 25.6805C46.7424 25.6819 46.7516 25.6833 46.7609 25.6842C46.8666 25.6943 46.9136 25.7441 46.9139 25.8466C46.9141 25.8844 46.9139 25.9224 46.9139 25.9607C46.8814 25.972 46.8582 25.9821 46.8494 26.0197C46.841 26.0556 46.8356 26.1032 46.7834 26.1137C46.7759 26.1151 46.7692 26.1262 46.7643 26.1341C46.7352 26.1821 46.6968 26.213 46.6342 26.2008C46.6115 26.2611 46.5858 26.3155 46.512 26.324C46.512 26.3677 46.5132 26.4088 46.5118 26.4499C46.5092 26.5237 46.5368 26.5929 46.5928 26.6298C46.6607 26.6745 46.6719 26.7273 46.6654 26.797C46.6624 26.8286 46.6649 26.8606 46.6649 26.9007C46.6074 26.9063 46.6062 26.9535 46.6052 26.9895C46.5382 27.0192 46.4793 27.0454 46.4204 27.0715C46.3687 27.1635 46.2744 27.2078 46.1977 27.2721C46.1656 27.299 46.123 27.3238 46.1281 27.3787C46.1316 27.4177 46.0844 27.3956 46.0794 27.407C46.0494 27.5022 46.1123 27.5526 46.1409 27.6155C46.2255 27.6155 46.3052 27.6163 46.3849 27.6153C46.4639 27.6142 46.5416 27.6232 46.6201 27.6312C46.6772 27.6371 46.6986 27.6801 46.7155 27.7094C46.734 27.7414 46.7265 27.7983 46.7115 27.8371C46.6956 27.8784 46.6572 27.9108 46.6297 27.9478C46.6206 27.9599 46.6077 27.9753 46.609 27.988C46.6164 28.0632 46.5757 28.1489 46.6547 28.2101C46.6624 28.2162 46.6628 28.2331 46.6646 28.2452C46.6715 28.2915 46.6769 28.338 46.6843 28.3841C46.6871 28.4017 46.6885 28.4283 46.6994 28.434C46.7269 28.4483 46.7211 28.4698 46.7221 28.4909C46.7252 28.5575 46.6636 28.6088 46.6774 28.6787C46.6787 28.6853 46.6605 28.6956 46.6514 28.7042C46.6428 28.7123 46.632 28.7191 46.6262 28.7289C46.5706 28.8227 46.4891 28.8826 46.3866 28.9164C46.375 28.9203 46.3618 28.924 46.3534 28.932C46.3151 28.9687 46.273 28.954 46.2299 28.9429C46.2182 28.9834 46.19 28.9938 46.1501 28.9936C46.11 28.9934 46.0655 28.9926 46.0311 29.0091C46.0042 29.022 45.9803 29.0283 45.9518 29.0316C45.9056 29.0368 45.8458 29.032 45.8173 29.0587C45.7794 29.0942 45.7439 29.0842 45.7058 29.0879C45.6905 29.0893 45.675 29.0881 45.6596 29.0881C45.642 29.1161 45.6222 29.1356 45.5983 29.1449C45.5436 29.1664 45.4878 29.1794 45.4501 29.2341C45.4342 29.2574 45.4056 29.2816 45.3686 29.288C45.3511 29.2911 45.3362 29.3133 45.3214 29.3281C45.2854 29.3642 45.2477 29.399 45.2153 29.438C45.1824 29.4776 45.1561 29.5224 45.1248 29.5633C45.1142 29.577 45.0837 29.5935 45.0849 29.5956C45.1149 29.6472 45.0637 29.6521 45.0383 29.6768C45.0549 29.7716 44.9931 29.8512 44.9741 29.9415C44.972 29.9513 44.9577 29.9617 44.9467 29.9658C44.9313 29.9716 44.9296 29.9763 44.9353 29.9919C44.9401 30.0054 44.9408 30.023 44.9366 30.0367C44.8947 30.1764 44.8926 30.321 44.8863 30.4645C44.8824 30.5538 44.8949 30.6444 44.7912 30.6893C44.7786 30.7335 44.7439 30.7324 44.7073 30.7332C44.2336 30.743 43.7598 30.7177 43.2858 30.749C43.0349 30.7655 42.782 30.7534 42.5301 30.751C42.455 30.7502 42.3796 30.7411 42.305 30.7306C42.2831 30.7275 42.2619 30.7085 42.2434 30.6931C42.1846 30.6441 42.1274 30.5934 42.0848 30.5566C42.0404 30.4736 42.118 30.4365 42.1173 30.3768C42.1171 30.3632 42.1482 30.3493 42.1631 30.337C42.1765 30.2557 42.1627 30.168 42.2359 30.1049C42.2188 30.0323 42.2147 30.0083 42.2528 29.9767C42.2809 29.9534 42.2802 29.9316 42.2817 29.9041C42.2835 29.8696 42.2735 29.8246 42.2914 29.8028C42.3249 29.7621 42.3169 29.7204 42.3203 29.6773C42.3222 29.6533 42.3214 29.6184 42.3356 29.6086C42.3603 29.5917 42.3582 29.5731 42.3583 29.5518C42.3587 29.4466 42.3588 29.3415 42.3581 29.2363C42.358 29.2211 42.3577 29.1961 42.3497 29.1925C42.3097 29.1742 42.3225 29.1405 42.3196 29.1109C42.3178 29.0924 42.3198 29.0627 42.3103 29.058C42.2751 29.0408 42.2823 29.0124 42.2817 28.985C42.2811 28.9629 42.2853 28.9388 42.2548 28.9321C42.2499 28.8741 42.1756 28.8486 42.1852 28.7839C42.1386 28.7441 42.1072 28.6941 42.0866 28.6369C42.0321 28.6429 42.0392 28.5888 42.0156 28.5646C41.9764 28.5245 41.9387 28.4825 41.8961 28.4463C41.8525 28.4093 41.7856 28.404 41.7554 28.3467C41.7544 28.3447 41.7497 28.3434 41.7469 28.3436C41.6859 28.3484 41.6642 28.299 41.6273 28.2655C41.5994 28.2401 41.5851 28.1928 41.5398 28.1905C41.5066 28.1888 41.4917 28.1728 41.4738 28.1467C41.454 28.1181 41.423 28.083 41.393 28.0789C41.3444 28.0722 41.3215 28.0417 41.294 28.0126C41.2814 27.9992 41.2764 27.976 41.262 27.9674C41.1785 27.918 41.0978 27.8653 41.0382 27.7872C40.9852 27.7178 40.9011 27.6892 40.8401 27.6266C40.7532 27.5378 40.6627 27.4518 40.5755 27.3628C40.5495 27.3362 40.5103 27.3222 40.519 27.2739C40.52 27.2683 40.5098 27.2559 40.5031 27.2544C40.4456 27.2416 40.4598 27.1564 40.3964 27.1495C40.3924 27.149 40.3866 27.133 40.3876 27.1249C40.3915 27.0906 40.3725 27.0712 40.3532 27.0449C40.3218 27.0023 40.2826 26.9626 40.2657 26.9104C40.2507 26.8638 40.2447 26.8132 40.1882 26.7924C40.1801 26.7894 40.1787 26.7643 40.1769 26.7492C40.1705 26.6958 40.1192 26.6546 40.1349 26.595C40.1359 26.5911 40.1292 26.5823 40.1242 26.5802C40.0649 26.5548 40.0803 26.5057 40.0844 26.4596C40.0856 26.4459 40.0882 26.4287 40.0816 26.4185C40.0575 26.3807 40.0643 26.3394 40.061 26.2986C40.056 26.2394 40.0475 26.1805 40.0406 26.1215C39.9785 26.0817 40.0064 26.0194 40.0053 25.9667C40.0019 25.8171 40.0026 25.6672 40.0048 25.5175C40.0057 25.4594 39.9849 25.3954 40.0391 25.3471C40.0428 25.3439 40.0408 25.335 40.0423 25.3289C40.0509 25.2946 40.031 25.2592 40.0611 25.2226C40.078 25.2018 40.0625 25.1545 40.0615 25.1191C40.0604 25.081 40.0562 25.0407 40.0828 25.0099C40.1073 24.9815 40.0674 24.9557 40.0844 24.931C40.1005 24.9077 40.1233 24.8883 40.136 24.8636C40.1438 24.8482 40.1331 24.8242 40.1394 24.8073C40.1543 24.7678 40.1647 24.7131 40.1947 24.6965C40.2305 24.6765 40.2426 24.654 40.2537 24.6215C40.2647 24.589 40.2781 24.5572 40.2921 24.526C40.2965 24.516 40.3049 24.5064 40.3139 24.5002C40.3638 24.466 40.3635 24.4662 40.3885 24.4084C40.3928 24.3983 40.4037 24.391 40.4114 24.3823C40.4465 24.3431 40.4825 24.3046 40.5161 24.2641C40.5274 24.2504 40.5382 24.2319 40.539 24.2151C40.5407 24.1815 40.5538 24.1621 40.5858 24.1522C40.6006 24.1477 40.6165 24.1402 40.6268 24.1293C40.6673 24.0868 40.705 24.0416 40.7452 23.9988C40.7801 23.9617 40.8157 23.925 40.8533 23.8906C40.8914 23.8557 40.9295 23.8225 40.9783 23.7988C41.02 23.7784 41.0501 23.7346 41.0859 23.7017C41.09 23.698 41.0975 23.6967 41.1035 23.6966C41.1644 23.6954 41.1809 23.6468 41.2043 23.6017C41.237 23.5955 41.272 23.6062 41.3027 23.567C41.3281 23.5344 41.3863 23.5297 41.4213 23.5018C41.4679 23.4647 41.5258 23.4634 41.5758 23.4382C41.638 23.407 41.6947 23.3627 41.7656 23.3498C41.7712 23.3488 41.7783 23.3447 41.7809 23.34C41.8069 23.2931 41.8513 23.293 41.896 23.2944C41.9414 23.2959 41.9812 23.2788 42.0205 23.2591C42.0368 23.251 42.0534 23.2401 42.0707 23.2378C42.1327 23.2293 42.1953 23.2249 42.2574 23.2169C42.2752 23.2146 42.2975 23.2108 42.3085 23.199C42.3725 23.1306 42.4511 23.1118 42.5405 23.1216C42.5595 23.1236 42.5791 23.1239 42.5978 23.1209C42.6081 23.1193 42.617 23.1093 42.6265 23.1031V23.103Z" fill="#0000FF"/>
<path d="M48.9998 27.2524C48.9344 27.3302 48.8497 27.3503 48.7506 27.3496C48.3367 27.3466 47.9229 27.3491 47.509 27.3474C47.4468 27.3472 47.3837 27.3398 47.3227 27.3272C47.2779 27.3178 47.2449 27.2846 47.2396 27.236C47.2368 27.2097 47.2307 27.1966 47.2025 27.1923C47.1915 27.1907 47.1774 27.1722 47.175 27.1595C47.1679 27.1228 47.1662 27.0852 47.1622 27.048C47.1577 27.0059 47.1891 26.9886 47.2152 26.9652C47.2374 26.9452 47.2533 26.9182 47.274 26.8918C47.6016 26.8494 47.935 26.877 48.2675 26.8702C48.4075 26.8673 48.5477 26.8675 48.6877 26.8706C48.7691 26.8724 48.8507 26.8802 48.9315 26.8906C48.9554 26.8937 48.9771 26.9146 48.9999 26.9273V27.2524L48.9998 27.2524Z" fill="#0000FF"/>
<path d="M47.2424 26.4781C47.2356 26.448 47.2455 26.4192 47.2076 26.4034C47.1701 26.3877 47.1566 26.3508 47.1617 26.3078C47.165 26.2795 47.1633 26.2505 47.1621 26.2219C47.1604 26.1845 47.172 26.1627 47.2066 26.138C47.2579 26.1013 47.2949 26.0449 47.3396 25.9985C47.4049 25.9306 47.4716 25.864 47.5378 25.797C47.5592 25.7753 47.5798 25.7524 47.6029 25.7325C47.6239 25.7145 47.6477 25.6998 47.6706 25.6843C47.6755 25.681 47.6871 25.6813 47.6875 25.6788C47.6968 25.6186 47.7557 25.6013 47.7868 25.5614C47.8513 25.4786 47.932 25.4135 48.0053 25.3405C48.0208 25.325 48.0435 25.3145 48.0542 25.2966C48.1115 25.2017 48.2055 25.1492 48.3018 25.1195C48.3897 25.0924 48.494 25.0904 48.58 25.1345C48.6288 25.1596 48.6888 25.2006 48.6749 25.2786C48.6721 25.294 48.6715 25.3111 48.675 25.3262C48.6935 25.4049 48.6485 25.4576 48.5964 25.5013C48.5377 25.5506 48.4839 25.6034 48.4334 25.6609C48.4076 25.6903 48.3753 25.715 48.3431 25.7379C48.3072 25.7635 48.2773 25.791 48.2528 25.83C48.2244 25.8752 48.1808 25.9113 48.1427 25.9501C48.0611 26.0332 47.9824 26.1195 47.8952 26.1963C47.8514 26.2348 47.8093 26.275 47.7677 26.3155C47.7243 26.3578 47.6906 26.4104 47.6455 26.4505C47.6162 26.4766 47.5745 26.5024 47.5376 26.5036C47.4409 26.5068 47.3412 26.5247 47.2423 26.478L47.2424 26.4781Z" fill="#0000FF"/>
<path d="M47.5877 27.73C47.6098 27.7516 47.6086 27.779 47.6362 27.7986C47.6914 27.8378 47.758 27.8726 47.7786 27.9475C47.78 27.9523 47.7874 27.9568 47.7929 27.9586C47.8566 27.9794 47.8848 28.0378 47.9272 28.0818C47.9767 28.1331 48.0338 28.1772 48.0832 28.2285C48.1638 28.3121 48.2559 28.3851 48.3171 28.4869C48.3305 28.5093 48.3602 28.5218 48.382 28.5393C48.4035 28.5565 48.4246 28.5742 48.4458 28.5918C48.4526 28.5974 48.4598 28.6085 48.466 28.6079C48.528 28.6024 48.5527 28.6542 48.5879 28.6878C48.6024 28.7016 48.6082 28.7246 48.6169 28.744C48.6218 28.755 48.6218 28.7752 48.6285 28.7774C48.6894 28.797 48.6736 28.8468 48.6741 28.889C48.6755 28.9938 48.6523 29.0322 48.559 29.0902C48.5495 29.0961 48.5432 29.1079 48.5368 29.1178C48.5233 29.1385 48.5051 29.1467 48.4804 29.1458C48.4454 29.1444 48.4103 29.1455 48.3753 29.1454C48.2677 29.1454 48.2685 29.1349 48.1915 29.0509C48.1423 28.9971 48.0959 28.9395 48.0427 28.8894C47.9685 28.8197 47.8887 28.7559 47.8155 28.6853C47.7893 28.66 47.765 28.6326 47.7377 28.6077C47.7084 28.5811 47.688 28.5452 47.6605 28.5165C47.6003 28.4537 47.5462 28.3844 47.4684 28.3398C47.4484 28.3283 47.4337 28.3046 47.4213 28.2837C47.4051 28.2562 47.3946 28.2263 47.3545 28.2252C47.3466 28.2249 47.3374 28.2094 47.332 28.1993C47.3037 28.1467 47.2604 28.1089 47.2142 28.0727C47.1978 28.0598 47.1822 28.0408 47.1757 28.0215C47.1523 27.9512 47.1565 27.8788 47.1726 27.8077C47.1768 27.7888 47.1862 27.7665 47.217 27.7677C47.2594 27.7693 47.2812 27.7141 47.3336 27.7281C47.3723 27.7384 47.4159 27.7301 47.4573 27.7301C47.5017 27.7301 47.5461 27.7301 47.5878 27.7301L47.5877 27.73Z" fill="#0000FF"/>
<path d="M32.6265 23.103C33.0986 23.103 33.5707 23.103 34.0428 23.103C34.0523 23.1093 34.0617 23.1205 34.0713 23.1208C34.1035 23.1218 34.1295 23.1341 34.159 23.1462C34.2098 23.167 34.268 23.1692 34.3077 23.2156C34.312 23.2206 34.3263 23.216 34.3357 23.2175C34.4084 23.2289 34.4865 23.2225 34.5437 23.2849C34.552 23.294 34.5735 23.2946 34.5885 23.2936C34.6397 23.2903 34.6804 23.3096 34.7161 23.3447C34.7268 23.3553 34.7409 23.367 34.7549 23.3691C34.8045 23.3766 34.8228 23.4142 34.8512 23.4482C34.8749 23.4765 34.9284 23.4761 34.9546 23.5124C34.958 23.5172 34.9578 23.5246 34.9614 23.5293C34.9917 23.5686 35.0369 23.5949 35.0568 23.644C35.0603 23.6528 35.0847 23.6572 35.0993 23.6568C35.1447 23.6553 35.1738 23.6681 35.1729 23.7202C35.1727 23.7305 35.1808 23.7428 35.1884 23.7511C35.2296 23.7956 35.2671 23.8454 35.3148 23.8814C35.3681 23.9216 35.3811 23.9745 35.3861 24.0306C35.3985 24.0371 35.4064 24.0427 35.4152 24.0457C35.4639 24.0622 35.4866 24.093 35.4797 24.1467C35.4778 24.1612 35.4921 24.1781 35.4995 24.1937C35.5204 24.2373 35.531 24.2864 35.5704 24.3205C35.5761 24.3256 35.5698 24.3442 35.5694 24.3565C35.5691 24.3673 35.5647 24.3836 35.57 24.388C35.5998 24.4127 35.5914 24.4455 35.5932 24.4765C35.5943 24.4952 35.5907 24.5216 35.6013 24.5308C35.6392 24.564 35.6295 24.6056 35.6316 24.646C35.6322 24.6582 35.6327 24.6781 35.6392 24.6809C35.6789 24.6983 35.6678 24.732 35.6702 24.7623C35.6764 24.842 35.6474 24.9272 35.7068 24.9992C35.7116 25.005 35.7065 25.0181 35.7085 25.0273C35.7145 25.0546 35.7129 25.0931 35.7302 25.1065C35.7712 25.1382 35.7602 25.1841 35.7786 25.2189C35.7973 25.2286 35.8175 25.2408 35.821 25.2568C35.826 25.2793 35.8408 25.2926 35.8497 25.3095C35.8707 25.3491 35.9064 25.3539 35.9386 25.3713C35.97 25.3883 35.9933 25.42 36.0244 25.4377C36.0584 25.4572 36.0813 25.4904 36.1235 25.5012C36.1794 25.5155 36.2445 25.5022 36.2904 25.5503C36.3533 25.5373 36.3962 25.6073 36.4599 25.5911C36.4927 25.6499 36.5489 25.6219 36.5957 25.6263C36.6334 25.6299 36.6718 25.627 36.7115 25.627C36.7189 25.6464 36.7254 25.6633 36.7319 25.6805C36.7424 25.6819 36.7516 25.6833 36.7609 25.6842C36.8666 25.6943 36.9136 25.7441 36.9139 25.8466C36.9141 25.8844 36.9139 25.9224 36.9139 25.9607C36.8814 25.972 36.8582 25.9821 36.8494 26.0197C36.841 26.0556 36.8356 26.1032 36.7834 26.1137C36.7759 26.1151 36.7692 26.1262 36.7643 26.1341C36.7352 26.1821 36.6968 26.213 36.6342 26.2008C36.6115 26.2611 36.5858 26.3155 36.512 26.324C36.512 26.3677 36.5132 26.4088 36.5118 26.4499C36.5092 26.5237 36.5368 26.5929 36.5928 26.6298C36.6607 26.6745 36.6719 26.7273 36.6654 26.797C36.6624 26.8286 36.6649 26.8606 36.6649 26.9007C36.6074 26.9063 36.6062 26.9535 36.6052 26.9895C36.5382 27.0192 36.4793 27.0454 36.4204 27.0715C36.3687 27.1635 36.2744 27.2078 36.1977 27.2721C36.1656 27.299 36.123 27.3238 36.1281 27.3787C36.1316 27.4177 36.0844 27.3956 36.0794 27.407C36.0494 27.5022 36.1123 27.5526 36.1409 27.6155C36.2255 27.6155 36.3052 27.6163 36.3849 27.6153C36.4639 27.6142 36.5416 27.6232 36.6201 27.6312C36.6772 27.6371 36.6986 27.6801 36.7155 27.7094C36.734 27.7414 36.7265 27.7983 36.7115 27.8371C36.6956 27.8784 36.6572 27.9108 36.6297 27.9478C36.6206 27.9599 36.6077 27.9753 36.609 27.988C36.6164 28.0632 36.5757 28.1489 36.6547 28.2101C36.6624 28.2162 36.6628 28.2331 36.6646 28.2452C36.6715 28.2915 36.6769 28.338 36.6843 28.3841C36.6871 28.4017 36.6885 28.4283 36.6994 28.434C36.7269 28.4483 36.7211 28.4698 36.7221 28.4909C36.7252 28.5575 36.6636 28.6088 36.6774 28.6787C36.6787 28.6853 36.6605 28.6956 36.6514 28.7042C36.6428 28.7123 36.632 28.7191 36.6262 28.7289C36.5706 28.8227 36.4891 28.8826 36.3866 28.9164C36.375 28.9203 36.3618 28.924 36.3534 28.932C36.3151 28.9687 36.273 28.954 36.2299 28.9429C36.2182 28.9834 36.19 28.9938 36.1501 28.9936C36.11 28.9934 36.0655 28.9926 36.0311 29.0091C36.0042 29.022 35.9803 29.0283 35.9518 29.0316C35.9056 29.0368 35.8458 29.032 35.8173 29.0587C35.7794 29.0942 35.7439 29.0842 35.7058 29.0879C35.6905 29.0893 35.675 29.0881 35.6596 29.0881C35.642 29.1161 35.6222 29.1356 35.5983 29.1449C35.5436 29.1664 35.4878 29.1794 35.4501 29.2341C35.4342 29.2574 35.4056 29.2816 35.3686 29.288C35.3511 29.2911 35.3362 29.3133 35.3214 29.3281C35.2854 29.3642 35.2477 29.399 35.2153 29.438C35.1824 29.4776 35.1561 29.5224 35.1248 29.5633C35.1142 29.577 35.0837 29.5935 35.0849 29.5956C35.1149 29.6472 35.0637 29.6521 35.0383 29.6768C35.0549 29.7716 34.9931 29.8512 34.9741 29.9415C34.972 29.9513 34.9577 29.9617 34.9467 29.9658C34.9313 29.9716 34.9296 29.9763 34.9353 29.9919C34.9401 30.0054 34.9408 30.023 34.9366 30.0367C34.8947 30.1764 34.8926 30.321 34.8863 30.4645C34.8824 30.5538 34.8949 30.6444 34.7912 30.6893C34.7786 30.7335 34.7439 30.7324 34.7073 30.7332C34.2336 30.743 33.7598 30.7177 33.2858 30.749C33.0349 30.7655 32.782 30.7534 32.5301 30.751C32.455 30.7502 32.3796 30.7411 32.305 30.7306C32.2831 30.7275 32.2619 30.7085 32.2434 30.6931C32.1846 30.6441 32.1274 30.5934 32.0848 30.5566C32.0404 30.4736 32.118 30.4365 32.1173 30.3768C32.1171 30.3632 32.1482 30.3493 32.1631 30.337C32.1765 30.2557 32.1627 30.168 32.2359 30.1049C32.2188 30.0323 32.2147 30.0083 32.2528 29.9767C32.2809 29.9534 32.2802 29.9316 32.2817 29.9041C32.2835 29.8696 32.2735 29.8246 32.2914 29.8028C32.3249 29.7621 32.3169 29.7204 32.3203 29.6773C32.3222 29.6533 32.3214 29.6184 32.3356 29.6086C32.3603 29.5917 32.3582 29.5731 32.3583 29.5518C32.3587 29.4466 32.3588 29.3415 32.3581 29.2363C32.358 29.2211 32.3577 29.1961 32.3497 29.1925C32.3097 29.1742 32.3225 29.1405 32.3196 29.1109C32.3178 29.0924 32.3198 29.0627 32.3103 29.058C32.2751 29.0408 32.2823 29.0124 32.2817 28.985C32.2811 28.9629 32.2853 28.9388 32.2548 28.9321C32.2499 28.8741 32.1756 28.8486 32.1852 28.7839C32.1386 28.7441 32.1072 28.6941 32.0866 28.6369C32.0321 28.6429 32.0392 28.5888 32.0156 28.5646C31.9764 28.5245 31.9387 28.4825 31.8961 28.4463C31.8525 28.4093 31.7856 28.404 31.7554 28.3467C31.7544 28.3447 31.7497 28.3434 31.7469 28.3436C31.6859 28.3484 31.6642 28.299 31.6273 28.2655C31.5994 28.2401 31.5851 28.1928 31.5398 28.1905C31.5066 28.1888 31.4917 28.1728 31.4738 28.1467C31.454 28.1181 31.423 28.083 31.393 28.0789C31.3444 28.0722 31.3215 28.0417 31.294 28.0126C31.2814 27.9992 31.2764 27.976 31.262 27.9674C31.1785 27.918 31.0978 27.8653 31.0382 27.7872C30.9852 27.7178 30.9011 27.6892 30.8401 27.6266C30.7532 27.5378 30.6627 27.4518 30.5755 27.3628C30.5495 27.3362 30.5103 27.3222 30.519 27.2739C30.52 27.2683 30.5098 27.2559 30.5031 27.2544C30.4456 27.2416 30.4598 27.1564 30.3964 27.1495C30.3924 27.149 30.3866 27.133 30.3876 27.1249C30.3915 27.0906 30.3725 27.0712 30.3532 27.0449C30.3218 27.0023 30.2826 26.9626 30.2657 26.9104C30.2507 26.8638 30.2447 26.8132 30.1882 26.7924C30.1801 26.7894 30.1787 26.7643 30.1769 26.7492C30.1705 26.6958 30.1192 26.6546 30.1349 26.595C30.1359 26.5911 30.1292 26.5823 30.1242 26.5802C30.0649 26.5548 30.0803 26.5057 30.0844 26.4596C30.0856 26.4459 30.0882 26.4287 30.0816 26.4185C30.0575 26.3807 30.0643 26.3394 30.061 26.2986C30.056 26.2394 30.0475 26.1805 30.0406 26.1215C29.9785 26.0817 30.0064 26.0194 30.0053 25.9667C30.0019 25.8171 30.0026 25.6672 30.0048 25.5175C30.0057 25.4594 29.9849 25.3954 30.0391 25.3471C30.0428 25.3439 30.0408 25.335 30.0423 25.3289C30.0509 25.2946 30.031 25.2592 30.0611 25.2226C30.078 25.2018 30.0625 25.1545 30.0615 25.1191C30.0604 25.081 30.0562 25.0407 30.0828 25.0099C30.1073 24.9815 30.0674 24.9557 30.0844 24.931C30.1005 24.9077 30.1233 24.8883 30.136 24.8636C30.1438 24.8482 30.1331 24.8242 30.1394 24.8073C30.1543 24.7678 30.1647 24.7131 30.1947 24.6965C30.2305 24.6765 30.2426 24.654 30.2537 24.6215C30.2647 24.589 30.2781 24.5572 30.2921 24.526C30.2965 24.516 30.3049 24.5064 30.3139 24.5002C30.3638 24.466 30.3635 24.4662 30.3885 24.4084C30.3928 24.3983 30.4037 24.391 30.4114 24.3823C30.4465 24.3431 30.4825 24.3046 30.5161 24.2641C30.5274 24.2504 30.5382 24.2319 30.539 24.2151C30.5407 24.1815 30.5538 24.1621 30.5858 24.1522C30.6006 24.1477 30.6165 24.1402 30.6268 24.1293C30.6673 24.0868 30.705 24.0416 30.7452 23.9988C30.7801 23.9617 30.8157 23.925 30.8533 23.8906C30.8914 23.8557 30.9295 23.8225 30.9783 23.7988C31.02 23.7784 31.0501 23.7346 31.0859 23.7017C31.09 23.698 31.0975 23.6967 31.1035 23.6966C31.1644 23.6954 31.1809 23.6468 31.2043 23.6017C31.237 23.5955 31.272 23.6062 31.3027 23.567C31.3281 23.5344 31.3863 23.5297 31.4213 23.5018C31.4679 23.4647 31.5258 23.4634 31.5758 23.4382C31.638 23.407 31.6947 23.3627 31.7656 23.3498C31.7712 23.3488 31.7783 23.3447 31.7809 23.34C31.8069 23.2931 31.8513 23.293 31.896 23.2944C31.9414 23.2959 31.9812 23.2788 32.0205 23.2591C32.0368 23.251 32.0534 23.2401 32.0707 23.2378C32.1327 23.2293 32.1953 23.2249 32.2574 23.2169C32.2752 23.2146 32.2975 23.2108 32.3085 23.199C32.3725 23.1306 32.4511 23.1118 32.5405 23.1216C32.5595 23.1236 32.5791 23.1239 32.5978 23.1209C32.6081 23.1193 32.617 23.1093 32.6265 23.1031V23.103Z" fill="#0000FF"/>
<path d="M38.9998 27.2524C38.9344 27.3302 38.8497 27.3503 38.7506 27.3496C38.3367 27.3466 37.9229 27.3491 37.509 27.3474C37.4468 27.3472 37.3837 27.3398 37.3227 27.3272C37.2779 27.3178 37.2449 27.2846 37.2396 27.236C37.2368 27.2097 37.2307 27.1966 37.2025 27.1923C37.1915 27.1907 37.1774 27.1722 37.175 27.1595C37.1679 27.1228 37.1662 27.0852 37.1622 27.048C37.1577 27.0059 37.1891 26.9886 37.2152 26.9652C37.2374 26.9452 37.2533 26.9182 37.274 26.8918C37.6016 26.8494 37.935 26.877 38.2675 26.8702C38.4075 26.8673 38.5477 26.8675 38.6877 26.8706C38.7691 26.8724 38.8507 26.8802 38.9315 26.8906C38.9554 26.8937 38.9771 26.9146 38.9999 26.9273V27.2524L38.9998 27.2524Z" fill="#0000FF"/>
<path d="M37.2424 26.4781C37.2356 26.448 37.2455 26.4192 37.2076 26.4034C37.1701 26.3877 37.1566 26.3508 37.1617 26.3078C37.165 26.2795 37.1633 26.2505 37.1621 26.2219C37.1604 26.1845 37.172 26.1627 37.2066 26.138C37.2579 26.1013 37.2949 26.0449 37.3396 25.9985C37.4049 25.9306 37.4716 25.864 37.5378 25.797C37.5592 25.7753 37.5798 25.7524 37.6029 25.7325C37.6239 25.7145 37.6477 25.6998 37.6706 25.6843C37.6755 25.681 37.6871 25.6813 37.6875 25.6788C37.6968 25.6186 37.7557 25.6013 37.7868 25.5614C37.8513 25.4786 37.932 25.4135 38.0053 25.3405C38.0208 25.325 38.0435 25.3145 38.0542 25.2966C38.1115 25.2017 38.2055 25.1492 38.3018 25.1195C38.3897 25.0924 38.494 25.0904 38.58 25.1345C38.6288 25.1596 38.6888 25.2006 38.6749 25.2786C38.6721 25.294 38.6715 25.3111 38.675 25.3262C38.6935 25.4049 38.6485 25.4576 38.5964 25.5013C38.5377 25.5506 38.4839 25.6034 38.4334 25.6609C38.4076 25.6903 38.3753 25.715 38.3431 25.7379C38.3072 25.7635 38.2773 25.791 38.2528 25.83C38.2244 25.8752 38.1808 25.9113 38.1427 25.9501C38.0611 26.0332 37.9824 26.1195 37.8952 26.1963C37.8514 26.2348 37.8093 26.275 37.7677 26.3155C37.7243 26.3578 37.6906 26.4104 37.6455 26.4505C37.6162 26.4766 37.5745 26.5024 37.5376 26.5036C37.4409 26.5068 37.3412 26.5247 37.2423 26.478L37.2424 26.4781Z" fill="#0000FF"/>
<path d="M37.5877 27.73C37.6098 27.7516 37.6086 27.779 37.6362 27.7986C37.6914 27.8378 37.758 27.8726 37.7786 27.9475C37.78 27.9523 37.7874 27.9568 37.7929 27.9586C37.8566 27.9794 37.8848 28.0378 37.9272 28.0818C37.9767 28.1331 38.0338 28.1772 38.0832 28.2285C38.1638 28.3121 38.2559 28.3851 38.3171 28.4869C38.3305 28.5093 38.3602 28.5218 38.382 28.5393C38.4035 28.5565 38.4246 28.5742 38.4458 28.5918C38.4526 28.5974 38.4598 28.6085 38.466 28.6079C38.528 28.6024 38.5527 28.6542 38.5879 28.6878C38.6024 28.7016 38.6082 28.7246 38.6169 28.744C38.6218 28.755 38.6218 28.7752 38.6285 28.7774C38.6894 28.797 38.6736 28.8468 38.6741 28.889C38.6755 28.9938 38.6523 29.0322 38.559 29.0902C38.5495 29.0961 38.5432 29.1079 38.5368 29.1178C38.5233 29.1385 38.5051 29.1467 38.4804 29.1458C38.4454 29.1444 38.4103 29.1455 38.3753 29.1454C38.2677 29.1454 38.2685 29.1349 38.1915 29.0509C38.1423 28.9971 38.0959 28.9395 38.0427 28.8894C37.9685 28.8197 37.8887 28.7559 37.8155 28.6853C37.7893 28.66 37.765 28.6326 37.7377 28.6077C37.7084 28.5811 37.688 28.5452 37.6605 28.5165C37.6003 28.4537 37.5462 28.3844 37.4684 28.3398C37.4484 28.3283 37.4337 28.3046 37.4213 28.2837C37.4051 28.2562 37.3946 28.2263 37.3545 28.2252C37.3466 28.2249 37.3374 28.2094 37.332 28.1993C37.3037 28.1467 37.2604 28.1089 37.2142 28.0727C37.1978 28.0598 37.1822 28.0408 37.1757 28.0215C37.1523 27.9512 37.1565 27.8788 37.1726 27.8077C37.1768 27.7888 37.1862 27.7665 37.217 27.7677C37.2594 27.7693 37.2812 27.7141 37.3336 27.7281C37.3723 27.7384 37.4159 27.7301 37.4573 27.7301C37.5017 27.7301 37.5461 27.7301 37.5878 27.7301L37.5877 27.73Z" fill="#0000FF"/>
<path d="M52.6265 23.103C53.0986 23.103 53.5707 23.103 54.0428 23.103C54.0523 23.1093 54.0617 23.1205 54.0713 23.1208C54.1035 23.1218 54.1295 23.1341 54.159 23.1462C54.2098 23.167 54.268 23.1692 54.3077 23.2156C54.312 23.2206 54.3263 23.216 54.3357 23.2175C54.4084 23.2289 54.4865 23.2225 54.5437 23.2849C54.552 23.294 54.5735 23.2946 54.5885 23.2936C54.6397 23.2903 54.6804 23.3096 54.7161 23.3447C54.7268 23.3553 54.7409 23.367 54.7549 23.3691C54.8045 23.3766 54.8228 23.4142 54.8512 23.4482C54.8749 23.4765 54.9284 23.4761 54.9546 23.5124C54.958 23.5172 54.9578 23.5246 54.9614 23.5293C54.9917 23.5686 55.0369 23.5949 55.0568 23.644C55.0603 23.6528 55.0847 23.6572 55.0993 23.6568C55.1447 23.6553 55.1738 23.6681 55.1729 23.7202C55.1727 23.7305 55.1808 23.7428 55.1884 23.7511C55.2296 23.7956 55.2671 23.8454 55.3148 23.8814C55.3681 23.9216 55.3811 23.9745 55.3861 24.0306C55.3985 24.0371 55.4064 24.0427 55.4152 24.0457C55.4639 24.0622 55.4866 24.093 55.4797 24.1467C55.4778 24.1612 55.4921 24.1781 55.4995 24.1937C55.5204 24.2373 55.531 24.2864 55.5704 24.3205C55.5761 24.3256 55.5698 24.3442 55.5694 24.3565C55.5691 24.3673 55.5647 24.3836 55.57 24.388C55.5998 24.4127 55.5914 24.4455 55.5932 24.4765C55.5943 24.4952 55.5907 24.5216 55.6013 24.5308C55.6392 24.564 55.6295 24.6056 55.6316 24.646C55.6322 24.6582 55.6327 24.6781 55.6392 24.6809C55.6789 24.6983 55.6678 24.732 55.6702 24.7623C55.6764 24.842 55.6474 24.9272 55.7068 24.9992C55.7116 25.005 55.7065 25.0181 55.7085 25.0273C55.7145 25.0546 55.7129 25.0931 55.7302 25.1065C55.7712 25.1382 55.7602 25.1841 55.7786 25.2189C55.7973 25.2286 55.8175 25.2408 55.821 25.2568C55.826 25.2793 55.8408 25.2926 55.8497 25.3095C55.8707 25.3491 55.9064 25.3539 55.9386 25.3713C55.97 25.3883 55.9933 25.42 56.0244 25.4377C56.0584 25.4572 56.0813 25.4904 56.1235 25.5012C56.1794 25.5155 56.2445 25.5022 56.2904 25.5503C56.3533 25.5373 56.3962 25.6073 56.4599 25.5911C56.4927 25.6499 56.5489 25.6219 56.5957 25.6263C56.6334 25.6299 56.6718 25.627 56.7115 25.627C56.7189 25.6464 56.7254 25.6633 56.7319 25.6805C56.7424 25.6819 56.7516 25.6833 56.7609 25.6842C56.8666 25.6943 56.9136 25.7441 56.9139 25.8466C56.9141 25.8844 56.9139 25.9224 56.9139 25.9607C56.8814 25.972 56.8582 25.9821 56.8494 26.0197C56.841 26.0556 56.8356 26.1032 56.7834 26.1137C56.7759 26.1151 56.7692 26.1262 56.7643 26.1341C56.7352 26.1821 56.6968 26.213 56.6342 26.2008C56.6115 26.2611 56.5858 26.3155 56.512 26.324C56.512 26.3677 56.5132 26.4088 56.5118 26.4499C56.5092 26.5237 56.5368 26.5929 56.5928 26.6298C56.6607 26.6745 56.6719 26.7273 56.6654 26.797C56.6624 26.8286 56.6649 26.8606 56.6649 26.9007C56.6074 26.9063 56.6062 26.9535 56.6052 26.9895C56.5382 27.0192 56.4793 27.0454 56.4204 27.0715C56.3687 27.1635 56.2744 27.2078 56.1977 27.2721C56.1656 27.299 56.123 27.3238 56.1281 27.3787C56.1316 27.4177 56.0844 27.3956 56.0794 27.407C56.0494 27.5022 56.1123 27.5526 56.1409 27.6155C56.2255 27.6155 56.3052 27.6163 56.3849 27.6153C56.4639 27.6142 56.5416 27.6232 56.6201 27.6312C56.6772 27.6371 56.6986 27.6801 56.7155 27.7094C56.734 27.7414 56.7265 27.7983 56.7115 27.8371C56.6956 27.8784 56.6572 27.9108 56.6297 27.9478C56.6206 27.9599 56.6077 27.9753 56.609 27.988C56.6164 28.0632 56.5757 28.1489 56.6547 28.2101C56.6624 28.2162 56.6628 28.2331 56.6646 28.2452C56.6715 28.2915 56.6769 28.338 56.6843 28.3841C56.6871 28.4017 56.6885 28.4283 56.6994 28.434C56.7269 28.4483 56.7211 28.4698 56.7221 28.4909C56.7252 28.5575 56.6636 28.6088 56.6774 28.6787C56.6787 28.6853 56.6605 28.6956 56.6514 28.7042C56.6428 28.7123 56.632 28.7191 56.6262 28.7289C56.5706 28.8227 56.4891 28.8826 56.3866 28.9164C56.375 28.9203 56.3618 28.924 56.3534 28.932C56.3151 28.9687 56.273 28.954 56.2299 28.9429C56.2182 28.9834 56.19 28.9938 56.1501 28.9936C56.11 28.9934 56.0655 28.9926 56.0311 29.0091C56.0042 29.022 55.9803 29.0283 55.9518 29.0316C55.9056 29.0368 55.8458 29.032 55.8173 29.0587C55.7794 29.0942 55.7439 29.0842 55.7058 29.0879C55.6905 29.0893 55.675 29.0881 55.6596 29.0881C55.642 29.1161 55.6222 29.1356 55.5983 29.1449C55.5436 29.1664 55.4878 29.1794 55.4501 29.2341C55.4342 29.2574 55.4056 29.2816 55.3686 29.288C55.3511 29.2911 55.3362 29.3133 55.3214 29.3281C55.2854 29.3642 55.2477 29.399 55.2153 29.438C55.1824 29.4776 55.1561 29.5224 55.1248 29.5633C55.1142 29.577 55.0837 29.5935 55.0849 29.5956C55.1149 29.6472 55.0637 29.6521 55.0383 29.6768C55.0549 29.7716 54.9931 29.8512 54.9741 29.9415C54.972 29.9513 54.9577 29.9617 54.9467 29.9658C54.9313 29.9716 54.9296 29.9763 54.9353 29.9919C54.9401 30.0054 54.9408 30.023 54.9366 30.0367C54.8947 30.1764 54.8926 30.321 54.8863 30.4645C54.8824 30.5538 54.8949 30.6444 54.7912 30.6893C54.7786 30.7335 54.7439 30.7324 54.7073 30.7332C54.2336 30.743 53.7598 30.7177 53.2858 30.749C53.0349 30.7655 52.782 30.7534 52.5301 30.751C52.455 30.7502 52.3796 30.7411 52.305 30.7306C52.2831 30.7275 52.2619 30.7085 52.2434 30.6931C52.1846 30.6441 52.1274 30.5934 52.0848 30.5566C52.0404 30.4736 52.118 30.4365 52.1173 30.3768C52.1171 30.3632 52.1482 30.3493 52.1631 30.337C52.1765 30.2557 52.1627 30.168 52.2359 30.1049C52.2188 30.0323 52.2147 30.0083 52.2528 29.9767C52.2809 29.9534 52.2802 29.9316 52.2817 29.9041C52.2835 29.8696 52.2735 29.8246 52.2914 29.8028C52.3249 29.7621 52.3169 29.7204 52.3203 29.6773C52.3222 29.6533 52.3214 29.6184 52.3356 29.6086C52.3603 29.5917 52.3582 29.5731 52.3583 29.5518C52.3587 29.4466 52.3588 29.3415 52.3581 29.2363C52.358 29.2211 52.3577 29.1961 52.3497 29.1925C52.3097 29.1742 52.3225 29.1405 52.3196 29.1109C52.3178 29.0924 52.3198 29.0627 52.3103 29.058C52.2751 29.0408 52.2823 29.0124 52.2817 28.985C52.2811 28.9629 52.2853 28.9388 52.2548 28.9321C52.2499 28.8741 52.1756 28.8486 52.1852 28.7839C52.1386 28.7441 52.1072 28.6941 52.0866 28.6369C52.0321 28.6429 52.0392 28.5888 52.0156 28.5646C51.9764 28.5245 51.9387 28.4825 51.8961 28.4463C51.8525 28.4093 51.7856 28.404 51.7554 28.3467C51.7544 28.3447 51.7497 28.3434 51.7469 28.3436C51.6859 28.3484 51.6642 28.299 51.6273 28.2655C51.5994 28.2401 51.5851 28.1928 51.5398 28.1905C51.5066 28.1888 51.4917 28.1728 51.4738 28.1467C51.454 28.1181 51.423 28.083 51.393 28.0789C51.3444 28.0722 51.3215 28.0417 51.294 28.0126C51.2814 27.9992 51.2764 27.976 51.262 27.9674C51.1785 27.918 51.0978 27.8653 51.0382 27.7872C50.9852 27.7178 50.9011 27.6892 50.8401 27.6266C50.7532 27.5378 50.6627 27.4518 50.5755 27.3628C50.5495 27.3362 50.5103 27.3222 50.519 27.2739C50.52 27.2683 50.5098 27.2559 50.5031 27.2544C50.4456 27.2416 50.4598 27.1564 50.3964 27.1495C50.3924 27.149 50.3866 27.133 50.3876 27.1249C50.3915 27.0906 50.3725 27.0712 50.3532 27.0449C50.3218 27.0023 50.2826 26.9626 50.2657 26.9104C50.2507 26.8638 50.2447 26.8132 50.1882 26.7924C50.1801 26.7894 50.1787 26.7643 50.1769 26.7492C50.1705 26.6958 50.1192 26.6546 50.1349 26.595C50.1359 26.5911 50.1292 26.5823 50.1242 26.5802C50.0649 26.5548 50.0803 26.5057 50.0844 26.4596C50.0856 26.4459 50.0882 26.4287 50.0816 26.4185C50.0575 26.3807 50.0643 26.3394 50.061 26.2986C50.056 26.2394 50.0475 26.1805 50.0406 26.1215C49.9785 26.0817 50.0064 26.0194 50.0053 25.9667C50.0019 25.8171 50.0026 25.6672 50.0048 25.5175C50.0057 25.4594 49.9849 25.3954 50.0391 25.3471C50.0428 25.3439 50.0408 25.335 50.0423 25.3289C50.0509 25.2946 50.031 25.2592 50.0611 25.2226C50.078 25.2018 50.0625 25.1545 50.0615 25.1191C50.0604 25.081 50.0562 25.0407 50.0828 25.0099C50.1073 24.9815 50.0674 24.9557 50.0844 24.931C50.1005 24.9077 50.1233 24.8883 50.136 24.8636C50.1438 24.8482 50.1331 24.8242 50.1394 24.8073C50.1543 24.7678 50.1647 24.7131 50.1947 24.6965C50.2305 24.6765 50.2426 24.654 50.2537 24.6215C50.2647 24.589 50.2781 24.5572 50.2921 24.526C50.2965 24.516 50.3049 24.5064 50.3139 24.5002C50.3638 24.466 50.3635 24.4662 50.3885 24.4084C50.3928 24.3983 50.4037 24.391 50.4114 24.3823C50.4465 24.3431 50.4825 24.3046 50.5161 24.2641C50.5274 24.2504 50.5382 24.2319 50.539 24.2151C50.5407 24.1815 50.5538 24.1621 50.5858 24.1522C50.6006 24.1477 50.6165 24.1402 50.6268 24.1293C50.6673 24.0868 50.705 24.0416 50.7452 23.9988C50.7801 23.9617 50.8157 23.925 50.8533 23.8906C50.8914 23.8557 50.9295 23.8225 50.9783 23.7988C51.02 23.7784 51.0501 23.7346 51.0859 23.7017C51.09 23.698 51.0975 23.6967 51.1035 23.6966C51.1644 23.6954 51.1809 23.6468 51.2043 23.6017C51.237 23.5955 51.272 23.6062 51.3027 23.567C51.3281 23.5344 51.3863 23.5297 51.4213 23.5018C51.4679 23.4647 51.5258 23.4634 51.5758 23.4382C51.638 23.407 51.6947 23.3627 51.7656 23.3498C51.7712 23.3488 51.7783 23.3447 51.7809 23.34C51.8069 23.2931 51.8513 23.293 51.896 23.2944C51.9414 23.2959 51.9812 23.2788 52.0205 23.2591C52.0368 23.251 52.0534 23.2401 52.0707 23.2378C52.1327 23.2293 52.1953 23.2249 52.2574 23.2169C52.2752 23.2146 52.2975 23.2108 52.3085 23.199C52.3725 23.1306 52.4511 23.1118 52.5405 23.1216C52.5595 23.1236 52.5791 23.1239 52.5978 23.1209C52.6081 23.1193 52.617 23.1093 52.6265 23.1031V23.103Z" fill="#0000FF"/>
<path d="M58.9998 27.2524C58.9344 27.3302 58.8497 27.3503 58.7506 27.3496C58.3367 27.3466 57.9229 27.3491 57.509 27.3474C57.4468 27.3472 57.3837 27.3398 57.3227 27.3272C57.2779 27.3178 57.2449 27.2846 57.2396 27.236C57.2368 27.2097 57.2307 27.1966 57.2025 27.1923C57.1915 27.1907 57.1774 27.1722 57.175 27.1595C57.1679 27.1228 57.1662 27.0852 57.1622 27.048C57.1577 27.0059 57.1891 26.9886 57.2152 26.9652C57.2374 26.9452 57.2533 26.9182 57.274 26.8918C57.6016 26.8494 57.935 26.877 58.2675 26.8702C58.4075 26.8673 58.5477 26.8675 58.6877 26.8706C58.7691 26.8724 58.8507 26.8802 58.9315 26.8906C58.9554 26.8937 58.9771 26.9146 58.9999 26.9273V27.2524L58.9998 27.2524Z" fill="#0000FF"/>
<path d="M57.2424 26.4781C57.2356 26.448 57.2455 26.4192 57.2076 26.4034C57.1701 26.3877 57.1566 26.3508 57.1617 26.3078C57.165 26.2795 57.1633 26.2505 57.1621 26.2219C57.1604 26.1845 57.172 26.1627 57.2066 26.138C57.2579 26.1013 57.2949 26.0449 57.3396 25.9985C57.4049 25.9306 57.4716 25.864 57.5378 25.797C57.5592 25.7753 57.5798 25.7524 57.6029 25.7325C57.6239 25.7145 57.6477 25.6998 57.6706 25.6843C57.6755 25.681 57.6871 25.6813 57.6875 25.6788C57.6968 25.6186 57.7557 25.6013 57.7868 25.5614C57.8513 25.4786 57.932 25.4135 58.0053 25.3405C58.0208 25.325 58.0435 25.3145 58.0542 25.2966C58.1115 25.2017 58.2055 25.1492 58.3018 25.1195C58.3897 25.0924 58.494 25.0904 58.58 25.1345C58.6288 25.1596 58.6888 25.2006 58.6749 25.2786C58.6721 25.294 58.6715 25.3111 58.675 25.3262C58.6935 25.4049 58.6485 25.4576 58.5964 25.5013C58.5377 25.5506 58.4839 25.6034 58.4334 25.6609C58.4076 25.6903 58.3753 25.715 58.3431 25.7379C58.3072 25.7635 58.2773 25.791 58.2528 25.83C58.2244 25.8752 58.1808 25.9113 58.1427 25.9501C58.0611 26.0332 57.9824 26.1195 57.8952 26.1963C57.8514 26.2348 57.8093 26.275 57.7677 26.3155C57.7243 26.3578 57.6906 26.4104 57.6455 26.4505C57.6162 26.4766 57.5745 26.5024 57.5376 26.5036C57.4409 26.5068 57.3412 26.5247 57.2423 26.478L57.2424 26.4781Z" fill="#0000FF"/>
<path d="M57.5877 27.73C57.6098 27.7516 57.6086 27.779 57.6362 27.7986C57.6914 27.8378 57.758 27.8726 57.7786 27.9475C57.78 27.9523 57.7874 27.9568 57.7929 27.9586C57.8566 27.9794 57.8848 28.0378 57.9272 28.0818C57.9767 28.1331 58.0338 28.1772 58.0832 28.2285C58.1638 28.3121 58.2559 28.3851 58.3171 28.4869C58.3305 28.5093 58.3602 28.5218 58.382 28.5393C58.4035 28.5565 58.4246 28.5742 58.4458 28.5918C58.4526 28.5974 58.4598 28.6085 58.466 28.6079C58.528 28.6024 58.5527 28.6542 58.5879 28.6878C58.6024 28.7016 58.6082 28.7246 58.6169 28.744C58.6218 28.755 58.6218 28.7752 58.6285 28.7774C58.6894 28.797 58.6736 28.8468 58.6741 28.889C58.6755 28.9938 58.6523 29.0322 58.559 29.0902C58.5495 29.0961 58.5432 29.1079 58.5368 29.1178C58.5233 29.1385 58.5051 29.1467 58.4804 29.1458C58.4454 29.1444 58.4103 29.1455 58.3753 29.1454C58.2677 29.1454 58.2685 29.1349 58.1915 29.0509C58.1423 28.9971 58.0959 28.9395 58.0427 28.8894C57.9685 28.8197 57.8887 28.7559 57.8155 28.6853C57.7893 28.66 57.765 28.6326 57.7377 28.6077C57.7084 28.5811 57.688 28.5452 57.6605 28.5165C57.6003 28.4537 57.5462 28.3844 57.4684 28.3398C57.4484 28.3283 57.4337 28.3046 57.4213 28.2837C57.4051 28.2562 57.3946 28.2263 57.3545 28.2252C57.3466 28.2249 57.3374 28.2094 57.332 28.1993C57.3037 28.1467 57.2604 28.1089 57.2142 28.0727C57.1978 28.0598 57.1822 28.0408 57.1757 28.0215C57.1523 27.9512 57.1565 27.8788 57.1726 27.8077C57.1768 27.7888 57.1862 27.7665 57.217 27.7677C57.2594 27.7693 57.2812 27.7141 57.3336 27.7281C57.3723 27.7384 57.4159 27.7301 57.4573 27.7301C57.5017 27.7301 57.5461 27.7301 57.5878 27.7301L57.5877 27.73Z" fill="#0000FF"/>
<path d="M66.0472 34.0107C65.8485 33.6532 65.5704 33.378 65.2141 33.1873C64.8616 32.9965 64.4972 32.9 64.1221 32.9C63.749 32.9 63.3856 32.9966 63.0331 33.1873C62.6769 33.378 62.3978 33.6532 62.1972 34.0106L62.1971 34.0108C61.9996 34.3641 61.9 34.735 61.9 35.1221C61.9 35.5072 61.9986 35.876 62.194 36.2273C62.3905 36.5807 62.6652 36.8565 63.0167 37.0532L63.0173 37.0535C63.3686 37.2468 63.7373 37.3443 64.1221 37.3443C64.507 37.3443 64.8757 37.2468 65.2269 37.0535L65.2273 37.0533C65.5809 36.8567 65.8567 36.5809 66.0533 36.2273C66.2487 35.876 66.3473 35.5072 66.3473 35.1221C66.3473 34.7349 66.2466 34.364 66.0472 34.0107ZM66.0472 34.0107C66.0472 34.0108 66.0473 34.0109 66.0474 34.011L65.9599 34.0596L66.047 34.0104C66.0471 34.0105 66.0471 34.0106 66.0472 34.0107ZM64.9956 36.645L64.9953 36.6451C64.7162 36.8008 64.4256 36.8779 64.1221 36.8779C63.8208 36.8779 63.5301 36.8009 63.2487 36.645C62.9697 36.4904 62.7537 36.2753 62.5992 35.9984C62.4434 35.7172 62.3664 35.4255 62.3664 35.1221C62.3664 34.819 62.4443 34.5263 62.6021 34.243C62.7607 33.9599 62.9785 33.7443 63.2567 33.5939C63.5407 33.4414 63.8288 33.3664 64.1221 33.3664C64.4176 33.3664 64.7057 33.4415 64.9875 33.5938L64.9877 33.5939C65.0689 33.6375 65.1448 33.6865 65.2154 33.7411H65.1248H65.0111H64.9216L64.9117 33.83C64.907 33.8723 64.8963 33.8835 64.8954 33.8843L64.8953 33.8843L64.8925 33.8871C64.8885 33.8911 64.8846 33.8937 64.8734 33.8937C64.8735 33.8937 64.8728 33.8937 64.8713 33.8936L64.8651 33.8928C64.8597 33.8919 64.8525 33.8904 64.8433 33.888C64.8248 33.8832 64.8008 33.8754 64.7709 33.8642L64.7709 33.8642L64.7696 33.8637C64.541 33.7813 64.3327 33.7381 64.1461 33.7381C63.7429 33.7381 63.4026 33.8707 63.1328 34.1382C62.8628 34.4061 62.7291 34.7468 62.7291 35.1521C62.7291 35.5349 62.8535 35.855 63.1062 36.1034L63.1068 36.104C63.3619 36.3503 63.6925 36.4703 64.0892 36.4703C64.506 36.4703 64.8507 36.3349 65.1134 36.0591L65.141 36.0302V35.9902V35.7806V35.5007L64.9637 35.7173C64.7529 35.9747 64.519 36.0937 64.2598 36.0937C64.0753 36.0937 63.9221 36.022 63.7945 35.8718C63.6741 35.7278 63.6026 35.4704 63.6026 35.0743C63.6026 34.7064 63.6752 34.4599 63.8002 34.3129L63.8006 34.3125C63.9302 34.1583 64.0863 34.0847 64.2748 34.0847C64.433 34.0847 64.5673 34.1344 64.6823 34.234L64.6823 34.234L64.6835 34.235C64.799 34.3318 64.8768 34.4678 64.913 34.6507L64.929 34.7313H65.0111H65.1248H65.2248V34.6313V33.8411V33.7484C65.394 33.8809 65.5328 34.0455 65.642 34.2427L65.6421 34.2429C65.7999 34.5263 65.8779 34.8189 65.8779 35.1221C65.8779 35.4255 65.8009 35.7172 65.6451 35.9984C65.4906 36.2753 65.2746 36.4904 64.9956 36.645ZM64.7477 34.1583C64.614 34.0426 64.4564 33.9847 64.2748 33.9847C64.0553 33.9847 63.8717 34.0725 63.7241 34.2481L64.7477 34.1583Z" fill="#0000FF" stroke="#0000FF" stroke-width="0.2"/>
</svg>
