<svg width="88" height="88" viewBox="0 0 88 88" fill="none" xmlns="http://www.w3.org/2000/svg">
<circle cx="44" cy="44" r="43" stroke="#0000FF"/>
<path d="M66.0472 30.0107C65.8485 29.6532 65.5704 29.378 65.2141 29.1873C64.8616 28.9965 64.4972 28.9 64.1221 28.9C63.749 28.9 63.3856 28.9966 63.0331 29.1873C62.6769 29.378 62.3978 29.6532 62.1972 30.0106L62.1971 30.0108C61.9996 30.3641 61.9 30.735 61.9 31.1221C61.9 31.5072 61.9986 31.876 62.194 32.2273C62.3905 32.5807 62.6652 32.8565 63.0167 33.0532L63.0173 33.0535C63.3686 33.2468 63.7373 33.3443 64.1221 33.3443C64.507 33.3443 64.8757 33.2468 65.2269 33.0535L65.2273 33.0533C65.5809 32.8567 65.8567 32.5809 66.0533 32.2273C66.2487 31.876 66.3473 31.5072 66.3473 31.1221C66.3473 30.7349 66.2466 30.364 66.0472 30.0107ZM66.0472 30.0107C66.0472 30.0108 66.0473 30.0109 66.0474 30.011L65.9599 30.0596L66.047 30.0104C66.0471 30.0105 66.0471 30.0106 66.0472 30.0107ZM64.9956 32.645L64.9953 32.6451C64.7162 32.8008 64.4256 32.8779 64.1221 32.8779C63.8208 32.8779 63.5301 32.8009 63.2487 32.645C62.9697 32.4904 62.7537 32.2753 62.5992 31.9984C62.4434 31.7172 62.3664 31.4255 62.3664 31.1221C62.3664 30.819 62.4443 30.5263 62.6021 30.243C62.7607 29.9599 62.9785 29.7443 63.2567 29.5939C63.5407 29.4414 63.8288 29.3664 64.1221 29.3664C64.4176 29.3664 64.7057 29.4415 64.9875 29.5938L64.9877 29.5939C65.0689 29.6375 65.1448 29.6865 65.2154 29.7411H65.1248H65.0111H64.9216L64.9117 29.83C64.907 29.8723 64.8963 29.8835 64.8954 29.8843L64.8953 29.8843L64.8925 29.8871C64.8885 29.8911 64.8846 29.8937 64.8734 29.8937C64.8735 29.8937 64.8728 29.8937 64.8713 29.8936L64.8651 29.8928C64.8597 29.8919 64.8525 29.8904 64.8433 29.888C64.8248 29.8832 64.8008 29.8754 64.7709 29.8642L64.7709 29.8642L64.7696 29.8637C64.541 29.7813 64.3327 29.7381 64.1461 29.7381C63.7429 29.7381 63.4026 29.8707 63.1328 30.1382C62.8628 30.4061 62.7291 30.7468 62.7291 31.1521C62.7291 31.5349 62.8535 31.855 63.1062 32.1034L63.1068 32.104C63.3619 32.3503 63.6925 32.4703 64.0892 32.4703C64.506 32.4703 64.8507 32.3349 65.1134 32.0591L65.141 32.0302V31.9902V31.7806V31.5007L64.9637 31.7173C64.7529 31.9747 64.519 32.0937 64.2598 32.0937C64.0753 32.0937 63.9221 32.022 63.7945 31.8718C63.6741 31.7278 63.6026 31.4704 63.6026 31.0743C63.6026 30.7064 63.6752 30.4599 63.8002 30.3129L63.8006 30.3125C63.9302 30.1583 64.0863 30.0847 64.2748 30.0847C64.433 30.0847 64.5673 30.1344 64.6823 30.234L64.6823 30.234L64.6835 30.235C64.799 30.3318 64.8768 30.4678 64.913 30.6507L64.929 30.7313H65.0111H65.1248H65.2248V30.6313V29.8411V29.7484C65.394 29.8809 65.5328 30.0455 65.642 30.2427L65.6421 30.2429C65.7999 30.5263 65.8779 30.8189 65.8779 31.1221C65.8779 31.4255 65.8009 31.7172 65.6451 31.9984C65.4906 32.2753 65.2746 32.4904 64.9956 32.645ZM64.7477 30.1583C64.614 30.0426 64.4564 29.9847 64.2748 29.9847C64.0553 29.9847 63.8717 30.0725 63.7241 30.2481L64.7477 30.1583Z" fill="#0000FF" stroke="#0000FF" stroke-width="0.2"/>
<mask id="path-3-outside-1_98_1020" maskUnits="userSpaceOnUse" x="17" y="41" width="54" height="12" fill="black">
<rect fill="white" x="17" y="41" width="54" height="12"/>
<path d="M21.7303 42.7659V46.7543H21.9251C22.5456 46.7543 22.9953 46.5592 23.2743 46.1691C23.5533 45.7789 23.7313 45.2033 23.8082 44.4422H24.0824V49.5723H23.8082C23.7505 49.0135 23.6279 48.5559 23.4403 48.1994C23.2575 47.843 23.0434 47.6045 22.7981 47.4841C22.5528 47.3589 22.1968 47.2962 21.7303 47.2962V50.0564C21.7303 50.5959 21.7519 50.9258 21.7952 51.0462C21.8433 51.1667 21.9299 51.2654 22.0549 51.3425C22.18 51.4196 22.382 51.4581 22.661 51.4581H23.2455C24.1594 51.4581 24.8905 51.2461 25.4389 50.8223C25.992 50.3984 26.3889 49.7529 26.6294 48.8858H26.8964L26.4562 52H18V51.7327H18.3247C18.6085 51.7327 18.837 51.6821 19.0101 51.5809C19.1352 51.5135 19.2314 51.3979 19.2987 51.2341C19.3516 51.1185 19.3781 50.815 19.3781 50.3237V43.8786C19.3781 43.4355 19.3661 43.1633 19.342 43.0621C19.2939 42.8935 19.2049 42.7635 19.0751 42.672C18.8923 42.5371 18.6422 42.4697 18.3247 42.4697H18V42.2023H26.1893V45.0997H25.9151C25.7756 44.3916 25.5784 43.8834 25.3234 43.5751C25.0733 43.2669 24.7174 43.0405 24.2556 42.896C23.9862 42.8092 23.4812 42.7659 22.7404 42.7659H21.7303Z"/>
<path d="M33.7075 49.211H30.2514L29.8402 50.1647C29.7055 50.4827 29.6381 50.7452 29.6381 50.9523C29.6381 51.2269 29.7488 51.4292 29.97 51.5592C30.0999 51.6363 30.4198 51.6941 30.9297 51.7327V52H27.6756V51.7327C28.0267 51.6797 28.3153 51.5352 28.5414 51.2991C28.7675 51.0583 29.0465 50.5645 29.3784 49.8179L32.8778 42H33.0148L36.5431 50.0347C36.8798 50.7958 37.1564 51.275 37.3728 51.4725C37.5364 51.6219 37.7673 51.7086 38.0655 51.7327V52H33.3323V51.7327H33.5271C33.9071 51.7327 34.1741 51.6797 34.328 51.5737C34.4338 51.4966 34.4867 51.3858 34.4867 51.2413C34.4867 51.1546 34.4723 51.0655 34.4435 50.974C34.4338 50.9306 34.3617 50.75 34.227 50.4321L33.7075 49.211ZM33.4622 48.6763L32.0047 45.302L30.504 48.6763H33.4622Z"/>
<path d="M42.1637 47.5347V50.2803C42.1637 50.8102 42.195 51.145 42.2575 51.2847C42.3249 51.4196 42.4403 51.5279 42.6039 51.6098C42.7674 51.6917 43.0728 51.7327 43.5202 51.7327V52H38.5128V51.7327C38.965 51.7327 39.2704 51.6917 39.4292 51.6098C39.5927 51.5231 39.7057 51.4123 39.7683 51.2775C39.8356 51.1426 39.8693 50.8102 39.8693 50.2803V43.922C39.8693 43.3921 39.8356 43.0597 39.7683 42.9249C39.7057 42.7852 39.5927 42.6744 39.4292 42.5925C39.2656 42.5106 38.9602 42.4697 38.5128 42.4697V42.2023H43.0584C44.2417 42.2023 45.1075 42.2842 45.6559 42.448C46.2042 42.6118 46.6516 42.9152 46.9979 43.3584C47.3442 43.7967 47.5174 44.3121 47.5174 44.9046C47.5174 45.6272 47.2577 46.2245 46.7382 46.6965C46.4063 46.9952 45.9421 47.2192 45.3456 47.3685L47.6978 50.685C48.0056 51.1137 48.2245 51.381 48.3544 51.487C48.5516 51.6363 48.7801 51.7182 49.0398 51.7327V52H45.9589L42.8059 47.5347H42.1637ZM42.1637 42.7298V47.0217H42.575C43.2436 47.0217 43.7439 46.9615 44.0758 46.841C44.4077 46.7158 44.6674 46.4942 44.855 46.1763C45.0474 45.8536 45.1436 45.4345 45.1436 44.9191C45.1436 44.1724 44.968 43.6209 44.6169 43.2645C44.2706 42.908 43.7102 42.7298 42.9358 42.7298H42.1637Z"/>
<path d="M58.2392 42.2023V44.854H57.9795C57.8255 44.2423 57.6548 43.8039 57.4672 43.539C57.2796 43.2693 57.0222 43.0549 56.6952 42.896C56.5124 42.8092 56.1925 42.7659 55.7355 42.7659H55.0068V50.3237C55.0068 50.8247 55.0333 51.1378 55.0862 51.263C55.1439 51.3882 55.2521 51.499 55.4109 51.5954C55.5744 51.6869 55.7957 51.7327 56.0747 51.7327H56.3993V52H51.2765V51.7327H51.6012C51.885 51.7327 52.1135 51.6821 52.2867 51.5809C52.4117 51.5135 52.5103 51.3979 52.5825 51.2341C52.6354 51.1185 52.6619 50.815 52.6619 50.3237V42.7659H51.9548C51.2958 42.7659 50.8172 42.9056 50.5189 43.185C50.1005 43.5751 49.8359 44.1315 49.7253 44.854H49.4511V42.2023H58.2392Z"/>
<path d="M62.8137 47.289V50.3237C62.8137 50.8247 62.8401 51.1378 62.893 51.263C62.9507 51.3882 63.059 51.499 63.2177 51.5954C63.3812 51.6869 63.6001 51.7327 63.8743 51.7327H64.199V52H59.0834V51.7327H59.4081C59.6919 51.7327 59.9204 51.6821 60.0935 51.5809C60.2186 51.5135 60.3148 51.3979 60.3821 51.2341C60.435 51.1185 60.4615 50.815 60.4615 50.3237V43.8786C60.4615 43.3776 60.435 43.0645 60.3821 42.9393C60.3292 42.8141 60.221 42.7057 60.0574 42.6142C59.8987 42.5178 59.6823 42.4697 59.4081 42.4697H59.0834V42.2023H64.199V42.4697H63.8743C63.5905 42.4697 63.362 42.5202 63.1888 42.6214C63.0638 42.6888 62.9652 42.8044 62.893 42.9682C62.8401 43.0838 62.8137 43.3873 62.8137 43.8786V46.6532H66.2697V43.8786C66.2697 43.3776 66.2433 43.0645 66.1904 42.9393C66.1375 42.8141 66.0292 42.7057 65.8657 42.6142C65.7021 42.5178 65.4833 42.4697 65.2091 42.4697H64.8916V42.2023H70V42.4697H69.6825C69.3939 42.4697 69.1654 42.5202 68.9971 42.6214C68.872 42.6888 68.7734 42.8044 68.7013 42.9682C68.6484 43.0838 68.6219 43.3873 68.6219 43.8786V50.3237C68.6219 50.8247 68.6484 51.1378 68.7013 51.263C68.7542 51.3882 68.8624 51.499 69.0259 51.5954C69.1895 51.6869 69.4084 51.7327 69.6825 51.7327H70V52H64.8916V51.7327H65.2091C65.4977 51.7327 65.7262 51.6821 65.8945 51.5809C66.0196 51.5135 66.1182 51.3979 66.1904 51.2341C66.2433 51.1185 66.2697 50.815 66.2697 50.3237V47.289H62.8137Z"/>
</mask>
<path d="M21.7303 42.7659V46.7543H21.9251C22.5456 46.7543 22.9953 46.5592 23.2743 46.1691C23.5533 45.7789 23.7313 45.2033 23.8082 44.4422H24.0824V49.5723H23.8082C23.7505 49.0135 23.6279 48.5559 23.4403 48.1994C23.2575 47.843 23.0434 47.6045 22.7981 47.4841C22.5528 47.3589 22.1968 47.2962 21.7303 47.2962V50.0564C21.7303 50.5959 21.7519 50.9258 21.7952 51.0462C21.8433 51.1667 21.9299 51.2654 22.0549 51.3425C22.18 51.4196 22.382 51.4581 22.661 51.4581H23.2455C24.1594 51.4581 24.8905 51.2461 25.4389 50.8223C25.992 50.3984 26.3889 49.7529 26.6294 48.8858H26.8964L26.4562 52H18V51.7327H18.3247C18.6085 51.7327 18.837 51.6821 19.0101 51.5809C19.1352 51.5135 19.2314 51.3979 19.2987 51.2341C19.3516 51.1185 19.3781 50.815 19.3781 50.3237V43.8786C19.3781 43.4355 19.3661 43.1633 19.342 43.0621C19.2939 42.8935 19.2049 42.7635 19.0751 42.672C18.8923 42.5371 18.6422 42.4697 18.3247 42.4697H18V42.2023H26.1893V45.0997H25.9151C25.7756 44.3916 25.5784 43.8834 25.3234 43.5751C25.0733 43.2669 24.7174 43.0405 24.2556 42.896C23.9862 42.8092 23.4812 42.7659 22.7404 42.7659H21.7303Z" fill="#0000FF"/>
<path d="M33.7075 49.211H30.2514L29.8402 50.1647C29.7055 50.4827 29.6381 50.7452 29.6381 50.9523C29.6381 51.2269 29.7488 51.4292 29.97 51.5592C30.0999 51.6363 30.4198 51.6941 30.9297 51.7327V52H27.6756V51.7327C28.0267 51.6797 28.3153 51.5352 28.5414 51.2991C28.7675 51.0583 29.0465 50.5645 29.3784 49.8179L32.8778 42H33.0148L36.5431 50.0347C36.8798 50.7958 37.1564 51.275 37.3728 51.4725C37.5364 51.6219 37.7673 51.7086 38.0655 51.7327V52H33.3323V51.7327H33.5271C33.9071 51.7327 34.1741 51.6797 34.328 51.5737C34.4338 51.4966 34.4867 51.3858 34.4867 51.2413C34.4867 51.1546 34.4723 51.0655 34.4435 50.974C34.4338 50.9306 34.3617 50.75 34.227 50.4321L33.7075 49.211ZM33.4622 48.6763L32.0047 45.302L30.504 48.6763H33.4622Z" fill="#0000FF"/>
<path d="M42.1637 47.5347V50.2803C42.1637 50.8102 42.195 51.145 42.2575 51.2847C42.3249 51.4196 42.4403 51.5279 42.6039 51.6098C42.7674 51.6917 43.0728 51.7327 43.5202 51.7327V52H38.5128V51.7327C38.965 51.7327 39.2704 51.6917 39.4292 51.6098C39.5927 51.5231 39.7057 51.4123 39.7683 51.2775C39.8356 51.1426 39.8693 50.8102 39.8693 50.2803V43.922C39.8693 43.3921 39.8356 43.0597 39.7683 42.9249C39.7057 42.7852 39.5927 42.6744 39.4292 42.5925C39.2656 42.5106 38.9602 42.4697 38.5128 42.4697V42.2023H43.0584C44.2417 42.2023 45.1075 42.2842 45.6559 42.448C46.2042 42.6118 46.6516 42.9152 46.9979 43.3584C47.3442 43.7967 47.5174 44.3121 47.5174 44.9046C47.5174 45.6272 47.2577 46.2245 46.7382 46.6965C46.4063 46.9952 45.9421 47.2192 45.3456 47.3685L47.6978 50.685C48.0056 51.1137 48.2245 51.381 48.3544 51.487C48.5516 51.6363 48.7801 51.7182 49.0398 51.7327V52H45.9589L42.8059 47.5347H42.1637ZM42.1637 42.7298V47.0217H42.575C43.2436 47.0217 43.7439 46.9615 44.0758 46.841C44.4077 46.7158 44.6674 46.4942 44.855 46.1763C45.0474 45.8536 45.1436 45.4345 45.1436 44.9191C45.1436 44.1724 44.968 43.6209 44.6169 43.2645C44.2706 42.908 43.7102 42.7298 42.9358 42.7298H42.1637Z" fill="#0000FF"/>
<path d="M58.2392 42.2023V44.854H57.9795C57.8255 44.2423 57.6548 43.8039 57.4672 43.539C57.2796 43.2693 57.0222 43.0549 56.6952 42.896C56.5124 42.8092 56.1925 42.7659 55.7355 42.7659H55.0068V50.3237C55.0068 50.8247 55.0333 51.1378 55.0862 51.263C55.1439 51.3882 55.2521 51.499 55.4109 51.5954C55.5744 51.6869 55.7957 51.7327 56.0747 51.7327H56.3993V52H51.2765V51.7327H51.6012C51.885 51.7327 52.1135 51.6821 52.2867 51.5809C52.4117 51.5135 52.5103 51.3979 52.5825 51.2341C52.6354 51.1185 52.6619 50.815 52.6619 50.3237V42.7659H51.9548C51.2958 42.7659 50.8172 42.9056 50.5189 43.185C50.1005 43.5751 49.8359 44.1315 49.7253 44.854H49.4511V42.2023H58.2392Z" fill="#0000FF"/>
<path d="M62.8137 47.289V50.3237C62.8137 50.8247 62.8401 51.1378 62.893 51.263C62.9507 51.3882 63.059 51.499 63.2177 51.5954C63.3812 51.6869 63.6001 51.7327 63.8743 51.7327H64.199V52H59.0834V51.7327H59.4081C59.6919 51.7327 59.9204 51.6821 60.0935 51.5809C60.2186 51.5135 60.3148 51.3979 60.3821 51.2341C60.435 51.1185 60.4615 50.815 60.4615 50.3237V43.8786C60.4615 43.3776 60.435 43.0645 60.3821 42.9393C60.3292 42.8141 60.221 42.7057 60.0574 42.6142C59.8987 42.5178 59.6823 42.4697 59.4081 42.4697H59.0834V42.2023H64.199V42.4697H63.8743C63.5905 42.4697 63.362 42.5202 63.1888 42.6214C63.0638 42.6888 62.9652 42.8044 62.893 42.9682C62.8401 43.0838 62.8137 43.3873 62.8137 43.8786V46.6532H66.2697V43.8786C66.2697 43.3776 66.2433 43.0645 66.1904 42.9393C66.1375 42.8141 66.0292 42.7057 65.8657 42.6142C65.7021 42.5178 65.4833 42.4697 65.2091 42.4697H64.8916V42.2023H70V42.4697H69.6825C69.3939 42.4697 69.1654 42.5202 68.9971 42.6214C68.872 42.6888 68.7734 42.8044 68.7013 42.9682C68.6484 43.0838 68.6219 43.3873 68.6219 43.8786V50.3237C68.6219 50.8247 68.6484 51.1378 68.7013 51.263C68.7542 51.3882 68.8624 51.499 69.0259 51.5954C69.1895 51.6869 69.4084 51.7327 69.6825 51.7327H70V52H64.8916V51.7327H65.2091C65.4977 51.7327 65.7262 51.6821 65.8945 51.5809C66.0196 51.5135 66.1182 51.3979 66.1904 51.2341C66.2433 51.1185 66.2697 50.815 66.2697 50.3237V47.289H62.8137Z" fill="#0000FF"/>
<path d="M21.7303 42.7659V46.7543H21.9251C22.5456 46.7543 22.9953 46.5592 23.2743 46.1691C23.5533 45.7789 23.7313 45.2033 23.8082 44.4422H24.0824V49.5723H23.8082C23.7505 49.0135 23.6279 48.5559 23.4403 48.1994C23.2575 47.843 23.0434 47.6045 22.7981 47.4841C22.5528 47.3589 22.1968 47.2962 21.7303 47.2962V50.0564C21.7303 50.5959 21.7519 50.9258 21.7952 51.0462C21.8433 51.1667 21.9299 51.2654 22.0549 51.3425C22.18 51.4196 22.382 51.4581 22.661 51.4581H23.2455C24.1594 51.4581 24.8905 51.2461 25.4389 50.8223C25.992 50.3984 26.3889 49.7529 26.6294 48.8858H26.8964L26.4562 52H18V51.7327H18.3247C18.6085 51.7327 18.837 51.6821 19.0101 51.5809C19.1352 51.5135 19.2314 51.3979 19.2987 51.2341C19.3516 51.1185 19.3781 50.815 19.3781 50.3237V43.8786C19.3781 43.4355 19.3661 43.1633 19.342 43.0621C19.2939 42.8935 19.2049 42.7635 19.0751 42.672C18.8923 42.5371 18.6422 42.4697 18.3247 42.4697H18V42.2023H26.1893V45.0997H25.9151C25.7756 44.3916 25.5784 43.8834 25.3234 43.5751C25.0733 43.2669 24.7174 43.0405 24.2556 42.896C23.9862 42.8092 23.4812 42.7659 22.7404 42.7659H21.7303Z" stroke="#0000FF" stroke-width="0.672665" mask="url(#path-3-outside-1_98_1020)"/>
<path d="M33.7075 49.211H30.2514L29.8402 50.1647C29.7055 50.4827 29.6381 50.7452 29.6381 50.9523C29.6381 51.2269 29.7488 51.4292 29.97 51.5592C30.0999 51.6363 30.4198 51.6941 30.9297 51.7327V52H27.6756V51.7327C28.0267 51.6797 28.3153 51.5352 28.5414 51.2991C28.7675 51.0583 29.0465 50.5645 29.3784 49.8179L32.8778 42H33.0148L36.5431 50.0347C36.8798 50.7958 37.1564 51.275 37.3728 51.4725C37.5364 51.6219 37.7673 51.7086 38.0655 51.7327V52H33.3323V51.7327H33.5271C33.9071 51.7327 34.1741 51.6797 34.328 51.5737C34.4338 51.4966 34.4867 51.3858 34.4867 51.2413C34.4867 51.1546 34.4723 51.0655 34.4435 50.974C34.4338 50.9306 34.3617 50.75 34.227 50.4321L33.7075 49.211ZM33.4622 48.6763L32.0047 45.302L30.504 48.6763H33.4622Z" stroke="#0000FF" stroke-width="0.672665" mask="url(#path-3-outside-1_98_1020)"/>
<path d="M42.1637 47.5347V50.2803C42.1637 50.8102 42.195 51.145 42.2575 51.2847C42.3249 51.4196 42.4403 51.5279 42.6039 51.6098C42.7674 51.6917 43.0728 51.7327 43.5202 51.7327V52H38.5128V51.7327C38.965 51.7327 39.2704 51.6917 39.4292 51.6098C39.5927 51.5231 39.7057 51.4123 39.7683 51.2775C39.8356 51.1426 39.8693 50.8102 39.8693 50.2803V43.922C39.8693 43.3921 39.8356 43.0597 39.7683 42.9249C39.7057 42.7852 39.5927 42.6744 39.4292 42.5925C39.2656 42.5106 38.9602 42.4697 38.5128 42.4697V42.2023H43.0584C44.2417 42.2023 45.1075 42.2842 45.6559 42.448C46.2042 42.6118 46.6516 42.9152 46.9979 43.3584C47.3442 43.7967 47.5174 44.3121 47.5174 44.9046C47.5174 45.6272 47.2577 46.2245 46.7382 46.6965C46.4063 46.9952 45.9421 47.2192 45.3456 47.3685L47.6978 50.685C48.0056 51.1137 48.2245 51.381 48.3544 51.487C48.5516 51.6363 48.7801 51.7182 49.0398 51.7327V52H45.9589L42.8059 47.5347H42.1637ZM42.1637 42.7298V47.0217H42.575C43.2436 47.0217 43.7439 46.9615 44.0758 46.841C44.4077 46.7158 44.6674 46.4942 44.855 46.1763C45.0474 45.8536 45.1436 45.4345 45.1436 44.9191C45.1436 44.1724 44.968 43.6209 44.6169 43.2645C44.2706 42.908 43.7102 42.7298 42.9358 42.7298H42.1637Z" stroke="#0000FF" stroke-width="0.672665" mask="url(#path-3-outside-1_98_1020)"/>
<path d="M58.2392 42.2023V44.854H57.9795C57.8255 44.2423 57.6548 43.8039 57.4672 43.539C57.2796 43.2693 57.0222 43.0549 56.6952 42.896C56.5124 42.8092 56.1925 42.7659 55.7355 42.7659H55.0068V50.3237C55.0068 50.8247 55.0333 51.1378 55.0862 51.263C55.1439 51.3882 55.2521 51.499 55.4109 51.5954C55.5744 51.6869 55.7957 51.7327 56.0747 51.7327H56.3993V52H51.2765V51.7327H51.6012C51.885 51.7327 52.1135 51.6821 52.2867 51.5809C52.4117 51.5135 52.5103 51.3979 52.5825 51.2341C52.6354 51.1185 52.6619 50.815 52.6619 50.3237V42.7659H51.9548C51.2958 42.7659 50.8172 42.9056 50.5189 43.185C50.1005 43.5751 49.8359 44.1315 49.7253 44.854H49.4511V42.2023H58.2392Z" stroke="#0000FF" stroke-width="0.672665" mask="url(#path-3-outside-1_98_1020)"/>
<path d="M62.8137 47.289V50.3237C62.8137 50.8247 62.8401 51.1378 62.893 51.263C62.9507 51.3882 63.059 51.499 63.2177 51.5954C63.3812 51.6869 63.6001 51.7327 63.8743 51.7327H64.199V52H59.0834V51.7327H59.4081C59.6919 51.7327 59.9204 51.6821 60.0935 51.5809C60.2186 51.5135 60.3148 51.3979 60.3821 51.2341C60.435 51.1185 60.4615 50.815 60.4615 50.3237V43.8786C60.4615 43.3776 60.435 43.0645 60.3821 42.9393C60.3292 42.8141 60.221 42.7057 60.0574 42.6142C59.8987 42.5178 59.6823 42.4697 59.4081 42.4697H59.0834V42.2023H64.199V42.4697H63.8743C63.5905 42.4697 63.362 42.5202 63.1888 42.6214C63.0638 42.6888 62.9652 42.8044 62.893 42.9682C62.8401 43.0838 62.8137 43.3873 62.8137 43.8786V46.6532H66.2697V43.8786C66.2697 43.3776 66.2433 43.0645 66.1904 42.9393C66.1375 42.8141 66.0292 42.7057 65.8657 42.6142C65.7021 42.5178 65.4833 42.4697 65.2091 42.4697H64.8916V42.2023H70V42.4697H69.6825C69.3939 42.4697 69.1654 42.5202 68.9971 42.6214C68.872 42.6888 68.7734 42.8044 68.7013 42.9682C68.6484 43.0838 68.6219 43.3873 68.6219 43.8786V50.3237C68.6219 50.8247 68.6484 51.1378 68.7013 51.263C68.7542 51.3882 68.8624 51.499 69.0259 51.5954C69.1895 51.6869 69.4084 51.7327 69.6825 51.7327H70V52H64.8916V51.7327H65.2091C65.4977 51.7327 65.7262 51.6821 65.8945 51.5809C66.0196 51.5135 66.1182 51.3979 66.1904 51.2341C66.2433 51.1185 66.2697 50.815 66.2697 50.3237V47.289H62.8137Z" stroke="#0000FF" stroke-width="0.672665" mask="url(#path-3-outside-1_98_1020)"/>
<path d="M57.1014 38.5645V38.7327V39V39.1682H56.9332H50.6787H50.5105V39V38.7327V38.5645H50.6787C50.9596 38.5645 51.1915 38.5544 51.3757 38.5347C51.5618 38.5149 51.689 38.4864 51.767 38.4545C51.9527 38.3762 52.0591 38.2851 52.1129 38.1927L52.1157 38.188L52.1158 38.188C52.1373 38.1538 52.1659 38.0687 52.1867 37.9058C52.2066 37.7495 52.2171 37.5417 52.2171 37.2803V30.922C52.2171 30.6606 52.2066 30.4529 52.1867 30.2966C52.1659 30.1336 52.1373 30.0486 52.1158 30.0143L52.1115 30.0075L52.1116 30.0074C52.0579 29.9119 51.9529 29.8218 51.7693 29.7487C51.5972 29.6802 51.2433 29.6378 50.6787 29.6378H50.5105V29.4697V29.2023V29.0341H50.6787H56.0436C57.8179 29.0341 59.1276 29.284 59.939 29.8129C60.7431 30.337 61.1682 31.011 61.1682 31.8324C61.1682 32.5184 60.8979 33.1069 60.369 33.5895C59.8435 34.069 59.1281 34.3875 58.2359 34.5553M57.1014 38.5645L58.2351 34.5554C58.2354 34.5554 58.2356 34.5554 58.2359 34.5553M57.1014 38.5645H56.9332C56.3763 38.5645 56.0212 38.5224 55.8417 38.4533C55.6594 38.3806 55.5495 38.2924 55.4894 38.199C55.4679 38.1586 55.4419 38.0692 55.4231 37.9092C55.4045 37.7509 55.3947 37.542 55.3947 37.2803V34.7315M57.1014 38.5645L55.3947 34.7315M58.2359 34.5553C57.6557 34.6695 56.7054 34.727 55.3947 34.7315M58.2359 34.5553C58.2361 34.5553 58.2363 34.5552 58.2366 34.5552L55.3947 34.7315M39.2219 29.2023V29.0341H39.0537H35.2956H35.1274V29.2023V29.4697V29.6306L35.2882 29.6377C35.8386 29.6617 36.1788 29.7341 36.3453 29.8316L36.3453 29.8316L36.3491 29.8337C36.476 29.9036 36.4981 29.9654 36.4981 30.0116C36.4981 30.041 36.4888 30.0931 36.4577 30.1738C36.4274 30.2525 36.3802 30.349 36.314 30.4643C36.1815 30.6949 35.9798 30.9888 35.7065 31.3475L35.7057 31.3486L33.6314 34.1161L31.5399 31.0653L31.5394 31.0646C31.2987 30.7172 31.1207 30.4389 31.0036 30.228C30.945 30.1224 30.9033 30.0368 30.8767 29.9698C30.8486 29.899 30.8432 29.8633 30.8432 29.8526C30.8432 29.8516 30.8433 29.8497 30.8447 29.846C30.8463 29.842 30.85 29.8347 30.8584 29.8242C30.8759 29.8024 30.9093 29.7728 30.9677 29.7383C31.0725 29.6798 31.2846 29.6378 31.6373 29.6378H31.9005H32.0687V29.4697V29.2023V29.0341H31.9005H26H25.8318V29.2023V29.4697V29.6358L25.9979 29.6378C26.3723 29.6424 26.6531 29.7158 26.8542 29.843L26.8542 29.843L26.8563 29.8443C26.9486 29.9008 27.0938 30.0392 27.296 30.2818C27.4943 30.5197 27.7362 30.8439 28.0222 31.2561C28.0222 31.2561 28.0223 31.2562 28.0223 31.2563L30.8881 35.4108V37.3237C30.8881 37.5664 30.8799 37.7583 30.8642 37.9015C30.8476 38.0524 30.8249 38.1256 30.8107 38.1502L30.8107 38.1502L30.8093 38.1526C30.7349 38.287 30.6378 38.375 30.518 38.4264L30.5179 38.4262L30.5118 38.4292C30.3316 38.5152 30.0723 38.5645 29.7219 38.5645H29.0773H28.9092V38.7327V39V39.1682H29.0773H35.9855H36.1536V39V38.7327V38.5645H35.9855H35.2956C34.9837 38.5645 34.7478 38.5207 34.5783 38.4436C34.4016 38.3553 34.3066 38.2675 34.2634 38.1902C34.2467 38.158 34.2241 38.0766 34.2078 37.922C34.192 37.7725 34.1838 37.5737 34.1838 37.3237V35.0099L36.8188 31.5072L36.8189 31.5072L36.8206 31.5048C37.1458 31.0566 37.4256 30.6977 37.6603 30.427C37.8971 30.1538 38.0801 29.9796 38.2119 29.8915C38.3981 29.768 38.6795 29.6788 39.0716 29.6369L39.2219 29.6208V29.4697V29.2023ZM39.8753 38.4072L39.8747 38.4069C39.7559 38.3514 39.6778 38.2857 39.6289 38.2147C39.5809 38.1448 39.5541 38.0597 39.5541 37.9523C39.5541 37.7863 39.6237 37.5533 39.7883 37.2444C39.7884 37.2442 39.7885 37.244 39.7886 37.2438L40.2577 36.3791H44.4051L45.011 37.5112C45.0955 37.6697 45.1598 37.793 45.2043 37.8815C45.2266 37.9259 45.2434 37.9605 45.2551 37.9859C45.2637 38.0047 45.2678 38.0147 45.2693 38.0184C45.2701 38.0205 45.2701 38.0206 45.2698 38.0192L45.2721 38.0278L45.2754 38.036C45.305 38.1104 45.318 38.1785 45.318 38.2413C45.318 38.3207 45.288 38.378 45.204 38.4272C45.0501 38.5105 44.7526 38.5645 44.2789 38.5645H44.0338H43.8656V38.7327V39V39.1682H44.0338H49.9887H50.1569V39V38.7327V38.5749L49.9995 38.5648C49.6418 38.5419 49.3865 38.4602 49.2161 38.3364L49.216 38.3364C49.1011 38.2531 48.9584 38.1006 48.7881 37.8662C48.6195 37.6339 48.4302 37.3301 48.2204 36.953C48.2203 36.953 48.2203 36.9529 48.2203 36.9529L43.7815 28.9187L43.7336 28.8318H43.6343H43.4619H43.3636L43.3153 28.9175L38.9127 36.7354L38.9124 36.7358C38.4955 37.4812 38.1572 37.9506 37.8981 38.1703C37.6433 38.3814 37.3127 38.5158 36.8968 38.5657L36.7487 38.5835V38.7327V39V39.1682H36.9168H41.0109H41.1791V39V38.7327V38.5743L41.021 38.5648C40.7025 38.5457 40.4466 38.5219 40.2518 38.4939C40.0518 38.4652 39.9323 38.434 39.8753 38.4072ZM40.7621 35.5081L42.3613 32.6503L43.9144 35.5081H40.7621ZM55.6805 33.8463C55.6103 33.8463 55.5153 33.8439 55.3947 33.8391V29.9341H55.5988C56.3715 29.9341 56.9218 30.099 57.2786 30.4002C57.627 30.6943 57.818 31.1704 57.818 31.8685C57.818 32.571 57.6271 33.0586 57.2764 33.3676C56.9178 33.6788 56.3939 33.8463 55.6805 33.8463Z" fill="#0000FF" stroke="#0000FF" stroke-width="0.336332"/>
<path d="M41.6265 55C42.0986 55 42.5707 55 43.0428 55C43.0523 55.0062 43.0617 55.0174 43.0713 55.0178C43.1035 55.0188 43.1295 55.0311 43.159 55.0431C43.2098 55.064 43.268 55.0662 43.3077 55.1126C43.312 55.1175 43.3263 55.113 43.3357 55.1145C43.4084 55.1259 43.4865 55.1195 43.5437 55.1818C43.552 55.191 43.5735 55.1915 43.5885 55.1906C43.6397 55.1873 43.6804 55.2065 43.7161 55.2417C43.7268 55.2523 43.7409 55.264 43.7549 55.2661C43.8045 55.2736 43.8228 55.3112 43.8512 55.3451C43.8749 55.3734 43.9284 55.373 43.9546 55.4093C43.958 55.4141 43.9578 55.4216 43.9614 55.4263C43.9917 55.4655 44.0369 55.4919 44.0568 55.541C44.0603 55.5498 44.0847 55.5542 44.0993 55.5537C44.1447 55.5523 44.1738 55.5651 44.1729 55.6172C44.1727 55.6275 44.1808 55.6398 44.1884 55.6481C44.2296 55.6926 44.2671 55.7424 44.3148 55.7784C44.3681 55.8185 44.3811 55.8714 44.3861 55.9275C44.3985 55.9341 44.4064 55.9397 44.4152 55.9426C44.4639 55.9592 44.4866 55.9899 44.4797 56.0436C44.4778 56.0582 44.4921 56.0751 44.4995 56.0907C44.5204 56.1343 44.531 56.1834 44.5704 56.2175C44.5761 56.2225 44.5698 56.2411 44.5694 56.2535C44.5691 56.2643 44.5647 56.2806 44.57 56.285C44.5998 56.3097 44.5914 56.3424 44.5932 56.3735C44.5943 56.3922 44.5907 56.4185 44.6013 56.4278C44.6392 56.4609 44.6295 56.5026 44.6316 56.543C44.6322 56.5551 44.6327 56.575 44.6392 56.5779C44.6789 56.5953 44.6678 56.629 44.6702 56.6592C44.6764 56.739 44.6474 56.8242 44.7068 56.8962C44.7116 56.902 44.7065 56.9151 44.7085 56.9243C44.7145 56.9516 44.7129 56.99 44.7302 57.0035C44.7712 57.0352 44.7602 57.0811 44.7786 57.1159C44.7973 57.1256 44.8175 57.1378 44.821 57.1537C44.826 57.1763 44.8408 57.1896 44.8497 57.2065C44.8707 57.2461 44.9064 57.2508 44.9386 57.2683C44.97 57.2853 44.9933 57.3169 45.0244 57.3347C45.0584 57.3541 45.0813 57.3874 45.1235 57.3982C45.1794 57.4125 45.2445 57.3991 45.2904 57.4472C45.3533 57.4342 45.3962 57.5042 45.4599 57.4881C45.4927 57.5469 45.5489 57.5189 45.5957 57.5233C45.6334 57.5269 45.6718 57.524 45.7115 57.524C45.7189 57.5434 45.7254 57.5602 45.7319 57.5775C45.7424 57.5788 45.7516 57.5803 45.7609 57.5812C45.8666 57.5913 45.9136 57.6411 45.9139 57.7436C45.9141 57.7814 45.9139 57.8193 45.9139 57.8577C45.8814 57.869 45.8582 57.879 45.8494 57.9166C45.841 57.9526 45.8356 58.0002 45.7834 58.0106C45.7759 58.0121 45.7692 58.0232 45.7643 58.0311C45.7352 58.0791 45.6968 58.11 45.6342 58.0978C45.6115 58.158 45.5858 58.2125 45.512 58.221C45.512 58.2647 45.5132 58.3058 45.5118 58.3469C45.5092 58.4207 45.5368 58.4899 45.5928 58.5267C45.6607 58.5715 45.6719 58.6243 45.6654 58.694C45.6624 58.7255 45.6649 58.7576 45.6649 58.7976C45.6074 58.8033 45.6062 58.8504 45.6052 58.8865C45.5382 58.9162 45.4793 58.9424 45.4204 58.9685C45.3687 59.0605 45.2744 59.1048 45.1977 59.1691C45.1656 59.196 45.123 59.2207 45.1281 59.2756C45.1316 59.3146 45.0844 59.2925 45.0794 59.304C45.0494 59.3991 45.1123 59.4496 45.1409 59.5125C45.2255 59.5125 45.3052 59.5133 45.3849 59.5122C45.4639 59.5112 45.5416 59.5201 45.6201 59.5282C45.6772 59.5341 45.6986 59.5771 45.7155 59.6063C45.734 59.6384 45.7265 59.6953 45.7115 59.7341C45.6956 59.7754 45.6572 59.8077 45.6297 59.8448C45.6206 59.8569 45.6077 59.8723 45.609 59.8849C45.6164 59.9602 45.5757 60.0458 45.6547 60.1071C45.6624 60.1132 45.6628 60.1301 45.6646 60.1422C45.6715 60.1885 45.6769 60.2349 45.6843 60.2811C45.6871 60.2987 45.6885 60.3253 45.6994 60.331C45.7269 60.3453 45.7211 60.3668 45.7221 60.3879C45.7252 60.4544 45.6636 60.5057 45.6774 60.5757C45.6787 60.5823 45.6605 60.5926 45.6514 60.6012C45.6428 60.6093 45.632 60.6161 45.6262 60.6258C45.5706 60.7197 45.4891 60.7796 45.3866 60.8134C45.375 60.8172 45.3618 60.821 45.3534 60.829C45.3151 60.8656 45.273 60.851 45.2299 60.8399C45.2182 60.8803 45.19 60.8908 45.1501 60.8906C45.11 60.8904 45.0655 60.8895 45.0311 60.9061C45.0042 60.919 44.9803 60.9253 44.9518 60.9285C44.9056 60.9338 44.8458 60.929 44.8173 60.9557C44.7794 60.9912 44.7439 60.9811 44.7058 60.9848C44.6905 60.9863 44.675 60.9851 44.6596 60.9851C44.642 61.013 44.6222 61.0326 44.5983 61.0419C44.5436 61.0633 44.4878 61.0763 44.4501 61.1311C44.4342 61.1544 44.4056 61.1786 44.3686 61.185C44.3511 61.1881 44.3362 61.2103 44.3214 61.2251C44.2854 61.2612 44.2477 61.296 44.2153 61.335C44.1824 61.3746 44.1561 61.4194 44.1248 61.4602C44.1142 61.474 44.0837 61.4905 44.0849 61.4926C44.1149 61.5442 44.0637 61.5491 44.0383 61.5738C44.0549 61.6686 43.9931 61.7482 43.9741 61.8385C43.972 61.8483 43.9577 61.8587 43.9467 61.8627C43.9313 61.8686 43.9296 61.8733 43.9353 61.8889C43.9401 61.9024 43.9408 61.9199 43.9366 61.9337C43.8947 62.0734 43.8926 62.218 43.8863 62.3614C43.8824 62.4508 43.8949 62.5414 43.7912 62.5863C43.7786 62.6305 43.7439 62.6294 43.7073 62.6302C43.2336 62.64 42.7598 62.6146 42.2858 62.6459C42.0349 62.6625 41.782 62.6504 41.5301 62.6479C41.455 62.6472 41.3796 62.6381 41.305 62.6276C41.2831 62.6245 41.2619 62.6055 41.2434 62.5901C41.1846 62.5411 41.1274 62.4903 41.0848 62.4535C41.0404 62.3705 41.118 62.3335 41.1173 62.2738C41.1171 62.2602 41.1482 62.2462 41.1631 62.2339C41.1765 62.1527 41.1627 62.065 41.2359 62.0019C41.2188 61.9293 41.2147 61.9053 41.2528 61.8737C41.2809 61.8504 41.2802 61.8286 41.2817 61.8011C41.2835 61.7665 41.2735 61.7215 41.2914 61.6998C41.3249 61.6591 41.3169 61.6174 41.3203 61.5742C41.3222 61.5503 41.3214 61.5154 41.3356 61.5056C41.3603 61.4887 41.3582 61.47 41.3583 61.4487C41.3587 61.3436 41.3588 61.2384 41.3581 61.1333C41.358 61.1181 41.3577 61.0931 41.3497 61.0895C41.3097 61.0712 41.3225 61.0375 41.3196 61.0078C41.3178 60.9894 41.3198 60.9596 41.3103 60.955C41.2751 60.9377 41.2823 60.9094 41.2817 60.882C41.2811 60.8599 41.2853 60.8358 41.2548 60.8291C41.2499 60.7711 41.1756 60.7456 41.1852 60.6809C41.1386 60.641 41.1072 60.591 41.0866 60.5338C41.0321 60.5398 41.0392 60.4857 41.0156 60.4615C40.9764 60.4215 40.9387 60.3794 40.8961 60.3433C40.8525 60.3062 40.7856 60.3009 40.7554 60.2437C40.7544 60.2417 40.7497 60.2403 40.7469 60.2406C40.6859 60.2453 40.6642 60.196 40.6273 60.1625C40.5994 60.1371 40.5851 60.0897 40.5398 60.0874C40.5066 60.0858 40.4917 60.0697 40.4738 60.0437C40.454 60.0151 40.423 59.98 40.393 59.9759C40.3444 59.9692 40.3215 59.9387 40.294 59.9095C40.2814 59.8961 40.2764 59.873 40.262 59.8644C40.1785 59.815 40.0978 59.7623 40.0382 59.6842C39.9852 59.6147 39.9011 59.5862 39.8401 59.5236C39.7532 59.4348 39.6627 59.3487 39.5755 59.2597C39.5495 59.2332 39.5103 59.2192 39.519 59.1709C39.52 59.1653 39.5098 59.1529 39.5031 59.1514C39.4456 59.1386 39.4598 59.0534 39.3964 59.0464C39.3924 59.046 39.3866 59.0299 39.3876 59.0218C39.3915 58.9876 39.3725 58.9682 39.3532 58.9419C39.3218 58.8993 39.2826 58.8596 39.2657 58.8074C39.2507 58.7607 39.2447 58.7101 39.1882 58.6893C39.1801 58.6864 39.1787 58.6613 39.1769 58.6461C39.1705 58.5928 39.1192 58.5516 39.1349 58.492C39.1359 58.4881 39.1292 58.4793 39.1242 58.4772C39.0649 58.4518 39.0803 58.4027 39.0844 58.3566C39.0856 58.3429 39.0882 58.3257 39.0816 58.3155C39.0575 58.2777 39.0643 58.2363 39.061 58.1956C39.056 58.1364 39.0475 58.0775 39.0406 58.0184C38.9785 57.9786 39.0064 57.9163 39.0053 57.8637C39.0019 57.714 39.0026 57.5642 39.0048 57.4144C39.0057 57.3564 38.9849 57.2924 39.0391 57.2441C39.0428 57.2409 39.0408 57.2319 39.0423 57.2258C39.0509 57.1915 39.031 57.1562 39.0611 57.1195C39.078 57.0988 39.0625 57.0515 39.0615 57.0161C39.0604 56.978 39.0562 56.9377 39.0828 56.9069C39.1073 56.8785 39.0674 56.8526 39.0844 56.828C39.1005 56.8047 39.1233 56.7853 39.136 56.7605C39.1438 56.7452 39.1331 56.7212 39.1394 56.7043C39.1543 56.6648 39.1647 56.6101 39.1947 56.5934C39.2305 56.5735 39.2426 56.5509 39.2537 56.5185C39.2647 56.486 39.2781 56.4542 39.2921 56.4229C39.2965 56.413 39.3049 56.4034 39.3139 56.3972C39.3638 56.363 39.3635 56.3632 39.3885 56.3054C39.3928 56.2953 39.4037 56.288 39.4114 56.2793C39.4465 56.24 39.4825 56.2016 39.5161 56.161C39.5274 56.1474 39.5382 56.1288 39.539 56.112C39.5407 56.0785 39.5538 56.0591 39.5858 56.0492C39.6006 56.0446 39.6165 56.0372 39.6268 56.0263C39.6673 55.9837 39.705 55.9386 39.7452 55.8958C39.7801 55.8587 39.8157 55.822 39.8533 55.7876C39.8914 55.7527 39.9295 55.7195 39.9783 55.6957C40.02 55.6754 40.0501 55.6315 40.0859 55.5987C40.09 55.595 40.0975 55.5936 40.1035 55.5935C40.1644 55.5924 40.1809 55.5437 40.2043 55.4987C40.237 55.4925 40.272 55.5032 40.3027 55.464C40.3281 55.4314 40.3863 55.4267 40.4213 55.3988C40.4679 55.3617 40.5258 55.3603 40.5758 55.3352C40.638 55.3039 40.6947 55.2596 40.7656 55.2467C40.7712 55.2457 40.7783 55.2417 40.7809 55.237C40.8069 55.1901 40.8513 55.19 40.896 55.1914C40.9414 55.1928 40.9812 55.1758 41.0205 55.1561C41.0368 55.148 41.0534 55.1371 41.0707 55.1347C41.1327 55.1263 41.1953 55.1218 41.2574 55.1139C41.2752 55.1116 41.2975 55.1078 41.3085 55.096C41.3725 55.0276 41.4511 55.0088 41.5405 55.0186C41.5595 55.0206 41.5791 55.0209 41.5978 55.0179C41.6081 55.0163 41.617 55.0063 41.6265 55V55Z" fill="#0000FF"/>
<path d="M47.9998 59.1494C47.9344 59.2272 47.8497 59.2473 47.7506 59.2466C47.3367 59.2436 46.9229 59.2461 46.509 59.2444C46.4468 59.2442 46.3837 59.2368 46.3227 59.2241C46.2779 59.2148 46.2449 59.1815 46.2396 59.1329C46.2368 59.1067 46.2307 59.0936 46.2025 59.0893C46.1915 59.0876 46.1774 59.0692 46.175 59.0564C46.1679 59.0198 46.1662 58.9822 46.1622 58.9449C46.1577 58.9028 46.1891 58.8856 46.2152 58.8621C46.2374 58.8422 46.2533 58.8152 46.274 58.7887C46.6016 58.7464 46.935 58.7739 47.2675 58.7672C47.4075 58.7643 47.5477 58.7645 47.6877 58.7675C47.7691 58.7694 47.8507 58.7772 47.9315 58.7876C47.9554 58.7907 47.9771 58.8116 47.9999 58.8243V59.1494L47.9998 59.1494Z" fill="#0000FF"/>
<path d="M46.2424 58.375C46.2356 58.3449 46.2455 58.3162 46.2076 58.3004C46.1701 58.2847 46.1566 58.2477 46.1617 58.2048C46.165 58.1765 46.1633 58.1475 46.1621 58.1189C46.1604 58.0815 46.172 58.0597 46.2066 58.0349C46.2579 57.9982 46.2949 57.9419 46.3396 57.8955C46.4049 57.8276 46.4716 57.761 46.5378 57.694C46.5592 57.6723 46.5798 57.6494 46.6029 57.6295C46.6239 57.6115 46.6477 57.5968 46.6706 57.5812C46.6755 57.5779 46.6871 57.5783 46.6875 57.5757C46.6968 57.5156 46.7557 57.4983 46.7868 57.4584C46.8513 57.3756 46.932 57.3105 47.0053 57.2374C47.0208 57.2219 47.0435 57.2115 47.0542 57.1936C47.1115 57.0986 47.2055 57.0462 47.3018 57.0165C47.3897 56.9894 47.494 56.9874 47.58 57.0315C47.6288 57.0565 47.6888 57.0976 47.6749 57.1756C47.6721 57.191 47.6715 57.208 47.675 57.2231C47.6935 57.3019 47.6485 57.3545 47.5964 57.3983C47.5377 57.4475 47.4839 57.5004 47.4334 57.5578C47.4076 57.5873 47.3753 57.6119 47.3431 57.6349C47.3072 57.6605 47.2773 57.688 47.2528 57.727C47.2244 57.7722 47.1808 57.8083 47.1427 57.8471C47.0611 57.9302 46.9824 58.0165 46.8952 58.0933C46.8514 58.1318 46.8093 58.172 46.7677 58.2124C46.7243 58.2547 46.6906 58.3074 46.6455 58.3475C46.6162 58.3736 46.5745 58.3994 46.5376 58.4006C46.4409 58.4038 46.3412 58.4217 46.2423 58.375L46.2424 58.375Z" fill="#0000FF"/>
<path d="M46.5877 59.627C46.6098 59.6485 46.6086 59.6759 46.6362 59.6956C46.6914 59.7348 46.758 59.7696 46.7786 59.8445C46.78 59.8492 46.7874 59.8538 46.7929 59.8556C46.8566 59.8764 46.8848 59.9348 46.9272 59.9788C46.9767 60.0301 47.0338 60.0742 47.0832 60.1255C47.1638 60.209 47.2559 60.2821 47.3171 60.3839C47.3305 60.4063 47.3602 60.4187 47.382 60.4363C47.4035 60.4534 47.4246 60.4712 47.4458 60.4888C47.4526 60.4944 47.4598 60.5055 47.466 60.5049C47.528 60.4994 47.5527 60.5511 47.5879 60.5848C47.6024 60.5986 47.6082 60.6216 47.6169 60.641C47.6218 60.652 47.6218 60.6722 47.6285 60.6743C47.6894 60.694 47.6736 60.7438 47.6741 60.786C47.6755 60.8907 47.6523 60.9291 47.559 60.9872C47.5495 60.9931 47.5432 61.0048 47.5368 61.0148C47.5233 61.0355 47.5051 61.0437 47.4804 61.0428C47.4454 61.0414 47.4103 61.0425 47.3753 61.0424C47.2677 61.0424 47.2685 61.0319 47.1915 60.9478C47.1423 60.8941 47.0959 60.8365 47.0427 60.7864C46.9685 60.7166 46.8887 60.6529 46.8155 60.5823C46.7893 60.557 46.765 60.5296 46.7377 60.5047C46.7084 60.4781 46.688 60.4422 46.6605 60.4134C46.6003 60.3506 46.5462 60.2814 46.4684 60.2368C46.4484 60.2253 46.4337 60.2016 46.4213 60.1807C46.4051 60.1532 46.3946 60.1233 46.3545 60.1221C46.3466 60.1219 46.3374 60.1064 46.332 60.0963C46.3037 60.0437 46.2604 60.0058 46.2142 59.9696C46.1978 59.9568 46.1822 59.9378 46.1757 59.9185C46.1523 59.8482 46.1565 59.7758 46.1726 59.7047C46.1768 59.6857 46.1862 59.6635 46.217 59.6646C46.2594 59.6663 46.2812 59.6111 46.3336 59.6251C46.3723 59.6354 46.4159 59.6271 46.4573 59.6271C46.5017 59.6271 46.5461 59.6271 46.5878 59.6271L46.5877 59.627Z" fill="#0000FF"/>
<path d="M31.6265 55C32.0986 55 32.5707 55 33.0428 55C33.0523 55.0062 33.0617 55.0174 33.0713 55.0178C33.1035 55.0188 33.1295 55.0311 33.159 55.0431C33.2098 55.064 33.268 55.0662 33.3077 55.1126C33.312 55.1175 33.3263 55.113 33.3357 55.1145C33.4084 55.1259 33.4865 55.1195 33.5437 55.1818C33.552 55.191 33.5735 55.1915 33.5885 55.1906C33.6397 55.1873 33.6804 55.2065 33.7161 55.2417C33.7268 55.2523 33.7409 55.264 33.7549 55.2661C33.8045 55.2736 33.8228 55.3112 33.8512 55.3451C33.8749 55.3734 33.9284 55.373 33.9546 55.4093C33.958 55.4141 33.9578 55.4216 33.9614 55.4263C33.9917 55.4655 34.0369 55.4919 34.0568 55.541C34.0603 55.5498 34.0847 55.5542 34.0993 55.5537C34.1447 55.5523 34.1738 55.5651 34.1729 55.6172C34.1727 55.6275 34.1808 55.6398 34.1884 55.6481C34.2296 55.6926 34.2671 55.7424 34.3148 55.7784C34.3681 55.8185 34.3811 55.8714 34.3861 55.9275C34.3985 55.9341 34.4064 55.9397 34.4152 55.9426C34.4639 55.9592 34.4866 55.9899 34.4797 56.0436C34.4778 56.0582 34.4921 56.0751 34.4995 56.0907C34.5204 56.1343 34.531 56.1834 34.5704 56.2175C34.5761 56.2225 34.5698 56.2411 34.5694 56.2535C34.5691 56.2643 34.5647 56.2806 34.57 56.285C34.5998 56.3097 34.5914 56.3424 34.5932 56.3735C34.5943 56.3922 34.5907 56.4185 34.6013 56.4278C34.6392 56.4609 34.6295 56.5026 34.6316 56.543C34.6322 56.5551 34.6327 56.575 34.6392 56.5779C34.6789 56.5953 34.6678 56.629 34.6702 56.6592C34.6764 56.739 34.6474 56.8242 34.7068 56.8962C34.7116 56.902 34.7065 56.9151 34.7085 56.9243C34.7145 56.9516 34.7129 56.99 34.7302 57.0035C34.7712 57.0352 34.7602 57.0811 34.7786 57.1159C34.7973 57.1256 34.8175 57.1378 34.821 57.1537C34.826 57.1763 34.8408 57.1896 34.8497 57.2065C34.8707 57.2461 34.9064 57.2508 34.9386 57.2683C34.97 57.2853 34.9933 57.3169 35.0244 57.3347C35.0584 57.3541 35.0813 57.3874 35.1235 57.3982C35.1794 57.4125 35.2445 57.3991 35.2904 57.4472C35.3533 57.4342 35.3962 57.5042 35.4599 57.4881C35.4927 57.5469 35.5489 57.5189 35.5957 57.5233C35.6334 57.5269 35.6718 57.524 35.7115 57.524C35.7189 57.5434 35.7254 57.5602 35.7319 57.5775C35.7424 57.5788 35.7516 57.5803 35.7609 57.5812C35.8666 57.5913 35.9136 57.6411 35.9139 57.7436C35.9141 57.7814 35.9139 57.8193 35.9139 57.8577C35.8814 57.869 35.8582 57.879 35.8494 57.9166C35.841 57.9526 35.8356 58.0002 35.7834 58.0106C35.7759 58.0121 35.7692 58.0232 35.7643 58.0311C35.7352 58.0791 35.6968 58.11 35.6342 58.0978C35.6115 58.158 35.5858 58.2125 35.512 58.221C35.512 58.2647 35.5132 58.3058 35.5118 58.3469C35.5092 58.4207 35.5368 58.4899 35.5928 58.5267C35.6607 58.5715 35.6719 58.6243 35.6654 58.694C35.6624 58.7255 35.6649 58.7576 35.6649 58.7976C35.6074 58.8033 35.6062 58.8504 35.6052 58.8865C35.5382 58.9162 35.4793 58.9424 35.4204 58.9685C35.3687 59.0605 35.2744 59.1048 35.1977 59.1691C35.1656 59.196 35.123 59.2207 35.1281 59.2756C35.1316 59.3146 35.0844 59.2925 35.0794 59.304C35.0494 59.3991 35.1123 59.4496 35.1409 59.5125C35.2255 59.5125 35.3052 59.5133 35.3849 59.5122C35.4639 59.5112 35.5416 59.5201 35.6201 59.5282C35.6772 59.5341 35.6986 59.5771 35.7155 59.6063C35.734 59.6384 35.7265 59.6953 35.7115 59.7341C35.6956 59.7754 35.6572 59.8077 35.6297 59.8448C35.6206 59.8569 35.6077 59.8723 35.609 59.8849C35.6164 59.9602 35.5757 60.0458 35.6547 60.1071C35.6624 60.1132 35.6628 60.1301 35.6646 60.1422C35.6715 60.1885 35.6769 60.2349 35.6843 60.2811C35.6871 60.2987 35.6885 60.3253 35.6994 60.331C35.7269 60.3453 35.7211 60.3668 35.7221 60.3879C35.7252 60.4544 35.6636 60.5057 35.6774 60.5757C35.6787 60.5823 35.6605 60.5926 35.6514 60.6012C35.6428 60.6093 35.632 60.6161 35.6262 60.6258C35.5706 60.7197 35.4891 60.7796 35.3866 60.8134C35.375 60.8172 35.3618 60.821 35.3534 60.829C35.3151 60.8656 35.273 60.851 35.2299 60.8399C35.2182 60.8803 35.19 60.8908 35.1501 60.8906C35.11 60.8904 35.0655 60.8895 35.0311 60.9061C35.0042 60.919 34.9803 60.9253 34.9518 60.9285C34.9056 60.9338 34.8458 60.929 34.8173 60.9557C34.7794 60.9912 34.7439 60.9811 34.7058 60.9848C34.6905 60.9863 34.675 60.9851 34.6596 60.9851C34.642 61.013 34.6222 61.0326 34.5983 61.0419C34.5436 61.0633 34.4878 61.0763 34.4501 61.1311C34.4342 61.1544 34.4056 61.1786 34.3686 61.185C34.3511 61.1881 34.3362 61.2103 34.3214 61.2251C34.2854 61.2612 34.2477 61.296 34.2153 61.335C34.1824 61.3746 34.1561 61.4194 34.1248 61.4602C34.1142 61.474 34.0837 61.4905 34.0849 61.4926C34.1149 61.5442 34.0637 61.5491 34.0383 61.5738C34.0549 61.6686 33.9931 61.7482 33.9741 61.8385C33.972 61.8483 33.9577 61.8587 33.9467 61.8627C33.9313 61.8686 33.9296 61.8733 33.9353 61.8889C33.9401 61.9024 33.9408 61.9199 33.9366 61.9337C33.8947 62.0734 33.8926 62.218 33.8863 62.3614C33.8824 62.4508 33.8949 62.5414 33.7912 62.5863C33.7786 62.6305 33.7439 62.6294 33.7073 62.6302C33.2336 62.64 32.7598 62.6146 32.2858 62.6459C32.0349 62.6625 31.782 62.6504 31.5301 62.6479C31.455 62.6472 31.3796 62.6381 31.305 62.6276C31.2831 62.6245 31.2619 62.6055 31.2434 62.5901C31.1846 62.5411 31.1274 62.4903 31.0848 62.4535C31.0404 62.3705 31.118 62.3335 31.1173 62.2738C31.1171 62.2602 31.1482 62.2462 31.1631 62.2339C31.1765 62.1527 31.1627 62.065 31.2359 62.0019C31.2188 61.9293 31.2147 61.9053 31.2528 61.8737C31.2809 61.8504 31.2802 61.8286 31.2817 61.8011C31.2835 61.7665 31.2735 61.7215 31.2914 61.6998C31.3249 61.6591 31.3169 61.6174 31.3203 61.5742C31.3222 61.5503 31.3214 61.5154 31.3356 61.5056C31.3603 61.4887 31.3582 61.47 31.3583 61.4487C31.3587 61.3436 31.3588 61.2384 31.3581 61.1333C31.358 61.1181 31.3577 61.0931 31.3497 61.0895C31.3097 61.0712 31.3225 61.0375 31.3196 61.0078C31.3178 60.9894 31.3198 60.9596 31.3103 60.955C31.2751 60.9377 31.2823 60.9094 31.2817 60.882C31.2811 60.8599 31.2853 60.8358 31.2548 60.8291C31.2499 60.7711 31.1756 60.7456 31.1852 60.6809C31.1386 60.641 31.1072 60.591 31.0866 60.5338C31.0321 60.5398 31.0392 60.4857 31.0156 60.4615C30.9764 60.4215 30.9387 60.3794 30.8961 60.3433C30.8525 60.3062 30.7856 60.3009 30.7554 60.2437C30.7544 60.2417 30.7497 60.2403 30.7469 60.2406C30.6859 60.2453 30.6642 60.196 30.6273 60.1625C30.5994 60.1371 30.5851 60.0897 30.5398 60.0874C30.5066 60.0858 30.4917 60.0697 30.4738 60.0437C30.454 60.0151 30.423 59.98 30.393 59.9759C30.3444 59.9692 30.3215 59.9387 30.294 59.9095C30.2814 59.8961 30.2764 59.873 30.262 59.8644C30.1785 59.815 30.0978 59.7623 30.0382 59.6842C29.9852 59.6147 29.9011 59.5862 29.8401 59.5236C29.7532 59.4348 29.6627 59.3487 29.5755 59.2597C29.5495 59.2332 29.5103 59.2192 29.519 59.1709C29.52 59.1653 29.5098 59.1529 29.5031 59.1514C29.4456 59.1386 29.4598 59.0534 29.3964 59.0464C29.3924 59.046 29.3866 59.0299 29.3876 59.0218C29.3915 58.9876 29.3725 58.9682 29.3532 58.9419C29.3218 58.8993 29.2826 58.8596 29.2657 58.8074C29.2507 58.7607 29.2447 58.7101 29.1882 58.6893C29.1801 58.6864 29.1787 58.6613 29.1769 58.6461C29.1705 58.5928 29.1192 58.5516 29.1349 58.492C29.1359 58.4881 29.1292 58.4793 29.1242 58.4772C29.0649 58.4518 29.0803 58.4027 29.0844 58.3566C29.0856 58.3429 29.0882 58.3257 29.0816 58.3155C29.0575 58.2777 29.0643 58.2363 29.061 58.1956C29.056 58.1364 29.0475 58.0775 29.0406 58.0184C28.9785 57.9786 29.0064 57.9163 29.0053 57.8637C29.0019 57.714 29.0026 57.5642 29.0048 57.4144C29.0057 57.3564 28.9849 57.2924 29.0391 57.2441C29.0428 57.2409 29.0408 57.2319 29.0423 57.2258C29.0509 57.1915 29.031 57.1562 29.0611 57.1195C29.078 57.0988 29.0625 57.0515 29.0615 57.0161C29.0604 56.978 29.0562 56.9377 29.0828 56.9069C29.1073 56.8785 29.0674 56.8526 29.0844 56.828C29.1005 56.8047 29.1233 56.7853 29.136 56.7605C29.1438 56.7452 29.1331 56.7212 29.1394 56.7043C29.1543 56.6648 29.1647 56.6101 29.1947 56.5934C29.2305 56.5735 29.2426 56.5509 29.2537 56.5185C29.2647 56.486 29.2781 56.4542 29.2921 56.4229C29.2965 56.413 29.3049 56.4034 29.3139 56.3972C29.3638 56.363 29.3635 56.3632 29.3885 56.3054C29.3928 56.2953 29.4037 56.288 29.4114 56.2793C29.4465 56.24 29.4825 56.2016 29.5161 56.161C29.5274 56.1474 29.5382 56.1288 29.539 56.112C29.5407 56.0785 29.5538 56.0591 29.5858 56.0492C29.6006 56.0446 29.6165 56.0372 29.6268 56.0263C29.6673 55.9837 29.705 55.9386 29.7452 55.8958C29.7801 55.8587 29.8157 55.822 29.8533 55.7876C29.8914 55.7527 29.9295 55.7195 29.9783 55.6957C30.02 55.6754 30.0501 55.6315 30.0859 55.5987C30.09 55.595 30.0975 55.5936 30.1035 55.5935C30.1644 55.5924 30.1809 55.5437 30.2043 55.4987C30.237 55.4925 30.272 55.5032 30.3027 55.464C30.3281 55.4314 30.3863 55.4267 30.4213 55.3988C30.4679 55.3617 30.5258 55.3603 30.5758 55.3352C30.638 55.3039 30.6947 55.2596 30.7656 55.2467C30.7712 55.2457 30.7783 55.2417 30.7809 55.237C30.8069 55.1901 30.8513 55.19 30.896 55.1914C30.9414 55.1928 30.9812 55.1758 31.0205 55.1561C31.0368 55.148 31.0534 55.1371 31.0707 55.1347C31.1327 55.1263 31.1953 55.1218 31.2574 55.1139C31.2752 55.1116 31.2975 55.1078 31.3085 55.096C31.3725 55.0276 31.4511 55.0088 31.5405 55.0186C31.5595 55.0206 31.5791 55.0209 31.5978 55.0179C31.6081 55.0163 31.617 55.0063 31.6265 55V55Z" fill="#0000FF"/>
<path d="M37.9998 59.1494C37.9344 59.2272 37.8497 59.2473 37.7506 59.2466C37.3367 59.2436 36.9229 59.2461 36.509 59.2444C36.4468 59.2442 36.3837 59.2368 36.3227 59.2241C36.2779 59.2148 36.2449 59.1815 36.2396 59.1329C36.2368 59.1067 36.2307 59.0936 36.2025 59.0893C36.1915 59.0876 36.1774 59.0692 36.175 59.0564C36.1679 59.0198 36.1662 58.9822 36.1622 58.9449C36.1577 58.9028 36.1891 58.8856 36.2152 58.8621C36.2374 58.8422 36.2533 58.8152 36.274 58.7887C36.6016 58.7464 36.935 58.7739 37.2675 58.7672C37.4075 58.7643 37.5477 58.7645 37.6877 58.7675C37.7691 58.7694 37.8507 58.7772 37.9315 58.7876C37.9554 58.7907 37.9771 58.8116 37.9999 58.8243V59.1494L37.9998 59.1494Z" fill="#0000FF"/>
<path d="M36.2424 58.375C36.2356 58.3449 36.2455 58.3162 36.2076 58.3004C36.1701 58.2847 36.1566 58.2477 36.1617 58.2048C36.165 58.1765 36.1633 58.1475 36.1621 58.1189C36.1604 58.0815 36.172 58.0597 36.2066 58.0349C36.2579 57.9982 36.2949 57.9419 36.3396 57.8955C36.4049 57.8276 36.4716 57.761 36.5378 57.694C36.5592 57.6723 36.5798 57.6494 36.6029 57.6295C36.6239 57.6115 36.6477 57.5968 36.6706 57.5812C36.6755 57.5779 36.6871 57.5783 36.6875 57.5757C36.6968 57.5156 36.7557 57.4983 36.7868 57.4584C36.8513 57.3756 36.932 57.3105 37.0053 57.2374C37.0208 57.2219 37.0435 57.2115 37.0542 57.1936C37.1115 57.0986 37.2055 57.0462 37.3018 57.0165C37.3897 56.9894 37.494 56.9874 37.58 57.0315C37.6288 57.0565 37.6888 57.0976 37.6749 57.1756C37.6721 57.191 37.6715 57.208 37.675 57.2231C37.6935 57.3019 37.6485 57.3545 37.5964 57.3983C37.5377 57.4475 37.4839 57.5004 37.4334 57.5578C37.4076 57.5873 37.3753 57.6119 37.3431 57.6349C37.3072 57.6605 37.2773 57.688 37.2528 57.727C37.2244 57.7722 37.1808 57.8083 37.1427 57.8471C37.0611 57.9302 36.9824 58.0165 36.8952 58.0933C36.8514 58.1318 36.8093 58.172 36.7677 58.2124C36.7243 58.2547 36.6906 58.3074 36.6455 58.3475C36.6162 58.3736 36.5745 58.3994 36.5376 58.4006C36.4409 58.4038 36.3412 58.4217 36.2423 58.375L36.2424 58.375Z" fill="#0000FF"/>
<path d="M36.5877 59.627C36.6098 59.6485 36.6086 59.6759 36.6362 59.6956C36.6914 59.7348 36.758 59.7696 36.7786 59.8445C36.78 59.8492 36.7874 59.8538 36.7929 59.8556C36.8566 59.8764 36.8848 59.9348 36.9272 59.9788C36.9767 60.0301 37.0338 60.0742 37.0832 60.1255C37.1638 60.209 37.2559 60.2821 37.3171 60.3839C37.3305 60.4063 37.3602 60.4187 37.382 60.4363C37.4035 60.4534 37.4246 60.4712 37.4458 60.4888C37.4526 60.4944 37.4598 60.5055 37.466 60.5049C37.528 60.4994 37.5527 60.5511 37.5879 60.5848C37.6024 60.5986 37.6082 60.6216 37.6169 60.641C37.6218 60.652 37.6218 60.6722 37.6285 60.6743C37.6894 60.694 37.6736 60.7438 37.6741 60.786C37.6755 60.8907 37.6523 60.9291 37.559 60.9872C37.5495 60.9931 37.5432 61.0048 37.5368 61.0148C37.5233 61.0355 37.5051 61.0437 37.4804 61.0428C37.4454 61.0414 37.4103 61.0425 37.3753 61.0424C37.2677 61.0424 37.2685 61.0319 37.1915 60.9478C37.1423 60.8941 37.0959 60.8365 37.0427 60.7864C36.9685 60.7166 36.8887 60.6529 36.8155 60.5823C36.7893 60.557 36.765 60.5296 36.7377 60.5047C36.7084 60.4781 36.688 60.4422 36.6605 60.4134C36.6003 60.3506 36.5462 60.2814 36.4684 60.2368C36.4484 60.2253 36.4337 60.2016 36.4213 60.1807C36.4051 60.1532 36.3946 60.1233 36.3545 60.1221C36.3466 60.1219 36.3374 60.1064 36.332 60.0963C36.3037 60.0437 36.2604 60.0058 36.2142 59.9696C36.1978 59.9568 36.1822 59.9378 36.1757 59.9185C36.1523 59.8482 36.1565 59.7758 36.1726 59.7047C36.1768 59.6857 36.1862 59.6635 36.217 59.6646C36.2594 59.6663 36.2812 59.6111 36.3336 59.6251C36.3723 59.6354 36.4159 59.6271 36.4573 59.6271C36.5017 59.6271 36.5461 59.6271 36.5878 59.6271L36.5877 59.627Z" fill="#0000FF"/>
<path d="M51.6265 55C52.0986 55 52.5707 55 53.0428 55C53.0523 55.0062 53.0617 55.0174 53.0713 55.0178C53.1035 55.0188 53.1295 55.0311 53.159 55.0431C53.2098 55.064 53.268 55.0662 53.3077 55.1126C53.312 55.1175 53.3263 55.113 53.3357 55.1145C53.4084 55.1259 53.4865 55.1195 53.5437 55.1818C53.552 55.191 53.5735 55.1915 53.5885 55.1906C53.6397 55.1873 53.6804 55.2065 53.7161 55.2417C53.7268 55.2523 53.7409 55.264 53.7549 55.2661C53.8045 55.2736 53.8228 55.3112 53.8512 55.3451C53.8749 55.3734 53.9284 55.373 53.9546 55.4093C53.958 55.4141 53.9578 55.4216 53.9614 55.4263C53.9917 55.4655 54.0369 55.4919 54.0568 55.541C54.0603 55.5498 54.0847 55.5542 54.0993 55.5537C54.1447 55.5523 54.1738 55.5651 54.1729 55.6172C54.1727 55.6275 54.1808 55.6398 54.1884 55.6481C54.2296 55.6926 54.2671 55.7424 54.3148 55.7784C54.3681 55.8185 54.3811 55.8714 54.3861 55.9275C54.3985 55.9341 54.4064 55.9397 54.4152 55.9426C54.4639 55.9592 54.4866 55.9899 54.4797 56.0436C54.4778 56.0582 54.4921 56.0751 54.4995 56.0907C54.5204 56.1343 54.531 56.1834 54.5704 56.2175C54.5761 56.2225 54.5698 56.2411 54.5694 56.2535C54.5691 56.2643 54.5647 56.2806 54.57 56.285C54.5998 56.3097 54.5914 56.3424 54.5932 56.3735C54.5943 56.3922 54.5907 56.4185 54.6013 56.4278C54.6392 56.4609 54.6295 56.5026 54.6316 56.543C54.6322 56.5551 54.6327 56.575 54.6392 56.5779C54.6789 56.5953 54.6678 56.629 54.6702 56.6592C54.6764 56.739 54.6474 56.8242 54.7068 56.8962C54.7116 56.902 54.7065 56.9151 54.7085 56.9243C54.7145 56.9516 54.7129 56.99 54.7302 57.0035C54.7712 57.0352 54.7602 57.0811 54.7786 57.1159C54.7973 57.1256 54.8175 57.1378 54.821 57.1537C54.826 57.1763 54.8408 57.1896 54.8497 57.2065C54.8707 57.2461 54.9064 57.2508 54.9386 57.2683C54.97 57.2853 54.9933 57.3169 55.0244 57.3347C55.0584 57.3541 55.0813 57.3874 55.1235 57.3982C55.1794 57.4125 55.2445 57.3991 55.2904 57.4472C55.3533 57.4342 55.3962 57.5042 55.4599 57.4881C55.4927 57.5469 55.5489 57.5189 55.5957 57.5233C55.6334 57.5269 55.6718 57.524 55.7115 57.524C55.7189 57.5434 55.7254 57.5602 55.7319 57.5775C55.7424 57.5788 55.7516 57.5803 55.7609 57.5812C55.8666 57.5913 55.9136 57.6411 55.9139 57.7436C55.9141 57.7814 55.9139 57.8193 55.9139 57.8577C55.8814 57.869 55.8582 57.879 55.8494 57.9166C55.841 57.9526 55.8356 58.0002 55.7834 58.0106C55.7759 58.0121 55.7692 58.0232 55.7643 58.0311C55.7352 58.0791 55.6968 58.11 55.6342 58.0978C55.6115 58.158 55.5858 58.2125 55.512 58.221C55.512 58.2647 55.5132 58.3058 55.5118 58.3469C55.5092 58.4207 55.5368 58.4899 55.5928 58.5267C55.6607 58.5715 55.6719 58.6243 55.6654 58.694C55.6624 58.7255 55.6649 58.7576 55.6649 58.7976C55.6074 58.8033 55.6062 58.8504 55.6052 58.8865C55.5382 58.9162 55.4793 58.9424 55.4204 58.9685C55.3687 59.0605 55.2744 59.1048 55.1977 59.1691C55.1656 59.196 55.123 59.2207 55.1281 59.2756C55.1316 59.3146 55.0844 59.2925 55.0794 59.304C55.0494 59.3991 55.1123 59.4496 55.1409 59.5125C55.2255 59.5125 55.3052 59.5133 55.3849 59.5122C55.4639 59.5112 55.5416 59.5201 55.6201 59.5282C55.6772 59.5341 55.6986 59.5771 55.7155 59.6063C55.734 59.6384 55.7265 59.6953 55.7115 59.7341C55.6956 59.7754 55.6572 59.8077 55.6297 59.8448C55.6206 59.8569 55.6077 59.8723 55.609 59.8849C55.6164 59.9602 55.5757 60.0458 55.6547 60.1071C55.6624 60.1132 55.6628 60.1301 55.6646 60.1422C55.6715 60.1885 55.6769 60.2349 55.6843 60.2811C55.6871 60.2987 55.6885 60.3253 55.6994 60.331C55.7269 60.3453 55.7211 60.3668 55.7221 60.3879C55.7252 60.4544 55.6636 60.5057 55.6774 60.5757C55.6787 60.5823 55.6605 60.5926 55.6514 60.6012C55.6428 60.6093 55.632 60.6161 55.6262 60.6258C55.5706 60.7197 55.4891 60.7796 55.3866 60.8134C55.375 60.8172 55.3618 60.821 55.3534 60.829C55.3151 60.8656 55.273 60.851 55.2299 60.8399C55.2182 60.8803 55.19 60.8908 55.1501 60.8906C55.11 60.8904 55.0655 60.8895 55.0311 60.9061C55.0042 60.919 54.9803 60.9253 54.9518 60.9285C54.9056 60.9338 54.8458 60.929 54.8173 60.9557C54.7794 60.9912 54.7439 60.9811 54.7058 60.9848C54.6905 60.9863 54.675 60.9851 54.6596 60.9851C54.642 61.013 54.6222 61.0326 54.5983 61.0419C54.5436 61.0633 54.4878 61.0763 54.4501 61.1311C54.4342 61.1544 54.4056 61.1786 54.3686 61.185C54.3511 61.1881 54.3362 61.2103 54.3214 61.2251C54.2854 61.2612 54.2477 61.296 54.2153 61.335C54.1824 61.3746 54.1561 61.4194 54.1248 61.4602C54.1142 61.474 54.0837 61.4905 54.0849 61.4926C54.1149 61.5442 54.0637 61.5491 54.0383 61.5738C54.0549 61.6686 53.9931 61.7482 53.9741 61.8385C53.972 61.8483 53.9577 61.8587 53.9467 61.8627C53.9313 61.8686 53.9296 61.8733 53.9353 61.8889C53.9401 61.9024 53.9408 61.9199 53.9366 61.9337C53.8947 62.0734 53.8926 62.218 53.8863 62.3614C53.8824 62.4508 53.8949 62.5414 53.7912 62.5863C53.7786 62.6305 53.7439 62.6294 53.7073 62.6302C53.2336 62.64 52.7598 62.6146 52.2858 62.6459C52.0349 62.6625 51.782 62.6504 51.5301 62.6479C51.455 62.6472 51.3796 62.6381 51.305 62.6276C51.2831 62.6245 51.2619 62.6055 51.2434 62.5901C51.1846 62.5411 51.1274 62.4903 51.0848 62.4535C51.0404 62.3705 51.118 62.3335 51.1173 62.2738C51.1171 62.2602 51.1482 62.2462 51.1631 62.2339C51.1765 62.1527 51.1627 62.065 51.2359 62.0019C51.2188 61.9293 51.2147 61.9053 51.2528 61.8737C51.2809 61.8504 51.2802 61.8286 51.2817 61.8011C51.2835 61.7665 51.2735 61.7215 51.2914 61.6998C51.3249 61.6591 51.3169 61.6174 51.3203 61.5742C51.3222 61.5503 51.3214 61.5154 51.3356 61.5056C51.3603 61.4887 51.3582 61.47 51.3583 61.4487C51.3587 61.3436 51.3588 61.2384 51.3581 61.1333C51.358 61.1181 51.3577 61.0931 51.3497 61.0895C51.3097 61.0712 51.3225 61.0375 51.3196 61.0078C51.3178 60.9894 51.3198 60.9596 51.3103 60.955C51.2751 60.9377 51.2823 60.9094 51.2817 60.882C51.2811 60.8599 51.2853 60.8358 51.2548 60.8291C51.2499 60.7711 51.1756 60.7456 51.1852 60.6809C51.1386 60.641 51.1072 60.591 51.0866 60.5338C51.0321 60.5398 51.0392 60.4857 51.0156 60.4615C50.9764 60.4215 50.9387 60.3794 50.8961 60.3433C50.8525 60.3062 50.7856 60.3009 50.7554 60.2437C50.7544 60.2417 50.7497 60.2403 50.7469 60.2406C50.6859 60.2453 50.6642 60.196 50.6273 60.1625C50.5994 60.1371 50.5851 60.0897 50.5398 60.0874C50.5066 60.0858 50.4917 60.0697 50.4738 60.0437C50.454 60.0151 50.423 59.98 50.393 59.9759C50.3444 59.9692 50.3215 59.9387 50.294 59.9095C50.2814 59.8961 50.2764 59.873 50.262 59.8644C50.1785 59.815 50.0978 59.7623 50.0382 59.6842C49.9852 59.6147 49.9011 59.5862 49.8401 59.5236C49.7532 59.4348 49.6627 59.3487 49.5755 59.2597C49.5495 59.2332 49.5103 59.2192 49.519 59.1709C49.52 59.1653 49.5098 59.1529 49.5031 59.1514C49.4456 59.1386 49.4598 59.0534 49.3964 59.0464C49.3924 59.046 49.3866 59.0299 49.3876 59.0218C49.3915 58.9876 49.3725 58.9682 49.3532 58.9419C49.3218 58.8993 49.2826 58.8596 49.2657 58.8074C49.2507 58.7607 49.2447 58.7101 49.1882 58.6893C49.1801 58.6864 49.1787 58.6613 49.1769 58.6461C49.1705 58.5928 49.1192 58.5516 49.1349 58.492C49.1359 58.4881 49.1292 58.4793 49.1242 58.4772C49.0649 58.4518 49.0803 58.4027 49.0844 58.3566C49.0856 58.3429 49.0882 58.3257 49.0816 58.3155C49.0575 58.2777 49.0643 58.2363 49.061 58.1956C49.056 58.1364 49.0475 58.0775 49.0406 58.0184C48.9785 57.9786 49.0064 57.9163 49.0053 57.8637C49.0019 57.714 49.0026 57.5642 49.0048 57.4144C49.0057 57.3564 48.9849 57.2924 49.0391 57.2441C49.0428 57.2409 49.0408 57.2319 49.0423 57.2258C49.0509 57.1915 49.031 57.1562 49.0611 57.1195C49.078 57.0988 49.0625 57.0515 49.0615 57.0161C49.0604 56.978 49.0562 56.9377 49.0828 56.9069C49.1073 56.8785 49.0674 56.8526 49.0844 56.828C49.1005 56.8047 49.1233 56.7853 49.136 56.7605C49.1438 56.7452 49.1331 56.7212 49.1394 56.7043C49.1543 56.6648 49.1647 56.6101 49.1947 56.5934C49.2305 56.5735 49.2426 56.5509 49.2537 56.5185C49.2647 56.486 49.2781 56.4542 49.2921 56.4229C49.2965 56.413 49.3049 56.4034 49.3139 56.3972C49.3638 56.363 49.3635 56.3632 49.3885 56.3054C49.3928 56.2953 49.4037 56.288 49.4114 56.2793C49.4465 56.24 49.4825 56.2016 49.5161 56.161C49.5274 56.1474 49.5382 56.1288 49.539 56.112C49.5407 56.0785 49.5538 56.0591 49.5858 56.0492C49.6006 56.0446 49.6165 56.0372 49.6268 56.0263C49.6673 55.9837 49.705 55.9386 49.7452 55.8958C49.7801 55.8587 49.8157 55.822 49.8533 55.7876C49.8914 55.7527 49.9295 55.7195 49.9783 55.6957C50.02 55.6754 50.0501 55.6315 50.0859 55.5987C50.09 55.595 50.0975 55.5936 50.1035 55.5935C50.1644 55.5924 50.1809 55.5437 50.2043 55.4987C50.237 55.4925 50.272 55.5032 50.3027 55.464C50.3281 55.4314 50.3863 55.4267 50.4213 55.3988C50.4679 55.3617 50.5258 55.3603 50.5758 55.3352C50.638 55.3039 50.6947 55.2596 50.7656 55.2467C50.7712 55.2457 50.7783 55.2417 50.7809 55.237C50.8069 55.1901 50.8513 55.19 50.896 55.1914C50.9414 55.1928 50.9812 55.1758 51.0205 55.1561C51.0368 55.148 51.0534 55.1371 51.0707 55.1347C51.1327 55.1263 51.1953 55.1218 51.2574 55.1139C51.2752 55.1116 51.2975 55.1078 51.3085 55.096C51.3725 55.0276 51.4511 55.0088 51.5405 55.0186C51.5595 55.0206 51.5791 55.0209 51.5978 55.0179C51.6081 55.0163 51.617 55.0063 51.6265 55V55Z" fill="#0000FF"/>
<path d="M57.9998 59.1494C57.9344 59.2272 57.8497 59.2473 57.7506 59.2466C57.3367 59.2436 56.9229 59.2461 56.509 59.2444C56.4468 59.2442 56.3837 59.2368 56.3227 59.2241C56.2779 59.2148 56.2449 59.1815 56.2396 59.1329C56.2368 59.1067 56.2307 59.0936 56.2025 59.0893C56.1915 59.0876 56.1774 59.0692 56.175 59.0564C56.1679 59.0198 56.1662 58.9822 56.1622 58.9449C56.1577 58.9028 56.1891 58.8856 56.2152 58.8621C56.2374 58.8422 56.2533 58.8152 56.274 58.7887C56.6016 58.7464 56.935 58.7739 57.2675 58.7672C57.4075 58.7643 57.5477 58.7645 57.6877 58.7675C57.7691 58.7694 57.8507 58.7772 57.9315 58.7876C57.9554 58.7907 57.9771 58.8116 57.9999 58.8243V59.1494L57.9998 59.1494Z" fill="#0000FF"/>
<path d="M56.2424 58.375C56.2356 58.3449 56.2455 58.3162 56.2076 58.3004C56.1701 58.2847 56.1566 58.2477 56.1617 58.2048C56.165 58.1765 56.1633 58.1475 56.1621 58.1189C56.1604 58.0815 56.172 58.0597 56.2066 58.0349C56.2579 57.9982 56.2949 57.9419 56.3396 57.8955C56.4049 57.8276 56.4716 57.761 56.5378 57.694C56.5592 57.6723 56.5798 57.6494 56.6029 57.6295C56.6239 57.6115 56.6477 57.5968 56.6706 57.5812C56.6755 57.5779 56.6871 57.5783 56.6875 57.5757C56.6968 57.5156 56.7557 57.4983 56.7868 57.4584C56.8513 57.3756 56.932 57.3105 57.0053 57.2374C57.0208 57.2219 57.0435 57.2115 57.0542 57.1936C57.1115 57.0986 57.2055 57.0462 57.3018 57.0165C57.3897 56.9894 57.494 56.9874 57.58 57.0315C57.6288 57.0565 57.6888 57.0976 57.6749 57.1756C57.6721 57.191 57.6715 57.208 57.675 57.2231C57.6935 57.3019 57.6485 57.3545 57.5964 57.3983C57.5377 57.4475 57.4839 57.5004 57.4334 57.5578C57.4076 57.5873 57.3753 57.6119 57.3431 57.6349C57.3072 57.6605 57.2773 57.688 57.2528 57.727C57.2244 57.7722 57.1808 57.8083 57.1427 57.8471C57.0611 57.9302 56.9824 58.0165 56.8952 58.0933C56.8514 58.1318 56.8093 58.172 56.7677 58.2124C56.7243 58.2547 56.6906 58.3074 56.6455 58.3475C56.6162 58.3736 56.5745 58.3994 56.5376 58.4006C56.4409 58.4038 56.3412 58.4217 56.2423 58.375L56.2424 58.375Z" fill="#0000FF"/>
<path d="M56.5877 59.627C56.6098 59.6485 56.6086 59.6759 56.6362 59.6956C56.6914 59.7348 56.758 59.7696 56.7786 59.8445C56.78 59.8492 56.7874 59.8538 56.7929 59.8556C56.8566 59.8764 56.8848 59.9348 56.9272 59.9788C56.9767 60.0301 57.0338 60.0742 57.0832 60.1255C57.1638 60.209 57.2559 60.2821 57.3171 60.3839C57.3305 60.4063 57.3602 60.4187 57.382 60.4363C57.4035 60.4534 57.4246 60.4712 57.4458 60.4888C57.4526 60.4944 57.4598 60.5055 57.466 60.5049C57.528 60.4994 57.5527 60.5511 57.5879 60.5848C57.6024 60.5986 57.6082 60.6216 57.6169 60.641C57.6218 60.652 57.6218 60.6722 57.6285 60.6743C57.6894 60.694 57.6736 60.7438 57.6741 60.786C57.6755 60.8907 57.6523 60.9291 57.559 60.9872C57.5495 60.9931 57.5432 61.0048 57.5368 61.0148C57.5233 61.0355 57.5051 61.0437 57.4804 61.0428C57.4454 61.0414 57.4103 61.0425 57.3753 61.0424C57.2677 61.0424 57.2685 61.0319 57.1915 60.9478C57.1423 60.8941 57.0959 60.8365 57.0427 60.7864C56.9685 60.7166 56.8887 60.6529 56.8155 60.5823C56.7893 60.557 56.765 60.5296 56.7377 60.5047C56.7084 60.4781 56.688 60.4422 56.6605 60.4134C56.6003 60.3506 56.5462 60.2814 56.4684 60.2368C56.4484 60.2253 56.4337 60.2016 56.4213 60.1807C56.4051 60.1532 56.3946 60.1233 56.3545 60.1221C56.3466 60.1219 56.3374 60.1064 56.332 60.0963C56.3037 60.0437 56.2604 60.0058 56.2142 59.9696C56.1978 59.9568 56.1822 59.9378 56.1757 59.9185C56.1523 59.8482 56.1565 59.7758 56.1726 59.7047C56.1768 59.6857 56.1862 59.6635 56.217 59.6646C56.2594 59.6663 56.2812 59.6111 56.3336 59.6251C56.3723 59.6354 56.4159 59.6271 56.4573 59.6271C56.5017 59.6271 56.5461 59.6271 56.5878 59.6271L56.5877 59.627Z" fill="#0000FF"/>
</svg>
