<svg width="88" height="88" viewBox="0 0 88 88" fill="none" xmlns="http://www.w3.org/2000/svg">
<circle cx="44" cy="44" r="43" stroke="#0000FF"/>
<mask id="path-2-outside-1_98_904" maskUnits="userSpaceOnUse" x="57.1578" y="36.3158" width="14" height="15" fill="black">
<rect fill="white" x="57.1578" y="36.3158" width="14" height="15"/>
<path d="M62.0207 37.0967C62.305 37.0967 62.5453 37.1948 62.7416 37.3911C62.9379 37.5874 63.036 37.8277 63.036 38.112C63.036 38.3895 62.9345 38.6298 62.7314 38.8328C62.5351 39.0291 62.2982 39.1273 62.0207 39.1273C61.7432 39.1273 61.5029 39.0291 61.2998 38.8328C61.1036 38.6298 61.0054 38.3895 61.0054 38.112C61.0054 37.8277 61.1036 37.5874 61.2998 37.3911C61.4961 37.1948 61.7364 37.0967 62.0207 37.0967ZM62.1527 41.1274L60.1424 48.2446C60.007 48.7252 59.9394 49.0128 59.9394 49.1076C59.9394 49.2159 59.9698 49.3039 60.0307 49.3716C60.0984 49.4393 60.1763 49.4731 60.2642 49.4731C60.3658 49.4731 60.4876 49.419 60.6298 49.3107C61.0156 49.0061 61.4048 48.5729 61.7973 48.0111L62.1527 48.2446C61.6924 48.9485 61.1509 49.5408 60.5282 50.0214C60.068 50.3801 59.628 50.5595 59.2083 50.5595C58.9308 50.5595 58.7041 50.4782 58.5281 50.3158C58.3521 50.1466 58.2641 49.9368 58.2641 49.6863C58.2641 49.4359 58.3487 49.0196 58.5179 48.4375L59.8378 43.889C60.0544 43.1444 60.1627 42.6774 60.1627 42.4879C60.1627 42.339 60.1086 42.2171 60.0003 42.1224C59.8987 42.0276 59.7566 41.9802 59.5738 41.9802C59.4249 41.9802 59.117 42.0175 58.6499 42.0919V41.6959L62.1527 41.1274ZM68.5592 38.6095L67.7673 41.3711H69.3613L69.1887 42.0107H67.6048L65.8585 48.0009C65.669 48.6439 65.5742 49.0602 65.5742 49.2497C65.5742 49.3648 65.6013 49.4528 65.6555 49.5137C65.7096 49.5746 65.7739 49.6051 65.8484 49.6051C66.0176 49.6051 66.2409 49.4866 66.5185 49.2497C66.6809 49.1144 67.043 48.6981 67.6048 48.0009L67.9399 48.2547C67.3172 49.1617 66.7283 49.8014 66.1733 50.1737C65.7942 50.4309 65.4118 50.5595 65.026 50.5595C64.7282 50.5595 64.4845 50.4681 64.295 50.2853C64.1054 50.0958 64.0107 49.8555 64.0107 49.5645C64.0107 49.199 64.119 48.6406 64.3356 47.8892L66.0311 42.0107H64.498L64.5996 41.6147C65.3441 41.4117 65.9634 41.1105 66.4575 40.7111C66.9517 40.305 67.5033 39.6044 68.1125 38.6095H68.5592Z"/>
</mask>
<path d="M62.0207 37.0967C62.305 37.0967 62.5453 37.1948 62.7416 37.3911C62.9379 37.5874 63.036 37.8277 63.036 38.112C63.036 38.3895 62.9345 38.6298 62.7314 38.8328C62.5351 39.0291 62.2982 39.1273 62.0207 39.1273C61.7432 39.1273 61.5029 39.0291 61.2998 38.8328C61.1036 38.6298 61.0054 38.3895 61.0054 38.112C61.0054 37.8277 61.1036 37.5874 61.2998 37.3911C61.4961 37.1948 61.7364 37.0967 62.0207 37.0967ZM62.1527 41.1274L60.1424 48.2446C60.007 48.7252 59.9394 49.0128 59.9394 49.1076C59.9394 49.2159 59.9698 49.3039 60.0307 49.3716C60.0984 49.4393 60.1763 49.4731 60.2642 49.4731C60.3658 49.4731 60.4876 49.419 60.6298 49.3107C61.0156 49.0061 61.4048 48.5729 61.7973 48.0111L62.1527 48.2446C61.6924 48.9485 61.1509 49.5408 60.5282 50.0214C60.068 50.3801 59.628 50.5595 59.2083 50.5595C58.9308 50.5595 58.7041 50.4782 58.5281 50.3158C58.3521 50.1466 58.2641 49.9368 58.2641 49.6863C58.2641 49.4359 58.3487 49.0196 58.5179 48.4375L59.8378 43.889C60.0544 43.1444 60.1627 42.6774 60.1627 42.4879C60.1627 42.339 60.1086 42.2171 60.0003 42.1224C59.8987 42.0276 59.7566 41.9802 59.5738 41.9802C59.4249 41.9802 59.117 42.0175 58.6499 42.0919V41.6959L62.1527 41.1274ZM68.5592 38.6095L67.7673 41.3711H69.3613L69.1887 42.0107H67.6048L65.8585 48.0009C65.669 48.6439 65.5742 49.0602 65.5742 49.2497C65.5742 49.3648 65.6013 49.4528 65.6555 49.5137C65.7096 49.5746 65.7739 49.6051 65.8484 49.6051C66.0176 49.6051 66.2409 49.4866 66.5185 49.2497C66.6809 49.1144 67.043 48.6981 67.6048 48.0009L67.9399 48.2547C67.3172 49.1617 66.7283 49.8014 66.1733 50.1737C65.7942 50.4309 65.4118 50.5595 65.026 50.5595C64.7282 50.5595 64.4845 50.4681 64.295 50.2853C64.1054 50.0958 64.0107 49.8555 64.0107 49.5645C64.0107 49.199 64.119 48.6406 64.3356 47.8892L66.0311 42.0107H64.498L64.5996 41.6147C65.3441 41.4117 65.9634 41.1105 66.4575 40.7111C66.9517 40.305 67.5033 39.6044 68.1125 38.6095H68.5592Z" fill="#0000FF"/>
<path d="M61.2998 38.8328L60.8268 39.2901L60.8346 39.2981L60.8426 39.3058L61.2998 38.8328ZM62.1527 41.1274L62.7858 41.3062L63.0665 40.3126L62.0473 40.478L62.1527 41.1274ZM60.1424 48.2446L59.5093 48.0658L59.5092 48.0662L60.1424 48.2446ZM60.0307 49.3716L59.5417 49.8117L59.5533 49.8245L59.5655 49.8368L60.0307 49.3716ZM60.6298 49.3107L61.0285 49.834L61.0374 49.827L60.6298 49.3107ZM61.7973 48.0111L62.1586 47.4613L61.6243 47.1101L61.2581 47.6342L61.7973 48.0111ZM62.1527 48.2446L62.7033 48.6046L63.0625 48.0553L62.514 47.6948L62.1527 48.2446ZM60.5282 50.0214L60.1263 49.5005L60.1238 49.5025L60.5282 50.0214ZM58.5281 50.3158L58.072 50.7901L58.0819 50.7992L58.5281 50.3158ZM58.5179 48.4375L59.1497 48.6211L59.1498 48.6208L58.5179 48.4375ZM59.8378 43.889L59.2061 43.7052L59.206 43.7056L59.8378 43.889ZM60.0003 42.1224L59.5514 42.6033L59.5591 42.6105L59.567 42.6175L60.0003 42.1224ZM58.6499 42.0919H57.992V42.863L58.7535 42.7416L58.6499 42.0919ZM58.6499 41.6959L58.5445 41.0466L57.992 41.1362V41.6959H58.6499ZM62.0207 37.7546C62.1352 37.7546 62.2067 37.7867 62.2764 37.8563L63.2068 36.9259C62.8838 36.6029 62.4748 36.4388 62.0207 36.4388V37.7546ZM62.2764 37.8563C62.346 37.9259 62.3781 37.9975 62.3781 38.112H63.6939C63.6939 37.6579 63.5297 37.2489 63.2068 36.9259L62.2764 37.8563ZM62.3781 38.112C62.3781 38.2083 62.3507 38.2831 62.2662 38.3676L63.1966 39.298C63.5183 38.9764 63.6939 38.5706 63.6939 38.112H62.3781ZM62.2662 38.3676C62.1933 38.4406 62.1237 38.4694 62.0207 38.4694V39.7852C62.4728 39.7852 62.877 39.6176 63.1966 39.298L62.2662 38.3676ZM62.0207 38.4694C61.9172 38.4694 61.8399 38.4398 61.7571 38.3598L60.8426 39.3058C61.1659 39.6184 61.5692 39.7852 62.0207 39.7852V38.4694ZM61.7729 38.3756C61.6928 38.2928 61.6633 38.2155 61.6633 38.112H60.3475C60.3475 38.5634 60.5143 38.9668 60.8268 39.2901L61.7729 38.3756ZM61.6633 38.112C61.6633 37.9975 61.6954 37.9259 61.7651 37.8563L60.8346 36.9259C60.5117 37.2489 60.3475 37.6579 60.3475 38.112H61.6633ZM61.7651 37.8563C61.8347 37.7867 61.9062 37.7546 62.0207 37.7546V36.4388C61.5666 36.4388 61.1576 36.6029 60.8346 36.9259L61.7651 37.8563ZM61.5196 40.9486L59.5093 48.0658L60.7755 48.4234L62.7858 41.3062L61.5196 40.9486ZM59.5092 48.0662C59.4404 48.3104 59.3867 48.5128 59.3497 48.6701C59.3194 48.7989 59.2815 48.9704 59.2815 49.1076H60.5972C60.5972 49.1444 60.5927 49.1557 60.5999 49.115C60.6054 49.0838 60.6151 49.0369 60.6305 48.9715C60.6612 48.8411 60.7091 48.6594 60.7757 48.423L59.5092 48.0662ZM59.2815 49.1076C59.2815 49.3459 59.3521 49.601 59.5417 49.8117L60.5197 48.9315C60.5494 48.9645 60.571 49.0024 60.5839 49.0396C60.5962 49.0751 60.5972 49.1002 60.5972 49.1076H59.2815ZM59.5655 49.8368C59.7446 50.0159 59.9856 50.131 60.2642 50.131V48.8152C60.3071 48.8152 60.3553 48.824 60.4022 48.8444C60.448 48.8643 60.4788 48.8893 60.4959 48.9064L59.5655 49.8368ZM60.2642 50.131C60.5837 50.131 60.8493 49.9705 61.0285 49.834L60.231 48.7873C60.2103 48.8032 60.194 48.8141 60.1822 48.8214C60.1702 48.8288 60.1644 48.8314 60.1646 48.8313C60.1647 48.8312 60.1731 48.8275 60.1892 48.8236C60.2055 48.8196 60.2311 48.8152 60.2642 48.8152V50.131ZM61.0374 49.827C61.4892 49.4704 61.9206 48.9833 62.3366 48.3879L61.2581 47.6342C60.889 48.1624 60.542 48.5418 60.2221 48.7943L61.0374 49.827ZM61.436 48.5609L61.7914 48.7944L62.514 47.6948L62.1586 47.4613L61.436 48.5609ZM61.6021 47.8846C61.1792 48.5312 60.6869 49.0679 60.1263 49.5005L60.9302 50.5422C61.615 50.0137 62.2056 49.3658 62.7033 48.6046L61.6021 47.8846ZM60.1238 49.5025C59.7347 49.8057 59.4337 49.9016 59.2083 49.9016V51.2174C59.8223 51.2174 60.4012 50.9545 60.9327 50.5403L60.1238 49.5025ZM59.2083 49.9016C59.0682 49.9016 59.0096 49.865 58.9743 49.8324L58.0819 50.7992C58.3985 51.0915 58.7935 51.2174 59.2083 51.2174V49.9016ZM58.9841 49.8416C58.9408 49.7999 58.922 49.763 58.922 49.6863H57.6062C57.6062 50.1105 57.7634 50.4932 58.0721 50.79L58.9841 49.8416ZM58.922 49.6863C58.922 49.5395 58.9802 49.2042 59.1497 48.6211L57.8862 48.2539C57.7173 48.835 57.6062 49.3323 57.6062 49.6863H58.922ZM59.1498 48.6208L60.4697 44.0723L59.206 43.7056L57.8861 48.2542L59.1498 48.6208ZM60.4695 44.0728C60.5794 43.695 60.6644 43.3791 60.7224 43.1289C60.7758 42.8985 60.8206 42.6669 60.8206 42.4879H59.5048C59.5048 42.4823 59.5046 42.5061 59.4933 42.575C59.4828 42.6385 59.4657 42.7233 59.4406 42.8317C59.3903 43.0485 59.3128 43.3384 59.2061 43.7052L60.4695 44.0728ZM60.8206 42.4879C60.8206 42.1568 60.6901 41.8518 60.4335 41.6273L59.567 42.6175C59.5551 42.6071 59.5356 42.5851 59.5209 42.552C59.5065 42.5195 59.5048 42.4947 59.5048 42.4879H60.8206ZM60.4492 41.6414C60.1913 41.4008 59.8692 41.3223 59.5738 41.3223V42.6381C59.6095 42.6381 59.6184 42.6429 59.6095 42.6399C59.6047 42.6383 59.596 42.6349 59.585 42.6285C59.5739 42.622 59.5623 42.6135 59.5514 42.6033L60.4492 41.6414ZM59.5738 41.3223C59.3634 41.3223 59.0025 41.3695 58.5464 41.4422L58.7535 42.7416C59.2315 42.6654 59.4865 42.6381 59.5738 42.6381V41.3223ZM59.3078 42.0919V41.6959H57.992V42.0919H59.3078ZM58.7553 42.3453L62.2581 41.7768L62.0473 40.478L58.5445 41.0466L58.7553 42.3453ZM68.5592 38.6095L69.1916 38.7908L69.4323 37.9516H68.5592V38.6095ZM67.7673 41.3711L67.1349 41.1897L66.8942 42.0289H67.7673V41.3711ZM69.3613 41.3711L69.9965 41.5425L70.2202 40.7132H69.3613V41.3711ZM69.1887 42.0107V42.6686H69.6926L69.8239 42.1821L69.1887 42.0107ZM67.6048 42.0107V41.3528H67.1113L66.9732 41.8266L67.6048 42.0107ZM65.8585 48.0009L66.4896 48.1869L66.4901 48.1851L65.8585 48.0009ZM66.5185 49.2497L66.0973 48.7443L66.0913 48.7494L66.5185 49.2497ZM67.6048 48.0009L68.0021 47.4765L67.4932 47.091L67.0926 47.5881L67.6048 48.0009ZM67.9399 48.2547L68.4822 48.6271L68.8376 48.1095L68.3371 47.7303L67.9399 48.2547ZM66.1733 50.1737L65.8068 49.6273L65.8039 49.6293L66.1733 50.1737ZM64.295 50.2853L63.8297 50.7506L63.8383 50.7589L64.295 50.2853ZM64.3356 47.8892L63.7035 47.7069L63.7034 47.707L64.3356 47.8892ZM66.0311 42.0107L66.6632 42.193L66.9056 41.3528H66.0311V42.0107ZM64.498 42.0107L63.8607 41.8473L63.6502 42.6686H64.498V42.0107ZM64.5996 41.6147L64.4265 40.98L64.0573 41.0807L63.9623 41.4513L64.5996 41.6147ZM66.4575 40.7111L66.8711 41.2228L66.8753 41.2194L66.4575 40.7111ZM68.1125 38.6095V37.9516H67.7439L67.5514 38.2659L68.1125 38.6095ZM67.9268 38.4281L67.1349 41.1897L68.3997 41.5524L69.1916 38.7908L67.9268 38.4281ZM67.7673 42.0289H69.3613V40.7132H67.7673V42.0289ZM68.7261 41.1997L68.5535 41.8393L69.8239 42.1821L69.9965 41.5425L68.7261 41.1997ZM69.1887 41.3528H67.6048V42.6686H69.1887V41.3528ZM66.9732 41.8266L65.2269 47.8168L66.4901 48.1851L68.2364 42.1948L66.9732 41.8266ZM65.2275 47.8149C65.1307 48.1431 65.0555 48.4225 65.0038 48.6494C64.9556 48.861 64.9163 49.075 64.9163 49.2497H66.2321C66.2321 49.2506 66.2326 49.2267 66.242 49.1668C66.2508 49.1104 66.2653 49.036 66.2868 48.9414C66.3299 48.752 66.3968 48.5017 66.4896 48.1869L65.2275 47.8149ZM64.9163 49.2497C64.9163 49.46 64.9656 49.7279 65.1637 49.9508L66.1472 49.0766C66.237 49.1777 66.2321 49.2697 66.2321 49.2497H64.9163ZM65.1637 49.9508C65.3295 50.1372 65.5669 50.263 65.8484 50.263V48.9472C65.9039 48.9472 65.966 48.9593 66.0259 48.9877C66.0845 49.0154 66.124 49.0506 66.1472 49.0766L65.1637 49.9508ZM65.8484 50.263C66.0805 50.263 66.2876 50.1841 66.451 50.0975C66.6193 50.0082 66.7849 49.8873 66.9456 49.7501L66.0913 48.7494C65.9745 48.8491 65.8896 48.9058 65.8346 48.935C65.7746 48.9668 65.7854 48.9472 65.8484 48.9472V50.263ZM66.9396 49.7551C67.0666 49.6493 67.2294 49.4734 67.4083 49.2678C67.597 49.0508 67.8338 48.7653 68.1171 48.4137L67.0926 47.5881C66.8141 47.9337 66.5889 48.2049 66.4155 48.4042C66.2323 48.6149 66.1327 48.7148 66.0973 48.7443L66.9396 49.7551ZM67.2076 48.5253L67.5426 48.7792L68.3371 47.7303L68.0021 47.4765L67.2076 48.5253ZM67.3975 47.8824C66.7954 48.7594 66.2623 49.3218 65.8068 49.6273L66.5397 50.72C67.1943 50.281 67.8389 49.5641 68.4822 48.6271L67.3975 47.8824ZM65.8039 49.6293C65.513 49.8266 65.257 49.9016 65.026 49.9016V51.2174C65.5666 51.2174 66.0755 51.0351 66.5427 50.718L65.8039 49.6293ZM65.026 49.9016C64.8743 49.9016 64.8021 49.8605 64.7516 49.8118L63.8383 50.7589C64.1668 51.0757 64.582 51.2174 65.026 51.2174V49.9016ZM64.7602 49.8201C64.7052 49.7652 64.6686 49.6976 64.6686 49.5645H63.3528C63.3528 50.0135 63.5056 50.4264 63.8298 50.7505L64.7602 49.8201ZM64.6686 49.5645C64.6686 49.2978 64.7534 48.815 64.9677 48.0715L63.7034 47.707C63.4846 48.4661 63.3528 49.1002 63.3528 49.5645H64.6686ZM64.9677 48.0716L66.6632 42.193L65.399 41.8284L63.7035 47.7069L64.9677 48.0716ZM66.0311 41.3528H64.498V42.6686H66.0311V41.3528ZM65.1353 42.1741L65.2368 41.7781L63.9623 41.4513L63.8607 41.8473L65.1353 42.1741ZM64.7727 42.2494C65.5866 42.0275 66.2927 41.6902 66.8711 41.2228L66.044 40.1994C65.6342 40.5307 65.1016 40.7959 64.4265 40.98L64.7727 42.2494ZM66.8753 41.2194C67.4548 40.743 68.0522 39.9678 68.6736 38.953L67.5514 38.2659C66.9544 39.241 66.4485 39.867 66.0398 40.2029L66.8753 41.2194ZM68.1125 39.2674H68.5592V37.9516H68.1125V39.2674Z" fill="#0000FF" mask="url(#path-2-outside-1_98_904)"/>
<mask id="path-4-outside-2_98_904" maskUnits="userSpaceOnUse" x="17" y="39" width="33" height="16" fill="black">
<rect fill="white" x="17" y="39" width="33" height="16"/>
<path d="M22.8038 39.8116C23.0339 40.2042 23.193 40.5731 23.281 40.9183C23.369 41.2567 23.457 41.9268 23.545 42.9285L23.9917 47.9238C24.3978 47.4364 24.9867 46.6648 25.7583 45.6089C26.1306 45.0945 26.5909 44.3939 27.1391 43.5073C27.4708 42.9658 27.6738 42.5867 27.7483 42.3701C27.7889 42.2618 27.8092 42.1501 27.8092 42.0351C27.8092 41.9606 27.7855 41.8997 27.7381 41.8523C27.6908 41.8049 27.5655 41.7508 27.3625 41.6899C27.1662 41.6222 27.0004 41.5037 26.865 41.3345C26.7364 41.1585 26.6721 40.9589 26.6721 40.7355C26.6721 40.458 26.7533 40.2346 26.9158 40.0654C27.0782 39.8962 27.2813 39.8116 27.5249 39.8116C27.8227 39.8116 28.0766 39.9368 28.2864 40.1872C28.4962 40.4309 28.6011 40.7693 28.6011 41.2025C28.6011 41.7373 28.4184 42.3498 28.0529 43.0402C27.6874 43.7239 26.9834 44.7764 25.9411 46.1978C24.8987 47.6192 23.6364 49.1692 22.154 50.8478C21.132 52.0053 20.3739 52.7329 19.8798 53.0307C19.3857 53.3353 18.9626 53.4876 18.6106 53.4876C18.4008 53.4876 18.2181 53.4064 18.0624 53.2439C17.8999 53.0883 17.8187 52.9055 17.8187 52.6957C17.8187 52.4317 17.9304 52.1914 18.1538 51.9748C18.3704 51.7582 18.6073 51.6499 18.8645 51.6499C18.9998 51.6499 19.1115 51.6804 19.1995 51.7413C19.2537 51.7751 19.3146 51.8699 19.3823 52.0256C19.4432 52.188 19.5007 52.2963 19.5549 52.3505C19.5887 52.3843 19.6293 52.4012 19.6767 52.4012C19.7173 52.4012 19.7884 52.3674 19.8899 52.2997C20.2622 52.0696 20.6954 51.7041 21.1895 51.2032C21.8393 50.5399 22.3199 49.9984 22.6312 49.5787L22.0626 43.1418C21.9679 42.0791 21.8257 41.4327 21.6362 41.2025C21.4467 40.9724 21.1286 40.8573 20.6818 40.8573C20.5397 40.8573 20.2859 40.8776 19.9204 40.9183L19.829 40.5426L22.8038 39.8116ZM38.48 39.8116L36.5001 46.6953L36.2768 47.6192C36.2565 47.7072 36.2463 47.7816 36.2463 47.8426C36.2463 47.9509 36.2801 48.0456 36.3478 48.1268C36.402 48.1878 36.4697 48.2182 36.5509 48.2182C36.6389 48.2182 36.754 48.1641 36.8961 48.0558C37.1601 47.8595 37.512 47.4534 37.952 46.8374L38.2972 47.0811C37.8302 47.785 37.3496 48.3231 36.8555 48.6954C36.3614 49.0609 35.9045 49.2437 35.4848 49.2437C35.1938 49.2437 34.9738 49.1692 34.8249 49.0203C34.6828 48.8782 34.6117 48.6683 34.6117 48.3908C34.6117 48.0592 34.6861 47.6226 34.835 47.0811L35.0483 46.3196C34.1616 47.4771 33.3459 48.2859 32.6014 48.7462C32.0667 49.0778 31.5421 49.2437 31.0277 49.2437C30.5336 49.2437 30.1072 49.0406 29.7484 48.6345C29.3897 48.2216 29.2103 47.6564 29.2103 46.939C29.2103 45.8627 29.5318 44.729 30.1748 43.5377C30.8246 42.3397 31.647 41.3819 32.642 40.6644C33.4204 40.0959 34.1548 39.8116 34.8452 39.8116C35.2581 39.8116 35.5999 39.9199 35.8706 40.1365C36.1482 40.3531 36.358 40.7118 36.5001 41.2127L36.8656 40.0553L38.48 39.8116ZM34.8655 40.3395C34.4323 40.3395 33.972 40.5426 33.4847 40.9487C32.7943 41.5241 32.1784 42.3769 31.6369 43.5073C31.1021 44.6376 30.8348 45.6597 30.8348 46.5734C30.8348 47.0337 30.9499 47.3992 31.18 47.67C31.4101 47.9339 31.6741 48.0659 31.9719 48.0659C32.7097 48.0659 33.5118 47.5211 34.3782 46.4313C35.5356 44.9828 36.1143 43.4971 36.1143 41.9742C36.1143 41.3988 36.0026 40.9826 35.7793 40.7254C35.5559 40.4681 35.2513 40.3395 34.8655 40.3395ZM43.7189 39.8116L43.0183 42.1468C43.7561 41.2804 44.4127 40.6746 44.988 40.3294C45.5701 39.9842 46.1623 39.8116 46.7648 39.8116C47.3672 39.8116 47.8816 40.0519 48.308 40.5324C48.7344 41.0063 48.9476 41.6256 48.9476 42.3904C48.9476 43.8795 48.3418 45.3957 47.1303 46.939C45.9187 48.4754 44.5074 49.2437 42.8965 49.2437C42.5581 49.2437 42.2568 49.2064 41.9929 49.132C41.7357 49.0575 41.4446 48.9255 41.1197 48.736L40.3786 51.3555C40.2296 51.8699 40.1552 52.2049 40.1552 52.3606C40.1552 52.5095 40.1924 52.6348 40.2669 52.7363C40.3481 52.8446 40.4767 52.9258 40.6527 52.98C40.8287 53.0409 41.1773 53.0713 41.6984 53.0713L41.6071 53.447H36.825L36.9266 53.0713C37.556 53.0443 37.9825 52.936 38.2058 52.7464C38.4224 52.5569 38.6526 52.0323 38.8962 51.1727L41.4649 42.2788C41.6206 41.717 41.6984 41.3684 41.6984 41.233C41.6984 41.0502 41.6443 40.9081 41.536 40.8066C41.4345 40.705 41.2754 40.6543 41.0588 40.6543C40.8625 40.6543 40.5884 40.678 40.2364 40.7254V40.3294L43.7189 39.8116ZM41.3532 47.9339C41.7729 48.4348 42.3381 48.6853 43.0488 48.6853C43.4007 48.6853 43.7595 48.5871 44.125 48.3908C44.4905 48.1945 44.8458 47.9035 45.191 47.5177C45.543 47.1319 45.8578 46.6885 46.1353 46.1876C46.4128 45.68 46.6598 45.0843 46.8764 44.4007C47.0998 43.7171 47.2115 43.0402 47.2115 42.3701C47.2115 41.8286 47.0863 41.4158 46.8358 41.1315C46.5922 40.8404 46.3045 40.6949 45.9728 40.6949C45.2418 40.6949 44.5176 41.1145 43.8001 41.9539C43.0894 42.7932 42.5682 43.7746 42.2365 44.8982L41.3532 47.9339Z"/>
</mask>
<path d="M22.8038 39.8116C23.0339 40.2042 23.193 40.5731 23.281 40.9183C23.369 41.2567 23.457 41.9268 23.545 42.9285L23.9917 47.9238C24.3978 47.4364 24.9867 46.6648 25.7583 45.6089C26.1306 45.0945 26.5909 44.3939 27.1391 43.5073C27.4708 42.9658 27.6738 42.5867 27.7483 42.3701C27.7889 42.2618 27.8092 42.1501 27.8092 42.0351C27.8092 41.9606 27.7855 41.8997 27.7381 41.8523C27.6908 41.8049 27.5655 41.7508 27.3625 41.6899C27.1662 41.6222 27.0004 41.5037 26.865 41.3345C26.7364 41.1585 26.6721 40.9589 26.6721 40.7355C26.6721 40.458 26.7533 40.2346 26.9158 40.0654C27.0782 39.8962 27.2813 39.8116 27.5249 39.8116C27.8227 39.8116 28.0766 39.9368 28.2864 40.1872C28.4962 40.4309 28.6011 40.7693 28.6011 41.2025C28.6011 41.7373 28.4184 42.3498 28.0529 43.0402C27.6874 43.7239 26.9834 44.7764 25.9411 46.1978C24.8987 47.6192 23.6364 49.1692 22.154 50.8478C21.132 52.0053 20.3739 52.7329 19.8798 53.0307C19.3857 53.3353 18.9626 53.4876 18.6106 53.4876C18.4008 53.4876 18.2181 53.4064 18.0624 53.2439C17.8999 53.0883 17.8187 52.9055 17.8187 52.6957C17.8187 52.4317 17.9304 52.1914 18.1538 51.9748C18.3704 51.7582 18.6073 51.6499 18.8645 51.6499C18.9998 51.6499 19.1115 51.6804 19.1995 51.7413C19.2537 51.7751 19.3146 51.8699 19.3823 52.0256C19.4432 52.188 19.5007 52.2963 19.5549 52.3505C19.5887 52.3843 19.6293 52.4012 19.6767 52.4012C19.7173 52.4012 19.7884 52.3674 19.8899 52.2997C20.2622 52.0696 20.6954 51.7041 21.1895 51.2032C21.8393 50.5399 22.3199 49.9984 22.6312 49.5787L22.0626 43.1418C21.9679 42.0791 21.8257 41.4327 21.6362 41.2025C21.4467 40.9724 21.1286 40.8573 20.6818 40.8573C20.5397 40.8573 20.2859 40.8776 19.9204 40.9183L19.829 40.5426L22.8038 39.8116ZM38.48 39.8116L36.5001 46.6953L36.2768 47.6192C36.2565 47.7072 36.2463 47.7816 36.2463 47.8426C36.2463 47.9509 36.2801 48.0456 36.3478 48.1268C36.402 48.1878 36.4697 48.2182 36.5509 48.2182C36.6389 48.2182 36.754 48.1641 36.8961 48.0558C37.1601 47.8595 37.512 47.4534 37.952 46.8374L38.2972 47.0811C37.8302 47.785 37.3496 48.3231 36.8555 48.6954C36.3614 49.0609 35.9045 49.2437 35.4848 49.2437C35.1938 49.2437 34.9738 49.1692 34.8249 49.0203C34.6828 48.8782 34.6117 48.6683 34.6117 48.3908C34.6117 48.0592 34.6861 47.6226 34.835 47.0811L35.0483 46.3196C34.1616 47.4771 33.3459 48.2859 32.6014 48.7462C32.0667 49.0778 31.5421 49.2437 31.0277 49.2437C30.5336 49.2437 30.1072 49.0406 29.7484 48.6345C29.3897 48.2216 29.2103 47.6564 29.2103 46.939C29.2103 45.8627 29.5318 44.729 30.1748 43.5377C30.8246 42.3397 31.647 41.3819 32.642 40.6644C33.4204 40.0959 34.1548 39.8116 34.8452 39.8116C35.2581 39.8116 35.5999 39.9199 35.8706 40.1365C36.1482 40.3531 36.358 40.7118 36.5001 41.2127L36.8656 40.0553L38.48 39.8116ZM34.8655 40.3395C34.4323 40.3395 33.972 40.5426 33.4847 40.9487C32.7943 41.5241 32.1784 42.3769 31.6369 43.5073C31.1021 44.6376 30.8348 45.6597 30.8348 46.5734C30.8348 47.0337 30.9499 47.3992 31.18 47.67C31.4101 47.9339 31.6741 48.0659 31.9719 48.0659C32.7097 48.0659 33.5118 47.5211 34.3782 46.4313C35.5356 44.9828 36.1143 43.4971 36.1143 41.9742C36.1143 41.3988 36.0026 40.9826 35.7793 40.7254C35.5559 40.4681 35.2513 40.3395 34.8655 40.3395ZM43.7189 39.8116L43.0183 42.1468C43.7561 41.2804 44.4127 40.6746 44.988 40.3294C45.5701 39.9842 46.1623 39.8116 46.7648 39.8116C47.3672 39.8116 47.8816 40.0519 48.308 40.5324C48.7344 41.0063 48.9476 41.6256 48.9476 42.3904C48.9476 43.8795 48.3418 45.3957 47.1303 46.939C45.9187 48.4754 44.5074 49.2437 42.8965 49.2437C42.5581 49.2437 42.2568 49.2064 41.9929 49.132C41.7357 49.0575 41.4446 48.9255 41.1197 48.736L40.3786 51.3555C40.2296 51.8699 40.1552 52.2049 40.1552 52.3606C40.1552 52.5095 40.1924 52.6348 40.2669 52.7363C40.3481 52.8446 40.4767 52.9258 40.6527 52.98C40.8287 53.0409 41.1773 53.0713 41.6984 53.0713L41.6071 53.447H36.825L36.9266 53.0713C37.556 53.0443 37.9825 52.936 38.2058 52.7464C38.4224 52.5569 38.6526 52.0323 38.8962 51.1727L41.4649 42.2788C41.6206 41.717 41.6984 41.3684 41.6984 41.233C41.6984 41.0502 41.6443 40.9081 41.536 40.8066C41.4345 40.705 41.2754 40.6543 41.0588 40.6543C40.8625 40.6543 40.5884 40.678 40.2364 40.7254V40.3294L43.7189 39.8116ZM41.3532 47.9339C41.7729 48.4348 42.3381 48.6853 43.0488 48.6853C43.4007 48.6853 43.7595 48.5871 44.125 48.3908C44.4905 48.1945 44.8458 47.9035 45.191 47.5177C45.543 47.1319 45.8578 46.6885 46.1353 46.1876C46.4128 45.68 46.6598 45.0843 46.8764 44.4007C47.0998 43.7171 47.2115 43.0402 47.2115 42.3701C47.2115 41.8286 47.0863 41.4158 46.8358 41.1315C46.5922 40.8404 46.3045 40.6949 45.9728 40.6949C45.2418 40.6949 44.5176 41.1145 43.8001 41.9539C43.0894 42.7932 42.5682 43.7746 42.2365 44.8982L41.3532 47.9339Z" fill="#0000FF"/>
<path d="M22.8038 39.8116L23.3714 39.4789L23.1233 39.0556L22.6468 39.1727L22.8038 39.8116ZM23.281 40.9183L22.6435 41.0808L22.6443 41.0838L23.281 40.9183ZM23.545 42.9285L22.8896 42.9861L22.8897 42.9871L23.545 42.9285ZM23.9917 47.9238L23.3364 47.9824L23.4782 49.5677L24.4971 48.345L23.9917 47.9238ZM25.7583 45.6089L26.2895 45.9971L26.2913 45.9946L25.7583 45.6089ZM27.1391 43.5073L27.6987 43.8533L27.7001 43.8509L27.1391 43.5073ZM27.7483 42.3701L27.1323 42.1391L27.1291 42.1477L27.1261 42.1563L27.7483 42.3701ZM27.3625 41.6899L27.148 42.3118L27.1606 42.3162L27.1734 42.32L27.3625 41.6899ZM26.865 41.3345L26.3338 41.7227L26.3423 41.7343L26.3513 41.7455L26.865 41.3345ZM28.2864 40.1872L27.7821 40.6098L27.7879 40.6165L28.2864 40.1872ZM28.0529 43.0402L28.6331 43.3504L28.6343 43.348L28.0529 43.0402ZM22.154 50.8478L21.6609 50.4124L21.6609 50.4124L22.154 50.8478ZM19.8798 53.0307L19.5401 52.4672L19.5345 52.4707L19.8798 53.0307ZM18.0624 53.2439L18.5374 52.7887L18.5277 52.7786L18.5176 52.7689L18.0624 53.2439ZM18.1538 51.9748L18.6118 52.4472L18.619 52.44L18.1538 51.9748ZM19.1995 51.7413L18.825 52.2822L18.8377 52.291L18.8508 52.2992L19.1995 51.7413ZM19.3823 52.0256L19.9983 51.7946L19.9923 51.7788L19.9856 51.7633L19.3823 52.0256ZM19.8899 52.2997L19.544 51.7401L19.5344 51.746L19.525 51.7523L19.8899 52.2997ZM21.1895 51.2032L21.6579 51.6652L21.6595 51.6636L21.1895 51.2032ZM22.6312 49.5787L23.1596 49.9707L23.3086 49.7699L23.2866 49.5208L22.6312 49.5787ZM22.0626 43.1418L22.718 43.0839L22.7179 43.0833L22.0626 43.1418ZM19.9204 40.9183L19.2811 41.0738L19.4179 41.636L19.993 41.5721L19.9204 40.9183ZM19.829 40.5426L19.672 39.9037L19.0346 40.0603L19.1897 40.6981L19.829 40.5426ZM22.2362 40.1443C22.4434 40.4976 22.5743 40.8092 22.6435 41.0808L23.9185 40.7558C23.8118 40.337 23.6245 39.9107 23.3714 39.4789L22.2362 40.1443ZM22.6443 41.0838C22.7163 41.3607 22.8009 41.9768 22.8896 42.9861L24.2003 42.871C24.113 41.8768 24.0217 41.1527 23.9177 40.7527L22.6443 41.0838ZM22.8897 42.9871L23.3364 47.9824L24.647 47.8652L24.2003 42.8699L22.8897 42.9871ZM24.4971 48.345C24.9173 47.8407 25.5163 47.0551 26.2895 45.9971L25.2271 45.2207C24.457 46.2746 23.8784 47.0322 23.4863 47.5026L24.4971 48.345ZM26.2913 45.9946C26.6769 45.4618 27.1466 44.7461 27.6987 43.8533L26.5796 43.1613C26.0351 44.0418 25.5843 44.7272 25.2253 45.2232L26.2913 45.9946ZM27.7001 43.8509C28.0276 43.3163 28.2691 42.8788 28.3705 42.584L27.1261 42.1563C27.0786 42.2946 26.914 42.6152 26.5781 43.1636L27.7001 43.8509ZM28.3643 42.6011C28.4325 42.4194 28.4671 42.2295 28.4671 42.0351H27.1513C27.1513 42.0708 27.1453 42.1043 27.1323 42.1391L28.3643 42.6011ZM28.4671 42.0351C28.4671 41.8074 28.3884 41.5721 28.2033 41.3871L27.2729 42.3175C27.2338 42.2784 27.2003 42.2287 27.1783 42.172C27.1567 42.1166 27.1513 42.0682 27.1513 42.0351H28.4671ZM28.2033 41.3871C28.0869 41.2707 27.9462 41.2054 27.8698 41.1723C27.7746 41.1312 27.6658 41.094 27.5515 41.0597L27.1734 42.32C27.2623 42.3467 27.3176 42.3671 27.3476 42.38C27.3622 42.3864 27.3629 42.3875 27.3544 42.3826C27.3498 42.3799 27.3402 42.374 27.3274 42.3646C27.3149 42.3554 27.2954 42.34 27.2729 42.3175L28.2033 41.3871ZM27.577 41.0679C27.5037 41.0427 27.4399 41 27.3787 40.9235L26.3513 41.7455C26.5608 42.0075 26.8287 42.2017 27.148 42.3118L27.577 41.0679ZM27.3962 40.9464C27.3521 40.886 27.33 40.823 27.33 40.7355H26.0142C26.0142 41.0947 26.1207 41.4311 26.3338 41.7227L27.3962 40.9464ZM27.33 40.7355C27.33 40.5946 27.3667 40.5457 27.3904 40.521L26.4412 39.6098C26.1399 39.9236 26.0142 40.3214 26.0142 40.7355H27.33ZM27.3904 40.521C27.4234 40.4866 27.4526 40.4695 27.5249 40.4695V39.1537C27.1099 39.1537 26.733 39.3058 26.4412 39.6098L27.3904 40.521ZM27.5249 40.4695C27.6077 40.4695 27.6835 40.4921 27.7821 40.6098L28.7907 39.7647C28.4696 39.3815 28.0378 39.1537 27.5249 39.1537V40.4695ZM27.7879 40.6165C27.8639 40.7048 27.9432 40.8718 27.9432 41.2025H29.259C29.259 40.6669 29.1286 40.157 28.7849 39.758L27.7879 40.6165ZM27.9432 41.2025C27.9432 41.5919 27.8082 42.0962 27.4714 42.7324L28.6343 43.348C29.0285 42.6034 29.259 41.8826 29.259 41.2025H27.9432ZM27.4727 42.73C27.1311 43.369 26.4517 44.389 25.4105 45.8087L26.4716 46.5868C27.5152 45.1637 28.2437 44.0787 28.6331 43.3504L27.4727 42.73ZM25.4105 45.8087C24.3826 47.2105 23.1334 48.7449 21.6609 50.4124L22.6472 51.2833C24.1393 49.5936 25.4148 48.0279 26.4716 46.5868L25.4105 45.8087ZM21.6609 50.4124C20.6328 51.5767 19.9358 52.2288 19.5401 52.4673L20.2194 53.5942C20.8119 53.237 21.6312 52.4339 22.6472 51.2833L21.6609 50.4124ZM19.5345 52.4707C19.0839 52.7485 18.7853 52.8297 18.6106 52.8297V54.1455C19.14 54.1455 19.6875 53.9221 20.225 53.5908L19.5345 52.4707ZM18.6106 52.8297C18.5932 52.8297 18.5865 52.8269 18.5834 52.8255C18.5793 52.8237 18.5635 52.8159 18.5374 52.7887L17.5874 53.6991C17.8572 53.9806 18.2075 54.1455 18.6106 54.1455V52.8297ZM18.5176 52.7689C18.4904 52.7429 18.4827 52.727 18.4808 52.7229C18.4794 52.7198 18.4766 52.7132 18.4766 52.6957H17.1608C17.1608 53.0988 17.3257 53.4492 17.6072 53.7189L18.5176 52.7689ZM18.4766 52.6957C18.4766 52.6414 18.4915 52.5637 18.6118 52.4471L17.6958 51.5025C17.3693 51.8191 17.1608 52.222 17.1608 52.6957H18.4766ZM18.619 52.44C18.7375 52.3215 18.8145 52.3078 18.8645 52.3078V50.992C18.4 50.992 18.0033 51.1949 17.6886 51.5096L18.619 52.44ZM18.8645 52.3078C18.8833 52.3078 18.8858 52.31 18.8767 52.3075C18.8664 52.3047 18.8472 52.2975 18.825 52.2822L19.574 51.2004C19.35 51.0453 19.0981 50.992 18.8645 50.992V52.3078ZM18.8508 52.2992C18.823 52.2818 18.8014 52.2647 18.7859 52.251C18.7702 52.2373 18.7587 52.2253 18.7511 52.2168C18.7365 52.2005 18.7307 52.1908 18.7324 52.1935C18.7337 52.1956 18.7389 52.2039 18.7475 52.2208C18.756 52.2373 18.7665 52.2594 18.7789 52.2879L19.9856 51.7633C19.944 51.6675 19.8958 51.57 19.8392 51.482C19.7905 51.4062 19.6982 51.2772 19.5482 51.1834L18.8508 52.2992ZM18.7663 52.2566C18.8287 52.4231 18.9263 52.6523 19.0897 52.8157L20.0201 51.8853C20.0417 51.9069 20.0531 51.9231 20.0558 51.927C20.0589 51.9315 20.0575 51.9301 20.0521 51.92C20.0409 51.8988 20.0225 51.8591 19.9983 51.7946L18.7663 52.2566ZM19.0897 52.8157C19.2455 52.9715 19.4529 53.0591 19.6767 53.0591V51.7433C19.7331 51.7433 19.7979 51.7538 19.8637 51.7813C19.9295 51.8086 19.9816 51.8468 20.0201 51.8853L19.0897 52.8157ZM19.6767 53.0591C19.8493 53.0591 19.9872 52.9966 20.0433 52.9698C20.1183 52.9341 20.1905 52.89 20.2549 52.8471L19.525 51.7523C19.4879 51.7771 19.4737 51.7837 19.4776 51.7819C19.4801 51.7807 19.4958 51.7732 19.5221 51.7653C19.5454 51.7582 19.6008 51.7433 19.6767 51.7433V53.0591ZM20.2359 52.8593C20.6712 52.5902 21.1463 52.1838 21.6579 51.6652L20.7211 50.7412C20.2445 51.2244 19.8532 51.549 19.544 51.7401L20.2359 52.8593ZM21.6595 51.6636C22.3168 50.9925 22.8217 50.4261 23.1596 49.9707L22.1029 49.1867C21.818 49.5706 21.3618 50.0872 20.7195 50.7428L21.6595 51.6636ZM23.2866 49.5208L22.718 43.0839L21.4073 43.1996L21.9759 49.6366L23.2866 49.5208ZM22.7179 43.0833C22.6694 42.5387 22.6071 42.0805 22.5275 41.7187C22.455 41.389 22.3473 41.031 22.1441 40.7843L21.1284 41.6208C21.1147 41.6042 21.1728 41.6845 21.2424 42.0012C21.305 42.2858 21.3612 42.6821 21.4074 43.2002L22.7179 43.0833ZM22.1441 40.7843C21.7775 40.3392 21.2252 40.1994 20.6818 40.1994V41.5152C21.032 41.5152 21.1159 41.6056 21.1284 41.6208L22.1441 40.7843ZM20.6818 40.1994C20.4987 40.1994 20.2112 40.224 19.8477 40.2644L19.993 41.5721C20.3605 41.5313 20.5807 41.5152 20.6818 41.5152V40.1994ZM20.5596 40.7628L20.4683 40.3871L19.1897 40.6981L19.2811 41.0738L20.5596 40.7628ZM19.986 41.1815L22.9608 40.4505L22.6468 39.1727L19.672 39.9037L19.986 41.1815ZM38.48 39.8116L39.1122 39.9934L39.3956 39.008L38.3818 39.1611L38.48 39.8116ZM36.5001 46.6953L35.8679 46.5134L35.864 46.527L35.8607 46.5407L36.5001 46.6953ZM36.2768 47.6192L35.6373 47.4646L35.6357 47.4713L36.2768 47.6192ZM36.3478 48.1268L35.8424 48.548L35.8491 48.5561L35.8561 48.5639L36.3478 48.1268ZM36.8961 48.0558L36.5035 47.5278L36.4974 47.5325L36.8961 48.0558ZM37.952 46.8374L38.3314 46.2999L37.7969 45.9227L37.4166 46.455L37.952 46.8374ZM38.2972 47.0811L38.8454 47.4448L39.1988 46.9122L38.6766 46.5436L38.2972 47.0811ZM36.8555 48.6954L37.2467 49.2243L37.2514 49.2209L36.8555 48.6954ZM34.835 47.0811L34.2015 46.9037L34.2007 46.9066L34.835 47.0811ZM35.0483 46.3196L35.6818 46.497L34.526 45.9195L35.0483 46.3196ZM32.6014 48.7462L32.2555 48.1866L32.2546 48.1871L32.6014 48.7462ZM29.7484 48.6345L29.2518 49.066L29.2553 49.07L29.7484 48.6345ZM30.1748 43.5377L29.5965 43.2241L29.5959 43.2252L30.1748 43.5377ZM32.642 40.6644L33.0268 41.1981L33.0301 41.1957L32.642 40.6644ZM35.8706 40.1365L35.4596 40.6502L35.4659 40.6551L35.8706 40.1365ZM36.5001 41.2127L35.8672 41.3923L36.4665 43.504L37.1275 41.4108L36.5001 41.2127ZM36.8656 40.0553L36.7674 39.4047L36.3618 39.466L36.2383 39.8571L36.8656 40.0553ZM31.6369 43.5073L31.0435 43.223L31.0422 43.2259L31.6369 43.5073ZM31.18 47.67L30.6787 48.0961L30.6841 48.1023L31.18 47.67ZM34.3782 46.4313L33.8642 46.0206L33.8632 46.0219L34.3782 46.4313ZM37.8477 39.6297L35.8679 46.5134L37.1324 46.8771L39.1122 39.9934L37.8477 39.6297ZM35.8607 46.5407L35.6373 47.4646L36.9162 47.7738L37.1396 46.8499L35.8607 46.5407ZM35.6357 47.4713C35.609 47.5869 35.5884 47.7142 35.5884 47.8426H36.9042C36.9042 47.8478 36.9038 47.8442 36.9058 47.8299C36.9077 47.816 36.9113 47.7954 36.9178 47.7671L35.6357 47.4713ZM35.5884 47.8426C35.5884 48.1007 35.6736 48.3455 35.8424 48.548L36.8532 47.7057C36.8664 47.7214 36.8809 47.7445 36.8913 47.7736C36.9016 47.8025 36.9042 47.8271 36.9042 47.8426H35.5884ZM35.8561 48.5639C36.0346 48.7647 36.281 48.8761 36.5509 48.8761V47.5603C36.5945 47.5603 36.6504 47.569 36.7092 47.5954C36.7679 47.6219 36.8111 47.6578 36.8396 47.6898L35.8561 48.5639ZM36.5509 48.8761C36.8706 48.8761 37.1363 48.6998 37.2948 48.5791L36.4974 47.5325C36.4746 47.5498 36.4566 47.5622 36.4433 47.5706C36.4367 47.5748 36.4316 47.5777 36.4281 47.5797C36.4246 47.5816 36.4229 47.5824 36.4231 47.5823C36.4232 47.5823 36.4257 47.5811 36.4303 47.5794C36.4349 47.5776 36.4424 47.5751 36.4524 47.5724C36.472 47.5672 36.5059 47.5603 36.5509 47.5603V48.8761ZM37.2887 48.5837C37.6428 48.3204 38.0458 47.838 38.4874 47.2198L37.4166 46.455C36.9783 47.0687 36.6773 47.3986 36.5035 47.5278L37.2887 48.5837ZM37.5726 47.3749L37.9178 47.6186L38.6766 46.5436L38.3314 46.2999L37.5726 47.3749ZM37.749 46.7174C37.3092 47.3803 36.8768 47.8556 36.4596 48.17L37.2514 49.2209C37.8224 48.7906 38.3512 48.1898 38.8454 47.4448L37.749 46.7174ZM36.4642 48.1665C36.033 48.4855 35.7117 48.5858 35.4848 48.5858V49.9016C36.0972 49.9016 36.6898 49.6363 37.2467 49.2243L36.4642 48.1665ZM35.4848 48.5858C35.3937 48.5858 35.3398 48.5739 35.3125 48.5647C35.2883 48.5565 35.286 48.551 35.2901 48.5551L34.3597 49.4855C34.6729 49.7987 35.0873 49.9016 35.4848 49.9016V48.5858ZM35.2901 48.5551C35.2975 48.5625 35.2946 48.5644 35.2881 48.5453C35.2806 48.523 35.2696 48.4751 35.2696 48.3908H33.9538C33.9538 48.7751 34.0534 49.1792 34.3597 49.4855L35.2901 48.5551ZM35.2696 48.3908C35.2696 48.1449 35.3269 47.7737 35.4694 47.2555L34.2007 46.9066C34.0454 47.4715 33.9538 47.9734 33.9538 48.3908H35.2696ZM35.4686 47.2585L35.6818 46.497L34.4147 46.1422L34.2015 46.9037L35.4686 47.2585ZM34.526 45.9195C33.6599 47.05 32.9016 47.7871 32.2555 48.1866L32.9473 49.3058C33.7903 48.7847 34.6632 47.9041 35.5705 46.7197L34.526 45.9195ZM32.2546 48.1871C31.8008 48.4686 31.3948 48.5858 31.0277 48.5858V49.9016C31.6894 49.9016 32.3326 49.6871 32.9482 49.3053L32.2546 48.1871ZM31.0277 48.5858C30.7418 48.5858 30.4889 48.479 30.2415 48.1989L29.2553 49.07C29.7254 49.6022 30.3254 49.9016 31.0277 49.9016V48.5858ZM30.245 48.203C30.0191 47.943 29.8682 47.5482 29.8682 46.939H28.5524C28.5524 47.7647 28.7602 48.5002 29.2518 49.066L30.245 48.203ZM29.8682 46.939C29.8682 45.9964 30.1495 44.9698 30.7538 43.8502L29.5959 43.2252C28.9142 44.4882 28.5524 45.729 28.5524 46.939H29.8682ZM30.7532 43.8514C31.3611 42.7305 32.1206 41.8515 33.0268 41.1981L32.2572 40.1308C31.1735 40.9123 30.2882 41.9488 29.5965 43.2241L30.7532 43.8514ZM33.0301 41.1957C33.7393 40.6777 34.3399 40.4695 34.8452 40.4695V39.1537C33.9697 39.1537 33.1015 39.5141 32.254 40.1332L33.0301 41.1957ZM34.8452 40.4695C35.1383 40.4695 35.3268 40.5439 35.4597 40.6502L36.2816 39.6228C35.873 39.2959 35.3778 39.1537 34.8452 39.1537V40.4695ZM35.4659 40.6551C35.5919 40.7535 35.7458 40.9645 35.8672 41.3923L37.133 41.0331C36.9702 40.4592 36.7044 39.9527 36.2754 39.6179L35.4659 40.6551ZM37.1275 41.4108L37.493 40.2534L36.2383 39.8571L35.8728 41.0146L37.1275 41.4108ZM36.9638 40.7058L38.5781 40.4621L38.3818 39.1611L36.7674 39.4047L36.9638 40.7058ZM34.8655 39.6816C34.2209 39.6816 33.6157 39.9831 33.0635 40.4433L33.9059 41.4541C34.3284 41.1021 34.6437 40.9974 34.8655 40.9974V39.6816ZM33.0635 40.4433C32.2778 41.0981 31.6108 42.0389 31.0435 43.223L32.2302 43.7915C32.7459 42.7149 33.3108 41.95 33.9059 41.4541L33.0635 40.4433ZM31.0422 43.2259C30.4803 44.4137 30.1769 45.5334 30.1769 46.5734H31.4927C31.4927 45.7859 31.724 44.8616 32.2316 43.7886L31.0422 43.2259ZM30.1769 46.5734C30.1769 47.1428 30.3207 47.6749 30.6787 48.096L31.6813 47.2439C31.579 47.1236 31.4927 46.9246 31.4927 46.5734H30.1769ZM30.6841 48.1023C31.0149 48.4818 31.45 48.7238 31.9719 48.7238V47.408C31.8982 47.408 31.8053 47.3861 31.6759 47.2376L30.6841 48.1023ZM31.9719 48.7238C33.0313 48.7238 34.0044 47.9586 34.8931 46.8407L33.8632 46.0219C33.0192 47.0835 32.3881 47.408 31.9719 47.408V48.7238ZM34.8921 46.842C36.1218 45.3031 36.7722 43.6767 36.7722 41.9742H35.4564C35.4564 43.3175 34.9494 44.6626 33.8642 46.0206L34.8921 46.842ZM36.7722 41.9742C36.7722 41.3409 36.6543 40.7296 36.276 40.294L35.2825 41.1567C35.3509 41.2355 35.4564 41.4567 35.4564 41.9742H36.7722ZM36.276 40.294C35.9103 39.8729 35.4137 39.6816 34.8655 39.6816V40.9974C35.0889 40.9974 35.2015 41.0634 35.2825 41.1567L36.276 40.294ZM43.7189 39.8116L44.349 40.0006L44.6467 39.0085L43.6221 39.1608L43.7189 39.8116ZM43.0183 42.1468L42.3882 41.9577L43.5192 42.5733L43.0183 42.1468ZM44.988 40.3294L44.6524 39.7635L44.6495 39.7652L44.988 40.3294ZM48.308 40.5324L47.8159 40.9691L47.819 40.9726L48.308 40.5324ZM47.1303 46.939L47.6469 47.3463L47.6477 47.3452L47.1303 46.939ZM41.9929 49.132L41.8099 49.764L41.8143 49.7652L41.9929 49.132ZM41.1197 48.736L41.4512 48.1677L40.7178 47.7399L40.4867 48.5569L41.1197 48.736ZM40.3786 51.3555L41.0105 51.5384L41.0116 51.5346L40.3786 51.3555ZM40.2669 52.7363L39.7363 53.1254L39.7406 53.131L40.2669 52.7363ZM40.6527 52.98L40.8679 52.3583L40.8571 52.3545L40.8462 52.3512L40.6527 52.98ZM41.6984 53.0713L42.3377 53.2268L42.5355 52.4134H41.6984V53.0713ZM41.6071 53.447V54.1049H42.1241L42.2463 53.6025L41.6071 53.447ZM36.825 53.447L36.1899 53.2753L35.9657 54.1049H36.825V53.447ZM36.9266 53.0713L36.8983 52.414L36.4171 52.4347L36.2914 52.8997L36.9266 53.0713ZM38.2058 52.7464L38.6315 53.2481L38.6391 53.2416L38.2058 52.7464ZM38.8962 51.1727L38.2642 50.9902L38.2633 50.9933L38.8962 51.1727ZM41.4649 42.2788L42.097 42.4613L42.0989 42.4544L41.4649 42.2788ZM41.536 40.8066L41.0708 41.2718L41.0783 41.2793L41.086 41.2865L41.536 40.8066ZM40.2364 40.7254H39.5785V41.4777L40.3242 41.3774L40.2364 40.7254ZM40.2364 40.3294L40.1397 39.6786L39.5785 39.7621V40.3294H40.2364ZM41.3532 47.9339L40.7215 47.7501L40.6234 48.0873L40.8489 48.3565L41.3532 47.9339ZM45.191 47.5177L44.705 47.0743L44.7008 47.079L45.191 47.5177ZM46.1353 46.1876L46.7107 46.5065L46.7125 46.5032L46.1353 46.1876ZM46.8764 44.4007L46.251 44.1964L46.2493 44.202L46.8764 44.4007ZM46.8358 41.1315L46.3314 41.5538L46.3367 41.5601L46.3422 41.5664L46.8358 41.1315ZM43.8001 41.9539L43.3 41.5264L43.298 41.5287L43.8001 41.9539ZM42.2365 44.8982L41.6056 44.712L41.6048 44.7144L42.2365 44.8982ZM43.0887 39.6225L42.3882 41.9577L43.6485 42.3358L44.349 40.0006L43.0887 39.6225ZM43.5192 42.5733C44.2382 41.729 44.8405 41.1851 45.3265 40.8935L44.6495 39.7652C43.9849 40.164 43.274 40.8318 42.5174 41.7202L43.5192 42.5733ZM45.3236 40.8953C45.8169 40.6027 46.2945 40.4695 46.7648 40.4695V39.1537C46.0302 39.1537 45.3233 39.3657 44.6524 39.7635L45.3236 40.8953ZM46.7648 40.4695C47.1653 40.4695 47.5049 40.6187 47.8159 40.9691L48.8001 40.0958C48.2582 39.4851 47.569 39.1537 46.7648 39.1537V40.4695ZM47.819 40.9726C48.1158 41.3023 48.2897 41.7539 48.2897 42.3904H49.6055C49.6055 41.4973 49.3531 40.7102 48.797 40.0923L47.819 40.9726ZM48.2897 42.3904C48.2897 43.6913 47.7624 45.0684 46.6128 46.5327L47.6477 47.3452C48.9213 45.723 49.6055 44.0678 49.6055 42.3904H48.2897ZM46.6137 46.5316C45.4971 47.9475 44.2624 48.5858 42.8965 48.5858V49.9016C44.7524 49.9016 46.3402 49.0033 47.6469 47.3463L46.6137 46.5316ZM42.8965 48.5858C42.6049 48.5858 42.3656 48.5536 42.1715 48.4988L41.8143 49.7652C42.1481 49.8593 42.5112 49.9016 42.8965 49.9016V48.5858ZM42.1758 48.5C41.9867 48.4453 41.7466 48.3401 41.4512 48.1677L40.7882 49.3043C41.1426 49.511 41.4846 49.6698 41.8099 49.7639L42.1758 48.5ZM40.4867 48.5569L39.7455 51.1764L41.0116 51.5346L41.7528 48.9151L40.4867 48.5569ZM39.7466 51.1725C39.6702 51.4366 39.6102 51.6636 39.5688 51.8499C39.5305 52.0221 39.4973 52.2052 39.4973 52.3606H40.8131C40.8131 52.3682 40.8127 52.3543 40.8196 52.3089C40.826 52.2667 40.8368 52.2095 40.8533 52.1353C40.8863 51.9866 40.938 51.7888 41.0105 51.5384L39.7466 51.1725ZM39.4973 52.3606C39.4973 52.6231 39.5648 52.8914 39.7363 53.1253L40.7974 52.3472C40.8016 52.3529 40.8052 52.359 40.8082 52.365C40.8111 52.371 40.8128 52.3758 40.8137 52.3787C40.8155 52.3848 40.8131 52.3803 40.8131 52.3606H39.4973ZM39.7406 53.131C39.9305 53.3843 40.1974 53.5282 40.4592 53.6088L40.8462 52.3512C40.8025 52.3377 40.7816 52.326 40.7756 52.3222C40.7706 52.3191 40.7802 52.3242 40.7932 52.3415L39.7406 53.131ZM40.4375 53.6017C40.7336 53.7042 41.1913 53.7292 41.6984 53.7292V52.4134C41.4487 52.4134 41.2519 52.4061 41.1034 52.3931C41.0295 52.3866 40.9724 52.3792 40.9299 52.3718C40.8857 52.3641 40.8677 52.3582 40.8679 52.3583L40.4375 53.6017ZM41.0592 52.9158L40.9678 53.2915L42.2463 53.6025L42.3377 53.2268L41.0592 52.9158ZM41.6071 52.7891H36.825V54.1049H41.6071V52.7891ZM37.4601 53.6186L37.5617 53.243L36.2914 52.8997L36.1899 53.2753L37.4601 53.6186ZM36.9548 53.7286C37.2971 53.7139 37.6092 53.6763 37.8804 53.6075C38.1462 53.54 38.4147 53.432 38.6315 53.2481L37.7802 52.2448C37.7735 52.2504 37.7172 52.2914 37.5565 52.3321C37.4014 52.3716 37.1855 52.4017 36.8983 52.414L36.9548 53.7286ZM38.6391 53.2416C38.8616 53.0469 39.0204 52.7553 39.1433 52.4752C39.2752 52.1746 39.4031 51.7968 39.5292 51.3521L38.2633 50.9933C38.1456 51.4083 38.0367 51.7226 37.9384 51.9466C37.8312 52.191 37.7667 52.2565 37.7726 52.2513L38.6391 53.2416ZM39.5283 51.3553L42.097 42.4613L40.8329 42.0962L38.2642 50.9902L39.5283 51.3553ZM42.0989 42.4544C42.1781 42.1686 42.2398 41.9291 42.2821 41.7393C42.3199 41.5703 42.3563 41.3828 42.3563 41.233H41.0405C41.0405 41.2185 41.0381 41.273 40.998 41.4526C40.9625 41.6115 40.9074 41.8271 40.8309 42.1031L42.0989 42.4544ZM42.3563 41.233C42.3563 40.9135 42.2566 40.5803 41.9859 40.3266L41.086 41.2865C41.0768 41.2779 41.0677 41.2673 41.0597 41.2553C41.0516 41.2433 41.0463 41.2322 41.043 41.2235C41.0365 41.2064 41.0405 41.206 41.0405 41.233H42.3563ZM42.0012 40.3414C41.7258 40.066 41.3624 39.9964 41.0588 39.9964V41.3122C41.0876 41.3122 41.1084 41.3139 41.1224 41.3158C41.1363 41.3177 41.1418 41.3195 41.1405 41.3191C41.1391 41.3187 41.1304 41.3157 41.1171 41.308C41.1035 41.3 41.0872 41.2882 41.0708 41.2718L42.0012 40.3414ZM41.0588 39.9964C40.8186 39.9964 40.5105 40.0246 40.1486 40.0733L40.3242 41.3774C40.6663 41.3313 40.9064 41.3122 41.0588 41.3122V39.9964ZM40.8943 40.7254V40.3294H39.5785V40.7254H40.8943ZM40.3332 40.9801L43.8156 40.4623L43.6221 39.1608L40.1397 39.6786L40.3332 40.9801ZM40.8489 48.3565C41.4055 49.0208 42.1628 49.3432 43.0488 49.3432V48.0274C42.5133 48.0274 42.1403 47.8489 41.8575 47.5114L40.8489 48.3565ZM43.0488 49.3432C43.5273 49.3432 43.9922 49.2089 44.4363 48.9704L43.8137 47.8112C43.5268 47.9653 43.2742 48.0274 43.0488 48.0274V49.3432ZM44.4363 48.9704C44.8835 48.7302 45.2973 48.3856 45.6813 47.9564L44.7008 47.079C44.3944 47.4213 44.0974 47.6589 43.8137 47.8112L44.4363 48.9704ZM45.6771 47.9611C46.0668 47.5339 46.4107 47.048 46.7107 46.5065L45.5598 45.8688C45.3048 46.3291 45.0193 46.7298 44.705 47.0743L45.6771 47.9611ZM46.7125 46.5032C47.0146 45.9507 47.2771 45.3143 47.5036 44.5994L46.2493 44.202C46.0426 44.8544 45.811 45.4093 45.558 45.8721L46.7125 46.5032ZM47.5018 44.605C47.7451 43.8603 47.8694 43.1145 47.8694 42.3701H46.5536C46.5536 42.9659 46.4545 43.5739 46.2511 44.1964L47.5018 44.605ZM47.8694 42.3701C47.8694 41.7365 47.7234 41.1437 47.3295 40.6966L46.3422 41.5664C46.4491 41.6878 46.5536 41.9208 46.5536 42.3701H47.8694ZM47.3403 40.7091C46.9918 40.2929 46.5286 40.037 45.9728 40.037V41.3528C46.0803 41.3528 46.1925 41.3879 46.3314 41.5538L47.3403 40.7091ZM45.9728 40.037C44.9685 40.037 44.078 40.6163 43.3 41.5264L44.3002 42.3813C44.9571 41.6128 45.5151 41.3528 45.9728 41.3528V40.037ZM43.298 41.5287C42.5244 42.4423 41.9614 43.5065 41.6056 44.712L42.8675 45.0845C43.175 44.0428 43.6544 43.144 44.3022 42.379L43.298 41.5287ZM41.6048 44.7144L40.7215 47.7501L41.9849 48.1177L42.8682 45.082L41.6048 44.7144Z" fill="#0000FF" mask="url(#path-4-outside-2_98_904)"/>
<path d="M56.0472 41.0107C55.8485 40.6532 55.5704 40.378 55.2141 40.1873C54.8616 39.9965 54.4972 39.9 54.1221 39.9C53.749 39.9 53.3856 39.9966 53.0331 40.1873C52.6769 40.378 52.3978 40.6532 52.1972 41.0106L52.1971 41.0108C51.9996 41.3641 51.9 41.735 51.9 42.1221C51.9 42.5072 51.9986 42.876 52.194 43.2273C52.3905 43.5807 52.6652 43.8565 53.0167 44.0532L53.0173 44.0535C53.3686 44.2468 53.7373 44.3443 54.1221 44.3443C54.507 44.3443 54.8757 44.2468 55.2269 44.0535L55.2273 44.0533C55.5809 43.8567 55.8567 43.5809 56.0533 43.2273C56.2487 42.876 56.3473 42.5072 56.3473 42.1221C56.3473 41.7349 56.2466 41.364 56.0472 41.0107ZM56.0472 41.0107C56.0472 41.0108 56.0473 41.0109 56.0474 41.011L55.9599 41.0596L56.047 41.0104C56.0471 41.0105 56.0471 41.0106 56.0472 41.0107ZM54.9956 43.645L54.9953 43.6451C54.7162 43.8008 54.4256 43.8779 54.1221 43.8779C53.8208 43.8779 53.5301 43.8009 53.2487 43.645C52.9697 43.4904 52.7537 43.2753 52.5992 42.9984C52.4434 42.7172 52.3664 42.4255 52.3664 42.1221C52.3664 41.819 52.4443 41.5263 52.6021 41.243C52.7607 40.9599 52.9785 40.7443 53.2567 40.5939C53.5407 40.4414 53.8288 40.3664 54.1221 40.3664C54.4176 40.3664 54.7057 40.4415 54.9875 40.5938L54.9877 40.5939C55.0689 40.6375 55.1448 40.6865 55.2154 40.7411H55.1248H55.0111H54.9216L54.9117 40.83C54.907 40.8723 54.8963 40.8835 54.8954 40.8843L54.8953 40.8843L54.8925 40.8871C54.8885 40.8911 54.8846 40.8937 54.8734 40.8937C54.8735 40.8937 54.8728 40.8937 54.8713 40.8936L54.8651 40.8928C54.8597 40.8919 54.8525 40.8904 54.8433 40.888C54.8248 40.8832 54.8008 40.8754 54.7709 40.8642L54.7709 40.8642L54.7696 40.8637C54.541 40.7813 54.3327 40.7381 54.1461 40.7381C53.7429 40.7381 53.4026 40.8707 53.1328 41.1382C52.8628 41.4061 52.7291 41.7468 52.7291 42.1521C52.7291 42.5349 52.8535 42.855 53.1062 43.1034L53.1068 43.104C53.3619 43.3503 53.6925 43.4703 54.0892 43.4703C54.506 43.4703 54.8507 43.3349 55.1134 43.0591L55.141 43.0302V42.9902V42.7806V42.5007L54.9637 42.7173C54.7529 42.9747 54.519 43.0937 54.2598 43.0937C54.0753 43.0937 53.9221 43.022 53.7945 42.8718C53.6741 42.7278 53.6026 42.4704 53.6026 42.0743C53.6026 41.7064 53.6752 41.4599 53.8002 41.3129L53.8006 41.3125C53.9302 41.1583 54.0863 41.0847 54.2748 41.0847C54.433 41.0847 54.5673 41.1344 54.6823 41.234L54.6823 41.234L54.6835 41.235C54.799 41.3318 54.8768 41.4678 54.913 41.6507L54.929 41.7313H55.0111H55.1248H55.2248V41.6313V40.8411V40.7484C55.394 40.8809 55.5328 41.0455 55.642 41.2427L55.6421 41.2429C55.7999 41.5263 55.8779 41.8189 55.8779 42.1221C55.8779 42.4255 55.8009 42.7172 55.6451 42.9984C55.4906 43.2753 55.2746 43.4904 54.9956 43.645ZM54.7477 41.1583C54.614 41.0426 54.4564 40.9847 54.2748 40.9847C54.0553 40.9847 53.8717 41.0725 53.7241 41.2481L54.7477 41.1583Z" fill="#0000FF" stroke="#0000FF" stroke-width="0.2"/>
</svg>
