<svg width="88" height="88" viewBox="0 0 88 88" fill="none" xmlns="http://www.w3.org/2000/svg">
<circle cx="44" cy="44" r="43" stroke="#0000FF"/>
<mask id="path-2-outside-1_98_982" maskUnits="userSpaceOnUse" x="24" y="24" width="30" height="39" fill="black">
<rect fill="white" x="24" y="24" width="30" height="39"/>
<path d="M31.6221 25.5141H34.8876V26.1276H34.7081C34.5884 26.1276 34.4135 26.2547 34.1834 26.509C33.9533 26.7633 33.7438 27.1281 33.5551 27.6035C33.3664 28.0788 33.134 28.8527 32.8579 29.925L30.6003 38.465V44.1031C30.6003 45.485 30.6648 46.3473 30.7936 46.69C30.9685 47.1543 31.2447 47.3864 31.6221 47.3864H31.9259V48H27.9493V47.3864H28.2807C28.6765 47.3864 28.9572 47.099 29.1229 46.5242C29.2242 46.1704 29.2748 45.3634 29.2748 44.1031V38.7801L26.7066 29.3612C26.4029 28.2557 26.1958 27.5648 26.0853 27.2884C25.9794 27.012 25.7562 26.6804 25.4156 26.2934C25.3236 26.1829 25.1901 26.1276 25.0152 26.1276V25.5141H29.0194V26.1276H28.8123C28.596 26.1276 28.3957 26.2492 28.2116 26.4924C28.0321 26.7356 27.9424 27.1005 27.9424 27.5869C27.9424 27.9849 28.0828 28.7034 28.3635 29.7426L30.3173 36.9892L32.1537 30.0577C32.4298 29.0185 32.5679 28.2447 32.5679 27.7361C32.5679 27.4266 32.5334 27.1502 32.4643 26.907C32.3999 26.6638 32.3056 26.4758 32.1813 26.3432C32.057 26.1995 31.8706 26.1276 31.6221 26.1276V25.5141Z"/>
<path d="M41.5704 40.4715H37.9459L37.3108 44.0202C37.1543 44.8935 37.076 45.5458 37.076 45.9769C37.076 46.3196 37.1428 46.6236 37.2763 46.889C37.4143 47.1432 37.7089 47.3091 38.1599 47.3864V48H35.212V47.3864C35.6032 47.2206 35.8564 47.005 35.9714 46.7397C36.2062 46.2091 36.4662 45.1312 36.7516 43.5061L40.0447 25H40.2863L43.5448 43.7051C43.8072 45.2086 44.0442 46.187 44.2559 46.6402C44.4722 47.0824 44.7714 47.3312 45.1534 47.3864V48H41.4599V47.3864C41.8327 47.3422 42.0836 47.193 42.2124 46.9387C42.3459 46.6845 42.4126 46.3749 42.4126 46.0101C42.4126 45.5237 42.3206 44.7553 42.1365 43.7051L41.5704 40.4715ZM41.3771 39.2444L39.7892 30.1572L38.1599 39.2444H41.3771Z"/>
<path d="M48.2187 37.4701V44.0202C48.2187 45.4352 48.2831 46.3141 48.412 46.6568C48.5869 47.1432 48.8515 47.3864 49.2059 47.3864H49.5649V48H45.5538V47.3864H45.9059C46.3017 47.3864 46.5848 47.0769 46.7551 46.4578C46.8471 46.1151 46.8932 45.3026 46.8932 44.0202V29.4939C46.8932 28.0788 46.831 27.2 46.7068 26.8572C46.5273 26.3708 46.2603 26.1276 45.9059 26.1276H45.5538V25.5141H48.985C49.8226 25.5141 50.4831 25.7241 50.9664 26.1442C51.4496 26.5532 51.8569 27.2497 52.1883 28.2336C52.5197 29.2175 52.6854 30.3838 52.6854 31.7325C52.6854 33.5677 52.4323 35.0601 51.926 36.2098C51.4243 37.3595 50.7132 37.9344 49.7927 37.9344C49.5672 37.9344 49.3233 37.8957 49.0609 37.8183C48.7986 37.7409 48.5178 37.6248 48.2187 37.4701ZM48.2187 36.5249C48.4626 36.6354 48.6789 36.7183 48.8676 36.7736C49.0563 36.8289 49.2174 36.8565 49.3509 36.8565C49.8295 36.8565 50.2415 36.4143 50.5867 35.5299C50.9364 34.6345 51.1113 33.4792 51.1113 32.0642C51.1113 31.0913 51.0285 30.1903 50.8628 29.3612C50.6971 28.521 50.4624 27.8964 50.1586 27.4874C49.8549 27.0673 49.5097 26.8572 49.1231 26.8572C48.8883 26.8572 48.5869 26.9623 48.2187 27.1723V36.5249Z"/>
<path d="M36.8723 51.1704L28.3581 61.3924H29.0231C30.3532 61.3924 31.4206 61.1981 32.2252 60.8095C33.0298 60.4154 33.7742 59.7668 34.4584 58.8636H34.8033L33.6374 62H25V61.6962L33.506 51.5071H32.4633C31.1277 51.5071 30.137 51.674 29.4911 52.0079C28.8452 52.3363 28.2924 52.8974 27.8326 53.691H27.5042L28.4566 50.8667H36.8723V51.1704Z"/>
<path d="M38.0628 51.1704L38.1531 50.8667H43.5884L43.4817 51.1704C42.9891 51.1704 42.6114 51.2799 42.3486 51.4989C42.0914 51.7178 41.8642 52.1748 41.6672 52.87L39.631 59.9967C39.4832 60.5002 39.4093 60.8369 39.4093 61.0065C39.4093 61.2036 39.4859 61.3568 39.6392 61.4663C39.8363 61.6086 40.2085 61.6853 40.7558 61.6962L40.6737 62H35.1481L35.2384 61.6962C35.7912 61.6962 36.1963 61.5922 36.4536 61.3842C36.7108 61.1707 36.9434 60.7082 37.1514 59.9967L39.2041 52.87C39.3299 52.4321 39.3929 52.101 39.3929 51.8765C39.3929 51.674 39.3163 51.5153 39.163 51.4003C39.0097 51.2854 38.643 51.2088 38.0628 51.1704Z"/>
<path d="M47.0614 56.8849L46.1583 59.9884C46.0324 60.4263 45.9694 60.7356 45.9694 60.9162C45.9694 61.168 46.0516 61.3596 46.2158 61.491C46.38 61.6168 46.7522 61.6853 47.3324 61.6962L47.2256 62H41.7903L41.8807 61.6962C42.3404 61.6907 42.6661 61.647 42.8577 61.5648C43.0493 61.4773 43.208 61.3377 43.3339 61.1461C43.427 61.0202 43.5665 60.6343 43.7526 59.9884L45.8135 52.9193C45.9558 52.4485 46.0269 52.1119 46.0269 51.9094C46.0269 51.7069 45.9366 51.5372 45.756 51.4003C45.5753 51.258 45.2469 51.1814 44.7707 51.1704L44.861 50.8667H49.27C50.4797 50.8667 51.35 51.0199 51.881 51.3264C52.702 51.8081 53.1125 52.5306 53.1125 53.494C53.1125 54.4245 52.702 55.2455 51.881 55.9571C51.0654 56.6632 49.9652 57.0163 48.5804 57.0163C48.1644 57.0163 47.6581 56.9725 47.0614 56.8849ZM47.2256 56.2527C47.5814 56.2965 47.877 56.3184 48.1124 56.3184C48.8677 56.3184 49.4616 55.9735 49.894 55.2839C50.3265 54.5942 50.5427 53.8744 50.5427 53.1245C50.5427 52.6155 50.4031 52.2214 50.1239 51.9422C49.8448 51.6576 49.4589 51.5153 48.9663 51.5153C48.8623 51.5153 48.7336 51.5207 48.5804 51.5317L47.2256 56.2527Z"/>
</mask>
<path d="M31.6221 25.5141H34.8876V26.1276H34.7081C34.5884 26.1276 34.4135 26.2547 34.1834 26.509C33.9533 26.7633 33.7438 27.1281 33.5551 27.6035C33.3664 28.0788 33.134 28.8527 32.8579 29.925L30.6003 38.465V44.1031C30.6003 45.485 30.6648 46.3473 30.7936 46.69C30.9685 47.1543 31.2447 47.3864 31.6221 47.3864H31.9259V48H27.9493V47.3864H28.2807C28.6765 47.3864 28.9572 47.099 29.1229 46.5242C29.2242 46.1704 29.2748 45.3634 29.2748 44.1031V38.7801L26.7066 29.3612C26.4029 28.2557 26.1958 27.5648 26.0853 27.2884C25.9794 27.012 25.7562 26.6804 25.4156 26.2934C25.3236 26.1829 25.1901 26.1276 25.0152 26.1276V25.5141H29.0194V26.1276H28.8123C28.596 26.1276 28.3957 26.2492 28.2116 26.4924C28.0321 26.7356 27.9424 27.1005 27.9424 27.5869C27.9424 27.9849 28.0828 28.7034 28.3635 29.7426L30.3173 36.9892L32.1537 30.0577C32.4298 29.0185 32.5679 28.2447 32.5679 27.7361C32.5679 27.4266 32.5334 27.1502 32.4643 26.907C32.3999 26.6638 32.3056 26.4758 32.1813 26.3432C32.057 26.1995 31.8706 26.1276 31.6221 26.1276V25.5141Z" fill="#0000FF"/>
<path d="M41.5704 40.4715H37.9459L37.3108 44.0202C37.1543 44.8935 37.076 45.5458 37.076 45.9769C37.076 46.3196 37.1428 46.6236 37.2763 46.889C37.4143 47.1432 37.7089 47.3091 38.1599 47.3864V48H35.212V47.3864C35.6032 47.2206 35.8564 47.005 35.9714 46.7397C36.2062 46.2091 36.4662 45.1312 36.7516 43.5061L40.0447 25H40.2863L43.5448 43.7051C43.8072 45.2086 44.0442 46.187 44.2559 46.6402C44.4722 47.0824 44.7714 47.3312 45.1534 47.3864V48H41.4599V47.3864C41.8327 47.3422 42.0836 47.193 42.2124 46.9387C42.3459 46.6845 42.4126 46.3749 42.4126 46.0101C42.4126 45.5237 42.3206 44.7553 42.1365 43.7051L41.5704 40.4715ZM41.3771 39.2444L39.7892 30.1572L38.1599 39.2444H41.3771Z" fill="#0000FF"/>
<path d="M48.2187 37.4701V44.0202C48.2187 45.4352 48.2831 46.3141 48.412 46.6568C48.5869 47.1432 48.8515 47.3864 49.2059 47.3864H49.5649V48H45.5538V47.3864H45.9059C46.3017 47.3864 46.5848 47.0769 46.7551 46.4578C46.8471 46.1151 46.8932 45.3026 46.8932 44.0202V29.4939C46.8932 28.0788 46.831 27.2 46.7068 26.8572C46.5273 26.3708 46.2603 26.1276 45.9059 26.1276H45.5538V25.5141H48.985C49.8226 25.5141 50.4831 25.7241 50.9664 26.1442C51.4496 26.5532 51.8569 27.2497 52.1883 28.2336C52.5197 29.2175 52.6854 30.3838 52.6854 31.7325C52.6854 33.5677 52.4323 35.0601 51.926 36.2098C51.4243 37.3595 50.7132 37.9344 49.7927 37.9344C49.5672 37.9344 49.3233 37.8957 49.0609 37.8183C48.7986 37.7409 48.5178 37.6248 48.2187 37.4701ZM48.2187 36.5249C48.4626 36.6354 48.6789 36.7183 48.8676 36.7736C49.0563 36.8289 49.2174 36.8565 49.3509 36.8565C49.8295 36.8565 50.2415 36.4143 50.5867 35.5299C50.9364 34.6345 51.1113 33.4792 51.1113 32.0642C51.1113 31.0913 51.0285 30.1903 50.8628 29.3612C50.6971 28.521 50.4624 27.8964 50.1586 27.4874C49.8549 27.0673 49.5097 26.8572 49.1231 26.8572C48.8883 26.8572 48.5869 26.9623 48.2187 27.1723V36.5249Z" fill="#0000FF"/>
<path d="M36.8723 51.1704L28.3581 61.3924H29.0231C30.3532 61.3924 31.4206 61.1981 32.2252 60.8095C33.0298 60.4154 33.7742 59.7668 34.4584 58.8636H34.8033L33.6374 62H25V61.6962L33.506 51.5071H32.4633C31.1277 51.5071 30.137 51.674 29.4911 52.0079C28.8452 52.3363 28.2924 52.8974 27.8326 53.691H27.5042L28.4566 50.8667H36.8723V51.1704Z" fill="#0000FF"/>
<path d="M38.0628 51.1704L38.1531 50.8667H43.5884L43.4817 51.1704C42.9891 51.1704 42.6114 51.2799 42.3486 51.4989C42.0914 51.7178 41.8642 52.1748 41.6672 52.87L39.631 59.9967C39.4832 60.5002 39.4093 60.8369 39.4093 61.0065C39.4093 61.2036 39.4859 61.3568 39.6392 61.4663C39.8363 61.6086 40.2085 61.6853 40.7558 61.6962L40.6737 62H35.1481L35.2384 61.6962C35.7912 61.6962 36.1963 61.5922 36.4536 61.3842C36.7108 61.1707 36.9434 60.7082 37.1514 59.9967L39.2041 52.87C39.3299 52.4321 39.3929 52.101 39.3929 51.8765C39.3929 51.674 39.3163 51.5153 39.163 51.4003C39.0097 51.2854 38.643 51.2088 38.0628 51.1704Z" fill="#0000FF"/>
<path d="M47.0614 56.8849L46.1583 59.9884C46.0324 60.4263 45.9694 60.7356 45.9694 60.9162C45.9694 61.168 46.0516 61.3596 46.2158 61.491C46.38 61.6168 46.7522 61.6853 47.3324 61.6962L47.2256 62H41.7903L41.8807 61.6962C42.3404 61.6907 42.6661 61.647 42.8577 61.5648C43.0493 61.4773 43.208 61.3377 43.3339 61.1461C43.427 61.0202 43.5665 60.6343 43.7526 59.9884L45.8135 52.9193C45.9558 52.4485 46.0269 52.1119 46.0269 51.9094C46.0269 51.7069 45.9366 51.5372 45.756 51.4003C45.5753 51.258 45.2469 51.1814 44.7707 51.1704L44.861 50.8667H49.27C50.4797 50.8667 51.35 51.0199 51.881 51.3264C52.702 51.8081 53.1125 52.5306 53.1125 53.494C53.1125 54.4245 52.702 55.2455 51.881 55.9571C51.0654 56.6632 49.9652 57.0163 48.5804 57.0163C48.1644 57.0163 47.6581 56.9725 47.0614 56.8849ZM47.2256 56.2527C47.5814 56.2965 47.877 56.3184 48.1124 56.3184C48.8677 56.3184 49.4616 55.9735 49.894 55.2839C50.3265 54.5942 50.5427 53.8744 50.5427 53.1245C50.5427 52.6155 50.4031 52.2214 50.1239 51.9422C49.8448 51.6576 49.4589 51.5153 48.9663 51.5153C48.8623 51.5153 48.7336 51.5207 48.5804 51.5317L47.2256 56.2527Z" fill="#0000FF"/>
<path d="M31.6221 25.5141H34.8876V26.1276H34.7081C34.5884 26.1276 34.4135 26.2547 34.1834 26.509C33.9533 26.7633 33.7438 27.1281 33.5551 27.6035C33.3664 28.0788 33.134 28.8527 32.8579 29.925L30.6003 38.465V44.1031C30.6003 45.485 30.6648 46.3473 30.7936 46.69C30.9685 47.1543 31.2447 47.3864 31.6221 47.3864H31.9259V48H27.9493V47.3864H28.2807C28.6765 47.3864 28.9572 47.099 29.1229 46.5242C29.2242 46.1704 29.2748 45.3634 29.2748 44.1031V38.7801L26.7066 29.3612C26.4029 28.2557 26.1958 27.5648 26.0853 27.2884C25.9794 27.012 25.7562 26.6804 25.4156 26.2934C25.3236 26.1829 25.1901 26.1276 25.0152 26.1276V25.5141H29.0194V26.1276H28.8123C28.596 26.1276 28.3957 26.2492 28.2116 26.4924C28.0321 26.7356 27.9424 27.1005 27.9424 27.5869C27.9424 27.9849 28.0828 28.7034 28.3635 29.7426L30.3173 36.9892L32.1537 30.0577C32.4298 29.0185 32.5679 28.2447 32.5679 27.7361C32.5679 27.4266 32.5334 27.1502 32.4643 26.907C32.3999 26.6638 32.3056 26.4758 32.1813 26.3432C32.057 26.1995 31.8706 26.1276 31.6221 26.1276V25.5141Z" stroke="#0000FF" stroke-width="1.4" mask="url(#path-2-outside-1_98_982)"/>
<path d="M41.5704 40.4715H37.9459L37.3108 44.0202C37.1543 44.8935 37.076 45.5458 37.076 45.9769C37.076 46.3196 37.1428 46.6236 37.2763 46.889C37.4143 47.1432 37.7089 47.3091 38.1599 47.3864V48H35.212V47.3864C35.6032 47.2206 35.8564 47.005 35.9714 46.7397C36.2062 46.2091 36.4662 45.1312 36.7516 43.5061L40.0447 25H40.2863L43.5448 43.7051C43.8072 45.2086 44.0442 46.187 44.2559 46.6402C44.4722 47.0824 44.7714 47.3312 45.1534 47.3864V48H41.4599V47.3864C41.8327 47.3422 42.0836 47.193 42.2124 46.9387C42.3459 46.6845 42.4126 46.3749 42.4126 46.0101C42.4126 45.5237 42.3206 44.7553 42.1365 43.7051L41.5704 40.4715ZM41.3771 39.2444L39.7892 30.1572L38.1599 39.2444H41.3771Z" stroke="#0000FF" stroke-width="1.4" mask="url(#path-2-outside-1_98_982)"/>
<path d="M48.2187 37.4701V44.0202C48.2187 45.4352 48.2831 46.3141 48.412 46.6568C48.5869 47.1432 48.8515 47.3864 49.2059 47.3864H49.5649V48H45.5538V47.3864H45.9059C46.3017 47.3864 46.5848 47.0769 46.7551 46.4578C46.8471 46.1151 46.8932 45.3026 46.8932 44.0202V29.4939C46.8932 28.0788 46.831 27.2 46.7068 26.8572C46.5273 26.3708 46.2603 26.1276 45.9059 26.1276H45.5538V25.5141H48.985C49.8226 25.5141 50.4831 25.7241 50.9664 26.1442C51.4496 26.5532 51.8569 27.2497 52.1883 28.2336C52.5197 29.2175 52.6854 30.3838 52.6854 31.7325C52.6854 33.5677 52.4323 35.0601 51.926 36.2098C51.4243 37.3595 50.7132 37.9344 49.7927 37.9344C49.5672 37.9344 49.3233 37.8957 49.0609 37.8183C48.7986 37.7409 48.5178 37.6248 48.2187 37.4701ZM48.2187 36.5249C48.4626 36.6354 48.6789 36.7183 48.8676 36.7736C49.0563 36.8289 49.2174 36.8565 49.3509 36.8565C49.8295 36.8565 50.2415 36.4143 50.5867 35.5299C50.9364 34.6345 51.1113 33.4792 51.1113 32.0642C51.1113 31.0913 51.0285 30.1903 50.8628 29.3612C50.6971 28.521 50.4624 27.8964 50.1586 27.4874C49.8549 27.0673 49.5097 26.8572 49.1231 26.8572C48.8883 26.8572 48.5869 26.9623 48.2187 27.1723V36.5249Z" stroke="#0000FF" stroke-width="1.4" mask="url(#path-2-outside-1_98_982)"/>
<path d="M36.8723 51.1704L28.3581 61.3924H29.0231C30.3532 61.3924 31.4206 61.1981 32.2252 60.8095C33.0298 60.4154 33.7742 59.7668 34.4584 58.8636H34.8033L33.6374 62H25V61.6962L33.506 51.5071H32.4633C31.1277 51.5071 30.137 51.674 29.4911 52.0079C28.8452 52.3363 28.2924 52.8974 27.8326 53.691H27.5042L28.4566 50.8667H36.8723V51.1704Z" stroke="#0000FF" stroke-width="1.4" mask="url(#path-2-outside-1_98_982)"/>
<path d="M38.0628 51.1704L38.1531 50.8667H43.5884L43.4817 51.1704C42.9891 51.1704 42.6114 51.2799 42.3486 51.4989C42.0914 51.7178 41.8642 52.1748 41.6672 52.87L39.631 59.9967C39.4832 60.5002 39.4093 60.8369 39.4093 61.0065C39.4093 61.2036 39.4859 61.3568 39.6392 61.4663C39.8363 61.6086 40.2085 61.6853 40.7558 61.6962L40.6737 62H35.1481L35.2384 61.6962C35.7912 61.6962 36.1963 61.5922 36.4536 61.3842C36.7108 61.1707 36.9434 60.7082 37.1514 59.9967L39.2041 52.87C39.3299 52.4321 39.3929 52.101 39.3929 51.8765C39.3929 51.674 39.3163 51.5153 39.163 51.4003C39.0097 51.2854 38.643 51.2088 38.0628 51.1704Z" stroke="#0000FF" stroke-width="1.4" mask="url(#path-2-outside-1_98_982)"/>
<path d="M47.0614 56.8849L46.1583 59.9884C46.0324 60.4263 45.9694 60.7356 45.9694 60.9162C45.9694 61.168 46.0516 61.3596 46.2158 61.491C46.38 61.6168 46.7522 61.6853 47.3324 61.6962L47.2256 62H41.7903L41.8807 61.6962C42.3404 61.6907 42.6661 61.647 42.8577 61.5648C43.0493 61.4773 43.208 61.3377 43.3339 61.1461C43.427 61.0202 43.5665 60.6343 43.7526 59.9884L45.8135 52.9193C45.9558 52.4485 46.0269 52.1119 46.0269 51.9094C46.0269 51.7069 45.9366 51.5372 45.756 51.4003C45.5753 51.258 45.2469 51.1814 44.7707 51.1704L44.861 50.8667H49.27C50.4797 50.8667 51.35 51.0199 51.881 51.3264C52.702 51.8081 53.1125 52.5306 53.1125 53.494C53.1125 54.4245 52.702 55.2455 51.881 55.9571C51.0654 56.6632 49.9652 57.0163 48.5804 57.0163C48.1644 57.0163 47.6581 56.9725 47.0614 56.8849ZM47.2256 56.2527C47.5814 56.2965 47.877 56.3184 48.1124 56.3184C48.8677 56.3184 49.4616 55.9735 49.894 55.2839C50.3265 54.5942 50.5427 53.8744 50.5427 53.1245C50.5427 52.6155 50.4031 52.2214 50.1239 51.9422C49.8448 51.6576 49.4589 51.5153 48.9663 51.5153C48.8623 51.5153 48.7336 51.5207 48.5804 51.5317L47.2256 56.2527Z" stroke="#0000FF" stroke-width="1.4" mask="url(#path-2-outside-1_98_982)"/>
<path d="M59.0472 27.0107C58.8485 26.6532 58.5704 26.378 58.2141 26.1873C57.8616 25.9965 57.4972 25.9 57.1221 25.9C56.749 25.9 56.3856 25.9966 56.0331 26.1873C55.6769 26.378 55.3978 26.6532 55.1972 27.0106L55.1971 27.0108C54.9996 27.3641 54.9 27.735 54.9 28.1221C54.9 28.5072 54.9986 28.876 55.194 29.2273C55.3905 29.5807 55.6652 29.8565 56.0167 30.0532L56.0173 30.0535C56.3686 30.2468 56.7373 30.3443 57.1221 30.3443C57.507 30.3443 57.8757 30.2468 58.2269 30.0535L58.2273 30.0533C58.5809 29.8567 58.8567 29.5809 59.0533 29.2273C59.2487 28.876 59.3473 28.5072 59.3473 28.1221C59.3473 27.7349 59.2466 27.364 59.0472 27.0107ZM59.0472 27.0107C59.0472 27.0108 59.0473 27.0109 59.0474 27.011L58.9599 27.0596L59.047 27.0104C59.0471 27.0105 59.0471 27.0106 59.0472 27.0107ZM57.9956 29.645L57.9953 29.6451C57.7162 29.8008 57.4256 29.8779 57.1221 29.8779C56.8208 29.8779 56.5301 29.8009 56.2487 29.645C55.9697 29.4904 55.7537 29.2753 55.5992 28.9984C55.4434 28.7172 55.3664 28.4255 55.3664 28.1221C55.3664 27.819 55.4443 27.5263 55.6021 27.243C55.7607 26.9599 55.9785 26.7443 56.2567 26.5939C56.5407 26.4414 56.8288 26.3664 57.1221 26.3664C57.4176 26.3664 57.7057 26.4415 57.9875 26.5938L57.9877 26.5939C58.0689 26.6375 58.1448 26.6865 58.2154 26.7411H58.1248H58.0111H57.9216L57.9117 26.83C57.907 26.8723 57.8963 26.8835 57.8954 26.8843L57.8953 26.8843L57.8925 26.8871C57.8885 26.8911 57.8846 26.8937 57.8734 26.8937C57.8735 26.8937 57.8728 26.8937 57.8713 26.8936L57.8651 26.8928C57.8597 26.8919 57.8525 26.8904 57.8433 26.888C57.8248 26.8832 57.8008 26.8754 57.7709 26.8642L57.7709 26.8642L57.7696 26.8637C57.541 26.7814 57.3327 26.7381 57.1461 26.7381C56.7429 26.7381 56.4026 26.8707 56.1328 27.1382C55.8628 27.4061 55.7291 27.7468 55.7291 28.1521C55.7291 28.5349 55.8535 28.855 56.1062 29.1034L56.1068 29.104C56.3619 29.3503 56.6925 29.4703 57.0892 29.4703C57.506 29.4703 57.8507 29.3349 58.1134 29.0591L58.141 29.0302V28.9902V28.7806V28.5007L57.9637 28.7173C57.7529 28.9747 57.519 29.0937 57.2598 29.0937C57.0753 29.0937 56.9221 29.022 56.7945 28.8718C56.6741 28.7278 56.6026 28.4704 56.6026 28.0743C56.6026 27.7064 56.6752 27.4599 56.8002 27.3129L56.8006 27.3125C56.9302 27.1583 57.0863 27.0847 57.2748 27.0847C57.433 27.0847 57.5673 27.1344 57.6823 27.234L57.6823 27.234L57.6835 27.235C57.799 27.3318 57.8768 27.4678 57.913 27.6507L57.929 27.7313H58.0111H58.1248H58.2248V27.6313V26.8411V26.7484C58.394 26.8809 58.5328 27.0455 58.642 27.2427L58.6421 27.2429C58.7999 27.5263 58.8779 27.8189 58.8779 28.1221C58.8779 28.4255 58.8009 28.7172 58.6451 28.9984C58.4906 29.2753 58.2746 29.4904 57.9956 29.645ZM57.7477 27.1583C57.614 27.0426 57.4564 26.9847 57.2748 26.9847C57.0553 26.9847 56.8717 27.0725 56.7241 27.2481L57.7477 27.1583Z" fill="#0000FF" stroke="#0000FF" stroke-width="0.2"/>
<path d="M65.6224 50C64.8356 50 64.0488 50 63.2619 50C63.2461 50.0104 63.2305 50.0291 63.2144 50.0296C63.1608 50.0314 63.1175 50.0518 63.0683 50.0719C62.9836 50.1067 62.8866 50.1103 62.8204 50.1876C62.8133 50.1959 62.7895 50.1884 62.7738 50.1908C62.6526 50.2098 62.5225 50.1992 62.4272 50.3031C62.4132 50.3183 62.3774 50.3192 62.3524 50.3177C62.267 50.3122 62.1992 50.3443 62.1398 50.4028C62.1219 50.4205 62.0984 50.44 62.075 50.4435C61.9923 50.456 61.9619 50.5186 61.9145 50.5752C61.875 50.6224 61.7858 50.6217 61.7423 50.6822C61.7365 50.6902 61.7368 50.7027 61.7309 50.7105C61.6805 50.7759 61.605 50.8199 61.572 50.9017C61.5661 50.9163 61.5253 50.9237 61.501 50.9229C61.4254 50.9204 61.3769 50.9418 61.3784 51.0286C61.3787 51.0458 61.3652 51.0663 61.3525 51.0801C61.284 51.1544 61.2214 51.2373 61.1418 51.2973C61.0531 51.3642 61.0314 51.4524 61.023 51.5459C61.0024 51.5569 60.9893 51.5662 60.9746 51.5711C60.8934 51.5986 60.8555 51.6499 60.8671 51.7394C60.8703 51.7637 60.8465 51.7918 60.8341 51.8178C60.7992 51.8906 60.7815 51.9723 60.716 52.0292C60.7064 52.0376 60.7169 52.0686 60.7175 52.0892C60.718 52.1072 60.7254 52.1343 60.7166 52.1416C60.6668 52.1828 60.6809 52.2374 60.6779 52.2892C60.676 52.3203 60.682 52.3643 60.6644 52.3797C60.6012 52.4349 60.6173 52.5044 60.6139 52.5717C60.6129 52.5919 60.6121 52.6251 60.6012 52.6299C60.5351 52.6588 60.5536 52.7149 60.5496 52.7654C60.5392 52.8983 60.5876 53.0403 60.4885 53.1603C60.4805 53.17 60.4891 53.1918 60.4857 53.2072C60.4757 53.2527 60.4784 53.3168 60.4495 53.3392C60.3813 53.392 60.3995 53.4685 60.3688 53.5265C60.3378 53.5427 60.3041 53.5631 60.2982 53.5896C60.2899 53.6272 60.2653 53.6494 60.2503 53.6775C60.2154 53.7436 60.1559 53.7514 60.1022 53.7806C60.05 53.8089 60.011 53.8616 59.9592 53.8912C59.9025 53.9236 59.8644 53.979 59.794 53.997C59.7008 54.0209 59.5924 53.9986 59.5159 54.0788C59.411 54.0571 59.3396 54.1738 59.2334 54.1469C59.1787 54.2448 59.085 54.1982 59.0071 54.2055C58.9442 54.2115 58.8803 54.2067 58.8141 54.2067C58.8017 54.239 58.7909 54.2671 58.78 54.2959C58.7626 54.2981 58.7472 54.3005 58.7318 54.3021C58.5556 54.3188 58.4772 54.4018 58.4767 54.5726C58.4764 54.6357 58.4767 54.6989 58.4767 54.7628C58.5308 54.7817 58.5695 54.7985 58.5842 54.8611C58.5982 54.921 58.6072 55.0004 58.6943 55.0178C58.7067 55.0202 58.7179 55.0387 58.726 55.0519C58.7745 55.1319 58.8386 55.1834 58.9429 55.163C58.9807 55.2634 59.0236 55.3542 59.1466 55.3684C59.1466 55.4412 59.1446 55.5097 59.147 55.5782C59.1513 55.7012 59.1052 55.8165 59.0119 55.878C58.8988 55.9525 58.88 56.0405 58.8909 56.1567C58.8958 56.2093 58.8918 56.2627 58.8918 56.3295C58.9875 56.3388 58.9896 56.4175 58.9912 56.4775C59.1029 56.5271 59.201 56.5707 59.2992 56.6143C59.3855 56.7675 59.5426 56.8413 59.6703 56.9485C59.7239 56.9933 59.7949 57.0346 59.7864 57.1261C59.7805 57.1912 59.8593 57.1543 59.8676 57.1734C59.9175 57.332 59.8127 57.416 59.7651 57.5209C59.624 57.5209 59.4912 57.5222 59.3584 57.5205C59.2268 57.5187 59.0972 57.5337 58.9664 57.5471C58.8712 57.5568 58.8356 57.6286 58.8074 57.6773C58.7765 57.7307 58.7891 57.8255 58.814 57.8903C58.8405 57.959 58.9046 58.013 58.9504 58.0747C58.9655 58.0949 58.9871 58.1206 58.9849 58.1417C58.9725 58.2671 59.0404 58.4098 58.9088 58.512C58.8958 58.522 58.8953 58.5502 58.8923 58.5705C58.8807 58.6475 58.8718 58.725 58.8595 58.8019C58.8548 58.8312 58.8524 58.8756 58.8343 58.885C58.7885 58.9089 58.7981 58.9447 58.7964 58.9799C58.7912 59.0908 58.8939 59.1763 58.8708 59.2929C58.8687 59.3039 58.899 59.3211 58.9142 59.3355C58.9285 59.349 58.9466 59.3602 58.9563 59.3765C59.0488 59.5329 59.1848 59.6327 59.3555 59.6891C59.3749 59.6955 59.3969 59.7017 59.4109 59.7151C59.4747 59.7762 59.5449 59.7518 59.6167 59.7332C59.6363 59.8007 59.6833 59.8181 59.7497 59.8178C59.8165 59.8174 59.8907 59.816 59.9481 59.8436C59.9929 59.8651 60.0328 59.8756 60.0801 59.881C60.1573 59.8897 60.2569 59.8817 60.3043 59.9263C60.3676 59.9855 60.4267 59.9686 60.4903 59.9748C60.5157 59.9773 60.5416 59.9752 60.5673 59.9752C60.5965 60.0218 60.6296 60.0544 60.6694 60.0699C60.7605 60.1056 60.8536 60.1273 60.9164 60.2186C60.943 60.2574 60.9906 60.2977 61.0522 60.3085C61.0815 60.3135 61.1062 60.3506 61.1309 60.3753C61.191 60.4354 61.2537 60.4934 61.3078 60.5585C61.3625 60.6244 61.4064 60.6991 61.4586 60.7672C61.4762 60.7901 61.5271 60.8176 61.525 60.8211C61.4752 60.9071 61.5604 60.9153 61.6028 60.9565C61.5751 61.1144 61.6781 61.2471 61.7098 61.3976C61.7132 61.4139 61.7372 61.4312 61.7553 61.438C61.7812 61.4478 61.7839 61.4557 61.7745 61.4816C61.7664 61.5041 61.7653 61.5334 61.7722 61.5563C61.8421 61.7891 61.8456 62.0301 61.856 62.2692C61.8626 62.4181 61.8418 62.5691 62.0146 62.644C62.0355 62.7176 62.0934 62.7158 62.1544 62.7171C62.9439 62.7334 63.7336 62.6912 64.5236 62.7434C64.9417 62.771 65.3632 62.7507 65.7831 62.7467C65.9084 62.7455 66.034 62.7303 66.1582 62.7127C66.1948 62.7076 66.2302 62.6759 66.261 62.6503C66.3589 62.5687 66.4544 62.484 66.5253 62.4227C66.5992 62.2843 66.47 62.2227 66.4712 62.1231C66.4714 62.1004 66.4196 62.0772 66.3947 62.0567C66.3725 61.9213 66.3955 61.7751 66.2735 61.67C66.302 61.5489 66.3089 61.5089 66.2453 61.4563C66.1985 61.4175 66.1996 61.381 66.1971 61.3352C66.1941 61.2777 66.2107 61.2027 66.1809 61.1664C66.1252 61.0986 66.1385 61.0291 66.1327 60.9572C66.1295 60.9173 66.131 60.8591 66.1072 60.8428C66.0661 60.8145 66.0696 60.7835 66.0694 60.748C66.0688 60.5728 66.0686 60.3975 66.0697 60.2223C66.0699 60.1969 66.0705 60.1553 66.0838 60.1492C66.1504 60.1187 66.1291 60.0626 66.1339 60.0132C66.1369 59.9825 66.1336 59.9328 66.1495 59.9251C66.2081 59.8963 66.1961 59.849 66.1972 59.8034C66.1981 59.7666 66.1911 59.7265 66.2419 59.7153C66.2501 59.6186 66.3739 59.5761 66.358 59.4682C66.4357 59.4018 66.488 59.3185 66.5223 59.2232C66.6131 59.2332 66.6013 59.143 66.6407 59.1027C66.706 59.0359 66.7688 58.9658 66.8398 58.9056C66.9125 58.8438 67.024 58.835 67.0742 58.7395C67.076 58.7362 67.0838 58.734 67.0885 58.7344C67.1902 58.7423 67.2263 58.6601 67.2879 58.6042C67.3343 58.562 67.3582 58.483 67.4337 58.4792C67.489 58.4764 67.5137 58.4496 67.5437 58.4062C67.5766 58.3585 67.6283 58.3001 67.6782 58.2932C67.7593 58.2821 67.7974 58.2313 67.8433 58.1826C67.8643 58.1603 67.8726 58.1217 67.8967 58.1075C68.0359 58.0251 68.1703 57.9373 68.2696 57.8071C68.3579 57.6913 68.4981 57.6437 68.5999 57.5394C68.7446 57.3913 68.8954 57.248 69.0408 57.0996C69.0842 57.0553 69.1496 57.032 69.1349 56.9516C69.1333 56.9422 69.1503 56.9215 69.1615 56.9191C69.2572 56.8977 69.2336 56.7557 69.3394 56.7441C69.346 56.7434 69.3557 56.7166 69.3541 56.7032C69.3476 56.6461 69.3791 56.6137 69.4113 56.5699C69.4636 56.4989 69.529 56.4327 69.5571 56.3457C69.5822 56.2679 69.5922 56.1836 69.6864 56.149C69.6998 56.144 69.7022 56.1022 69.7052 56.077C69.7158 55.988 69.8013 55.9194 69.7751 55.82C69.7735 55.8136 69.7847 55.7989 69.793 55.7953C69.8919 55.753 69.8662 55.6712 69.8593 55.5944C69.8573 55.5715 69.8531 55.5428 69.8639 55.5259C69.9042 55.4629 69.8928 55.3939 69.8984 55.3261C69.9066 55.2274 69.9208 55.1292 69.9324 55.0308C70.0358 54.9644 69.9893 54.8606 69.9912 54.7729C69.9968 54.5234 69.9957 54.2737 69.992 54.0241C69.9905 53.9273 70.0252 53.8206 69.9348 53.7402C69.9287 53.7348 69.932 53.7199 69.9295 53.7098C69.9152 53.6526 69.9484 53.5937 69.8982 53.5326C69.87 53.4981 69.8958 53.4192 69.8975 53.3602C69.8994 53.2967 69.9063 53.2295 69.862 53.1782C69.8212 53.1309 69.8876 53.0878 69.8593 53.0467C69.8325 53.0078 69.7944 52.9755 69.7734 52.9343C69.7604 52.9087 69.7782 52.8686 69.7676 52.8405C69.7429 52.7747 69.7255 52.6835 69.6756 52.6557C69.6158 52.6225 69.5957 52.5849 69.5772 52.5308C69.5588 52.4767 69.5365 52.4237 69.5131 52.3716C69.5058 52.3551 69.4919 52.339 69.4768 52.3287C69.3937 52.2717 69.3941 52.272 69.3526 52.1757C69.3452 52.1588 69.3272 52.1467 69.3143 52.1322C69.2558 52.0668 69.1958 52.0026 69.1399 51.9351C69.121 51.9124 69.1029 51.8814 69.1016 51.8534C69.0988 51.7975 69.077 51.7651 69.0236 51.7486C68.9991 51.7411 68.9725 51.7286 68.9553 51.7105C68.8879 51.6396 68.825 51.5643 68.758 51.493C68.6999 51.4311 68.6405 51.37 68.5778 51.3126C68.5143 51.2545 68.4508 51.1992 68.3695 51.1596C68.3 51.1257 68.2497 51.0526 68.1901 50.9978C68.1833 50.9916 68.1708 50.9894 68.1609 50.9893C68.0593 50.9873 68.0319 50.9062 67.9929 50.8311C67.9382 50.8208 67.88 50.8387 67.8289 50.7733C67.7866 50.719 67.6895 50.7111 67.6311 50.6646C67.5535 50.6028 67.457 50.6006 67.3736 50.5586C67.2699 50.5066 67.1754 50.4328 67.0572 50.4112C67.048 50.4096 67.0362 50.4028 67.0318 50.395C66.9885 50.3168 66.9144 50.3167 66.84 50.319C66.7643 50.3214 66.698 50.293 66.6324 50.2602C66.6053 50.2466 66.5777 50.2285 66.5487 50.2246C66.4454 50.2105 66.3411 50.203 66.2376 50.1898C66.208 50.186 66.1708 50.1796 66.1524 50.16C66.0458 50.046 65.9148 50.0146 65.7657 50.031C65.7342 50.0344 65.7015 50.0348 65.6703 50.0298C65.6532 50.0271 65.6383 50.0105 65.6224 50.0001V50Z" fill="#0000FF"/>
<path d="M55 56.9156C55.109 57.0453 55.2503 57.0788 55.4154 57.0776C56.1051 57.0726 56.7949 57.0768 57.4847 57.074C57.5884 57.0736 57.6936 57.0613 57.7952 57.0402C57.8698 57.0246 57.925 56.9692 57.9337 56.8882C57.9384 56.8444 57.9485 56.8226 57.9956 56.8155C58.0138 56.8127 58.0374 56.782 58.0415 56.7607C58.0532 56.6997 58.0561 56.637 58.0627 56.5749C58.0703 56.5047 58.0179 56.4759 57.9744 56.4368C57.9373 56.4036 57.9109 56.3586 57.8764 56.3145C57.3304 56.244 56.7747 56.2898 56.2204 56.2786C55.9871 56.2738 55.7535 56.274 55.5201 56.2792C55.3845 56.2822 55.2486 56.2953 55.1139 56.3126C55.0739 56.3178 55.0378 56.3525 54.9999 56.3738V56.9156L55 56.9156Z" fill="#0000FF"/>
<path d="M57.9292 55.6252C57.9404 55.5751 57.9241 55.5272 57.9871 55.5009C58.0497 55.4747 58.0722 55.4131 58.0637 55.3415C58.0581 55.2943 58.0609 55.246 58.0631 55.1983C58.0658 55.136 58.0465 55.0997 57.9888 55.0584C57.9034 54.9972 57.8417 54.9033 57.7672 54.8259C57.6583 54.7128 57.5472 54.6019 57.4368 54.4902C57.4011 54.454 57.3669 54.4158 57.3284 54.3827C57.2933 54.3527 57.2537 54.3281 57.2154 54.3022C57.2073 54.2967 57.1879 54.2974 57.1873 54.2931C57.1718 54.1928 57.0736 54.1639 57.0218 54.0975C56.9143 53.9595 56.7798 53.851 56.6577 53.7292C56.6318 53.7034 56.594 53.686 56.5761 53.6562C56.4806 53.4979 56.3239 53.4104 56.1635 53.361C56.0171 53.3158 55.8431 53.3125 55.6999 53.386C55.6185 53.4277 55.5185 53.4962 55.5417 53.6261C55.5463 53.6518 55.5474 53.6802 55.5415 53.7054C55.5106 53.8367 55.5856 53.9244 55.6725 53.9973C55.7704 54.0794 55.86 54.1675 55.9441 54.2632C55.9872 54.3123 56.041 54.3534 56.0947 54.3916C56.1545 54.4343 56.2043 54.4802 56.2452 54.5451C56.2926 54.6205 56.3651 54.6806 56.4287 54.7454C56.5647 54.8838 56.6959 55.0277 56.8411 55.1557C56.9141 55.2199 56.9843 55.2869 57.0536 55.3543C57.1261 55.4247 57.1821 55.5125 57.2574 55.5794C57.3062 55.6228 57.3756 55.6658 57.4372 55.6679C57.5984 55.6732 57.7645 55.703 57.9294 55.6252L57.9292 55.6252Z" fill="#0000FF"/>
<path d="M57.3536 57.7117C57.3168 57.7476 57.3188 57.7933 57.2728 57.826C57.1807 57.8914 57.0699 57.9494 57.0354 58.0742C57.0332 58.0821 57.0208 58.0897 57.0116 58.0927C56.9054 58.1273 56.8584 58.2247 56.7878 58.298C56.7053 58.3836 56.6102 58.457 56.5277 58.5425C56.3935 58.6818 56.24 58.8035 56.138 58.9732C56.1156 59.0105 56.0662 59.0313 56.0297 59.0605C55.9939 59.0891 55.9588 59.1187 55.9234 59.148C55.9121 59.1573 55.9002 59.1758 55.8898 59.1749C55.7864 59.1657 55.7452 59.2519 55.6865 59.3081C55.6625 59.331 55.6527 59.3694 55.6382 59.4017C55.6301 59.4201 55.6301 59.4537 55.6189 59.4573C55.5174 59.49 55.5438 59.5731 55.5429 59.6434C55.5406 59.818 55.5793 59.8819 55.7347 59.9787C55.7505 59.9885 55.7611 60.0081 55.7718 60.0247C55.7942 60.0592 55.8246 60.0728 55.8658 60.0713C55.9241 60.0691 55.9825 60.0709 56.041 60.0708C56.2203 60.0708 56.219 60.0531 56.3472 59.9131C56.4293 59.8235 56.5065 59.7276 56.5953 59.644C56.7189 59.5278 56.8519 59.4216 56.974 59.3038C57.0177 59.2617 57.0582 59.216 57.1037 59.1745C57.1524 59.1302 57.1865 59.0703 57.2324 59.0225C57.3327 58.9178 57.4228 58.8024 57.5525 58.728C57.5858 58.7089 57.6103 58.6693 57.6309 58.6345C57.6579 58.5887 57.6755 58.5389 57.7423 58.5369C57.7554 58.5365 57.7707 58.5107 57.7798 58.4939C57.827 58.4062 57.8991 58.3431 57.9761 58.2828C58.0034 58.2614 58.0295 58.2297 58.0402 58.1975C58.0794 58.0804 58.0724 57.9596 58.0455 57.8412C58.0384 57.8096 58.0227 57.7725 57.9714 57.7744C57.9008 57.7771 57.8645 57.6852 57.7771 57.7085C57.7127 57.7256 57.6399 57.7118 57.5709 57.7118C57.4969 57.7118 57.423 57.7118 57.3535 57.7118L57.3536 57.7117Z" fill="#0000FF"/>
</svg>
