<svg width="88" height="88" viewBox="0 0 88 88" fill="none" xmlns="http://www.w3.org/2000/svg">
<circle cx="44" cy="44" r="43" stroke="#0000FF"/>
<mask id="path-2-outside-1_98_968" maskUnits="userSpaceOnUse" x="24" y="34" width="44" height="32" fill="black">
<rect fill="white" x="24" y="34" width="44" height="32"/>
<path d="M31.2772 35C31.5001 35.3803 31.6542 35.7376 31.7394 36.072C31.8247 36.3998 31.9099 37.0489 31.9951 38.0192L32.4278 42.8579C32.8212 42.3858 33.3916 41.6384 34.1391 40.6156C34.4997 40.1173 34.9455 39.4387 35.4766 38.5798C35.7978 38.0553 35.9945 37.6881 36.0667 37.4783C36.106 37.3734 36.1257 37.2652 36.1257 37.1538C36.1257 37.0817 36.1027 37.0227 36.0568 36.9768C36.0109 36.9309 35.8896 36.8784 35.6929 36.8194C35.5028 36.7538 35.3422 36.6391 35.211 36.4752C35.0865 36.3047 35.0242 36.1113 35.0242 35.895C35.0242 35.6261 35.1029 35.4098 35.2602 35.2459C35.4176 35.082 35.6143 35 35.8503 35C36.1388 35 36.3846 35.1213 36.5879 35.3639C36.7911 35.5999 36.8928 35.9277 36.8928 36.3473C36.8928 36.8653 36.7157 37.4587 36.3617 38.1274C36.0077 38.7896 35.3258 39.8091 34.3161 41.186C33.3064 42.5628 32.0836 44.0643 30.6478 45.6902C29.6578 46.8114 28.9234 47.5162 28.4448 47.8047C27.9662 48.0997 27.5564 48.2473 27.2155 48.2473C27.0122 48.2473 26.8352 48.1686 26.6844 48.0112C26.5271 47.8604 26.4484 47.6834 26.4484 47.4801C26.4484 47.2244 26.5566 46.9917 26.7729 46.7819C26.9827 46.5721 27.2122 46.4672 27.4614 46.4672C27.5925 46.4672 27.7007 46.4967 27.7859 46.5557C27.8383 46.5885 27.8974 46.6803 27.9629 46.8311C28.0219 46.9884 28.0777 47.0933 28.1301 47.1458C28.1629 47.1786 28.2022 47.1949 28.2481 47.1949C28.2875 47.1949 28.3563 47.1622 28.4547 47.0966C28.8153 46.8737 29.2349 46.5196 29.7135 46.0345C30.3429 45.3919 30.8084 44.8674 31.11 44.4609L30.5593 38.2258C30.4675 37.1964 30.3298 36.5703 30.1462 36.3473C29.9626 36.1244 29.6545 36.013 29.2218 36.013C29.0841 36.013 28.8382 36.0326 28.4842 36.072L28.3956 35.7081L31.2772 35Z"/>
<path d="M46.4619 35L44.5441 41.6679L44.3278 42.5628C44.3081 42.6481 44.2982 42.7202 44.2982 42.7792C44.2982 42.8841 44.331 42.9759 44.3966 43.0546C44.449 43.1136 44.5146 43.1431 44.5933 43.1431C44.6785 43.1431 44.79 43.0906 44.9277 42.9857C45.1834 42.7956 45.5243 42.4022 45.9505 41.8056L46.2848 42.0416C45.8325 42.7235 45.3669 43.2447 44.8883 43.6053C44.4097 43.9594 43.9671 44.1364 43.5606 44.1364C43.2787 44.1364 43.0656 44.0643 42.9214 43.92C42.7837 43.7823 42.7149 43.5791 42.7149 43.3103C42.7149 42.989 42.787 42.5661 42.9312 42.0416L43.1378 41.304C42.2789 42.4251 41.4888 43.2086 40.7676 43.6545C40.2497 43.9757 39.7415 44.1364 39.2432 44.1364C38.7646 44.1364 38.3516 43.9397 38.0041 43.5463C37.6566 43.1464 37.4828 42.5989 37.4828 41.9039C37.4828 40.8614 37.7943 39.7632 38.4171 38.6093C39.0466 37.4488 39.8432 36.5211 40.807 35.8261C41.5609 35.2754 42.2723 35 42.9411 35C43.341 35 43.6721 35.1049 43.9344 35.3147C44.2032 35.5245 44.4064 35.872 44.5441 36.3572L44.8982 35.236L46.4619 35ZM42.9607 35.5114C42.5411 35.5114 42.0953 35.7081 41.6232 36.1015C40.9545 36.6588 40.3578 37.4849 39.8333 38.5798C39.3154 39.6747 39.0564 40.6647 39.0564 41.5499C39.0564 41.9957 39.1678 42.3497 39.3908 42.612C39.6137 42.8677 39.8694 42.9956 40.1579 42.9956C40.8725 42.9956 41.6495 42.4678 42.4887 41.4122C43.6098 40.0091 44.1704 38.57 44.1704 37.0948C44.1704 36.5375 44.0622 36.1343 43.8459 35.8851C43.6295 35.636 43.3345 35.5114 42.9607 35.5114Z"/>
<path d="M51.5365 35L50.8579 37.262C51.5726 36.4227 52.2086 35.8359 52.7659 35.5016C53.3297 35.1672 53.9034 35 54.4869 35C55.0704 35 55.5687 35.2328 55.9818 35.6983C56.3948 36.1572 56.6014 36.7571 56.6014 37.498C56.6014 38.9404 56.0146 40.409 54.841 41.9039C53.6674 43.3922 52.3004 44.1364 50.7399 44.1364C50.4121 44.1364 50.1203 44.1003 49.8646 44.0282C49.6155 43.9561 49.3336 43.8282 49.0189 43.6446L48.3009 46.182C48.1567 46.6803 48.0846 47.0048 48.0846 47.1556C48.0846 47.2998 48.1206 47.4211 48.1928 47.5195C48.2714 47.6244 48.396 47.7031 48.5665 47.7555C48.7369 47.8145 49.0746 47.844 49.5794 47.844L49.4909 48.2079H44.8588L44.9572 47.844C45.5669 47.8178 45.98 47.7129 46.1963 47.5293C46.4061 47.3457 46.6291 46.8376 46.8651 46.005L49.3532 37.3898C49.504 36.8456 49.5794 36.508 49.5794 36.3768C49.5794 36.1998 49.527 36.0621 49.4221 35.9638C49.3237 35.8654 49.1697 35.8163 48.9599 35.8163C48.7697 35.8163 48.5042 35.8392 48.1633 35.8851V35.5016L51.5365 35ZM49.2451 42.8677C49.6516 43.3529 50.199 43.5955 50.8875 43.5955C51.2284 43.5955 51.5759 43.5004 51.9299 43.3103C52.284 43.1201 52.6282 42.8382 52.9626 42.4645C53.3035 42.0908 53.6084 41.6613 53.8772 41.1761C54.146 40.6844 54.3853 40.1075 54.5951 39.4453C54.8115 38.7831 54.9197 38.1274 54.9197 37.4783C54.9197 36.9538 54.7984 36.5539 54.5558 36.2785C54.3197 35.9966 54.0411 35.8556 53.7198 35.8556C53.0117 35.8556 52.3102 36.2621 51.6152 37.0751C50.9268 37.8881 50.4219 38.8388 50.1007 39.9272L49.2451 42.8677Z"/>
<path d="M25.0492 52.7868L27.8225 51.6656H28.1963V53.7702C28.6618 52.9769 29.1273 52.4229 29.5928 52.1082C30.0648 51.7869 30.5598 51.6263 31.0778 51.6263C31.9826 51.6263 32.7366 51.9803 33.3398 52.6884C34.0806 53.5539 34.4511 54.6816 34.4511 56.0715C34.4511 57.6254 34.0052 58.9105 33.1136 59.9267C32.3793 60.7594 31.4548 61.1757 30.3402 61.1757C29.855 61.1757 29.4354 61.1069 29.0814 60.9692C28.8191 60.8708 28.5241 60.6741 28.1963 60.3791V63.123C28.1963 63.7393 28.2323 64.1294 28.3044 64.2933C28.3831 64.4638 28.5142 64.5982 28.6978 64.6965C28.888 64.7949 29.2289 64.844 29.7206 64.844V65.2079H25V64.844H25.2459C25.6065 64.8506 25.9146 64.7817 26.1703 64.6375C26.2949 64.5654 26.39 64.4474 26.4555 64.2835C26.5276 64.1261 26.5637 63.7196 26.5637 63.064V54.5472C26.5637 53.9636 26.5375 53.5932 26.485 53.4359C26.4326 53.2785 26.3473 53.1605 26.2293 53.0818C26.1179 53.0031 25.9638 52.9638 25.7671 52.9638C25.6097 52.9638 25.4098 53.0097 25.1672 53.1015L25.0492 52.7868ZM28.1963 54.3505V57.7139C28.1963 58.4417 28.2258 58.9203 28.2848 59.1498C28.3766 59.5301 28.5995 59.8644 28.9535 60.1529C29.3141 60.4414 29.7665 60.5856 30.3107 60.5856C30.9663 60.5856 31.4974 60.3299 31.9039 59.8185C32.435 59.1498 32.7005 58.2089 32.7005 56.996C32.7005 55.6191 32.3989 54.5603 31.7957 53.8194C31.3761 53.308 30.8778 53.0523 30.3009 53.0523C29.9862 53.0523 29.6747 53.131 29.3666 53.2883C29.1305 53.4064 28.7404 53.7604 28.1963 54.3505Z"/>
<path d="M40.8731 59.6022C39.9486 60.3168 39.3684 60.7299 39.1324 60.8413C38.7783 61.0052 38.4013 61.0872 38.0014 61.0872C37.3785 61.0872 36.8638 60.8741 36.4573 60.448C36.0574 60.0218 35.8574 59.4612 35.8574 58.7662C35.8574 58.3269 35.9558 57.9467 36.1525 57.6254C36.4213 57.1796 36.8868 56.76 37.549 56.3666C38.2177 55.9732 39.3258 55.4946 40.8731 54.9307V54.5767C40.8731 53.6784 40.7289 53.0621 40.4404 52.7278C40.1584 52.3934 39.7454 52.2262 39.2012 52.2262C38.7882 52.2262 38.4603 52.3377 38.2177 52.5606C37.9686 52.7835 37.844 53.0392 37.844 53.3277L37.8637 53.8981C37.8637 54.1997 37.785 54.4324 37.6277 54.5963C37.4769 54.7603 37.2769 54.8422 37.0278 54.8422C36.7852 54.8422 36.5852 54.757 36.4278 54.5865C36.277 54.416 36.2016 54.1833 36.2016 53.8883C36.2016 53.3244 36.4901 52.8064 37.0671 52.3344C37.6441 51.8623 38.4538 51.6263 39.4962 51.6263C40.2961 51.6263 40.9518 51.7607 41.4632 52.0295C41.85 52.2328 42.1352 52.5507 42.3188 52.9835C42.4368 53.2654 42.4958 53.8424 42.4958 54.7144V57.7729C42.4958 58.6318 42.5122 59.1596 42.545 59.3563C42.5778 59.5464 42.6302 59.6743 42.7023 59.7399C42.781 59.8054 42.8695 59.8382 42.9679 59.8382C43.0728 59.8382 43.1646 59.8153 43.2432 59.7694C43.3809 59.6841 43.6465 59.4448 44.0399 59.0514V59.6022C43.3055 60.5856 42.604 61.0774 41.9352 61.0774C41.614 61.0774 41.3583 60.9659 41.1681 60.743C40.978 60.5201 40.8797 60.1398 40.8731 59.6022ZM40.8731 58.9629V55.5306C39.8831 55.924 39.2438 56.2027 38.9553 56.3666C38.4374 56.6551 38.0669 56.9567 37.844 57.2714C37.6211 57.5861 37.5097 57.9303 37.5097 58.304C37.5097 58.7761 37.6506 59.1694 37.9325 59.4842C38.2145 59.7923 38.539 59.9464 38.9062 59.9464C39.4045 59.9464 40.0601 59.6186 40.8731 58.9629Z"/>
<path d="M47.1279 57.6156C46.5772 57.3468 46.1543 56.973 45.8593 56.4944C45.5642 56.0093 45.4167 55.4749 45.4167 54.8914C45.4167 53.9997 45.7511 53.2326 46.4198 52.5901C47.0951 51.9475 47.9573 51.6263 49.0063 51.6263C49.8652 51.6263 50.6094 51.8361 51.2388 52.2557H53.1467C53.4286 52.2557 53.5926 52.2655 53.6385 52.2852C53.6843 52.2983 53.7171 52.3245 53.7368 52.3639C53.7761 52.4229 53.7958 52.5278 53.7958 52.6786C53.7958 52.8491 53.7794 52.9671 53.7466 53.0326C53.727 53.0654 53.6909 53.0916 53.6385 53.1113C53.5926 53.131 53.4286 53.1408 53.1467 53.1408H51.9764C52.3436 53.6129 52.5271 54.2161 52.5271 54.9504C52.5271 55.7896 52.2059 56.5075 51.5633 57.1042C50.9208 57.7008 50.0586 57.9991 48.9768 57.9991C48.531 57.9991 48.0753 57.9336 47.6098 57.8024C47.3213 58.0516 47.1246 58.2712 47.0197 58.4614C46.9214 58.6449 46.8722 58.8023 46.8722 58.9334C46.8722 59.0449 46.9247 59.1531 47.0296 59.258C47.141 59.3629 47.3541 59.4383 47.6688 59.4842C47.8524 59.5104 48.3114 59.5333 49.0457 59.553C50.3963 59.5858 51.2716 59.6317 51.6715 59.6907C52.2813 59.7759 52.7664 60.0021 53.1271 60.3693C53.4942 60.7364 53.6778 61.1888 53.6778 61.7265C53.6778 62.4673 53.3303 63.1623 52.6353 63.8114C51.6125 64.7686 50.2783 65.2473 48.6326 65.2473C47.3672 65.2473 46.2985 64.962 45.4265 64.3916C44.9348 64.0638 44.6889 63.7229 44.6889 63.3688C44.6889 63.2115 44.725 63.0541 44.7971 62.8968C44.9086 62.6542 45.1381 62.3165 45.4855 61.8838C45.5314 61.8248 45.8658 61.4708 46.4887 60.8217C46.1477 60.6184 45.9052 60.4381 45.7609 60.2808C45.6232 60.1169 45.5544 59.9333 45.5544 59.73C45.5544 59.5005 45.6462 59.2317 45.8298 58.9236C46.0199 58.6154 46.4526 58.1794 47.1279 57.6156ZM48.8391 52.0983C48.354 52.0983 47.9475 52.2918 47.6197 52.6786C47.2918 53.0654 47.1279 53.6588 47.1279 54.4587C47.1279 55.4946 47.3508 56.2977 47.7967 56.8681C48.1376 57.3009 48.5703 57.5172 49.0949 57.5172C49.5931 57.5172 50.0029 57.3304 50.3242 56.9567C50.6454 56.5829 50.8061 55.9961 50.8061 55.1963C50.8061 54.1538 50.5799 53.3375 50.1275 52.7474C49.7931 52.3147 49.3637 52.0983 48.8391 52.0983ZM47.0296 60.9003C46.7214 61.2347 46.4887 61.5462 46.3313 61.8346C46.174 62.1231 46.0953 62.3887 46.0953 62.6312C46.0953 62.9459 46.2854 63.2213 46.6657 63.4573C47.3213 63.8638 48.2687 64.0671 49.5079 64.0671C50.6881 64.0671 51.5568 63.8573 52.1141 63.4377C52.6779 63.0246 52.9599 62.5821 52.9599 62.11C52.9599 61.7691 52.7927 61.5265 52.4583 61.3822C52.1174 61.238 51.442 61.1528 50.4324 61.1265C48.9572 61.0872 47.8229 61.0118 47.0296 60.9003Z"/>
<path d="M56.3036 55.2848C56.2971 56.6223 56.6216 57.6713 57.2773 58.4319C57.9329 59.1924 58.7033 59.5727 59.5884 59.5727C60.1785 59.5727 60.6899 59.412 61.1226 59.0908C61.5619 58.7629 61.929 58.2057 62.2241 57.4189L62.529 57.6156C62.3913 58.5138 61.9913 59.3334 61.3291 60.0742C60.6669 60.8086 59.8375 61.1757 58.841 61.1757C57.7592 61.1757 56.8314 60.7561 56.0578 59.9169C55.2907 59.0711 54.9071 57.9368 54.9071 56.5141C54.9071 54.9733 55.3005 53.7735 56.0873 52.9146C56.8806 52.0492 57.8739 51.6164 59.0672 51.6164C60.0769 51.6164 60.9062 51.9508 61.5553 52.6196C62.2044 53.2818 62.529 54.1702 62.529 55.2848H56.3036ZM56.3036 54.7144H60.4735C60.4407 54.1374 60.3719 53.7309 60.267 53.4949C60.1031 53.1277 59.8572 52.8392 59.5294 52.6294C59.2081 52.4196 58.8705 52.3147 58.5164 52.3147C57.9722 52.3147 57.4838 52.5278 57.0511 52.954C56.6249 53.3736 56.3758 53.9604 56.3036 54.7144Z"/>
<path d="M65.6269 58.9924C65.935 58.9924 66.194 59.1006 66.4038 59.317C66.6136 59.5268 66.7185 59.7825 66.7185 60.0841C66.7185 60.3857 66.6103 60.6446 66.394 60.861C66.1842 61.0708 65.9285 61.1757 65.6269 61.1757C65.3253 61.1757 65.0663 61.0708 64.8499 60.861C64.6401 60.6446 64.5352 60.3857 64.5352 60.0841C64.5352 59.7759 64.6401 59.5169 64.8499 59.3071C65.0663 59.0973 65.3253 58.9924 65.6269 58.9924Z"/>
</mask>
<path d="M31.2772 35C31.5001 35.3803 31.6542 35.7376 31.7394 36.072C31.8247 36.3998 31.9099 37.0489 31.9951 38.0192L32.4278 42.8579C32.8212 42.3858 33.3916 41.6384 34.1391 40.6156C34.4997 40.1173 34.9455 39.4387 35.4766 38.5798C35.7978 38.0553 35.9945 37.6881 36.0667 37.4783C36.106 37.3734 36.1257 37.2652 36.1257 37.1538C36.1257 37.0817 36.1027 37.0227 36.0568 36.9768C36.0109 36.9309 35.8896 36.8784 35.6929 36.8194C35.5028 36.7538 35.3422 36.6391 35.211 36.4752C35.0865 36.3047 35.0242 36.1113 35.0242 35.895C35.0242 35.6261 35.1029 35.4098 35.2602 35.2459C35.4176 35.082 35.6143 35 35.8503 35C36.1388 35 36.3846 35.1213 36.5879 35.3639C36.7911 35.5999 36.8928 35.9277 36.8928 36.3473C36.8928 36.8653 36.7157 37.4587 36.3617 38.1274C36.0077 38.7896 35.3258 39.8091 34.3161 41.186C33.3064 42.5628 32.0836 44.0643 30.6478 45.6902C29.6578 46.8114 28.9234 47.5162 28.4448 47.8047C27.9662 48.0997 27.5564 48.2473 27.2155 48.2473C27.0122 48.2473 26.8352 48.1686 26.6844 48.0112C26.5271 47.8604 26.4484 47.6834 26.4484 47.4801C26.4484 47.2244 26.5566 46.9917 26.7729 46.7819C26.9827 46.5721 27.2122 46.4672 27.4614 46.4672C27.5925 46.4672 27.7007 46.4967 27.7859 46.5557C27.8383 46.5885 27.8974 46.6803 27.9629 46.8311C28.0219 46.9884 28.0777 47.0933 28.1301 47.1458C28.1629 47.1786 28.2022 47.1949 28.2481 47.1949C28.2875 47.1949 28.3563 47.1622 28.4547 47.0966C28.8153 46.8737 29.2349 46.5196 29.7135 46.0345C30.3429 45.3919 30.8084 44.8674 31.11 44.4609L30.5593 38.2258C30.4675 37.1964 30.3298 36.5703 30.1462 36.3473C29.9626 36.1244 29.6545 36.013 29.2218 36.013C29.0841 36.013 28.8382 36.0326 28.4842 36.072L28.3956 35.7081L31.2772 35Z" fill="#0000FF"/>
<path d="M46.4619 35L44.5441 41.6679L44.3278 42.5628C44.3081 42.6481 44.2982 42.7202 44.2982 42.7792C44.2982 42.8841 44.331 42.9759 44.3966 43.0546C44.449 43.1136 44.5146 43.1431 44.5933 43.1431C44.6785 43.1431 44.79 43.0906 44.9277 42.9857C45.1834 42.7956 45.5243 42.4022 45.9505 41.8056L46.2848 42.0416C45.8325 42.7235 45.3669 43.2447 44.8883 43.6053C44.4097 43.9594 43.9671 44.1364 43.5606 44.1364C43.2787 44.1364 43.0656 44.0643 42.9214 43.92C42.7837 43.7823 42.7149 43.5791 42.7149 43.3103C42.7149 42.989 42.787 42.5661 42.9312 42.0416L43.1378 41.304C42.2789 42.4251 41.4888 43.2086 40.7676 43.6545C40.2497 43.9757 39.7415 44.1364 39.2432 44.1364C38.7646 44.1364 38.3516 43.9397 38.0041 43.5463C37.6566 43.1464 37.4828 42.5989 37.4828 41.9039C37.4828 40.8614 37.7943 39.7632 38.4171 38.6093C39.0466 37.4488 39.8432 36.5211 40.807 35.8261C41.5609 35.2754 42.2723 35 42.9411 35C43.341 35 43.6721 35.1049 43.9344 35.3147C44.2032 35.5245 44.4064 35.872 44.5441 36.3572L44.8982 35.236L46.4619 35ZM42.9607 35.5114C42.5411 35.5114 42.0953 35.7081 41.6232 36.1015C40.9545 36.6588 40.3578 37.4849 39.8333 38.5798C39.3154 39.6747 39.0564 40.6647 39.0564 41.5499C39.0564 41.9957 39.1678 42.3497 39.3908 42.612C39.6137 42.8677 39.8694 42.9956 40.1579 42.9956C40.8725 42.9956 41.6495 42.4678 42.4887 41.4122C43.6098 40.0091 44.1704 38.57 44.1704 37.0948C44.1704 36.5375 44.0622 36.1343 43.8459 35.8851C43.6295 35.636 43.3345 35.5114 42.9607 35.5114Z" fill="#0000FF"/>
<path d="M51.5365 35L50.8579 37.262C51.5726 36.4227 52.2086 35.8359 52.7659 35.5016C53.3297 35.1672 53.9034 35 54.4869 35C55.0704 35 55.5687 35.2328 55.9818 35.6983C56.3948 36.1572 56.6014 36.7571 56.6014 37.498C56.6014 38.9404 56.0146 40.409 54.841 41.9039C53.6674 43.3922 52.3004 44.1364 50.7399 44.1364C50.4121 44.1364 50.1203 44.1003 49.8646 44.0282C49.6155 43.9561 49.3336 43.8282 49.0189 43.6446L48.3009 46.182C48.1567 46.6803 48.0846 47.0048 48.0846 47.1556C48.0846 47.2998 48.1206 47.4211 48.1928 47.5195C48.2714 47.6244 48.396 47.7031 48.5665 47.7555C48.7369 47.8145 49.0746 47.844 49.5794 47.844L49.4909 48.2079H44.8588L44.9572 47.844C45.5669 47.8178 45.98 47.7129 46.1963 47.5293C46.4061 47.3457 46.6291 46.8376 46.8651 46.005L49.3532 37.3898C49.504 36.8456 49.5794 36.508 49.5794 36.3768C49.5794 36.1998 49.527 36.0621 49.4221 35.9638C49.3237 35.8654 49.1697 35.8163 48.9599 35.8163C48.7697 35.8163 48.5042 35.8392 48.1633 35.8851V35.5016L51.5365 35ZM49.2451 42.8677C49.6516 43.3529 50.199 43.5955 50.8875 43.5955C51.2284 43.5955 51.5759 43.5004 51.9299 43.3103C52.284 43.1201 52.6282 42.8382 52.9626 42.4645C53.3035 42.0908 53.6084 41.6613 53.8772 41.1761C54.146 40.6844 54.3853 40.1075 54.5951 39.4453C54.8115 38.7831 54.9197 38.1274 54.9197 37.4783C54.9197 36.9538 54.7984 36.5539 54.5558 36.2785C54.3197 35.9966 54.0411 35.8556 53.7198 35.8556C53.0117 35.8556 52.3102 36.2621 51.6152 37.0751C50.9268 37.8881 50.4219 38.8388 50.1007 39.9272L49.2451 42.8677Z" fill="#0000FF"/>
<path d="M25.0492 52.7868L27.8225 51.6656H28.1963V53.7702C28.6618 52.9769 29.1273 52.4229 29.5928 52.1082C30.0648 51.7869 30.5598 51.6263 31.0778 51.6263C31.9826 51.6263 32.7366 51.9803 33.3398 52.6884C34.0806 53.5539 34.4511 54.6816 34.4511 56.0715C34.4511 57.6254 34.0052 58.9105 33.1136 59.9267C32.3793 60.7594 31.4548 61.1757 30.3402 61.1757C29.855 61.1757 29.4354 61.1069 29.0814 60.9692C28.8191 60.8708 28.5241 60.6741 28.1963 60.3791V63.123C28.1963 63.7393 28.2323 64.1294 28.3044 64.2933C28.3831 64.4638 28.5142 64.5982 28.6978 64.6965C28.888 64.7949 29.2289 64.844 29.7206 64.844V65.2079H25V64.844H25.2459C25.6065 64.8506 25.9146 64.7817 26.1703 64.6375C26.2949 64.5654 26.39 64.4474 26.4555 64.2835C26.5276 64.1261 26.5637 63.7196 26.5637 63.064V54.5472C26.5637 53.9636 26.5375 53.5932 26.485 53.4359C26.4326 53.2785 26.3473 53.1605 26.2293 53.0818C26.1179 53.0031 25.9638 52.9638 25.7671 52.9638C25.6097 52.9638 25.4098 53.0097 25.1672 53.1015L25.0492 52.7868ZM28.1963 54.3505V57.7139C28.1963 58.4417 28.2258 58.9203 28.2848 59.1498C28.3766 59.5301 28.5995 59.8644 28.9535 60.1529C29.3141 60.4414 29.7665 60.5856 30.3107 60.5856C30.9663 60.5856 31.4974 60.3299 31.9039 59.8185C32.435 59.1498 32.7005 58.2089 32.7005 56.996C32.7005 55.6191 32.3989 54.5603 31.7957 53.8194C31.3761 53.308 30.8778 53.0523 30.3009 53.0523C29.9862 53.0523 29.6747 53.131 29.3666 53.2883C29.1305 53.4064 28.7404 53.7604 28.1963 54.3505Z" fill="#0000FF"/>
<path d="M40.8731 59.6022C39.9486 60.3168 39.3684 60.7299 39.1324 60.8413C38.7783 61.0052 38.4013 61.0872 38.0014 61.0872C37.3785 61.0872 36.8638 60.8741 36.4573 60.448C36.0574 60.0218 35.8574 59.4612 35.8574 58.7662C35.8574 58.3269 35.9558 57.9467 36.1525 57.6254C36.4213 57.1796 36.8868 56.76 37.549 56.3666C38.2177 55.9732 39.3258 55.4946 40.8731 54.9307V54.5767C40.8731 53.6784 40.7289 53.0621 40.4404 52.7278C40.1584 52.3934 39.7454 52.2262 39.2012 52.2262C38.7882 52.2262 38.4603 52.3377 38.2177 52.5606C37.9686 52.7835 37.844 53.0392 37.844 53.3277L37.8637 53.8981C37.8637 54.1997 37.785 54.4324 37.6277 54.5963C37.4769 54.7603 37.2769 54.8422 37.0278 54.8422C36.7852 54.8422 36.5852 54.757 36.4278 54.5865C36.277 54.416 36.2016 54.1833 36.2016 53.8883C36.2016 53.3244 36.4901 52.8064 37.0671 52.3344C37.6441 51.8623 38.4538 51.6263 39.4962 51.6263C40.2961 51.6263 40.9518 51.7607 41.4632 52.0295C41.85 52.2328 42.1352 52.5507 42.3188 52.9835C42.4368 53.2654 42.4958 53.8424 42.4958 54.7144V57.7729C42.4958 58.6318 42.5122 59.1596 42.545 59.3563C42.5778 59.5464 42.6302 59.6743 42.7023 59.7399C42.781 59.8054 42.8695 59.8382 42.9679 59.8382C43.0728 59.8382 43.1646 59.8153 43.2432 59.7694C43.3809 59.6841 43.6465 59.4448 44.0399 59.0514V59.6022C43.3055 60.5856 42.604 61.0774 41.9352 61.0774C41.614 61.0774 41.3583 60.9659 41.1681 60.743C40.978 60.5201 40.8797 60.1398 40.8731 59.6022ZM40.8731 58.9629V55.5306C39.8831 55.924 39.2438 56.2027 38.9553 56.3666C38.4374 56.6551 38.0669 56.9567 37.844 57.2714C37.6211 57.5861 37.5097 57.9303 37.5097 58.304C37.5097 58.7761 37.6506 59.1694 37.9325 59.4842C38.2145 59.7923 38.539 59.9464 38.9062 59.9464C39.4045 59.9464 40.0601 59.6186 40.8731 58.9629Z" fill="#0000FF"/>
<path d="M47.1279 57.6156C46.5772 57.3468 46.1543 56.973 45.8593 56.4944C45.5642 56.0093 45.4167 55.4749 45.4167 54.8914C45.4167 53.9997 45.7511 53.2326 46.4198 52.5901C47.0951 51.9475 47.9573 51.6263 49.0063 51.6263C49.8652 51.6263 50.6094 51.8361 51.2388 52.2557H53.1467C53.4286 52.2557 53.5926 52.2655 53.6385 52.2852C53.6843 52.2983 53.7171 52.3245 53.7368 52.3639C53.7761 52.4229 53.7958 52.5278 53.7958 52.6786C53.7958 52.8491 53.7794 52.9671 53.7466 53.0326C53.727 53.0654 53.6909 53.0916 53.6385 53.1113C53.5926 53.131 53.4286 53.1408 53.1467 53.1408H51.9764C52.3436 53.6129 52.5271 54.2161 52.5271 54.9504C52.5271 55.7896 52.2059 56.5075 51.5633 57.1042C50.9208 57.7008 50.0586 57.9991 48.9768 57.9991C48.531 57.9991 48.0753 57.9336 47.6098 57.8024C47.3213 58.0516 47.1246 58.2712 47.0197 58.4614C46.9214 58.6449 46.8722 58.8023 46.8722 58.9334C46.8722 59.0449 46.9247 59.1531 47.0296 59.258C47.141 59.3629 47.3541 59.4383 47.6688 59.4842C47.8524 59.5104 48.3114 59.5333 49.0457 59.553C50.3963 59.5858 51.2716 59.6317 51.6715 59.6907C52.2813 59.7759 52.7664 60.0021 53.1271 60.3693C53.4942 60.7364 53.6778 61.1888 53.6778 61.7265C53.6778 62.4673 53.3303 63.1623 52.6353 63.8114C51.6125 64.7686 50.2783 65.2473 48.6326 65.2473C47.3672 65.2473 46.2985 64.962 45.4265 64.3916C44.9348 64.0638 44.6889 63.7229 44.6889 63.3688C44.6889 63.2115 44.725 63.0541 44.7971 62.8968C44.9086 62.6542 45.1381 62.3165 45.4855 61.8838C45.5314 61.8248 45.8658 61.4708 46.4887 60.8217C46.1477 60.6184 45.9052 60.4381 45.7609 60.2808C45.6232 60.1169 45.5544 59.9333 45.5544 59.73C45.5544 59.5005 45.6462 59.2317 45.8298 58.9236C46.0199 58.6154 46.4526 58.1794 47.1279 57.6156ZM48.8391 52.0983C48.354 52.0983 47.9475 52.2918 47.6197 52.6786C47.2918 53.0654 47.1279 53.6588 47.1279 54.4587C47.1279 55.4946 47.3508 56.2977 47.7967 56.8681C48.1376 57.3009 48.5703 57.5172 49.0949 57.5172C49.5931 57.5172 50.0029 57.3304 50.3242 56.9567C50.6454 56.5829 50.8061 55.9961 50.8061 55.1963C50.8061 54.1538 50.5799 53.3375 50.1275 52.7474C49.7931 52.3147 49.3637 52.0983 48.8391 52.0983ZM47.0296 60.9003C46.7214 61.2347 46.4887 61.5462 46.3313 61.8346C46.174 62.1231 46.0953 62.3887 46.0953 62.6312C46.0953 62.9459 46.2854 63.2213 46.6657 63.4573C47.3213 63.8638 48.2687 64.0671 49.5079 64.0671C50.6881 64.0671 51.5568 63.8573 52.1141 63.4377C52.6779 63.0246 52.9599 62.5821 52.9599 62.11C52.9599 61.7691 52.7927 61.5265 52.4583 61.3822C52.1174 61.238 51.442 61.1528 50.4324 61.1265C48.9572 61.0872 47.8229 61.0118 47.0296 60.9003Z" fill="#0000FF"/>
<path d="M56.3036 55.2848C56.2971 56.6223 56.6216 57.6713 57.2773 58.4319C57.9329 59.1924 58.7033 59.5727 59.5884 59.5727C60.1785 59.5727 60.6899 59.412 61.1226 59.0908C61.5619 58.7629 61.929 58.2057 62.2241 57.4189L62.529 57.6156C62.3913 58.5138 61.9913 59.3334 61.3291 60.0742C60.6669 60.8086 59.8375 61.1757 58.841 61.1757C57.7592 61.1757 56.8314 60.7561 56.0578 59.9169C55.2907 59.0711 54.9071 57.9368 54.9071 56.5141C54.9071 54.9733 55.3005 53.7735 56.0873 52.9146C56.8806 52.0492 57.8739 51.6164 59.0672 51.6164C60.0769 51.6164 60.9062 51.9508 61.5553 52.6196C62.2044 53.2818 62.529 54.1702 62.529 55.2848H56.3036ZM56.3036 54.7144H60.4735C60.4407 54.1374 60.3719 53.7309 60.267 53.4949C60.1031 53.1277 59.8572 52.8392 59.5294 52.6294C59.2081 52.4196 58.8705 52.3147 58.5164 52.3147C57.9722 52.3147 57.4838 52.5278 57.0511 52.954C56.6249 53.3736 56.3758 53.9604 56.3036 54.7144Z" fill="#0000FF"/>
<path d="M65.6269 58.9924C65.935 58.9924 66.194 59.1006 66.4038 59.317C66.6136 59.5268 66.7185 59.7825 66.7185 60.0841C66.7185 60.3857 66.6103 60.6446 66.394 60.861C66.1842 61.0708 65.9285 61.1757 65.6269 61.1757C65.3253 61.1757 65.0663 61.0708 64.8499 60.861C64.6401 60.6446 64.5352 60.3857 64.5352 60.0841C64.5352 59.7759 64.6401 59.5169 64.8499 59.3071C65.0663 59.0973 65.3253 58.9924 65.6269 58.9924Z" fill="#0000FF"/>
<path d="M31.2772 35C31.5001 35.3803 31.6542 35.7376 31.7394 36.072C31.8247 36.3998 31.9099 37.0489 31.9951 38.0192L32.4278 42.8579C32.8212 42.3858 33.3916 41.6384 34.1391 40.6156C34.4997 40.1173 34.9455 39.4387 35.4766 38.5798C35.7978 38.0553 35.9945 37.6881 36.0667 37.4783C36.106 37.3734 36.1257 37.2652 36.1257 37.1538C36.1257 37.0817 36.1027 37.0227 36.0568 36.9768C36.0109 36.9309 35.8896 36.8784 35.6929 36.8194C35.5028 36.7538 35.3422 36.6391 35.211 36.4752C35.0865 36.3047 35.0242 36.1113 35.0242 35.895C35.0242 35.6261 35.1029 35.4098 35.2602 35.2459C35.4176 35.082 35.6143 35 35.8503 35C36.1388 35 36.3846 35.1213 36.5879 35.3639C36.7911 35.5999 36.8928 35.9277 36.8928 36.3473C36.8928 36.8653 36.7157 37.4587 36.3617 38.1274C36.0077 38.7896 35.3258 39.8091 34.3161 41.186C33.3064 42.5628 32.0836 44.0643 30.6478 45.6902C29.6578 46.8114 28.9234 47.5162 28.4448 47.8047C27.9662 48.0997 27.5564 48.2473 27.2155 48.2473C27.0122 48.2473 26.8352 48.1686 26.6844 48.0112C26.5271 47.8604 26.4484 47.6834 26.4484 47.4801C26.4484 47.2244 26.5566 46.9917 26.7729 46.7819C26.9827 46.5721 27.2122 46.4672 27.4614 46.4672C27.5925 46.4672 27.7007 46.4967 27.7859 46.5557C27.8383 46.5885 27.8974 46.6803 27.9629 46.8311C28.0219 46.9884 28.0777 47.0933 28.1301 47.1458C28.1629 47.1786 28.2022 47.1949 28.2481 47.1949C28.2875 47.1949 28.3563 47.1622 28.4547 47.0966C28.8153 46.8737 29.2349 46.5196 29.7135 46.0345C30.3429 45.3919 30.8084 44.8674 31.11 44.4609L30.5593 38.2258C30.4675 37.1964 30.3298 36.5703 30.1462 36.3473C29.9626 36.1244 29.6545 36.013 29.2218 36.013C29.0841 36.013 28.8382 36.0326 28.4842 36.072L28.3956 35.7081L31.2772 35Z" stroke="#0000FF" mask="url(#path-2-outside-1_98_968)"/>
<path d="M46.4619 35L44.5441 41.6679L44.3278 42.5628C44.3081 42.6481 44.2982 42.7202 44.2982 42.7792C44.2982 42.8841 44.331 42.9759 44.3966 43.0546C44.449 43.1136 44.5146 43.1431 44.5933 43.1431C44.6785 43.1431 44.79 43.0906 44.9277 42.9857C45.1834 42.7956 45.5243 42.4022 45.9505 41.8056L46.2848 42.0416C45.8325 42.7235 45.3669 43.2447 44.8883 43.6053C44.4097 43.9594 43.9671 44.1364 43.5606 44.1364C43.2787 44.1364 43.0656 44.0643 42.9214 43.92C42.7837 43.7823 42.7149 43.5791 42.7149 43.3103C42.7149 42.989 42.787 42.5661 42.9312 42.0416L43.1378 41.304C42.2789 42.4251 41.4888 43.2086 40.7676 43.6545C40.2497 43.9757 39.7415 44.1364 39.2432 44.1364C38.7646 44.1364 38.3516 43.9397 38.0041 43.5463C37.6566 43.1464 37.4828 42.5989 37.4828 41.9039C37.4828 40.8614 37.7943 39.7632 38.4171 38.6093C39.0466 37.4488 39.8432 36.5211 40.807 35.8261C41.5609 35.2754 42.2723 35 42.9411 35C43.341 35 43.6721 35.1049 43.9344 35.3147C44.2032 35.5245 44.4064 35.872 44.5441 36.3572L44.8982 35.236L46.4619 35ZM42.9607 35.5114C42.5411 35.5114 42.0953 35.7081 41.6232 36.1015C40.9545 36.6588 40.3578 37.4849 39.8333 38.5798C39.3154 39.6747 39.0564 40.6647 39.0564 41.5499C39.0564 41.9957 39.1678 42.3497 39.3908 42.612C39.6137 42.8677 39.8694 42.9956 40.1579 42.9956C40.8725 42.9956 41.6495 42.4678 42.4887 41.4122C43.6098 40.0091 44.1704 38.57 44.1704 37.0948C44.1704 36.5375 44.0622 36.1343 43.8459 35.8851C43.6295 35.636 43.3345 35.5114 42.9607 35.5114Z" stroke="#0000FF" mask="url(#path-2-outside-1_98_968)"/>
<path d="M51.5365 35L50.8579 37.262C51.5726 36.4227 52.2086 35.8359 52.7659 35.5016C53.3297 35.1672 53.9034 35 54.4869 35C55.0704 35 55.5687 35.2328 55.9818 35.6983C56.3948 36.1572 56.6014 36.7571 56.6014 37.498C56.6014 38.9404 56.0146 40.409 54.841 41.9039C53.6674 43.3922 52.3004 44.1364 50.7399 44.1364C50.4121 44.1364 50.1203 44.1003 49.8646 44.0282C49.6155 43.9561 49.3336 43.8282 49.0189 43.6446L48.3009 46.182C48.1567 46.6803 48.0846 47.0048 48.0846 47.1556C48.0846 47.2998 48.1206 47.4211 48.1928 47.5195C48.2714 47.6244 48.396 47.7031 48.5665 47.7555C48.7369 47.8145 49.0746 47.844 49.5794 47.844L49.4909 48.2079H44.8588L44.9572 47.844C45.5669 47.8178 45.98 47.7129 46.1963 47.5293C46.4061 47.3457 46.6291 46.8376 46.8651 46.005L49.3532 37.3898C49.504 36.8456 49.5794 36.508 49.5794 36.3768C49.5794 36.1998 49.527 36.0621 49.4221 35.9638C49.3237 35.8654 49.1697 35.8163 48.9599 35.8163C48.7697 35.8163 48.5042 35.8392 48.1633 35.8851V35.5016L51.5365 35ZM49.2451 42.8677C49.6516 43.3529 50.199 43.5955 50.8875 43.5955C51.2284 43.5955 51.5759 43.5004 51.9299 43.3103C52.284 43.1201 52.6282 42.8382 52.9626 42.4645C53.3035 42.0908 53.6084 41.6613 53.8772 41.1761C54.146 40.6844 54.3853 40.1075 54.5951 39.4453C54.8115 38.7831 54.9197 38.1274 54.9197 37.4783C54.9197 36.9538 54.7984 36.5539 54.5558 36.2785C54.3197 35.9966 54.0411 35.8556 53.7198 35.8556C53.0117 35.8556 52.3102 36.2621 51.6152 37.0751C50.9268 37.8881 50.4219 38.8388 50.1007 39.9272L49.2451 42.8677Z" stroke="#0000FF" mask="url(#path-2-outside-1_98_968)"/>
<path d="M25.0492 52.7868L27.8225 51.6656H28.1963V53.7702C28.6618 52.9769 29.1273 52.4229 29.5928 52.1082C30.0648 51.7869 30.5598 51.6263 31.0778 51.6263C31.9826 51.6263 32.7366 51.9803 33.3398 52.6884C34.0806 53.5539 34.4511 54.6816 34.4511 56.0715C34.4511 57.6254 34.0052 58.9105 33.1136 59.9267C32.3793 60.7594 31.4548 61.1757 30.3402 61.1757C29.855 61.1757 29.4354 61.1069 29.0814 60.9692C28.8191 60.8708 28.5241 60.6741 28.1963 60.3791V63.123C28.1963 63.7393 28.2323 64.1294 28.3044 64.2933C28.3831 64.4638 28.5142 64.5982 28.6978 64.6965C28.888 64.7949 29.2289 64.844 29.7206 64.844V65.2079H25V64.844H25.2459C25.6065 64.8506 25.9146 64.7817 26.1703 64.6375C26.2949 64.5654 26.39 64.4474 26.4555 64.2835C26.5276 64.1261 26.5637 63.7196 26.5637 63.064V54.5472C26.5637 53.9636 26.5375 53.5932 26.485 53.4359C26.4326 53.2785 26.3473 53.1605 26.2293 53.0818C26.1179 53.0031 25.9638 52.9638 25.7671 52.9638C25.6097 52.9638 25.4098 53.0097 25.1672 53.1015L25.0492 52.7868ZM28.1963 54.3505V57.7139C28.1963 58.4417 28.2258 58.9203 28.2848 59.1498C28.3766 59.5301 28.5995 59.8644 28.9535 60.1529C29.3141 60.4414 29.7665 60.5856 30.3107 60.5856C30.9663 60.5856 31.4974 60.3299 31.9039 59.8185C32.435 59.1498 32.7005 58.2089 32.7005 56.996C32.7005 55.6191 32.3989 54.5603 31.7957 53.8194C31.3761 53.308 30.8778 53.0523 30.3009 53.0523C29.9862 53.0523 29.6747 53.131 29.3666 53.2883C29.1305 53.4064 28.7404 53.7604 28.1963 54.3505Z" stroke="#0000FF" mask="url(#path-2-outside-1_98_968)"/>
<path d="M40.8731 59.6022C39.9486 60.3168 39.3684 60.7299 39.1324 60.8413C38.7783 61.0052 38.4013 61.0872 38.0014 61.0872C37.3785 61.0872 36.8638 60.8741 36.4573 60.448C36.0574 60.0218 35.8574 59.4612 35.8574 58.7662C35.8574 58.3269 35.9558 57.9467 36.1525 57.6254C36.4213 57.1796 36.8868 56.76 37.549 56.3666C38.2177 55.9732 39.3258 55.4946 40.8731 54.9307V54.5767C40.8731 53.6784 40.7289 53.0621 40.4404 52.7278C40.1584 52.3934 39.7454 52.2262 39.2012 52.2262C38.7882 52.2262 38.4603 52.3377 38.2177 52.5606C37.9686 52.7835 37.844 53.0392 37.844 53.3277L37.8637 53.8981C37.8637 54.1997 37.785 54.4324 37.6277 54.5963C37.4769 54.7603 37.2769 54.8422 37.0278 54.8422C36.7852 54.8422 36.5852 54.757 36.4278 54.5865C36.277 54.416 36.2016 54.1833 36.2016 53.8883C36.2016 53.3244 36.4901 52.8064 37.0671 52.3344C37.6441 51.8623 38.4538 51.6263 39.4962 51.6263C40.2961 51.6263 40.9518 51.7607 41.4632 52.0295C41.85 52.2328 42.1352 52.5507 42.3188 52.9835C42.4368 53.2654 42.4958 53.8424 42.4958 54.7144V57.7729C42.4958 58.6318 42.5122 59.1596 42.545 59.3563C42.5778 59.5464 42.6302 59.6743 42.7023 59.7399C42.781 59.8054 42.8695 59.8382 42.9679 59.8382C43.0728 59.8382 43.1646 59.8153 43.2432 59.7694C43.3809 59.6841 43.6465 59.4448 44.0399 59.0514V59.6022C43.3055 60.5856 42.604 61.0774 41.9352 61.0774C41.614 61.0774 41.3583 60.9659 41.1681 60.743C40.978 60.5201 40.8797 60.1398 40.8731 59.6022ZM40.8731 58.9629V55.5306C39.8831 55.924 39.2438 56.2027 38.9553 56.3666C38.4374 56.6551 38.0669 56.9567 37.844 57.2714C37.6211 57.5861 37.5097 57.9303 37.5097 58.304C37.5097 58.7761 37.6506 59.1694 37.9325 59.4842C38.2145 59.7923 38.539 59.9464 38.9062 59.9464C39.4045 59.9464 40.0601 59.6186 40.8731 58.9629Z" stroke="#0000FF" mask="url(#path-2-outside-1_98_968)"/>
<path d="M47.1279 57.6156C46.5772 57.3468 46.1543 56.973 45.8593 56.4944C45.5642 56.0093 45.4167 55.4749 45.4167 54.8914C45.4167 53.9997 45.7511 53.2326 46.4198 52.5901C47.0951 51.9475 47.9573 51.6263 49.0063 51.6263C49.8652 51.6263 50.6094 51.8361 51.2388 52.2557H53.1467C53.4286 52.2557 53.5926 52.2655 53.6385 52.2852C53.6843 52.2983 53.7171 52.3245 53.7368 52.3639C53.7761 52.4229 53.7958 52.5278 53.7958 52.6786C53.7958 52.8491 53.7794 52.9671 53.7466 53.0326C53.727 53.0654 53.6909 53.0916 53.6385 53.1113C53.5926 53.131 53.4286 53.1408 53.1467 53.1408H51.9764C52.3436 53.6129 52.5271 54.2161 52.5271 54.9504C52.5271 55.7896 52.2059 56.5075 51.5633 57.1042C50.9208 57.7008 50.0586 57.9991 48.9768 57.9991C48.531 57.9991 48.0753 57.9336 47.6098 57.8024C47.3213 58.0516 47.1246 58.2712 47.0197 58.4614C46.9214 58.6449 46.8722 58.8023 46.8722 58.9334C46.8722 59.0449 46.9247 59.1531 47.0296 59.258C47.141 59.3629 47.3541 59.4383 47.6688 59.4842C47.8524 59.5104 48.3114 59.5333 49.0457 59.553C50.3963 59.5858 51.2716 59.6317 51.6715 59.6907C52.2813 59.7759 52.7664 60.0021 53.1271 60.3693C53.4942 60.7364 53.6778 61.1888 53.6778 61.7265C53.6778 62.4673 53.3303 63.1623 52.6353 63.8114C51.6125 64.7686 50.2783 65.2473 48.6326 65.2473C47.3672 65.2473 46.2985 64.962 45.4265 64.3916C44.9348 64.0638 44.6889 63.7229 44.6889 63.3688C44.6889 63.2115 44.725 63.0541 44.7971 62.8968C44.9086 62.6542 45.1381 62.3165 45.4855 61.8838C45.5314 61.8248 45.8658 61.4708 46.4887 60.8217C46.1477 60.6184 45.9052 60.4381 45.7609 60.2808C45.6232 60.1169 45.5544 59.9333 45.5544 59.73C45.5544 59.5005 45.6462 59.2317 45.8298 58.9236C46.0199 58.6154 46.4526 58.1794 47.1279 57.6156ZM48.8391 52.0983C48.354 52.0983 47.9475 52.2918 47.6197 52.6786C47.2918 53.0654 47.1279 53.6588 47.1279 54.4587C47.1279 55.4946 47.3508 56.2977 47.7967 56.8681C48.1376 57.3009 48.5703 57.5172 49.0949 57.5172C49.5931 57.5172 50.0029 57.3304 50.3242 56.9567C50.6454 56.5829 50.8061 55.9961 50.8061 55.1963C50.8061 54.1538 50.5799 53.3375 50.1275 52.7474C49.7931 52.3147 49.3637 52.0983 48.8391 52.0983ZM47.0296 60.9003C46.7214 61.2347 46.4887 61.5462 46.3313 61.8346C46.174 62.1231 46.0953 62.3887 46.0953 62.6312C46.0953 62.9459 46.2854 63.2213 46.6657 63.4573C47.3213 63.8638 48.2687 64.0671 49.5079 64.0671C50.6881 64.0671 51.5568 63.8573 52.1141 63.4377C52.6779 63.0246 52.9599 62.5821 52.9599 62.11C52.9599 61.7691 52.7927 61.5265 52.4583 61.3822C52.1174 61.238 51.442 61.1528 50.4324 61.1265C48.9572 61.0872 47.8229 61.0118 47.0296 60.9003Z" stroke="#0000FF" mask="url(#path-2-outside-1_98_968)"/>
<path d="M56.3036 55.2848C56.2971 56.6223 56.6216 57.6713 57.2773 58.4319C57.9329 59.1924 58.7033 59.5727 59.5884 59.5727C60.1785 59.5727 60.6899 59.412 61.1226 59.0908C61.5619 58.7629 61.929 58.2057 62.2241 57.4189L62.529 57.6156C62.3913 58.5138 61.9913 59.3334 61.3291 60.0742C60.6669 60.8086 59.8375 61.1757 58.841 61.1757C57.7592 61.1757 56.8314 60.7561 56.0578 59.9169C55.2907 59.0711 54.9071 57.9368 54.9071 56.5141C54.9071 54.9733 55.3005 53.7735 56.0873 52.9146C56.8806 52.0492 57.8739 51.6164 59.0672 51.6164C60.0769 51.6164 60.9062 51.9508 61.5553 52.6196C62.2044 53.2818 62.529 54.1702 62.529 55.2848H56.3036ZM56.3036 54.7144H60.4735C60.4407 54.1374 60.3719 53.7309 60.267 53.4949C60.1031 53.1277 59.8572 52.8392 59.5294 52.6294C59.2081 52.4196 58.8705 52.3147 58.5164 52.3147C57.9722 52.3147 57.4838 52.5278 57.0511 52.954C56.6249 53.3736 56.3758 53.9604 56.3036 54.7144Z" stroke="#0000FF" mask="url(#path-2-outside-1_98_968)"/>
<path d="M65.6269 58.9924C65.935 58.9924 66.194 59.1006 66.4038 59.317C66.6136 59.5268 66.7185 59.7825 66.7185 60.0841C66.7185 60.3857 66.6103 60.6446 66.394 60.861C66.1842 61.0708 65.9285 61.1757 65.6269 61.1757C65.3253 61.1757 65.0663 61.0708 64.8499 60.861C64.6401 60.6446 64.5352 60.3857 64.5352 60.0841C64.5352 59.7759 64.6401 59.5169 64.8499 59.3071C65.0663 59.0973 65.3253 58.9924 65.6269 58.9924Z" stroke="#0000FF" mask="url(#path-2-outside-1_98_968)"/>
<path d="M63.0472 35.0107C62.8485 34.6532 62.5704 34.378 62.2141 34.1873C61.8616 33.9965 61.4972 33.9 61.1221 33.9C60.749 33.9 60.3856 33.9966 60.0331 34.1873C59.6769 34.378 59.3978 34.6532 59.1972 35.0106L59.1971 35.0108C58.9996 35.3641 58.9 35.735 58.9 36.1221C58.9 36.5072 58.9986 36.876 59.194 37.2273C59.3905 37.5807 59.6652 37.8565 60.0167 38.0532L60.0173 38.0535C60.3686 38.2468 60.7373 38.3443 61.1221 38.3443C61.507 38.3443 61.8757 38.2468 62.2269 38.0535L62.2273 38.0533C62.5809 37.8567 62.8567 37.5809 63.0533 37.2273C63.2487 36.876 63.3473 36.5072 63.3473 36.1221C63.3473 35.7349 63.2466 35.364 63.0472 35.0107ZM63.0472 35.0107C63.0472 35.0108 63.0473 35.0109 63.0474 35.011L62.9599 35.0596L63.047 35.0104C63.0471 35.0105 63.0471 35.0106 63.0472 35.0107ZM61.9956 37.645L61.9953 37.6451C61.7162 37.8008 61.4256 37.8779 61.1221 37.8779C60.8208 37.8779 60.5301 37.8009 60.2487 37.645C59.9697 37.4904 59.7537 37.2753 59.5992 36.9984C59.4434 36.7172 59.3664 36.4255 59.3664 36.1221C59.3664 35.819 59.4443 35.5263 59.6021 35.243C59.7607 34.9599 59.9785 34.7443 60.2567 34.5939C60.5407 34.4414 60.8288 34.3664 61.1221 34.3664C61.4176 34.3664 61.7057 34.4415 61.9875 34.5938L61.9877 34.5939C62.0689 34.6375 62.1448 34.6865 62.2154 34.7411H62.1248H62.0111H61.9216L61.9117 34.83C61.907 34.8723 61.8963 34.8835 61.8954 34.8843L61.8953 34.8843L61.8925 34.8871C61.8885 34.8911 61.8846 34.8937 61.8734 34.8937C61.8735 34.8937 61.8728 34.8937 61.8713 34.8936L61.8651 34.8928C61.8597 34.8919 61.8525 34.8904 61.8433 34.888C61.8248 34.8832 61.8008 34.8754 61.7709 34.8642L61.7709 34.8642L61.7696 34.8637C61.541 34.7813 61.3327 34.7381 61.1461 34.7381C60.7429 34.7381 60.4026 34.8707 60.1328 35.1382C59.8628 35.4061 59.7291 35.7468 59.7291 36.1521C59.7291 36.5349 59.8535 36.855 60.1062 37.1034L60.1068 37.104C60.3619 37.3503 60.6925 37.4703 61.0892 37.4703C61.506 37.4703 61.8507 37.3349 62.1134 37.0591L62.141 37.0302V36.9902V36.7806V36.5007L61.9637 36.7173C61.7529 36.9747 61.519 37.0937 61.2598 37.0937C61.0753 37.0937 60.9221 37.022 60.7945 36.8718C60.6741 36.7278 60.6026 36.4704 60.6026 36.0743C60.6026 35.7064 60.6752 35.4599 60.8002 35.3129L60.8006 35.3125C60.9302 35.1583 61.0863 35.0847 61.2748 35.0847C61.433 35.0847 61.5673 35.1344 61.6823 35.234L61.6823 35.234L61.6835 35.235C61.799 35.3318 61.8768 35.4678 61.913 35.6507L61.929 35.7313H62.0111H62.1248H62.2248V35.6313V34.8411V34.7484C62.394 34.8809 62.5328 35.0455 62.642 35.2427L62.6421 35.2429C62.7999 35.5263 62.8779 35.8189 62.8779 36.1221C62.8779 36.4255 62.8009 36.7172 62.6451 36.9984C62.4906 37.2753 62.2746 37.4904 61.9956 37.645ZM61.7477 35.1583C61.614 35.0426 61.4564 34.9847 61.2748 34.9847C61.0553 34.9847 60.8717 35.0725 60.7241 35.2481L61.7477 35.1583Z" fill="#0000FF" stroke="#0000FF" stroke-width="0.2"/>
<path d="M28.7748 21C29.4533 21 30.1318 21 30.8104 21C30.8241 21.009 30.8375 21.0251 30.8514 21.0255C30.8975 21.027 30.9349 21.0446 30.9773 21.062C31.0504 21.092 31.134 21.0951 31.1911 21.1618C31.1972 21.1689 31.2178 21.1624 31.2313 21.1645C31.3358 21.1809 31.448 21.1717 31.5302 21.2613C31.5423 21.2745 31.5731 21.2753 31.5947 21.2739C31.6683 21.2692 31.7268 21.2969 31.778 21.3474C31.7935 21.3626 31.8137 21.3794 31.8339 21.3824C31.9052 21.3932 31.9314 21.4472 31.9723 21.496C32.0063 21.5367 32.0832 21.5361 32.1208 21.5883C32.1258 21.5952 32.1255 21.606 32.1306 21.6127C32.1741 21.6691 32.2392 21.707 32.2677 21.7776C32.2727 21.7901 32.3079 21.7965 32.3288 21.7958C32.394 21.7937 32.4359 21.8121 32.4346 21.887C32.4343 21.9019 32.4459 21.9195 32.4569 21.9314C32.516 21.9954 32.57 22.0669 32.6386 22.1187C32.7151 22.1764 32.7338 22.2524 32.741 22.3331C32.7588 22.3425 32.7701 22.3505 32.7827 22.3548C32.8528 22.3785 32.8855 22.4227 32.8755 22.4999C32.8727 22.5209 32.8933 22.5451 32.904 22.5675C32.934 22.6303 32.9493 22.7008 33.0058 22.7498C33.0141 22.757 33.005 22.7838 33.0045 22.8015C33.004 22.8171 32.9976 22.8405 33.0052 22.8468C33.0482 22.8823 33.0361 22.9294 33.0387 22.974C33.0402 23.0008 33.0351 23.0388 33.0503 23.052C33.1048 23.0997 33.0908 23.1596 33.0938 23.2176C33.0947 23.2351 33.0954 23.2637 33.1048 23.2678C33.1618 23.2928 33.1458 23.3412 33.1493 23.3847C33.1582 23.4993 33.1165 23.6217 33.2019 23.7252C33.2088 23.7336 33.2015 23.7524 33.2043 23.7656C33.213 23.8049 33.2106 23.8601 33.2356 23.8795C33.2944 23.925 33.2787 23.9909 33.3051 24.041C33.3319 24.0549 33.361 24.0725 33.366 24.0954C33.3732 24.1278 33.3944 24.1469 33.4073 24.1712C33.4375 24.2282 33.4887 24.2349 33.535 24.26C33.5801 24.2845 33.6137 24.3299 33.6584 24.3555C33.7073 24.3834 33.7402 24.4312 33.8008 24.4467C33.8812 24.4673 33.9747 24.4481 34.0407 24.5172C34.1311 24.4985 34.1926 24.5991 34.2842 24.5759C34.3314 24.6604 34.4122 24.6201 34.4794 24.6265C34.5336 24.6316 34.5888 24.6275 34.6458 24.6275C34.6565 24.6554 34.6658 24.6796 34.6753 24.7044C34.6903 24.7063 34.7035 24.7084 34.7168 24.7097C34.8687 24.7242 34.9363 24.7958 34.9368 24.9431C34.937 24.9975 34.9368 25.052 34.9368 25.1071C34.8901 25.1234 34.8567 25.1378 34.8441 25.1918C34.832 25.2435 34.8242 25.3119 34.7491 25.3269C34.7384 25.329 34.7287 25.3449 34.7218 25.3564C34.68 25.4254 34.6247 25.4697 34.5347 25.4522C34.5021 25.5388 34.4651 25.617 34.3591 25.6293C34.3591 25.6921 34.3608 25.7512 34.3588 25.8102C34.3551 25.9163 34.3948 26.0157 34.4752 26.0687C34.5728 26.133 34.589 26.2089 34.5796 26.309C34.5753 26.3544 34.5788 26.4004 34.5788 26.458C34.4963 26.4661 34.4945 26.5339 34.4931 26.5857C34.3968 26.6284 34.3121 26.666 34.2275 26.7036C34.1531 26.8358 34.0177 26.8994 33.9075 26.9918C33.8613 27.0305 33.8001 27.0661 33.8073 27.145C33.8125 27.2011 33.7445 27.1693 33.7373 27.1857C33.6943 27.3225 33.7847 27.395 33.8258 27.4854C33.9474 27.4854 34.062 27.4866 34.1765 27.4851C34.29 27.4835 34.4017 27.4964 34.5145 27.508C34.5966 27.5164 34.6273 27.5783 34.6516 27.6203C34.6782 27.6664 34.6674 27.7481 34.6459 27.8039C34.6231 27.8632 34.5678 27.9098 34.5283 27.9629C34.5153 27.9804 34.4966 28.0025 34.4985 28.0207C34.5092 28.1289 34.4507 28.2519 34.5642 28.34C34.5753 28.3487 34.5758 28.373 34.5784 28.3905C34.5883 28.4569 34.5961 28.5237 34.6067 28.5901C34.6107 28.6153 34.6128 28.6536 34.6284 28.6617C34.6679 28.6823 34.6596 28.7132 34.6611 28.7436C34.6656 28.8392 34.577 28.9129 34.5969 29.0135C34.5988 29.0229 34.5726 29.0378 34.5595 29.0502C34.5472 29.0618 34.5316 29.0715 34.5232 29.0855C34.4434 29.2204 34.3262 29.3065 34.1789 29.3551C34.1622 29.3606 34.1433 29.366 34.1312 29.3775C34.0761 29.4302 34.0157 29.4092 33.9537 29.3931C33.9368 29.4513 33.8963 29.4663 33.839 29.466C33.7814 29.4658 33.7174 29.4645 33.668 29.4883C33.6293 29.5068 33.5949 29.5159 33.5541 29.5206C33.4876 29.5281 33.4017 29.5212 33.3607 29.5596C33.3062 29.6107 33.2552 29.5962 33.2004 29.6015C33.1785 29.6036 33.1562 29.6018 33.134 29.6018C33.1088 29.642 33.0802 29.6701 33.0459 29.6835C32.9674 29.7143 32.8871 29.733 32.833 29.8117C32.8101 29.8452 32.769 29.8799 32.7159 29.8892C32.6906 29.8936 32.6693 29.9255 32.648 29.9468C32.5962 29.9986 32.5421 30.0487 32.4954 30.1048C32.4483 30.1616 32.4104 30.226 32.3654 30.2847C32.3503 30.3045 32.3064 30.3283 32.3081 30.3313C32.3511 30.4054 32.2776 30.4125 32.2411 30.448C32.2649 30.5842 32.1761 30.6986 32.1488 30.8283C32.1459 30.8424 32.1252 30.8574 32.1095 30.8632C32.0873 30.8717 32.0849 30.8784 32.093 30.9008C32.1 30.9202 32.101 30.9454 32.095 30.9652C32.0347 31.166 32.0317 31.3738 32.0227 31.5799C32.0171 31.7084 32.035 31.8386 31.886 31.9032C31.8679 31.9666 31.8181 31.9651 31.7654 31.9662C31.0846 31.9803 30.4036 31.9439 29.7224 31.9888C29.3618 32.0127 28.9984 31.9952 28.6363 31.9917C28.5283 31.9907 28.42 31.9776 28.3128 31.9624C28.2813 31.958 28.2508 31.9307 28.2242 31.9086C28.1398 31.8382 28.0575 31.7652 27.9963 31.7123C27.9325 31.593 28.044 31.5398 28.0429 31.454C28.0427 31.4344 28.0875 31.4144 28.1089 31.3967C28.1281 31.2799 28.1082 31.1539 28.2134 31.0632C28.1888 30.9589 28.1829 30.9244 28.2377 30.879C28.2781 30.8455 28.2772 30.8141 28.2793 30.7746C28.2819 30.725 28.2676 30.6603 28.2933 30.629C28.3413 30.5705 28.3298 30.5106 28.3348 30.4486C28.3376 30.4142 28.3363 30.364 28.3568 30.35C28.3923 30.3256 28.3893 30.2988 28.3894 30.2682C28.39 30.1171 28.3901 29.966 28.3891 29.8148C28.389 29.793 28.3885 29.7571 28.377 29.7519C28.3196 29.7256 28.338 29.6772 28.3338 29.6346C28.3312 29.6081 28.3341 29.5653 28.3204 29.5586C28.2698 29.5338 28.2802 29.493 28.2792 29.4536C28.2785 29.422 28.2845 29.3873 28.2407 29.3777C28.2336 29.2943 28.1268 29.2577 28.1405 29.1646C28.0736 29.1074 28.0285 29.0355 27.9989 28.9533C27.9206 28.9619 27.9308 28.8842 27.8968 28.8494C27.8405 28.7918 27.7863 28.7314 27.7251 28.6794C27.6624 28.6262 27.5662 28.6186 27.5229 28.5363C27.5214 28.5334 27.5147 28.5315 27.5107 28.5318C27.423 28.5387 27.3918 28.4677 27.3387 28.4196C27.2987 28.3831 27.2781 28.315 27.213 28.3118C27.1652 28.3094 27.1439 28.2863 27.1181 28.2489C27.0898 28.2077 27.0452 28.1573 27.0021 28.1514C26.9322 28.1418 26.8993 28.098 26.8598 28.056C26.8416 28.0368 26.8345 28.0035 26.8137 27.9912C26.6937 27.9202 26.5778 27.8445 26.4922 27.7322C26.416 27.6324 26.2951 27.5913 26.2073 27.5014C26.0826 27.3737 25.9525 27.2501 25.8271 27.1221C25.7897 27.084 25.7334 27.0638 25.746 26.9945C25.7474 26.9864 25.7327 26.9686 25.7231 26.9664C25.6405 26.948 25.6609 26.8256 25.5697 26.8156C25.5639 26.815 25.5556 26.7919 25.557 26.7803C25.5626 26.731 25.5354 26.7031 25.5076 26.6653C25.4626 26.6041 25.4061 26.5471 25.3819 26.472C25.3602 26.405 25.3517 26.3323 25.2705 26.3024C25.2589 26.2981 25.2568 26.262 25.2542 26.2403C25.2451 26.1636 25.1714 26.1044 25.1939 26.0187C25.1953 26.0132 25.1857 26.0005 25.1785 25.9974C25.0932 25.961 25.1154 25.8904 25.1213 25.8241C25.1231 25.8044 25.1267 25.7797 25.1173 25.7651C25.0826 25.7108 25.0924 25.6513 25.0876 25.5928C25.0806 25.5077 25.0683 25.423 25.0583 25.3382C24.9691 25.2809 25.0093 25.1914 25.0075 25.1158C25.0028 24.9006 25.0037 24.6853 25.0069 24.47C25.0082 24.3866 24.9782 24.2946 25.0562 24.2252C25.0614 24.2206 25.0586 24.2078 25.0608 24.199C25.0732 24.1497 25.0445 24.0989 25.0877 24.0462C25.1121 24.0164 25.0899 23.9484 25.0884 23.8976C25.0868 23.8428 25.0808 23.7849 25.119 23.7406C25.1542 23.6998 25.0969 23.6626 25.1214 23.6272C25.1444 23.5937 25.1773 23.5659 25.1954 23.5303C25.2066 23.5082 25.1913 23.4737 25.2004 23.4494C25.2217 23.3927 25.2367 23.314 25.2798 23.2901C25.3313 23.2614 25.3487 23.229 25.3646 23.1824C25.3804 23.1357 25.3997 23.09 25.4198 23.0451C25.4262 23.0308 25.4382 23.017 25.4511 23.0081C25.5228 22.9589 25.5225 22.9592 25.5583 22.8761C25.5646 22.8616 25.5802 22.8511 25.5913 22.8386C25.6417 22.7822 25.6935 22.7269 25.7417 22.6687C25.7579 22.6491 25.7736 22.6224 25.7747 22.5982C25.7771 22.55 25.7959 22.5221 25.842 22.5079C25.8631 22.5014 25.886 22.4906 25.9009 22.475C25.959 22.4138 26.0133 22.3489 26.071 22.2875C26.1211 22.2341 26.1723 22.1814 26.2264 22.1319C26.2812 22.0818 26.3359 22.0341 26.406 21.9999C26.4659 21.9707 26.5093 21.9077 26.5607 21.8604C26.5665 21.8551 26.5774 21.8532 26.5859 21.8531C26.6735 21.8514 26.6971 21.7815 26.7308 21.7167C26.7779 21.7078 26.8282 21.7232 26.8722 21.6668C26.9087 21.62 26.9924 21.6132 27.0427 21.5731C27.1096 21.5198 27.1929 21.5179 27.2648 21.4817C27.3542 21.4368 27.4357 21.3732 27.5376 21.3546C27.5456 21.3532 27.5557 21.3474 27.5595 21.3406C27.5969 21.2732 27.6607 21.2731 27.7249 21.2751C27.7902 21.2771 27.8474 21.2526 27.9039 21.2244C27.9273 21.2127 27.9511 21.1971 27.9761 21.1936C28.0652 21.1815 28.1551 21.1751 28.2444 21.1637C28.2699 21.1604 28.302 21.1549 28.3178 21.138C28.4098 21.0396 28.5228 21.0126 28.6513 21.0267C28.6785 21.0296 28.7067 21.03 28.7336 21.0257C28.7483 21.0234 28.7612 21.009 28.7748 21.0001V21Z" fill="#0000FF"/>
<path d="M37.9347 26.9635C37.8407 27.0753 37.7189 27.1042 37.5765 27.1032C36.9817 27.0989 36.3869 27.1025 35.7921 27.1001C35.7027 27.0998 35.6119 27.0891 35.5243 27.0709C35.4599 27.0575 35.4124 27.0098 35.4049 26.9399C35.4008 26.9022 35.3921 26.8833 35.3515 26.8772C35.3358 26.8748 35.3154 26.8483 35.312 26.8299C35.3018 26.7773 35.2994 26.7232 35.2936 26.6697C35.2871 26.6092 35.3323 26.5844 35.3698 26.5507C35.4017 26.522 35.4245 26.4832 35.4543 26.4452C35.9251 26.3844 36.4043 26.4239 36.8822 26.4142C37.0835 26.4101 37.2849 26.4103 37.4861 26.4147C37.6031 26.4173 37.7203 26.4286 37.8365 26.4436C37.8709 26.448 37.9021 26.478 37.9347 26.4963V26.9635L37.9347 26.9635Z" fill="#0000FF"/>
<path d="M35.4087 25.8508C35.399 25.8075 35.4131 25.7663 35.3588 25.7435C35.3048 25.7209 35.2854 25.6678 35.2927 25.6061C35.2975 25.5654 35.2951 25.5237 35.2933 25.4826C35.2909 25.4289 35.3076 25.3976 35.3573 25.362C35.431 25.3092 35.4842 25.2283 35.5484 25.1615C35.6423 25.064 35.7382 24.9683 35.8333 24.872C35.8641 24.8408 35.8936 24.8079 35.9269 24.7793C35.9571 24.7535 35.9912 24.7322 36.0242 24.7099C36.0312 24.7052 36.0479 24.7057 36.0485 24.702C36.0618 24.6155 36.1466 24.5907 36.1912 24.5334C36.2839 24.4144 36.3999 24.3208 36.5052 24.2158C36.5275 24.1936 36.5601 24.1786 36.5755 24.1528C36.6579 24.0163 36.793 23.9409 36.9313 23.8983C37.0576 23.8593 37.2076 23.8565 37.3311 23.9198C37.4013 23.9558 37.4876 24.0148 37.4676 24.1269C37.4636 24.1491 37.4626 24.1736 37.4677 24.1953C37.4943 24.3085 37.4297 24.3841 37.3548 24.4469C37.2703 24.5178 37.1931 24.5938 37.1205 24.6763C37.0834 24.7186 37.0369 24.7541 36.9907 24.787C36.9391 24.8238 36.8962 24.8634 36.8609 24.9194C36.82 24.9844 36.7575 25.0362 36.7027 25.0921C36.5854 25.2114 36.4723 25.3355 36.347 25.4459C36.2841 25.5012 36.2235 25.559 36.1637 25.6171C36.1013 25.6779 36.0529 25.7536 35.9881 25.8112C35.946 25.8487 35.8861 25.8858 35.833 25.8875C35.694 25.8921 35.5507 25.9178 35.4086 25.8507L35.4087 25.8508Z" fill="#0000FF"/>
<path d="M35.9051 27.65C35.9369 27.6809 35.9351 27.7203 35.9748 27.7485C36.0542 27.8049 36.1498 27.8549 36.1795 27.9625C36.1815 27.9694 36.1921 27.9759 36.2001 27.9785C36.2917 28.0084 36.3322 28.0924 36.3931 28.1555C36.4642 28.2293 36.5462 28.2926 36.6173 28.3663C36.733 28.4865 36.8654 28.5915 36.9534 28.7377C36.9727 28.7699 37.0153 28.7878 37.0468 28.813C37.0777 28.8377 37.1079 28.8633 37.1385 28.8885C37.1482 28.8965 37.1585 28.9125 37.1674 28.9117C37.2566 28.9037 37.2921 28.9781 37.3427 29.0265C37.3634 29.0463 37.3719 29.0794 37.3843 29.1073C37.3914 29.1231 37.3914 29.1521 37.401 29.1552C37.4886 29.1834 37.4658 29.2551 37.4666 29.3157C37.4686 29.4662 37.4351 29.5214 37.3011 29.6048C37.2875 29.6133 37.2784 29.6302 37.2691 29.6445C37.2498 29.6742 37.2236 29.686 37.1881 29.6847C37.1379 29.6828 37.0874 29.6843 37.037 29.6842C36.8824 29.6842 36.8836 29.669 36.773 29.5483C36.7022 29.471 36.6356 29.3883 36.559 29.3162C36.4525 29.216 36.3377 29.1244 36.2325 29.0229C36.1948 28.9865 36.1599 28.9471 36.1206 28.9114C36.0787 28.8731 36.0493 28.8215 36.0097 28.7802C35.9232 28.69 35.8455 28.5904 35.7336 28.5263C35.7049 28.5098 35.6838 28.4757 35.666 28.4457C35.6428 28.4062 35.6276 28.3633 35.57 28.3616C35.5587 28.3612 35.5454 28.339 35.5376 28.3245C35.497 28.2488 35.4348 28.1944 35.3683 28.1424C35.3448 28.124 35.3223 28.0967 35.3131 28.0689C35.2793 27.9678 35.2853 27.8637 35.3085 27.7616C35.3146 27.7344 35.3281 27.7023 35.3724 27.7041C35.4333 27.7064 35.4646 27.6271 35.54 27.6472C35.5955 27.662 35.6582 27.6501 35.7177 27.6501C35.7816 27.6501 35.8453 27.6501 35.9053 27.6501L35.9051 27.65Z" fill="#0000FF"/>
</svg>
