<svg width="88" height="88" viewBox="0 0 88 88" fill="none" xmlns="http://www.w3.org/2000/svg">
<circle cx="44" cy="44" r="43" stroke="#0000FF"/>
<mask id="path-2-outside-1_98_1068" maskUnits="userSpaceOnUse" x="21" y="29" width="46" height="31" fill="black">
<rect fill="white" x="21" y="29" width="46" height="31"/>
<path d="M25.1864 30.8851L28.2155 30C28.4581 30.3016 28.6285 30.5868 28.7269 30.8556C28.9039 31.3211 29.0285 31.9636 29.1006 32.7832C29.2383 34.3961 29.3334 36.1171 29.3858 37.9464C30.0873 37.0219 30.8905 35.7992 31.7953 34.2781C32.0707 33.8191 32.2083 33.3864 32.2083 32.9799C32.2083 32.7242 32.0477 32.4816 31.7265 32.2521C31.4117 32.0227 31.2151 31.8456 31.1364 31.7211C31.0577 31.5899 31.0184 31.4227 31.0184 31.2195C31.0184 30.8917 31.1364 30.6065 31.3724 30.3639C31.615 30.1213 31.9068 30 32.2477 30C32.6083 30 32.9197 30.1377 33.182 30.4131C33.4508 30.6884 33.5852 31.013 33.5852 31.3867C33.5852 31.826 33.4606 32.3374 33.2115 32.9209C32.9689 33.4979 32.3952 34.4911 31.4904 35.9008C30.3299 37.7038 29.1924 39.2642 28.0778 40.5821C27.3632 41.4213 26.7862 42.0245 26.3469 42.3916C25.9076 42.7654 25.452 43.0604 24.9799 43.2768C24.698 43.4013 24.4193 43.4636 24.1439 43.4636C23.7702 43.4636 23.4522 43.3325 23.19 43.0702C22.9212 42.808 22.7868 42.4965 22.7868 42.1359C22.7868 41.7753 22.9081 41.4705 23.1507 41.2213C23.3867 40.9722 23.6653 40.8476 23.9866 40.8476C24.3865 40.8476 24.7537 41.0574 25.0881 41.477C25.311 41.7589 25.4946 41.8999 25.6388 41.8999C25.7896 41.8999 25.9371 41.8573 26.0814 41.7721C26.2781 41.6672 26.5534 41.4246 26.9075 41.0443C26.9468 40.2247 26.9665 39.6052 26.9665 39.1855C26.9665 38.6217 26.9403 37.8284 26.8878 36.8056L26.7206 33.0586C26.6616 32.3701 26.5141 31.8751 26.2781 31.5735C26.0945 31.3506 25.8552 31.2392 25.5601 31.2392C25.4487 31.2392 25.3241 31.249 25.1864 31.2687V30.8851Z"/>
<path d="M43.2723 30.1377L41.3644 36.6777L41.1677 37.4743C41.148 37.5727 41.1382 37.6448 41.1382 37.6907C41.1382 37.7694 41.1644 37.8382 41.2169 37.8972C41.2759 37.9562 41.3349 37.9857 41.3939 37.9857C41.5316 37.9857 41.7217 37.8808 41.9643 37.671C42.0627 37.5858 42.2987 37.2842 42.6724 36.7662L43.0166 36.9433C42.5511 37.7956 42.0528 38.4184 41.5217 38.8118C40.9972 39.1987 40.4301 39.3921 39.8204 39.3921C39.4466 39.3921 39.1614 39.297 38.9647 39.1069C38.768 38.9102 38.6697 38.6643 38.6697 38.3693C38.6697 38.1136 38.7746 37.6382 38.9844 36.9433L39.2204 36.1466C38.4599 37.4514 37.7289 38.3758 37.0273 38.92C36.6208 39.2347 36.1881 39.3921 35.7291 39.3921C35.126 39.3921 34.69 39.1462 34.4211 38.6545C34.1523 38.1562 34.0179 37.5956 34.0179 36.9728C34.0179 36.0483 34.2998 34.9894 34.8637 33.7962C35.4276 32.5963 36.1684 31.6325 37.0863 30.9048C37.8403 30.3016 38.5484 30 39.2106 30C39.5778 30 39.8728 30.1082 40.0957 30.3245C40.3186 30.5343 40.4826 30.9212 40.5875 31.485L40.9415 30.2754L43.2723 30.1377ZM40.1252 32.0063C40.1252 31.4752 40.0433 31.0916 39.8794 30.8556C39.7613 30.6917 39.6007 30.6097 39.3975 30.6097C39.1942 30.6097 38.9844 30.7081 38.768 30.9048C38.3288 31.3113 37.8534 32.1374 37.342 33.3831C36.8372 34.6223 36.5848 35.6943 36.5848 36.599C36.5848 36.9465 36.6405 37.199 36.7519 37.3563C36.87 37.5071 36.9978 37.5825 37.1355 37.5825C37.4305 37.5825 37.7289 37.412 38.0305 37.0711C38.4632 36.5859 38.8533 35.9926 39.2008 35.291C39.8171 34.0584 40.1252 32.9635 40.1252 32.0063Z"/>
<path d="M44.9147 30.5507L48.17 30H48.76L48.3175 31.603C49.0059 30.9736 49.5698 30.5507 50.009 30.3344C50.4483 30.1115 50.8843 30 51.317 30C51.9333 30 52.4087 30.2393 52.7431 30.7179C53.0774 31.19 53.2446 31.7702 53.2446 32.4587C53.2446 34.3404 52.5923 36.009 51.2875 37.4645C50.1336 38.7495 48.8748 39.3921 47.511 39.3921C47.2684 39.3921 47.0619 39.3691 46.8915 39.3232C46.721 39.2773 46.4817 39.1757 46.1735 39.0184L45.6621 40.7886C45.4785 41.4311 45.3868 41.9196 45.3868 42.254C45.3868 42.4638 45.4589 42.6277 45.6031 42.7457C45.7474 42.8703 46.085 42.9752 46.6161 43.0604L46.5276 43.4243H41.2365L41.3349 43.0604C41.7545 43.0473 42.1053 42.9129 42.3872 42.6572C42.6626 42.4015 42.9215 41.8507 43.1641 41.005L45.5638 32.734C45.7408 32.1177 45.8293 31.6817 45.8293 31.426C45.8293 31.3146 45.8031 31.2228 45.7506 31.1507C45.6982 31.072 45.6195 31.0162 45.5146 30.9835C45.4097 30.9507 45.1737 30.9343 44.8065 30.9343L44.9147 30.5507ZM46.4489 38.1037C46.6456 38.425 46.8226 38.6414 46.98 38.7528C47.1373 38.8577 47.3209 38.9102 47.5307 38.9102C47.7405 38.9102 47.9438 38.8544 48.1405 38.743C48.3437 38.625 48.5928 38.3922 48.8879 38.0447C49.1829 37.6972 49.4649 37.2514 49.7337 36.7072C50.009 36.163 50.2287 35.5467 50.3926 34.8583C50.5565 34.1633 50.6385 33.5011 50.6385 32.8717C50.6385 32.3669 50.5467 31.9997 50.3631 31.7702C50.1861 31.5408 49.9697 31.426 49.714 31.426C49.4845 31.426 49.2682 31.485 49.0649 31.603C48.7699 31.7735 48.4224 32.0915 48.0224 32.557L46.4489 38.1037Z"/>
<path d="M51.9956 42.1753H58.44V42.4636H51.9956V42.1753Z"/>
<path d="M29.5923 55.6943C29.3497 56.881 28.8744 57.7956 28.1663 58.4381C27.4582 59.0741 26.6747 59.3921 25.8158 59.3921C24.793 59.3921 23.9014 58.9626 23.1408 58.1037C22.3803 57.2448 22 56.0844 22 54.6223C22 53.2061 22.4196 52.0554 23.2588 51.1703C24.1046 50.2852 25.1176 49.8426 26.2977 49.8426C27.1829 49.8426 27.9106 50.0787 28.481 50.5507C29.0514 51.0162 29.3366 51.5014 29.3366 52.0063C29.3366 52.2554 29.2547 52.4587 29.0908 52.616C28.9334 52.7668 28.7105 52.8422 28.422 52.8422C28.0352 52.8422 27.7434 52.7176 27.5467 52.4685C27.4353 52.3308 27.3599 52.0685 27.3205 51.6817C27.2878 51.2949 27.1566 50.9999 26.9272 50.7966C26.6977 50.5999 26.3797 50.5016 25.9732 50.5016C25.3175 50.5016 24.7898 50.7442 24.3898 51.2293C23.8587 51.8719 23.5932 52.7209 23.5932 53.7765C23.5932 54.8518 23.8555 55.8024 24.38 56.6285C24.9111 57.4481 25.6257 57.8579 26.5239 57.8579C27.1665 57.8579 27.7434 57.6382 28.2548 57.1989C28.6154 56.8974 28.9662 56.3499 29.3071 55.5566L29.5923 55.6943Z"/>
<path d="M35.2964 49.8426C36.6602 49.8426 37.7551 50.3606 38.5812 51.3965C39.2827 52.2816 39.6335 53.2979 39.6335 54.4453C39.6335 55.2517 39.4401 56.068 39.0533 56.8941C38.6664 57.7202 38.1321 58.343 37.4502 58.7627C36.7749 59.1823 36.0209 59.3921 35.1882 59.3921C33.8311 59.3921 32.7525 58.8512 31.9526 57.7694C31.2773 56.858 30.9397 55.8352 30.9397 54.701C30.9397 53.8748 31.1429 53.0553 31.5494 52.2423C31.9625 51.4227 32.5034 50.8196 33.1721 50.4327C33.8409 50.0393 34.549 49.8426 35.2964 49.8426ZM34.9916 50.4819C34.6441 50.4819 34.2933 50.5868 33.9392 50.7966C33.5918 50.9999 33.3098 51.3605 33.0935 51.8784C32.8771 52.3964 32.7689 53.0618 32.7689 53.8748C32.7689 55.1861 33.0279 56.3171 33.5459 57.2678C34.0704 58.2185 34.7588 58.6938 35.6111 58.6938C36.2471 58.6938 36.7716 58.4316 37.1847 57.907C37.5977 57.3825 37.8043 56.481 37.8043 55.2025C37.8043 53.6028 37.46 52.3439 36.7716 51.426C36.3061 50.7966 35.7128 50.4819 34.9916 50.4819Z"/>
<path d="M47.3242 58.1037C46.8849 58.5627 46.4555 58.8938 46.0358 59.097C45.6162 59.2937 45.1638 59.3921 44.6787 59.3921C43.6952 59.3921 42.8363 58.9823 42.102 58.1627C41.3677 57.3366 41.0005 56.2778 41.0005 54.9862C41.0005 53.6945 41.407 52.5144 42.22 51.4457C43.033 50.3704 44.0787 49.8328 45.3573 49.8328C46.1506 49.8328 46.8062 50.0852 47.3242 50.5901V48.928C47.3242 47.8987 47.298 47.266 47.2455 47.0299C47.1996 46.7939 47.1242 46.6333 47.0193 46.548C46.9144 46.4628 46.7833 46.4202 46.6259 46.4202C46.4555 46.4202 46.2293 46.4726 45.9473 46.5775L45.8195 46.2333L48.5043 45.1319H48.9469V55.5467C48.9469 56.6023 48.9698 57.2481 49.0157 57.4842C49.0682 57.7136 49.1469 57.8743 49.2518 57.9661C49.3632 58.0578 49.4911 58.1037 49.6353 58.1037C49.8123 58.1037 50.0484 58.048 50.3434 57.9365L50.4516 58.2808L47.7766 59.3921H47.3242V58.1037ZM47.3242 57.4153V52.7734C47.2848 52.3275 47.1668 51.921 46.9701 51.5539C46.7734 51.1867 46.5112 50.9113 46.1834 50.7278C45.8621 50.5376 45.5474 50.4426 45.2392 50.4426C44.6623 50.4426 44.1476 50.7015 43.6952 51.2195C43.0986 51.9014 42.8002 52.8979 42.8002 54.2092C42.8002 55.5336 43.0887 56.5499 43.6657 57.258C44.2427 57.9595 44.8852 58.3103 45.5933 58.3103C46.1899 58.3103 46.7669 58.0119 47.3242 57.4153Z"/>
<path d="M52.5464 53.5011C52.5398 54.8386 52.8644 55.8877 53.52 56.6482C54.1756 57.4088 54.946 57.789 55.8311 57.789C56.4212 57.789 56.9326 57.6284 57.3653 57.3071C57.8046 56.9793 58.1718 56.422 58.4668 55.6352L58.7717 55.8319C58.634 56.7302 58.2341 57.5497 57.5719 58.2906C56.9097 59.0249 56.0803 59.3921 55.0837 59.3921C54.0019 59.3921 53.0742 58.9725 52.3005 58.1332C51.5334 57.2875 51.1499 56.1532 51.1499 54.7305C51.1499 53.1897 51.5432 51.9899 52.33 51.131C53.1233 50.2655 54.1166 49.8328 55.3099 49.8328C56.3196 49.8328 57.149 50.1672 57.7981 50.8359C58.4472 51.4981 58.7717 52.3865 58.7717 53.5011H52.5464ZM52.5464 52.9307H56.7163C56.6835 52.3538 56.6146 51.9473 56.5097 51.7112C56.3458 51.3441 56.1 51.0556 55.7721 50.8458C55.4509 50.636 55.1132 50.5311 54.7592 50.5311C54.215 50.5311 53.7265 50.7442 53.2938 51.1703C52.8676 51.5899 52.6185 52.1767 52.5464 52.9307Z"/>
<path d="M65.8035 49.8426V52.9111H65.4789C65.2298 51.9473 64.9085 51.2916 64.5151 50.9441C64.1283 50.5966 63.6333 50.4229 63.0301 50.4229C62.5711 50.4229 62.2007 50.5442 61.9188 50.7868C61.6368 51.0294 61.4959 51.2982 61.4959 51.5932C61.4959 51.9604 61.6008 52.2751 61.8106 52.5373C62.0138 52.8061 62.4269 53.0914 63.0498 53.3929L64.4856 54.0912C65.8166 54.7403 66.482 55.5959 66.482 56.658C66.482 57.4776 66.1706 58.1398 65.5478 58.6446C64.9314 59.1429 64.2397 59.3921 63.4726 59.3921C62.9219 59.3921 62.2925 59.2937 61.5844 59.097C61.368 59.0315 61.191 58.9987 61.0533 58.9987C60.9025 58.9987 60.7845 59.0839 60.6993 59.2544H60.3747V56.0385H60.6993C60.8829 56.9564 61.2336 57.6481 61.7516 58.1136C62.2695 58.5791 62.8498 58.8118 63.4923 58.8118C63.9447 58.8118 64.3119 58.6807 64.5938 58.4184C64.8823 58.1496 65.0265 57.8284 65.0265 57.4547C65.0265 57.0023 64.8659 56.622 64.5446 56.3138C64.2299 56.0057 63.5972 55.6156 62.6465 55.1435C61.6959 54.6715 61.073 54.2453 60.778 53.865C60.4829 53.4913 60.3354 53.0192 60.3354 52.4488C60.3354 51.7079 60.5878 51.0884 61.0927 50.5901C61.6041 50.0918 62.263 49.8426 63.0694 49.8426C63.4235 49.8426 63.8529 49.918 64.3578 50.0688C64.6921 50.1672 64.9151 50.2164 65.0265 50.2164C65.1314 50.2164 65.2134 50.1934 65.2724 50.1475C65.3314 50.1016 65.4002 50 65.4789 49.8426H65.8035Z"/>
</mask>
<path d="M25.1864 30.8851L28.2155 30C28.4581 30.3016 28.6285 30.5868 28.7269 30.8556C28.9039 31.3211 29.0285 31.9636 29.1006 32.7832C29.2383 34.3961 29.3334 36.1171 29.3858 37.9464C30.0873 37.0219 30.8905 35.7992 31.7953 34.2781C32.0707 33.8191 32.2083 33.3864 32.2083 32.9799C32.2083 32.7242 32.0477 32.4816 31.7265 32.2521C31.4117 32.0227 31.2151 31.8456 31.1364 31.7211C31.0577 31.5899 31.0184 31.4227 31.0184 31.2195C31.0184 30.8917 31.1364 30.6065 31.3724 30.3639C31.615 30.1213 31.9068 30 32.2477 30C32.6083 30 32.9197 30.1377 33.182 30.4131C33.4508 30.6884 33.5852 31.013 33.5852 31.3867C33.5852 31.826 33.4606 32.3374 33.2115 32.9209C32.9689 33.4979 32.3952 34.4911 31.4904 35.9008C30.3299 37.7038 29.1924 39.2642 28.0778 40.5821C27.3632 41.4213 26.7862 42.0245 26.3469 42.3916C25.9076 42.7654 25.452 43.0604 24.9799 43.2768C24.698 43.4013 24.4193 43.4636 24.1439 43.4636C23.7702 43.4636 23.4522 43.3325 23.19 43.0702C22.9212 42.808 22.7868 42.4965 22.7868 42.1359C22.7868 41.7753 22.9081 41.4705 23.1507 41.2213C23.3867 40.9722 23.6653 40.8476 23.9866 40.8476C24.3865 40.8476 24.7537 41.0574 25.0881 41.477C25.311 41.7589 25.4946 41.8999 25.6388 41.8999C25.7896 41.8999 25.9371 41.8573 26.0814 41.7721C26.2781 41.6672 26.5534 41.4246 26.9075 41.0443C26.9468 40.2247 26.9665 39.6052 26.9665 39.1855C26.9665 38.6217 26.9403 37.8284 26.8878 36.8056L26.7206 33.0586C26.6616 32.3701 26.5141 31.8751 26.2781 31.5735C26.0945 31.3506 25.8552 31.2392 25.5601 31.2392C25.4487 31.2392 25.3241 31.249 25.1864 31.2687V30.8851Z" fill="#0000FF"/>
<path d="M43.2723 30.1377L41.3644 36.6777L41.1677 37.4743C41.148 37.5727 41.1382 37.6448 41.1382 37.6907C41.1382 37.7694 41.1644 37.8382 41.2169 37.8972C41.2759 37.9562 41.3349 37.9857 41.3939 37.9857C41.5316 37.9857 41.7217 37.8808 41.9643 37.671C42.0627 37.5858 42.2987 37.2842 42.6724 36.7662L43.0166 36.9433C42.5511 37.7956 42.0528 38.4184 41.5217 38.8118C40.9972 39.1987 40.4301 39.3921 39.8204 39.3921C39.4466 39.3921 39.1614 39.297 38.9647 39.1069C38.768 38.9102 38.6697 38.6643 38.6697 38.3693C38.6697 38.1136 38.7746 37.6382 38.9844 36.9433L39.2204 36.1466C38.4599 37.4514 37.7289 38.3758 37.0273 38.92C36.6208 39.2347 36.1881 39.3921 35.7291 39.3921C35.126 39.3921 34.69 39.1462 34.4211 38.6545C34.1523 38.1562 34.0179 37.5956 34.0179 36.9728C34.0179 36.0483 34.2998 34.9894 34.8637 33.7962C35.4276 32.5963 36.1684 31.6325 37.0863 30.9048C37.8403 30.3016 38.5484 30 39.2106 30C39.5778 30 39.8728 30.1082 40.0957 30.3245C40.3186 30.5343 40.4826 30.9212 40.5875 31.485L40.9415 30.2754L43.2723 30.1377ZM40.1252 32.0063C40.1252 31.4752 40.0433 31.0916 39.8794 30.8556C39.7613 30.6917 39.6007 30.6097 39.3975 30.6097C39.1942 30.6097 38.9844 30.7081 38.768 30.9048C38.3288 31.3113 37.8534 32.1374 37.342 33.3831C36.8372 34.6223 36.5848 35.6943 36.5848 36.599C36.5848 36.9465 36.6405 37.199 36.7519 37.3563C36.87 37.5071 36.9978 37.5825 37.1355 37.5825C37.4305 37.5825 37.7289 37.412 38.0305 37.0711C38.4632 36.5859 38.8533 35.9926 39.2008 35.291C39.8171 34.0584 40.1252 32.9635 40.1252 32.0063Z" fill="#0000FF"/>
<path d="M44.9147 30.5507L48.17 30H48.76L48.3175 31.603C49.0059 30.9736 49.5698 30.5507 50.009 30.3344C50.4483 30.1115 50.8843 30 51.317 30C51.9333 30 52.4087 30.2393 52.7431 30.7179C53.0774 31.19 53.2446 31.7702 53.2446 32.4587C53.2446 34.3404 52.5923 36.009 51.2875 37.4645C50.1336 38.7495 48.8748 39.3921 47.511 39.3921C47.2684 39.3921 47.0619 39.3691 46.8915 39.3232C46.721 39.2773 46.4817 39.1757 46.1735 39.0184L45.6621 40.7886C45.4785 41.4311 45.3868 41.9196 45.3868 42.254C45.3868 42.4638 45.4589 42.6277 45.6031 42.7457C45.7474 42.8703 46.085 42.9752 46.6161 43.0604L46.5276 43.4243H41.2365L41.3349 43.0604C41.7545 43.0473 42.1053 42.9129 42.3872 42.6572C42.6626 42.4015 42.9215 41.8507 43.1641 41.005L45.5638 32.734C45.7408 32.1177 45.8293 31.6817 45.8293 31.426C45.8293 31.3146 45.8031 31.2228 45.7506 31.1507C45.6982 31.072 45.6195 31.0162 45.5146 30.9835C45.4097 30.9507 45.1737 30.9343 44.8065 30.9343L44.9147 30.5507ZM46.4489 38.1037C46.6456 38.425 46.8226 38.6414 46.98 38.7528C47.1373 38.8577 47.3209 38.9102 47.5307 38.9102C47.7405 38.9102 47.9438 38.8544 48.1405 38.743C48.3437 38.625 48.5928 38.3922 48.8879 38.0447C49.1829 37.6972 49.4649 37.2514 49.7337 36.7072C50.009 36.163 50.2287 35.5467 50.3926 34.8583C50.5565 34.1633 50.6385 33.5011 50.6385 32.8717C50.6385 32.3669 50.5467 31.9997 50.3631 31.7702C50.1861 31.5408 49.9697 31.426 49.714 31.426C49.4845 31.426 49.2682 31.485 49.0649 31.603C48.7699 31.7735 48.4224 32.0915 48.0224 32.557L46.4489 38.1037Z" fill="#0000FF"/>
<path d="M51.9956 42.1753H58.44V42.4636H51.9956V42.1753Z" fill="#0000FF"/>
<path d="M29.5923 55.6943C29.3497 56.881 28.8744 57.7956 28.1663 58.4381C27.4582 59.0741 26.6747 59.3921 25.8158 59.3921C24.793 59.3921 23.9014 58.9626 23.1408 58.1037C22.3803 57.2448 22 56.0844 22 54.6223C22 53.2061 22.4196 52.0554 23.2588 51.1703C24.1046 50.2852 25.1176 49.8426 26.2977 49.8426C27.1829 49.8426 27.9106 50.0787 28.481 50.5507C29.0514 51.0162 29.3366 51.5014 29.3366 52.0063C29.3366 52.2554 29.2547 52.4587 29.0908 52.616C28.9334 52.7668 28.7105 52.8422 28.422 52.8422C28.0352 52.8422 27.7434 52.7176 27.5467 52.4685C27.4353 52.3308 27.3599 52.0685 27.3205 51.6817C27.2878 51.2949 27.1566 50.9999 26.9272 50.7966C26.6977 50.5999 26.3797 50.5016 25.9732 50.5016C25.3175 50.5016 24.7898 50.7442 24.3898 51.2293C23.8587 51.8719 23.5932 52.7209 23.5932 53.7765C23.5932 54.8518 23.8555 55.8024 24.38 56.6285C24.9111 57.4481 25.6257 57.8579 26.5239 57.8579C27.1665 57.8579 27.7434 57.6382 28.2548 57.1989C28.6154 56.8974 28.9662 56.3499 29.3071 55.5566L29.5923 55.6943Z" fill="#0000FF"/>
<path d="M35.2964 49.8426C36.6602 49.8426 37.7551 50.3606 38.5812 51.3965C39.2827 52.2816 39.6335 53.2979 39.6335 54.4453C39.6335 55.2517 39.4401 56.068 39.0533 56.8941C38.6664 57.7202 38.1321 58.343 37.4502 58.7627C36.7749 59.1823 36.0209 59.3921 35.1882 59.3921C33.8311 59.3921 32.7525 58.8512 31.9526 57.7694C31.2773 56.858 30.9397 55.8352 30.9397 54.701C30.9397 53.8748 31.1429 53.0553 31.5494 52.2423C31.9625 51.4227 32.5034 50.8196 33.1721 50.4327C33.8409 50.0393 34.549 49.8426 35.2964 49.8426ZM34.9916 50.4819C34.6441 50.4819 34.2933 50.5868 33.9392 50.7966C33.5918 50.9999 33.3098 51.3605 33.0935 51.8784C32.8771 52.3964 32.7689 53.0618 32.7689 53.8748C32.7689 55.1861 33.0279 56.3171 33.5459 57.2678C34.0704 58.2185 34.7588 58.6938 35.6111 58.6938C36.2471 58.6938 36.7716 58.4316 37.1847 57.907C37.5977 57.3825 37.8043 56.481 37.8043 55.2025C37.8043 53.6028 37.46 52.3439 36.7716 51.426C36.3061 50.7966 35.7128 50.4819 34.9916 50.4819Z" fill="#0000FF"/>
<path d="M47.3242 58.1037C46.8849 58.5627 46.4555 58.8938 46.0358 59.097C45.6162 59.2937 45.1638 59.3921 44.6787 59.3921C43.6952 59.3921 42.8363 58.9823 42.102 58.1627C41.3677 57.3366 41.0005 56.2778 41.0005 54.9862C41.0005 53.6945 41.407 52.5144 42.22 51.4457C43.033 50.3704 44.0787 49.8328 45.3573 49.8328C46.1506 49.8328 46.8062 50.0852 47.3242 50.5901V48.928C47.3242 47.8987 47.298 47.266 47.2455 47.0299C47.1996 46.7939 47.1242 46.6333 47.0193 46.548C46.9144 46.4628 46.7833 46.4202 46.6259 46.4202C46.4555 46.4202 46.2293 46.4726 45.9473 46.5775L45.8195 46.2333L48.5043 45.1319H48.9469V55.5467C48.9469 56.6023 48.9698 57.2481 49.0157 57.4842C49.0682 57.7136 49.1469 57.8743 49.2518 57.9661C49.3632 58.0578 49.4911 58.1037 49.6353 58.1037C49.8123 58.1037 50.0484 58.048 50.3434 57.9365L50.4516 58.2808L47.7766 59.3921H47.3242V58.1037ZM47.3242 57.4153V52.7734C47.2848 52.3275 47.1668 51.921 46.9701 51.5539C46.7734 51.1867 46.5112 50.9113 46.1834 50.7278C45.8621 50.5376 45.5474 50.4426 45.2392 50.4426C44.6623 50.4426 44.1476 50.7015 43.6952 51.2195C43.0986 51.9014 42.8002 52.8979 42.8002 54.2092C42.8002 55.5336 43.0887 56.5499 43.6657 57.258C44.2427 57.9595 44.8852 58.3103 45.5933 58.3103C46.1899 58.3103 46.7669 58.0119 47.3242 57.4153Z" fill="#0000FF"/>
<path d="M52.5464 53.5011C52.5398 54.8386 52.8644 55.8877 53.52 56.6482C54.1756 57.4088 54.946 57.789 55.8311 57.789C56.4212 57.789 56.9326 57.6284 57.3653 57.3071C57.8046 56.9793 58.1718 56.422 58.4668 55.6352L58.7717 55.8319C58.634 56.7302 58.2341 57.5497 57.5719 58.2906C56.9097 59.0249 56.0803 59.3921 55.0837 59.3921C54.0019 59.3921 53.0742 58.9725 52.3005 58.1332C51.5334 57.2875 51.1499 56.1532 51.1499 54.7305C51.1499 53.1897 51.5432 51.9899 52.33 51.131C53.1233 50.2655 54.1166 49.8328 55.3099 49.8328C56.3196 49.8328 57.149 50.1672 57.7981 50.8359C58.4472 51.4981 58.7717 52.3865 58.7717 53.5011H52.5464ZM52.5464 52.9307H56.7163C56.6835 52.3538 56.6146 51.9473 56.5097 51.7112C56.3458 51.3441 56.1 51.0556 55.7721 50.8458C55.4509 50.636 55.1132 50.5311 54.7592 50.5311C54.215 50.5311 53.7265 50.7442 53.2938 51.1703C52.8676 51.5899 52.6185 52.1767 52.5464 52.9307Z" fill="#0000FF"/>
<path d="M65.8035 49.8426V52.9111H65.4789C65.2298 51.9473 64.9085 51.2916 64.5151 50.9441C64.1283 50.5966 63.6333 50.4229 63.0301 50.4229C62.5711 50.4229 62.2007 50.5442 61.9188 50.7868C61.6368 51.0294 61.4959 51.2982 61.4959 51.5932C61.4959 51.9604 61.6008 52.2751 61.8106 52.5373C62.0138 52.8061 62.4269 53.0914 63.0498 53.3929L64.4856 54.0912C65.8166 54.7403 66.482 55.5959 66.482 56.658C66.482 57.4776 66.1706 58.1398 65.5478 58.6446C64.9314 59.1429 64.2397 59.3921 63.4726 59.3921C62.9219 59.3921 62.2925 59.2937 61.5844 59.097C61.368 59.0315 61.191 58.9987 61.0533 58.9987C60.9025 58.9987 60.7845 59.0839 60.6993 59.2544H60.3747V56.0385H60.6993C60.8829 56.9564 61.2336 57.6481 61.7516 58.1136C62.2695 58.5791 62.8498 58.8118 63.4923 58.8118C63.9447 58.8118 64.3119 58.6807 64.5938 58.4184C64.8823 58.1496 65.0265 57.8284 65.0265 57.4547C65.0265 57.0023 64.8659 56.622 64.5446 56.3138C64.2299 56.0057 63.5972 55.6156 62.6465 55.1435C61.6959 54.6715 61.073 54.2453 60.778 53.865C60.4829 53.4913 60.3354 53.0192 60.3354 52.4488C60.3354 51.7079 60.5878 51.0884 61.0927 50.5901C61.6041 50.0918 62.263 49.8426 63.0694 49.8426C63.4235 49.8426 63.8529 49.918 64.3578 50.0688C64.6921 50.1672 64.9151 50.2164 65.0265 50.2164C65.1314 50.2164 65.2134 50.1934 65.2724 50.1475C65.3314 50.1016 65.4002 50 65.4789 49.8426H65.8035Z" fill="#0000FF"/>
<path d="M25.1864 30.8851L28.2155 30C28.4581 30.3016 28.6285 30.5868 28.7269 30.8556C28.9039 31.3211 29.0285 31.9636 29.1006 32.7832C29.2383 34.3961 29.3334 36.1171 29.3858 37.9464C30.0873 37.0219 30.8905 35.7992 31.7953 34.2781C32.0707 33.8191 32.2083 33.3864 32.2083 32.9799C32.2083 32.7242 32.0477 32.4816 31.7265 32.2521C31.4117 32.0227 31.2151 31.8456 31.1364 31.7211C31.0577 31.5899 31.0184 31.4227 31.0184 31.2195C31.0184 30.8917 31.1364 30.6065 31.3724 30.3639C31.615 30.1213 31.9068 30 32.2477 30C32.6083 30 32.9197 30.1377 33.182 30.4131C33.4508 30.6884 33.5852 31.013 33.5852 31.3867C33.5852 31.826 33.4606 32.3374 33.2115 32.9209C32.9689 33.4979 32.3952 34.4911 31.4904 35.9008C30.3299 37.7038 29.1924 39.2642 28.0778 40.5821C27.3632 41.4213 26.7862 42.0245 26.3469 42.3916C25.9076 42.7654 25.452 43.0604 24.9799 43.2768C24.698 43.4013 24.4193 43.4636 24.1439 43.4636C23.7702 43.4636 23.4522 43.3325 23.19 43.0702C22.9212 42.808 22.7868 42.4965 22.7868 42.1359C22.7868 41.7753 22.9081 41.4705 23.1507 41.2213C23.3867 40.9722 23.6653 40.8476 23.9866 40.8476C24.3865 40.8476 24.7537 41.0574 25.0881 41.477C25.311 41.7589 25.4946 41.8999 25.6388 41.8999C25.7896 41.8999 25.9371 41.8573 26.0814 41.7721C26.2781 41.6672 26.5534 41.4246 26.9075 41.0443C26.9468 40.2247 26.9665 39.6052 26.9665 39.1855C26.9665 38.6217 26.9403 37.8284 26.8878 36.8056L26.7206 33.0586C26.6616 32.3701 26.5141 31.8751 26.2781 31.5735C26.0945 31.3506 25.8552 31.2392 25.5601 31.2392C25.4487 31.2392 25.3241 31.249 25.1864 31.2687V30.8851Z" stroke="#0000FF" stroke-width="0.6" mask="url(#path-2-outside-1_98_1068)"/>
<path d="M43.2723 30.1377L41.3644 36.6777L41.1677 37.4743C41.148 37.5727 41.1382 37.6448 41.1382 37.6907C41.1382 37.7694 41.1644 37.8382 41.2169 37.8972C41.2759 37.9562 41.3349 37.9857 41.3939 37.9857C41.5316 37.9857 41.7217 37.8808 41.9643 37.671C42.0627 37.5858 42.2987 37.2842 42.6724 36.7662L43.0166 36.9433C42.5511 37.7956 42.0528 38.4184 41.5217 38.8118C40.9972 39.1987 40.4301 39.3921 39.8204 39.3921C39.4466 39.3921 39.1614 39.297 38.9647 39.1069C38.768 38.9102 38.6697 38.6643 38.6697 38.3693C38.6697 38.1136 38.7746 37.6382 38.9844 36.9433L39.2204 36.1466C38.4599 37.4514 37.7289 38.3758 37.0273 38.92C36.6208 39.2347 36.1881 39.3921 35.7291 39.3921C35.126 39.3921 34.69 39.1462 34.4211 38.6545C34.1523 38.1562 34.0179 37.5956 34.0179 36.9728C34.0179 36.0483 34.2998 34.9894 34.8637 33.7962C35.4276 32.5963 36.1684 31.6325 37.0863 30.9048C37.8403 30.3016 38.5484 30 39.2106 30C39.5778 30 39.8728 30.1082 40.0957 30.3245C40.3186 30.5343 40.4826 30.9212 40.5875 31.485L40.9415 30.2754L43.2723 30.1377ZM40.1252 32.0063C40.1252 31.4752 40.0433 31.0916 39.8794 30.8556C39.7613 30.6917 39.6007 30.6097 39.3975 30.6097C39.1942 30.6097 38.9844 30.7081 38.768 30.9048C38.3288 31.3113 37.8534 32.1374 37.342 33.3831C36.8372 34.6223 36.5848 35.6943 36.5848 36.599C36.5848 36.9465 36.6405 37.199 36.7519 37.3563C36.87 37.5071 36.9978 37.5825 37.1355 37.5825C37.4305 37.5825 37.7289 37.412 38.0305 37.0711C38.4632 36.5859 38.8533 35.9926 39.2008 35.291C39.8171 34.0584 40.1252 32.9635 40.1252 32.0063Z" stroke="#0000FF" stroke-width="0.6" mask="url(#path-2-outside-1_98_1068)"/>
<path d="M44.9147 30.5507L48.17 30H48.76L48.3175 31.603C49.0059 30.9736 49.5698 30.5507 50.009 30.3344C50.4483 30.1115 50.8843 30 51.317 30C51.9333 30 52.4087 30.2393 52.7431 30.7179C53.0774 31.19 53.2446 31.7702 53.2446 32.4587C53.2446 34.3404 52.5923 36.009 51.2875 37.4645C50.1336 38.7495 48.8748 39.3921 47.511 39.3921C47.2684 39.3921 47.0619 39.3691 46.8915 39.3232C46.721 39.2773 46.4817 39.1757 46.1735 39.0184L45.6621 40.7886C45.4785 41.4311 45.3868 41.9196 45.3868 42.254C45.3868 42.4638 45.4589 42.6277 45.6031 42.7457C45.7474 42.8703 46.085 42.9752 46.6161 43.0604L46.5276 43.4243H41.2365L41.3349 43.0604C41.7545 43.0473 42.1053 42.9129 42.3872 42.6572C42.6626 42.4015 42.9215 41.8507 43.1641 41.005L45.5638 32.734C45.7408 32.1177 45.8293 31.6817 45.8293 31.426C45.8293 31.3146 45.8031 31.2228 45.7506 31.1507C45.6982 31.072 45.6195 31.0162 45.5146 30.9835C45.4097 30.9507 45.1737 30.9343 44.8065 30.9343L44.9147 30.5507ZM46.4489 38.1037C46.6456 38.425 46.8226 38.6414 46.98 38.7528C47.1373 38.8577 47.3209 38.9102 47.5307 38.9102C47.7405 38.9102 47.9438 38.8544 48.1405 38.743C48.3437 38.625 48.5928 38.3922 48.8879 38.0447C49.1829 37.6972 49.4649 37.2514 49.7337 36.7072C50.009 36.163 50.2287 35.5467 50.3926 34.8583C50.5565 34.1633 50.6385 33.5011 50.6385 32.8717C50.6385 32.3669 50.5467 31.9997 50.3631 31.7702C50.1861 31.5408 49.9697 31.426 49.714 31.426C49.4845 31.426 49.2682 31.485 49.0649 31.603C48.7699 31.7735 48.4224 32.0915 48.0224 32.557L46.4489 38.1037Z" stroke="#0000FF" stroke-width="0.6" mask="url(#path-2-outside-1_98_1068)"/>
<path d="M51.9956 42.1753H58.44V42.4636H51.9956V42.1753Z" stroke="#0000FF" stroke-width="0.6" mask="url(#path-2-outside-1_98_1068)"/>
<path d="M29.5923 55.6943C29.3497 56.881 28.8744 57.7956 28.1663 58.4381C27.4582 59.0741 26.6747 59.3921 25.8158 59.3921C24.793 59.3921 23.9014 58.9626 23.1408 58.1037C22.3803 57.2448 22 56.0844 22 54.6223C22 53.2061 22.4196 52.0554 23.2588 51.1703C24.1046 50.2852 25.1176 49.8426 26.2977 49.8426C27.1829 49.8426 27.9106 50.0787 28.481 50.5507C29.0514 51.0162 29.3366 51.5014 29.3366 52.0063C29.3366 52.2554 29.2547 52.4587 29.0908 52.616C28.9334 52.7668 28.7105 52.8422 28.422 52.8422C28.0352 52.8422 27.7434 52.7176 27.5467 52.4685C27.4353 52.3308 27.3599 52.0685 27.3205 51.6817C27.2878 51.2949 27.1566 50.9999 26.9272 50.7966C26.6977 50.5999 26.3797 50.5016 25.9732 50.5016C25.3175 50.5016 24.7898 50.7442 24.3898 51.2293C23.8587 51.8719 23.5932 52.7209 23.5932 53.7765C23.5932 54.8518 23.8555 55.8024 24.38 56.6285C24.9111 57.4481 25.6257 57.8579 26.5239 57.8579C27.1665 57.8579 27.7434 57.6382 28.2548 57.1989C28.6154 56.8974 28.9662 56.3499 29.3071 55.5566L29.5923 55.6943Z" stroke="#0000FF" stroke-width="0.6" mask="url(#path-2-outside-1_98_1068)"/>
<path d="M35.2964 49.8426C36.6602 49.8426 37.7551 50.3606 38.5812 51.3965C39.2827 52.2816 39.6335 53.2979 39.6335 54.4453C39.6335 55.2517 39.4401 56.068 39.0533 56.8941C38.6664 57.7202 38.1321 58.343 37.4502 58.7627C36.7749 59.1823 36.0209 59.3921 35.1882 59.3921C33.8311 59.3921 32.7525 58.8512 31.9526 57.7694C31.2773 56.858 30.9397 55.8352 30.9397 54.701C30.9397 53.8748 31.1429 53.0553 31.5494 52.2423C31.9625 51.4227 32.5034 50.8196 33.1721 50.4327C33.8409 50.0393 34.549 49.8426 35.2964 49.8426ZM34.9916 50.4819C34.6441 50.4819 34.2933 50.5868 33.9392 50.7966C33.5918 50.9999 33.3098 51.3605 33.0935 51.8784C32.8771 52.3964 32.7689 53.0618 32.7689 53.8748C32.7689 55.1861 33.0279 56.3171 33.5459 57.2678C34.0704 58.2185 34.7588 58.6938 35.6111 58.6938C36.2471 58.6938 36.7716 58.4316 37.1847 57.907C37.5977 57.3825 37.8043 56.481 37.8043 55.2025C37.8043 53.6028 37.46 52.3439 36.7716 51.426C36.3061 50.7966 35.7128 50.4819 34.9916 50.4819Z" stroke="#0000FF" stroke-width="0.6" mask="url(#path-2-outside-1_98_1068)"/>
<path d="M47.3242 58.1037C46.8849 58.5627 46.4555 58.8938 46.0358 59.097C45.6162 59.2937 45.1638 59.3921 44.6787 59.3921C43.6952 59.3921 42.8363 58.9823 42.102 58.1627C41.3677 57.3366 41.0005 56.2778 41.0005 54.9862C41.0005 53.6945 41.407 52.5144 42.22 51.4457C43.033 50.3704 44.0787 49.8328 45.3573 49.8328C46.1506 49.8328 46.8062 50.0852 47.3242 50.5901V48.928C47.3242 47.8987 47.298 47.266 47.2455 47.0299C47.1996 46.7939 47.1242 46.6333 47.0193 46.548C46.9144 46.4628 46.7833 46.4202 46.6259 46.4202C46.4555 46.4202 46.2293 46.4726 45.9473 46.5775L45.8195 46.2333L48.5043 45.1319H48.9469V55.5467C48.9469 56.6023 48.9698 57.2481 49.0157 57.4842C49.0682 57.7136 49.1469 57.8743 49.2518 57.9661C49.3632 58.0578 49.4911 58.1037 49.6353 58.1037C49.8123 58.1037 50.0484 58.048 50.3434 57.9365L50.4516 58.2808L47.7766 59.3921H47.3242V58.1037ZM47.3242 57.4153V52.7734C47.2848 52.3275 47.1668 51.921 46.9701 51.5539C46.7734 51.1867 46.5112 50.9113 46.1834 50.7278C45.8621 50.5376 45.5474 50.4426 45.2392 50.4426C44.6623 50.4426 44.1476 50.7015 43.6952 51.2195C43.0986 51.9014 42.8002 52.8979 42.8002 54.2092C42.8002 55.5336 43.0887 56.5499 43.6657 57.258C44.2427 57.9595 44.8852 58.3103 45.5933 58.3103C46.1899 58.3103 46.7669 58.0119 47.3242 57.4153Z" stroke="#0000FF" stroke-width="0.6" mask="url(#path-2-outside-1_98_1068)"/>
<path d="M52.5464 53.5011C52.5398 54.8386 52.8644 55.8877 53.52 56.6482C54.1756 57.4088 54.946 57.789 55.8311 57.789C56.4212 57.789 56.9326 57.6284 57.3653 57.3071C57.8046 56.9793 58.1718 56.422 58.4668 55.6352L58.7717 55.8319C58.634 56.7302 58.2341 57.5497 57.5719 58.2906C56.9097 59.0249 56.0803 59.3921 55.0837 59.3921C54.0019 59.3921 53.0742 58.9725 52.3005 58.1332C51.5334 57.2875 51.1499 56.1532 51.1499 54.7305C51.1499 53.1897 51.5432 51.9899 52.33 51.131C53.1233 50.2655 54.1166 49.8328 55.3099 49.8328C56.3196 49.8328 57.149 50.1672 57.7981 50.8359C58.4472 51.4981 58.7717 52.3865 58.7717 53.5011H52.5464ZM52.5464 52.9307H56.7163C56.6835 52.3538 56.6146 51.9473 56.5097 51.7112C56.3458 51.3441 56.1 51.0556 55.7721 50.8458C55.4509 50.636 55.1132 50.5311 54.7592 50.5311C54.215 50.5311 53.7265 50.7442 53.2938 51.1703C52.8676 51.5899 52.6185 52.1767 52.5464 52.9307Z" stroke="#0000FF" stroke-width="0.6" mask="url(#path-2-outside-1_98_1068)"/>
<path d="M65.8035 49.8426V52.9111H65.4789C65.2298 51.9473 64.9085 51.2916 64.5151 50.9441C64.1283 50.5966 63.6333 50.4229 63.0301 50.4229C62.5711 50.4229 62.2007 50.5442 61.9188 50.7868C61.6368 51.0294 61.4959 51.2982 61.4959 51.5932C61.4959 51.9604 61.6008 52.2751 61.8106 52.5373C62.0138 52.8061 62.4269 53.0914 63.0498 53.3929L64.4856 54.0912C65.8166 54.7403 66.482 55.5959 66.482 56.658C66.482 57.4776 66.1706 58.1398 65.5478 58.6446C64.9314 59.1429 64.2397 59.3921 63.4726 59.3921C62.9219 59.3921 62.2925 59.2937 61.5844 59.097C61.368 59.0315 61.191 58.9987 61.0533 58.9987C60.9025 58.9987 60.7845 59.0839 60.6993 59.2544H60.3747V56.0385H60.6993C60.8829 56.9564 61.2336 57.6481 61.7516 58.1136C62.2695 58.5791 62.8498 58.8118 63.4923 58.8118C63.9447 58.8118 64.3119 58.6807 64.5938 58.4184C64.8823 58.1496 65.0265 57.8284 65.0265 57.4547C65.0265 57.0023 64.8659 56.622 64.5446 56.3138C64.2299 56.0057 63.5972 55.6156 62.6465 55.1435C61.6959 54.6715 61.073 54.2453 60.778 53.865C60.4829 53.4913 60.3354 53.0192 60.3354 52.4488C60.3354 51.7079 60.5878 51.0884 61.0927 50.5901C61.6041 50.0918 62.263 49.8426 63.0694 49.8426C63.4235 49.8426 63.8529 49.918 64.3578 50.0688C64.6921 50.1672 64.9151 50.2164 65.0265 50.2164C65.1314 50.2164 65.2134 50.1934 65.2724 50.1475C65.3314 50.1016 65.4002 50 65.4789 49.8426H65.8035Z" stroke="#0000FF" stroke-width="0.6" mask="url(#path-2-outside-1_98_1068)"/>
<path d="M59.0472 31.0107C58.8485 30.6532 58.5704 30.378 58.2141 30.1873C57.8616 29.9965 57.4972 29.9 57.1221 29.9C56.749 29.9 56.3856 29.9966 56.0331 30.1873C55.6769 30.378 55.3978 30.6532 55.1972 31.0106L55.1971 31.0108C54.9996 31.3641 54.9 31.735 54.9 32.1221C54.9 32.5072 54.9986 32.876 55.194 33.2273C55.3905 33.5807 55.6652 33.8565 56.0167 34.0532L56.0173 34.0535C56.3686 34.2468 56.7373 34.3443 57.1221 34.3443C57.507 34.3443 57.8757 34.2468 58.2269 34.0535L58.2273 34.0533C58.5809 33.8567 58.8567 33.5809 59.0533 33.2273C59.2487 32.876 59.3473 32.5072 59.3473 32.1221C59.3473 31.7349 59.2466 31.364 59.0472 31.0107ZM59.0472 31.0107C59.0472 31.0108 59.0473 31.0109 59.0474 31.011L58.9599 31.0596L59.047 31.0104C59.0471 31.0105 59.0471 31.0106 59.0472 31.0107ZM57.9956 33.645L57.9953 33.6451C57.7162 33.8008 57.4256 33.8779 57.1221 33.8779C56.8208 33.8779 56.5301 33.8009 56.2487 33.645C55.9697 33.4904 55.7537 33.2753 55.5992 32.9984C55.4434 32.7172 55.3664 32.4255 55.3664 32.1221C55.3664 31.819 55.4443 31.5263 55.6021 31.243C55.7607 30.9599 55.9785 30.7443 56.2567 30.5939C56.5407 30.4414 56.8288 30.3664 57.1221 30.3664C57.4176 30.3664 57.7057 30.4415 57.9875 30.5938L57.9877 30.5939C58.0689 30.6375 58.1448 30.6865 58.2154 30.7411H58.1248H58.0111H57.9216L57.9117 30.83C57.907 30.8723 57.8963 30.8835 57.8954 30.8843L57.8953 30.8843L57.8925 30.8871C57.8885 30.8911 57.8846 30.8937 57.8734 30.8937C57.8735 30.8937 57.8728 30.8937 57.8713 30.8936L57.8651 30.8928C57.8597 30.8919 57.8525 30.8904 57.8433 30.888C57.8248 30.8832 57.8008 30.8754 57.7709 30.8642L57.7709 30.8642L57.7696 30.8637C57.541 30.7813 57.3327 30.7381 57.1461 30.7381C56.7429 30.7381 56.4026 30.8707 56.1328 31.1382C55.8628 31.4061 55.7291 31.7468 55.7291 32.1521C55.7291 32.5349 55.8535 32.855 56.1062 33.1034L56.1068 33.104C56.3619 33.3503 56.6925 33.4703 57.0892 33.4703C57.506 33.4703 57.8507 33.3349 58.1134 33.0591L58.141 33.0302V32.9902V32.7806V32.5007L57.9637 32.7173C57.7529 32.9747 57.519 33.0937 57.2598 33.0937C57.0753 33.0937 56.9221 33.022 56.7945 32.8718C56.6741 32.7278 56.6026 32.4704 56.6026 32.0743C56.6026 31.7064 56.6752 31.4599 56.8002 31.3129L56.8006 31.3125C56.9302 31.1583 57.0863 31.0847 57.2748 31.0847C57.433 31.0847 57.5673 31.1344 57.6823 31.234L57.6823 31.234L57.6835 31.235C57.799 31.3318 57.8768 31.4678 57.913 31.6507L57.929 31.7313H58.0111H58.1248H58.2248V31.6313V30.8411V30.7484C58.394 30.8809 58.5328 31.0455 58.642 31.2427L58.6421 31.2429C58.7999 31.5263 58.8779 31.8189 58.8779 32.1221C58.8779 32.4255 58.8009 32.7172 58.6451 32.9984C58.4906 33.2753 58.2746 33.4904 57.9956 33.645ZM57.7477 31.1583C57.614 31.0426 57.4564 30.9847 57.2748 30.9847C57.0553 30.9847 56.8717 31.0725 56.7241 31.2481L57.7477 31.1583Z" fill="#0000FF" stroke="#0000FF" stroke-width="0.2"/>
<path d="M67.4937 31C66.9387 31 66.3836 31 65.8285 31C65.8173 31.0073 65.8063 31.0205 65.7949 31.0209C65.7572 31.0221 65.7266 31.0365 65.6919 31.0507C65.6321 31.0753 65.5637 31.0778 65.517 31.1324C65.512 31.1382 65.4952 31.1329 65.4841 31.1346C65.3986 31.148 65.3068 31.1405 65.2396 31.2138C65.2297 31.2245 65.2045 31.2252 65.1869 31.2241C65.1266 31.2202 65.0788 31.2429 65.0369 31.2842C65.0242 31.2967 65.0076 31.3104 64.9911 31.3128C64.9328 31.3217 64.9114 31.3659 64.8779 31.4058C64.8501 31.4391 64.7872 31.4386 64.7564 31.4813C64.7524 31.4869 64.7526 31.4957 64.7484 31.5012C64.7128 31.5474 64.6596 31.5784 64.6363 31.6361C64.6321 31.6464 64.6034 31.6516 64.5862 31.6511C64.5329 31.6493 64.4987 31.6644 64.4997 31.7257C64.5 31.7378 64.4904 31.7522 64.4815 31.762C64.4331 31.8143 64.389 31.8729 64.3328 31.9152C64.2702 31.9624 64.2549 32.0246 64.249 32.0906C64.2344 32.0983 64.2252 32.1049 64.2149 32.1083C64.1576 32.1278 64.1308 32.1639 64.139 32.2271C64.1413 32.2442 64.1245 32.2641 64.1157 32.2824C64.0911 32.3337 64.0786 32.3914 64.0324 32.4315C64.0256 32.4374 64.033 32.4593 64.0335 32.4738C64.0339 32.4865 64.0391 32.5057 64.0329 32.5108C63.9977 32.5399 64.0076 32.5784 64.0055 32.6149C64.0042 32.6369 64.0084 32.6679 63.996 32.6788C63.9514 32.7177 63.9628 32.7667 63.9604 32.8142C63.9597 32.8285 63.9591 32.8519 63.9514 32.8553C63.9048 32.8757 63.9178 32.9153 63.915 32.9509C63.9077 33.0446 63.9418 33.1448 63.8719 33.2295C63.8663 33.2363 63.8723 33.2517 63.87 33.2625C63.8629 33.2947 63.8648 33.3398 63.8444 33.3557C63.7963 33.3929 63.8091 33.4469 63.7875 33.4878C63.7656 33.4992 63.7419 33.5136 63.7377 33.5323C63.7318 33.5588 63.7145 33.5745 63.7039 33.5943C63.6793 33.6409 63.6373 33.6465 63.5994 33.667C63.5626 33.687 63.5351 33.7242 63.4985 33.7451C63.4585 33.7679 63.4316 33.807 63.382 33.8197C63.3163 33.8366 63.2398 33.8209 63.1858 33.8774C63.1118 33.8621 63.0615 33.9444 62.9865 33.9255C62.9479 33.9946 62.8818 33.9616 62.8269 33.9668C62.7825 33.971 62.7374 33.9677 62.6907 33.9677C62.682 33.9905 62.6744 34.0103 62.6666 34.0306C62.6544 34.0321 62.6435 34.0339 62.6326 34.0349C62.5084 34.0467 62.4531 34.1053 62.4527 34.2258C62.4525 34.2703 62.4527 34.3149 62.4527 34.36C62.4909 34.3733 62.5182 34.3851 62.5285 34.4293C62.5384 34.4716 62.5448 34.5276 62.6062 34.5398C62.615 34.5416 62.6229 34.5546 62.6286 34.5639C62.6628 34.6204 62.708 34.6566 62.7816 34.6423C62.8083 34.7131 62.8385 34.7772 62.9253 34.7872C62.9253 34.8386 62.9238 34.8869 62.9255 34.9352C62.9286 35.022 62.8961 35.1033 62.8303 35.1467C62.7504 35.1992 62.7372 35.2613 62.7449 35.3433C62.7484 35.3804 62.7455 35.4181 62.7455 35.4652C62.813 35.4718 62.8145 35.5273 62.8157 35.5696C62.8944 35.6046 62.9637 35.6353 63.0329 35.6661C63.0938 35.7742 63.2046 35.8263 63.2948 35.9019C63.3325 35.9335 63.3826 35.9626 63.3767 36.0272C63.3725 36.0731 63.428 36.0471 63.4339 36.0605C63.4691 36.1724 63.3952 36.2317 63.3616 36.3057C63.2621 36.3057 63.1684 36.3066 63.0747 36.3054C62.9818 36.3042 62.8904 36.3147 62.7982 36.3242C62.731 36.331 62.7058 36.3817 62.686 36.416C62.6642 36.4537 62.6731 36.5206 62.6907 36.5663C62.7093 36.6148 62.7545 36.6528 62.7869 36.6964C62.7975 36.7106 62.8127 36.7287 62.8112 36.7436C62.8024 36.8321 62.8503 36.9328 62.7575 37.0048C62.7484 37.012 62.748 37.0318 62.7459 37.0461C62.7377 37.1005 62.7314 37.1551 62.7227 37.2094C62.7194 37.2301 62.7177 37.2614 62.705 37.268C62.6726 37.2849 62.6794 37.3101 62.6782 37.335C62.6745 37.4132 62.747 37.4735 62.7307 37.5558C62.7292 37.5635 62.7506 37.5757 62.7613 37.5858C62.7714 37.5953 62.7842 37.6033 62.791 37.6147C62.8563 37.7251 62.9522 37.7955 63.0727 37.8353C63.0863 37.8398 63.1018 37.8442 63.1117 37.8536C63.1568 37.8967 63.2062 37.8795 63.2569 37.8664C63.2707 37.914 63.3039 37.9263 63.3507 37.926C63.3979 37.9258 63.4502 37.9248 63.4907 37.9442C63.5223 37.9594 63.5505 37.9668 63.5839 37.9707C63.6383 37.9768 63.7085 37.9712 63.742 38.0026C63.7866 38.0443 63.8284 38.0325 63.8732 38.0368C63.8911 38.0386 63.9094 38.0371 63.9275 38.0371C63.9481 38.07 63.9715 38.093 63.9996 38.1039C64.0638 38.1291 64.1295 38.1444 64.1738 38.2088C64.1925 38.2362 64.2262 38.2646 64.2696 38.2722C64.2902 38.2758 64.3077 38.3019 64.3252 38.3193C64.3675 38.3617 64.4118 38.4027 64.4499 38.4486C64.4885 38.4951 64.5195 38.5478 64.5563 38.5958C64.5687 38.612 64.6046 38.6314 64.6032 38.6339C64.568 38.6945 64.6281 38.7003 64.658 38.7293C64.6385 38.8408 64.7112 38.9343 64.7335 39.0405C64.7359 39.0521 64.7528 39.0643 64.7656 39.0691C64.7838 39.076 64.7858 39.0815 64.7791 39.0998C64.7734 39.1157 64.7726 39.1363 64.7775 39.1525C64.8269 39.3167 64.8293 39.4867 64.8367 39.6554C64.8413 39.7605 64.8266 39.867 64.9485 39.9198C64.9633 39.9717 65.0041 39.9705 65.0472 39.9714C65.6041 39.9829 66.1612 39.9531 66.7185 39.9899C67.0135 40.0094 67.3109 39.9951 67.6071 39.9923C67.6954 39.9914 67.7841 39.9807 67.8717 39.9683C67.8975 39.9647 67.9224 39.9423 67.9442 39.9242C68.0133 39.8667 68.0806 39.807 68.1306 39.7637C68.1828 39.6661 68.0916 39.6226 68.0925 39.5524C68.0927 39.5364 68.0561 39.52 68.0385 39.5055C68.0228 39.41 68.0391 39.3069 67.953 39.2327C67.9732 39.1473 67.978 39.1191 67.9331 39.082C67.9001 39.0546 67.9009 39.0289 67.8991 38.9966C67.897 38.956 67.9087 38.903 67.8877 38.8775C67.8484 38.8296 67.8578 38.7806 67.8537 38.7299C67.8515 38.7017 67.8525 38.6606 67.8357 38.6492C67.8067 38.6292 67.8092 38.6073 67.809 38.5823C67.8086 38.4587 67.8085 38.335 67.8093 38.2114C67.8094 38.1935 67.8098 38.1641 67.8192 38.1599C67.8662 38.1384 67.8511 38.0988 67.8545 38.0639C67.8567 38.0422 67.8543 38.0072 67.8655 38.0017C67.9069 37.9815 67.8984 37.9481 67.8992 37.9159C67.8998 37.89 67.8949 37.8616 67.9307 37.8537C67.9365 37.7855 68.0239 37.7556 68.0126 37.6794C68.0674 37.6326 68.1043 37.5738 68.1285 37.5066C68.1926 37.5136 68.1843 37.45 68.2121 37.4216C68.2581 37.3745 68.3024 37.325 68.3525 37.2825C68.4038 37.239 68.4825 37.2327 68.5179 37.1654C68.5191 37.163 68.5246 37.1615 68.5279 37.1617C68.5997 37.1673 68.6252 37.1093 68.6686 37.0699C68.7014 37.0401 68.7182 36.9844 68.7715 36.9817C68.8105 36.9798 68.828 36.9609 68.8491 36.9303C68.8723 36.8966 68.9088 36.8554 68.944 36.8505C69.0012 36.8427 69.0281 36.8068 69.0604 36.7725C69.0753 36.7568 69.0811 36.7296 69.0981 36.7195C69.1963 36.6614 69.2911 36.5994 69.3612 36.5076C69.4235 36.4259 69.5224 36.3923 69.5942 36.3188C69.6963 36.2143 69.8027 36.1132 69.9053 36.0085C69.9358 35.9773 69.982 35.9608 69.9716 35.9041C69.9705 35.8975 69.9825 35.8828 69.9904 35.8811C70.0579 35.866 70.0412 35.7659 70.1159 35.7577C70.1206 35.7572 70.1273 35.7383 70.1262 35.7288C70.1216 35.6885 70.1439 35.6657 70.1666 35.6348C70.2035 35.5847 70.2497 35.538 70.2695 35.4767C70.2872 35.4218 70.2942 35.3623 70.3606 35.3378C70.3701 35.3344 70.3718 35.3049 70.3739 35.2871C70.3814 35.2243 70.4417 35.1759 70.4233 35.1058C70.4221 35.1013 70.43 35.0909 70.4359 35.0884C70.5056 35.0585 70.4875 35.0008 70.4827 34.9466C70.4812 34.9305 70.4782 34.9103 70.4859 34.8983C70.5143 34.8539 70.5063 34.8052 70.5102 34.7573C70.516 34.6877 70.526 34.6185 70.5342 34.549C70.6072 34.5022 70.5743 34.429 70.5757 34.3671C70.5797 34.1911 70.5789 34.0149 70.5762 33.8388C70.5752 33.7706 70.5997 33.6953 70.5359 33.6385C70.5316 33.6348 70.5339 33.6243 70.5321 33.6171C70.5221 33.5768 70.5455 33.5352 70.5101 33.4921C70.4902 33.4677 70.5084 33.4121 70.5096 33.3705C70.5109 33.3257 70.5158 33.2783 70.4846 33.2421C70.4558 33.2087 70.5026 33.1783 70.4826 33.1493C70.4637 33.1219 70.4369 33.0991 70.4221 33.07C70.4129 33.052 70.4254 33.0237 70.418 33.0039C70.4005 32.9575 70.3883 32.8931 70.353 32.8735C70.3109 32.8501 70.2967 32.8236 70.2837 32.7854C70.2707 32.7472 70.2549 32.7098 70.2384 32.673C70.2332 32.6614 70.2234 32.6501 70.2128 32.6428C70.1542 32.6026 70.1545 32.6028 70.1252 32.5348C70.12 32.523 70.1073 32.5144 70.0982 32.5042C70.0569 32.458 70.0146 32.4128 69.9751 32.3651C69.9618 32.3491 69.9491 32.3273 69.9481 32.3075C69.9462 32.2681 69.9307 32.2452 69.8931 32.2336C69.8758 32.2283 69.8571 32.2195 69.8449 32.2067C69.7973 32.1567 69.753 32.1036 69.7057 32.0533C69.6647 32.0096 69.6228 31.9665 69.5786 31.926C69.5338 31.885 69.489 31.846 69.4317 31.818C69.3826 31.7941 69.3472 31.7426 69.3051 31.7039C69.3003 31.6996 69.2915 31.698 69.2845 31.6979C69.2128 31.6965 69.1935 31.6393 69.166 31.5863C69.1274 31.5791 69.0863 31.5917 69.0503 31.5455C69.0204 31.5072 68.9519 31.5017 68.9108 31.4689C68.856 31.4252 68.7879 31.4237 68.7291 31.3941C68.656 31.3574 68.5893 31.3053 68.5059 31.2901C68.4994 31.2889 68.4911 31.2842 68.488 31.2786C68.4574 31.2235 68.4052 31.2234 68.3527 31.225C68.2992 31.2267 68.2525 31.2067 68.2062 31.1836C68.1871 31.174 68.1676 31.1612 68.1472 31.1584C68.0743 31.1485 68.0007 31.1432 67.9277 31.1339C67.9068 31.1312 67.8805 31.1267 67.8676 31.1129C67.7924 31.0324 67.7 31.0103 67.5948 31.0218C67.5726 31.0242 67.5495 31.0245 67.5275 31.0211C67.5154 31.0192 67.5049 31.0074 67.4937 31.0001V31Z" fill="#0000FF"/>
<path d="M60 35.8787C60.0768 35.9702 60.1765 35.9939 60.293 35.993C60.7796 35.9895 61.2662 35.9925 61.7528 35.9905C61.826 35.9902 61.9002 35.9816 61.9719 35.9667C62.0245 35.9557 62.0634 35.9166 62.0696 35.8594C62.0729 35.8286 62.0801 35.8132 62.1132 35.8081C62.1261 35.8062 62.1427 35.7845 62.1456 35.7695C62.1539 35.7264 62.1559 35.6822 62.1606 35.6384C62.1659 35.5889 62.129 35.5686 62.0983 35.541C62.0722 35.5176 62.0535 35.4858 62.0292 35.4547C61.644 35.405 61.252 35.4373 60.861 35.4294C60.6963 35.426 60.5315 35.4262 60.3669 35.4298C60.2712 35.432 60.1753 35.4412 60.0803 35.4534C60.0521 35.457 60.0266 35.4816 59.9999 35.4966V35.8788L60 35.8787Z" fill="#0000FF"/>
<path d="M62.0665 34.9683C62.0744 34.9329 62.0629 34.8992 62.1074 34.8806C62.1515 34.8621 62.1674 34.8186 62.1614 34.7681C62.1575 34.7349 62.1594 34.7008 62.1609 34.6671C62.1629 34.6232 62.1492 34.5976 62.1085 34.5685C62.0483 34.5253 62.0048 34.459 61.9522 34.4044C61.8754 34.3246 61.797 34.2464 61.7192 34.1676C61.6939 34.142 61.6698 34.1151 61.6426 34.0918C61.6179 34.0706 61.59 34.0532 61.563 34.035C61.5572 34.0311 61.5436 34.0316 61.5431 34.0285C61.5322 33.9578 61.4629 33.9374 61.4264 33.8906C61.3505 33.7932 61.2556 33.7166 61.1695 33.6307C61.1512 33.6125 61.1246 33.6003 61.1119 33.5792C61.0446 33.4676 60.934 33.4059 60.8209 33.371C60.7176 33.3391 60.5949 33.3368 60.4938 33.3886C60.4364 33.4181 60.3658 33.4663 60.3822 33.558C60.3854 33.5762 60.3862 33.5962 60.3821 33.6139C60.3603 33.7066 60.4132 33.7684 60.4745 33.8198C60.5435 33.8778 60.6067 33.94 60.6661 34.0075C60.6965 34.0421 60.7345 34.0711 60.7723 34.098C60.8145 34.1282 60.8496 34.1605 60.8785 34.2063C60.9119 34.2595 60.9631 34.3019 61.0079 34.3476C61.1039 34.4453 61.1964 34.5468 61.2989 34.6371C61.3504 34.6824 61.3999 34.7296 61.4488 34.7772C61.4999 34.8269 61.5395 34.8888 61.5925 34.936C61.627 34.9666 61.676 34.9969 61.7194 34.9984C61.8331 35.0021 61.9503 35.0231 62.0666 34.9683L62.0665 34.9683Z" fill="#0000FF"/>
<path d="M61.6604 36.4403C61.6344 36.4656 61.6358 36.4978 61.6033 36.5209C61.5384 36.567 61.4602 36.6079 61.4359 36.6959C61.4343 36.7015 61.4256 36.7069 61.4191 36.709C61.3441 36.7335 61.311 36.8022 61.2612 36.8538C61.203 36.9142 61.1359 36.966 61.0777 37.0263C60.9831 37.1246 60.8748 37.2105 60.8028 37.3301C60.787 37.3565 60.7521 37.3711 60.7264 37.3917C60.7011 37.412 60.6764 37.4328 60.6514 37.4535C60.6434 37.4601 60.635 37.4731 60.6277 37.4724C60.5547 37.4659 60.5257 37.5268 60.4843 37.5664C60.4673 37.5826 60.4604 37.6097 60.4502 37.6325C60.4445 37.6454 60.4445 37.6691 60.4366 37.6717C60.365 37.6947 60.3836 37.7534 60.3829 37.803C60.3813 37.9261 60.4087 37.9712 60.5183 38.0395C60.5295 38.0464 60.5369 38.0603 60.5445 38.072C60.5603 38.0963 60.5817 38.1059 60.6107 38.1049C60.6519 38.1033 60.6931 38.1045 60.7343 38.1045C60.8609 38.1045 60.8599 38.092 60.9504 37.9933C61.0083 37.93 61.0628 37.8623 61.1254 37.8034C61.2126 37.7214 61.3064 37.6465 61.3926 37.5634C61.4234 37.5337 61.4519 37.5014 61.484 37.4722C61.5184 37.4409 61.5424 37.3987 61.5748 37.3649C61.6456 37.2911 61.7092 37.2096 61.8007 37.1572C61.8241 37.1437 61.8414 37.1158 61.856 37.0912C61.875 37.0589 61.8874 37.0238 61.9346 37.0224C61.9438 37.0221 61.9546 37.0039 61.961 36.992C61.9943 36.9302 62.0452 36.8857 62.0995 36.8431C62.1188 36.828 62.1372 36.8057 62.1447 36.783C62.1723 36.7003 62.1674 36.6151 62.1485 36.5316C62.1434 36.5093 62.1324 36.4831 62.0962 36.4845C62.0464 36.4864 62.0207 36.4216 61.9591 36.438C61.9137 36.4501 61.8623 36.4403 61.8137 36.4403C61.7614 36.4403 61.7093 36.4403 61.6603 36.4403L61.6604 36.4403Z" fill="#0000FF"/>
</svg>
