<svg width="88" height="88" viewBox="0 0 88 88" fill="none" xmlns="http://www.w3.org/2000/svg">
<circle cx="44" cy="44" r="43" fill="#0000FF" stroke="#0000FF"/>
<path d="M53.9251 41.9238C53.9251 35.38 53.9251 28.8362 53.9251 22.2924C53.9251 21.9205 53.742 21.734 53.3757 21.7328C53.1228 21.7328 52.87 21.7253 52.6172 21.7354C52.3871 21.7446 52.2481 21.6958 52.2414 21.4185C52.2346 21.1438 52.3568 21.0924 52.5961 21.094C54.3937 21.1025 56.1954 21.0224 57.9871 21.1252C59.9186 21.2365 61.5847 21.9781 62.6373 23.7242C62.998 24.3217 63.1952 24.9765 63.196 25.6836C63.1985 28.5767 63.2028 31.4689 63.2044 34.362C63.2061 36.5245 63.2087 38.6869 63.2028 40.8494C63.1985 42.4952 62.3112 43.6944 60.7572 44.2489C59.7568 44.6063 58.722 44.6416 57.6854 44.6416C57.2716 44.6416 57.168 44.7782 57.1688 45.1743C57.1798 50.6512 57.1814 56.1272 57.1671 61.6041C57.1663 62.0449 57.3062 62.1679 57.7225 62.1351C58.1548 62.1014 58.593 62.1376 59.0279 62.1233C59.268 62.1157 59.3506 62.2075 59.3523 62.441C59.354 62.6862 59.2411 62.7511 59.0161 62.7511C56.8814 62.7469 54.7468 62.7469 52.613 62.7511C52.3812 62.7511 52.2439 62.7031 52.2439 62.4275C52.2439 62.1351 52.4124 62.1216 52.629 62.1258C52.9518 62.1325 53.2754 62.1216 53.5982 62.1292C53.8274 62.1351 53.9403 62.0457 53.9251 61.8081C53.9175 61.6825 53.9251 61.5553 53.9251 61.4289C53.9251 54.9272 53.9251 48.4255 53.9251 41.9238ZM60.1335 33.119C60.1335 30.6616 60.1546 28.2042 60.1209 25.7468C60.1099 24.9664 60.0316 24.17 59.8487 23.4141C59.5883 22.3388 59.0346 21.6486 57.7478 21.7269C57.1789 21.7615 57.1772 21.7328 57.1772 22.3152C57.1772 29.336 57.1772 36.3576 57.1772 43.3784C57.1772 43.4905 57.1595 43.6076 57.1865 43.7138C57.2076 43.7964 57.2691 43.9026 57.3399 43.9321C57.982 44.2026 59.1206 43.8385 59.5335 43.241C60.0198 42.5382 60.1243 41.7317 60.1285 40.9117C60.1403 38.3136 60.1327 35.7163 60.1327 33.1181L60.1335 33.119Z" fill="white" stroke="white"/>
<path d="M48.2904 62.7472C47.3912 62.7472 46.4928 62.7438 45.5936 62.7497C45.3686 62.7514 45.2195 62.7202 45.2186 62.4353C45.2186 62.1505 45.3644 62.1159 45.5911 62.1244C45.8861 62.1345 46.181 62.1193 46.476 62.1294C46.7229 62.1379 46.8299 62.0696 46.7988 61.7898C46.5299 59.3484 46.2712 56.907 46.0142 54.4648C45.8439 52.8459 45.6855 51.2253 45.5127 49.6064C45.388 48.4342 45.2422 47.2645 45.1209 46.0931C45.0964 45.8529 44.9936 45.7889 44.772 45.7897C43.6908 45.7965 42.6087 45.8024 41.5283 45.7872C41.2098 45.783 41.1187 45.9271 41.0892 46.2086C40.9106 47.9117 40.726 49.614 40.5356 51.3155C40.2684 53.7004 39.9878 56.0837 39.7249 58.4686C39.6465 59.1799 39.5791 59.8953 39.5605 60.61C39.5336 61.6508 40.0257 62.1269 41.0547 62.1277C41.1954 62.1277 41.3497 62.094 41.4718 62.1412C41.5713 62.18 41.6985 62.3207 41.6926 62.4092C41.6859 62.5247 41.5713 62.6427 41.4794 62.737C41.444 62.7733 41.3446 62.748 41.2746 62.748C39.8142 62.748 38.3537 62.748 36.8933 62.7497C36.6708 62.7497 36.4719 62.7598 36.4719 62.4362C36.4719 62.1126 36.67 62.0999 36.8916 62.1294C37.8759 62.2617 38.3301 61.5656 38.5889 60.6117C38.8004 59.8321 38.8796 59.0122 38.9748 58.2057C39.3027 55.4322 39.617 52.658 39.9263 49.882C40.094 48.3752 40.2347 46.8659 40.3982 45.3591C40.6628 42.9177 40.9443 40.478 41.2055 38.0366C41.4086 36.1388 41.5873 34.2384 41.7862 32.3397C42.0424 29.8975 42.3112 27.4561 42.5682 25.0139C42.6913 23.8416 42.8126 22.6685 42.9087 21.4938C42.939 21.1238 43.0621 20.9789 43.4497 21.0025C44.0093 21.0353 44.5731 21.0218 45.1344 21.0067C45.4057 20.9991 45.5372 21.0682 45.5675 21.3682C45.8128 23.8121 46.0656 26.2544 46.3319 28.6958C46.5889 31.0529 46.8729 33.4075 47.1316 35.7646C47.3347 37.6203 47.5125 39.4785 47.7097 41.335C48.0131 44.1818 48.3249 47.0277 48.63 49.8736C48.8786 52.1894 49.1196 54.5069 49.3691 56.8228C49.5477 58.4829 49.7416 60.1423 49.9152 61.8025C49.9421 62.0603 50.0517 62.1404 50.2902 62.1294C50.5287 62.1176 50.768 62.1311 51.0065 62.1261C51.2189 62.1218 51.395 62.132 51.4009 62.4235C51.4077 62.7387 51.2172 62.7497 50.9888 62.7488C50.0896 62.7455 49.1913 62.748 48.2921 62.748L48.2904 62.7472ZM43.2096 27.7527C43.1624 27.7553 43.1143 27.7586 43.0671 27.7612C43.036 28.0755 43.0073 28.3907 42.9736 28.705C42.7536 30.7689 42.5337 32.8327 42.3121 34.8966C42.1401 36.5003 41.964 38.1032 41.7912 39.7069C41.6126 41.3662 41.4424 43.0264 41.2544 44.684C41.2173 45.0093 41.294 45.1358 41.6463 45.1282C42.6281 45.1079 43.6115 45.1113 44.5933 45.1273C44.9077 45.1324 45.0189 45.0414 44.9801 44.7178C44.8714 43.8127 44.7838 42.905 44.6919 41.9983C44.4922 40.0305 44.2992 38.0627 44.0961 36.0958C43.8264 33.4732 43.55 30.8515 43.2761 28.2289C43.2593 28.0696 43.2323 27.9112 43.2096 27.7519V27.7527Z" fill="white" stroke="white"/>
<path d="M32.4357 41.7723C32.504 41.4386 32.5832 41.1074 32.6372 40.7711C33.024 38.3761 33.4024 35.9794 33.7892 33.5843C34.1043 31.6326 34.428 29.6825 34.7465 27.7315C34.9606 26.4169 35.1738 25.1014 35.3836 23.7859C35.4123 23.6064 35.4317 23.4235 35.4333 23.2415C35.4418 22.2841 34.8931 21.7397 33.9375 21.7296C33.6864 21.7271 33.3071 21.8569 33.3788 21.3698C33.3939 21.2686 33.5481 21.1111 33.64 21.1102C35.2125 21.0942 36.7851 21.0942 38.3576 21.1102C38.4444 21.1111 38.5776 21.2754 38.6045 21.3849C38.6517 21.5805 38.5877 21.7237 38.3264 21.7397C37.9978 21.76 37.6396 21.765 37.3531 21.9007C36.7067 22.2058 36.491 22.8454 36.3764 23.4867C36.0999 25.0331 35.8657 26.5871 35.6137 28.1377C35.1948 30.7123 34.7693 33.286 34.3563 35.8605C34.0588 37.7162 33.8288 39.5837 33.4731 41.4276C33.0366 43.6895 32.9776 45.9632 32.9919 48.2546C33.0198 52.6916 32.9995 57.1294 33.0004 61.5664C33.0004 61.9394 33.1838 62.1265 33.5507 62.1276C34.0841 62.1276 34.6176 62.1327 35.1519 62.1251C35.3794 62.1217 35.5277 62.1605 35.5244 62.442C35.521 62.6931 35.3996 62.7504 35.183 62.7504C32.7113 62.7479 30.2404 62.7479 27.7687 62.7504C27.5479 62.7504 27.4324 62.6872 27.4333 62.4394C27.4333 62.1976 27.5327 62.1209 27.762 62.1251C28.2954 62.1344 28.8297 62.1091 29.3623 62.1352C29.7154 62.1521 29.8207 62.0273 29.8191 61.6801C29.8064 59.6719 29.8123 57.6637 29.8123 55.6563C29.8123 52.834 29.7761 50.0108 29.8275 47.1894C29.8536 45.7517 29.5519 44.373 29.3159 42.9791C29.0025 41.1268 28.6527 39.2812 28.3148 37.4331C27.8993 35.1577 27.4737 32.884 27.0625 30.6078C26.572 27.89 26.0917 25.1696 25.6054 22.4502C25.581 22.3128 25.5144 22.1805 25.5043 22.0431C25.4849 21.7785 25.3324 21.7271 25.1048 21.7321C24.7433 21.7414 24.3818 21.7347 24 21.7347V21.122C24.1475 21.1127 24.2714 21.0976 24.3944 21.0976C26.2063 21.0959 28.0173 21.095 29.8283 21.0976C30.0373 21.0976 30.2885 21.0175 30.2885 21.3993C30.2885 21.7911 30.0365 21.7296 29.803 21.7313C29.5924 21.733 29.3817 21.7313 29.171 21.7313C28.5946 21.7313 28.5819 21.7347 28.6864 22.3187C28.9494 23.7951 29.2224 25.2708 29.4963 26.7456C29.8064 28.4133 30.1208 30.0802 30.4334 31.7472C30.9273 34.379 31.4219 37.01 31.9149 39.6419C32.0312 40.2613 32.1408 40.8824 32.2571 41.5026C32.2739 41.5919 32.3119 41.6771 32.3397 41.7647C32.3725 41.7672 32.4054 41.7689 32.4383 41.7714L32.4357 41.7723Z" fill="white" stroke="white"/>
<path d="M55.2 68.8576H54.1862C54.0775 68.5963 54.032 68.1918 53.8516 68.1185C53.5364 67.9904 53.1378 68.0528 52.7746 68.0663C52.6785 68.0696 52.5505 68.1632 52.4999 68.2508C52.392 68.4404 52.3684 68.7843 52.2319 68.8306C51.9572 68.9233 51.6293 68.8584 51.2847 68.8584C51.3167 68.7295 51.3335 68.6225 51.3689 68.523C51.7827 67.3609 52.2058 66.203 52.6094 65.0375C52.687 64.8133 52.7923 64.7392 53.0283 64.74C53.7631 64.7425 53.7631 64.7316 54.0092 65.4235C54.3615 66.4137 54.7146 67.4039 55.0643 68.3949C55.114 68.5357 55.1477 68.6815 55.1983 68.8584L55.2 68.8576ZM52.837 67.21H53.6174C53.4935 66.8224 53.3848 66.4836 53.2769 66.144L53.1901 66.1482C53.0788 66.4836 52.9676 66.8182 52.837 67.2092V67.21Z" fill="white" stroke="white" stroke-width="0.5"/>
<path d="M33.1185 68.8747C33.2264 68.5578 33.3039 68.321 33.3865 68.0867C33.7421 67.0839 34.1054 66.0836 34.4517 65.0765C34.536 64.8313 34.6481 64.7268 34.9262 64.7327C35.6332 64.7487 35.6332 64.7327 35.8726 65.4111C36.2686 66.5319 36.6656 67.6519 37.0937 68.8629C36.7271 68.8629 36.4094 68.9033 36.1136 68.8418C36.0066 68.8191 35.9172 68.5595 35.8801 68.3943C35.8186 68.1255 35.6855 68.0134 35.4124 68.0497C35.2886 68.0657 35.1579 68.0682 35.034 68.0497C34.5975 67.9848 34.3034 68.1019 34.2427 68.5915C34.2174 68.7921 34.0986 68.9025 33.8669 68.8797C33.6461 68.8578 33.4219 68.8747 33.1177 68.8747H33.1185ZM35.1503 66.1518C35.1166 66.1476 35.0829 66.1425 35.0501 66.1383C34.9405 66.4864 34.8318 66.8344 34.713 67.212H35.4756C35.3593 66.8327 35.2548 66.4923 35.1503 66.1518Z" fill="white" stroke="white" stroke-width="0.5"/>
<path d="M30.5049 67.4149H31.4201C31.3544 68.2147 30.8437 68.8139 30.1324 68.9563C29.2223 69.1391 28.3998 68.8164 28.0416 68.0883C27.6413 67.2742 27.6379 66.4272 28.0357 65.614C28.372 64.9272 28.9872 64.6398 29.7321 64.6668C30.4493 64.6929 31.0552 64.9541 31.3375 65.6738C31.3999 65.8323 31.335 66.0396 31.3291 66.225C31.0367 66.1643 30.6482 66.4323 30.4577 66.0665C30.2529 65.673 29.9791 65.4935 29.5535 65.5525C29.1127 65.614 28.8877 65.9292 28.8372 66.3261C28.79 66.6944 28.7942 67.0829 28.8599 67.4469C28.929 67.8304 29.1911 68.0849 29.6167 68.1161C30.0473 68.1473 30.3027 67.9357 30.4434 67.5489C30.4619 67.4975 30.4889 67.4486 30.5049 67.4141V67.4149Z" fill="white" stroke="white" stroke-width="0.5"/>
<path d="M39.9093 67.4417V68.8373H38.9536V64.7686C39.6741 64.7686 40.377 64.713 41.0663 64.7837C41.8442 64.8638 42.1686 65.3914 42.1096 66.2779C42.0599 67.0246 41.663 67.408 40.8885 67.44C40.5826 67.4527 40.275 67.4426 39.9093 67.4426V67.4417ZM39.927 66.6908C40.3399 66.5821 40.72 66.5164 41.0638 66.3647C41.1354 66.3327 41.1506 65.9223 41.0512 65.8001C40.7503 65.4276 40.3188 65.6349 39.927 65.5945V66.6908Z" fill="white" stroke="white" stroke-width="0.5"/>
<path d="M47.969 68.848V65.5942H46.7942V64.7607H50.0926V65.5731H48.9659V68.8488H47.969V68.848Z" fill="white" stroke="white" stroke-width="0.5"/>
<path d="M59.9721 68.006V68.8496H57.074V64.7446C57.288 64.7446 57.4819 64.759 57.6723 64.7413C57.9513 64.7151 58.0364 64.8264 58.0313 65.1011C58.0161 65.9009 58.0263 66.7014 58.0263 67.5012C58.0263 67.6537 58.0263 67.8063 58.0263 68.0068H59.9721V68.006Z" fill="white" stroke="white" stroke-width="0.5"/>
<path d="M44.9691 64.7737V68.8517H44.0488V64.7737H44.9691Z" fill="white" stroke="white" stroke-width="0.5"/>
</svg>
